ModPlug Tracker MPT
Orders: 0,1,2,3,4,5,6,7,+,8,9,10,11,12,13,14,15,+,16,17,18,19,20,21,22,23,+,24,25,26,27,+,28,29,30,31,32,33,34,35,+,36,37,38,39,+,40,41,42,43,+,44,45,46,47,48,49,50,51,+,52,53,54,55,56,57,58,59,+,60,61,62,63,64,65,66,67,+,68,69,70,71,72,73,74,75,+,76,77,78,79,80,81,82,83,+,84,85,86,87,+,88,89,90,91,92,93,94,95,96,97,98,99,100,101,102
Rows: 64
|........A03|A-202...M30|E-405......|B-305......|G#305......|...........|...........|...........|...........|...........|...........|C-403......|...........|...........|...........|...........|...........|E-611......|...........|...........|...........|...........|...........|...........|...........|...........|...........|...........
|...........|...........|...........|...........|...........|...........|...........|...........|...........|...........|...........|...........|...........|...........|...........|...........|...........|...........|...........|...........|...........|...........|...........|...........|...........|...........|...........|...........
|...........|...........|...........|...........|...........|...........|...........|...........|...........|...........|...........|...........|...........|...........|...........|...........|...........|...........|...........|...........|...........|...........|...........|...........|...........|...........|...........|...........
|...........|...........|...........|...........|...........|...........|...........|...........|...........|...........|...........|...........|...........|...........|...........|...........|...........|...........|...........|...........|...........|...........|...........|...........|...........|...........|...........|...........
|...........|...........|...........|...........|...........|...........|...........|...........|...........|...........|...........|...........|...........|...........|...........|...........|...........|...........|...........|...........|...........|...........|...........|...........|...........|...........|...........|...........
|...........|...........|...........|...........|...........|...........|...........|...........|...........|...........|...........|...........|...........|...........|...........|...........|...........|...........|...........|...........|...........|...........|...........|...........|...........|...........|...........|...........
|...........|...........|...........|...........|...........|...........|...........|...........|...........|...........|...........|...........|...........|...........|...........|...........|...........|...........|...........|...........|...........|...........|...........|...........|...........|...........|...........|...........
|...........|...........|...........|...........|...........|...........|...........|...........|...........|...........|...........|...........|...........|...........|...........|...........|...........|...........|...........|...........|...........|...........|...........|...........|...........|...........|...........|...........
|...........|...........|...........|...........|...........|...........|...........|...........|...........|...........|C-503......|G-404......|...........|...........|...........|...........|...........|...........|...........|...........|...........|...........|...........|...........|...........|...........|...........|...........
|...........|...........|...........|...........|...........|...........|...........|...........|...........|...........|...........|...........|...........|...........|...........|...........|...........|...........|...........|...........|...........|...........|...........|...........|...........|...........|...........|...........
|...........|...........|...........|...........|...........|...........|...........|...........|...........|...........|...........|...........|...........|...........|...........|...........|...........|...........|...........|...........|...........|...........|...........|...........|...........|...........|...........|...........
|...........|...........|...........|...........|...........|...........|...........|...........|...........|...........|...........|...........|...........|...........|...........|...........|...........|...........|...........|...........|...........|...........|...........|...........|...........|...........|...........|...........
|...........|...........|...........|...........|...........|...........|...........|...........|...........|...........|...........|...........|...........|...........|...........|...........|...........|...........|...........|...........|...........|...........|...........|...........|...........|...........|...........|...........
|...........|...........|...........|...........|...........|...........|...........|...........|...........|...........|...........|C-403......|...........|...........|...........|...........|...........|...........|...........|...........|...........|...........|...........|...........|...........|...........|...........|...........
|...........|...........|...........|...........|...........|...........|...........|...........|...........|...........|...........|...........|...........|...........|...........|...........|...........|...........|...........|...........|...........|...........|...........|...........|...........|...........|...........|...........
|...........|...........|...........|...........|...........|...........|...........|...........|...........|...........|...........|...........|...........|...........|...........|...........|...........|...........|...........|...........|...........|...........|...........|...........|...........|...........|...........|...........
|...........|F#302......|F#405......|C#405......|A-305......|...........|...........|...........|...........|...........|C-403......|...........|...........|...........|...........|...........|...........|...........|...........|===........|...........|===........|===........|...........|...........|...........|...........|...........
|...........|...........|...........|...........|...........|...........|...........|...........|...........|...........|...........|...........|...........|...........|...........|...........|...........|...........|...........|...........|...........|...........|...........|...........|...........|...........|...........|...........
|...........|...........|...........|...........|...........|...........|...........|...........|...........|...........|...........|...........|...........|...........|...........|...........|...........|...........|...........|...........|...........|...........|...........|...........|...........|...........|...........|...........
|...........|...........|...........|...........|...........|...........|...........|...........|...........|...........|...........|...........|...........|...........|...........|...........|...........|...........|...........|...........|...........|...........|...........|...........|...........|...........|...........|...........
|...........|...........|...........|...........|...........|...........|...........|...........|...........|...........|...........|...........|...........|...........|...........|...........|...........|...........|...........|...........|...........|...........|...........|...........|...........|...........|...........|...........
|...........|...........|...........|...........|...........|...........|...........|...........|...........|...........|...........|...........|...........|...........|...........|...........|...........|...........|...........|...........|...........|...........|...........|...........|...........|...........|...........|...........
|...........|...........|...........|...........|...........|...........|...........|...........|...........|...........|...........|...........|...........|...........|...........|...........|...........|...........|...........|...........|...........|...........|...........|...........|...........|...........|...........|...........
|...........|...........|...........|...........|...........|...........|...........|...........|...........|...........|...........|...........|...........|...........|...........|...........|...........|...........|...........|...........|...........|...........|...........|...........|...........|...........|...........|...........
|...........|...........|...........|...........|...........|...........|...........|...........|...........|...........|G-404......|C-503......|...........|...........|...........|...........|...........|F#611......|...........|...........|...........|...........|...........|...........|...........|...........|...........|...........
|...........|...........|...........|...........|...........|...........|...........|...........|...........|...........|...........|...........|...........|...........|...........|...........|...........|...........|...........|...........|...........|...........|...........|...........|...........|...........|...........|...........
|...........|...........|...........|...........|...........|...........|...........|...........|...........|...........|...........|...........|...........|...........|...........|...........|...........|...........|...........|...........|...........|...........|...........|...........|...........|...........|...........|...........
|...........|...........|...........|...........|...........|...........|...........|...........|...........|...........|...........|...........|...........|...........|...........|...........|...........|...........|...........|...........|...........|...........|...........|...........|...........|...........|...........|...........
|...........|...........|...........|...........|...........|...........|...........|...........|...........|...........|...........|...........|...........|...........|...........|...........|...........|^^^........|...........|...........|...........|...........|...........|...........|...........|...........|...........|...........
|...........|...........|...........|...........|...........|...........|...........|...........|...........|...........|C-403......|...........|...........|...........|...........|...........|...........|...........|...........|...........|...........|...........|...........|...........|...........|...........|...........|...........
|...........|...........|...........|...........|...........|...........|...........|...........|...........|...........|...........|...........|...........|...........|...........|...........|...........|...........|...........|...........|...........|...........|...........|...........|...........|...........|...........|...........
|...........|...........|...........|...........|...........|...........|...........|...........|...........|...........|...........|...........|...........|...........|...........|...........|...........|...........|...........|...........|...........|...........|...........|...........|...........|...........|...........|...........
|...........|C#302......|G#405......|E-405......|B-305......|...........|...........|...........|...........|...........|...........|C-403......|...........|...........|...........|...........|...........|G-611......|...........|...........|...........|...........|...........|...........|...........|...........|...........|...........
|...........|...........|...........|...........|...........|...........|...........|...........|...........|...........|...........|...........|...........|...........|...........|...........|...........|...........|...........|...........|...........|...........|...........|...........|...........|...........|...........|...........
|...........|...........|...........|...........|...........|...........|...........|...........|...........|...........|...........|...........|...........|...........|...........|...........|...........|........F08|...........|...........|...........|...........|...........|...........|...........|...........|...........|...........
|...........|...........|...........|...........|...........|...........|...........|...........|...........|...........|...........|...........|...........|...........|...........|...........|...........|...........|...........|...........|...........|...........|...........|...........|...........|...........|...........|...........
|...........|...........|...........|...........|...........|...........|...........|...........|...........|...........|...........|...........|...........|...........|...........|...........|...........|...........|...........|...........|...........|...........|...........|...........|...........|...........|...........|...........
|...........|...........|...........|...........|...........|...........|...........|...........|...........|...........|...........|...........|...........|...........|...........|...........|...........|...........|...........|...........|...........|...........|...........|...........|...........|...........|...........|...........
|...........|...........|...........|...........|...........|...........|...........|...........|...........|...........|...........|...........|...........|...........|...........|...........|...........|...........|...........|...........|...........|...........|...........|...........|...........|...........|...........|...........
|...........|...........|...........|...........|...........|...........|...........|...........|...........|...........|...........|...........|...........|...........|...........|...........|...........|...........|...........|...........|...........|...........|...........|...........|...........|...........|...........|...........
|...........|...........|...........|...........|...........|...........|...........|...........|...........|...........|C-503......|G-404......|...........|...........|...........|...........|...........|...........|...........|...........|...........|...........|...........|...........|...........|...........|...........|...........
|...........|...........|...........|...........|...........|...........|...........|...........|...........|...........|...........|...........|...........|...........|...........|...........|...........|...........|...........|...........|...........|...........|...........|...........|...........|...........|...........|...........
|...........|...........|...........|...........|...........|...........|...........|...........|...........|...........|...........|...........|...........|...........|...........|...........|...........|...........|...........|...........|...........|...........|...........|...........|...........|...........|...........|...........
|...........|...........|...........|...........|...........|...........|...........|...........|...........|...........|...........|...........|...........|...........|...........|...........|...........|...........|...........|...........|...........|...........|...........|...........|...........|...........|...........|...........
|...........|...........|...........|...........|...........|...........|...........|...........|...........|...........|...........|...........|...........|...........|...........|...........|...........|...........|...........|...........|...........|...........|...........|...........|...........|...........|...........|...........
|...........|...........|...........|...........|...........|...........|...........|...........|...........|...........|...........|C-403......|...........|...........|...........|...........|...........|...........|...........|...........|...........|...........|...........|...........|...........|...........|...........|...........
|...........|...........|...........|...........|...........|...........|...........|...........|...........|...........|...........|...........|...........|...........|...........|...........|...........|...........|...........|...........|...........|...........|...........|...........|...........|...........|...........|...........
|...........|...........|...........|...........|...........|...........|...........|...........|...........|...........|...........|...........|...........|...........|...........|...........|...........|...........|...........|...........|...........|...........|...........|...........|...........|...........|...........|...........
|...........|F#202......|A-405......|E-405......|C#405......|...........|...........|...........|...........|...........|C-403......|...........|...........|...........|...........|...........|...........|A-611......|...........|...........|...........|...........|...........|...........|...........|...........|...........|...........
|...........|...........|...........|...........|...........|...........|...........|...........|...........|...........|...........|...........|...........|...........|...........|...........|...........|...........|...........|...........|...........|...........|...........|...........|...........|...........|...........|...........
|...........|...........|...........|...........|...........|...........|...........|...........|...........|...........|...........|...........|...........|...........|...........|...........|...........|...........|...........|...........|...........|...........|...........|...........|...........|...........|...........|...........
|...........|...........|...........|...........|...........|...........|...........|...........|...........|...........|...........|...........|...........|...........|...........|...........|...........|...........|...........|...........|...........|...........|...........|...........|...........|...........|...........|...........
|...........|...........|...........|...........|...........|...........|...........|...........|...........|...........|...........|...........|...........|...........|...........|...........|...........|...........|...........|...........|...........|...........|...........|...........|...........|...........|...........|...........
|...........|...........|...........|...........|...........|...........|...........|...........|...........|...........|...........|...........|...........|...........|...........|...........|...........|...........|...........|...........|...........|...........|...........|...........|...........|...........|...........|...........
|...........|...........|...........|...........|...........|...........|...........|...........|...........|...........|...........|...........|...........|...........|...........|...........|...........|...........|...........|...........|...........|...........|...........|...........|...........|...........|...........|...........
|...........|...........|...........|...........|...........|...........|...........|...........|...........|...........|...........|...........|...........|...........|...........|...........|...........|...........|...........|...........|...........|...........|...........|...........|...........|...........|...........|...........
|...........|...........|...........|...........|...........|...........|...........|...........|...........|...........|G-404......|C-503......|...........|...........|...........|...........|...........|...........|...........|...........|...........|...........|...........|...........|...........|...........|...........|...........
|...........|...........|...........|...........|...........|...........|...........|...........|...........|...........|...........|...........|...........|...........|...........|...........|...........|...........|...........|...........|...........|...........|...........|...........|...........|...........|...........|...........
|...........|...........|...........|...........|...........|...........|...........|...........|...........|...........|...........|...........|...........|...........|...........|...........|...........|...........|...........|...........|...........|...........|...........|...........|...........|...........|...........|...........
|...........|...........|...........|...........|...........|...........|...........|...........|...........|...........|...........|...........|...........|...........|...........|...........|...........|...........|...........|...........|...........|...........|...........|...........|...........|...........|...........|...........
|...........|...........|...........|...........|...........|...........|...........|...........|...........|...........|...........|...........|...........|...........|...........|...........|...........|...........|...........|...........|...........|...........|...........|...........|...........|...........|...........|...........
|...........|...........|...........|...........|...........|...........|...........|...........|...........|...........|C-403......|...........|...........|...........|...........|...........|...........|B-611......|...........|...........|...........|...........|...........|...........|...........|...........|...........|...........
|...........|...........|...........|...........|...........|...........|...........|...........|...........|...........|...........|...........|...........|...........|...........|...........|...........|...........|...........|...........|...........|...........|...........|...........|...........|...........|...........|...........
|...........|...........|...........|...........|...........|...........|...........|...........|...........|...........|...........|...........|...........|...........|...........|...........|...........|...........|...........|...........|...........|...........|...........|...........|...........|...........|...........|...........
Rows: 64
|...........|B-202......|B-405......|G#405......|D#405......|A-305......|...........|...........|...........|...........|...........|C-403......|...........|...........|...........|...........|...........|...........|...........|...........|...........|...........|...........|...........|...........|...........|...........|...........
|...........|...........|...........|...........|...........|...........|...........|...........|...........|...........|...........|...........|...........|...........|...........|...........|...........|...........|...........|...........|...........|...........|...........|...........|...........|...........|...........|...........
|...........|...........|...........|...........|...........|...........|...........|...........|...........|...........|...........|...........|...........|...........|...........|...........|...........|...........|...........|...........|...........|...........|...........|...........|...........|...........|...........|...........
|...........|...........|...........|...........|...........|...........|...........|...........|...........|...........|...........|...........|...........|...........|...........|...........|...........|...........|...........|...........|...........|...........|...........|...........|...........|...........|...........|...........
|...........|...........|...........|...........|...........|...........|...........|...........|...........|...........|...........|...........|...........|...........|...........|...........|...........|...........|...........|...........|...........|...........|...........|...........|...........|...........|...........|...........
|...........|...........|...........|...........|...........|...........|...........|...........|...........|...........|...........|...........|...........|...........|...........|...........|...........|...........|...........|...........|...........|D#508......|A-408......|G#508......|...........|...........|...........|...........
|...........|...........|...........|...........|...........|...........|...........|...........|...........|...........|...........|...........|...........|...........|...........|...........|...........|...........|...........|...........|...........|...........|...........|...........|...........|...........|...........|...........
|...........|...........|...........|...........|...........|...........|...........|...........|...........|...........|...........|...........|...........|...........|...........|...........|...........|...........|...........|...........|...........|...........|...........|...........|...........|...........|...........|...........
|...........|...........|...........|...........|...........|...........|...........|...........|...........|...........|C-503......|G-404......|...........|...........|...........|...........|...........|...........|...........|...........|...........|===........|===........|...........|...........|...........|...........|...........
|...........|...........|...........|...........|...........|...........|...........|...........|...........|...........|...........|...........|...........|...........|...........|...........|...........|...........|...........|...........|...........|...........|...........|...........|...........|...........|...........|...........
|...........|...........|...........|...........|...........|...........|...........|...........|...........|...........|...........|...........|...........|...........|...........|...........|...........|...........|...........|...........|...........|...........|...........|...........|...........|...........|...........|...........
|...........|...........|...........|...........|...........|...........|...........|...........|...........|...........|...........|...........|...........|...........|...........|...........|...........|...........|...........|...........|...........|...........|...........|...........|...........|...........|...........|...........
|...........|...........|...........|...........|...........|...........|...........|...........|...........|...........|...........|...........|...........|...........|...........|...........|...........|...........|...........|...........|...........|...........|...........|===........|...........|...........|...........|...........
|...........|...........|...........|...........|...........|...........|...........|...........|...........|...........|...........|C-403......|...........|...........|...........|...........|...........|...........|...........|...........|...........|...........|...........|...........|...........|...........|...........|...........
|...........|...........|...........|...........|...........|...........|...........|...........|...........|...........|...........|...........|...........|...........|...........|...........|...........|...........|...........|...........|...........|...........|...........|...........|...........|...........|...........|...........
|...........|...........|...........|...........|...........|...........|...........|...........|...........|...........|...........|...........|...........|...........|...........|...........|...........|...........|...........|...........|...........|...........|...........|...........|...........|...........|...........|...........
|...........|F#302......|...........|...........|...........|...........|...........|...........|...........|...........|C-403......|...........|...........|...........|...........|...........|...........|...........|...........|...........|...........|D#508......|A-408......|G#508......|...........|...........|...........|...........
|...........|...........|...........|...........|...........|...........|...........|...........|...........|...........|...........|...........|...........|...........|...........|...........|...........|...........|...........|...........|...........|...........|...........|...........|...........|...........|...........|...........
|...........|...........|...........|...........|...........|...........|...........|...........|...........|...........|...........|...........|...........|...........|...........|...........|...........|...........|...........|...........|...........|...........|...........|...........|...........|...........|...........|...........
|...........|...........|...........|...........|...........|...........|...........|...........|...........|...........|...........|...........|...........|...........|...........|...........|...........|...........|...........|...........|...........|...........|...........|...........|...........|...........|...........|...........
|...........|...........|...........|...........|...........|...........|...........|...........|...........|...........|...........|...........|...........|...........|...........|...........|...........|...........|...........|...........|...........|===........|===........|===........|...........|...........|...........|...........
|...........|...........|...........|...........|...........|...........|...........|...........|...........|...........|...........|...........|...........|...........|...........|...........|...........|...........|...........|...........|...........|...........|...........|...........|...........|...........|...........|...........
|...........|...........|...........|...........|...........|...........|...........|...........|...........|...........|...........|...........|...........|...........|...........|...........|...........|...........|...........|...........|...........|...........|...........|...........|...........|...........|...........|...........
|...........|...........|...........|...........|...........|...........|...........|...........|...........|...........|...........|...........|...........|...........|...........|...........|...........|...........|...........|...........|...........|...........|...........|...........|...........|...........|...........|...........
|...........|...........|...........|...........|...........|...........|...........|...........|...........|...........|G-404......|C-503......|...........|...........|...........|...........|...........|...........|...........|...........|...........|...........|...........|...........|...........|...........|...........|...........
|...........|...........|...........|...........|...........|...........|...........|...........|...........|...........|...........|...........|...........|...........|...........|...........|...........|...........|...........|...........|...........|...........|...........|...........|...........|...........|...........|...........
|...........|...........|...........|...........|...........|...........|...........|...........|...........|...........|...........|...........|...........|...........|...........|...........|...........|...........|...........|...........|...........|...........|...........|...........|...........|...........|...........|...........
|...........|...........|...........|...........|...........|...........|...........|...........|...........|...........|...........|...........|...........|...........|...........|...........|...........|...........|...........|...........|...........|...........|...........|...........|...........|...........|...........|...........
|...........|...........|...........|...........|...........|...........|...........|...........|...........|...........|...........|...........|...........|...........|...........|...........|...........|...........|...........|...........|...........|...........|...........|...........|...........|...........|...........|...........
|...........|...........|...........|...........|...........|...........|...........|...........|...........|...........|C-403......|...........|...........|...........|...........|...........|...........|...........|...........|...........|...........|...........|...........|...........|...........|...........|...........|...........
|...........|...........|...........|...........|...........|...........|...........|...........|...........|...........|...........|...........|...........|...........|...........|...........|...........|...........|...........|...........|...........|...........|...........|...........|...........|...........|...........|...........
|...........|...........|...........|...........|...........|...........|...........|...........|...........|...........|...........|...........|...........|...........|...........|...........|...........|...........|...........|...........|...........|...........|...........|...........|...........|...........|...........|...........
|...........|B-202......|...........|...........|...........|...........|...........|...........|...........|...........|...........|C-403......|...........|...........|...........|...........|...........|...........|...........|...........|...........|D#508......|A-408......|G#508......|...........|...........|...........|...........
|...........|...........|...........|...........|...........|...........|...........|...........|...........|...........|...........|...........|...........|...........|...........|...........|...........|...........|...........|...........|...........|...........|...........|...........|...........|...........|...........|...........
|...........|...........|...........|...........|...........|...........|...........|...........|...........|...........|...........|...........|...........|...........|...........|...........|...........|...........|...........|...........|...........|...........|...........|...........|...........|...........|...........|...........
|...........|...........|...........|...........|...........|...........|...........|...........|...........|...........|...........|...........|...........|...........|...........|...........|...........|...........|...........|...........|...........|...........|...........|...........|...........|...........|...........|...........
|...........|...........|...........|...........|...........|...........|...........|...........|...........|...........|...........|...........|...........|...........|...........|...........|...........|...........|...........|...........|...........|===........|===........|===........|...........|...........|...........|...........
|...........|...........|...........|...........|...........|...........|...........|...........|...........|...........|...........|...........|...........|...........|...........|...........|...........|...........|...........|...........|...........|...........|...........|...........|...........|...........|...........|...........
|...........|...........|...........|...........|...........|...........|...........|...........|...........|...........|...........|...........|...........|...........|...........|...........|...........|...........|...........|...........|...........|...........|...........|...........|...........|...........|...........|...........
|...........|...........|...........|...........|...........|...........|...........|...........|...........|...........|...........|...........|...........|...........|...........|...........|...........|...........|...........|...........|...........|...........|...........|...........|...........|...........|...........|...........
|...........|...........|...........|...........|...........|...........|...........|...........|...........|...........|C-503......|G-404......|...........|...........|...........|...........|...........|...........|...........|...........|...........|...........|...........|...........|...........|...........|...........|...........
|...........|...........|...........|...........|...........|...........|...........|...........|...........|...........|...........|...........|...........|...........|...........|...........|...........|...........|...........|...........|...........|...........|...........|...........|...........|...........|...........|...........
|...........|...........|...........|...........|...........|...........|...........|...........|...........|...........|...........|...........|...........|...........|...........|...........|...........|...........|...........|...........|...........|...........|...........|...........|...........|...........|...........|...........
|...........|...........|...........|...........|...........|...........|...........|...........|...........|...........|...........|...........|...........|...........|...........|...........|...........|...........|...........|...........|...........|...........|...........|...........|...........|...........|...........|...........
|...........|...........|...........|...........|...........|...........|...........|...........|...........|...........|...........|...........|...........|...........|...........|...........|...........|...........|...........|...........|...........|...........|...........|...........|...........|...........|...........|...........
|...........|...........|...........|...........|...........|...........|...........|...........|...........|...........|...........|C-403......|...........|...........|...........|...........|...........|...........|...........|...........|...........|D#508......|A-408......|G#508......|...........|...........|...........|...........
|...........|...........|...........|...........|...........|...........|...........|...........|...........|...........|...........|...........|...........|...........|...........|...........|...........|...........|...........|...........|...........|...........|...........|...........|...........|...........|...........|...........
|...........|...........|...........|...........|...........|...........|...........|...........|...........|...........|...........|...........|...........|...........|...........|...........|...........|...........|...........|...........|...........|...........|...........|...........|...........|...........|...........|...........
|...........|F#302......|...........|...........|...........|...........|...........|...........|...........|...........|C-403......|...........|...........|...........|...........|...........|...........|...........|...........|...........|...........|===........|===........|===........|...........|...........|...........|...........
|...........|...........|...........|...........|...........|...........|...........|...........|...........|...........|...........|...........|...........|...........|...........|...........|...........|...........|...........|...........|...........|...........|...........|...........|...........|...........|...........|...........
|...........|...........|...........|...........|...........|...........|...........|...........|...........|...........|...........|...........|...........|...........|...........|...........|...........|...........|...........|...........|...........|...........|...........|...........|...........|...........|...........|...........
|...........|...........|...........|...........|...........|...........|...........|...........|...........|...........|...........|...........|...........|...........|...........|...........|...........|...........|...........|...........|...........|...........|...........|...........|...........|...........|...........|...........
|...........|...........|...........|...........|...........|...........|...........|...........|...........|...........|...........|...........|...........|...........|...........|...........|...........|...........|...........|...........|...........|...........|...........|...........|...........|...........|...........|...........
|...........|...........|...........|...........|...........|...........|...........|...........|...........|...........|...........|...........|...........|...........|...........|...........|...........|...........|...........|...........|...........|...........|...........|...........|...........|...........|...........|...........
|...........|...........|...........|...........|...........|...........|...........|...........|...........|...........|...........|...........|...........|...........|...........|...........|...........|...........|...........|...........|...........|...........|...........|...........|...........|...........|...........|...........
|...........|...........|...........|...........|...........|...........|...........|...........|...........|...........|...........|...........|...........|...........|...........|...........|...........|...........|...........|...........|...........|...........|...........|...........|...........|...........|...........|...........
|...........|...........|...........|...........|...........|...........|...........|...........|...........|...........|G-404......|C-503......|...........|...........|...........|...........|...........|...........|...........|...........|...........|...........|...........|...........|...........|...........|...........|...........
|...........|...........|...........|...........|...........|...........|...........|...........|...........|...........|...........|...........|...........|...........|...........|...........|...........|...........|...........|...........|...........|...........|...........|...........|...........|...........|...........|...........
|...........|...........|...........|...........|...........|...........|...........|...........|...........|...........|...........|...........|...........|...........|...........|...........|...........|...........|...........|...........|...........|...........|...........|...........|...........|...........|...........|...........
|...........|...........|...........|...........|...........|...........|...........|...........|...........|...........|...........|...........|...........|...........|...........|...........|...........|...........|...........|...........|...........|...........|...........|...........|...........|...........|...........|...........
|...........|...........|...........|...........|...........|...........|...........|...........|...........|...........|...........|...........|...........|...........|...........|...........|...........|...........|...........|...........|...........|...........|...........|...........|...........|...........|...........|...........
|...........|...........|...........|...........|...........|...........|...........|...........|...........|...........|C-403......|...........|...........|...........|...........|...........|...........|...........|...........|...........|...........|...........|...........|...........|...........|...........|...........|...........
|...........|...........|...........|...........|...........|...........|...........|...........|...........|...........|...........|...........|...........|...........|...........|...........|...........|...........|...........|...........|...........|...........|...........|...........|...........|...........|...........|...........
|...........|...........|...........|...........|...........|...........|...........|...........|...........|...........|...........|...........|...........|...........|...........|...........|...........|...........|...........|...........|...........|...........|...........|...........|...........|...........|...........|...........
Rows: 64
|...........|B-202......|B-405......|D-405......|A-305......|F#405......|...........|...........|...........|...........|...........|C-403......|...........|...........|...........|...........|...........|...........|...........|...........|...........|...........|...........|...........|...........|...........|...........|...........
|...........|...........|...........|...........|...........|...........|...........|...........|...........|...........|...........|...........|...........|...........|...........|...........|...........|...........|...........|...........|...........|...........|...........|...........|...........|...........|...........|...........
|...........|...........|...........|...........|...........|...........|...........|...........|...........|...........|...........|...........|...........|...........|...........|...........|...........|...........|...........|...........|...........|...........|...........|...........|...........|...........|...........|...........
|...........|...........|...........|...........|...........|...........|...........|...........|...........|...........|...........|...........|...........|...........|...........|...........|...........|...........|...........|...........|...........|...........|...........|...........|...........|...........|...........|...........
|...........|...........|...........|...........|...........|...........|...........|...........|...........|...........|...........|...........|...........|...........|...........|...........|...........|...........|...........|...........|...........|...........|...........|...........|...........|...........|...........|...........
|...........|...........|...........|...........|...........|...........|...........|...........|...........|...........|...........|...........|...........|...........|...........|...........|...........|...........|...........|...........|...........|D-508......|A-408......|F#508......|...........|...........|...........|...........
|...........|...........|...........|...........|...........|...........|...........|...........|...........|...........|...........|...........|...........|...........|...........|...........|...........|...........|...........|...........|...........|...........|...........|...........|...........|...........|...........|...........
|...........|...........|...........|...........|...........|...........|...........|...........|...........|...........|...........|...........|...........|...........|...........|...........|...........|...........|...........|...........|...........|...........|...........|...........|...........|...........|...........|...........
|...........|...........|...........|...........|...........|...........|...........|...........|...........|...........|C-503......|G-404......|...........|...........|...........|...........|...........|B-611......|...........|...........|...........|===........|===........|===........|...........|...........|...........|...........
|...........|...........|...........|...........|...........|...........|...........|...........|...........|...........|...........|...........|...........|...........|...........|...........|...........|...........|...........|...........|...........|...........|...........|...........|...........|...........|...........|...........
|...........|...........|...........|...........|...........|...........|...........|...........|...........|...........|...........|...........|...........|...........|...........|...........|...........|...........|...........|...........|...........|...........|...........|...........|...........|...........|...........|...........
|...........|...........|...........|...........|...........|...........|...........|...........|...........|...........|...........|...........|...........|...........|...........|...........|...........|...........|...........|...........|...........|...........|...........|...........|...........|...........|...........|...........
|...........|...........|...........|...........|...........|...........|...........|...........|...........|...........|...........|...........|...........|...........|...........|...........|...........|...........|...........|...........|...........|...........|...........|...........|...........|...........|...........|...........
|...........|...........|...........|...........|...........|...........|...........|...........|...........|...........|...........|C-403......|...........|...........|...........|...........|...........|...........|...........|...........|...........|...........|...........|...........|...........|...........|...........|...........
|...........|...........|...........|...........|...........|...........|...........|...........|...........|...........|...........|...........|...........|...........|...........|...........|...........|...........|...........|...........|...........|...........|...........|...........|...........|...........|...........|...........
|...........|...........|...........|...........|...........|...........|...........|...........|...........|...........|...........|...........|...........|...........|...........|...........|...........|...........|...........|...........|...........|...........|...........|...........|...........|...........|...........|...........
|...........|F#302......|C#505......|A-405......|E-405......|...........|...........|...........|...........|...........|C-403......|...........|...........|...........|...........|...........|...........|...........|...........|...........|...........|C#508......|A-408......|E-508......|...........|...........|...........|...........
|...........|...........|...........|...........|...........|...........|...........|...........|...........|...........|...........|...........|...........|...........|...........|...........|...........|...........|...........|...........|...........|...........|...........|...........|...........|...........|...........|...........
|...........|...........|...........|...........|...........|...........|...........|...........|...........|...........|...........|...........|...........|...........|...........|...........|...........|...........|...........|...........|...........|...........|...........|...........|...........|...........|...........|...........
|...........|...........|...........|...........|...........|...........|...........|...........|...........|...........|...........|...........|...........|...........|...........|...........|...........|...........|...........|...........|...........|...........|...........|...........|...........|...........|...........|...........
|...........|...........|...........|...........|...........|...........|...........|...........|...........|...........|...........|...........|...........|...........|...........|...........|...........|...........|...........|...........|...........|===........|===........|===........|...........|...........|...........|...........
|...........|...........|...........|...........|...........|...........|...........|...........|...........|...........|...........|...........|...........|...........|...........|...........|...........|...........|...........|...........|...........|...........|...........|...........|...........|...........|...........|...........
|...........|...........|...........|...........|...........|...........|...........|...........|...........|...........|...........|...........|...........|...........|...........|...........|...........|...........|...........|...........|...........|...........|...........|...........|...........|...........|...........|...........
|...........|...........|...........|...........|...........|...........|...........|...........|...........|...........|...........|...........|...........|...........|...........|...........|...........|...........|...........|...........|...........|...........|...........|...........|...........|...........|...........|...........
|...........|...........|...........|...........|...........|...........|...........|...........|...........|...........|G-404......|C-503......|...........|...........|...........|...........|...........|C#711......|...........|...........|...........|...........|...........|...........|...........|...........|...........|...........
|...........|...........|...........|...........|...........|...........|...........|...........|...........|...........|...........|...........|...........|...........|...........|...........|...........|...........|...........|...........|...........|...........|...........|...........|...........|...........|...........|...........
|...........|...........|...........|...........|...........|...........|...........|...........|...........|...........|...........|...........|...........|...........|...........|...........|...........|...........|...........|...........|...........|...........|...........|...........|...........|...........|...........|...........
|...........|...........|...........|...........|...........|...........|...........|...........|...........|...........|...........|...........|...........|...........|...........|...........|...........|...........|...........|...........|...........|...........|...........|...........|...........|...........|...........|...........
|...........|...........|...........|...........|...........|...........|...........|...........|...........|...........|...........|...........|...........|...........|...........|...........|...........|^^^........|...........|...........|...........|...........|...........|...........|...........|...........|...........|...........
|...........|...........|...........|...........|...........|...........|...........|...........|...........|...........|C-403......|...........|...........|...........|...........|...........|...........|...........|...........|...........|...........|...........|...........|...........|...........|...........|...........|...........
|...........|...........|...........|...........|...........|...........|...........|...........|...........|...........|...........|...........|...........|...........|...........|...........|...........|...........|...........|...........|...........|...........|...........|...........|...........|...........|...........|...........
|...........|...........|...........|...........|...........|...........|...........|...........|...........|...........|...........|...........|...........|...........|...........|...........|...........|...........|...........|...........|...........|...........|...........|...........|...........|...........|...........|...........
|...........|B-302......|D-505......|A-405......|F#405......|...........|...........|...........|...........|...........|...........|C-403......|...........|...........|...........|...........|...........|D-711......|...........|...........|...........|D-508......|A-408......|F#508......|...........|...........|...........|...........
|...........|...........|...........|...........|...........|...........|...........|...........|...........|...........|...........|...........|...........|...........|...........|...........|...........|...........|...........|...........|...........|...........|...........|...........|...........|...........|...........|...........
|...........|...........|...........|...........|...........|...........|...........|...........|...........|...........|...........|...........|...........|...........|...........|...........|...........|...........|...........|...........|...........|...........|...........|...........|...........|...........|...........|...........
|...........|...........|...........|...........|...........|...........|...........|...........|...........|...........|...........|...........|...........|...........|...........|...........|...........|...........|...........|...........|...........|...........|...........|...........|...........|...........|...........|...........
|...........|...........|...........|...........|...........|...........|...........|...........|...........|...........|...........|...........|...........|...........|...........|...........|...........|...........|...........|...........|...........|===........|===........|===........|...........|...........|...........|...........
|...........|...........|...........|...........|...........|...........|...........|...........|...........|...........|...........|...........|...........|...........|...........|...........|...........|...........|...........|...........|...........|...........|...........|...........|...........|...........|...........|...........
|...........|...........|...........|...........|...........|...........|...........|...........|...........|...........|...........|...........|...........|...........|...........|...........|...........|...........|...........|...........|...........|...........|...........|...........|...........|...........|...........|...........
|...........|...........|...........|...........|...........|...........|...........|...........|...........|...........|...........|...........|...........|...........|...........|...........|...........|...........|...........|...........|...........|...........|...........|...........|...........|...........|...........|...........
|...........|...........|...........|...........|...........|...........|...........|...........|...........|...........|C-503......|G-404......|...........|...........|...........|...........|...........|...........|...........|...........|...........|...........|...........|...........|...........|...........|...........|...........
|...........|...........|...........|...........|...........|...........|...........|...........|...........|...........|...........|...........|...........|...........|...........|...........|...........|...........|...........|...........|...........|...........|...........|...........|...........|...........|...........|...........
|...........|...........|...........|...........|...........|...........|...........|...........|...........|...........|...........|...........|...........|...........|...........|...........|...........|...........|...........|...........|...........|...........|...........|...........|...........|...........|...........|...........
|...........|...........|...........|...........|...........|...........|...........|...........|...........|...........|...........|...........|...........|...........|...........|...........|...........|...........|...........|...........|...........|...........|...........|...........|...........|...........|...........|...........
|...........|...........|...........|...........|...........|...........|...........|...........|...........|...........|...........|...........|...........|...........|...........|...........|...........|...........|...........|...........|...........|...........|...........|...........|...........|...........|...........|...........
|...........|...........|...........|...........|...........|...........|...........|...........|...........|...........|...........|C-403......|...........|...........|...........|...........|...........|...........|...........|...........|...........|D-508......|G#408......|F#508......|...........|...........|...........|...........
|...........|...........|...........|...........|...........|...........|...........|...........|...........|...........|...........|...........|...........|...........|...........|...........|...........|...........|...........|...........|...........|...........|...........|...........|...........|...........|...........|...........
|...........|...........|...........|...........|...........|...........|...........|...........|...........|...........|...........|...........|...........|...........|...........|...........|...........|...........|...........|...........|...........|...........|...........|...........|...........|...........|...........|...........
|...........|E-302......|E-505......|D-405......|G#405......|C#505......|...........|...........|...........|...........|C-403......|...........|...........|...........|...........|...........|...........|E-711......|...........|...........|...........|===........|===........|===........|...........|...........|...........|...........
|...........|...........|...........|...........|...........|...........|...........|...........|...........|...........|...........|...........|...........|...........|...........|...........|...........|...........|...........|...........|...........|...........|...........|...........|...........|...........|...........|...........
|...........|...........|...........|...........|...........|...........|...........|...........|...........|...........|...........|...........|...........|...........|...........|...........|...........|...........|...........|...........|...........|...........|...........|...........|...........|...........|...........|...........
|...........|...........|...........|...........|...........|...........|...........|...........|...........|...........|...........|...........|...........|...........|...........|...........|...........|...........|...........|...........|...........|...........|...........|...........|...........|...........|...........|...........
|...........|...........|...........|...........|...........|...........|...........|...........|...........|...........|...........|...........|...........|...........|...........|...........|...........|...........|...........|...........|...........|...........|...........|...........|...........|...........|...........|...........
|...........|...........|...........|...........|...........|...........|...........|...........|...........|...........|...........|...........|...........|...........|...........|...........|...........|...........|...........|...........|...........|...........|...........|...........|...........|...........|...........|...........
|...........|...........|...........|...........|...........|...........|...........|...........|...........|...........|...........|...........|...........|...........|...........|...........|...........|...........|...........|...........|...........|...........|...........|...........|...........|...........|...........|...........
|...........|...........|...........|...........|...........|...........|...........|...........|...........|...........|...........|...........|...........|...........|...........|...........|...........|...........|...........|...........|...........|...........|...........|...........|...........|...........|...........|...........
|...........|...........|...........|...........|...........|...........|...........|...........|...........|...........|G-404......|C-503......|...........|...........|...........|...........|...........|...........|...........|...........|...........|...........|...........|...........|...........|...........|...........|...........
|...........|...........|...........|...........|...........|...........|...........|...........|...........|...........|...........|...........|...........|...........|...........|...........|...........|...........|...........|...........|...........|...........|...........|...........|...........|...........|...........|...........
|...........|...........|...........|...........|...........|...........|...........|...........|...........|...........|...........|...........|...........|...........|...........|...........|...........|...........|...........|...........|...........|...........|...........|...........|...........|...........|...........|...........
|...........|...........|...........|...........|...........|...........|...........|...........|...........|...........|...........|...........|...........|...........|...........|...........|...........|...........|...........|...........|...........|...........|...........|...........|...........|...........|...........|...........
|...........|...........|...........|...........|...........|...........|...........|...........|...........|...........|...........|...........|...........|...........|...........|...........|...........|...........|...........|...........|...........|...........|...........|...........|...........|...........|...........|...........
|...........|...........|...........|...........|...........|...........|...........|...........|...........|...........|C-403......|...........|...........|...........|...........|...........|...........|E-711......|...........|...........|...........|...........|...........|...........|...........|...........|...........|...........
|...........|...........|...........|...........|...........|...........|...........|...........|...........|...........|...........|...........|...........|...........|...........|...........|...........|........F10|...........|...........|...........|...........|...........|...........|...........|...........|...........|...........
|...........|...........|...........|...........|...........|...........|...........|...........|...........|...........|...........|...........|...........|...........|...........|...........|...........|...........|...........|...........|...........|...........|...........|...........|...........|...........|...........|...........
Rows: 64
|...........|E-402......|F#505......|B-405......|G-405......|D-405......|...........|...........|...........|...........|...........|C-403......|...........|...........|...........|...........|...........|...........|...........|...........|...........|...........|...........|...........|...........|...........|...........|...........
|...........|...........|...........|...........|...........|...........|...........|...........|...........|...........|...........|...........|...........|...........|...........|...........|...........|...........|...........|...........|...........|...........|...........|...........|...........|...........|...........|...........
|...........|...........|...........|...........|...........|...........|...........|...........|...........|...........|...........|...........|...........|...........|...........|...........|...........|...........|...........|...........|...........|...........|...........|...........|...........|...........|...........|...........
|...........|...........|...........|...........|...........|...........|...........|...........|...........|...........|...........|...........|...........|...........|...........|...........|...........|...........|...........|...........|...........|...........|...........|...........|...........|...........|...........|...........
|...........|...........|...........|...........|...........|...........|...........|...........|...........|...........|...........|...........|...........|...........|...........|...........|...........|...........|...........|...........|...........|...........|...........|...........|...........|...........|...........|...........
|...........|...........|...........|...........|...........|...........|...........|...........|...........|...........|...........|...........|...........|...........|...........|...........|...........|...........|...........|...........|...........|D-508......|G-408......|F#508......|...........|...........|...........|...........
|...........|...........|...........|...........|...........|...........|...........|...........|...........|...........|...........|...........|...........|...........|...........|...........|...........|...........|...........|...........|...........|...........|...........|...........|...........|...........|...........|...........
|...........|...........|...........|...........|...........|...........|...........|...........|...........|...........|...........|...........|...........|...........|...........|...........|...........|...........|...........|...........|...........|...........|...........|...........|...........|...........|...........|...........
|...........|...........|...........|...........|...........|...........|...........|...........|...........|...........|C-503......|G-404......|...........|...........|...........|...........|...........|...........|...........|...........|...........|===........|===........|===........|...........|...........|...........|...........
|...........|...........|...........|...........|...........|...........|...........|...........|...........|...........|...........|...........|...........|...........|...........|...........|...........|...........|...........|...........|...........|...........|...........|...........|...........|...........|...........|...........
|...........|...........|...........|...........|...........|...........|...........|...........|...........|...........|...........|...........|...........|...........|...........|...........|...........|...........|...........|...........|...........|...........|...........|...........|...........|...........|...........|...........
|...........|...........|...........|...........|...........|...........|...........|...........|...........|...........|...........|...........|...........|...........|...........|...........|...........|...........|...........|...........|...........|...........|...........|...........|...........|...........|...........|...........
|...........|...........|...........|...........|...........|...........|...........|...........|...........|...........|...........|...........|...........|...........|...........|...........|...........|...........|...........|...........|...........|...........|...........|...........|...........|...........|...........|...........
|...........|...........|...........|...........|...........|...........|...........|...........|...........|...........|...........|C-403......|...........|...........|...........|...........|...........|...........|...........|...........|...........|...........|...........|...........|...........|...........|...........|...........
|...........|...........|...........|...........|...........|...........|...........|...........|...........|...........|...........|...........|...........|...........|...........|...........|...........|...........|...........|...........|...........|...........|...........|...........|...........|...........|...........|...........
|...........|...........|...........|...........|...........|...........|...........|...........|...........|...........|...........|...........|...........|...........|...........|...........|...........|...........|...........|...........|...........|...........|...........|...........|...........|...........|...........|...........
|...........|E-302......|...........|...........|...........|...........|...........|...........|...........|...........|C-403......|...........|...........|...........|...........|...........|...........|...........|...........|...........|...........|D-508......|G-408......|F#508......|...........|...........|...........|...........
|...........|...........|...........|...........|...........|...........|...........|...........|...........|...........|...........|...........|...........|...........|...........|...........|...........|...........|...........|...........|...........|...........|...........|...........|...........|...........|...........|...........
|...........|...........|...........|...........|...........|...........|...........|...........|...........|...........|...........|...........|...........|...........|...........|...........|...........|...........|...........|...........|...........|...........|...........|...........|...........|...........|...........|...........
|...........|...........|...........|...........|...........|...........|...........|...........|...........|...........|...........|...........|...........|...........|...........|...........|...........|...........|...........|...........|...........|...........|...........|...........|...........|...........|...........|...........
|...........|...........|...........|...........|...........|...........|...........|...........|...........|...........|...........|...........|...........|...........|...........|...........|...........|...........|...........|...........|...........|===........|===........|===........|...........|...........|...........|...........
|...........|...........|...........|...........|...........|...........|...........|...........|...........|...........|...........|...........|...........|...........|...........|...........|...........|...........|...........|...........|...........|...........|...........|...........|...........|...........|...........|...........
|...........|...........|...........|...........|...........|...........|...........|...........|...........|...........|...........|...........|...........|...........|...........|...........|...........|...........|...........|...........|...........|...........|...........|...........|...........|...........|...........|...........
|...........|...........|...........|...........|...........|...........|...........|...........|...........|...........|...........|...........|...........|...........|...........|...........|...........|...........|...........|...........|...........|...........|...........|...........|...........|...........|...........|...........
|...........|...........|...........|...........|...........|...........|...........|...........|...........|...........|G-404......|C-503......|...........|...........|...........|...........|...........|...........|...........|...........|...........|...........|...........|...........|...........|...........|...........|...........
|...........|...........|...........|...........|...........|...........|...........|...........|...........|...........|...........|...........|...........|...........|...........|...........|...........|...........|...........|...........|...........|...........|...........|...........|...........|...........|...........|...........
|...........|...........|...........|...........|...........|...........|...........|...........|...........|...........|...........|...........|...........|...........|...........|...........|...........|...........|...........|...........|...........|...........|...........|...........|...........|...........|...........|...........
|...........|...........|...........|...........|...........|...........|...........|...........|...........|...........|...........|...........|...........|...........|...........|...........|...........|...........|...........|...........|...........|...........|...........|...........|...........|...........|...........|...........
|...........|...........|...........|...........|...........|...........|...........|...........|...........|...........|...........|...........|...........|...........|...........|...........|...........|...........|...........|...........|...........|...........|...........|...........|...........|...........|...........|...........
|...........|...........|...........|...........|...........|...........|...........|...........|...........|...........|C-403......|...........|...........|...........|...........|...........|...........|...........|...........|...........|...........|...........|...........|...........|...........|...........|...........|...........
|...........|...........|...........|...........|...........|...........|...........|...........|...........|...........|...........|...........|...........|...........|...........|...........|...........|...........|...........|...........|...........|...........|...........|...........|...........|...........|...........|...........
|...........|...........|...........|...........|...........|...........|...........|...........|...........|...........|...........|...........|...........|...........|...........|...........|...........|...........|...........|...........|...........|...........|...........|...........|...........|...........|...........|...........
|...........|A-302......|B-405......|F#405......|D-405......|G-305......|...........|...........|...........|...........|...........|C-403......|...........|...........|...........|...........|...........|B-611......|...........|...........|...........|D-508......|G-408......|F#508......|...........|...........|...........|...........
|...........|...........|...........|...........|...........|...........|...........|...........|...........|...........|...........|...........|...........|...........|...........|...........|...........|...........|...........|...........|...........|...........|...........|...........|...........|...........|...........|...........
|...........|...........|...........|...........|...........|...........|...........|...........|...........|...........|...........|...........|...........|...........|...........|...........|...........|...........|...........|...........|...........|...........|...........|...........|...........|...........|...........|...........
|...........|...........|...........|...........|...........|...........|...........|...........|...........|...........|...........|...........|...........|...........|...........|...........|...........|...........|...........|...........|...........|...........|...........|...........|...........|...........|...........|...........
|...........|...........|...........|...........|...........|...........|...........|...........|...........|...........|...........|...........|...........|...........|...........|...........|...........|...........|...........|...........|...........|===........|===........|===........|...........|...........|...........|...........
|...........|...........|...........|...........|...........|...........|...........|...........|...........|...........|...........|...........|...........|...........|...........|...........|...........|...........|...........|...........|...........|...........|...........|...........|...........|...........|...........|...........
|...........|...........|...........|...........|...........|...........|...........|...........|...........|...........|...........|...........|...........|...........|...........|...........|...........|...........|...........|...........|...........|...........|...........|...........|...........|...........|...........|...........
|...........|...........|...........|...........|...........|...........|...........|...........|...........|...........|...........|...........|...........|...........|...........|...........|...........|...........|...........|...........|...........|...........|...........|...........|...........|...........|...........|...........
|...........|...........|...........|...........|...........|...........|...........|...........|...........|...........|C-503......|G-404......|...........|...........|...........|...........|...........|...........|...........|...........|...........|...........|...........|...........|...........|...........|...........|...........
|...........|...........|...........|...........|...........|...........|...........|...........|...........|...........|...........|...........|...........|...........|...........|...........|...........|...........|...........|...........|...........|...........|...........|...........|...........|...........|...........|...........
|...........|...........|...........|...........|...........|...........|...........|...........|...........|...........|...........|...........|...........|...........|...........|...........|...........|...........|...........|...........|...........|...........|...........|...........|...........|...........|...........|...........
|...........|...........|...........|...........|...........|...........|...........|...........|...........|...........|...........|...........|...........|...........|...........|...........|...........|...........|...........|...........|...........|...........|...........|...........|...........|...........|...........|...........
|...........|...........|...........|...........|...........|...........|...........|...........|...........|...........|...........|...........|...........|...........|...........|...........|...........|...........|...........|...........|...........|...........|...........|...........|...........|...........|...........|...........
|...........|...........|...........|...........|...........|...........|...........|...........|...........|...........|...........|C-403......|...........|...........|...........|...........|...........|...........|...........|...........|...........|C#508......|G-408......|F#508......|...........|...........|...........|...........
|...........|...........|...........|...........|...........|...........|...........|...........|...........|...........|...........|...........|...........|...........|...........|...........|...........|...........|...........|...........|...........|...........|...........|...........|...........|...........|...........|...........
|...........|...........|...........|...........|...........|...........|...........|...........|...........|...........|...........|...........|...........|...........|...........|...........|...........|...........|...........|...........|...........|...........|...........|...........|...........|...........|...........|...........
|...........|A-202......|E-505......|B-405......|F#405......|C#405......|G-305......|...........|...........|...........|C-403......|...........|...........|...........|...........|...........|...........|E-711......|...........|...........|...........|===........|===........|===........|...........|...........|...........|...........
|...........|...........|...........|...........|...........|...........|...........|...........|...........|...........|...........|...........|...........|...........|...........|...........|...........|...........|...........|...........|...........|...........|...........|...........|...........|...........|...........|...........
|...........|...........|...........|...........|...........|...........|...........|...........|...........|...........|...........|...........|...........|...........|...........|...........|...........|...........|...........|...........|...........|...........|...........|...........|...........|...........|...........|...........
|...........|...........|...........|...........|...........|...........|...........|...........|...........|...........|...........|...........|...........|...........|...........|...........|...........|...........|...........|...........|...........|...........|...........|...........|...........|...........|...........|...........
|...........|...........|...........|...........|...........|...........|...........|...........|...........|...........|...........|...........|...........|...........|...........|...........|...........|...........|...........|...........|...........|...........|...........|...........|...........|...........|...........|...........
|...........|...........|...........|...........|...........|...........|...........|...........|...........|...........|...........|...........|...........|...........|...........|...........|...........|...........|...........|...........|...........|...........|...........|...........|...........|...........|...........|...........
|...........|...........|...........|...........|...........|...........|...........|...........|...........|...........|...........|...........|...........|...........|...........|...........|...........|...........|...........|...........|...........|...........|...........|...........|...........|...........|...........|...........
|...........|...........|...........|...........|...........|...........|...........|...........|...........|...........|...........|...........|...........|...........|...........|...........|...........|...........|...........|...........|...........|...........|...........|...........|...........|...........|...........|...........
|...........|...........|...........|...........|...........|...........|...........|...........|...........|...........|G-404......|C-503......|...........|...........|...........|...........|...........|...........|...........|...........|...........|...........|...........|...........|...........|...........|...........|...........
|...........|...........|...........|...........|...........|...........|...........|...........|...........|...........|...........|...........|...........|...........|...........|...........|...........|...........|...........|...........|...........|...........|...........|...........|...........|...........|...........|...........
|...........|...........|...........|...........|...........|...........|...........|...........|...........|...........|...........|...........|...........|...........|...........|...........|...........|...........|...........|...........|...........|...........|...........|...........|...........|...........|...........|...........
|...........|...........|...........|...........|...........|...........|...........|...........|...........|...........|...........|...........|...........|...........|...........|...........|...........|...........|...........|...........|...........|...........|...........|...........|...........|...........|...........|...........
|...........|...........|...........|...........|...........|...........|...........|...........|...........|...........|...........|...........|...........|...........|...........|...........|...........|...........|...........|...........|...........|...........|...........|...........|...........|...........|...........|...........
|...........|...........|...........|...........|...........|...........|...........|...........|...........|...........|C-403......|...........|...........|...........|...........|...........|...........|C#711......|...........|...........|...........|...........|...........|...........|...........|...........|...........|...........
|...........|...........|...........|...........|...........|...........|...........|...........|...........|...........|...........|...........|...........|...........|...........|...........|...........|...........|...........|...........|...........|...........|...........|...........|...........|...........|...........|...........
|...........|...........|...........|...........|...........|...........|...........|...........|...........|...........|...........|...........|...........|...........|...........|...........|...........|...........|...........|...........|...........|...........|...........|...........|...........|...........|...........|...........
Rows: 64
|...........|D-302......|C#505......|A-405......|E-405......|B-305......|...........|...........|...........|...........|...........|C-403......|...........|...........|...........|...........|...........|...........|...........|...........|...........|...........|...........|...........|...........|...........|...........|...........
|...........|...........|...........|...........|...........|...........|...........|...........|...........|...........|...........|...........|...........|...........|...........|...........|...........|...........|...........|...........|...........|...........|...........|...........|...........|...........|...........|...........
|...........|...........|...........|...........|...........|...........|...........|...........|...........|...........|...........|...........|...........|...........|...........|...........|...........|...........|...........|...........|...........|...........|...........|...........|...........|...........|...........|...........
|...........|...........|...........|...........|...........|...........|...........|...........|...........|...........|...........|...........|...........|...........|...........|...........|...........|...........|...........|...........|...........|...........|...........|...........|...........|...........|...........|...........
|...........|...........|...........|...........|...........|...........|...........|...........|...........|...........|...........|...........|...........|...........|...........|...........|...........|...........|...........|...........|...........|...........|...........|...........|...........|...........|...........|...........
|...........|...........|...........|...........|...........|...........|...........|...........|...........|...........|...........|...........|...........|...........|...........|...........|...........|...........|...........|...........|...........|...........|...........|...........|...........|...........|...........|...........
|...........|...........|...........|...........|...........|...........|...........|...........|...........|...........|...........|...........|...........|...........|...........|...........|...........|...........|...........|...........|...........|...........|...........|...........|...........|...........|...........|...........
|...........|...........|...........|...........|...........|...........|...........|...........|...........|...........|...........|...........|...........|...........|...........|...........|...........|...........|...........|...........|...........|...........|...........|...........|...........|...........|...........|...........
|...........|...........|...........|...........|...........|...........|...........|...........|...........|...........|C-503......|G-404......|...........|...........|...........|...........|...........|...........|...........|...........|...........|...........|...........|...........|...........|...........|...........|...........
|...........|...........|...........|...........|...........|...........|...........|...........|...........|...........|...........|...........|...........|...........|...........|...........|...........|...........|...........|...........|...........|...........|...........|...........|...........|...........|...........|...........
|...........|...........|...........|...........|...........|...........|...........|...........|...........|...........|...........|...........|...........|...........|...........|...........|...........|...........|...........|...........|...........|...........|...........|...........|...........|...........|...........|...........
|...........|...........|...........|...........|...........|...........|...........|...........|...........|...........|...........|...........|...........|...........|...........|...........|...........|...........|...........|...........|...........|...........|...........|...........|...........|...........|...........|...........
|...........|...........|...........|...........|...........|...........|...........|...........|...........|...........|...........|...........|...........|...........|...........|...........|...........|...........|...........|...........|...........|...........|...........|...........|...........|...........|...........|...........
|...........|...........|...........|...........|...........|...........|...........|...........|...........|...........|...........|C-403......|...........|...........|...........|...........|...........|...........|...........|...........|...........|...........|...........|...........|...........|...........|...........|...........
|...........|...........|...........|...........|...........|...........|...........|...........|...........|...........|...........|...........|...........|...........|...........|...........|...........|...........|...........|...........|...........|...........|...........|...........|...........|...........|...........|...........
|...........|...........|...........|...........|...........|...........|...........|...........|...........|...........|...........|...........|...........|...........|...........|...........|...........|...........|...........|...........|...........|...........|...........|...........|...........|...........|...........|...........
|...........|C#402......|...........|...........|...........|...........|...........|...........|...........|...........|C-403......|...........|...........|...........|...........|...........|...........|...........|...........|...........|...........|...........|...........|...........|...........|...........|...........|...........
|...........|...........|...........|...........|...........|...........|...........|...........|...........|...........|...........|...........|...........|...........|...........|...........|...........|...........|...........|...........|...........|...........|...........|...........|...........|...........|...........|...........
|...........|...........|...........|...........|...........|...........|...........|...........|...........|...........|...........|...........|...........|...........|...........|...........|...........|...........|...........|...........|...........|...........|...........|...........|...........|...........|...........|...........
|...........|...........|...........|...........|...........|...........|...........|...........|...........|...........|...........|...........|...........|...........|...........|...........|...........|...........|...........|...........|...........|...........|...........|...........|...........|...........|...........|...........
|...........|...........|...........|...........|...........|...........|...........|...........|...........|...........|...........|...........|...........|...........|...........|...........|...........|...........|...........|...........|...........|...........|...........|...........|...........|...........|...........|...........
|...........|...........|...........|...........|...........|...........|...........|...........|...........|...........|...........|...........|...........|...........|...........|...........|...........|...........|...........|...........|...........|...........|...........|...........|...........|...........|...........|...........
|...........|...........|...........|...........|...........|...........|...........|...........|...........|...........|...........|...........|...........|...........|...........|...........|...........|...........|...........|...........|...........|...........|...........|...........|...........|...........|...........|...........
|...........|...........|...........|...........|...........|...........|...........|...........|...........|...........|...........|...........|...........|...........|...........|...........|...........|...........|...........|...........|...........|...........|...........|...........|...........|...........|...........|...........
|...........|...........|F#405......|D-405......|A-305......|...........|...........|...........|...........|...........|G-404......|C-503......|...........|...........|...........|...........|...........|F#611......|...........|...........|...........|...........|...........|...........|...........|...........|...........|...........
|...........|...........|...........|...........|...........|...........|...........|...........|...........|...........|...........|...........|...........|...........|...........|...........|...........|...........|...........|...........|...........|...........|...........|...........|...........|...........|...........|...........
|...........|...........|...........|...........|...........|...........|...........|...........|...........|...........|...........|...........|...........|...........|...........|...........|...........|...........|...........|...........|...........|...........|...........|...........|...........|...........|...........|...........
|...........|...........|...........|...........|...........|...........|...........|...........|...........|...........|...........|...........|...........|...........|...........|...........|...........|...........|...........|...........|...........|...........|...........|...........|...........|...........|...........|...........
|...........|...........|...........|...........|...........|...........|...........|...........|...........|...........|...........|...........|...........|...........|...........|...........|...........|...........|...........|...........|...........|...........|...........|...........|...........|...........|...........|...........
|...........|...........|...........|...........|...........|...........|...........|...........|...........|...........|C-403......|...........|...........|...........|...........|...........|...........|...........|...........|...........|...........|...........|...........|...........|...........|...........|...........|...........
|...........|...........|...........|...........|...........|...........|...........|...........|...........|...........|...........|...........|...........|...........|...........|...........|...........|...........|...........|...........|...........|...........|...........|...........|...........|...........|...........|...........
|...........|...........|...........|...........|...........|...........|...........|...........|...........|...........|...........|...........|...........|...........|...........|...........|...........|...........|...........|...........|...........|...........|...........|...........|...........|...........|...........|...........
|...........|B-302......|...........|...........|...........|...........|...........|...........|...........|...........|...........|C-403......|...........|...........|...........|...........|...........|...........|...........|...........|...........|...........|...........|...........|...........|...........|...........|...........
|...........|...........|...........|...........|...........|...........|...........|...........|...........|...........|...........|...........|...........|...........|...........|...........|...........|...........|...........|...........|...........|...........|...........|...........|...........|...........|...........|...........
|...........|...........|...........|...........|...........|...........|...........|...........|...........|...........|...........|...........|...........|...........|...........|...........|...........|...........|...........|...........|...........|...........|...........|...........|...........|...........|...........|...........
|...........|...........|...........|...........|...........|...........|...........|...........|...........|...........|...........|...........|...........|...........|...........|...........|...........|...........|...........|...........|...........|...........|...........|...........|...........|...........|...........|...........
|...........|...........|...........|...........|...........|...........|...........|...........|...........|...........|...........|...........|...........|...........|...........|...........|...........|...........|...........|...........|...........|...........|...........|...........|...........|...........|...........|...........
|...........|...........|...........|...........|...........|...........|...........|...........|...........|...........|...........|...........|...........|...........|...........|...........|...........|...........|...........|...........|...........|...........|...........|...........|...........|...........|...........|...........
|...........|...........|...........|...........|...........|...........|...........|...........|...........|...........|...........|...........|...........|...........|...........|...........|...........|...........|...........|...........|...........|...........|...........|...........|...........|...........|...........|...........
|...........|...........|...........|...........|...........|...........|...........|...........|...........|...........|...........|...........|...........|...........|...........|...........|...........|...........|...........|...........|...........|...........|...........|...........|...........|...........|...........|...........
|...........|...........|...........|...........|...........|...........|...........|...........|...........|...........|C-503......|G-404......|...........|...........|...........|...........|...........|...........|...........|...........|...........|...........|...........|...........|...........|...........|...........|...........
|...........|...........|...........|...........|...........|...........|...........|...........|...........|...........|...........|...........|...........|...........|...........|...........|...........|...........|...........|...........|...........|...........|...........|...........|...........|...........|...........|...........
|...........|...........|...........|...........|...........|...........|...........|...........|...........|...........|...........|...........|...........|...........|...........|...........|...........|...........|...........|...........|...........|...........|...........|...........|...........|...........|...........|...........
|...........|...........|...........|...........|...........|...........|...........|...........|...........|...........|...........|...........|...........|...........|...........|...........|...........|...........|...........|...........|...........|...........|...........|...........|...........|...........|...........|...........
|...........|...........|...........|...........|...........|...........|...........|...........|...........|...........|...........|...........|...........|...........|...........|...........|...........|...........|...........|...........|...........|...........|...........|...........|...........|...........|...........|...........
|...........|...........|...........|...........|...........|...........|...........|...........|...........|...........|...........|C-403......|...........|...........|...........|...........|...........|...........|...........|...........|...........|...........|...........|...........|...........|...........|...........|...........
|...........|...........|...........|...........|...........|...........|...........|...........|...........|...........|...........|...........|...........|...........|...........|...........|...........|...........|...........|...........|...........|...........|...........|...........|...........|...........|...........|...........
|...........|...........|...........|...........|...........|...........|...........|...........|...........|...........|...........|...........|...........|...........|...........|...........|...........|...........|...........|...........|...........|...........|...........|...........|...........|...........|...........|...........
|...........|A-302......|...........|...........|...........|...........|...........|...........|...........|...........|C-403......|...........|...........|...........|...........|...........|...........|...........|...........|...........|...........|...........|...........|...........|...........|...........|...........|...........
|...........|...........|...........|...........|...........|...........|...........|...........|...........|...........|...........|...........|...........|...........|...........|...........|...........|...........|...........|...........|...........|...........|...........|...........|...........|...........|...........|...........
|...........|...........|...........|...........|...........|...........|...........|...........|...........|...........|...........|...........|...........|...........|...........|...........|...........|...........|...........|...........|...........|...........|...........|...........|...........|...........|...........|...........
|...........|...........|...........|...........|...........|...........|...........|...........|...........|...........|...........|...........|...........|...........|...........|...........|...........|...........|...........|...........|...........|...........|...........|...........|...........|...........|...........|...........
|...........|...........|...........|...........|...........|...........|...........|...........|...........|...........|...........|...........|...........|...........|...........|...........|...........|...........|...........|...........|...........|...........|...........|...........|...........|...........|...........|...........
|...........|...........|...........|...........|...........|...........|...........|...........|...........|...........|...........|...........|...........|...........|...........|...........|...........|...........|...........|...........|...........|...........|...........|...........|...........|...........|...........|...........
|...........|...........|...........|...........|...........|...........|...........|...........|...........|...........|...........|...........|...........|...........|...........|...........|...........|...........|...........|...........|...........|...........|...........|...........|...........|...........|...........|...........
|...........|...........|...........|...........|...........|...........|...........|...........|...........|...........|...........|...........|...........|...........|...........|...........|...........|...........|...........|...........|...........|...........|...........|...........|...........|...........|...........|...........
|...........|...........|...........|...........|...........|...........|...........|...........|...........|...........|G-404......|C-503......|...........|...........|...........|...........|...........|...........|...........|...........|...........|...........|...........|...........|...........|...........|...........|...........
|...........|...........|...........|...........|...........|...........|...........|...........|...........|...........|...........|...........|...........|...........|...........|...........|...........|...........|...........|...........|...........|...........|...........|...........|...........|...........|...........|...........
|...........|...........|...........|...........|...........|...........|...........|...........|...........|...........|...........|...........|...........|...........|...........|...........|...........|...........|...........|...........|...........|...........|...........|...........|...........|...........|...........|...........
|...........|...........|...........|...........|...........|...........|...........|...........|...........|...........|...........|...........|...........|...........|...........|...........|...........|...........|...........|...........|...........|...........|...........|...........|...........|...........|...........|...........
|...........|...........|...........|...........|...........|...........|...........|...........|...........|...........|...........|...........|...........|...........|...........|...........|...........|...........|...........|...........|...........|...........|...........|...........|...........|...........|...........|...........
|...........|...........|...........|...........|...........|...........|...........|...........|...........|...........|C-403......|...........|...........|...........|...........|...........|...........|...........|...........|...........|...........|...........|...........|...........|...........|...........|...........|...........
|...........|...........|...........|...........|...........|...........|...........|...........|...........|...........|...........|...........|...........|...........|...........|...........|...........|...........|...........|...........|...........|...........|...........|...........|...........|...........|...........|...........
|...........|...........|...........|...........|...........|...........|...........|...........|...........|...........|...........|...........|...........|...........|...........|...........|...........|...........|...........|...........|...........|...........|...........|...........|...........|...........|...........|...........
Rows: 64
|...........|G-302......|...........|...........|...........|...........|...........|...........|...........|...........|...........|C-403......|...........|...........|...........|...........|...........|...........|...........|...........|...........|...........|...........|...........|...........|...........|...........|...........
|...........|...........|...........|...........|...........|...........|...........|...........|...........|...........|...........|...........|...........|...........|...........|...........|...........|...........|...........|...........|...........|...........|...........|...........|...........|...........|...........|...........
|...........|...........|...........|...........|...........|...........|...........|...........|...........|...........|...........|...........|...........|...........|...........|...........|...........|...........|...........|...........|...........|...........|...........|...........|...........|...........|...........|...........
|...........|...........|...........|...........|...........|...........|...........|...........|...........|...........|...........|...........|...........|...........|...........|...........|...........|...........|...........|...........|...........|...........|...........|...........|...........|...........|...........|...........
|...........|...........|...........|...........|...........|...........|...........|...........|...........|...........|...........|...........|...........|...........|...........|...........|...........|...........|...........|...........|...........|...........|...........|...........|...........|...........|...........|...........
|...........|...........|...........|...........|...........|...........|...........|...........|...........|...........|...........|...........|...........|...........|...........|...........|...........|...........|...........|...........|...........|...........|...........|...........|...........|...........|...........|...........
|...........|...........|...........|...........|...........|...........|...........|...........|...........|...........|...........|...........|...........|...........|...........|...........|...........|...........|...........|...........|...........|...........|...........|...........|...........|...........|...........|...........
|...........|...........|...........|...........|...........|...........|...........|...........|...........|...........|...........|...........|...........|...........|...........|...........|...........|...........|...........|...........|...........|...........|...........|...........|...........|...........|...........|...........
|...........|...........|...........|...........|...........|...........|...........|...........|...........|...........|C-503......|G-404......|...........|...........|...........|...........|...........|...........|...........|...........|...........|...........|...........|...........|...........|...........|...........|...........
|...........|...........|...........|...........|...........|...........|...........|...........|...........|...........|...........|...........|...........|...........|...........|...........|...........|...........|...........|...........|...........|...........|...........|...........|...........|...........|...........|...........
|...........|...........|...........|...........|...........|...........|...........|...........|...........|...........|...........|...........|...........|...........|...........|...........|...........|...........|...........|...........|...........|...........|...........|...........|...........|...........|...........|...........
|...........|...........|...........|...........|...........|...........|...........|...........|...........|...........|...........|...........|...........|...........|...........|...........|...........|...........|...........|...........|...........|...........|...........|...........|...........|...........|...........|...........
|...........|...........|...........|...........|...........|...........|...........|...........|...........|...........|...........|...........|...........|...........|...........|...........|...........|...........|...........|...........|...........|...........|...........|...........|...........|...........|...........|...........
|...........|...........|...........|...........|...........|...........|...........|...........|...........|...........|...........|C-403......|...........|...........|...........|...........|...........|...........|...........|...........|...........|...........|...........|...........|...........|...........|...........|...........
|...........|...........|...........|...........|...........|...........|...........|...........|...........|...........|...........|...........|...........|...........|...........|...........|...........|...........|...........|...........|...........|...........|...........|...........|...........|...........|...........|...........
|...........|...........|...........|...........|...........|...........|...........|...........|...........|...........|...........|...........|...........|...........|...........|...........|...........|...........|...........|...........|...........|...........|...........|...........|...........|...........|...........|...........
|...........|F#302......|B-405......|F#405......|D-405......|A-305......|...........|...........|...........|...........|C-403......|...........|...........|...........|...........|...........|...........|...........|...........|...........|...........|...........|...........|...........|...........|...........|...........|...........
|...........|...........|...........|...........|...........|...........|...........|...........|...........|...........|...........|...........|...........|...........|...........|...........|...........|...........|...........|...........|...........|...........|...........|...........|...........|...........|...........|...........
|...........|...........|...........|...........|...........|...........|...........|...........|...........|...........|...........|...........|...........|...........|...........|...........|...........|...........|...........|...........|...........|...........|...........|...........|...........|...........|...........|...........
|...........|...........|...........|...........|...........|...........|...........|...........|...........|...........|...........|...........|...........|...........|...........|...........|...........|...........|...........|...........|...........|...........|...........|...........|...........|...........|...........|...........
|...........|...........|...........|...........|...........|...........|...........|...........|...........|...........|...........|...........|...........|...........|...........|...........|...........|...........|...........|...........|...........|...........|...........|...........|...........|...........|...........|...........
|...........|...........|...........|...........|...........|...........|...........|...........|...........|...........|...........|...........|...........|...........|...........|...........|...........|...........|...........|...........|...........|...........|...........|...........|...........|...........|...........|...........
|...........|...........|...........|...........|...........|...........|...........|...........|...........|...........|...........|...........|...........|...........|...........|...........|...........|...........|...........|...........|...........|...........|...........|...........|...........|...........|...........|...........
|...........|...........|...........|...........|...........|...........|...........|...........|...........|...........|...........|...........|...........|...........|...........|...........|...........|...........|...........|...........|...........|...........|...........|...........|...........|...........|...........|...........
|...........|...........|...........|...........|...........|...........|...........|...........|...........|...........|G-404......|C-503......|...........|...........|...........|...........|...........|...........|...........|...........|...........|...........|...........|...........|...........|...........|...........|...........
|...........|...........|...........|...........|...........|...........|...........|...........|...........|...........|...........|...........|...........|...........|...........|...........|...........|...........|...........|...........|...........|...........|...........|...........|...........|...........|...........|...........
|...........|...........|...........|...........|...........|...........|...........|...........|...........|...........|...........|...........|...........|...........|...........|...........|...........|...........|...........|...........|...........|...........|...........|...........|...........|...........|...........|...........
|...........|...........|...........|...........|...........|...........|...........|...........|...........|...........|...........|...........|...........|...........|...........|...........|...........|...........|...........|...........|...........|...........|...........|...........|...........|...........|...........|...........
|...........|...........|...........|...........|...........|...........|...........|...........|...........|...........|...........|...........|...........|...........|...........|...........|...........|...........|...........|...........|...........|...........|...........|...........|...........|...........|...........|...........
|...........|...........|...........|...........|...........|...........|...........|...........|...........|...........|C-403......|...........|...........|...........|...........|...........|...........|...........|...........|...........|...........|...........|...........|...........|...........|...........|...........|...........
|...........|...........|...........|...........|...........|...........|...........|...........|...........|...........|...........|...........|...........|...........|...........|...........|...........|...........|...........|...........|...........|...........|...........|...........|...........|...........|...........|...........
|...........|...........|...........|...........|...........|...........|...........|...........|...........|...........|...........|...........|...........|...........|...........|...........|...........|...........|...........|...........|...........|...........|...........|...........|...........|...........|...........|...........
|...........|E-302......|A-405......|D-405......|G-305......|...........|...........|...........|...........|...........|...........|C-403......|...........|...........|...........|...........|...........|...........|...........|...........|...........|...........|...........|...........|...........|...........|...........|...........
|...........|...........|...........|...........|...........|...........|...........|...........|...........|...........|...........|...........|...........|...........|...........|...........|...........|...........|...........|...........|...........|...........|...........|...........|...........|...........|...........|...........
|...........|...........|...........|...........|...........|...........|...........|...........|...........|...........|...........|...........|...........|...........|...........|...........|...........|...........|...........|...........|...........|...........|...........|...........|...........|...........|...........|...........
|...........|...........|...........|...........|...........|...........|...........|...........|...........|...........|...........|...........|...........|...........|...........|...........|...........|...........|...........|...........|...........|...........|...........|...........|...........|...........|...........|...........
|...........|...........|...........|...........|...........|...........|...........|...........|...........|...........|...........|...........|...........|...........|...........|...........|...........|...........|...........|...........|...........|...........|...........|...........|...........|...........|...........|...........
|...........|...........|...........|...........|...........|...........|...........|...........|...........|...........|...........|...........|...........|...........|...........|...........|...........|...........|...........|...........|...........|...........|...........|...........|...........|...........|...........|...........
|...........|...........|...........|...........|...........|...........|...........|...........|...........|...........|...........|...........|...........|...........|...........|...........|...........|...........|...........|...........|...........|...........|...........|...........|...........|...........|...........|...........
|...........|...........|...........|...........|...........|...........|...........|...........|...........|...........|...........|...........|...........|...........|...........|...........|...........|...........|...........|...........|...........|...........|...........|...........|...........|...........|...........|...........
|...........|...........|...........|...........|...........|...........|...........|...........|...........|...........|C-503......|G-404......|...........|...........|...........|...........|...........|...........|...........|...........|...........|...........|...........|...........|...........|...........|...........|...........
|...........|...........|...........|...........|...........|...........|...........|...........|...........|...........|...........|...........|...........|...........|...........|...........|...........|...........|...........|...........|...........|...........|...........|...........|...........|...........|...........|...........
|...........|...........|...........|...........|...........|...........|...........|...........|...........|...........|...........|...........|...........|...........|...........|...........|...........|...........|...........|...........|...........|...........|...........|...........|...........|...........|...........|...........
|...........|...........|...........|...........|...........|...........|...........|...........|...........|...........|...........|...........|...........|...........|...........|...........|...........|...........|...........|...........|...........|...........|...........|...........|...........|...........|...........|...........
|...........|...........|...........|...........|...........|...........|...........|...........|...........|...........|...........|...........|...........|...........|...........|...........|...........|...........|...........|...........|...........|...........|...........|...........|...........|...........|...........|...........
|...........|...........|...........|...........|...........|...........|...........|...........|...........|...........|...........|C-403......|...........|...........|...........|...........|...........|...........|...........|...........|...........|...........|...........|...........|...........|...........|...........|...........
|...........|...........|...........|...........|...........|...........|...........|...........|...........|...........|...........|...........|...........|...........|...........|...........|...........|...........|...........|...........|...........|...........|...........|...........|...........|...........|...........|...........
|...........|...........|...........|...........|...........|...........|...........|...........|...........|...........|...........|...........|...........|...........|...........|...........|...........|...........|...........|...........|...........|...........|...........|...........|...........|...........|...........|...........
|...........|D-302......|G-405......|B-305......|E-405......|...........|...........|...........|...........|...........|C-403......|...........|...........|...........|...........|...........|...........|...........|...........|...........|...........|...........|...........|...........|...........|...........|...........|...........
|...........|...........|...........|...........|...........|...........|...........|...........|...........|...........|...........|...........|...........|...........|...........|...........|...........|...........|...........|...........|...........|...........|...........|...........|...........|...........|...........|...........
|...........|...........|...........|...........|...........|...........|...........|...........|...........|...........|...........|...........|...........|...........|...........|...........|...........|...........|...........|...........|...........|...........|...........|...........|...........|...........|...........|...........
|...........|...........|...........|...........|...........|...........|...........|...........|...........|...........|...........|...........|...........|...........|...........|...........|...........|...........|...........|...........|...........|...........|...........|...........|...........|...........|...........|...........
|...........|...........|...........|...........|...........|...........|...........|...........|...........|...........|...........|...........|...........|...........|...........|...........|...........|...........|...........|...........|...........|...........|...........|...........|...........|...........|...........|...........
|...........|...........|...........|...........|...........|...........|...........|...........|...........|...........|...........|...........|...........|...........|...........|...........|...........|...........|...........|...........|...........|...........|...........|...........|...........|...........|...........|...........
|...........|...........|...........|...........|...........|...........|...........|...........|...........|...........|...........|...........|...........|...........|...........|...........|...........|...........|...........|...........|...........|...........|...........|...........|...........|...........|...........|...........
|...........|...........|...........|...........|...........|...........|...........|...........|...........|...........|...........|...........|...........|...........|...........|...........|...........|...........|...........|...........|...........|...........|...........|...........|...........|...........|...........|...........
|...........|...........|...........|...........|...........|...........|...........|...........|...........|...........|G-404......|C-503......|...........|...........|...........|...........|...........|...........|...........|...........|...........|...........|...........|...........|...........|...........|...........|...........
|...........|...........|...........|...........|...........|...........|...........|...........|...........|...........|...........|...........|...........|...........|...........|...........|...........|...........|...........|...........|...........|...........|...........|...........|...........|...........|...........|...........
|...........|...........|...........|...........|...........|...........|...........|...........|...........|...........|...........|...........|...........|...........|...........|...........|...........|...........|...........|...........|...........|...........|...........|...........|...........|...........|...........|...........
|...........|...........|...........|...........|...........|...........|...........|...........|...........|...........|...........|...........|...........|...........|...........|...........|...........|...........|...........|...........|...........|...........|...........|...........|...........|...........|...........|...........
|...........|...........|...........|...........|...........|...........|...........|...........|...........|...........|...........|...........|...........|...........|...........|...........|...........|...........|...........|...........|...........|...........|...........|...........|...........|...........|...........|...........
|...........|...........|...........|...........|...........|...........|...........|...........|...........|...........|C-403......|...........|...........|...........|...........|...........|...........|...........|...........|...........|...........|...........|...........|...........|...........|...........|...........|...........
|...........|...........|...........|...........|...........|...........|...........|...........|...........|...........|...........|...........|...........|...........|...........|...........|...........|...........|...........|...........|...........|...........|...........|...........|...........|...........|...........|...........
|...........|...........|...........|...........|...........|...........|...........|...........|...........|...........|...........|...........|...........|...........|...........|...........|...........|...........|...........|...........|...........|...........|...........|...........|...........|...........|...........|...........
Rows: 64
|...........|C#302......|F#405......|E-405......|B-305......|G-305......|...........|...........|...........|...........|...........|C-403......|...........|...........|...........|...........|...........|...........|...........|...........|...........|...........|...........|...........|...........|...........|...........|...........
|...........|...........|...........|...........|...........|...........|...........|...........|...........|...........|...........|...........|...........|...........|...........|...........|...........|...........|...........|...........|...........|...........|...........|...........|...........|...........|...........|...........
|...........|...........|...........|...........|...........|...........|...........|...........|...........|...........|...........|...........|...........|...........|...........|...........|...........|...........|...........|...........|...........|...........|...........|...........|...........|...........|...........|...........
|...........|...........|...........|...........|...........|...........|...........|...........|...........|...........|...........|...........|...........|...........|...........|...........|...........|...........|...........|...........|...........|...........|...........|...........|...........|...........|...........|...........
|...........|...........|...........|...........|...........|...........|...........|...........|...........|...........|...........|...........|...........|...........|...........|...........|...........|...........|...........|...........|...........|...........|...........|...........|...........|...........|...........|...........
|...........|...........|...........|...........|...........|...........|...........|...........|...........|...........|...........|...........|...........|...........|...........|...........|...........|...........|...........|...........|...........|...........|...........|...........|...........|...........|...........|...........
|...........|...........|...........|...........|...........|...........|...........|...........|...........|...........|...........|...........|...........|...........|...........|...........|...........|...........|...........|...........|...........|...........|...........|...........|...........|...........|...........|...........
|...........|...........|...........|...........|...........|...........|...........|...........|...........|...........|...........|...........|...........|...........|...........|...........|...........|...........|...........|...........|...........|...........|...........|...........|...........|...........|...........|...........
|...........|...........|...........|...........|...........|...........|...........|...........|...........|...........|C-503......|G-404......|...........|...........|...........|...........|...........|...........|...........|...........|...........|...........|...........|...........|...........|...........|...........|...........
|...........|...........|...........|...........|...........|...........|...........|...........|...........|...........|...........|...........|...........|...........|...........|...........|...........|...........|...........|...........|...........|...........|...........|...........|...........|...........|...........|...........
|...........|...........|...........|...........|...........|...........|...........|...........|...........|...........|...........|...........|...........|...........|...........|...........|...........|...........|...........|...........|...........|...........|...........|...........|...........|...........|...........|...........
|...........|...........|...........|...........|...........|...........|...........|...........|...........|...........|...........|...........|...........|...........|...........|...........|...........|...........|...........|...........|...........|...........|...........|...........|...........|...........|...........|...........
|...........|...........|...........|...........|...........|...........|...........|...........|...........|...........|...........|...........|...........|...........|...........|...........|...........|...........|...........|...........|...........|...........|...........|...........|...........|...........|...........|...........
|...........|...........|...........|...........|...........|...........|...........|...........|...........|...........|...........|C-403......|...........|...........|...........|...........|...........|...........|...........|...........|...........|...........|...........|...........|...........|...........|...........|...........
|...........|...........|...........|...........|...........|...........|...........|...........|...........|...........|...........|...........|...........|...........|...........|...........|...........|...........|...........|...........|...........|...........|...........|...........|...........|...........|...........|...........
|...........|...........|...........|...........|...........|...........|...........|...........|...........|...........|...........|...........|...........|...........|...........|...........|...........|...........|...........|...........|...........|...........|...........|...........|...........|...........|...........|...........
|...........|G-302......|...........|...........|...........|...........|...........|...........|...........|...........|C-403......|...........|...........|...........|...........|...........|...........|...........|...........|...........|...........|...........|...........|...........|...........|...........|...........|...........
|...........|...........|...........|...........|...........|...........|...........|...........|...........|...........|...........|...........|...........|...........|...........|...........|...........|...........|...........|...........|...........|...........|...........|...........|...........|...........|...........|...........
|...........|...........|...........|...........|...........|...........|...........|...........|...........|...........|...........|...........|...........|...........|...........|...........|...........|...........|...........|...........|...........|...........|...........|...........|...........|...........|...........|...........
|...........|...........|...........|...........|...........|...........|...........|...........|...........|...........|...........|...........|...........|...........|...........|...........|...........|...........|...........|...........|...........|...........|...........|...........|...........|...........|...........|...........
|...........|...........|...........|...........|...........|...........|...........|...........|...........|...........|...........|...........|...........|...........|...........|...........|...........|...........|...........|...........|...........|...........|...........|...........|...........|...........|...........|...........
|...........|...........|...........|...........|...........|...........|...........|...........|...........|...........|...........|...........|...........|...........|...........|...........|...........|...........|...........|...........|...........|...........|...........|...........|...........|...........|...........|...........
|...........|...........|...........|...........|...........|...........|...........|...........|...........|...........|...........|...........|...........|...........|...........|...........|...........|...........|...........|...........|...........|...........|...........|...........|...........|...........|...........|...........
|...........|...........|...........|...........|...........|...........|...........|...........|...........|...........|...........|...........|...........|...........|...........|...........|...........|...........|...........|...........|...........|...........|...........|...........|...........|...........|...........|...........
|...........|...........|...........|...........|...........|...........|...........|...........|...........|...........|G-404......|C-503......|...........|...........|...........|...........|...........|...........|...........|...........|...........|...........|...........|...........|...........|...........|...........|...........
|...........|...........|...........|...........|...........|...........|...........|...........|...........|...........|...........|...........|...........|...........|...........|...........|...........|...........|...........|...........|...........|...........|...........|...........|...........|...........|...........|...........
|...........|...........|...........|...........|...........|...........|...........|...........|...........|...........|...........|...........|...........|...........|...........|...........|...........|...........|...........|...........|...........|...........|...........|...........|...........|...........|...........|...........
|...........|...........|...........|...........|...........|...........|...........|...........|...........|...........|...........|...........|...........|...........|...........|...........|...........|...........|...........|...........|...........|...........|...........|...........|...........|...........|...........|...........
|...........|...........|...........|...........|...........|...........|...........|...........|...........|...........|...........|...........|...........|...........|...........|...........|...........|...........|...........|...........|...........|...........|...........|...........|...........|...........|...........|...........
|...........|...........|...........|...........|...........|...........|...........|...........|...........|...........|C-403......|...........|...........|...........|...........|...........|...........|...........|...........|...........|...........|...........|...........|...........|...........|...........|...........|...........
|...........|...........|...........|...........|...........|...........|...........|...........|...........|...........|...........|...........|...........|...........|...........|...........|...........|...........|...........|...........|...........|...........|...........|...........|...........|...........|...........|...........
|...........|...........|...........|...........|...........|...........|...........|...........|...........|...........|...........|...........|...........|...........|...........|...........|...........|...........|...........|...........|...........|...........|...........|...........|...........|...........|...........|...........
|...........|F#302......|F#405......|D-405......|A#305......|E-305......|...........|...........|...........|...........|...........|C-403......|...........|...........|...........|...........|...........|...........|...........|...........|...........|...........|...........|...........|...........|...........|...........|...........
|...........|...........|...........|...........|...........|...........|...........|...........|...........|...........|...........|...........|...........|...........|...........|...........|...........|...........|...........|...........|...........|...........|...........|...........|...........|...........|...........|...........
|...........|...........|...........|...........|...........|...........|...........|...........|...........|...........|...........|...........|...........|...........|...........|...........|...........|...........|...........|...........|...........|...........|...........|...........|...........|...........|...........|...........
|...........|...........|...........|...........|...........|...........|...........|...........|...........|...........|...........|...........|...........|...........|...........|...........|...........|...........|...........|...........|...........|...........|...........|...........|...........|...........|...........|...........
|...........|...........|...........|...........|...........|...........|...........|...........|...........|...........|...........|...........|...........|...........|...........|...........|...........|...........|...........|...........|...........|...........|...........|...........|...........|...........|...........|...........
|...........|...........|...........|...........|...........|...........|...........|...........|...........|...........|...........|...........|...........|...........|...........|...........|...........|...........|...........|...........|...........|...........|...........|...........|...........|...........|...........|...........
|...........|...........|...........|...........|...........|...........|...........|...........|...........|...........|...........|...........|...........|...........|...........|...........|...........|...........|...........|...........|...........|...........|...........|...........|...........|...........|...........|...........
|...........|...........|...........|...........|...........|...........|...........|...........|...........|...........|...........|...........|...........|...........|...........|...........|...........|...........|...........|...........|...........|...........|...........|...........|...........|...........|...........|...........
|...........|...........|...........|...........|...........|...........|...........|...........|...........|...........|C-503......|G-404......|...........|...........|...........|...........|...........|...........|...........|...........|...........|...........|...........|...........|...........|...........|...........|...........
|...........|...........|...........|...........|...........|...........|...........|...........|...........|...........|...........|...........|...........|...........|...........|...........|...........|...........|...........|...........|...........|...........|...........|...........|...........|...........|...........|...........
|...........|...........|...........|...........|...........|...........|...........|...........|...........|...........|...........|...........|...........|...........|...........|...........|...........|...........|...........|...........|...........|...........|...........|...........|...........|...........|...........|...........
|...........|...........|...........|...........|...........|...........|...........|...........|...........|...........|...........|...........|...........|...........|...........|...........|...........|...........|...........|...........|...........|...........|...........|...........|...........|...........|...........|...........
|...........|...........|...........|...........|...........|...........|...........|...........|...........|...........|...........|...........|...........|...........|...........|...........|...........|...........|...........|...........|...........|...........|...........|...........|...........|...........|...........|...........
|...........|...........|...........|...........|...........|...........|...........|...........|...........|...........|...........|C-403......|...........|...........|...........|...........|...........|...........|...........|...........|...........|...........|...........|...........|...........|...........|...........|...........
|...........|...........|...........|...........|...........|...........|...........|...........|...........|...........|...........|...........|...........|...........|...........|...........|...........|...........|...........|...........|...........|...........|...........|...........|...........|...........|...........|...........
|...........|...........|...........|...........|...........|...........|...........|...........|...........|...........|...........|...........|...........|...........|...........|...........|...........|...........|...........|...........|...........|...........|...........|...........|...........|...........|...........|...........
|...........|A#302......|...........|...........|...........|...........|...........|...........|...........|...........|C-403......|...........|...........|...........|...........|...........|...........|...........|...........|...........|...........|...........|...........|...........|...........|...........|...........|...........
|...........|...........|...........|...........|...........|...........|...........|...........|...........|...........|...........|...........|...........|...........|...........|...........|...........|...........|...........|...........|...........|...........|...........|...........|...........|...........|...........|...........
|...........|...........|...........|...........|...........|...........|...........|...........|...........|...........|...........|...........|...........|...........|...........|...........|...........|...........|...........|...........|...........|...........|...........|...........|...........|...........|...........|...........
|...........|...........|...........|...........|...........|...........|...........|...........|...........|...........|...........|...........|...........|...........|...........|...........|...........|...........|...........|...........|...........|...........|...........|...........|...........|...........|...........|...........
|...........|...........|...........|...........|...........|...........|...........|...........|...........|...........|...........|...........|...........|...........|...........|...........|...........|...........|...........|...........|...........|...........|...........|...........|...........|...........|...........|...........
|...........|...........|...........|...........|...........|...........|...........|...........|...........|...........|...........|...........|...........|...........|...........|...........|...........|...........|...........|...........|...........|...........|...........|...........|...........|...........|...........|...........
|...........|...........|...........|...........|...........|...........|...........|...........|...........|...........|...........|...........|...........|...........|...........|...........|...........|...........|...........|...........|...........|...........|...........|...........|...........|...........|...........|...........
|...........|...........|...........|...........|...........|...........|...........|...........|...........|...........|...........|...........|...........|...........|...........|...........|...........|...........|...........|...........|...........|...........|...........|...........|...........|...........|...........|...........
|...........|...........|F#405......|C#405......|A#305......|D#305......|...........|...........|...........|...........|G-404......|C-503......|...........|...........|...........|...........|...........|...........|...........|...........|...........|...........|...........|...........|...........|...........|...........|...........
|...........|...........|...........|...........|...........|...........|...........|...........|...........|...........|...........|...........|...........|...........|...........|...........|...........|...........|...........|...........|...........|...........|...........|...........|...........|...........|...........|...........
|...........|...........|...........|...........|...........|...........|...........|...........|...........|...........|...........|...........|...........|...........|...........|...........|...........|...........|...........|...........|...........|...........|...........|...........|...........|...........|...........|...........
|...........|...........|...........|...........|...........|...........|...........|...........|...........|...........|...........|...........|...........|...........|...........|...........|...........|...........|...........|...........|...........|...........|...........|...........|...........|...........|...........|...........
|...........|...........|...........|...........|...........|...........|...........|...........|...........|...........|...........|...........|...........|...........|...........|...........|...........|...........|...........|...........|...........|...........|...........|...........|...........|...........|...........|...........
|...........|...........|...........|...........|...........|...........|...........|...........|...........|...........|C-403......|...........|...........|...........|...........|...........|...........|...........|...........|...........|...........|...........|...........|...........|...........|...........|...........|...........
|...........|...........|...........|...........|...........|...........|...........|...........|...........|...........|...........|...........|...........|...........|...........|...........|...........|...........|...........|...........|...........|...........|...........|...........|...........|...........|...........|...........
|...........|...........|...........|...........|...........|...........|...........|...........|...........|...........|...........|...........|...........|...........|...........|...........|...........|...........|...........|...........|...........|...........|...........|...........|...........|...........|...........|...........
Rows: 64
|...........|B-302......|...........|...........|...........|...........|...........|...........|...........|...........|...........|C-403......|...........|...........|...........|...........|...........|...........|...........|...........|...........|...........|...........|...........|...........|...........|...........|...........
|...........|...........|...........|...........|...........|...........|...........|...........|...........|...........|...........|...........|...........|...........|...........|...........|...........|...........|...........|...........|...........|...........|...........|...........|...........|...........|...........|...........
|...........|...........|...........|...........|...........|...........|...........|...........|...........|...........|...........|...........|...........|...........|...........|...........|...........|...........|...........|...........|...........|...........|...........|...........|...........|...........|...........|...........
|...........|...........|...........|...........|...........|...........|...........|...........|...........|...........|...........|...........|...........|...........|...........|...........|...........|...........|...........|...........|...........|...........|...........|...........|...........|...........|...........|...........
|...........|...........|...........|...........|...........|...........|...........|...........|...........|...........|...........|...........|...........|...........|...........|...........|...........|...........|...........|...........|...........|...........|...........|...........|...........|...........|...........|...........
|...........|...........|...........|...........|...........|...........|...........|...........|...........|...........|...........|...........|...........|...........|...........|...........|...........|...........|...........|...........|...........|...........|...........|...........|...........|...........|...........|...........
|...........|...........|...........|...........|...........|...........|...........|...........|...........|...........|...........|...........|...........|...........|...........|...........|...........|...........|...........|...........|...........|...........|...........|...........|...........|...........|...........|...........
|...........|...........|...........|...........|...........|...........|...........|...........|...........|...........|...........|...........|...........|...........|...........|...........|...........|...........|...........|...........|...........|...........|...........|...........|...........|...........|...........|...........
|...........|...........|...........|...........|...........|...........|...........|...........|...........|...........|C-503......|G-404......|...........|...........|...........|...........|...........|...........|...........|...........|...........|...........|...........|...........|...........|...........|...........|...........
|...........|...........|...........|...........|...........|...........|...........|...........|...........|...........|...........|...........|...........|...........|...........|...........|...........|...........|...........|...........|...........|...........|...........|...........|...........|...........|...........|...........
|...........|...........|...........|...........|...........|...........|...........|...........|...........|...........|...........|...........|...........|...........|...........|...........|...........|...........|...........|...........|...........|...........|...........|...........|...........|...........|...........|...........
|...........|...........|...........|...........|...........|...........|...........|...........|...........|...........|...........|...........|...........|...........|...........|...........|...........|...........|...........|...........|...........|...........|...........|...........|...........|...........|...........|...........
|...........|...........|...........|...........|...........|...........|...........|...........|...........|...........|...........|...........|...........|...........|...........|...........|...........|...........|...........|...........|...........|...........|...........|...........|...........|...........|...........|...........
|...........|...........|...........|...........|...........|...........|...........|...........|...........|...........|...........|C-403......|...........|...........|...........|...........|...........|...........|...........|...........|...........|...........|...........|...........|...........|...........|...........|...........
|...........|...........|...........|...........|...........|...........|...........|...........|...........|...........|...........|...........|...........|...........|...........|...........|...........|...........|...........|...........|...........|...........|...........|...........|...........|...........|...........|...........
|...........|...........|...........|...........|...........|...........|...........|...........|...........|...........|...........|...........|...........|...........|...........|...........|...........|...........|...........|...........|...........|...........|...........|...........|...........|...........|...........|...........
|...........|F#302......|...........|...........|...........|...........|...........|...........|...........|...........|C-403......|...........|...........|...........|...........|...........|...........|...........|...........|...........|...........|...........|...........|...........|...........|...........|...........|...........
|...........|...........|...........|...........|...........|...........|...........|...........|...........|...........|...........|...........|...........|...........|...........|...........|...........|...........|...........|...........|...........|...........|...........|...........|...........|...........|...........|...........
|...........|...........|...........|...........|...........|...........|...........|...........|...........|...........|...........|...........|...........|...........|...........|...........|...........|...........|...........|...........|...........|...........|...........|...........|...........|...........|...........|...........
|...........|...........|...........|...........|...........|...........|...........|...........|...........|...........|...........|...........|...........|...........|...........|...........|...........|...........|...........|...........|...........|...........|...........|...........|...........|...........|...........|...........
|...........|...........|...........|...........|...........|...........|...........|...........|...........|...........|...........|...........|...........|...........|...........|...........|...........|...........|...........|...........|...........|...........|...........|...........|...........|...........|...........|...........
|...........|...........|...........|...........|...........|...........|...........|...........|...........|...........|...........|...........|...........|...........|...........|...........|...........|...........|...........|...........|...........|...........|...........|...........|...........|...........|...........|...........
|...........|...........|...........|...........|...........|...........|...........|...........|...........|...........|...........|...........|...........|...........|...........|...........|...........|...........|...........|...........|...........|...........|...........|...........|...........|...........|...........|...........
|...........|...........|...........|...........|...........|...........|...........|...........|...........|...........|...........|...........|...........|...........|...........|...........|...........|...........|...........|...........|...........|...........|...........|...........|...........|...........|...........|...........
|...........|...........|G#406......|E-406......|A-306......|C#406......|...........|...........|...........|...........|G-404......|C-503......|...........|...........|...........|...........|...........|...........|...........|...........|...........|...........|...........|...........|...........|...........|...........|...........
|...........|...........|...........|...........|...........|...........|...........|...........|...........|...........|...........|...........|...........|...........|...........|...........|...........|...........|...........|...........|...........|...........|...........|...........|...........|...........|...........|...........
|...........|...........|...........|...........|...........|...........|...........|...........|...........|...........|...........|...........|...........|...........|...........|...........|...........|...........|...........|...........|...........|...........|...........|...........|...........|...........|...........|...........
|...........|...........|...........|...........|...........|...........|...........|...........|...........|...........|...........|...........|...........|...........|...........|...........|...........|...........|...........|...........|...........|...........|...........|...........|...........|...........|...........|...........
|...........|...........|...........|...........|...........|...........|...........|...........|...........|...........|...........|...........|...........|...........|...........|...........|...........|...........|...........|...........|...........|...........|...........|...........|...........|...........|...........|...........
|...........|...........|...........|...........|...........|...........|...........|...........|...........|...........|C-403......|...........|...........|...........|...........|...........|...........|...........|...........|...........|...........|...........|...........|...........|...........|...........|...........|...........
|...........|...........|...........|...........|...........|...........|...........|...........|...........|...........|...........|...........|...........|...........|...........|...........|...........|...........|...........|...........|...........|...........|...........|...........|...........|...........|...........|...........
|...........|...........|...........|...........|...........|...........|...........|...........|...........|...........|...........|...........|...........|...........|...........|...........|...........|...........|...........|...........|...........|...........|...........|...........|...........|...........|...........|...........
|...........|B-302......|...........|...........|...........|...........|...........|...........|...........|...........|...........|C-403......|...........|...........|...........|...........|...........|...........|...........|...........|...........|...........|...........|...........|...........|...........|...........|...........
|...........|...........|...........|...........|...........|...........|...........|...........|...........|...........|...........|...........|...........|...........|...........|...........|...........|...........|...........|...........|...........|...........|...........|...........|...........|...........|...........|...........
|...........|...........|...........|...........|...........|...........|...........|...........|...........|...........|...........|...........|...........|...........|...........|...........|...........|...........|...........|...........|...........|...........|...........|...........|...........|...........|...........|...........
|...........|...........|...........|...........|...........|...........|...........|...........|...........|...........|...........|...........|...........|...........|...........|...........|...........|...........|...........|...........|...........|...........|...........|...........|...........|...........|...........|...........
|...........|...........|...........|...........|...........|...........|...........|...........|...........|...........|...........|...........|...........|...........|...........|...........|...........|...........|...........|...........|...........|...........|...........|...........|...........|...........|...........|...........
|...........|...........|...........|...........|...........|...........|...........|...........|...........|...........|...........|...........|...........|...........|...........|...........|...........|...........|...........|...........|...........|...........|...........|...........|...........|...........|...........|...........
|...........|...........|...........|...........|...........|...........|...........|...........|...........|...........|...........|...........|...........|...........|...........|...........|...........|...........|...........|...........|...........|...........|...........|...........|...........|...........|...........|...........
|...........|...........|...........|...........|...........|...........|...........|...........|...........|...........|...........|...........|...........|...........|...........|...........|...........|...........|...........|...........|...........|...........|...........|...........|...........|...........|...........|...........
|...........|...........|G#406......|D#406......|C-406......|A-306......|...........|...........|...........|...........|C-503......|G-404......|...........|...........|...........|...........|...........|...........|...........|...........|...........|...........|...........|...........|...........|...........|...........|...........
|...........|...........|...........|...........|...........|...........|...........|...........|...........|...........|...........|...........|...........|...........|...........|...........|...........|...........|...........|...........|...........|...........|...........|...........|...........|...........|...........|...........
|...........|...........|...........|...........|...........|...........|...........|...........|...........|...........|...........|...........|...........|...........|...........|...........|...........|...........|...........|...........|...........|...........|...........|...........|...........|...........|...........|...........
|...........|...........|...........|...........|...........|...........|...........|...........|...........|...........|...........|...........|...........|...........|...........|...........|...........|...........|...........|...........|...........|...........|...........|...........|...........|...........|...........|...........
|...........|...........|...........|...........|...........|...........|...........|...........|...........|...........|...........|...........|...........|...........|...........|...........|...........|...........|...........|...........|...........|...........|...........|...........|...........|...........|...........|...........
|...........|...........|...........|...........|...........|...........|...........|...........|...........|...........|...........|C-403......|...........|...........|...........|...........|F#611......|...........|...........|...........|...........|...........|...........|...........|...........|...........|...........|...........
|...........|...........|...........|...........|...........|...........|...........|...........|...........|...........|...........|...........|...........|...........|...........|...........|...........|...........|...........|...........|...........|...........|...........|...........|...........|...........|...........|...........
|...........|...........|...........|...........|...........|...........|...........|...........|...........|...........|...........|...........|...........|...........|...........|...........|...........|...........|...........|...........|...........|...........|...........|...........|...........|...........|...........|...........
|...........|B-202......|...........|...........|...........|...........|...........|...........|...........|...........|C-403......|...........|...........|...........|...........|...........|........F10|...........|...........|...........|...........|...........|...........|...........|...........|...........|...........|...........
|...........|...........|...........|...........|...........|...........|...........|...........|...........|...........|...........|...........|...........|...........|...........|...........|...........|...........|...........|...........|...........|...........|...........|...........|...........|...........|...........|...........
|...........|...........|...........|...........|...........|...........|...........|...........|...........|...........|...........|...........|...........|...........|...........|...........|...........|...........|...........|...........|...........|...........|...........|...........|...........|...........|...........|...........
|...........|...........|...........|...........|...........|...........|...........|...........|...........|...........|...........|...........|...........|...........|...........|...........|...........|...........|...........|...........|...........|...........|...........|...........|...........|...........|...........|...........
|...........|...........|...........|...........|...........|...........|...........|...........|...........|...........|...........|...........|...........|...........|...........|...........|...........|...........|...........|...........|...........|...........|...........|...........|...........|...........|...........|...........
|...........|...........|...........|...........|...........|...........|...........|...........|...........|...........|...........|...........|...........|...........|...........|...........|B-611......|...........|...........|...........|...........|...........|...........|...........|...........|...........|...........|...........
|...........|...........|...........|...........|...........|...........|...........|...........|...........|...........|...........|...........|...........|...........|...........|...........|...........|...........|...........|...........|...........|...........|...........|...........|...........|...........|...........|...........
|...........|...........|...........|...........|...........|...........|...........|...........|...........|...........|...........|...........|...........|...........|...........|...........|...........|...........|...........|...........|...........|...........|...........|...........|...........|...........|...........|...........
|...........|...........|F#406......|C#406......|B-306......|G#306......|B-406......|...........|...........|...........|G-404......|C-503......|...........|...........|...........|...........|........F10|...........|...........|...........|...........|...........|...........|...........|...........|...........|...........|...........
|...........|...........|...........|...........|...........|...........|...........|...........|...........|...........|...........|...........|...........|...........|...........|...........|...........|...........|...........|...........|...........|...........|...........|...........|...........|...........|...........|...........
|...........|...........|...........|...........|...........|...........|...........|...........|...........|...........|...........|...........|...........|...........|...........|...........|...........|...........|...........|...........|...........|...........|...........|...........|...........|...........|...........|...........
|...........|...........|...........|...........|...........|...........|...........|...........|...........|...........|...........|...........|...........|...........|...........|...........|...........|...........|...........|...........|...........|...........|...........|...........|...........|...........|...........|...........
|...........|...........|...........|...........|...........|...........|...........|...........|...........|...........|...........|...........|...........|...........|...........|...........|...........|...........|...........|...........|...........|...........|...........|...........|...........|...........|...........|...........
|...........|...........|...........|...........|...........|...........|...........|...........|...........|...........|C-403......|...........|...........|...........|...........|...........|G#611......|...........|...........|...........|...........|...........|...........|...........|...........|...........|...........|...........
|...........|...........|...........|...........|...........|...........|...........|...........|...........|...........|...........|...........|...........|...........|...........|...........|...........|...........|...........|...........|...........|...........|...........|...........|...........|...........|...........|...........
|...........|...........|...........|...........|...........|...........|...........|...........|...........|...........|...........|...........|...........|...........|...........|...........|...........|...........|...........|...........|...........|...........|...........|...........|...........|...........|...........|...........
Rows: 64
|...........|E-302......|...........|...........|...........|...........|...........|...........|...........|...........|...........|C-403......|...........|...........|...........|...........|B-611......|...........|...........|...........|...........|...........|...........|...........|...........|...........|...........|...........
|...........|...........|...........|...........|...........|...........|...........|...........|...........|...........|...........|...........|...........|...........|...........|...........|...........|...........|...........|...........|...........|...........|...........|...........|...........|...........|...........|...........
|...........|...........|...........|...........|...........|...........|...........|...........|...........|...........|...........|...........|...........|...........|...........|...........|...........|...........|...........|...........|...........|...........|...........|...........|...........|...........|...........|...........
|...........|...........|...........|...........|...........|...........|...........|...........|...........|...........|...........|...........|...........|...........|...........|...........|...........|...........|...........|...........|...........|...........|...........|...........|...........|...........|...........|...........
|...........|...........|...........|...........|...........|...........|...........|...........|...........|...........|...........|...........|...........|...........|...........|...........|...........|...........|...........|...........|...........|...........|...........|...........|...........|...........|...........|...........
|...........|...........|...........|...........|...........|...........|...........|...........|...........|...........|...........|...........|...........|...........|...........|...........|...........|...........|...........|...........|...........|...........|...........|...........|...........|...........|...........|...........
|...........|...........|...........|...........|...........|...........|...........|...........|...........|...........|...........|...........|...........|...........|...........|...........|...........|...........|...........|...........|...........|...........|...........|...........|...........|...........|...........|...........
|...........|...........|...........|...........|...........|...........|...........|...........|...........|...........|...........|...........|...........|...........|...........|...........|...........|...........|...........|...........|...........|...........|...........|...........|...........|...........|...........|...........
|...........|...........|...........|...........|...........|...........|...........|...........|...........|...........|C-503......|G-404......|...........|...........|...........|...........|...........|G#610......|...........|...........|...........|...........|...........|...........|...........|...........|...........|...........
|...........|...........|...........|...........|...........|...........|...........|...........|...........|...........|...........|...........|...........|...........|...........|...........|...........|...........|...........|...........|...........|...........|...........|...........|...........|...........|...........|...........
|...........|...........|...........|...........|...........|...........|...........|...........|...........|...........|...........|...........|...........|...........|...........|...........|...........|...........|...........|...........|...........|...........|...........|...........|...........|...........|...........|...........
|...........|...........|...........|...........|...........|...........|...........|...........|...........|...........|...........|...........|...........|...........|...........|...........|...........|...........|...........|...........|...........|...........|...........|...........|...........|...........|...........|...........
|...........|...........|...........|...........|...........|...........|...........|...........|...........|...........|...........|...........|...........|...........|...........|...........|...........|^^^........|...........|...........|...........|...........|...........|...........|...........|...........|...........|...........
|...........|...........|...........|...........|...........|...........|...........|...........|...........|...........|...........|C-403......|...........|...........|...........|...........|...........|...........|...........|...........|...........|...........|...........|...........|...........|...........|...........|...........
|...........|...........|...........|...........|...........|...........|...........|...........|...........|...........|...........|...........|...........|...........|...........|...........|...........|...........|...........|...........|...........|...........|...........|...........|...........|...........|...........|...........
|...........|...........|...........|...........|...........|...........|...........|...........|...........|...........|...........|...........|...........|...........|...........|...........|...........|...........|...........|...........|...........|...........|...........|...........|...........|...........|...........|...........
|...........|C#402......|E-406......|B-306......|G#306......|...........|...........|...........|...........|...........|C-403......|...........|...........|...........|...........|...........|...........|F#610......|...........|...........|...........|...........|...........|...........|...........|...........|...........|...........
|...........|...........|...........|...........|...........|...........|...........|...........|...........|...........|...........|...........|...........|...........|...........|...........|...........|...........|...........|...........|...........|...........|...........|...........|...........|...........|...........|...........
|...........|...........|...........|...........|...........|...........|...........|...........|...........|...........|...........|...........|...........|...........|...........|...........|...........|...........|...........|...........|...........|...........|...........|...........|...........|...........|...........|...........
|...........|...........|...........|...........|...........|...........|...........|...........|...........|...........|...........|...........|...........|...........|...........|...........|...........|...........|...........|...........|...........|...........|...........|...........|...........|...........|...........|...........
|...........|...........|...........|...........|...........|...........|...........|...........|...........|...........|...........|...........|...........|...........|...........|...........|...........|^^^........|...........|...........|...........|...........|...........|...........|...........|...........|...........|...........
|...........|...........|...........|...........|...........|...........|...........|...........|...........|...........|...........|...........|...........|...........|...........|...........|...........|...........|...........|...........|...........|...........|...........|...........|...........|...........|...........|...........
|...........|...........|...........|...........|...........|...........|...........|...........|...........|...........|...........|...........|...........|...........|...........|...........|...........|...........|...........|...........|...........|...........|...........|...........|...........|...........|...........|...........
|...........|...........|...........|...........|...........|...........|...........|...........|...........|...........|...........|...........|...........|...........|...........|...........|...........|...........|...........|...........|...........|...........|...........|...........|...........|...........|...........|...........
|...........|...........|...........|...........|...........|...........|...........|...........|...........|...........|G-404......|C-503......|...........|...........|...........|...........|C#711......|E-610......|...........|...........|...........|...........|...........|...........|...........|...........|...........|...........
|...........|...........|...........|...........|...........|...........|...........|...........|...........|...........|...........|...........|...........|...........|...........|...........|...........|...........|...........|...........|...........|...........|...........|...........|...........|...........|...........|...........
|...........|...........|...........|...........|...........|...........|...........|...........|...........|...........|...........|...........|...........|...........|...........|...........|...........|...........|...........|...........|...........|...........|...........|...........|...........|...........|...........|...........
|...........|...........|...........|...........|...........|...........|...........|...........|...........|...........|...........|...........|...........|...........|...........|...........|...........|...........|...........|...........|...........|...........|...........|...........|...........|...........|...........|...........
|...........|...........|...........|...........|...........|...........|...........|...........|...........|...........|...........|...........|...........|...........|...........|...........|^^^........|^^^........|...........|...........|...........|...........|...........|...........|...........|...........|...........|...........
|...........|...........|...........|...........|...........|...........|...........|...........|...........|...........|C-403......|...........|...........|...........|...........|...........|...........|...........|...........|...........|...........|...........|...........|...........|...........|...........|...........|...........
|...........|...........|...........|...........|...........|...........|...........|...........|...........|...........|...........|...........|...........|...........|...........|...........|...........|...........|...........|...........|...........|...........|...........|...........|...........|...........|...........|...........
|...........|...........|...........|...........|...........|...........|...........|...........|...........|...........|...........|...........|...........|...........|...........|...........|...........|...........|...........|...........|...........|...........|...........|...........|...........|...........|...........|...........
|...........|G#302......|F#306......|B-306......|D#406......|F#406......|...........|...........|...........|...........|...........|C-403......|...........|...........|...........|...........|D-711......|...........|...........|...........|...........|...........|...........|...........|...........|...........|...........|...........
|...........|...........|...........|...........|...........|...........|...........|...........|...........|...........|...........|...........|...........|...........|...........|...........|...........|...........|...........|...........|...........|...........|...........|...........|...........|...........|...........|...........
|...........|...........|...........|...........|...........|...........|...........|...........|...........|...........|...........|...........|...........|...........|...........|...........|........F08|...........|...........|...........|...........|...........|...........|...........|...........|...........|...........|...........
|...........|...........|...........|...........|...........|...........|...........|...........|...........|...........|...........|...........|...........|...........|...........|...........|...........|...........|...........|...........|...........|...........|...........|...........|...........|...........|...........|...........
|...........|...........|...........|...........|...........|...........|...........|...........|...........|...........|...........|...........|...........|...........|...........|...........|...........|...........|...........|...........|...........|...........|...........|...........|...........|...........|...........|...........
|...........|...........|...........|...........|...........|...........|...........|...........|...........|...........|...........|...........|...........|...........|...........|...........|...........|...........|...........|...........|...........|...........|...........|...........|...........|...........|...........|...........
|...........|...........|...........|...........|...........|...........|...........|...........|...........|...........|...........|...........|...........|...........|...........|...........|...........|...........|...........|...........|...........|...........|...........|...........|...........|...........|...........|...........
|...........|...........|...........|...........|...........|...........|...........|...........|...........|...........|...........|...........|...........|...........|...........|...........|...........|...........|...........|...........|...........|...........|...........|...........|...........|...........|...........|...........
|...........|...........|...........|...........|...........|...........|...........|...........|...........|...........|C-503......|G-404......|...........|...........|...........|...........|...........|D#610......|...........|...........|...........|...........|...........|...........|...........|...........|...........|...........
|...........|...........|...........|...........|...........|...........|...........|...........|...........|...........|...........|...........|...........|...........|...........|...........|...........|...........|...........|...........|...........|...........|...........|...........|...........|...........|...........|...........
|...........|...........|...........|...........|...........|...........|...........|...........|...........|...........|...........|...........|...........|...........|...........|...........|...........|...........|...........|...........|...........|...........|...........|...........|...........|...........|...........|...........
|...........|...........|...........|...........|...........|...........|...........|...........|...........|...........|...........|...........|...........|...........|...........|...........|...........|...........|...........|...........|...........|...........|...........|...........|...........|...........|...........|...........
|...........|...........|...........|...........|...........|...........|...........|...........|...........|...........|...........|...........|...........|...........|...........|...........|...........|...........|...........|...........|...........|...........|...........|...........|...........|...........|...........|...........
|...........|...........|...........|...........|...........|...........|...........|...........|...........|...........|...........|C-403......|...........|...........|...........|...........|...........|...........|...........|...........|...........|...........|...........|...........|...........|...........|...........|...........
|...........|...........|...........|...........|...........|...........|...........|...........|...........|...........|...........|...........|...........|...........|...........|...........|...........|...........|...........|...........|...........|...........|...........|...........|...........|...........|...........|...........
|...........|...........|...........|...........|...........|...........|...........|...........|...........|...........|...........|...........|...........|...........|...........|...........|...........|...........|...........|...........|...........|...........|...........|...........|...........|...........|...........|...........
|...........|C#402......|B-306......|D#406......|E-406......|G#406......|...........|...........|...........|...........|C-403......|...........|...........|...........|...........|...........|E-711......|E-610......|...........|...........|...........|...........|...........|...........|...........|...........|...........|...........
|...........|...........|...........|...........|...........|...........|...........|...........|...........|...........|...........|...........|...........|...........|...........|...........|...........|...........|...........|...........|...........|...........|...........|...........|...........|...........|...........|...........
|...........|...........|...........|...........|...........|...........|...........|...........|...........|...........|...........|...........|...........|...........|...........|...........|...........|...........|...........|...........|...........|...........|...........|...........|...........|...........|...........|...........
|...........|...........|...........|...........|...........|...........|...........|...........|...........|...........|...........|...........|...........|...........|...........|...........|...........|...........|...........|...........|...........|...........|...........|...........|...........|...........|...........|...........
|...........|...........|...........|...........|...........|...........|...........|...........|...........|...........|...........|...........|...........|...........|...........|...........|...........|^^^........|...........|...........|...........|...........|...........|...........|...........|...........|...........|...........
|...........|...........|...........|...........|...........|...........|...........|...........|...........|...........|...........|...........|...........|...........|...........|...........|...........|...........|...........|...........|...........|...........|...........|...........|...........|...........|...........|...........
|...........|...........|...........|...........|...........|...........|...........|...........|...........|...........|...........|...........|...........|...........|...........|...........|...........|...........|...........|...........|...........|...........|...........|...........|...........|...........|...........|...........
|...........|...........|...........|...........|...........|...........|...........|...........|...........|...........|...........|...........|...........|...........|...........|...........|...........|...........|...........|...........|...........|...........|...........|...........|...........|...........|...........|...........
|...........|...........|...........|...........|...........|...........|...........|...........|...........|...........|G-404......|C-503......|...........|...........|...........|...........|...........|C#710......|...........|...........|...........|...........|...........|...........|...........|...........|...........|...........
|...........|...........|...........|...........|...........|...........|...........|...........|...........|...........|...........|...........|...........|...........|...........|...........|...........|...........|...........|...........|...........|...........|...........|...........|...........|...........|...........|...........
|...........|...........|...........|...........|...........|...........|...........|...........|...........|...........|...........|...........|...........|...........|...........|...........|...........|........E10|...........|...........|...........|...........|...........|...........|...........|...........|...........|...........
|...........|...........|...........|...........|...........|...........|...........|...........|...........|...........|...........|...........|...........|...........|...........|...........|...........|...........|...........|...........|...........|...........|...........|...........|...........|...........|...........|...........
|...........|...........|...........|...........|...........|...........|...........|...........|...........|...........|...........|...........|...........|...........|...........|...........|...........|...........|...........|...........|...........|...........|...........|...........|...........|...........|...........|...........
|...........|...........|...........|...........|...........|...........|...........|...........|...........|...........|C-403......|...........|...........|...........|...........|...........|F#711......|...........|...........|...........|...........|...........|...........|...........|...........|...........|...........|...........
|...........|...........|...........|...........|...........|...........|...........|...........|...........|...........|...........|...........|...........|...........|...........|...........|...........|...........|...........|...........|...........|...........|...........|...........|...........|...........|...........|...........
|...........|...........|...........|...........|...........|...........|...........|...........|...........|...........|...........|...........|...........|...........|...........|...........|...........|...........|...........|...........|...........|...........|...........|...........|...........|...........|...........|...........
Rows: 64
|...........|F#302......|E-306......|A#306......|D#406......|G#406......|...........|...........|...........|...........|...........|C-403......|...........|...........|...........|...........|...........|...........|...........|...........|...........|...........|...........|...........|...........|...........|...........|...........
|...........|...........|...........|...........|...........|...........|...........|...........|...........|...........|...........|...........|...........|...........|...........|...........|...........|...........|...........|...........|...........|...........|...........|...........|...........|...........|...........|...........
|...........|...........|...........|...........|...........|...........|...........|...........|...........|...........|...........|...........|...........|...........|...........|...........|...........|...........|...........|...........|...........|...........|...........|...........|...........|...........|...........|...........
|...........|...........|...........|...........|...........|...........|...........|...........|...........|...........|...........|...........|...........|...........|...........|...........|...........|...........|...........|...........|...........|...........|...........|...........|...........|...........|...........|...........
|...........|...........|...........|...........|...........|...........|...........|...........|...........|...........|...........|...........|...........|...........|...........|...........|...........|...........|...........|...........|...........|...........|...........|...........|...........|...........|...........|...........
|...........|...........|...........|...........|...........|...........|...........|...........|...........|...........|...........|...........|...........|...........|...........|...........|...........|...........|...........|...........|...........|E-508......|A#408......|G#508......|...........|...........|...........|...........
|...........|...........|...........|...........|...........|...........|...........|...........|...........|...........|...........|...........|...........|...........|...........|...........|...........|...........|...........|...........|...........|...........|...........|...........|...........|...........|...........|...........
|...........|...........|...........|...........|...........|...........|...........|...........|...........|...........|...........|...........|...........|...........|...........|...........|...........|...........|...........|...........|...........|...........|...........|...........|...........|...........|...........|...........
|...........|...........|...........|...........|...........|...........|...........|...........|...........|...........|C-503......|G-404......|...........|...........|...........|...........|...........|A#610......|...........|...........|...........|===........|===........|...........|...........|...........|...........|...........
|...........|...........|...........|...........|...........|...........|...........|...........|...........|...........|...........|...........|...........|...........|...........|...........|...........|...........|...........|...........|...........|...........|...........|...........|...........|...........|...........|...........
|...........|...........|...........|...........|...........|...........|...........|...........|...........|...........|...........|...........|...........|...........|...........|...........|...........|...........|...........|...........|...........|...........|...........|...........|...........|...........|...........|...........
|...........|...........|...........|...........|...........|...........|...........|...........|...........|...........|...........|...........|...........|...........|...........|...........|...........|...........|...........|...........|...........|...........|...........|...........|...........|...........|...........|...........
|...........|...........|...........|...........|...........|...........|...........|...........|...........|...........|...........|...........|...........|...........|...........|...........|...........|^^^........|...........|...........|...........|...........|...........|===........|...........|...........|...........|...........
|...........|...........|...........|...........|...........|...........|...........|...........|...........|...........|...........|C-403......|...........|...........|...........|...........|...........|...........|...........|...........|...........|...........|...........|...........|...........|...........|...........|...........
|...........|...........|...........|...........|...........|...........|...........|...........|...........|...........|...........|...........|...........|...........|...........|...........|...........|...........|...........|...........|...........|...........|...........|...........|...........|...........|...........|...........
|...........|...........|...........|...........|...........|...........|...........|...........|...........|...........|...........|...........|...........|...........|...........|...........|...........|...........|...........|...........|...........|...........|...........|...........|...........|...........|...........|...........
|...........|C#402......|...........|...........|...........|...........|...........|...........|...........|...........|C-403......|...........|...........|...........|...........|...........|...........|G#610......|...........|...........|...........|E-508......|A#408......|G#508......|...........|...........|...........|...........
|...........|...........|...........|...........|...........|...........|...........|...........|...........|...........|...........|...........|...........|...........|...........|...........|...........|...........|...........|...........|...........|...........|...........|...........|...........|...........|...........|...........
|...........|...........|...........|...........|...........|...........|...........|...........|...........|...........|...........|...........|...........|...........|...........|...........|...........|...........|...........|...........|...........|...........|...........|...........|...........|...........|...........|...........
|...........|...........|...........|...........|...........|...........|...........|...........|...........|...........|...........|...........|...........|...........|...........|...........|...........|...........|...........|...........|...........|...........|...........|...........|...........|...........|...........|...........
|...........|...........|...........|...........|...........|...........|...........|...........|...........|...........|...........|...........|...........|...........|...........|...........|...........|...........|...........|...........|...........|===........|===........|===........|...........|...........|...........|...........
|...........|...........|...........|...........|...........|...........|...........|...........|...........|...........|...........|...........|...........|...........|...........|...........|...........|F#610......|...........|...........|...........|...........|...........|...........|...........|...........|...........|...........
|...........|...........|...........|...........|...........|...........|...........|...........|...........|...........|...........|...........|...........|...........|...........|...........|...........|...........|...........|...........|...........|...........|...........|...........|...........|...........|...........|...........
|...........|...........|...........|...........|...........|...........|...........|...........|...........|...........|...........|...........|...........|...........|...........|...........|...........|...........|...........|...........|...........|...........|...........|...........|...........|...........|...........|...........
|...........|...........|...........|...........|...........|...........|...........|...........|...........|...........|G-404......|C-503......|...........|...........|...........|...........|...........|^^^........|...........|...........|...........|...........|...........|...........|...........|...........|...........|...........
|...........|...........|...........|...........|...........|...........|...........|...........|...........|...........|...........|...........|...........|...........|...........|...........|...........|...........|...........|...........|...........|...........|...........|...........|...........|...........|...........|...........
|...........|...........|...........|...........|...........|...........|...........|...........|...........|...........|...........|...........|...........|...........|...........|...........|...........|...........|...........|...........|...........|...........|...........|...........|...........|...........|...........|...........
|...........|...........|...........|...........|...........|...........|...........|...........|...........|...........|...........|...........|...........|...........|...........|...........|...........|...........|...........|...........|...........|...........|...........|...........|...........|...........|...........|...........
|...........|...........|...........|...........|...........|...........|...........|...........|...........|...........|...........|...........|...........|...........|...........|...........|...........|...........|...........|...........|...........|...........|...........|...........|...........|...........|...........|...........
|...........|...........|...........|...........|...........|...........|...........|...........|...........|...........|C-403......|...........|...........|...........|...........|...........|...........|D#710......|...........|...........|...........|...........|...........|...........|...........|...........|...........|...........
|...........|...........|...........|...........|...........|...........|...........|...........|...........|...........|...........|...........|...........|...........|...........|...........|...........|...........|...........|...........|...........|...........|...........|...........|...........|...........|...........|...........
|...........|...........|...........|...........|...........|...........|...........|...........|...........|...........|...........|...........|...........|...........|...........|...........|...........|........E10|...........|...........|...........|...........|...........|...........|...........|...........|...........|...........
|...........|F#302......|...........|...........|...........|...........|...........|...........|...........|...........|...........|C-403......|...........|...........|...........|...........|...........|...........|...........|...........|...........|E-508......|A#408......|G#508......|...........|...........|...........|...........
|...........|...........|...........|...........|...........|...........|...........|...........|...........|...........|...........|...........|...........|...........|...........|...........|...........|...........|...........|...........|...........|...........|...........|...........|...........|...........|...........|...........
|...........|...........|...........|...........|...........|...........|...........|...........|...........|...........|...........|...........|...........|...........|...........|...........|...........|...........|...........|...........|...........|...........|...........|...........|...........|...........|...........|...........
|...........|...........|...........|...........|...........|...........|...........|...........|...........|...........|...........|...........|...........|...........|...........|...........|...........|...........|...........|...........|...........|...........|...........|...........|...........|...........|...........|...........
|...........|...........|...........|...........|...........|...........|...........|...........|...........|...........|...........|...........|...........|...........|...........|...........|...........|...........|...........|...........|...........|===........|===........|===........|...........|...........|...........|...........
|...........|...........|...........|...........|...........|...........|...........|...........|...........|...........|...........|...........|...........|...........|...........|...........|...........|...........|...........|...........|...........|...........|...........|...........|...........|...........|...........|...........
|...........|...........|...........|...........|...........|...........|...........|...........|...........|...........|...........|...........|...........|...........|...........|...........|...........|...........|...........|...........|...........|...........|...........|...........|...........|...........|...........|...........
|...........|...........|...........|...........|...........|...........|...........|...........|...........|...........|...........|...........|...........|...........|...........|...........|...........|...........|...........|...........|...........|...........|...........|...........|...........|...........|...........|...........
|...........|...........|...........|...........|...........|...........|...........|...........|...........|...........|C-503......|G-404......|...........|...........|...........|...........|...........|G#610......|...........|...........|...........|...........|...........|...........|...........|...........|...........|...........
|...........|...........|...........|...........|...........|...........|...........|...........|...........|...........|...........|...........|...........|...........|...........|...........|...........|...........|...........|...........|...........|...........|...........|...........|...........|...........|...........|...........
|...........|...........|...........|...........|...........|...........|...........|...........|...........|...........|...........|...........|...........|...........|...........|...........|...........|........F10|...........|...........|...........|...........|...........|...........|...........|...........|...........|...........
|...........|...........|...........|...........|...........|...........|...........|...........|...........|...........|...........|...........|...........|...........|...........|...........|...........|...........|...........|...........|...........|...........|...........|...........|...........|...........|...........|...........
|...........|...........|...........|...........|...........|...........|...........|...........|...........|...........|...........|...........|...........|...........|...........|...........|...........|^^^........|...........|...........|...........|...........|...........|...........|...........|...........|...........|...........
|...........|...........|...........|...........|...........|...........|...........|...........|...........|...........|...........|C-403......|...........|...........|...........|...........|...........|...........|...........|...........|...........|E-508......|A#408......|G#508......|...........|...........|...........|...........
|...........|...........|...........|...........|...........|...........|...........|...........|...........|...........|...........|...........|...........|...........|...........|...........|...........|...........|...........|...........|...........|...........|...........|...........|...........|...........|...........|...........
|...........|...........|...........|...........|...........|...........|...........|...........|...........|...........|...........|...........|...........|...........|...........|...........|...........|...........|...........|...........|...........|...........|...........|...........|...........|...........|...........|...........
|...........|C#302......|...........|...........|...........|...........|...........|...........|...........|...........|C-403......|...........|...........|...........|...........|...........|...........|...........|...........|...........|...........|===........|===........|===........|...........|...........|...........|...........
|...........|...........|...........|...........|...........|...........|...........|...........|...........|...........|...........|...........|...........|...........|...........|...........|...........|...........|...........|...........|...........|...........|...........|...........|...........|...........|...........|...........
|...........|...........|...........|...........|...........|...........|...........|...........|...........|...........|...........|...........|...........|...........|...........|...........|...........|...........|...........|...........|...........|...........|...........|...........|...........|...........|...........|...........
|...........|...........|...........|...........|...........|...........|...........|...........|...........|...........|...........|...........|...........|...........|...........|...........|...........|...........|...........|...........|...........|...........|...........|...........|...........|...........|...........|...........
|...........|...........|...........|...........|...........|...........|...........|...........|...........|...........|...........|...........|...........|...........|...........|...........|...........|...........|...........|...........|...........|...........|...........|...........|...........|...........|...........|...........
|...........|...........|...........|...........|...........|...........|...........|...........|...........|...........|...........|...........|...........|...........|...........|...........|...........|G#610......|...........|...........|...........|...........|...........|...........|...........|...........|...........|...........
|...........|...........|...........|...........|...........|...........|...........|...........|...........|...........|...........|...........|...........|...........|...........|...........|...........|...........|...........|...........|...........|...........|...........|...........|...........|...........|...........|...........
|...........|...........|...........|...........|...........|...........|...........|...........|...........|...........|...........|...........|...........|...........|...........|...........|...........|...........|...........|...........|...........|...........|...........|...........|...........|...........|...........|...........
|...........|...........|...........|...........|...........|...........|...........|...........|...........|...........|G-404......|C-503......|...........|...........|...........|...........|...........|F#610......|...........|...........|...........|...........|...........|...........|...........|...........|...........|...........
|...........|...........|...........|...........|...........|...........|...........|...........|...........|...........|...........|...........|...........|...........|...........|...........|...........|...........|...........|...........|...........|...........|...........|...........|...........|...........|...........|...........
|...........|...........|...........|...........|...........|...........|...........|...........|...........|...........|...........|...........|...........|...........|...........|...........|...........|...........|...........|...........|...........|...........|...........|...........|...........|...........|...........|...........
|...........|...........|...........|...........|...........|...........|...........|...........|...........|...........|...........|...........|...........|...........|...........|...........|...........|^^^........|...........|...........|...........|...........|...........|...........|...........|...........|...........|...........
|...........|...........|...........|...........|...........|...........|...........|...........|...........|...........|...........|...........|...........|...........|...........|...........|...........|...........|...........|...........|...........|...........|...........|...........|...........|...........|...........|...........
|...........|...........|...........|...........|...........|...........|...........|...........|...........|...........|C-403......|...........|...........|...........|...........|...........|...........|F#710......|...........|...........|...........|...........|...........|...........|...........|...........|...........|...........
|...........|...........|...........|...........|...........|...........|...........|...........|...........|...........|...........|...........|...........|...........|...........|...........|...........|...........|...........|...........|...........|...........|...........|...........|...........|...........|...........|...........
|...........|...........|...........|...........|...........|...........|...........|...........|...........|...........|...........|...........|...........|...........|...........|...........|...........|........E10|...........|...........|...........|...........|...........|...........|...........|...........|...........|...........
Rows: 64
|...........|F#202......|F#406......|A-306......|E-306......|C#406......|...........|...........|...........|...........|...........|C-403......|...........|...........|...........|...........|...........|...........|...........|...........|...........|...........|...........|...........|...........|...........|...........|...........
|...........|...........|...........|...........|...........|...........|...........|...........|...........|...........|...........|...........|...........|...........|...........|...........|...........|...........|...........|...........|...........|...........|...........|...........|...........|...........|...........|...........
|...........|...........|...........|...........|...........|...........|...........|...........|...........|...........|...........|...........|...........|...........|...........|...........|...........|...........|...........|...........|...........|...........|...........|...........|...........|...........|...........|...........
|...........|...........|...........|...........|...........|...........|...........|...........|...........|...........|...........|...........|...........|...........|...........|...........|...........|...........|...........|...........|...........|...........|...........|...........|...........|...........|...........|...........
|...........|...........|...........|...........|...........|...........|...........|...........|...........|...........|...........|...........|...........|...........|...........|...........|...........|...........|...........|...........|...........|...........|...........|...........|...........|...........|...........|...........
|...........|...........|...........|...........|...........|...........|...........|...........|...........|...........|...........|...........|...........|...........|...........|...........|...........|...........|...........|...........|...........|E-508......|A-408......|G#508......|...........|...........|...........|...........
|...........|...........|...........|...........|...........|...........|...........|...........|...........|...........|...........|...........|...........|...........|...........|...........|...........|...........|...........|...........|...........|...........|...........|...........|...........|...........|...........|...........
|...........|...........|...........|...........|...........|...........|...........|...........|...........|...........|...........|...........|...........|...........|...........|...........|...........|...........|...........|...........|...........|...........|...........|...........|...........|...........|...........|...........
|...........|...........|...........|...........|...........|...........|...........|...........|...........|...........|C-503......|G-404......|...........|...........|...........|...........|F#711......|C#710......|...........|...........|...........|===........|===........|...........|...........|...........|...........|...........
|...........|...........|...........|...........|...........|...........|...........|...........|...........|...........|...........|...........|...........|...........|...........|...........|...........|...........|...........|...........|...........|...........|...........|...........|...........|...........|...........|...........
|...........|...........|...........|...........|...........|...........|...........|...........|...........|...........|...........|...........|...........|...........|...........|...........|...........|...........|...........|...........|...........|...........|...........|...........|...........|...........|...........|...........
|...........|...........|...........|...........|...........|...........|...........|...........|...........|...........|...........|...........|...........|...........|...........|...........|...........|...........|...........|...........|...........|...........|...........|...........|...........|...........|...........|...........
|...........|...........|...........|...........|...........|...........|...........|...........|...........|...........|...........|...........|...........|...........|...........|...........|...........|^^^........|...........|...........|...........|...........|...........|===........|...........|...........|...........|...........
|...........|...........|...........|...........|...........|...........|...........|...........|...........|...........|...........|C-403......|...........|...........|...........|...........|...........|...........|...........|...........|...........|...........|...........|...........|...........|...........|...........|...........
|...........|...........|...........|...........|...........|...........|...........|...........|...........|...........|...........|...........|...........|...........|...........|...........|...........|...........|...........|...........|...........|...........|...........|...........|...........|...........|...........|...........
|...........|...........|...........|...........|...........|...........|...........|...........|...........|...........|...........|...........|...........|...........|...........|...........|...........|...........|...........|...........|...........|...........|...........|...........|...........|...........|...........|...........
|...........|C#302......|G#406......|E-406......|B-306......|...........|...........|...........|...........|...........|C-403......|...........|...........|...........|...........|...........|...........|...........|...........|...........|...........|E-508......|A-408......|G#508......|...........|...........|...........|...........
|...........|...........|...........|...........|...........|...........|...........|...........|...........|...........|...........|...........|...........|...........|...........|...........|...........|...........|...........|...........|...........|...........|...........|...........|...........|...........|...........|...........
|...........|...........|...........|...........|...........|...........|...........|...........|...........|...........|...........|...........|...........|...........|...........|...........|...........|...........|...........|...........|...........|...........|...........|...........|...........|...........|...........|...........
|...........|...........|...........|...........|...........|...........|...........|...........|...........|...........|...........|...........|...........|...........|...........|...........|...........|...........|...........|...........|...........|...........|...........|...........|...........|...........|...........|...........
|...........|...........|...........|...........|...........|...........|...........|...........|...........|...........|...........|...........|...........|...........|...........|...........|...........|...........|...........|...........|...........|===........|===........|===........|...........|...........|...........|...........
|...........|...........|...........|...........|...........|...........|...........|...........|...........|...........|...........|...........|...........|...........|...........|...........|...........|B-610......|...........|...........|...........|...........|...........|...........|...........|...........|...........|...........
|...........|...........|...........|...........|...........|...........|...........|...........|...........|...........|...........|...........|...........|...........|...........|...........|...........|...........|...........|...........|...........|...........|...........|...........|...........|...........|...........|...........
|...........|...........|...........|...........|...........|...........|...........|...........|...........|...........|...........|...........|...........|...........|...........|...........|...........|...........|...........|...........|...........|...........|...........|...........|...........|...........|...........|...........
|...........|...........|...........|...........|...........|...........|...........|...........|...........|...........|G-404......|C-503......|...........|...........|...........|...........|G#711......|A-610......|...........|...........|...........|...........|...........|...........|...........|...........|...........|...........
|...........|...........|...........|...........|...........|...........|...........|...........|...........|...........|...........|...........|...........|...........|...........|...........|...........|...........|...........|...........|...........|...........|...........|...........|...........|...........|...........|...........
|...........|...........|...........|...........|...........|...........|...........|...........|...........|...........|...........|...........|...........|...........|...........|...........|...........|...........|...........|...........|...........|...........|...........|...........|...........|...........|...........|...........
|...........|...........|...........|...........|...........|...........|...........|...........|...........|...........|...........|...........|...........|...........|...........|...........|...........|...........|...........|...........|...........|...........|...........|...........|...........|...........|...........|...........
|...........|...........|...........|...........|...........|...........|...........|...........|...........|...........|...........|...........|...........|...........|...........|...........|^^^........|...........|...........|...........|...........|...........|...........|...........|...........|...........|...........|...........
|...........|...........|...........|...........|...........|...........|...........|...........|...........|...........|C-403......|...........|...........|...........|...........|...........|...........|G#610......|...........|...........|...........|...........|...........|...........|...........|...........|...........|...........
|...........|...........|...........|...........|...........|...........|...........|...........|...........|...........|...........|...........|...........|...........|...........|...........|...........|...........|...........|...........|...........|...........|...........|...........|...........|...........|...........|...........
|...........|...........|...........|...........|...........|...........|...........|...........|...........|...........|...........|...........|...........|...........|...........|...........|...........|...........|...........|...........|...........|...........|...........|...........|...........|...........|...........|...........
|...........|F#302......|A-406......|E-406......|C#406......|...........|...........|...........|...........|...........|...........|C-403......|...........|...........|...........|...........|A-711......|...........|...........|...........|...........|E-508......|A-408......|G#508......|...........|...........|...........|...........
|...........|...........|...........|...........|...........|...........|...........|...........|...........|...........|...........|...........|...........|...........|...........|...........|...........|...........|...........|...........|...........|...........|...........|...........|...........|...........|...........|...........
|...........|...........|...........|...........|...........|...........|...........|...........|...........|...........|...........|...........|...........|...........|...........|...........|...........|...........|...........|...........|...........|...........|...........|...........|...........|...........|...........|...........
|...........|...........|...........|...........|...........|...........|...........|...........|...........|...........|...........|...........|...........|...........|...........|...........|...........|...........|...........|...........|...........|...........|...........|...........|...........|...........|...........|...........
|...........|...........|...........|...........|...........|...........|...........|...........|...........|...........|...........|...........|...........|...........|...........|...........|...........|...........|...........|...........|...........|===........|===........|===........|...........|...........|...........|...........
|...........|...........|...........|...........|...........|...........|...........|...........|...........|...........|...........|...........|...........|...........|...........|...........|...........|...........|...........|...........|...........|...........|...........|...........|...........|...........|...........|...........
|...........|...........|...........|...........|...........|...........|...........|...........|...........|...........|...........|...........|...........|...........|...........|...........|...........|...........|...........|...........|...........|...........|...........|...........|...........|...........|...........|...........
|...........|...........|...........|...........|...........|...........|...........|...........|...........|...........|...........|...........|...........|...........|...........|...........|...........|...........|...........|...........|...........|...........|...........|...........|...........|...........|...........|...........
|...........|...........|...........|...........|...........|...........|...........|...........|...........|...........|C-503......|G-404......|...........|...........|...........|...........|...........|A-610......|...........|...........|...........|...........|...........|...........|...........|...........|...........|...........
|...........|...........|...........|...........|...........|...........|...........|...........|...........|...........|...........|...........|...........|...........|...........|...........|...........|...........|...........|...........|...........|...........|...........|...........|...........|...........|...........|...........
|...........|...........|...........|...........|...........|...........|...........|...........|...........|...........|...........|...........|...........|...........|...........|...........|...........|...........|...........|...........|...........|...........|...........|...........|...........|...........|...........|...........
|...........|...........|...........|...........|...........|...........|...........|...........|...........|...........|...........|...........|...........|...........|...........|...........|...........|...........|...........|...........|...........|...........|...........|...........|...........|...........|...........|...........
|...........|...........|...........|...........|...........|...........|...........|...........|...........|...........|...........|...........|...........|...........|...........|...........|...........|^^^........|...........|...........|...........|...........|...........|...........|...........|...........|...........|...........
|...........|...........|...........|...........|...........|...........|...........|...........|...........|...........|...........|C-403......|...........|...........|...........|...........|...........|...........|...........|...........|...........|D#508......|A-408......|G#508......|...........|...........|...........|...........
|...........|...........|...........|...........|...........|...........|...........|...........|...........|...........|...........|...........|...........|...........|...........|...........|...........|...........|...........|...........|...........|...........|...........|...........|...........|...........|...........|...........
|...........|...........|...........|...........|...........|...........|...........|...........|...........|...........|...........|...........|...........|...........|...........|...........|...........|...........|...........|...........|...........|...........|...........|...........|...........|...........|...........|...........
|...........|B-202......|B-406......|A-306......|D#406......|G#406......|...........|...........|...........|...........|C-403......|...........|...........|...........|...........|...........|B-711......|...........|...........|...........|...........|...........|...........|...........|...........|...........|...........|...........
|...........|...........|...........|...........|...........|...........|...........|...........|...........|...........|...........|...........|...........|...........|...........|...........|...........|...........|...........|...........|...........|...........|...........|...........|...........|...........|...........|...........
|...........|...........|...........|...........|...........|...........|...........|...........|...........|...........|...........|...........|...........|...........|...........|...........|...........|...........|...........|...........|...........|===........|===........|===........|...........|...........|...........|...........
|...........|...........|...........|...........|...........|...........|...........|...........|...........|...........|...........|...........|...........|...........|...........|...........|...........|...........|...........|...........|...........|...........|...........|...........|...........|...........|...........|...........
|...........|...........|...........|...........|...........|...........|...........|...........|...........|...........|...........|...........|...........|...........|...........|...........|...........|...........|...........|...........|...........|...........|...........|...........|...........|...........|...........|...........
|...........|...........|...........|...........|...........|...........|...........|...........|...........|...........|...........|...........|...........|...........|...........|...........|...........|E-710......|...........|...........|...........|...........|...........|...........|...........|...........|...........|...........
|...........|...........|...........|...........|...........|...........|...........|...........|...........|...........|...........|...........|...........|...........|...........|...........|...........|...........|...........|...........|...........|...........|...........|...........|...........|...........|...........|...........
|...........|...........|...........|...........|...........|...........|...........|...........|...........|...........|...........|...........|...........|...........|...........|...........|...........|...........|...........|...........|...........|...........|...........|...........|...........|...........|...........|...........
|...........|...........|...........|...........|...........|...........|...........|...........|...........|...........|G-404......|C-503......|...........|...........|...........|...........|...........|........F10|...........|...........|...........|...........|...........|...........|...........|...........|...........|...........
|...........|...........|...........|...........|...........|...........|...........|...........|...........|...........|...........|...........|...........|...........|...........|...........|...........|...........|...........|...........|...........|...........|...........|...........|...........|...........|...........|...........
|...........|...........|...........|...........|...........|...........|...........|...........|...........|...........|...........|...........|...........|...........|...........|...........|...........|...........|...........|...........|...........|...........|...........|...........|...........|...........|...........|...........
|...........|...........|...........|...........|...........|...........|...........|...........|...........|...........|...........|...........|...........|...........|...........|...........|...........|...........|...........|...........|...........|...........|...........|...........|...........|...........|...........|...........
|...........|...........|...........|...........|...........|...........|...........|...........|...........|...........|...........|...........|...........|...........|...........|...........|...........|...........|...........|...........|...........|...........|...........|...........|...........|...........|...........|...........
|...........|...........|...........|...........|...........|...........|...........|...........|...........|...........|C-403......|...........|...........|...........|...........|...........|B-711......|........E10|...........|...........|...........|...........|...........|...........|...........|...........|...........|...........
|...........|...........|...........|...........|...........|...........|...........|...........|...........|...........|...........|...........|...........|...........|...........|...........|........F10|...........|...........|...........|...........|...........|...........|...........|...........|...........|...........|...........
|...........|...........|...........|...........|...........|...........|...........|...........|...........|...........|...........|...........|...........|...........|...........|...........|...........|...........|...........|...........|...........|...........|...........|...........|...........|...........|...........|...........
Rows: 64
|...........|B-302......|C#506......|F#406......|D-406......|A-306......|...........|...........|...........|...........|...........|C-403......|...........|...........|...........|...........|...........|...........|...........|...........|...........|...........|...........|...........|...........|...........|...........|...........
|...........|...........|...........|...........|...........|...........|...........|...........|...........|...........|...........|...........|...........|...........|...........|...........|...........|...........|...........|...........|...........|...........|...........|...........|...........|...........|...........|...........
|...........|...........|...........|...........|...........|...........|...........|...........|...........|...........|...........|...........|...........|...........|...........|...........|...........|...........|...........|...........|...........|...........|...........|...........|...........|...........|...........|...........
|...........|...........|...........|...........|...........|...........|...........|...........|...........|...........|...........|...........|...........|...........|...........|...........|...........|...........|...........|...........|...........|...........|...........|...........|...........|...........|...........|...........
|...........|...........|...........|...........|...........|...........|...........|...........|...........|...........|...........|...........|...........|...........|...........|...........|...........|...........|...........|...........|...........|...........|...........|...........|...........|...........|...........|...........
|...........|...........|...........|...........|...........|...........|...........|...........|...........|...........|...........|...........|...........|...........|...........|...........|...........|...........|...........|...........|...........|D-508......|A-408......|F#508......|...........|...........|...........|...........
|...........|...........|...........|...........|...........|...........|...........|...........|...........|...........|...........|...........|...........|...........|...........|...........|...........|...........|...........|...........|...........|...........|...........|...........|...........|...........|...........|...........
|...........|...........|...........|...........|...........|...........|...........|...........|...........|...........|...........|...........|...........|...........|...........|...........|...........|...........|...........|...........|...........|...........|...........|...........|...........|...........|...........|...........
|...........|...........|...........|...........|...........|...........|...........|...........|...........|...........|C-503......|G-404......|...........|...........|...........|...........|...........|C#710......|...........|...........|...........|===........|===........|===........|...........|...........|...........|...........
|...........|...........|...........|...........|...........|...........|...........|...........|...........|...........|...........|...........|...........|...........|...........|...........|...........|...........|...........|...........|...........|...........|...........|...........|...........|...........|...........|...........
|...........|...........|...........|...........|...........|...........|...........|...........|...........|...........|...........|...........|...........|...........|...........|...........|...........|...........|...........|...........|...........|...........|...........|...........|...........|...........|...........|...........
|...........|...........|...........|...........|...........|...........|...........|...........|...........|...........|...........|...........|...........|...........|...........|...........|...........|...........|...........|...........|...........|...........|...........|...........|...........|...........|...........|...........
|...........|...........|...........|...........|...........|...........|...........|...........|...........|...........|...........|...........|...........|...........|...........|...........|...........|^^^........|...........|...........|...........|...........|...........|...........|...........|...........|...........|...........
|...........|...........|...........|...........|...........|...........|...........|...........|...........|...........|...........|C-403......|...........|...........|...........|...........|...........|...........|...........|...........|...........|...........|...........|...........|...........|...........|...........|...........
|...........|...........|...........|...........|...........|...........|...........|...........|...........|...........|...........|...........|...........|...........|...........|...........|...........|...........|...........|...........|...........|...........|...........|...........|...........|...........|...........|...........
|...........|...........|...........|...........|...........|...........|...........|...........|...........|...........|...........|...........|...........|...........|...........|...........|...........|...........|...........|...........|...........|...........|...........|...........|...........|...........|...........|...........
|...........|B-202......|...........|...........|...........|...........|...........|...........|...........|...........|C-403......|...........|...........|...........|...........|...........|...........|A-610......|...........|...........|...........|D-508......|A-408......|F#508......|...........|...........|...........|...........
|...........|...........|...........|...........|...........|...........|...........|...........|...........|...........|...........|...........|...........|...........|...........|...........|...........|...........|...........|...........|...........|...........|...........|...........|...........|...........|...........|...........
|...........|...........|...........|...........|...........|...........|...........|...........|...........|...........|...........|...........|...........|...........|...........|...........|...........|...........|...........|...........|...........|...........|...........|...........|...........|...........|...........|...........
|...........|...........|...........|...........|...........|...........|...........|...........|...........|...........|...........|...........|...........|...........|...........|...........|...........|...........|...........|...........|...........|...........|...........|...........|...........|...........|...........|...........
|...........|...........|...........|...........|...........|...........|...........|...........|...........|...........|...........|...........|...........|...........|...........|...........|...........|...........|...........|...........|...........|===........|===........|===........|...........|...........|...........|...........
|...........|...........|...........|...........|...........|...........|...........|...........|...........|...........|...........|...........|...........|...........|...........|...........|...........|F#610......|...........|...........|...........|...........|...........|...........|...........|...........|...........|...........
|...........|...........|...........|...........|...........|...........|...........|...........|...........|...........|...........|...........|...........|...........|...........|...........|...........|...........|...........|...........|...........|...........|...........|...........|...........|...........|...........|...........
|...........|...........|...........|...........|...........|...........|...........|...........|...........|...........|...........|...........|...........|...........|...........|...........|...........|...........|...........|...........|...........|...........|...........|...........|...........|...........|...........|...........
|...........|...........|...........|...........|...........|...........|...........|...........|...........|...........|G-404......|C-503......|...........|...........|...........|...........|...........|^^^........|...........|...........|...........|...........|...........|...........|...........|...........|...........|...........
|...........|...........|...........|...........|...........|...........|...........|...........|...........|...........|...........|...........|...........|...........|...........|...........|...........|...........|...........|...........|...........|...........|...........|...........|...........|...........|...........|...........
|...........|...........|...........|...........|...........|...........|...........|...........|...........|...........|...........|...........|...........|...........|...........|...........|...........|...........|...........|...........|...........|...........|...........|...........|...........|...........|...........|...........
|...........|...........|...........|...........|...........|...........|...........|...........|...........|...........|...........|...........|...........|...........|...........|...........|...........|...........|...........|...........|...........|...........|...........|...........|...........|...........|...........|...........
|...........|...........|...........|...........|...........|...........|...........|...........|...........|...........|...........|...........|...........|...........|...........|...........|...........|...........|...........|...........|...........|...........|...........|...........|...........|...........|...........|...........
|...........|...........|...........|...........|...........|...........|...........|...........|...........|...........|C-403......|...........|...........|...........|...........|...........|...........|C#610......|...........|...........|...........|...........|...........|...........|...........|...........|...........|...........
|...........|...........|...........|...........|...........|...........|...........|...........|...........|...........|...........|...........|...........|...........|...........|...........|...........|...........|...........|...........|...........|...........|...........|...........|...........|...........|...........|...........
|...........|...........|...........|...........|...........|...........|...........|...........|...........|...........|...........|...........|...........|...........|...........|...........|...........|...........|...........|...........|...........|...........|...........|...........|...........|...........|...........|...........
|...........|E-302......|F#406......|C#406......|A-306......|D-306......|...........|...........|...........|...........|...........|C-403......|...........|...........|...........|...........|...........|D-610......|...........|...........|...........|D-508......|A-408......|F#508......|...........|...........|...........|...........
|...........|...........|...........|...........|...........|...........|...........|...........|...........|...........|...........|...........|...........|...........|...........|...........|...........|...........|...........|...........|...........|...........|...........|...........|...........|...........|...........|...........
|...........|...........|...........|...........|...........|...........|...........|...........|...........|...........|...........|...........|...........|...........|...........|...........|...........|...........|...........|...........|...........|...........|...........|...........|...........|...........|...........|...........
|...........|...........|...........|...........|...........|...........|...........|...........|...........|...........|...........|...........|...........|...........|...........|...........|...........|...........|...........|...........|...........|...........|...........|...........|...........|...........|...........|...........
|...........|...........|...........|...........|...........|...........|...........|...........|...........|...........|...........|...........|...........|...........|...........|...........|...........|...........|...........|...........|...........|===........|===........|===........|...........|...........|...........|...........
|...........|...........|...........|...........|...........|...........|...........|...........|...........|...........|...........|...........|...........|...........|...........|...........|...........|E-610......|...........|...........|...........|...........|...........|...........|...........|...........|...........|...........
|...........|...........|...........|...........|...........|...........|...........|...........|...........|...........|...........|...........|...........|...........|...........|...........|...........|...........|...........|...........|...........|...........|...........|...........|...........|...........|...........|...........
|...........|...........|...........|...........|...........|...........|...........|...........|...........|...........|...........|...........|...........|...........|...........|...........|...........|...........|...........|...........|...........|...........|...........|...........|...........|...........|...........|...........
|...........|...........|...........|...........|...........|...........|...........|...........|...........|...........|C-503......|G-404......|...........|...........|...........|...........|F#711......|F#610......|...........|...........|...........|...........|...........|...........|...........|...........|...........|...........
|...........|...........|...........|...........|...........|...........|...........|...........|...........|...........|...........|...........|...........|...........|...........|...........|...........|...........|...........|...........|...........|...........|...........|...........|...........|...........|...........|...........
|...........|...........|...........|...........|...........|...........|...........|...........|...........|...........|...........|...........|...........|...........|...........|...........|...........|...........|...........|...........|...........|...........|...........|...........|...........|...........|...........|...........
|...........|...........|...........|...........|...........|...........|...........|...........|...........|...........|...........|...........|...........|...........|...........|...........|...........|...........|...........|...........|...........|...........|...........|...........|...........|...........|...........|...........
|...........|...........|...........|...........|...........|...........|...........|...........|...........|...........|...........|...........|...........|...........|...........|...........|...........|...........|...........|...........|...........|...........|...........|...........|...........|...........|...........|...........
|...........|...........|...........|...........|...........|...........|...........|...........|...........|...........|...........|C-403......|...........|...........|...........|...........|...........|G#610......|...........|...........|...........|D-508......|G#408......|F#508......|...........|...........|...........|...........
|...........|...........|...........|...........|...........|...........|...........|...........|...........|...........|...........|...........|...........|...........|...........|...........|...........|...........|...........|...........|...........|...........|...........|...........|...........|...........|...........|...........
|...........|...........|...........|...........|...........|...........|...........|...........|...........|...........|...........|...........|...........|...........|...........|...........|...........|...........|...........|...........|...........|...........|...........|...........|...........|...........|...........|...........
|...........|A#302......|B-406......|F#406......|C#406......|G#306......|...........|...........|...........|...........|C-403......|...........|...........|...........|...........|...........|B-711......|...........|...........|...........|...........|...........|...........|...........|...........|...........|...........|...........
|...........|...........|...........|...........|...........|...........|...........|...........|...........|...........|...........|...........|...........|...........|...........|...........|...........|...........|...........|...........|...........|===........|===........|===........|...........|...........|...........|...........
|...........|...........|...........|...........|...........|...........|...........|...........|...........|...........|...........|...........|...........|...........|...........|...........|...........|...........|...........|...........|...........|...........|...........|...........|...........|...........|...........|...........
|...........|...........|...........|...........|...........|...........|...........|...........|...........|...........|...........|...........|...........|...........|...........|...........|...........|...........|...........|...........|...........|...........|...........|...........|...........|...........|...........|...........
|...........|...........|...........|...........|...........|...........|...........|...........|...........|...........|...........|...........|...........|...........|...........|...........|...........|...........|...........|...........|...........|...........|...........|...........|...........|...........|...........|...........
|...........|...........|...........|...........|...........|...........|...........|...........|...........|...........|...........|...........|...........|...........|...........|...........|...........|A-610......|...........|...........|...........|...........|...........|...........|...........|...........|...........|...........
|...........|...........|...........|...........|...........|...........|...........|...........|...........|...........|...........|...........|...........|...........|...........|...........|...........|...........|...........|...........|...........|...........|...........|...........|...........|...........|...........|...........
|...........|...........|...........|...........|...........|...........|...........|...........|...........|...........|...........|...........|...........|...........|...........|...........|...........|...........|...........|...........|...........|...........|...........|...........|...........|...........|...........|...........
|...........|...........|...........|...........|...........|...........|...........|...........|...........|...........|G-404......|C-503......|...........|...........|...........|...........|F#711......|B-610......|...........|...........|...........|...........|...........|...........|...........|...........|...........|...........
|...........|...........|...........|...........|...........|...........|...........|...........|...........|...........|...........|...........|...........|...........|...........|...........|...........|...........|...........|...........|...........|...........|...........|...........|...........|...........|...........|...........
|...........|...........|...........|...........|...........|...........|...........|...........|...........|...........|...........|...........|...........|...........|...........|...........|........F10|...........|...........|...........|...........|...........|...........|...........|...........|...........|...........|...........
|...........|...........|...........|...........|...........|...........|...........|...........|...........|...........|...........|...........|...........|...........|...........|...........|...........|...........|...........|...........|...........|...........|...........|...........|...........|...........|...........|...........
|...........|...........|...........|...........|...........|...........|...........|...........|...........|...........|...........|...........|...........|...........|...........|...........|...........|...........|...........|...........|...........|...........|...........|...........|...........|...........|...........|...........
|...........|...........|...........|...........|...........|...........|...........|...........|...........|...........|C-403......|...........|...........|...........|...........|...........|...........|C#710......|...........|...........|...........|...........|...........|...........|...........|...........|...........|...........
|...........|...........|...........|...........|...........|...........|...........|...........|...........|...........|...........|...........|...........|...........|...........|...........|...........|...........|...........|...........|...........|...........|...........|...........|...........|...........|...........|...........
|...........|...........|...........|...........|...........|...........|...........|...........|...........|...........|...........|...........|...........|...........|...........|...........|...........|...........|...........|...........|...........|...........|...........|...........|...........|...........|...........|...........
Rows: 64
|...........|A-302......|G#406......|E-406......|B-306......|F#306......|...........|...........|...........|...........|...........|C-403......|...........|...........|...........|...........|...........|...........|...........|...........|...........|...........|...........|...........|...........|...........|...........|...........
|...........|...........|...........|...........|...........|...........|...........|...........|...........|...........|...........|...........|...........|...........|...........|...........|...........|...........|...........|...........|...........|...........|...........|...........|...........|...........|...........|...........
|...........|...........|...........|...........|...........|...........|...........|...........|...........|...........|...........|...........|...........|...........|...........|...........|...........|...........|...........|...........|...........|...........|...........|...........|...........|...........|...........|...........
|...........|...........|...........|...........|...........|...........|...........|...........|...........|...........|...........|...........|...........|...........|...........|...........|...........|...........|...........|...........|...........|...........|...........|...........|...........|...........|...........|...........
|...........|...........|...........|...........|...........|...........|...........|...........|...........|...........|...........|...........|...........|...........|...........|...........|...........|...........|...........|...........|...........|...........|...........|...........|...........|...........|...........|...........
|...........|...........|...........|...........|...........|...........|...........|...........|...........|...........|...........|...........|...........|...........|...........|...........|...........|...........|...........|...........|...........|...........|...........|...........|...........|...........|...........|...........
|...........|...........|...........|...........|...........|...........|...........|...........|...........|...........|...........|...........|...........|...........|...........|...........|...........|...........|...........|...........|...........|...........|...........|...........|...........|...........|...........|...........
|...........|...........|...........|...........|...........|...........|...........|...........|...........|...........|...........|...........|...........|...........|...........|...........|...........|...........|...........|...........|...........|...........|...........|...........|...........|...........|...........|...........
|...........|...........|...........|...........|...........|...........|...........|...........|...........|...........|C-503......|G-404......|...........|...........|...........|...........|........E10|E-710......|...........|...........|...........|...........|...........|...........|...........|...........|...........|...........
|...........|...........|...........|...........|...........|...........|...........|...........|...........|...........|...........|...........|...........|...........|...........|...........|...........|...........|...........|...........|...........|...........|...........|...........|...........|...........|...........|...........
|...........|...........|...........|...........|...........|...........|...........|...........|...........|...........|...........|...........|...........|...........|...........|...........|...........|...........|...........|...........|...........|...........|...........|...........|...........|...........|...........|...........
|...........|...........|...........|...........|...........|...........|...........|...........|...........|...........|...........|...........|...........|...........|...........|...........|........E10|...........|...........|...........|...........|...........|...........|...........|...........|...........|...........|...........
|...........|...........|...........|...........|...........|...........|...........|...........|...........|...........|...........|...........|...........|...........|...........|...........|...........|^^^........|...........|...........|...........|...........|...........|...........|...........|...........|...........|...........
|...........|...........|...........|...........|...........|...........|...........|...........|...........|...........|...........|C-403......|...........|...........|...........|...........|...........|...........|...........|...........|...........|...........|...........|...........|...........|...........|...........|...........
|...........|...........|...........|...........|...........|...........|...........|...........|...........|...........|...........|...........|...........|...........|...........|...........|........E18|...........|...........|...........|...........|...........|...........|...........|...........|...........|...........|...........
|...........|...........|...........|...........|...........|...........|...........|...........|...........|...........|...........|...........|...........|...........|...........|...........|...........|...........|...........|...........|...........|...........|...........|...........|...........|...........|...........|...........
|...........|E-302......|...........|...........|...........|...........|...........|...........|...........|...........|C-403......|...........|...........|...........|...........|...........|...........|E-610......|...........|...........|...........|...........|...........|...........|...........|...........|...........|...........
|...........|...........|...........|...........|...........|...........|...........|...........|...........|...........|...........|...........|...........|...........|...........|...........|...........|...........|...........|...........|...........|...........|...........|...........|...........|...........|...........|...........
|...........|...........|...........|...........|...........|...........|...........|...........|...........|...........|...........|...........|...........|...........|...........|...........|...........|...........|...........|...........|...........|...........|...........|...........|...........|...........|...........|...........
|...........|...........|...........|...........|...........|...........|...........|...........|...........|...........|...........|...........|...........|...........|...........|...........|...........|...........|...........|...........|...........|...........|...........|...........|...........|...........|...........|...........
|...........|...........|...........|...........|...........|...........|...........|...........|...........|...........|...........|...........|...........|...........|...........|...........|...........|^^^........|...........|...........|...........|...........|...........|...........|...........|...........|...........|...........
|...........|...........|...........|...........|...........|...........|...........|...........|...........|...........|...........|...........|...........|...........|...........|...........|...........|...........|...........|...........|...........|...........|...........|...........|...........|...........|...........|...........
|...........|...........|...........|...........|...........|...........|...........|...........|...........|...........|...........|...........|...........|...........|...........|...........|...........|...........|...........|...........|...........|...........|...........|...........|...........|...........|...........|...........
|...........|...........|...........|...........|...........|...........|...........|...........|...........|...........|...........|...........|...........|...........|...........|...........|...........|...........|...........|...........|...........|...........|...........|...........|...........|...........|...........|...........
|...........|...........|...........|...........|...........|...........|...........|...........|...........|...........|G-404......|C-503......|...........|...........|...........|...........|...........|...........|...........|...........|...........|...........|...........|...........|...........|...........|...........|...........
|...........|...........|...........|...........|...........|...........|...........|...........|...........|...........|...........|...........|...........|...........|...........|...........|...........|...........|...........|...........|...........|...........|...........|...........|...........|...........|...........|...........
|...........|...........|...........|...........|...........|...........|...........|...........|...........|...........|...........|...........|...........|...........|...........|...........|...........|...........|...........|...........|...........|...........|...........|...........|...........|...........|...........|...........
|...........|...........|...........|...........|...........|...........|...........|...........|...........|...........|...........|...........|...........|...........|...........|...........|...........|...........|...........|...........|...........|...........|...........|...........|...........|...........|...........|...........
|...........|...........|...........|...........|...........|...........|...........|...........|...........|...........|...........|...........|...........|...........|...........|...........|...........|...........|...........|...........|...........|...........|...........|...........|...........|...........|...........|...........
|...........|...........|...........|...........|...........|...........|...........|...........|...........|...........|C-403......|...........|...........|...........|...........|...........|...........|...........|...........|...........|...........|...........|...........|...........|...........|...........|...........|...........
|...........|...........|...........|...........|...........|...........|...........|...........|...........|...........|...........|...........|...........|...........|...........|...........|...........|...........|...........|...........|...........|...........|...........|...........|...........|...........|...........|...........
|...........|...........|...........|...........|...........|...........|...........|...........|...........|...........|...........|...........|...........|...........|...........|...........|...........|...........|...........|...........|...........|...........|...........|...........|...........|...........|...........|...........
|...........|F#302......|...........|...........|...........|...........|...........|...........|...........|...........|...........|C-403......|...........|...........|...........|...........|...........|...........|...........|...........|...........|...........|...........|...........|...........|...........|...........|...........
|...........|...........|...........|...........|...........|...........|...........|...........|...........|...........|...........|...........|...........|...........|...........|...........|...........|...........|...........|...........|...........|...........|...........|...........|...........|...........|...........|...........
|...........|...........|...........|...........|...........|...........|...........|...........|...........|...........|...........|...........|...........|...........|...........|...........|...........|...........|...........|...........|...........|...........|...........|...........|...........|...........|...........|...........
|...........|...........|...........|...........|...........|...........|...........|...........|...........|...........|...........|...........|...........|...........|...........|...........|...........|...........|...........|...........|...........|...........|...........|...........|...........|...........|...........|...........
|...........|...........|...........|...........|...........|...........|...........|...........|...........|...........|...........|...........|...........|...........|...........|...........|...........|...........|...........|...........|...........|...........|...........|...........|...........|...........|...........|...........
|...........|...........|...........|...........|...........|...........|...........|...........|...........|...........|...........|...........|...........|...........|...........|...........|...........|...........|...........|...........|...........|...........|...........|...........|...........|...........|...........|...........
|...........|...........|...........|...........|...........|...........|...........|...........|...........|...........|...........|...........|...........|...........|...........|...........|...........|...........|...........|...........|...........|...........|...........|...........|...........|...........|...........|...........
|...........|...........|...........|...........|...........|...........|...........|...........|...........|...........|...........|...........|...........|...........|...........|...........|...........|...........|...........|...........|...........|...........|...........|...........|...........|...........|...........|...........
|...........|...........|A-406......|E-406......|B-306......|C#406......|...........|...........|...........|...........|C-503......|G-404......|...........|...........|...........|...........|...........|C#710......|...........|...........|...........|...........|...........|...........|...........|...........|...........|...........
|...........|...........|...........|...........|...........|...........|...........|...........|...........|...........|...........|...........|...........|...........|...........|...........|...........|...........|...........|...........|...........|...........|...........|...........|...........|...........|...........|...........
|...........|...........|...........|...........|...........|...........|...........|...........|...........|...........|...........|...........|...........|...........|...........|...........|...........|...........|...........|...........|...........|...........|...........|...........|...........|...........|...........|...........
|...........|...........|...........|...........|...........|...........|...........|...........|...........|...........|...........|...........|...........|...........|...........|...........|...........|...........|...........|...........|...........|...........|...........|...........|...........|...........|...........|...........
|...........|...........|...........|...........|...........|...........|...........|...........|...........|...........|...........|...........|...........|...........|...........|...........|...........|^^^........|...........|...........|...........|...........|...........|...........|...........|...........|...........|...........
|...........|...........|...........|...........|...........|...........|...........|...........|...........|...........|...........|C-403......|...........|...........|...........|...........|...........|...........|...........|...........|...........|...........|...........|...........|...........|...........|...........|...........
|...........|...........|...........|...........|...........|...........|...........|...........|...........|...........|...........|...........|...........|...........|...........|...........|...........|...........|...........|...........|...........|...........|...........|...........|...........|...........|...........|...........
|...........|...........|...........|...........|...........|...........|...........|...........|...........|...........|...........|...........|...........|...........|...........|...........|...........|...........|...........|...........|...........|...........|...........|...........|...........|...........|...........|...........
|...........|C#402......|...........|...........|...........|...........|...........|...........|...........|...........|C-403......|...........|...........|...........|...........|...........|...........|C#610......|...........|...........|...........|...........|...........|...........|...........|...........|...........|...........
|...........|...........|...........|...........|...........|...........|...........|...........|...........|...........|...........|...........|...........|...........|...........|...........|...........|...........|...........|...........|...........|...........|...........|...........|...........|...........|...........|...........
|...........|...........|...........|...........|...........|...........|...........|...........|...........|...........|...........|...........|...........|...........|...........|...........|...........|...........|...........|...........|...........|...........|...........|...........|...........|...........|...........|...........
|...........|...........|...........|...........|...........|...........|...........|...........|...........|...........|...........|...........|...........|...........|...........|...........|...........|...........|...........|...........|...........|...........|...........|...........|...........|...........|...........|...........
|...........|...........|...........|...........|...........|...........|...........|...........|...........|...........|...........|...........|...........|...........|...........|...........|...........|^^^........|...........|...........|...........|...........|...........|...........|...........|...........|...........|...........
|...........|...........|B-406......|G#406......|E-406......|A-306......|...........|...........|...........|...........|...........|...........|...........|...........|...........|...........|F#611......|...........|...........|...........|...........|...........|...........|...........|...........|...........|...........|...........
|...........|...........|...........|...........|...........|...........|...........|...........|...........|...........|...........|...........|...........|...........|...........|...........|...........|...........|...........|...........|...........|...........|...........|...........|...........|...........|...........|...........
|...........|...........|...........|...........|...........|...........|...........|...........|...........|...........|...........|...........|...........|...........|...........|...........|...........|...........|...........|...........|...........|...........|...........|...........|...........|...........|...........|...........
|...........|...........|...........|...........|...........|...........|...........|...........|...........|...........|G-404......|C-503......|...........|...........|...........|...........|G#611......|...........|...........|...........|...........|...........|...........|...........|...........|...........|...........|...........
|...........|...........|...........|...........|...........|...........|...........|...........|...........|...........|...........|...........|...........|...........|...........|...........|...........|...........|...........|...........|...........|...........|...........|...........|...........|...........|...........|...........
|...........|...........|...........|...........|...........|...........|...........|...........|...........|...........|...........|...........|...........|...........|...........|...........|...........|...........|...........|...........|...........|...........|...........|...........|...........|...........|...........|...........
|...........|...........|...........|...........|...........|...........|...........|...........|...........|...........|...........|...........|...........|...........|...........|...........|...........|...........|...........|...........|...........|...........|...........|...........|...........|...........|...........|...........
|...........|...........|...........|...........|...........|...........|...........|...........|...........|...........|...........|...........|...........|...........|...........|...........|...........|...........|...........|...........|...........|...........|...........|...........|...........|...........|...........|...........
|...........|...........|...........|...........|...........|...........|...........|...........|...........|...........|C-403......|...........|...........|...........|...........|...........|A-611......|...........|...........|...........|...........|...........|...........|...........|...........|...........|...........|...........
|...........|...........|...........|...........|...........|...........|...........|...........|...........|...........|...........|...........|...........|...........|...........|...........|...........|...........|...........|...........|...........|...........|...........|...........|...........|...........|...........|...........
|...........|...........|...........|...........|...........|...........|...........|...........|...........|...........|...........|...........|...........|...........|...........|...........|...........|...........|...........|...........|...........|...........|...........|...........|...........|...........|...........|...........
Rows: 64
|...........|B-302......|C#506......|G#406......|D#406......|A-306......|...........|...........|...........|...........|...........|C-403......|...........|...........|...........|...........|...........|...........|...........|...........|...........|...........|...........|...........|...........|...........|...........|...........
|...........|...........|...........|...........|...........|...........|...........|...........|...........|...........|...........|...........|...........|...........|...........|...........|...........|...........|...........|...........|...........|...........|...........|...........|...........|...........|...........|...........
|...........|...........|...........|...........|...........|...........|...........|...........|...........|...........|...........|...........|...........|...........|...........|...........|...........|...........|...........|...........|...........|...........|...........|...........|...........|...........|...........|...........
|...........|...........|...........|...........|...........|...........|...........|...........|...........|...........|...........|...........|...........|...........|...........|...........|...........|...........|...........|...........|...........|...........|...........|...........|...........|...........|...........|...........
|...........|...........|...........|...........|...........|...........|...........|...........|...........|...........|...........|...........|...........|...........|...........|...........|...........|...........|...........|...........|...........|...........|...........|...........|...........|...........|...........|...........
|...........|...........|...........|...........|...........|...........|...........|...........|...........|...........|...........|...........|...........|...........|...........|...........|...........|...........|...........|...........|...........|...........|...........|...........|...........|...........|...........|...........
|...........|...........|...........|...........|...........|...........|...........|...........|...........|...........|...........|...........|...........|...........|...........|...........|...........|...........|...........|...........|...........|...........|...........|...........|...........|...........|...........|...........
|...........|...........|...........|...........|...........|...........|...........|...........|...........|...........|...........|...........|...........|...........|...........|...........|...........|...........|...........|...........|...........|...........|...........|...........|...........|...........|...........|...........
|...........|...........|...........|...........|...........|...........|...........|...........|...........|...........|C-503......|G-404......|...........|...........|...........|...........|C#711......|...........|...........|...........|...........|...........|...........|...........|...........|...........|...........|...........
|...........|...........|...........|...........|...........|...........|...........|...........|...........|...........|...........|...........|...........|...........|...........|...........|...........|...........|...........|...........|...........|...........|...........|...........|...........|...........|...........|...........
|...........|...........|...........|...........|...........|...........|...........|...........|...........|...........|...........|...........|...........|...........|...........|...........|...........|...........|...........|...........|...........|...........|...........|...........|...........|...........|...........|...........
|...........|...........|...........|...........|...........|...........|...........|...........|...........|...........|...........|...........|...........|...........|...........|...........|...........|...........|...........|...........|...........|...........|...........|...........|...........|...........|...........|...........
|...........|...........|...........|...........|...........|...........|...........|...........|...........|...........|...........|...........|...........|...........|...........|...........|^^^........|...........|...........|...........|...........|...........|...........|...........|...........|...........|...........|...........
|...........|...........|...........|...........|...........|...........|...........|...........|...........|...........|...........|C-403......|...........|...........|...........|...........|...........|...........|...........|...........|...........|...........|...........|...........|...........|...........|...........|...........
|...........|...........|...........|...........|...........|...........|...........|...........|...........|...........|...........|...........|...........|...........|...........|...........|...........|...........|...........|...........|...........|...........|...........|...........|...........|...........|...........|...........
|...........|...........|...........|...........|...........|...........|...........|...........|...........|...........|...........|...........|...........|...........|...........|...........|...........|...........|...........|...........|...........|...........|...........|...........|...........|...........|...........|...........
|...........|F#302......|...........|...........|...........|...........|...........|...........|...........|...........|C-403......|...........|...........|...........|...........|...........|F#610......|...........|...........|...........|...........|...........|...........|...........|...........|...........|...........|...........
|...........|...........|...........|...........|...........|...........|...........|...........|...........|...........|...........|...........|...........|...........|...........|...........|...........|...........|...........|...........|...........|...........|...........|...........|...........|...........|...........|...........
|...........|...........|...........|...........|...........|...........|...........|...........|...........|...........|...........|...........|...........|...........|...........|...........|...........|...........|...........|...........|...........|...........|...........|...........|...........|...........|...........|...........
|...........|...........|...........|...........|...........|...........|...........|...........|...........|...........|...........|...........|...........|...........|...........|...........|...........|...........|...........|...........|...........|...........|...........|...........|...........|...........|...........|...........
|...........|...........|...........|...........|...........|...........|...........|...........|...........|...........|...........|...........|...........|...........|...........|...........|^^^........|...........|...........|...........|...........|...........|...........|...........|...........|...........|...........|...........
|...........|...........|...........|...........|...........|...........|...........|...........|...........|...........|...........|...........|...........|...........|...........|...........|...........|D#611......|...........|...........|...........|...........|...........|...........|...........|...........|...........|...........
|...........|...........|...........|...........|...........|...........|...........|...........|...........|...........|...........|...........|...........|...........|...........|...........|...........|...........|...........|...........|...........|...........|...........|...........|...........|...........|...........|...........
|...........|...........|...........|...........|...........|...........|...........|...........|...........|...........|...........|...........|...........|...........|...........|...........|...........|...........|...........|...........|...........|...........|...........|...........|...........|...........|...........|...........
|...........|...........|...........|...........|...........|...........|...........|...........|...........|...........|G-404......|C-503......|...........|...........|...........|...........|...........|C#611......|...........|...........|...........|...........|...........|...........|...........|...........|...........|...........
|...........|...........|...........|...........|...........|...........|...........|...........|...........|...........|...........|...........|...........|...........|...........|...........|...........|...........|...........|...........|...........|...........|...........|...........|...........|...........|...........|...........
|...........|...........|...........|...........|...........|...........|...........|...........|...........|...........|...........|...........|...........|...........|...........|...........|...........|...........|...........|...........|...........|...........|...........|...........|...........|...........|...........|...........
|...........|...........|...........|...........|...........|...........|...........|...........|...........|...........|...........|...........|...........|...........|...........|...........|...........|...........|...........|...........|...........|...........|...........|...........|...........|...........|...........|...........
|...........|...........|...........|...........|...........|...........|...........|...........|...........|...........|...........|...........|...........|...........|...........|...........|...........|...........|...........|...........|...........|...........|...........|...........|...........|...........|...........|...........
|...........|...........|...........|...........|...........|...........|...........|...........|...........|...........|C-403......|...........|...........|...........|...........|...........|...........|D#611......|...........|...........|...........|...........|...........|...........|...........|...........|...........|...........
|...........|...........|...........|...........|...........|...........|...........|...........|...........|...........|...........|...........|...........|...........|...........|...........|...........|...........|...........|...........|...........|...........|...........|...........|...........|...........|...........|...........
|...........|...........|...........|...........|...........|...........|...........|...........|...........|...........|...........|...........|...........|...........|...........|...........|...........|...........|...........|...........|...........|...........|...........|...........|...........|...........|...........|...........
|...........|G#302......|...........|...........|...........|...........|...........|...........|...........|...........|...........|C-403......|...........|...........|...........|...........|...........|...........|...........|...........|...........|...........|...........|...........|...........|...........|...........|...........
|...........|...........|...........|...........|...........|...........|...........|...........|...........|...........|...........|...........|...........|...........|...........|...........|...........|...........|...........|...........|...........|...........|...........|...........|...........|...........|...........|...........
|...........|...........|...........|...........|...........|...........|...........|...........|...........|...........|...........|...........|...........|...........|...........|...........|...........|...........|...........|...........|...........|...........|...........|...........|...........|...........|...........|...........
|...........|...........|...........|...........|...........|...........|...........|...........|...........|...........|...........|...........|...........|...........|...........|...........|...........|...........|...........|...........|...........|...........|...........|...........|...........|...........|...........|...........
|...........|...........|...........|...........|...........|...........|...........|...........|...........|...........|...........|...........|...........|...........|...........|...........|...........|...........|...........|...........|...........|...........|...........|...........|...........|...........|...........|...........
|...........|...........|...........|...........|...........|...........|...........|...........|...........|...........|...........|...........|...........|...........|...........|...........|...........|...........|...........|...........|...........|...........|...........|...........|...........|...........|...........|...........
|...........|...........|...........|...........|...........|...........|...........|...........|...........|...........|...........|...........|...........|...........|...........|...........|...........|...........|...........|...........|...........|...........|...........|...........|...........|...........|...........|...........
|...........|...........|...........|...........|...........|...........|...........|...........|...........|...........|...........|...........|...........|...........|...........|...........|...........|...........|...........|...........|...........|...........|...........|...........|...........|...........|...........|...........
|...........|...........|D#506......|B-406......|F#406......|C#406......|...........|...........|...........|...........|C-503......|G-404......|...........|...........|...........|...........|B-610......|...........|...........|...........|...........|...........|...........|...........|...........|...........|...........|...........
|...........|...........|...........|...........|...........|...........|...........|...........|...........|...........|...........|...........|...........|...........|...........|...........|...........|...........|...........|...........|...........|...........|...........|...........|...........|...........|...........|...........
|...........|...........|...........|...........|...........|...........|...........|...........|...........|...........|...........|...........|...........|...........|...........|...........|...........|...........|...........|...........|...........|...........|...........|...........|...........|...........|...........|...........
|...........|...........|...........|...........|...........|...........|...........|...........|...........|...........|...........|...........|...........|...........|...........|...........|...........|...........|...........|...........|...........|...........|...........|...........|...........|...........|...........|...........
|...........|...........|...........|...........|...........|...........|...........|...........|...........|...........|...........|...........|...........|...........|...........|...........|^^^........|...........|...........|...........|...........|...........|...........|...........|...........|...........|...........|...........
|...........|...........|...........|...........|...........|...........|...........|...........|...........|...........|...........|C-403......|...........|...........|...........|...........|...........|...........|...........|...........|...........|...........|...........|...........|...........|...........|...........|...........
|...........|...........|...........|...........|...........|...........|...........|...........|...........|...........|...........|...........|...........|...........|...........|...........|...........|...........|...........|...........|...........|...........|...........|...........|...........|...........|...........|...........
|...........|...........|...........|...........|...........|...........|...........|...........|...........|...........|...........|...........|...........|...........|...........|...........|...........|...........|...........|...........|...........|...........|...........|...........|...........|...........|...........|...........
|...........|D#402......|...........|...........|...........|...........|...........|...........|...........|...........|C-403......|...........|...........|...........|...........|...........|B-510......|...........|...........|...........|...........|...........|...........|...........|...........|...........|...........|...........
|...........|...........|...........|...........|...........|...........|...........|...........|...........|...........|...........|...........|...........|...........|...........|...........|...........|...........|...........|...........|...........|...........|...........|...........|...........|...........|...........|...........
|...........|...........|...........|...........|...........|...........|...........|...........|...........|...........|...........|...........|...........|...........|...........|...........|...........|...........|...........|...........|...........|...........|...........|...........|...........|...........|...........|...........
|...........|...........|...........|...........|...........|...........|...........|...........|...........|...........|...........|...........|...........|...........|...........|...........|...........|...........|...........|...........|...........|...........|...........|...........|...........|...........|...........|...........
|...........|...........|...........|...........|...........|...........|...........|...........|...........|...........|...........|...........|...........|...........|...........|...........|^^^........|...........|...........|...........|...........|...........|...........|...........|...........|...........|...........|...........
|...........|...........|E-506......|B-406......|G#406......|D#406......|...........|...........|...........|...........|...........|...........|...........|...........|...........|...........|...........|E-611......|...........|...........|...........|...........|...........|...........|...........|...........|...........|...........
|...........|...........|...........|...........|...........|...........|...........|...........|...........|...........|...........|...........|...........|...........|...........|...........|...........|...........|...........|...........|...........|...........|...........|...........|...........|...........|...........|...........
|...........|...........|...........|...........|...........|...........|...........|...........|...........|...........|...........|...........|...........|...........|...........|...........|...........|...........|...........|...........|...........|...........|...........|...........|...........|...........|...........|...........
|...........|...........|...........|...........|...........|...........|...........|...........|...........|...........|G-404......|C-503......|...........|...........|...........|...........|...........|D#611......|...........|...........|...........|...........|...........|...........|...........|...........|...........|...........
|...........|...........|...........|...........|...........|...........|...........|...........|...........|...........|...........|...........|...........|...........|...........|...........|...........|...........|...........|...........|...........|...........|...........|...........|...........|...........|...........|...........
|...........|...........|...........|...........|...........|...........|...........|...........|...........|...........|...........|...........|...........|...........|...........|...........|...........|...........|...........|...........|...........|...........|...........|...........|...........|...........|...........|...........
|...........|...........|...........|...........|...........|...........|...........|...........|...........|...........|...........|...........|...........|...........|...........|...........|...........|...........|...........|...........|...........|...........|...........|...........|...........|...........|...........|...........
|...........|...........|...........|...........|...........|...........|...........|...........|...........|...........|...........|...........|...........|...........|...........|...........|...........|...........|...........|...........|...........|...........|...........|...........|...........|...........|...........|...........
|...........|...........|...........|...........|...........|...........|...........|...........|...........|...........|C-403......|...........|...........|...........|...........|...........|...........|E-611......|...........|...........|...........|...........|...........|...........|...........|...........|...........|...........
|...........|...........|...........|...........|...........|...........|...........|...........|...........|...........|...........|...........|...........|...........|...........|...........|...........|...........|...........|...........|...........|...........|...........|...........|...........|...........|...........|...........
|...........|...........|...........|...........|...........|...........|...........|...........|...........|...........|...........|...........|...........|...........|...........|...........|...........|...........|...........|...........|...........|...........|...........|...........|...........|...........|...........|...........
Rows: 64
|...........|C#402......|F#506......|B-406......|G#406......|E-406......|...........|...........|...........|...........|...........|C-403......|...........|...........|...........|...........|...........|...........|...........|...........|...........|...........|...........|...........|...........|...........|...........|...........
|...........|...........|...........|...........|...........|...........|...........|...........|...........|...........|...........|...........|...........|...........|...........|...........|...........|...........|...........|...........|...........|...........|...........|...........|...........|...........|...........|...........
|...........|...........|...........|...........|...........|...........|...........|...........|...........|...........|...........|...........|...........|...........|...........|...........|...........|...........|...........|...........|...........|...........|...........|...........|...........|...........|...........|...........
|...........|...........|...........|...........|...........|...........|...........|...........|...........|...........|...........|...........|...........|...........|...........|...........|...........|...........|...........|...........|...........|...........|...........|...........|...........|...........|...........|...........
|...........|...........|...........|...........|...........|...........|...........|...........|...........|...........|...........|...........|...........|...........|...........|...........|...........|...........|...........|...........|...........|...........|...........|...........|...........|...........|...........|...........
|...........|...........|...........|...........|...........|...........|...........|...........|...........|...........|...........|...........|...........|...........|...........|...........|...........|...........|...........|...........|...........|...........|...........|...........|...........|...........|...........|...........
|...........|...........|...........|...........|...........|...........|...........|...........|...........|...........|...........|...........|...........|...........|...........|...........|...........|...........|...........|...........|...........|...........|...........|...........|...........|...........|...........|...........
|...........|...........|...........|...........|...........|...........|...........|...........|...........|...........|...........|...........|...........|...........|...........|...........|...........|...........|...........|...........|...........|...........|...........|...........|...........|...........|...........|...........
|...........|...........|...........|...........|...........|...........|...........|...........|...........|...........|C-503......|G-404......|...........|...........|...........|...........|C-710......|...........|...........|...........|...........|...........|...........|...........|...........|...........|...........|...........
|...........|...........|...........|...........|...........|...........|...........|...........|...........|...........|...........|...........|...........|...........|...........|...........|........F08|...........|...........|...........|...........|...........|...........|...........|...........|...........|...........|...........
|...........|...........|...........|...........|...........|...........|...........|...........|...........|...........|...........|...........|...........|...........|...........|...........|...........|...........|...........|...........|...........|...........|...........|...........|...........|...........|...........|...........
|...........|...........|...........|...........|...........|...........|...........|...........|...........|...........|...........|...........|...........|...........|...........|...........|...........|...........|...........|...........|...........|...........|...........|...........|...........|...........|...........|...........
|...........|...........|...........|...........|...........|...........|...........|...........|...........|...........|...........|...........|...........|...........|...........|...........|^^^........|...........|...........|...........|...........|...........|...........|...........|...........|...........|...........|...........
|...........|...........|...........|...........|...........|...........|...........|...........|...........|...........|...........|C-403......|...........|...........|...........|...........|...........|...........|...........|...........|...........|...........|...........|...........|...........|...........|...........|...........
|...........|...........|...........|...........|...........|...........|...........|...........|...........|...........|...........|...........|...........|...........|...........|...........|...........|...........|...........|...........|...........|...........|...........|...........|...........|...........|...........|...........
|...........|...........|...........|...........|...........|...........|...........|...........|...........|...........|...........|...........|...........|...........|...........|...........|...........|...........|...........|...........|...........|...........|...........|...........|...........|...........|...........|...........
|...........|G#302......|...........|...........|...........|...........|...........|...........|...........|...........|C-403......|...........|...........|...........|...........|...........|C#610......|...........|...........|...........|...........|...........|...........|...........|...........|...........|...........|...........
|...........|...........|...........|...........|...........|...........|...........|...........|...........|...........|...........|...........|...........|...........|...........|...........|...........|...........|...........|...........|...........|...........|...........|...........|...........|...........|...........|...........
|...........|...........|...........|...........|...........|...........|...........|...........|...........|...........|...........|...........|...........|...........|...........|...........|...........|...........|...........|...........|...........|...........|...........|...........|...........|...........|...........|...........
|...........|...........|...........|...........|...........|...........|...........|...........|...........|...........|...........|...........|...........|...........|...........|...........|...........|...........|...........|...........|...........|...........|...........|...........|...........|...........|...........|...........
|...........|...........|...........|...........|...........|...........|...........|...........|...........|...........|...........|...........|...........|...........|...........|...........|^^^........|...........|...........|...........|...........|...........|...........|...........|...........|...........|...........|...........
|...........|...........|...........|...........|...........|...........|...........|...........|...........|...........|...........|...........|...........|...........|...........|...........|...........|F#611......|...........|...........|...........|...........|...........|...........|...........|...........|...........|...........
|...........|...........|...........|...........|...........|...........|...........|...........|...........|...........|...........|...........|...........|...........|...........|...........|...........|...........|...........|...........|...........|...........|...........|...........|...........|...........|...........|...........
|...........|...........|...........|...........|...........|...........|...........|...........|...........|...........|...........|...........|...........|...........|...........|...........|...........|...........|...........|...........|...........|...........|...........|...........|...........|...........|...........|...........
|...........|...........|...........|...........|...........|...........|...........|...........|...........|...........|G-404......|C-503......|...........|...........|...........|...........|...........|G-611......|...........|...........|...........|...........|...........|...........|...........|...........|...........|...........
|...........|...........|...........|...........|...........|...........|...........|...........|...........|...........|...........|...........|...........|...........|...........|...........|...........|...........|...........|...........|...........|...........|...........|...........|...........|...........|...........|...........
|...........|...........|...........|...........|...........|...........|...........|...........|...........|...........|...........|...........|...........|...........|...........|...........|...........|...........|...........|...........|...........|...........|...........|...........|...........|...........|...........|...........
|...........|...........|...........|...........|...........|...........|...........|...........|...........|...........|...........|...........|...........|...........|...........|...........|...........|...........|...........|...........|...........|...........|...........|...........|...........|...........|...........|...........
|...........|...........|...........|...........|...........|...........|...........|...........|...........|...........|...........|...........|...........|...........|...........|...........|...........|...........|...........|...........|...........|...........|...........|...........|...........|...........|...........|...........
|...........|...........|...........|...........|...........|...........|...........|...........|...........|...........|C-403......|...........|...........|...........|...........|...........|...........|G#611......|...........|...........|...........|...........|...........|...........|...........|...........|...........|...........
|...........|...........|...........|...........|...........|...........|...........|...........|...........|...........|...........|...........|...........|...........|...........|...........|...........|...........|...........|...........|...........|...........|...........|...........|...........|...........|...........|...........
|...........|...........|...........|...........|...........|...........|...........|...........|...........|...........|...........|...........|...........|...........|...........|...........|...........|...........|...........|...........|...........|...........|...........|...........|...........|...........|...........|...........
|...........|F#302......|...........|...........|...........|...........|...........|...........|...........|...........|...........|C-403......|...........|...........|...........|...........|...........|...........|...........|...........|...........|...........|...........|...........|...........|...........|...........|...........
|...........|...........|...........|...........|...........|...........|...........|...........|...........|...........|...........|...........|...........|...........|...........|...........|...........|...........|...........|...........|...........|...........|...........|...........|...........|...........|...........|...........
|...........|...........|...........|...........|...........|...........|...........|...........|...........|...........|...........|...........|...........|...........|...........|...........|...........|...........|...........|...........|...........|...........|...........|...........|...........|...........|...........|...........
|...........|...........|...........|...........|...........|...........|...........|...........|...........|...........|...........|...........|...........|...........|...........|...........|...........|...........|...........|...........|...........|...........|...........|...........|...........|...........|...........|...........
|...........|...........|...........|...........|...........|...........|...........|...........|...........|...........|...........|...........|...........|...........|...........|...........|...........|...........|...........|...........|...........|...........|...........|...........|...........|...........|...........|...........
|...........|...........|...........|...........|...........|...........|...........|...........|...........|...........|...........|...........|...........|...........|...........|...........|G#510......|...........|...........|...........|...........|...........|...........|...........|...........|...........|...........|...........
|...........|...........|...........|...........|...........|...........|...........|...........|...........|...........|...........|...........|...........|...........|...........|...........|...........|...........|...........|...........|...........|...........|...........|...........|...........|...........|...........|...........
|...........|...........|...........|...........|...........|...........|...........|...........|...........|...........|...........|...........|...........|...........|...........|...........|...........|...........|...........|...........|...........|...........|...........|...........|...........|...........|...........|...........
|...........|...........|D#506......|G#406......|E-406......|A#306......|...........|...........|...........|...........|C-503......|G-404......|...........|...........|...........|...........|A-510......|C#711......|...........|...........|...........|...........|...........|...........|...........|...........|...........|...........
|...........|...........|...........|...........|...........|...........|...........|...........|...........|...........|...........|...........|...........|...........|...........|...........|...........|...........|...........|...........|...........|...........|...........|...........|...........|...........|...........|...........
|...........|...........|...........|...........|...........|...........|...........|...........|...........|...........|...........|...........|...........|...........|...........|...........|...........|...........|...........|...........|...........|...........|...........|...........|...........|...........|...........|...........
|...........|...........|...........|...........|...........|...........|...........|...........|...........|...........|...........|...........|...........|...........|...........|...........|...........|...........|...........|...........|...........|...........|...........|...........|...........|...........|...........|...........
|...........|...........|...........|...........|...........|...........|...........|...........|...........|...........|...........|...........|...........|...........|...........|...........|...........|...........|...........|...........|...........|...........|...........|...........|...........|...........|...........|...........
|...........|...........|...........|...........|...........|...........|...........|...........|...........|...........|...........|C-403......|...........|...........|...........|...........|A#510......|...........|...........|...........|...........|...........|...........|...........|...........|...........|...........|...........
|...........|...........|...........|...........|...........|...........|...........|...........|...........|...........|...........|...........|...........|...........|...........|...........|...........|...........|...........|...........|...........|...........|...........|...........|...........|...........|...........|...........
|...........|...........|...........|...........|...........|...........|...........|...........|...........|...........|...........|...........|...........|...........|...........|...........|...........|...........|...........|...........|...........|...........|...........|...........|...........|...........|...........|...........
|...........|C#402......|...........|...........|...........|...........|...........|...........|...........|...........|C-403......|...........|...........|...........|...........|...........|...........|...........|...........|...........|...........|...........|...........|...........|...........|...........|...........|...........
|...........|...........|...........|...........|...........|...........|...........|...........|...........|...........|...........|...........|...........|...........|...........|...........|...........|...........|...........|...........|...........|...........|...........|...........|...........|...........|...........|...........
|...........|...........|...........|...........|...........|...........|...........|...........|...........|...........|...........|...........|...........|...........|...........|...........|...........|...........|...........|...........|...........|...........|...........|...........|...........|...........|...........|...........
|...........|...........|...........|...........|...........|...........|...........|...........|...........|...........|...........|...........|...........|...........|...........|...........|...........|...........|...........|...........|...........|...........|...........|...........|...........|...........|...........|...........
|...........|...........|...........|...........|...........|...........|...........|...........|...........|...........|...........|...........|...........|...........|...........|...........|...........|...........|...........|...........|...........|...........|...........|...........|...........|...........|...........|...........
|...........|...........|F#506......|E-406......|A#406......|D#506......|...........|...........|...........|...........|...........|...........|...........|...........|...........|...........|...........|A#611......|...........|...........|...........|...........|...........|...........|...........|...........|...........|...........
|...........|...........|...........|...........|...........|...........|...........|...........|...........|...........|...........|...........|...........|...........|...........|...........|...........|...........|...........|...........|...........|...........|...........|...........|...........|...........|...........|...........
|...........|...........|...........|...........|...........|...........|...........|...........|...........|...........|...........|...........|...........|...........|...........|...........|...........|...........|...........|...........|...........|...........|...........|...........|...........|...........|...........|...........
|...........|...........|...........|...........|...........|...........|...........|...........|...........|...........|G-404......|C-503......|...........|...........|...........|...........|D#610......|...........|...........|...........|...........|...........|...........|...........|...........|...........|...........|...........
|...........|...........|...........|...........|...........|...........|...........|...........|...........|...........|...........|...........|...........|...........|...........|...........|...........|...........|...........|...........|...........|...........|...........|...........|...........|...........|...........|...........
|...........|...........|...........|...........|...........|...........|...........|...........|...........|...........|...........|...........|...........|...........|...........|...........|...........|...........|...........|...........|...........|...........|...........|...........|...........|...........|...........|...........
|...........|...........|...........|...........|...........|...........|...........|...........|...........|...........|...........|...........|...........|...........|...........|...........|...........|...........|...........|...........|...........|...........|...........|...........|...........|...........|...........|...........
|...........|...........|...........|...........|...........|...........|...........|...........|...........|...........|...........|...........|...........|...........|...........|...........|...........|...........|...........|...........|...........|...........|...........|...........|...........|...........|...........|...........
|...........|...........|...........|...........|...........|...........|...........|...........|...........|...........|C-403......|...........|...........|...........|...........|...........|...........|...........|...........|...........|...........|...........|...........|...........|...........|...........|...........|...........
|...........|...........|...........|...........|...........|...........|...........|...........|...........|...........|...........|...........|...........|...........|...........|...........|...........|...........|...........|...........|...........|...........|...........|...........|...........|...........|...........|...........
|...........|...........|...........|...........|...........|...........|...........|...........|...........|...........|...........|...........|...........|...........|...........|...........|...........|...........|...........|...........|...........|...........|...........|...........|...........|...........|...........|...........
Rows: 64
|...........|B-302......|A#406......|F#406......|C#406......|G#306......|...........|...........|...........|...........|...........|C-403......|...........|...........|...........|...........|...........|F#611......|...........|...........|...........|...........|...........|...........|...........|...........|...........|...........
|...........|...........|...........|...........|...........|...........|...........|...........|...........|...........|...........|...........|...........|...........|...........|...........|...........|...........|...........|...........|...........|...........|...........|...........|...........|...........|...........|...........
|...........|...........|...........|...........|...........|...........|...........|...........|...........|...........|...........|...........|...........|...........|...........|...........|...........|...........|...........|...........|...........|...........|...........|...........|...........|...........|...........|...........
|...........|...........|...........|...........|...........|...........|...........|...........|...........|...........|...........|...........|...........|...........|...........|...........|...........|...........|...........|...........|...........|...........|...........|...........|...........|...........|...........|...........
|...........|...........|...........|...........|...........|...........|...........|...........|...........|...........|...........|...........|...........|...........|...........|...........|...........|...........|...........|...........|...........|...........|...........|...........|...........|...........|...........|...........
|...........|...........|...........|...........|...........|...........|...........|...........|...........|...........|...........|...........|...........|...........|...........|...........|C#610......|...........|...........|...........|...........|...........|...........|...........|...........|...........|...........|...........
|...........|...........|...........|...........|...........|...........|...........|...........|...........|...........|...........|...........|...........|...........|...........|...........|...........|...........|...........|...........|...........|...........|...........|...........|...........|...........|...........|...........
|...........|...........|...........|...........|...........|...........|...........|...........|...........|...........|...........|...........|...........|...........|...........|...........|...........|...........|...........|...........|...........|...........|...........|...........|...........|...........|...........|...........
|...........|...........|...........|...........|...........|...........|...........|...........|...........|...........|C-503......|G-404......|...........|...........|...........|...........|B-510......|...........|...........|...........|...........|...........|...........|...........|...........|...........|...........|...........
|...........|...........|...........|...........|...........|...........|...........|...........|...........|...........|...........|...........|...........|...........|...........|...........|...........|...........|...........|...........|...........|...........|...........|...........|...........|...........|...........|...........
|...........|...........|...........|...........|...........|...........|...........|...........|...........|...........|...........|...........|...........|...........|...........|...........|...........|...........|...........|...........|...........|...........|...........|...........|...........|...........|...........|...........
|...........|...........|...........|...........|...........|...........|...........|...........|...........|...........|...........|...........|...........|...........|...........|...........|...........|...........|...........|...........|...........|...........|...........|...........|...........|...........|...........|...........
|...........|...........|...........|...........|...........|...........|...........|...........|...........|...........|...........|...........|...........|...........|...........|...........|...........|...........|...........|...........|...........|...........|...........|...........|...........|...........|...........|...........
|...........|...........|...........|...........|...........|...........|...........|...........|...........|...........|...........|C-403......|...........|...........|...........|...........|C#610......|...........|...........|...........|...........|...........|...........|...........|...........|...........|...........|...........
|...........|...........|...........|...........|...........|...........|...........|...........|...........|...........|...........|...........|...........|...........|...........|...........|...........|...........|...........|...........|...........|...........|...........|...........|...........|...........|...........|...........
|...........|...........|...........|...........|...........|...........|...........|...........|...........|...........|...........|...........|...........|...........|...........|...........|...........|...........|...........|...........|...........|...........|...........|...........|...........|...........|...........|...........
|...........|F#302......|...........|...........|...........|...........|...........|...........|...........|...........|C-403......|...........|...........|...........|...........|...........|...........|...........|...........|...........|...........|...........|...........|...........|...........|...........|...........|...........
|...........|...........|...........|...........|...........|...........|...........|...........|...........|...........|...........|...........|...........|...........|...........|...........|...........|...........|...........|...........|...........|...........|...........|...........|...........|...........|...........|...........
|...........|...........|...........|...........|...........|...........|...........|...........|...........|...........|...........|...........|...........|...........|...........|...........|...........|...........|...........|...........|...........|...........|...........|...........|...........|...........|...........|...........
|...........|...........|...........|...........|...........|...........|...........|...........|...........|...........|...........|...........|...........|...........|...........|...........|...........|...........|...........|...........|...........|...........|...........|...........|...........|...........|...........|...........
|...........|...........|...........|...........|...........|...........|...........|...........|...........|...........|...........|...........|...........|...........|...........|...........|...........|...........|...........|...........|...........|...........|...........|...........|...........|...........|...........|...........
|...........|...........|...........|...........|...........|...........|...........|...........|...........|...........|...........|...........|...........|...........|...........|...........|...........|E-611......|...........|...........|...........|...........|...........|...........|...........|...........|...........|...........
|...........|...........|...........|...........|...........|...........|...........|...........|...........|...........|...........|...........|...........|...........|...........|...........|...........|...........|...........|...........|...........|...........|...........|...........|...........|...........|...........|...........
|...........|...........|...........|...........|...........|...........|...........|...........|...........|...........|...........|...........|...........|...........|...........|...........|...........|...........|...........|...........|...........|...........|...........|...........|...........|...........|...........|...........
|...........|...........|D-305......|F#405......|C#405......|A-305......|...........|...........|...........|...........|G-404......|C-503......|...........|...........|...........|...........|...........|F-611......|D-611......|...........|...........|...........|...........|...........|...........|...........|...........|...........
|...........|...........|...........|...........|...........|...........|...........|...........|...........|...........|...........|...........|...........|...........|...........|...........|...........|...........|...........|...........|...........|...........|...........|...........|...........|...........|...........|...........
|...........|...........|...........|...........|...........|...........|...........|...........|...........|...........|...........|...........|...........|...........|...........|...........|...........|...........|...........|...........|...........|...........|...........|...........|...........|...........|...........|...........
|...........|...........|...........|...........|...........|...........|...........|...........|...........|...........|...........|...........|...........|...........|...........|...........|...........|...........|...........|...........|...........|...........|...........|...........|...........|...........|...........|...........
|...........|...........|...........|...........|...........|...........|...........|...........|...........|...........|...........|...........|...........|...........|...........|...........|...........|...........|^^^........|...........|...........|...........|...........|...........|...........|...........|...........|...........
|...........|...........|...........|...........|...........|...........|...........|...........|...........|...........|C-403......|...........|...........|...........|...........|...........|...........|F#611......|...........|...........|...........|...........|...........|...........|...........|...........|...........|...........
|...........|...........|...........|...........|...........|...........|...........|...........|...........|...........|...........|...........|...........|...........|...........|...........|...........|...........|...........|...........|...........|...........|...........|...........|...........|...........|...........|...........
|...........|...........|...........|...........|...........|...........|...........|...........|...........|...........|...........|...........|...........|...........|...........|...........|...........|...........|...........|...........|...........|...........|...........|...........|...........|...........|...........|...........
|...........|B-302......|...........|...........|...........|...........|...........|...........|...........|...........|...........|C-403......|...........|...........|...........|...........|...........|...........|D-511......|...........|...........|...........|...........|...........|...........|...........|...........|...........
|...........|...........|...........|...........|...........|...........|...........|...........|...........|...........|...........|...........|...........|...........|...........|...........|...........|...........|...........|...........|...........|...........|...........|...........|...........|...........|...........|...........
|...........|...........|...........|...........|...........|...........|...........|...........|...........|...........|...........|...........|...........|...........|...........|...........|...........|...........|...........|...........|...........|...........|...........|...........|...........|...........|...........|...........
|...........|...........|...........|...........|...........|...........|...........|...........|...........|...........|...........|...........|...........|...........|...........|...........|...........|...........|...........|...........|...........|...........|...........|...........|...........|...........|...........|...........
|...........|...........|...........|...........|...........|...........|...........|...........|...........|...........|...........|...........|...........|...........|...........|...........|...........|...........|...........|...........|...........|...........|...........|...........|...........|...........|...........|...........
|...........|...........|...........|...........|...........|...........|...........|...........|...........|...........|...........|...........|...........|...........|...........|...........|C#610......|...........|...........|...........|...........|...........|...........|...........|...........|...........|...........|...........
|...........|...........|...........|...........|...........|...........|...........|...........|...........|...........|...........|...........|...........|...........|...........|...........|...........|...........|...........|...........|...........|...........|...........|...........|...........|...........|...........|...........
|...........|...........|...........|...........|...........|...........|...........|...........|...........|...........|...........|...........|...........|...........|...........|...........|...........|...........|...........|...........|...........|...........|...........|...........|...........|...........|...........|...........
|...........|...........|...........|...........|...........|...........|...........|...........|...........|...........|C-503......|G-404......|...........|...........|...........|...........|B-510......|B-611......|E-511......|...........|...........|...........|...........|...........|...........|...........|...........|...........
|...........|...........|...........|...........|...........|...........|...........|...........|...........|...........|...........|...........|...........|...........|...........|...........|...........|...........|...........|...........|...........|...........|...........|...........|...........|...........|...........|...........
|...........|...........|...........|...........|...........|...........|...........|...........|...........|...........|...........|...........|...........|...........|...........|...........|...........|...........|...........|...........|...........|...........|...........|...........|...........|...........|...........|...........
|...........|...........|...........|...........|...........|...........|...........|...........|...........|...........|...........|...........|...........|...........|...........|...........|...........|...........|...........|...........|...........|...........|...........|...........|...........|...........|...........|...........
|...........|...........|...........|...........|...........|...........|...........|...........|...........|...........|...........|...........|...........|...........|...........|...........|...........|...........|...........|...........|...........|...........|...........|...........|...........|...........|...........|...........
|...........|...........|...........|...........|...........|...........|...........|...........|...........|...........|...........|C-403......|...........|...........|...........|...........|C#610......|...........|...........|...........|...........|...........|...........|...........|...........|...........|...........|...........
|...........|...........|...........|...........|...........|...........|...........|...........|...........|...........|...........|...........|...........|...........|...........|...........|...........|...........|...........|...........|...........|...........|...........|...........|...........|...........|...........|...........
|...........|...........|...........|...........|...........|...........|...........|...........|...........|...........|...........|...........|...........|...........|...........|...........|...........|...........|...........|...........|...........|...........|...........|...........|...........|...........|...........|...........
|...........|E-302......|G#305......|F#405......|D-405......|C-405......|...........|...........|...........|...........|C-403......|...........|...........|...........|...........|...........|...........|...........|F#511......|...........|...........|...........|...........|...........|...........|...........|...........|...........
|...........|...........|...........|...........|...........|...........|...........|...........|...........|...........|...........|...........|...........|...........|...........|...........|...........|...........|...........|...........|...........|...........|...........|...........|...........|...........|...........|...........
|...........|...........|...........|...........|...........|...........|...........|...........|...........|...........|...........|...........|...........|...........|...........|...........|...........|...........|...........|...........|...........|...........|...........|...........|...........|...........|...........|...........
|...........|...........|...........|...........|...........|...........|...........|...........|...........|...........|...........|...........|...........|...........|...........|...........|...........|...........|...........|...........|...........|...........|...........|...........|...........|...........|...........|...........
|...........|...........|...........|...........|...........|...........|...........|...........|...........|...........|...........|...........|...........|...........|...........|...........|...........|...........|...........|...........|...........|...........|...........|...........|...........|...........|...........|...........
|...........|...........|...........|...........|...........|...........|...........|...........|...........|...........|...........|...........|...........|...........|...........|...........|...........|G#611......|...........|...........|...........|...........|...........|...........|...........|...........|...........|...........
|...........|...........|...........|...........|...........|...........|...........|...........|...........|...........|...........|...........|...........|...........|...........|...........|...........|...........|...........|...........|...........|...........|...........|...........|...........|...........|...........|...........
|...........|...........|...........|...........|...........|...........|...........|...........|...........|...........|...........|...........|...........|...........|...........|...........|...........|...........|...........|...........|...........|...........|...........|...........|...........|...........|...........|...........
|...........|...........|...........|...........|...........|...........|...........|...........|...........|...........|G-404......|C-503......|...........|...........|...........|C-519...M..|E-610......|...........|G#511......|...........|...........|...........|...........|...........|...........|...........|...........|...........
|...........|...........|...........|...........|...........|...........|...........|...........|...........|...........|...........|...........|...........|...........|...........|...........|...........|...........|...........|...........|...........|...........|...........|...........|...........|...........|...........|...........
|...........|...........|...........|...........|...........|...........|...........|...........|...........|...........|...........|...........|...........|...........|...........|...........|...........|...........|...........|...........|...........|...........|...........|...........|...........|...........|...........|...........
|...........|...........|...........|...........|...........|...........|...........|...........|...........|...........|...........|...........|...........|...........|...........|...........|^^^........|...........|...........|...........|...........|...........|...........|...........|...........|...........|...........|...........
|...........|...........|...........|...........|...........|...........|...........|...........|...........|...........|...........|...........|...........|...........|...........|...........|...........|...........|...........|...........|...........|...........|...........|...........|...........|...........|...........|...........
|...........|...........|...........|...........|...........|...........|...........|...........|...........|...........|C-403......|...........|...........|...........|...........|...........|...........|...........|...........|...........|...........|...........|...........|...........|...........|...........|...........|...........
|...........|...........|...........|...........|...........|...........|...........|...........|...........|...........|...........|...........|...........|...........|...........|...........|...........|...........|...........|...........|...........|...........|...........|...........|...........|...........|...........|...........
|...........|...........|...........|...........|...........|...........|...........|...........|...........|...........|...........|...........|...........|...........|...........|...........|...........|...........|...........|...........|...........|...........|...........|...........|...........|...........|...........|...........
Rows: 64
|........A03|A-202......|E-405......|B-305......|G#305......|G#405......|...........|...........|...........|...........|...........|C-403......|...........|...........|...........|C-519......|...........|E-611......|E-511......|...........|...........|...........|...........|...........|...........|...........|...........|...........
|...........|...........|...........|...........|...........|...........|...........|...........|...........|...........|...........|...........|...........|...........|...........|...........|...........|...........|...........|...........|...........|...........|...........|...........|...........|...........|...........|...........
|...........|...........|...........|...........|...........|...........|...........|...........|...........|...........|...........|...........|...........|...........|...........|...........|...........|...........|...........|...........|...........|...........|...........|...........|...........|...........|...........|...........
|...........|...........|...........|...........|...........|...........|...........|...........|...........|...........|...........|...........|...........|...........|...........|...........|...........|...........|...........|...........|...........|...........|...........|...........|...........|...........|...........|...........
|...........|...........|...........|...........|...........|...........|...........|...........|...........|...........|...........|...........|...........|...........|...........|...........|...........|...........|...........|...........|...........|...........|...........|...........|...........|...........|...........|...........
|...........|...........|...........|...........|...........|...........|...........|...........|...........|...........|...........|...........|...........|...........|...........|...........|E-611......|...........|...........|...........|...........|...........|...........|...........|...........|...........|...........|...........
|...........|...........|...........|...........|...........|...........|...........|...........|...........|...........|...........|...........|...........|...........|...........|...........|...........|...........|...........|...........|...........|...........|...........|...........|...........|...........|...........|...........
|...........|...........|...........|...........|...........|...........|...........|...........|...........|...........|...........|...........|...........|...........|...........|...........|...........|...........|...........|...........|...........|...........|...........|...........|...........|...........|...........|...........
|...........|...........|...........|...........|...........|...........|...........|...........|...........|...........|C-503......|G-404......|...........|...........|...........|...........|F#611......|C#610......|...........|...........|...........|...........|...........|...........|...........|...........|...........|...........
|...........|...........|...........|...........|...........|...........|...........|...........|...........|...........|...........|...........|...........|...........|...........|...........|...........|...........|...........|...........|...........|...........|...........|...........|...........|...........|...........|...........
|...........|...........|...........|...........|...........|...........|...........|...........|...........|...........|...........|...........|...........|...........|...........|...........|...........|...........|...........|...........|...........|...........|...........|...........|...........|...........|...........|...........
|...........|...........|...........|...........|...........|...........|...........|...........|...........|...........|...........|...........|...........|...........|...........|...........|...........|...........|...........|...........|...........|...........|...........|...........|...........|...........|...........|...........
|...........|...........|...........|...........|...........|...........|...........|...........|...........|...........|...........|...........|...........|...........|...........|...........|...........|^^^........|...........|...........|...........|...........|...........|...........|...........|...........|...........|...........
|...........|...........|...........|...........|...........|...........|...........|...........|...........|...........|...........|C-403......|...........|...........|...........|...........|G#611......|...........|...........|...........|...........|...........|...........|...........|...........|...........|...........|...........
|...........|...........|...........|...........|...........|...........|...........|...........|...........|...........|...........|...........|...........|...........|...........|...........|...........|...........|...........|...........|...........|...........|...........|...........|...........|...........|...........|...........
|...........|...........|...........|...........|...........|...........|...........|...........|...........|...........|...........|...........|...........|...........|...........|...........|...........|...........|...........|...........|...........|...........|...........|...........|...........|...........|...........|...........
|...........|F#302......|F#405......|C#405......|A-305......|A-405......|...........|...........|...........|...........|C-403......|...........|...........|...........|...........|...........|...........|B-510......|...........|...........|...........|...........|...........|...........|...........|...........|...........|...........
|...........|...........|...........|...........|...........|...........|...........|...........|...........|...........|...........|...........|...........|...........|...........|...........|...........|...........|...........|...........|...........|...........|...........|...........|...........|...........|...........|...........
|...........|...........|...........|...........|...........|...........|...........|...........|...........|...........|...........|...........|...........|...........|...........|...........|...........|...........|...........|...........|...........|...........|...........|...........|...........|...........|...........|...........
|...........|...........|...........|...........|...........|...........|...........|...........|...........|...........|...........|...........|...........|...........|...........|...........|...........|...........|...........|...........|...........|...........|...........|...........|...........|...........|...........|...........
|...........|...........|...........|...........|...........|...........|...........|...........|...........|...........|...........|...........|...........|...........|...........|...........|...........|^^^........|...........|...........|...........|...........|...........|...........|...........|...........|...........|...........
|...........|...........|...........|...........|...........|...........|...........|...........|...........|...........|...........|...........|...........|...........|...........|...........|...........|...........|...........|...........|...........|...........|...........|...........|...........|...........|...........|...........
|...........|...........|...........|...........|...........|...........|...........|...........|...........|...........|...........|...........|...........|...........|...........|...........|...........|...........|...........|...........|...........|...........|...........|...........|...........|...........|...........|...........
|...........|...........|...........|...........|...........|...........|...........|...........|...........|...........|...........|...........|...........|...........|...........|...........|...........|...........|...........|...........|...........|...........|...........|...........|...........|...........|...........|...........
|...........|...........|...........|...........|...........|...........|...........|...........|...........|...........|G-404......|C-503......|...........|...........|...........|...........|B-611......|A-510......|F#511......|...........|...........|...........|...........|...........|...........|...........|...........|...........
|...........|...........|...........|...........|...........|...........|...........|...........|...........|...........|...........|...........|...........|...........|...........|...........|...........|...........|...........|...........|...........|...........|...........|...........|...........|...........|...........|...........
|...........|...........|...........|...........|...........|...........|...........|...........|...........|...........|...........|...........|...........|...........|...........|...........|...........|...........|...........|...........|...........|...........|...........|...........|...........|...........|...........|...........
|...........|...........|...........|...........|...........|...........|...........|...........|...........|...........|...........|...........|...........|...........|...........|...........|...........|...........|...........|...........|...........|...........|...........|...........|...........|...........|...........|...........
|...........|...........|...........|...........|...........|...........|...........|...........|...........|...........|...........|...........|...........|...........|...........|...........|^^^........|^^^........|^^^........|...........|...........|...........|...........|...........|...........|...........|...........|...........
|...........|...........|...........|...........|...........|...........|...........|...........|...........|...........|C-403......|...........|...........|...........|...........|...........|...........|...........|...........|...........|...........|...........|...........|...........|...........|...........|...........|...........
|...........|...........|...........|...........|...........|...........|...........|...........|...........|...........|...........|...........|...........|...........|...........|...........|...........|...........|...........|...........|...........|...........|...........|...........|...........|...........|...........|...........
|...........|...........|...........|...........|...........|...........|...........|...........|...........|...........|...........|...........|...........|...........|...........|...........|...........|...........|...........|...........|...........|...........|...........|...........|...........|...........|...........|...........
|...........|C#302......|G#405......|E-405......|B-305......|B-405......|...........|...........|...........|...........|...........|C-403......|...........|...........|...........|...........|B-511......|...........|G-511......|...........|...........|...........|...........|...........|...........|...........|...........|...........
|...........|...........|...........|...........|...........|...........|...........|...........|...........|...........|...........|...........|...........|...........|...........|...........|...........|...........|...........|...........|...........|...........|...........|...........|...........|...........|...........|...........
|...........|...........|...........|...........|...........|...........|...........|...........|...........|...........|...........|...........|...........|...........|...........|...........|...........|...........|........F08|...........|...........|...........|...........|...........|...........|...........|...........|...........
|...........|...........|...........|...........|...........|...........|...........|...........|...........|...........|...........|...........|...........|...........|...........|...........|...........|...........|...........|...........|...........|...........|...........|...........|...........|...........|...........|...........
|...........|...........|...........|...........|...........|...........|...........|...........|...........|...........|...........|...........|...........|...........|...........|...........|...........|...........|...........|...........|...........|...........|...........|...........|...........|...........|...........|...........
|...........|...........|...........|...........|...........|...........|...........|...........|...........|...........|...........|...........|...........|...........|...........|...........|C#611......|...........|...........|...........|...........|...........|...........|...........|...........|...........|...........|...........
|...........|...........|...........|...........|...........|...........|...........|...........|...........|...........|...........|...........|...........|...........|...........|...........|...........|...........|...........|...........|...........|...........|...........|...........|...........|...........|...........|...........
|...........|...........|...........|...........|...........|...........|...........|...........|...........|...........|...........|...........|...........|...........|...........|...........|...........|...........|...........|...........|...........|...........|...........|...........|...........|...........|...........|...........
|...........|...........|...........|...........|...........|...........|...........|...........|...........|...........|C-503......|G-404......|...........|...........|...........|...........|E-611......|G#510......|...........|...........|...........|...........|...........|...........|...........|...........|...........|...........
|...........|...........|...........|...........|...........|...........|...........|...........|...........|...........|...........|...........|...........|...........|...........|...........|...........|...........|...........|...........|...........|...........|...........|...........|...........|...........|...........|...........
|...........|...........|...........|...........|...........|...........|...........|...........|...........|...........|...........|...........|...........|...........|...........|...........|...........|...........|...........|...........|...........|...........|...........|...........|...........|...........|...........|...........
|...........|...........|...........|...........|...........|...........|...........|...........|...........|...........|...........|...........|...........|...........|...........|...........|...........|...........|...........|...........|...........|...........|...........|...........|...........|...........|...........|...........
|...........|...........|...........|...........|...........|...........|...........|...........|...........|...........|...........|...........|...........|...........|...........|...........|...........|...........|...........|...........|...........|...........|...........|...........|...........|...........|...........|...........
|...........|...........|...........|...........|...........|...........|...........|...........|...........|...........|...........|C-403......|...........|...........|...........|...........|C#611......|...........|...........|...........|...........|...........|...........|...........|...........|...........|...........|...........
|...........|...........|...........|...........|...........|...........|...........|...........|...........|...........|...........|...........|...........|...........|...........|...........|...........|...........|...........|...........|...........|...........|...........|...........|...........|...........|...........|...........
|...........|...........|...........|...........|...........|...........|...........|...........|...........|...........|...........|...........|...........|...........|...........|...........|...........|...........|...........|...........|...........|...........|...........|...........|...........|...........|...........|...........
|...........|F#202......|A-405......|E-405......|C#405......|C#505......|...........|...........|...........|...........|C-403......|...........|...........|...........|...........|...........|...........|A-510......|A-511......|...........|...........|...........|...........|...........|...........|...........|...........|...........
|...........|...........|...........|...........|...........|...........|...........|...........|...........|...........|...........|...........|...........|...........|...........|...........|...........|...........|...........|...........|...........|...........|...........|...........|...........|...........|...........|...........
|...........|...........|...........|...........|...........|...........|...........|...........|...........|...........|...........|...........|...........|...........|...........|...........|...........|...........|...........|...........|...........|...........|...........|...........|...........|...........|...........|...........
|...........|...........|...........|...........|...........|...........|...........|...........|...........|...........|...........|...........|...........|...........|...........|...........|...........|...........|...........|...........|...........|...........|...........|...........|...........|...........|...........|...........
|...........|...........|...........|...........|...........|...........|...........|...........|...........|...........|...........|...........|...........|...........|...........|...........|...........|^^^........|...........|...........|...........|...........|...........|...........|...........|...........|...........|...........
|...........|...........|...........|...........|...........|...........|...........|...........|...........|...........|...........|...........|...........|...........|...........|...........|...........|...........|...........|...........|...........|...........|...........|...........|...........|...........|...........|...........
|...........|...........|...........|...........|...........|...........|...........|...........|...........|...........|...........|...........|...........|...........|...........|...........|...........|...........|...........|...........|...........|...........|...........|...........|...........|...........|...........|...........
|...........|...........|...........|...........|...........|...........|...........|...........|...........|...........|...........|...........|...........|...........|...........|...........|...........|...........|...........|...........|...........|...........|...........|...........|...........|...........|...........|...........
|...........|...........|...........|...........|...........|...........|...........|...........|...........|...........|G-404......|C-503......|...........|...........|...........|...........|C#711......|F#610......|...........|...........|...........|...........|...........|...........|...........|...........|...........|...........
|...........|...........|...........|...........|...........|...........|...........|...........|...........|...........|...........|...........|...........|...........|...........|...........|...........|...........|...........|...........|...........|...........|...........|...........|...........|...........|...........|...........
|...........|...........|...........|...........|...........|...........|...........|...........|...........|...........|...........|...........|...........|...........|...........|...........|...........|........E10|...........|...........|...........|...........|...........|...........|...........|...........|...........|...........
|...........|...........|...........|...........|...........|...........|...........|...........|...........|...........|...........|...........|...........|...........|...........|...........|^^^........|...........|...........|...........|...........|...........|...........|...........|...........|...........|...........|...........
|...........|...........|...........|...........|...........|...........|...........|...........|...........|...........|...........|...........|...........|...........|...........|...........|...........|...........|...........|...........|...........|...........|...........|...........|...........|...........|...........|...........
|...........|...........|...........|...........|...........|...........|...........|...........|...........|...........|C-403......|...........|...........|...........|...........|...........|...........|...........|B-511......|...........|...........|...........|...........|...........|...........|...........|...........|...........
|...........|...........|...........|...........|...........|...........|...........|...........|...........|...........|...........|...........|...........|...........|...........|...........|...........|...........|...........|...........|...........|...........|...........|...........|...........|...........|...........|...........
|...........|...........|...........|...........|...........|...........|...........|...........|...........|...........|...........|...........|...........|...........|...........|...........|...........|...........|...........|...........|...........|...........|...........|...........|...........|...........|...........|...........
Rows: 64
|...........|B-202......|B-405......|G#405......|D#405......|A-305......|...........|...........|...........|...........|...........|C-403......|...........|...........|...........|...........|G#611......|...........|...........|...........|...........|...........|...........|...........|...........|...........|...........|...........
|...........|...........|...........|...........|...........|...........|...........|...........|...........|...........|...........|...........|...........|...........|...........|...........|...........|...........|...........|...........|...........|...........|...........|...........|...........|...........|...........|...........
|...........|...........|...........|...........|...........|...........|...........|...........|...........|...........|...........|...........|...........|...........|...........|...........|...........|...........|...........|...........|...........|...........|...........|...........|...........|...........|...........|...........
|...........|...........|...........|...........|...........|...........|...........|...........|...........|...........|...........|...........|...........|...........|...........|...........|...........|...........|...........|...........|...........|...........|...........|...........|...........|...........|...........|...........
|...........|...........|...........|...........|...........|...........|...........|...........|...........|...........|...........|...........|...........|...........|...........|...........|...........|...........|...........|...........|...........|...........|...........|...........|...........|...........|...........|...........
|...........|...........|...........|...........|...........|...........|...........|...........|...........|...........|...........|...........|...........|...........|...........|...........|F#611......|...........|...........|...........|...........|...........|...........|...........|...........|...........|...........|...........
|...........|...........|...........|...........|...........|...........|...........|...........|...........|...........|...........|...........|...........|...........|...........|...........|...........|...........|...........|...........|...........|...........|...........|...........|...........|...........|...........|...........
|...........|...........|...........|...........|...........|...........|...........|...........|...........|...........|...........|...........|...........|...........|...........|...........|...........|...........|...........|...........|...........|...........|...........|...........|...........|...........|...........|...........
|...........|...........|...........|...........|...........|...........|...........|...........|...........|...........|C-503......|G-404......|...........|...........|...........|...........|G#611......|D#610......|...........|...........|...........|...........|...........|...........|...........|...........|...........|...........
|...........|...........|...........|...........|...........|...........|...........|...........|...........|...........|...........|...........|...........|...........|...........|...........|...........|...........|...........|...........|...........|...........|...........|...........|...........|...........|...........|...........
|...........|...........|...........|...........|...........|...........|...........|...........|...........|...........|...........|...........|...........|...........|...........|...........|...........|...........|...........|...........|...........|...........|...........|...........|...........|...........|...........|...........
|...........|...........|...........|...........|...........|...........|...........|...........|...........|...........|...........|...........|...........|...........|...........|...........|...........|...........|...........|...........|...........|...........|...........|...........|...........|...........|...........|...........
|...........|...........|...........|...........|...........|...........|...........|...........|...........|...........|...........|...........|...........|...........|...........|...........|...........|^^^........|...........|...........|...........|...........|...........|...........|...........|...........|...........|...........
|...........|...........|...........|...........|...........|...........|...........|...........|...........|...........|...........|C-403......|...........|...........|...........|...........|F#611......|...........|...........|...........|...........|...........|...........|...........|...........|...........|...........|...........
|...........|...........|...........|...........|...........|...........|...........|...........|...........|...........|...........|...........|...........|...........|...........|...........|...........|...........|...........|...........|...........|...........|...........|...........|...........|...........|...........|...........
|...........|...........|...........|...........|...........|...........|...........|...........|...........|...........|...........|...........|...........|...........|...........|...........|...........|...........|...........|...........|...........|...........|...........|...........|...........|...........|...........|...........
|...........|F#302......|...........|...........|...........|...........|...........|...........|...........|...........|C-403......|...........|...........|...........|...........|...........|...........|C#610......|...........|...........|...........|...........|...........|...........|...........|...........|...........|...........
|...........|...........|...........|...........|...........|...........|...........|...........|...........|...........|...........|...........|...........|...........|...........|...........|...........|...........|...........|...........|...........|...........|...........|...........|...........|...........|...........|...........
|...........|...........|...........|...........|...........|...........|...........|...........|...........|...........|...........|...........|...........|...........|...........|...........|...........|...........|...........|...........|...........|...........|...........|...........|...........|...........|...........|...........
|...........|...........|...........|...........|...........|...........|...........|...........|...........|...........|...........|...........|...........|...........|...........|...........|...........|...........|...........|...........|...........|...........|...........|...........|...........|...........|...........|...........
|...........|...........|...........|...........|...........|...........|...........|...........|...........|...........|...........|...........|...........|...........|...........|...........|...........|...........|...........|...........|...........|...........|...........|...........|...........|...........|...........|...........
|...........|...........|...........|...........|...........|...........|...........|...........|...........|...........|...........|...........|...........|...........|...........|...........|...........|B-510......|...........|...........|...........|...........|...........|...........|...........|...........|...........|...........
|...........|...........|...........|...........|...........|...........|...........|...........|...........|...........|...........|...........|...........|...........|...........|...........|...........|...........|...........|...........|...........|...........|...........|...........|...........|...........|...........|...........
|...........|...........|...........|...........|...........|...........|...........|...........|...........|...........|...........|...........|...........|...........|...........|...........|...........|...........|...........|...........|...........|...........|...........|...........|...........|...........|...........|...........
|...........|...........|...........|...........|...........|...........|...........|...........|...........|...........|G-404......|C-503......|...........|...........|...........|...........|C#711......|^^^........|...........|...........|...........|...........|...........|...........|...........|...........|...........|...........
|...........|...........|...........|...........|...........|...........|...........|...........|...........|...........|...........|...........|...........|...........|...........|...........|...........|...........|...........|...........|...........|...........|...........|...........|...........|...........|...........|...........
|...........|...........|...........|...........|...........|...........|...........|...........|...........|...........|...........|...........|...........|...........|...........|...........|........F10|...........|...........|...........|...........|...........|...........|...........|...........|...........|...........|...........
|...........|...........|...........|...........|...........|...........|...........|...........|...........|...........|...........|...........|...........|...........|...........|...........|...........|...........|...........|...........|...........|...........|...........|...........|...........|...........|...........|...........
|...........|...........|...........|...........|...........|...........|...........|...........|...........|...........|...........|...........|...........|...........|...........|...........|...........|...........|...........|...........|...........|...........|...........|...........|...........|...........|...........|...........
|...........|...........|...........|...........|...........|...........|...........|...........|...........|...........|C-403......|...........|...........|...........|...........|...........|........E10|G#610......|...........|...........|...........|...........|...........|...........|...........|...........|...........|...........
|...........|...........|...........|...........|...........|...........|...........|...........|...........|...........|...........|...........|...........|...........|...........|...........|...........|...........|...........|...........|...........|...........|...........|...........|...........|...........|...........|...........
|...........|...........|...........|...........|...........|...........|...........|...........|...........|...........|...........|...........|...........|...........|...........|...........|...........|........E10|...........|...........|...........|...........|...........|...........|...........|...........|...........|...........
|...........|B-202......|...........|...........|...........|...........|...........|...........|...........|...........|...........|C-403......|...........|...........|...........|...........|...........|...........|...........|...........|...........|...........|...........|...........|...........|...........|...........|...........
|...........|...........|...........|...........|...........|...........|...........|...........|...........|...........|...........|...........|...........|...........|...........|...........|...........|...........|...........|...........|...........|...........|...........|...........|...........|...........|...........|...........
|...........|...........|...........|...........|...........|...........|...........|...........|...........|...........|...........|...........|...........|...........|...........|...........|...........|...........|...........|...........|...........|...........|...........|...........|...........|...........|...........|...........
|...........|...........|...........|...........|...........|...........|...........|...........|...........|...........|...........|...........|...........|...........|...........|...........|...........|...........|...........|...........|...........|...........|...........|...........|...........|...........|...........|...........
|...........|...........|...........|...........|...........|...........|...........|...........|...........|...........|...........|...........|...........|...........|...........|...........|...........|...........|...........|...........|...........|...........|...........|...........|...........|...........|...........|...........
|...........|...........|...........|...........|...........|...........|...........|...........|...........|...........|...........|...........|...........|...........|...........|...........|B-611......|...........|...........|...........|...........|...........|...........|...........|...........|...........|...........|...........
|...........|...........|...........|...........|...........|...........|...........|...........|...........|...........|...........|...........|...........|...........|...........|...........|...........|...........|...........|...........|...........|...........|...........|...........|...........|...........|...........|...........
|...........|...........|...........|...........|...........|...........|...........|...........|...........|...........|...........|...........|...........|...........|...........|...........|...........|...........|...........|...........|...........|...........|...........|...........|...........|...........|...........|...........
|...........|...........|...........|...........|...........|...........|...........|...........|...........|...........|C-503......|G-404......|...........|...........|...........|...........|G#611......|C#610......|...........|...........|...........|...........|...........|...........|...........|...........|...........|...........
|...........|...........|...........|...........|...........|...........|...........|...........|...........|...........|...........|...........|...........|...........|...........|...........|...........|...........|...........|...........|...........|...........|...........|...........|...........|...........|...........|...........
|...........|...........|...........|...........|...........|...........|...........|...........|...........|...........|...........|...........|...........|...........|...........|...........|...........|........F10|...........|...........|...........|...........|...........|...........|...........|...........|...........|...........
|...........|...........|...........|...........|...........|...........|...........|...........|...........|...........|...........|...........|...........|...........|...........|...........|...........|...........|...........|...........|...........|...........|...........|...........|...........|...........|...........|...........
|...........|...........|...........|...........|...........|...........|...........|...........|...........|...........|...........|...........|...........|...........|...........|...........|...........|^^^........|...........|...........|...........|...........|...........|...........|...........|...........|...........|...........
|...........|...........|...........|...........|...........|...........|...........|...........|...........|...........|...........|C-403......|...........|...........|...........|...........|F#611......|...........|...........|...........|...........|...........|...........|...........|...........|...........|...........|...........
|...........|...........|...........|...........|...........|...........|...........|...........|...........|...........|...........|...........|...........|...........|...........|...........|...........|...........|...........|...........|...........|...........|...........|...........|...........|...........|...........|...........
|...........|...........|...........|...........|...........|...........|...........|...........|...........|...........|...........|...........|...........|...........|...........|...........|...........|...........|...........|...........|...........|...........|...........|...........|...........|...........|...........|...........
|...........|F#302......|...........|...........|...........|...........|...........|...........|...........|...........|C-403......|...........|...........|...........|...........|...........|...........|...........|...........|...........|...........|...........|...........|...........|...........|...........|...........|...........
|...........|...........|...........|...........|...........|...........|...........|...........|...........|...........|...........|...........|...........|...........|...........|...........|...........|...........|...........|...........|...........|...........|...........|...........|...........|...........|...........|...........
|...........|...........|...........|...........|...........|...........|...........|...........|...........|...........|...........|...........|...........|...........|...........|...........|...........|...........|...........|...........|...........|...........|...........|...........|...........|...........|...........|...........
|...........|...........|...........|...........|...........|...........|...........|...........|...........|...........|...........|...........|...........|...........|...........|...........|...........|...........|...........|...........|...........|...........|...........|...........|...........|...........|...........|...........
|...........|...........|...........|...........|...........|...........|...........|...........|...........|...........|...........|...........|...........|...........|...........|...........|...........|...........|...........|...........|...........|...........|...........|...........|...........|...........|...........|...........
|...........|...........|...........|...........|...........|...........|...........|...........|...........|...........|...........|...........|...........|...........|...........|...........|...........|C#610......|...........|...........|...........|...........|...........|...........|...........|...........|...........|...........
|...........|...........|...........|...........|...........|...........|...........|...........|...........|...........|...........|...........|...........|...........|...........|...........|...........|...........|...........|...........|...........|...........|...........|...........|...........|...........|...........|...........
|...........|...........|...........|...........|...........|...........|...........|...........|...........|...........|...........|...........|...........|...........|...........|...........|...........|...........|...........|...........|...........|...........|...........|...........|...........|...........|...........|...........
|...........|...........|...........|...........|...........|...........|...........|...........|...........|...........|G-404......|C-503......|...........|...........|...........|...........|G#611......|B-510......|...........|...........|...........|...........|...........|...........|...........|...........|...........|...........
|...........|...........|...........|...........|...........|...........|...........|...........|...........|...........|...........|...........|...........|...........|...........|...........|...........|...........|...........|...........|...........|...........|...........|...........|...........|...........|...........|...........
|...........|...........|...........|...........|...........|...........|...........|...........|...........|...........|...........|...........|...........|...........|...........|...........|...........|...........|...........|...........|...........|...........|...........|...........|...........|...........|...........|...........
|...........|...........|...........|...........|...........|...........|...........|...........|...........|...........|...........|...........|...........|...........|...........|...........|...........|^^^........|...........|...........|...........|...........|...........|...........|...........|...........|...........|...........
|...........|...........|...........|...........|...........|...........|...........|...........|...........|...........|...........|...........|...........|...........|...........|...........|...........|...........|...........|...........|...........|...........|...........|...........|...........|...........|...........|...........
|...........|...........|...........|...........|...........|...........|...........|...........|...........|...........|C-403......|...........|...........|...........|...........|...........|...........|B-610......|...........|...........|...........|...........|...........|...........|...........|...........|...........|...........
|...........|...........|...........|...........|...........|...........|...........|...........|...........|...........|...........|...........|...........|...........|...........|...........|^^^........|...........|...........|...........|...........|...........|...........|...........|...........|...........|...........|...........
|...........|...........|...........|...........|...........|...........|...........|...........|...........|...........|...........|...........|...........|...........|...........|...........|...........|........E10|...........|...........|...........|...........|...........|...........|...........|...........|...........|...........
Rows: 64
|...........|B-202......|B-405......|D-405......|A-305......|F#405......|...........|...........|...........|...........|...........|C-403......|...........|...........|...........|...........|...........|...........|...........|...........|...........|...........|...........|...........|...........|...........|...........|...........
|...........|...........|...........|...........|...........|...........|...........|...........|...........|...........|...........|...........|...........|...........|...........|...........|...........|...........|...........|...........|...........|...........|...........|...........|...........|...........|...........|...........
|...........|...........|...........|...........|...........|...........|...........|...........|...........|...........|...........|...........|...........|...........|...........|...........|...........|...........|...........|...........|...........|...........|...........|...........|...........|...........|...........|...........
|...........|...........|...........|...........|...........|...........|...........|...........|...........|...........|...........|...........|...........|...........|...........|...........|...........|...........|...........|...........|...........|...........|...........|...........|...........|...........|...........|...........
|...........|...........|...........|...........|...........|...........|...........|...........|...........|...........|...........|...........|...........|...........|...........|...........|...........|...........|...........|...........|...........|...........|...........|...........|...........|...........|...........|...........
|...........|...........|...........|...........|...........|...........|...........|...........|...........|...........|...........|...........|...........|...........|...........|...........|...........|...........|...........|...........|...........|...........|...........|...........|...........|...........|...........|...........
|...........|...........|...........|...........|...........|...........|...........|...........|...........|...........|...........|...........|...........|...........|...........|...........|...........|...........|...........|...........|...........|...........|...........|...........|...........|...........|...........|...........
|...........|...........|...........|...........|...........|...........|...........|...........|...........|...........|...........|...........|...........|...........|...........|...........|...........|...........|...........|...........|...........|...........|...........|...........|...........|...........|...........|...........
|...........|...........|...........|...........|...........|...........|...........|...........|...........|...........|C-503......|G-404......|...........|...........|...........|...........|...........|F#610......|B-511......|...........|...........|...........|...........|...........|...........|...........|...........|...........
|...........|...........|...........|...........|...........|...........|...........|...........|...........|...........|...........|...........|...........|...........|...........|...........|...........|...........|...........|...........|...........|...........|...........|...........|...........|...........|...........|...........
|...........|...........|...........|...........|...........|...........|...........|...........|...........|...........|...........|...........|...........|...........|...........|...........|...........|...........|...........|...........|...........|...........|...........|...........|...........|...........|...........|...........
|...........|...........|...........|...........|...........|...........|...........|...........|...........|...........|...........|...........|...........|...........|...........|...........|...........|...........|...........|...........|...........|...........|...........|...........|...........|...........|...........|...........
|...........|...........|...........|...........|...........|...........|...........|...........|...........|...........|...........|...........|...........|...........|...........|...........|...........|^^^........|...........|...........|...........|...........|...........|...........|...........|...........|...........|...........
|...........|...........|...........|...........|...........|...........|...........|...........|...........|...........|...........|C-403......|...........|...........|...........|...........|...........|...........|...........|...........|...........|...........|...........|...........|...........|...........|...........|...........
|...........|...........|...........|...........|...........|...........|...........|...........|...........|...........|...........|...........|...........|...........|...........|...........|...........|...........|...........|...........|...........|...........|...........|...........|...........|...........|...........|...........
|...........|...........|...........|...........|...........|...........|...........|...........|...........|...........|...........|...........|...........|...........|...........|...........|...........|...........|...........|...........|...........|...........|...........|...........|...........|...........|...........|...........
|...........|F#302......|C#505......|A-405......|E-405......|...........|...........|...........|...........|...........|C-403......|...........|...........|...........|...........|...........|...........|...........|...........|...........|...........|...........|...........|...........|...........|...........|...........|...........
|...........|...........|...........|...........|...........|...........|...........|...........|...........|...........|...........|...........|...........|...........|...........|...........|...........|...........|...........|...........|...........|...........|...........|...........|...........|...........|...........|...........
|...........|...........|...........|...........|...........|...........|...........|...........|...........|...........|...........|...........|...........|...........|...........|...........|...........|...........|...........|...........|...........|...........|...........|...........|...........|...........|...........|...........
|...........|...........|...........|...........|...........|...........|...........|...........|...........|...........|...........|...........|...........|...........|...........|...........|...........|...........|...........|...........|...........|...........|...........|...........|...........|...........|...........|...........
|...........|...........|...........|...........|...........|...........|...........|...........|...........|...........|...........|...........|...........|...........|...........|...........|...........|...........|...........|...........|...........|...........|...........|...........|...........|...........|...........|...........
|...........|...........|...........|...........|...........|...........|...........|...........|...........|...........|...........|...........|...........|...........|...........|...........|F#611......|E-610......|...........|...........|...........|...........|...........|...........|...........|...........|...........|...........
|...........|...........|...........|...........|...........|...........|...........|...........|...........|...........|...........|...........|...........|...........|...........|...........|...........|...........|...........|...........|...........|...........|...........|...........|...........|...........|...........|...........
|...........|...........|...........|...........|...........|...........|...........|...........|...........|...........|...........|...........|...........|...........|...........|...........|...........|...........|...........|...........|...........|...........|...........|...........|...........|...........|...........|...........
|...........|...........|...........|...........|...........|...........|...........|...........|...........|...........|G-404......|C-503......|...........|...........|...........|...........|G#611......|D-610......|C#611......|...........|...........|...........|...........|...........|...........|...........|...........|...........
|...........|...........|...........|...........|...........|...........|...........|...........|...........|...........|...........|...........|...........|...........|...........|...........|...........|...........|...........|...........|...........|...........|...........|...........|...........|...........|...........|...........
|...........|...........|...........|...........|...........|...........|...........|...........|...........|...........|...........|...........|...........|...........|...........|...........|...........|...........|...........|...........|...........|...........|...........|...........|...........|...........|...........|...........
|...........|...........|...........|...........|...........|...........|...........|...........|...........|...........|...........|...........|...........|...........|...........|...........|...........|...........|...........|...........|...........|...........|...........|...........|...........|...........|...........|...........
|...........|...........|...........|...........|...........|...........|...........|...........|...........|...........|...........|...........|...........|...........|...........|...........|...........|...........|^^^........|...........|...........|...........|...........|...........|...........|...........|...........|...........
|...........|...........|...........|...........|...........|...........|...........|...........|...........|...........|C-403......|...........|...........|...........|...........|...........|A-611......|C#610......|...........|...........|...........|...........|...........|...........|...........|...........|...........|...........
|...........|...........|...........|...........|...........|...........|...........|...........|...........|...........|...........|...........|...........|...........|...........|...........|...........|...........|...........|...........|...........|...........|...........|...........|...........|...........|...........|...........
|...........|...........|...........|...........|...........|...........|...........|...........|...........|...........|...........|...........|...........|...........|...........|...........|...........|...........|...........|...........|...........|...........|...........|...........|...........|...........|...........|...........
|...........|B-302......|D-505......|A-405......|F#405......|...........|...........|...........|...........|...........|...........|C-403......|...........|...........|...........|...........|...........|...........|D-611......|...........|...........|...........|...........|...........|...........|...........|...........|...........
|...........|...........|...........|...........|...........|...........|...........|...........|...........|...........|...........|...........|...........|...........|...........|...........|...........|...........|...........|...........|...........|...........|...........|...........|...........|...........|...........|...........
|...........|...........|...........|...........|...........|...........|...........|...........|...........|...........|...........|...........|...........|...........|...........|...........|...........|...........|...........|...........|...........|...........|...........|...........|...........|...........|...........|...........
|...........|...........|...........|...........|...........|...........|...........|...........|...........|...........|...........|...........|...........|...........|...........|...........|...........|...........|...........|...........|...........|...........|...........|...........|...........|...........|...........|...........
|...........|...........|...........|...........|...........|...........|...........|...........|...........|...........|...........|...........|...........|...........|...........|...........|...........|...........|...........|...........|...........|...........|...........|...........|...........|...........|...........|...........
|...........|...........|...........|...........|...........|...........|...........|...........|...........|...........|...........|...........|...........|...........|...........|...........|...........|...........|...........|...........|...........|...........|...........|...........|...........|...........|...........|...........
|...........|...........|...........|...........|...........|...........|...........|...........|...........|...........|...........|...........|...........|...........|...........|...........|...........|...........|...........|...........|...........|...........|...........|...........|...........|...........|...........|...........
|...........|...........|...........|...........|...........|...........|...........|...........|...........|...........|...........|...........|...........|...........|...........|...........|...........|...........|...........|...........|...........|...........|...........|...........|...........|...........|...........|...........
|...........|...........|...........|...........|...........|...........|...........|...........|...........|...........|C-503......|G-404......|...........|...........|...........|...........|C#711......|D-610......|...........|...........|...........|...........|...........|...........|...........|...........|...........|...........
|...........|...........|...........|...........|...........|...........|...........|...........|...........|...........|...........|...........|...........|...........|...........|...........|...........|...........|...........|...........|...........|...........|...........|...........|...........|...........|...........|...........
|...........|...........|...........|...........|...........|...........|...........|...........|...........|...........|...........|...........|...........|...........|...........|...........|...........|...........|...........|...........|...........|...........|...........|...........|...........|...........|...........|...........
|...........|...........|...........|...........|...........|...........|...........|...........|...........|...........|...........|...........|...........|...........|...........|...........|^^^........|...........|...........|...........|...........|...........|...........|...........|...........|...........|...........|...........
|...........|...........|...........|...........|...........|...........|...........|...........|...........|...........|...........|...........|...........|...........|...........|...........|...........|^^^........|...........|...........|...........|...........|...........|...........|...........|...........|...........|...........
|...........|...........|...........|...........|...........|...........|...........|...........|...........|...........|...........|C-403......|...........|...........|...........|...........|...........|...........|...........|...........|...........|...........|...........|...........|...........|...........|...........|...........
|...........|...........|...........|...........|...........|...........|...........|...........|...........|...........|...........|...........|...........|...........|...........|...........|...........|...........|...........|...........|...........|...........|...........|...........|...........|...........|...........|...........
|...........|...........|...........|...........|...........|...........|...........|...........|...........|...........|...........|...........|...........|...........|...........|...........|...........|...........|...........|...........|...........|...........|...........|...........|...........|...........|...........|...........
|...........|E-302......|E-505......|D-405......|G#405......|C#505......|...........|...........|...........|...........|C-403......|...........|...........|...........|...........|...........|E-611......|...........|E-611......|...........|...........|...........|...........|...........|...........|...........|...........|...........
|...........|...........|...........|...........|...........|...........|...........|...........|...........|...........|...........|...........|...........|...........|...........|...........|...........|...........|...........|...........|...........|...........|...........|...........|...........|...........|...........|...........
|...........|...........|...........|...........|...........|...........|...........|...........|...........|...........|...........|...........|...........|...........|...........|...........|...........|...........|...........|...........|...........|...........|...........|...........|...........|...........|...........|...........
|...........|...........|...........|...........|...........|...........|...........|...........|...........|...........|...........|...........|...........|...........|...........|...........|...........|...........|...........|...........|...........|...........|...........|...........|...........|...........|...........|...........
|...........|...........|...........|...........|...........|...........|...........|...........|...........|...........|...........|...........|...........|...........|...........|...........|...........|...........|...........|...........|...........|...........|...........|...........|...........|...........|...........|...........
|...........|...........|...........|...........|...........|...........|...........|...........|...........|...........|...........|...........|...........|...........|...........|...........|........F10|A-610......|...........|...........|...........|...........|...........|...........|...........|...........|...........|...........
|...........|...........|...........|...........|...........|...........|...........|...........|...........|...........|...........|...........|...........|...........|...........|...........|...........|...........|...........|...........|...........|...........|...........|...........|...........|...........|...........|...........
|...........|...........|...........|...........|...........|...........|...........|...........|...........|...........|...........|...........|...........|...........|...........|...........|...........|...........|...........|...........|...........|...........|...........|...........|...........|...........|...........|...........
|...........|...........|...........|...........|...........|...........|...........|...........|...........|...........|G-404......|C-503......|...........|...........|...........|...........|E-711......|........F10|...........|...........|...........|...........|...........|...........|...........|...........|...........|...........
|...........|...........|...........|...........|...........|...........|...........|...........|...........|...........|...........|...........|...........|...........|...........|...........|...........|...........|...........|...........|...........|...........|...........|...........|...........|...........|...........|...........
|...........|...........|...........|...........|...........|...........|...........|...........|...........|...........|...........|...........|...........|...........|...........|...........|........F10|...........|...........|...........|...........|...........|...........|...........|...........|...........|...........|...........
|...........|...........|...........|...........|...........|...........|...........|...........|...........|...........|...........|...........|...........|...........|...........|...........|...........|...........|...........|...........|...........|...........|...........|...........|...........|...........|...........|...........
|...........|...........|...........|...........|...........|...........|...........|...........|...........|...........|...........|...........|...........|...........|...........|...........|...........|...........|...........|...........|...........|...........|...........|...........|...........|...........|...........|...........
|...........|...........|...........|...........|...........|...........|...........|...........|...........|...........|C-403......|...........|...........|...........|...........|...........|........E10|........E10|E-611......|...........|...........|...........|...........|...........|...........|...........|...........|...........
|...........|...........|...........|...........|...........|...........|...........|...........|...........|...........|...........|...........|...........|...........|...........|...........|...........|...........|........F10|...........|...........|...........|...........|...........|...........|...........|...........|...........
|...........|...........|...........|...........|...........|...........|...........|...........|...........|...........|...........|...........|...........|...........|...........|...........|...........|...........|...........|...........|...........|...........|...........|...........|...........|...........|...........|...........
Rows: 64
|...........|E-402......|F#505......|B-405......|G-405......|D-405......|...........|...........|...........|...........|...........|C-403......|...........|...........|...........|...........|...........|...........|...........|...........|...........|...........|...........|...........|...........|...........|...........|...........
|...........|...........|...........|...........|...........|...........|...........|...........|...........|...........|...........|...........|...........|...........|...........|...........|...........|...........|...........|...........|...........|...........|...........|...........|...........|...........|...........|...........
|...........|...........|...........|...........|...........|...........|...........|...........|...........|...........|...........|...........|...........|...........|...........|...........|...........|...........|...........|...........|...........|...........|...........|...........|...........|...........|...........|...........
|...........|...........|...........|...........|...........|...........|...........|...........|...........|...........|...........|...........|...........|...........|...........|...........|...........|...........|...........|...........|...........|...........|...........|...........|...........|...........|...........|...........
|...........|...........|...........|...........|...........|...........|...........|...........|...........|...........|...........|...........|...........|...........|...........|...........|...........|...........|...........|...........|...........|...........|...........|...........|...........|...........|...........|...........
|...........|...........|...........|...........|...........|...........|...........|...........|...........|...........|...........|...........|...........|...........|...........|...........|...........|...........|...........|...........|...........|...........|...........|...........|...........|...........|...........|...........
|...........|...........|...........|...........|...........|...........|...........|...........|...........|...........|...........|...........|...........|...........|...........|...........|...........|...........|...........|...........|...........|...........|...........|...........|...........|...........|...........|...........
|...........|...........|...........|...........|...........|...........|...........|...........|...........|...........|...........|...........|...........|...........|...........|...........|...........|...........|...........|...........|...........|...........|...........|...........|...........|...........|...........|...........
|...........|...........|...........|...........|...........|...........|...........|...........|...........|...........|C-503......|G-404......|...........|...........|...........|...........|D-711......|F#610......|...........|...........|...........|...........|...........|...........|...........|...........|...........|...........
|...........|...........|...........|...........|...........|...........|...........|...........|...........|...........|...........|...........|...........|...........|...........|...........|...........|...........|...........|...........|...........|...........|...........|...........|...........|...........|...........|...........
|...........|...........|...........|...........|...........|...........|...........|...........|...........|...........|...........|...........|...........|...........|...........|...........|C#711...SD2|...........|...........|...........|...........|...........|...........|...........|...........|...........|...........|...........
|...........|...........|...........|...........|...........|...........|...........|...........|...........|...........|...........|...........|...........|...........|...........|...........|...........|...........|...........|...........|...........|...........|...........|...........|...........|...........|...........|...........
|...........|...........|...........|...........|...........|...........|...........|...........|...........|...........|...........|...........|...........|...........|...........|...........|...........|^^^........|...........|...........|...........|...........|...........|...........|...........|...........|...........|...........
|...........|...........|...........|...........|...........|...........|...........|...........|...........|...........|...........|C-403......|...........|...........|...........|...........|B-611...SD1|...........|...........|...........|...........|...........|...........|...........|...........|...........|...........|...........
|...........|...........|...........|...........|...........|...........|...........|...........|...........|...........|...........|...........|...........|...........|...........|...........|...........|...........|...........|...........|...........|...........|...........|...........|...........|...........|...........|...........
|...........|...........|...........|...........|...........|...........|...........|...........|...........|...........|...........|...........|...........|...........|...........|...........|...........|...........|...........|...........|...........|...........|...........|...........|...........|...........|...........|...........
|...........|E-302......|...........|...........|...........|...........|...........|...........|...........|...........|C-403......|...........|...........|...........|...........|...........|A-611......|D-610......|...........|...........|...........|...........|...........|...........|...........|...........|...........|...........
|...........|...........|...........|...........|...........|...........|...........|...........|...........|...........|...........|...........|...........|...........|...........|...........|...........|...........|...........|...........|...........|...........|...........|...........|...........|...........|...........|...........
|...........|...........|...........|...........|...........|...........|...........|...........|...........|...........|...........|...........|...........|...........|...........|...........|...........|...........|...........|...........|...........|...........|...........|...........|...........|...........|...........|...........
|...........|...........|...........|...........|...........|...........|...........|...........|...........|...........|...........|...........|...........|...........|...........|...........|...........|...........|...........|...........|...........|...........|...........|...........|...........|...........|...........|...........
|...........|...........|...........|...........|...........|...........|...........|...........|...........|...........|...........|...........|...........|...........|...........|...........|...........|...........|...........|...........|...........|...........|...........|...........|...........|...........|...........|...........
|...........|...........|...........|...........|...........|...........|...........|...........|...........|...........|...........|...........|...........|...........|...........|...........|...........|B-510......|...........|...........|...........|...........|...........|...........|...........|...........|...........|...........
|...........|...........|...........|...........|...........|...........|...........|...........|...........|...........|...........|...........|...........|...........|...........|...........|...........|...........|...........|...........|...........|...........|...........|...........|...........|...........|...........|...........
|...........|...........|...........|...........|...........|...........|...........|...........|...........|...........|...........|...........|...........|...........|...........|...........|...........|...........|...........|...........|...........|...........|...........|...........|...........|...........|...........|...........
|...........|...........|...........|...........|...........|...........|...........|...........|...........|...........|G-404......|C-503......|...........|...........|...........|...........|B-611......|^^^........|...........|...........|...........|...........|...........|...........|...........|...........|...........|...........
|...........|...........|...........|...........|...........|...........|...........|...........|...........|...........|...........|...........|...........|...........|...........|...........|........F10|...........|...........|...........|...........|...........|...........|...........|...........|...........|...........|...........
|...........|...........|...........|...........|...........|...........|...........|...........|...........|...........|...........|...........|...........|...........|...........|...........|...........|...........|...........|...........|...........|...........|...........|...........|...........|...........|...........|...........
|...........|...........|...........|...........|...........|...........|...........|...........|...........|...........|...........|...........|...........|...........|...........|...........|...........|...........|...........|...........|...........|...........|...........|...........|...........|...........|...........|...........
|...........|...........|...........|...........|...........|...........|...........|...........|...........|...........|...........|...........|...........|...........|...........|...........|^^^........|...........|...........|...........|...........|...........|...........|...........|...........|...........|...........|...........
|...........|...........|...........|...........|...........|...........|...........|...........|...........|...........|C-403......|...........|...........|...........|...........|...........|...........|F#510......|...........|...........|...........|...........|...........|...........|...........|...........|...........|...........
|...........|...........|...........|...........|...........|...........|...........|...........|...........|...........|...........|...........|...........|...........|...........|...........|...........|...........|...........|...........|...........|...........|...........|...........|...........|...........|...........|...........
|...........|...........|...........|...........|...........|...........|...........|...........|...........|...........|...........|...........|...........|...........|...........|...........|...........|...........|...........|...........|...........|...........|...........|...........|...........|...........|...........|...........
|...........|A-302......|B-405......|F#405......|D-405......|G-305......|...........|...........|...........|...........|...........|C-403......|...........|...........|...........|...........|F#611......|G-510......|B-511......|...........|...........|...........|...........|...........|...........|...........|...........|...........
|...........|...........|...........|...........|...........|...........|...........|...........|...........|...........|...........|...........|...........|...........|...........|...........|...........|...........|...........|...........|...........|...........|...........|...........|...........|...........|...........|...........
|...........|...........|...........|...........|...........|...........|...........|...........|...........|...........|...........|...........|...........|...........|...........|...........|...........|...........|...........|...........|...........|...........|...........|...........|...........|...........|...........|...........
|...........|...........|...........|...........|...........|...........|...........|...........|...........|...........|...........|...........|...........|...........|...........|...........|...........|...........|...........|...........|...........|...........|...........|...........|...........|...........|...........|...........
|...........|...........|...........|...........|...........|...........|...........|...........|...........|...........|...........|...........|...........|...........|...........|...........|...........|...........|...........|...........|...........|...........|...........|...........|...........|...........|...........|...........
|...........|...........|...........|...........|...........|...........|...........|...........|...........|...........|...........|...........|...........|...........|...........|...........|...........|A-510......|...........|...........|...........|...........|...........|...........|...........|...........|...........|...........
|...........|...........|...........|...........|...........|...........|...........|...........|...........|...........|...........|...........|...........|...........|...........|...........|...........|...........|...........|...........|...........|...........|...........|...........|...........|...........|...........|...........
|...........|...........|...........|...........|...........|...........|...........|...........|...........|...........|...........|...........|...........|...........|...........|...........|...........|...........|...........|...........|...........|...........|...........|...........|...........|...........|...........|...........
|...........|...........|...........|...........|...........|...........|...........|...........|...........|...........|C-503......|G-404......|...........|...........|...........|...........|B-611......|B-510......|...........|...........|...........|...........|...........|...........|...........|...........|...........|...........
|...........|...........|...........|...........|...........|...........|...........|...........|...........|...........|...........|...........|...........|...........|...........|...........|...........|...........|...........|...........|...........|...........|...........|...........|...........|...........|...........|...........
|...........|...........|...........|...........|...........|...........|...........|...........|...........|...........|...........|...........|...........|...........|...........|...........|...........|...........|...........|...........|...........|...........|...........|...........|...........|...........|...........|...........
|...........|...........|...........|...........|...........|...........|...........|...........|...........|...........|...........|...........|...........|...........|...........|...........|^^^........|...........|...........|...........|...........|...........|...........|...........|...........|...........|...........|...........
|...........|...........|...........|...........|...........|...........|...........|...........|...........|...........|...........|...........|...........|...........|...........|...........|...........|...........|...........|...........|...........|...........|...........|...........|...........|...........|...........|...........
|...........|...........|...........|...........|...........|...........|...........|...........|...........|...........|...........|C-403......|...........|...........|...........|...........|...........|C#610......|...........|...........|...........|...........|...........|...........|...........|...........|...........|...........
|...........|...........|...........|...........|...........|...........|...........|...........|...........|...........|...........|...........|...........|...........|...........|...........|...........|...........|...........|...........|...........|...........|...........|...........|...........|...........|...........|...........
|...........|...........|...........|...........|...........|...........|...........|...........|...........|...........|...........|...........|...........|...........|...........|...........|...........|...........|...........|...........|...........|...........|...........|...........|...........|...........|...........|...........
|...........|A-202......|E-505......|B-405......|F#405......|C#405......|G-305......|...........|...........|...........|C-403......|...........|...........|...........|...........|...........|...........|...........|E-611......|...........|...........|...........|...........|...........|...........|...........|...........|...........
|...........|...........|...........|...........|...........|...........|...........|...........|...........|...........|...........|...........|...........|...........|...........|...........|...........|...........|...........|...........|...........|...........|...........|...........|...........|...........|...........|...........
|...........|...........|...........|...........|...........|...........|...........|...........|...........|...........|...........|...........|...........|...........|...........|...........|...........|...........|...........|...........|...........|...........|...........|...........|...........|...........|...........|...........
|...........|...........|...........|...........|...........|...........|...........|...........|...........|...........|...........|...........|...........|...........|...........|...........|...........|...........|...........|...........|...........|...........|...........|...........|...........|...........|...........|...........
|...........|...........|...........|...........|...........|...........|...........|...........|...........|...........|...........|...........|...........|...........|...........|...........|...........|...........|...........|...........|...........|...........|...........|...........|...........|...........|...........|...........
|...........|...........|...........|...........|...........|...........|...........|...........|...........|...........|...........|...........|...........|...........|...........|...........|...........|D-610......|...........|...........|...........|...........|...........|...........|...........|...........|...........|...........
|...........|...........|...........|...........|...........|...........|...........|...........|...........|...........|...........|...........|...........|...........|...........|...........|...........|...........|...........|...........|...........|...........|...........|...........|...........|...........|...........|...........
|...........|...........|...........|...........|...........|...........|...........|...........|...........|...........|...........|...........|...........|...........|...........|...........|...........|...........|...........|...........|...........|...........|...........|...........|...........|...........|...........|...........
|...........|...........|...........|...........|...........|...........|...........|...........|...........|...........|G-404......|C-503......|...........|...........|...........|F-518...M..|A-611......|E-610......|...........|...........|...........|...........|...........|...........|...........|...........|...........|...........
|...........|...........|...........|...........|...........|...........|...........|...........|...........|...........|...........|...........|...........|...........|...........|...........|...........|...........|...........|...........|...........|...........|...........|...........|...........|...........|...........|...........
|...........|...........|...........|...........|...........|...........|...........|...........|...........|...........|...........|...........|...........|...........|...........|...........|...........|...........|...........|...........|...........|...........|...........|...........|...........|...........|...........|...........
|...........|...........|...........|...........|...........|...........|...........|...........|...........|...........|...........|...........|...........|...........|...........|...........|...........|...........|...........|...........|...........|...........|...........|...........|...........|...........|...........|...........
|...........|...........|...........|...........|...........|...........|...........|...........|...........|...........|...........|...........|...........|...........|...........|...........|...........|...........|...........|...........|...........|...........|...........|...........|...........|...........|...........|...........
|...........|...........|...........|...........|...........|...........|...........|...........|...........|...........|C-403......|...........|...........|...........|...........|...........|...........|F#610......|C#611......|...........|...........|...........|...........|...........|...........|...........|...........|...........
|...........|...........|...........|...........|...........|...........|...........|...........|...........|...........|...........|...........|...........|...........|...........|...........|...........|...........|...........|...........|...........|...........|...........|...........|...........|...........|...........|...........
|...........|...........|...........|...........|...........|...........|...........|...........|...........|...........|...........|...........|...........|...........|...........|...........|...........|...........|...........|...........|...........|...........|...........|...........|...........|...........|...........|...........
Rows: 64
|...........|D-302......|C#505......|A-405......|E-405......|B-305......|...........|...........|...........|...........|...........|C-403......|...........|...........|...........|C-519......|...........|...........|...........|...........|...........|...........|...........|...........|...........|...........|...........|...........
|...........|...........|...........|...........|...........|...........|...........|...........|...........|...........|...........|...........|...........|...........|...........|...........|...........|...........|...........|...........|...........|...........|...........|...........|...........|...........|...........|...........
|...........|...........|...........|...........|...........|...........|...........|...........|...........|...........|...........|...........|...........|...........|...........|...........|...........|...........|...........|...........|...........|...........|...........|...........|...........|...........|...........|...........
|...........|...........|...........|...........|...........|...........|...........|...........|...........|...........|...........|...........|...........|...........|...........|...........|...........|...........|...........|...........|...........|...........|...........|...........|...........|...........|...........|...........
|...........|...........|...........|...........|...........|...........|...........|...........|...........|...........|...........|...........|...........|...........|...........|...........|...........|...........|...........|...........|...........|...........|...........|...........|...........|...........|...........|...........
|...........|...........|...........|...........|...........|...........|...........|...........|...........|...........|...........|...........|...........|...........|...........|...........|...........|...........|...........|...........|...........|...........|...........|...........|...........|...........|...........|...........
|...........|...........|...........|...........|...........|...........|...........|...........|...........|...........|...........|...........|...........|...........|...........|...........|...........|...........|...........|...........|...........|...........|...........|...........|...........|...........|...........|...........
|...........|...........|...........|...........|...........|...........|...........|...........|...........|...........|...........|...........|...........|...........|...........|...........|...........|...........|...........|...........|...........|...........|...........|...........|...........|...........|...........|...........
|...........|...........|...........|...........|...........|...........|...........|...........|...........|...........|C-503......|G-404......|...........|...........|...........|...........|...........|A-610......|...........|...........|...........|...........|...........|...........|...........|...........|...........|...........
|...........|...........|...........|...........|...........|...........|...........|...........|...........|...........|...........|...........|...........|...........|...........|...........|...........|...........|...........|...........|...........|...........|...........|...........|...........|...........|...........|...........
|...........|...........|...........|...........|...........|...........|...........|...........|...........|...........|...........|...........|...........|...........|...........|...........|...........|...........|...........|...........|...........|...........|...........|...........|...........|...........|...........|...........
|...........|...........|...........|...........|...........|...........|...........|...........|...........|...........|...........|...........|...........|...........|...........|...........|...........|...........|...........|...........|...........|...........|...........|...........|...........|...........|...........|...........
|...........|...........|...........|...........|...........|...........|...........|...........|...........|...........|...........|...........|...........|...........|...........|...........|...........|^^^........|...........|...........|...........|...........|...........|...........|...........|...........|...........|...........
|...........|...........|...........|...........|...........|...........|...........|...........|...........|...........|...........|C-403......|...........|...........|...........|...........|...........|...........|...........|...........|...........|...........|...........|...........|...........|...........|...........|...........
|...........|...........|...........|...........|...........|...........|...........|...........|...........|...........|...........|...........|...........|...........|...........|...........|...........|...........|...........|...........|...........|...........|...........|...........|...........|...........|...........|...........
|...........|...........|...........|...........|...........|...........|...........|...........|...........|...........|...........|...........|...........|...........|...........|...........|...........|...........|...........|...........|...........|...........|...........|...........|...........|...........|...........|...........
|...........|C#402......|...........|...........|...........|...........|...........|...........|...........|...........|C-403......|...........|...........|...........|...........|...........|...........|A-510......|...........|...........|...........|...........|...........|...........|...........|...........|...........|...........
|...........|...........|...........|...........|...........|...........|...........|...........|...........|...........|...........|...........|...........|...........|...........|...........|...........|...........|...........|...........|...........|...........|...........|...........|...........|...........|...........|...........
|...........|...........|...........|...........|...........|...........|...........|...........|...........|...........|...........|...........|...........|...........|...........|...........|...........|...........|...........|...........|...........|...........|...........|...........|...........|...........|...........|...........
|...........|...........|...........|...........|...........|...........|...........|...........|...........|...........|...........|...........|...........|...........|...........|...........|...........|...........|...........|...........|...........|...........|...........|...........|...........|...........|...........|...........
|...........|...........|...........|...........|...........|...........|...........|...........|...........|...........|...........|...........|...........|...........|...........|...........|...........|^^^........|...........|...........|...........|...........|...........|...........|...........|...........|...........|...........
|...........|...........|...........|...........|...........|...........|...........|...........|...........|...........|...........|...........|...........|...........|...........|...........|C#611......|...........|...........|...........|...........|...........|...........|...........|...........|...........|...........|...........
|...........|...........|...........|...........|...........|...........|...........|...........|...........|...........|...........|...........|...........|...........|...........|...........|...........|...........|...........|...........|...........|...........|...........|...........|...........|...........|...........|...........
|...........|...........|...........|...........|...........|...........|...........|...........|...........|...........|...........|...........|...........|...........|...........|...........|...........|...........|...........|...........|...........|...........|...........|...........|...........|...........|...........|...........
|...........|...........|F#405......|D-405......|A-305......|...........|...........|...........|...........|...........|G-404......|C-503......|...........|...........|...........|...........|D-611......|...........|F#511......|...........|...........|...........|...........|...........|...........|...........|...........|...........
|...........|...........|...........|...........|...........|...........|...........|...........|...........|...........|...........|...........|...........|...........|...........|...........|...........|...........|...........|...........|...........|...........|...........|...........|...........|...........|...........|...........
|...........|...........|...........|...........|...........|...........|...........|...........|...........|...........|...........|...........|...........|...........|...........|...........|...........|...........|...........|...........|...........|...........|...........|...........|...........|...........|...........|...........
|...........|...........|...........|...........|...........|...........|...........|...........|...........|...........|...........|...........|...........|...........|...........|...........|...........|...........|...........|...........|...........|...........|...........|...........|...........|...........|...........|...........
|...........|...........|...........|...........|...........|...........|...........|...........|...........|...........|...........|...........|...........|...........|...........|...........|...........|...........|...........|...........|...........|...........|...........|...........|...........|...........|...........|...........
|...........|...........|...........|...........|...........|...........|...........|...........|...........|...........|C-403......|...........|...........|...........|...........|...........|E-611......|...........|...........|...........|...........|...........|...........|...........|...........|...........|...........|...........
|...........|...........|...........|...........|...........|...........|...........|...........|...........|...........|...........|...........|...........|...........|...........|...........|...........|...........|...........|...........|...........|...........|...........|...........|...........|...........|...........|...........
|...........|...........|...........|...........|...........|...........|...........|...........|...........|...........|...........|...........|...........|...........|...........|...........|...........|...........|...........|...........|...........|...........|...........|...........|...........|...........|...........|...........
|...........|B-302......|...........|...........|...........|...........|...........|...........|...........|...........|...........|C-403......|...........|...........|...........|...........|...........|...........|...........|...........|...........|...........|...........|...........|...........|...........|...........|...........
|...........|...........|...........|...........|...........|...........|...........|...........|...........|...........|...........|...........|...........|...........|...........|...........|...........|...........|...........|...........|...........|...........|...........|...........|...........|...........|...........|...........
|...........|...........|...........|...........|...........|...........|...........|...........|...........|...........|...........|...........|...........|...........|...........|...........|...........|...........|...........|...........|...........|...........|...........|...........|...........|...........|...........|...........
|...........|...........|...........|...........|...........|...........|...........|...........|...........|...........|...........|...........|...........|...........|...........|...........|...........|...........|...........|...........|...........|...........|...........|...........|...........|...........|...........|...........
|...........|...........|...........|...........|...........|...........|...........|...........|...........|...........|...........|...........|...........|...........|...........|...........|...........|...........|...........|...........|...........|...........|...........|...........|...........|...........|...........|...........
|...........|...........|...........|...........|...........|...........|...........|...........|...........|...........|...........|...........|...........|...........|...........|...........|...........|...........|...........|...........|...........|...........|...........|...........|...........|...........|...........|...........
|...........|...........|...........|...........|...........|...........|...........|...........|...........|...........|...........|...........|...........|...........|...........|...........|...........|...........|...........|...........|...........|...........|...........|...........|...........|...........|...........|...........
|...........|...........|...........|...........|...........|...........|...........|...........|...........|...........|...........|...........|...........|...........|...........|...........|...........|...........|...........|...........|...........|...........|...........|...........|...........|...........|...........|...........
|...........|...........|...........|...........|...........|...........|...........|...........|...........|...........|C-503......|G-404......|...........|...........|...........|C-519......|A-611......|F#610......|...........|...........|...........|...........|...........|...........|...........|...........|...........|...........
|...........|...........|...........|...........|...........|...........|...........|...........|...........|...........|...........|...........|...........|...........|...........|...........|...........|...........|...........|...........|...........|...........|...........|...........|...........|...........|...........|...........
|...........|...........|...........|...........|...........|...........|...........|...........|...........|...........|...........|...........|...........|...........|...........|...........|...........|...........|...........|...........|...........|...........|...........|...........|...........|...........|...........|...........
|...........|...........|...........|...........|...........|...........|...........|...........|...........|...........|...........|...........|...........|...........|...........|...........|...........|...........|...........|...........|...........|...........|...........|...........|...........|...........|...........|...........
|...........|...........|...........|...........|...........|...........|...........|...........|...........|...........|...........|...........|...........|...........|...........|...........|^^^........|^^^........|...........|...........|...........|...........|...........|...........|...........|...........|...........|...........
|...........|...........|...........|...........|...........|...........|...........|...........|...........|...........|...........|C-403......|...........|...........|...........|...........|...........|...........|...........|...........|...........|...........|...........|...........|...........|...........|...........|...........
|...........|...........|...........|...........|...........|...........|...........|...........|...........|...........|...........|...........|...........|...........|...........|...........|...........|...........|...........|...........|...........|...........|...........|...........|...........|...........|...........|...........
|...........|...........|...........|...........|...........|...........|...........|...........|...........|...........|...........|...........|...........|...........|...........|...........|...........|...........|...........|...........|...........|...........|...........|...........|...........|...........|...........|...........
|...........|A-302......|...........|...........|...........|...........|...........|...........|...........|...........|C-403......|...........|...........|...........|...........|F-518......|A-511......|F#510......|...........|...........|...........|...........|...........|...........|...........|...........|...........|...........
|...........|...........|...........|...........|...........|...........|...........|...........|...........|...........|...........|...........|...........|...........|...........|...........|...........|...........|...........|...........|...........|...........|...........|...........|...........|...........|...........|...........
|...........|...........|...........|...........|...........|...........|...........|...........|...........|...........|...........|...........|...........|...........|...........|...........|...........|...........|...........|...........|...........|...........|...........|...........|...........|...........|...........|...........
|...........|...........|...........|...........|...........|...........|...........|...........|...........|...........|...........|...........|...........|...........|...........|...........|...........|...........|...........|...........|...........|...........|...........|...........|...........|...........|...........|...........
|...........|...........|...........|...........|...........|...........|...........|...........|...........|...........|...........|...........|...........|...........|...........|...........|...........|^^^........|...........|...........|...........|...........|...........|...........|...........|...........|...........|...........
|...........|...........|...........|...........|...........|...........|...........|...........|...........|...........|...........|...........|...........|...........|...........|...........|B-511......|...........|...........|...........|...........|...........|...........|...........|...........|...........|...........|...........
|...........|...........|...........|...........|...........|...........|...........|...........|...........|...........|...........|...........|...........|...........|...........|...........|...........|...........|...........|...........|...........|...........|...........|...........|...........|...........|...........|...........
|...........|...........|...........|...........|...........|...........|...........|...........|...........|...........|...........|...........|...........|...........|...........|...........|...........|...........|...........|...........|...........|...........|...........|...........|...........|...........|...........|...........
|...........|...........|...........|...........|...........|...........|...........|...........|...........|...........|G-404......|C-503......|...........|...........|...........|C-519......|D-611......|...........|...........|...........|...........|...........|...........|...........|...........|...........|...........|...........
|...........|...........|...........|...........|...........|...........|...........|...........|...........|...........|...........|...........|...........|...........|...........|...........|...........|...........|...........|...........|...........|...........|...........|...........|...........|...........|...........|...........
|...........|...........|...........|...........|...........|...........|...........|...........|...........|...........|...........|...........|...........|...........|...........|...........|...........|...........|...........|...........|...........|...........|...........|...........|...........|...........|...........|...........
|...........|...........|...........|...........|...........|...........|...........|...........|...........|...........|...........|...........|...........|...........|...........|...........|...........|...........|...........|...........|...........|...........|...........|...........|...........|...........|...........|...........
|...........|...........|...........|...........|...........|...........|...........|...........|...........|...........|...........|...........|...........|...........|...........|...........|...........|...........|...........|...........|...........|...........|...........|...........|...........|...........|...........|...........
|...........|...........|...........|...........|...........|...........|...........|...........|...........|...........|C-403......|...........|...........|...........|...........|...........|A-511......|...........|...........|...........|...........|...........|...........|...........|...........|...........|...........|...........
|...........|...........|...........|...........|...........|...........|...........|...........|...........|...........|...........|...........|...........|...........|...........|...........|........F10|...........|...........|...........|...........|...........|...........|...........|...........|...........|...........|...........
|...........|...........|...........|...........|...........|...........|...........|...........|...........|...........|...........|...........|...........|...........|...........|...........|...........|...........|...........|...........|...........|...........|...........|...........|...........|...........|...........|...........
Rows: 64
|...........|G-302......|...........|...........|...........|...........|...........|...........|...........|...........|...........|C-403......|...........|...........|...........|...........|...........|E-610......|...........|...........|...........|...........|...........|...........|...........|...........|...........|...........
|...........|...........|...........|...........|...........|...........|...........|...........|...........|...........|...........|...........|...........|...........|...........|...........|...........|...........|...........|...........|...........|...........|...........|...........|...........|...........|...........|...........
|...........|...........|...........|...........|...........|...........|...........|...........|...........|...........|...........|...........|...........|...........|...........|...........|...........|...........|...........|...........|...........|...........|...........|...........|...........|...........|...........|...........
|...........|...........|...........|...........|...........|...........|...........|...........|...........|...........|...........|...........|...........|...........|...........|...........|...........|...........|...........|...........|...........|...........|...........|...........|...........|...........|...........|...........
|...........|...........|...........|...........|...........|...........|...........|...........|...........|...........|...........|...........|...........|...........|...........|...........|...........|...........|...........|...........|...........|...........|...........|...........|...........|...........|...........|...........
|...........|...........|...........|...........|...........|...........|...........|...........|...........|...........|...........|...........|...........|...........|...........|...........|...........|F#610......|...........|...........|...........|...........|...........|...........|...........|...........|...........|...........
|...........|...........|...........|...........|...........|...........|...........|...........|...........|...........|...........|...........|...........|...........|...........|...........|...........|...........|...........|...........|...........|...........|...........|...........|...........|...........|...........|...........
|...........|...........|...........|...........|...........|...........|...........|...........|...........|...........|...........|...........|...........|...........|...........|...........|...........|...........|...........|...........|...........|...........|...........|...........|...........|...........|...........|...........
|...........|...........|...........|...........|...........|...........|...........|...........|...........|...........|C-503......|G-404......|...........|...........|...........|C-519......|F#611......|A-610......|...........|...........|...........|...........|...........|...........|...........|...........|...........|...........
|...........|...........|...........|...........|...........|...........|...........|...........|...........|...........|...........|...........|...........|...........|...........|...........|...........|...........|...........|...........|...........|...........|...........|...........|...........|...........|...........|...........
|...........|...........|...........|...........|...........|...........|...........|...........|...........|...........|...........|...........|...........|...........|...........|...........|...........|...........|...........|...........|...........|...........|...........|...........|...........|...........|...........|...........
|...........|...........|...........|...........|...........|...........|...........|...........|...........|...........|...........|...........|...........|...........|...........|...........|...........|...........|...........|...........|...........|...........|...........|...........|...........|...........|...........|...........
|...........|...........|...........|...........|...........|...........|...........|...........|...........|...........|...........|...........|...........|...........|...........|...........|^^^........|...........|...........|...........|...........|...........|...........|...........|...........|...........|...........|...........
|...........|...........|...........|...........|...........|...........|...........|...........|...........|...........|...........|C-403......|...........|...........|...........|...........|...........|E-610...F10|...........|...........|...........|...........|...........|...........|...........|...........|...........|...........
|...........|...........|...........|...........|...........|...........|...........|...........|...........|...........|...........|...........|...........|...........|...........|...........|...........|...........|...........|...........|...........|...........|...........|...........|...........|...........|...........|...........
|...........|...........|...........|...........|...........|...........|...........|...........|...........|...........|...........|...........|...........|...........|...........|...........|...........|...........|...........|...........|...........|...........|...........|...........|...........|...........|...........|...........
|...........|F#302......|B-405......|F#405......|D-405......|A-305......|...........|...........|...........|...........|C-403......|...........|...........|...........|...........|F-518......|F#511......|...........|D-511...M3A|...........|...........|...........|...........|...........|...........|...........|...........|...........
|...........|...........|...........|...........|...........|...........|...........|...........|...........|...........|...........|...........|...........|...........|...........|...........|...........|...........|...........|...........|...........|...........|...........|...........|...........|...........|...........|...........
|...........|...........|...........|...........|...........|...........|...........|...........|...........|...........|...........|...........|...........|...........|...........|...........|...........|...........|...........|...........|...........|...........|...........|...........|...........|...........|...........|...........
|...........|...........|...........|...........|...........|...........|...........|...........|...........|...........|...........|...........|...........|...........|...........|...........|...........|...........|...........|...........|...........|...........|...........|...........|...........|...........|...........|...........
|...........|...........|...........|...........|...........|...........|...........|...........|...........|...........|...........|...........|...........|...........|...........|...........|^^^........|...........|...........|...........|...........|...........|...........|...........|...........|...........|...........|...........
|...........|...........|...........|...........|...........|...........|...........|...........|...........|...........|...........|...........|...........|...........|...........|...........|...........|...........|E-511......|...........|...........|...........|...........|...........|...........|...........|...........|...........
|...........|...........|...........|...........|...........|...........|...........|...........|...........|...........|...........|...........|...........|...........|...........|...........|...........|...........|...........|...........|...........|...........|...........|...........|...........|...........|...........|...........
|...........|...........|...........|...........|...........|...........|...........|...........|...........|...........|...........|...........|...........|...........|...........|...........|...........|...........|...........|...........|...........|...........|...........|...........|...........|...........|...........|...........
|...........|...........|...........|...........|...........|...........|...........|...........|...........|...........|G-404......|C-503......|...........|...........|...........|...........|...........|...........|F#511......|...........|...........|...........|...........|...........|...........|...........|...........|...........
|...........|...........|...........|...........|...........|...........|...........|...........|...........|...........|...........|...........|...........|...........|...........|...........|...........|...........|...........|...........|...........|...........|...........|...........|...........|...........|...........|...........
|...........|...........|...........|...........|...........|...........|...........|...........|...........|...........|...........|...........|...........|...........|...........|...........|...........|...........|...........|...........|...........|...........|...........|...........|...........|...........|...........|...........
|...........|...........|...........|...........|...........|...........|...........|...........|...........|...........|...........|...........|...........|...........|...........|...........|...........|...........|...........|...........|...........|...........|...........|...........|...........|...........|...........|...........
|...........|...........|...........|...........|...........|...........|...........|...........|...........|...........|...........|...........|...........|...........|...........|...........|...........|...........|...........|...........|...........|...........|...........|...........|...........|...........|...........|...........
|...........|...........|...........|...........|...........|...........|...........|...........|...........|...........|C-403......|...........|...........|...........|...........|...........|...........|...........|D-511......|...........|...........|...........|...........|...........|...........|...........|...........|...........
|...........|...........|...........|...........|...........|...........|...........|...........|...........|...........|...........|...........|...........|...........|...........|...........|...........|...........|...........|...........|...........|...........|...........|...........|...........|...........|...........|...........
|...........|...........|...........|...........|...........|...........|...........|...........|...........|...........|...........|...........|...........|...........|...........|...........|...........|...........|...........|...........|...........|...........|...........|...........|...........|...........|...........|...........
|...........|E-302......|A-405......|D-405......|G-305......|...........|...........|...........|...........|...........|...........|C-403......|...........|...........|...........|...........|...........|A-510......|...........|...........|...........|...........|...........|...........|...........|...........|...........|...........
|...........|...........|...........|...........|...........|...........|...........|...........|...........|...........|...........|...........|...........|...........|...........|...........|...........|...........|...........|...........|...........|...........|...........|...........|...........|...........|...........|...........
|...........|...........|...........|...........|...........|...........|...........|...........|...........|...........|...........|...........|...........|...........|...........|...........|...........|...........|...........|...........|...........|...........|...........|...........|...........|...........|...........|...........
|...........|...........|...........|...........|...........|...........|...........|...........|...........|...........|...........|...........|...........|...........|...........|...........|...........|...........|...........|...........|...........|...........|...........|...........|...........|...........|...........|...........
|...........|...........|...........|...........|...........|...........|...........|...........|...........|...........|...........|...........|...........|...........|...........|...........|...........|...........|...........|...........|...........|...........|...........|...........|...........|...........|...........|...........
|...........|...........|...........|...........|...........|...........|...........|...........|...........|...........|...........|...........|...........|...........|...........|...........|...........|B-510......|...........|...........|...........|...........|...........|...........|...........|...........|...........|...........
|...........|...........|...........|...........|...........|...........|...........|...........|...........|...........|...........|...........|...........|...........|...........|...........|...........|...........|...........|...........|...........|...........|...........|...........|...........|...........|...........|...........
|...........|...........|...........|...........|...........|...........|...........|...........|...........|...........|...........|...........|...........|...........|...........|...........|...........|...........|...........|...........|...........|...........|...........|...........|...........|...........|...........|...........
|...........|...........|...........|...........|...........|...........|...........|...........|...........|...........|C-503......|G-404......|...........|...........|...........|C-519......|...........|D-610......|A-511......|...........|...........|...........|...........|...........|...........|...........|...........|...........
|...........|...........|...........|...........|...........|...........|...........|...........|...........|...........|...........|...........|...........|...........|...........|...........|...........|...........|........F10|...........|...........|...........|...........|...........|...........|...........|...........|...........
|...........|...........|...........|...........|...........|...........|...........|...........|...........|...........|...........|...........|...........|...........|...........|...........|...........|...........|...........|...........|...........|...........|...........|...........|...........|...........|...........|...........
|...........|...........|...........|...........|...........|...........|...........|...........|...........|...........|...........|...........|...........|...........|...........|...........|...........|^^^........|...........|...........|...........|...........|...........|...........|...........|...........|...........|...........
|...........|...........|...........|...........|...........|...........|...........|...........|...........|...........|...........|...........|...........|...........|...........|...........|...........|...........|^^^........|...........|...........|...........|...........|...........|...........|...........|...........|...........
|...........|...........|...........|...........|...........|...........|...........|...........|...........|...........|...........|C-403......|...........|...........|...........|...........|...........|...........|...........|...........|...........|...........|...........|...........|...........|...........|...........|...........
|...........|...........|...........|...........|...........|...........|...........|...........|...........|...........|...........|...........|...........|...........|...........|...........|...........|...........|...........|...........|...........|...........|...........|...........|...........|...........|...........|...........
|...........|...........|...........|...........|...........|...........|...........|...........|...........|...........|...........|...........|...........|...........|...........|...........|...........|...........|...........|...........|...........|...........|...........|...........|...........|...........|...........|...........
|...........|D-302......|G-405......|B-305......|E-405......|...........|...........|...........|...........|...........|C-403......|...........|...........|...........|...........|...........|...........|D-610......|A-511......|...........|...........|...........|...........|...........|...........|...........|...........|...........
|...........|...........|...........|...........|...........|...........|...........|...........|...........|...........|...........|...........|...........|...........|...........|...........|...........|...........|...........|...........|...........|...........|...........|...........|...........|...........|...........|...........
|...........|...........|...........|...........|...........|...........|...........|...........|...........|...........|...........|...........|...........|...........|...........|...........|...........|...........|........F08|...........|...........|...........|...........|...........|...........|...........|...........|...........
|...........|...........|...........|...........|...........|...........|...........|...........|...........|...........|...........|...........|...........|...........|...........|...........|...........|...........|...........|...........|...........|...........|...........|...........|...........|...........|...........|...........
|...........|...........|...........|...........|...........|...........|...........|...........|...........|...........|...........|...........|...........|...........|...........|...........|...........|...........|........E08|...........|...........|...........|...........|...........|...........|...........|...........|...........
|...........|...........|...........|...........|...........|...........|...........|...........|...........|...........|...........|...........|...........|...........|...........|...........|...........|E-610......|...........|...........|...........|...........|...........|...........|...........|...........|...........|...........
|...........|...........|...........|...........|...........|...........|...........|...........|...........|...........|...........|...........|...........|...........|...........|...........|...........|...........|...........|...........|...........|...........|...........|...........|...........|...........|...........|...........
|...........|...........|...........|...........|...........|...........|...........|...........|...........|...........|...........|...........|...........|...........|...........|...........|...........|...........|...........|...........|...........|...........|...........|...........|...........|...........|...........|...........
|...........|...........|...........|...........|...........|...........|...........|...........|...........|...........|G-404......|C-503......|...........|...........|...........|E-518......|...........|E-610......|G-511......|...........|...........|...........|...........|...........|...........|...........|...........|...........
|...........|...........|...........|...........|...........|...........|...........|...........|...........|...........|...........|...........|...........|...........|...........|...........|...........|........F10|...........|...........|...........|...........|...........|...........|...........|...........|...........|...........
|...........|...........|...........|...........|...........|...........|...........|...........|...........|...........|...........|...........|...........|...........|...........|...........|...........|...........|...........|...........|...........|...........|...........|...........|...........|...........|...........|...........
|...........|...........|...........|...........|...........|...........|...........|...........|...........|...........|...........|...........|...........|...........|...........|...........|...........|...........|...........|...........|...........|...........|...........|...........|...........|...........|...........|...........
|...........|...........|...........|...........|...........|...........|...........|...........|...........|...........|...........|...........|...........|...........|...........|...........|...........|...........|^^^........|...........|...........|...........|...........|...........|...........|...........|...........|...........
|...........|...........|...........|...........|...........|...........|...........|...........|...........|...........|C-403......|...........|...........|...........|...........|...........|...........|........E10|...........|...........|...........|...........|...........|...........|...........|...........|...........|...........
|...........|...........|...........|...........|...........|...........|...........|...........|...........|...........|...........|...........|...........|...........|...........|...........|...........|...........|...........|...........|...........|...........|...........|...........|...........|...........|...........|...........
|...........|...........|...........|...........|...........|...........|...........|...........|...........|...........|...........|...........|...........|...........|...........|...........|...........|...........|...........|...........|...........|...........|...........|...........|...........|...........|...........|...........
Rows: 64
|...........|C#302......|F#405......|E-405......|B-305......|G-305......|...........|...........|...........|...........|...........|C-403......|...........|C-520......|...........|C-519...M40|A-611...M3A|........M3A|E-511......|...........|...........|...........|...........|...........|...........|...........|...........|...........
|...........|...........|...........|...........|...........|...........|...........|...........|...........|...........|...........|...........|...........|...........|...........|...........|...........|...........|........F10|...........|...........|...........|...........|...........|...........|...........|...........|...........
|...........|...........|...........|...........|...........|...........|...........|...........|...........|...........|...........|...........|...........|...........|...........|...........|...........|...........|...........|...........|...........|...........|...........|...........|...........|...........|...........|...........
|...........|...........|...........|...........|...........|...........|...........|...........|...........|...........|...........|...........|...........|...........|...........|...........|...........|...........|...........|...........|...........|...........|...........|...........|...........|...........|...........|...........
|...........|...........|...........|...........|...........|...........|...........|...........|...........|...........|...........|...........|...........|...........|...........|...........|...........|...........|...........|...........|...........|...........|...........|...........|...........|...........|...........|...........
|...........|...........|...........|...........|...........|...........|...........|...........|...........|...........|...........|...........|...........|...........|...........|...........|B-611......|...........|...........|...........|...........|...........|...........|...........|...........|...........|...........|...........
|...........|...........|...........|...........|...........|...........|...........|...........|...........|...........|...........|...........|...........|...........|...........|...........|...........|...........|...........|...........|...........|...........|...........|...........|...........|...........|...........|...........
|...........|...........|...........|...........|...........|...........|...........|...........|...........|...........|...........|...........|...........|...........|...........|...........|...........|...........|...........|...........|...........|...........|...........|...........|...........|...........|...........|...........
|...........|...........|...........|...........|...........|...........|...........|...........|...........|...........|C-503......|G-404......|...........|...........|...........|C-519v00...|D-711......|D-610......|...........|...........|...........|...........|...........|...........|...........|...........|...........|...........
|...........|...........|...........|...........|...........|...........|...........|...........|...........|...........|...........|...........|...........|...........|...........|...........|...........|...........|...........|...........|...........|...........|...........|...........|...........|...........|...........|...........
|...........|...........|...........|...........|...........|...........|...........|...........|...........|...........|...........|...........|...........|...........|...........|...........|...........|...........|...........|...........|...........|...........|...........|...........|...........|...........|...........|...........
|...........|...........|...........|...........|...........|...........|...........|...........|...........|...........|...........|...........|...........|...........|...........|...........|...........|...........|...........|...........|...........|...........|...........|...........|...........|...........|...........|...........
|...........|...........|...........|...........|...........|...........|...........|...........|...........|...........|...........|...........|...........|...........|...........|...........|...........|^^^........|...........|...........|...........|...........|...........|...........|...........|...........|...........|...........
|...........|...........|...........|...........|...........|...........|...........|...........|...........|...........|...........|C-403......|...........|...........|...........|...........|B-611......|...........|...........|...........|...........|...........|...........|...........|...........|...........|...........|...........
|...........|...........|...........|...........|...........|...........|...........|...........|...........|...........|...........|...........|...........|...........|...........|...........|...........|...........|...........|...........|...........|...........|...........|...........|...........|...........|...........|...........
|...........|...........|...........|...........|...........|...........|...........|...........|...........|...........|...........|...........|...........|...........|...........|...........|...........|...........|...........|...........|...........|...........|...........|...........|...........|...........|...........|...........
|...........|G-302......|...........|...........|...........|...........|...........|...........|...........|...........|C-403......|...........|...........|...........|...........|F-518v00...|^^^........|...........|...........|...........|...........|...........|...........|...........|...........|...........|...........|...........
|...........|...........|...........|...........|...........|...........|...........|...........|...........|...........|...........|...........|...........|...........|...........|...........|...........|...........|...........|...........|...........|...........|...........|...........|...........|...........|...........|...........
|...........|...........|...........|...........|...........|...........|...........|...........|...........|...........|...........|...........|...........|...........|...........|...........|...........|...........|...........|...........|...........|...........|...........|...........|...........|...........|...........|...........
|...........|...........|...........|...........|...........|...........|...........|...........|...........|...........|...........|...........|...........|...........|...........|...........|...........|...........|...........|...........|...........|...........|...........|...........|...........|...........|...........|...........
|...........|...........|...........|...........|...........|...........|...........|...........|...........|...........|...........|...........|...........|...........|...........|...........|...........|...........|...........|...........|...........|...........|...........|...........|...........|...........|...........|...........
|...........|...........|...........|...........|...........|...........|...........|...........|...........|...........|...........|...........|...........|...........|...........|...........|E-611...F0A|A-610......|...........|...........|...........|...........|...........|...........|...........|...........|...........|...........
|...........|...........|...........|...........|...........|...........|...........|...........|...........|...........|...........|...........|...........|...........|...........|...........|...........|...........|...........|...........|...........|...........|...........|...........|...........|...........|...........|...........
|...........|...........|...........|...........|...........|...........|...........|...........|...........|...........|...........|...........|...........|...........|...........|...........|...........|...........|...........|...........|...........|...........|...........|...........|...........|...........|...........|...........
|...........|...........|...........|...........|...........|...........|...........|...........|...........|...........|G-404......|C-503......|...........|...........|...........|...........|........E0A|B-610......|...........|...........|...........|...........|...........|...........|...........|...........|...........|...........
|...........|...........|...........|...........|...........|...........|...........|...........|...........|...........|...........|...........|...........|...........|...........|...........|...........|...........|...........|...........|...........|...........|...........|...........|...........|...........|...........|...........
|...........|...........|...........|...........|...........|...........|...........|...........|...........|...........|...........|...........|...........|...........|...........|...........|...........|...........|...........|...........|...........|...........|...........|...........|...........|...........|...........|...........
|...........|...........|...........|...........|...........|...........|...........|...........|...........|...........|...........|...........|...........|...........|...........|...........|...........|...........|...........|...........|...........|...........|...........|...........|...........|...........|...........|...........
|...........|...........|...........|...........|...........|...........|...........|...........|...........|...........|...........|...........|...........|...........|...........|...........|...........|...........|...........|...........|...........|...........|...........|...........|...........|...........|...........|...........
|...........|...........|...........|...........|...........|...........|...........|...........|...........|...........|C-403......|...........|...........|...........|...........|F-518v00...|D-611......|A-610......|...........|...........|...........|...........|...........|...........|...........|...........|...........|...........
|...........|...........|...........|...........|...........|...........|...........|...........|...........|...........|...........|...........|...........|...........|...........|...........|...........|...........|...........|...........|...........|...........|...........|...........|...........|...........|...........|...........
|...........|...........|...........|...........|...........|...........|...........|...........|...........|...........|...........|...........|...........|...........|...........|...........|...........|...........|...........|...........|...........|...........|...........|...........|...........|...........|...........|...........
|...........|F#302......|F#405......|D-405......|A#305......|E-305......|...........|...........|...........|...........|...........|C-403......|...........|C-520......|...........|...........|E-611......|...........|D-511...M40|...........|...........|...........|...........|...........|...........|...........|...........|...........
|...........|...........|...........|...........|...........|...........|...........|...........|...........|...........|...........|...........|...........|...........|...........|...........|...........|...........|...........|...........|...........|...........|...........|...........|...........|...........|...........|...........
|...........|...........|...........|...........|...........|...........|...........|...........|...........|...........|...........|...........|...........|...........|...........|...........|...........|...........|...........|...........|...........|...........|...........|...........|...........|...........|...........|...........
|...........|...........|...........|...........|...........|...........|...........|...........|...........|...........|...........|...........|...........|...........|...........|...........|...........|...........|...........|...........|...........|...........|...........|...........|...........|...........|...........|...........
|...........|...........|...........|...........|...........|...........|...........|...........|...........|...........|...........|...........|...........|...........|...........|...........|...........|...........|...........|...........|...........|...........|...........|...........|...........|...........|...........|...........
|...........|...........|...........|...........|...........|...........|...........|...........|...........|...........|...........|...........|...........|...........|...........|...........|B-511......|...........|E-511......|...........|...........|...........|...........|...........|...........|...........|...........|...........
|...........|...........|...........|...........|...........|...........|...........|...........|...........|...........|...........|...........|...........|...........|...........|...........|...........|...........|...........|...........|...........|...........|...........|...........|...........|...........|...........|...........
|...........|...........|...........|...........|...........|...........|...........|...........|...........|...........|...........|...........|...........|...........|...........|...........|...........|...........|...........|...........|...........|...........|...........|...........|...........|...........|...........|...........
|...........|...........|...........|...........|...........|...........|...........|...........|...........|...........|C-503......|G-404......|...........|...........|...........|C-519v00...|D-611......|B-610......|F#511......|...........|...........|...........|...........|...........|...........|...........|...........|...........
|...........|...........|...........|...........|...........|...........|...........|...........|...........|...........|...........|...........|...........|...........|...........|...........|...........|...........|...........|...........|...........|...........|...........|...........|...........|...........|...........|...........
|...........|...........|...........|...........|...........|...........|...........|...........|...........|...........|...........|...........|...........|...........|...........|...........|...........|...........|...........|...........|...........|...........|...........|...........|...........|...........|...........|...........
|...........|...........|...........|...........|...........|...........|...........|...........|...........|...........|...........|...........|...........|...........|...........|...........|^^^........|...........|...........|...........|...........|...........|...........|...........|...........|...........|...........|...........
|...........|...........|...........|...........|...........|...........|...........|...........|...........|...........|...........|...........|...........|...........|...........|...........|...........|...........|...........|...........|...........|...........|...........|...........|...........|...........|...........|...........
|...........|...........|...........|...........|...........|...........|...........|...........|...........|...........|...........|C-403......|...........|...........|...........|...........|...........|^^^........|D-511......|...........|...........|...........|...........|...........|...........|...........|...........|...........
|...........|...........|...........|...........|...........|...........|...........|...........|...........|...........|...........|...........|...........|...........|...........|...........|...........|...........|...........|...........|...........|...........|...........|...........|...........|...........|...........|...........
|...........|...........|...........|...........|...........|...........|...........|...........|...........|...........|...........|...........|...........|...........|...........|...........|...........|...........|...........|...........|...........|...........|...........|...........|...........|...........|...........|...........
|...........|A#302......|...........|...........|...........|...........|...........|...........|...........|...........|C-403......|...........|...........|...........|...........|F-518v00...|...........|E-610......|...........|...........|...........|...........|...........|...........|...........|...........|...........|...........
|...........|...........|...........|...........|...........|...........|...........|...........|...........|...........|...........|...........|...........|...........|...........|...........|...........|...........|...........|...........|...........|...........|...........|...........|...........|...........|...........|...........
|...........|...........|...........|...........|...........|...........|...........|...........|...........|...........|...........|...........|...........|...........|...........|...........|...........|...........|...........|...........|...........|...........|...........|...........|...........|...........|...........|...........
|...........|...........|...........|...........|...........|...........|...........|...........|...........|...........|...........|...........|...........|...........|...........|...........|...........|........F0A|...........|...........|...........|...........|...........|...........|...........|...........|...........|...........
|...........|...........|...........|...........|...........|...........|...........|...........|...........|...........|...........|...........|...........|...........|...........|...........|...........|...........|...........|...........|...........|...........|...........|...........|...........|...........|...........|...........
|...........|...........|...........|...........|...........|...........|...........|...........|...........|...........|...........|...........|...........|...........|...........|...........|D-711......|........E0A|...........|...........|...........|...........|...........|...........|...........|...........|...........|...........
|...........|...........|...........|...........|...........|...........|...........|...........|...........|...........|...........|...........|...........|...........|...........|...........|...........|...........|...........|...........|...........|...........|...........|...........|...........|...........|...........|...........
|...........|...........|...........|...........|...........|...........|...........|...........|...........|...........|...........|...........|...........|...........|...........|...........|...........|...........|...........|...........|...........|...........|...........|...........|...........|...........|...........|...........
|...........|...........|F#405......|C#405......|A-305......|D-405......|...........|...........|...........|...........|G-404......|C-503......|...........|...........|...........|...........|E-711......|D-610......|B-411......|...........|...........|...........|...........|...........|...........|...........|...........|...........
|...........|...........|...........|...........|...........|...........|...........|...........|...........|...........|...........|...........|...........|...........|...........|...........|...........|...........|...........|...........|...........|...........|...........|...........|...........|...........|...........|...........
|...........|...........|...........|...........|...........|...........|...........|...........|...........|...........|...........|...........|...........|...........|...........|...........|...........|...........|...........|...........|...........|...........|...........|...........|...........|...........|...........|...........
|...........|...........|...........|...........|...........|...........|...........|...........|...........|...........|...........|...........|...........|...........|...........|...........|...........|...........|^^^........|...........|...........|...........|...........|...........|...........|...........|...........|...........
|...........|...........|...........|...........|...........|...........|...........|...........|...........|...........|...........|...........|...........|...........|...........|...........|...........|^^^........|...........|...........|...........|...........|...........|...........|...........|...........|...........|...........
|...........|...........|...........|...........|...........|...........|...........|...........|...........|...........|C-403......|...........|...........|...........|...........|...........|D-711......|...........|...........|...........|...........|...........|...........|...........|...........|...........|...........|...........
|...........|...........|...........|...........|...........|...........|...........|...........|...........|...........|...........|...........|...........|...........|...........|...........|...........|...........|...........|...........|...........|...........|...........|...........|...........|...........|...........|...........
|...........|...........|...........|...........|...........|...........|...........|...........|...........|...........|...........|...........|...........|...........|...........|...........|...........|...........|...........|...........|...........|...........|...........|...........|...........|...........|...........|...........
Rows: 64
|...........|B-302......|...........|...........|...........|...........|...........|...........|...........|...........|...........|C-403......|...........|C-520......|...........|C-519......|...........|...........|...........|...........|...........|...........|...........|...........|...........|...........|...........|...........
|...........|...........|...........|...........|...........|...........|...........|...........|...........|...........|...........|...........|...........|...........|...........|...........|...........|...........|...........|...........|...........|...........|...........|...........|...........|...........|...........|...........
|...........|...........|...........|...........|...........|...........|...........|...........|...........|...........|...........|...........|...........|...........|...........|...........|...........|...........|...........|...........|...........|...........|...........|...........|...........|...........|...........|...........
|...........|...........|...........|...........|...........|...........|...........|...........|...........|...........|...........|...........|...........|...........|...........|...........|...........|...........|...........|...........|...........|...........|...........|...........|...........|...........|...........|...........
|...........|...........|...........|...........|...........|...........|...........|...........|...........|...........|...........|...........|...........|...........|...........|...........|...........|...........|...........|...........|...........|...........|...........|...........|...........|...........|...........|...........
|...........|...........|...........|...........|...........|...........|...........|...........|...........|...........|...........|...........|...........|...........|...........|...........|B-611......|...........|E-511......|...........|...........|...........|...........|...........|...........|...........|...........|...........
|...........|...........|...........|...........|...........|...........|...........|...........|...........|...........|...........|...........|...........|...........|...........|...........|...........|...........|...........|...........|...........|...........|...........|...........|...........|...........|...........|...........
|...........|...........|...........|...........|...........|...........|...........|...........|...........|...........|...........|...........|...........|...........|...........|...........|...........|...........|...........|...........|...........|...........|...........|...........|...........|...........|...........|...........
|...........|...........|F#405......|D-405......|G-305......|B-305......|...........|...........|...........|...........|C-503......|G-404......|...........|...........|...........|C-519......|...........|D-610......|F#511......|...........|...........|...........|...........|...........|...........|...........|...........|...........
|...........|...........|...........|...........|...........|...........|...........|...........|...........|...........|...........|...........|...........|...........|...........|...........|^^^........|...........|...........|...........|...........|...........|...........|...........|...........|...........|...........|...........
|...........|...........|...........|...........|...........|...........|...........|...........|...........|...........|...........|...........|...........|...........|...........|...........|...........|...........|...........|...........|...........|...........|...........|...........|...........|...........|...........|...........
|...........|...........|...........|...........|...........|...........|...........|...........|...........|...........|...........|...........|...........|...........|...........|...........|...........|...........|...........|...........|...........|...........|...........|...........|...........|...........|...........|...........
|...........|...........|...........|...........|...........|...........|...........|...........|...........|...........|...........|...........|...........|...........|...........|...........|...........|^^^........|...........|...........|...........|...........|...........|...........|...........|...........|...........|...........
|...........|...........|...........|...........|...........|...........|...........|...........|...........|...........|...........|C-403......|...........|...........|...........|...........|F#611......|...........|A-511......|...........|...........|...........|...........|...........|...........|...........|...........|...........
|...........|...........|...........|...........|...........|...........|...........|...........|...........|...........|...........|...........|...........|...........|...........|...........|...........|...........|...........|...........|...........|...........|...........|...........|...........|...........|...........|...........
|...........|...........|...........|...........|...........|...........|...........|...........|...........|...........|...........|...........|...........|...........|...........|...........|...........|...........|...........|...........|...........|...........|...........|...........|...........|...........|...........|...........
|...........|E-302......|...........|...........|...........|...........|...........|...........|...........|...........|C-403......|...........|...........|D#520......|...........|G-518......|A-611......|D-510......|...........|...........|...........|...........|...........|...........|...........|...........|...........|...........
|...........|...........|...........|...........|...........|...........|...........|...........|...........|...........|...........|...........|...........|...........|...........|...........|...........|...........|...........|...........|...........|...........|...........|...........|...........|...........|...........|...........
|...........|...........|...........|...........|...........|...........|...........|...........|...........|...........|...........|...........|...........|...........|...........|...........|...........|...........|...........|...........|...........|...........|...........|...........|...........|...........|...........|...........
|...........|...........|...........|...........|...........|...........|...........|...........|...........|...........|...........|...........|...........|...........|...........|...........|...........|...........|...........|...........|...........|...........|...........|...........|...........|...........|...........|...........
|...........|...........|...........|...........|...........|...........|...........|...........|...........|...........|...........|...........|...........|...........|...........|...........|...........|...........|...........|...........|...........|...........|...........|...........|...........|...........|...........|...........
|...........|...........|...........|...........|...........|...........|...........|...........|...........|...........|...........|...........|...........|...........|...........|...........|B-611......|^^^........|...........|...........|...........|...........|...........|...........|...........|...........|...........|...........
|...........|...........|...........|...........|...........|...........|...........|...........|...........|...........|...........|...........|...........|...........|...........|...........|...........|...........|...........|...........|...........|...........|...........|...........|...........|...........|...........|...........
|...........|...........|...........|...........|...........|...........|...........|...........|...........|...........|...........|...........|...........|...........|...........|...........|...........|...........|...........|...........|...........|...........|...........|...........|...........|...........|...........|...........
|...........|...........|...........|...........|...........|...........|...........|...........|...........|...........|G-404......|C-503......|...........|...........|...........|...........|^^^........|A-510......|B-511......|...........|...........|...........|...........|...........|...........|...........|...........|...........
|...........|...........|...........|...........|...........|...........|...........|...........|...........|...........|...........|...........|...........|...........|...........|...........|...........|...........|...........|...........|...........|...........|...........|...........|...........|...........|...........|...........
|...........|...........|...........|...........|...........|...........|...........|...........|...........|...........|...........|...........|...........|...........|...........|...........|...........|B-510...SD2|...........|...........|...........|...........|...........|...........|...........|...........|...........|...........
|...........|...........|...........|...........|...........|...........|...........|...........|...........|...........|...........|...........|...........|...........|...........|...........|...........|...........|...........|...........|...........|...........|...........|...........|...........|...........|...........|...........
|...........|...........|...........|...........|...........|...........|...........|...........|...........|...........|...........|...........|...........|...........|...........|...........|...........|...........|^^^........|...........|...........|...........|...........|...........|...........|...........|...........|...........
|...........|...........|...........|...........|...........|...........|...........|...........|...........|...........|C-403......|...........|...........|...........|...........|G-518......|E-711......|D-610...SD1|...........|...........|...........|...........|...........|...........|...........|...........|...........|...........
|...........|...........|...........|...........|...........|...........|...........|...........|...........|...........|...........|...........|...........|...........|...........|...........|...........|...........|...........|...........|...........|...........|...........|...........|...........|...........|...........|...........
|...........|...........|...........|...........|...........|...........|...........|...........|...........|...........|...........|...........|...........|...........|...........|...........|........F10|...........|...........|...........|...........|...........|...........|...........|...........|...........|...........|...........
|...........|A-302......|G-405......|C-405......|E-405......|B-305......|...........|...........|...........|...........|...........|C-403......|...........|F#520......|...........|...........|...........|E-610......|...........|...........|...........|...........|...........|...........|...........|...........|...........|...........
|...........|...........|...........|...........|...........|...........|...........|...........|...........|...........|...........|...........|...........|...........|...........|...........|...........|...........|...........|...........|...........|...........|...........|...........|...........|...........|...........|...........
|...........|...........|...........|...........|...........|...........|...........|...........|...........|...........|...........|...........|...........|...........|...........|...........|^^^........|...........|...........|...........|...........|...........|...........|...........|...........|...........|...........|...........
|...........|...........|...........|...........|...........|...........|...........|...........|...........|...........|...........|...........|...........|...........|...........|...........|...........|...........|...........|...........|...........|...........|...........|...........|...........|...........|...........|...........
|...........|...........|...........|...........|...........|...........|...........|...........|...........|...........|...........|...........|...........|...........|...........|...........|...........|...........|...........|...........|...........|...........|...........|...........|...........|...........|...........|...........
|...........|...........|...........|...........|...........|...........|...........|...........|...........|...........|...........|...........|...........|...........|...........|...........|E-711......|F#610......|...........|...........|...........|...........|...........|...........|...........|...........|...........|...........
|...........|...........|...........|...........|...........|...........|...........|...........|...........|...........|...........|...........|...........|...........|...........|...........|...........|...........|...........|...........|...........|...........|...........|...........|...........|...........|...........|...........
|...........|...........|...........|...........|...........|...........|...........|...........|...........|...........|...........|...........|...........|...........|...........|...........|...........|...........|...........|...........|...........|...........|...........|...........|...........|...........|...........|...........
|...........|...........|...........|...........|...........|...........|...........|...........|...........|...........|C-503......|G-404......|...........|...........|...........|C-519...M40|^^^........|A-610......|...........|...........|...........|...........|...........|...........|...........|...........|...........|...........
|...........|...........|...........|...........|...........|...........|...........|...........|...........|...........|...........|...........|...........|...........|...........|...........|...........|...........|...........|...........|...........|...........|...........|...........|...........|...........|...........|...........
|...........|...........|...........|...........|...........|...........|...........|...........|...........|...........|...........|...........|...........|...........|...........|...........|...........|...........|...........|...........|...........|...........|...........|...........|...........|...........|...........|...........
|...........|...........|...........|...........|...........|...........|...........|...........|...........|...........|...........|...........|...........|...........|...........|...........|...........|...........|...........|...........|...........|...........|...........|...........|...........|...........|...........|...........
|...........|...........|...........|...........|...........|...........|...........|...........|...........|...........|...........|...........|...........|...........|...........|...........|...........|...........|...........|...........|...........|...........|...........|...........|...........|...........|...........|...........
|...........|...........|...........|...........|...........|...........|...........|...........|...........|...........|...........|C-403......|...........|...........|...........|...........|B-611......|F#610......|...........|...........|...........|...........|...........|...........|...........|...........|...........|...........
|...........|...........|...........|...........|...........|...........|...........|...........|...........|...........|...........|...........|...........|...........|...........|...........|...........|........E10|...........|...........|...........|...........|...........|...........|...........|...........|...........|...........
|...........|...........|...........|...........|...........|...........|...........|...........|...........|...........|...........|...........|...........|...........|...........|...........|...........|...........|...........|...........|...........|...........|...........|...........|...........|...........|...........|...........
|...........|D-302......|A-405......|C-405......|B-305......|D#405......|...........|...........|...........|...........|C-403......|B-415......|...........|G-5........|...........|...18......|D-711......|...........|...........|...........|...........|...........|...........|...........|...........|...........|...........|...........
|...........|...........|...........|...........|...........|...........|...........|...........|...........|...........|...........|...........|...........|...........|...........|...........|...........|...........|...........|...........|...........|...........|...........|...........|...........|...........|...........|...........
|...........|...........|...........|...........|...........|...........|...........|...........|...........|...........|...........|...........|...........|...........|...........|...........|...........|...........|...........|...........|...........|...........|...........|...........|...........|...........|...........|...........
|...........|...........|...........|...........|...........|...........|...........|...........|...........|...........|...........|...........|...........|...........|...........|...........|...........|...........|...........|...........|...........|...........|...........|...........|...........|...........|...........|...........
|...........|...........|...........|...........|...........|...........|...........|...........|...........|...........|...........|...........|...........|...........|...........|...........|...........|...........|...........|...........|...........|...........|...........|...........|...........|...........|...........|...........
|...........|...........|...........|...........|...........|...........|...........|...........|...........|...........|...........|...........|...........|...........|...........|...........|E-711......|D-610......|D-511......|...........|...........|...........|...........|...........|...........|...........|...........|...........
|...........|...........|...........|...........|...........|...........|...........|...........|...........|...........|...........|...........|...........|...........|...........|...........|...........|...........|...........|...........|...........|...........|...........|...........|...........|...........|...........|...........
|...........|...........|...........|...........|...........|...........|...........|...........|...........|...........|...........|...........|...........|...........|...........|...........|...........|...........|...........|...........|...........|...........|...........|...........|...........|...........|...........|...........
|...........|...........|...........|...........|...........|...........|...........|...........|...........|...........|G-404......|...........|...........|G-518......|...........|C-519......|^^^........|B-510......|E-511......|...........|...........|...........|...........|...........|...........|...........|...........|...........
|...........|...........|...........|...........|...........|...........|...........|...........|...........|...........|...........|...........|...........|...........|...........|...........|...........|...........|...........|...........|...........|...........|...........|...........|...........|...........|...........|...........
|...........|...........|...........|...........|...........|...........|...........|...........|...........|...........|...........|...........|...........|...........|...........|...........|...........|...........|...........|...........|...........|...........|...........|...........|...........|...........|...........|...........
|...........|...........|...........|...........|...........|...........|...........|...........|...........|...........|...........|...........|...........|...........|...........|...........|...........|...........|...........|...........|...........|...........|...........|...........|...........|...........|...........|...........
|...........|...........|...........|...........|...........|...........|...........|...........|...........|...........|...........|...........|...........|...........|...........|...........|...........|...........|...........|...........|...........|...........|...........|...........|...........|...........|...........|...........
|...........|...........|...........|...........|...........|...........|...........|...........|...........|...........|C-403......|...........|...........|...........|...........|...........|...........|A-510......|F#511......|...........|...........|...........|...........|...........|...........|...........|...........|...........
|...........|...........|...........|...........|...........|...........|...........|...........|...........|...........|...........|...........|...........|...........|...........|...........|...........|...........|...........|...........|...........|...........|...........|...........|...........|...........|...........|...........
|...........|...........|...........|...........|...........|...........|...........|...........|...........|...........|...........|...........|...........|...........|...........|...........|...........|...........|...........|...........|...........|...........|...........|...........|...........|...........|...........|...........
Rows: 64
|........A03|G-302...M32|F#406......|D-406......|A-306......|E-306......|^^^........|...........|...........|...........|...........|C-403......|...........|C-520......|...........|C-519...M40|...........|...........|...........|...........|...........|...........|...........|...........|...........|...........|...........|...........
|...........|...........|...........|...........|...........|...........|...........|...........|...........|...........|...........|...........|...........|...........|...........|...........|...........|^^^........|...........|...........|...........|...........|...........|...........|...........|...........|...........|...........
|...........|...........|...........|...........|...........|...........|...........|...........|...........|...........|...........|...........|...........|...........|...........|...........|...........|...........|...........|...........|...........|...........|...........|...........|...........|...........|...........|...........
|...........|...........|...........|...........|...........|...........|...........|...........|...........|...........|...........|...........|...........|...........|...........|...........|...........|...........|...........|...........|...........|...........|...........|...........|...........|...........|...........|...........
|...........|...........|...........|...........|...........|...........|...........|...........|...........|...........|...........|...........|...........|...........|...........|...........|...........|...........|...........|...........|...........|...........|...........|...........|...........|...........|...........|...........
|...........|...........|...........|...........|...........|...........|...........|...........|...........|...........|...........|...........|...........|...........|...........|...........|...........|...........|...........|...........|...........|...........|...........|...........|...........|...........|...........|...........
|...........|...........|...........|...........|...........|...........|...........|...........|...........|...........|...........|...........|...........|...........|...........|...........|...........|...........|...........|...........|...........|...........|...........|...........|...........|...........|...........|...........
|...........|...........|...........|...........|...........|...........|...........|...........|...........|...........|...........|...........|...........|...........|...........|...........|...........|...........|...........|...........|...........|...........|...........|...........|...........|...........|...........|...........
|...........|...........|...........|...........|...........|...........|...........|...........|...........|...........|C-503......|G-404......|C-526......|...........|...........|C-519......|...........|D-610......|...........|...........|...........|...........|...........|...........|...........|...........|...........|...........
|...........|...........|...........|...........|...........|...........|...........|...........|...........|...........|...........|...........|...........|...........|...........|...........|...........|...........|...........|...........|...........|...........|...........|...........|...........|...........|...........|...........
|...........|...........|...........|...........|...........|...........|...........|...........|...........|...........|...........|...........|...........|...........|...........|...........|...........|...........|...........|...........|...........|...........|...........|...........|...........|...........|...........|...........
|...........|...........|...........|...........|...........|...........|...........|...........|...........|...........|...........|...........|...........|...........|...........|...........|...........|^^^........|...........|...........|...........|...........|...........|...........|...........|...........|...........|...........
|...........|...........|...........|...........|...........|...........|...........|...........|...........|...........|...........|...........|...........|...........|...........|...........|...........|...........|...........|...........|...........|...........|...........|...........|...........|...........|...........|...........
|...........|...........|...........|...........|...........|...........|...........|...........|...........|...........|...........|C-403......|...........|...........|...........|...........|...........|...........|...........|...........|...........|...........|...........|...........|...........|...........|...........|...........
|...........|...........|...........|...........|...........|...........|...........|...........|...........|...........|...........|...........|...........|...........|...........|...........|...........|...........|...........|...........|...........|...........|...........|...........|...........|...........|...........|...........
|...........|...........|...........|...........|...........|...........|...........|...........|...........|...........|...........|...........|...........|...........|...........|...........|...........|...........|...........|...........|...........|...........|...........|...........|...........|...........|...........|...........
|...........|D-302......|...........|...........|...........|...........|...........|...........|...........|...........|C-403......|...........|...........|...........|...........|F-518......|...........|D-510......|...........|...........|...........|...........|...........|...........|...........|...........|...........|...........
|...........|...........|...........|...........|...........|...........|...........|...........|...........|...........|...........|...........|...........|...........|...........|...........|...........|...........|...........|...........|...........|...........|...........|...........|...........|...........|...........|...........
|...........|...........|...........|...........|...........|...........|...........|...........|...........|...........|...........|...........|...........|...........|...........|...........|...........|...........|...........|...........|...........|...........|...........|...........|...........|...........|...........|...........
|...........|...........|...........|...........|...........|...........|...........|...........|...........|...........|...........|...........|...........|...........|...........|...........|...........|^^^........|...........|...........|...........|...........|...........|...........|...........|...........|...........|...........
|...........|...........|...........|...........|...........|...........|...........|...........|...........|...........|...........|...........|...........|...........|...........|...........|...........|...........|...........|...........|...........|...........|...........|...........|...........|...........|...........|...........
|...........|...........|...........|...........|...........|...........|...........|...........|...........|...........|...........|...........|...........|...........|...........|...........|...........|...........|G-511......|...........|...........|...........|...........|...........|...........|...........|...........|...........
|...........|...........|...........|...........|...........|...........|...........|...........|...........|...........|...........|...........|...........|...........|...........|...........|...........|...........|...........|...........|...........|...........|...........|...........|...........|...........|...........|...........
|...........|...........|...........|...........|...........|...........|...........|...........|...........|...........|...........|...........|...........|...........|...........|...........|...........|...........|...........|...........|...........|...........|...........|...........|...........|...........|...........|...........
|...........|...........|...........|...........|...........|...........|...........|...........|...........|...........|G-404......|C-503......|G-525......|...........|...........|...........|...........|...........|A-511......|...........|...........|...........|...........|...........|...........|...........|...........|...........
|...........|...........|...........|...........|...........|...........|...........|...........|...........|...........|...........|...........|...........|...........|...........|...........|...........|...........|...........|...........|...........|...........|...........|...........|...........|...........|...........|...........
|...........|...........|...........|...........|...........|...........|...........|...........|...........|...........|...........|...........|...........|...........|...........|...........|...........|...........|...........|...........|...........|...........|...........|...........|...........|...........|...........|...........
|...........|...........|...........|...........|...........|...........|...........|...........|...........|...........|...........|...........|...........|...........|...........|...........|...........|...........|...........|...........|...........|...........|...........|...........|...........|...........|...........|...........
|...........|...........|...........|...........|...........|...........|...........|...........|...........|...........|...........|...........|...........|...........|...........|...........|...........|...........|...........|...........|...........|...........|...........|...........|...........|...........|...........|...........
|...........|...........|...........|...........|...........|...........|...........|...........|...........|...........|C-403......|...........|...........|...........|...........|F-518......|...........|...........|B-511......|...........|...........|...........|...........|...........|...........|...........|...........|...........
|...........|...........|...........|...........|...........|...........|...........|...........|...........|...........|...........|...........|...........|...........|...........|...........|...........|...........|...........|...........|...........|...........|...........|...........|...........|...........|...........|...........
|...........|...........|...........|...........|...........|...........|...........|...........|...........|...........|...........|...........|...........|...........|...........|...........|...........|...........|...........|...........|...........|...........|...........|...........|...........|...........|...........|...........
|...........|E-302......|...........|...........|...........|...........|...........|...........|...........|...........|...........|C-403......|...........|...........|...........|...........|...........|...........|...........|...........|...........|...........|...........|...........|...........|...........|...........|...........
|...........|...........|...........|...........|...........|...........|...........|...........|...........|...........|...........|...........|...........|...........|...........|...........|...........|...........|...........|...........|...........|...........|...........|...........|...........|...........|...........|...........
|...........|...........|...........|...........|...........|...........|...........|...........|...........|...........|...........|...........|...........|...........|...........|...........|...........|...........|...........|...........|...........|...........|...........|...........|...........|...........|...........|...........
|...........|...........|...........|...........|...........|...........|...........|...........|...........|...........|...........|...........|...........|...........|...........|...........|...........|...........|...........|...........|...........|...........|...........|...........|...........|...........|...........|...........
|...........|...........|...........|...........|...........|...........|...........|...........|...........|...........|...........|...........|...........|...........|...........|...........|...........|...........|...........|...........|...........|...........|...........|...........|...........|...........|...........|...........
|...........|...........|...........|...........|...........|...........|...........|...........|...........|...........|...........|...........|...........|...........|...........|...........|...........|...........|...........|...........|...........|...........|...........|...........|...........|...........|...........|...........
|...........|...........|...........|...........|...........|...........|...........|...........|...........|...........|...........|...........|...........|...........|...........|...........|...........|...........|...........|...........|...........|...........|...........|...........|...........|...........|...........|...........
|...........|...........|...........|...........|...........|...........|...........|...........|...........|...........|...........|...........|...........|...........|...........|...........|...........|...........|...........|...........|...........|...........|...........|...........|...........|...........|...........|...........
|...........|...........|G-406......|D-406......|A-306......|B-306......|...........|...........|...........|...........|C-503......|G-404......|C-526......|...........|...........|C-519......|G-611......|...........|...........|...........|...........|...........|...........|...........|...........|...........|...........|...........
|...........|...........|...........|...........|...........|...........|...........|...........|...........|...........|...........|...........|...........|...........|...........|...........|...........|...........|...........|...........|...........|...........|...........|...........|...........|...........|...........|...........
|...........|...........|...........|...........|...........|...........|...........|...........|...........|...........|...........|...........|...........|...........|...........|...........|...........|...........|...........|...........|...........|...........|...........|...........|...........|...........|...........|...........
|...........|...........|...........|...........|...........|...........|...........|...........|...........|...........|...........|...........|...........|...........|...........|...........|^^^........|...........|...........|...........|...........|...........|...........|...........|...........|...........|...........|...........
|...........|...........|...........|...........|...........|...........|...........|...........|...........|...........|...........|...........|...........|...........|...........|...........|...........|...........|...........|...........|...........|...........|...........|...........|...........|...........|...........|...........
|...........|...........|...........|...........|...........|...........|...........|...........|...........|...........|...........|C-403......|...........|...........|...........|...........|...........|...........|...........|...........|...........|...........|...........|...........|...........|...........|...........|...........
|...........|...........|...........|...........|...........|...........|...........|...........|...........|...........|...........|...........|...........|...........|...........|...........|...........|...........|...........|...........|...........|...........|...........|...........|...........|...........|...........|...........
|...........|...........|...........|...........|...........|...........|...........|...........|...........|...........|...........|...........|...........|...........|...........|...........|...........|...........|...........|...........|...........|...........|...........|...........|...........|...........|...........|...........
|...........|B-302......|...........|...........|...........|...........|...........|...........|...........|...........|C-403......|...........|...........|...........|...........|F-518......|G-511......|...........|...........|...........|...........|...........|...........|...........|...........|...........|...........|...........
|...........|...........|...........|...........|...........|...........|...........|...........|...........|...........|...........|...........|...........|...........|...........|...........|...........|...........|...........|...........|...........|...........|...........|...........|...........|...........|...........|...........
|...........|...........|...........|...........|...........|...........|...........|...........|...........|...........|...........|...........|...........|...........|...........|...........|...........|...........|...........|...........|...........|...........|...........|...........|...........|...........|...........|...........
|...........|...........|...........|...........|...........|...........|...........|...........|...........|...........|...........|...........|...........|...........|...........|...........|^^^........|...........|...........|...........|...........|...........|...........|...........|...........|...........|...........|...........
|...........|...........|...........|...........|...........|...........|...........|...........|...........|...........|...........|...........|...........|...........|...........|...........|...........|...........|...........|...........|...........|...........|...........|...........|...........|...........|...........|...........
|...........|...........|A-406......|F#406......|D-406......|G-306......|...........|...........|...........|...........|...........|...........|...........|...........|...........|...........|...........|...........|C#611......|...........|...........|...........|...........|...........|...........|...........|...........|...........
|...........|...........|...........|...........|...........|...........|...........|...........|...........|...........|...........|...........|...........|...........|...........|...........|...........|...........|...........|...........|...........|...........|...........|...........|...........|...........|...........|...........
|...........|...........|...........|...........|...........|...........|...........|...........|...........|...........|...........|...........|...........|...........|...........|...........|...........|...........|...........|...........|...........|...........|...........|...........|...........|...........|...........|...........
|...........|...........|...........|...........|...........|...........|...........|...........|...........|...........|G-404......|C-503......|G-525......|...........|...........|C-519......|...........|...........|D-611......|...........|...........|...........|...........|...........|...........|...........|...........|...........
|...........|...........|...........|...........|...........|...........|...........|...........|...........|...........|...........|...........|...........|...........|...........|...........|...........|...........|...........|...........|...........|...........|...........|...........|...........|...........|...........|...........
|...........|...........|...........|...........|...........|...........|...........|...........|...........|...........|...........|...........|...........|...........|...........|...........|...........|...........|...........|...........|...........|...........|...........|...........|...........|...........|...........|...........
|...........|...........|...........|...........|...........|...........|...........|...........|...........|...........|...........|...........|...........|...........|...........|...........|...........|...........|...........|...........|...........|...........|...........|...........|...........|...........|...........|...........
|...........|...........|...........|...........|...........|...........|...........|...........|...........|...........|...........|...........|...........|...........|...........|...........|...........|...........|...........|...........|...........|...........|...........|...........|...........|...........|...........|...........
|...........|...........|...........|...........|...........|...........|...........|...........|...........|...........|C-403......|...........|...........|...........|...........|...........|...........|...........|E-611......|...........|...........|...........|...........|...........|...........|...........|...........|...........
|...........|...........|...........|...........|...........|...........|...........|...........|...........|...........|...........|...........|...........|...........|...........|...........|...........|...........|...........|...........|...........|...........|...........|...........|...........|...........|...........|...........
|...........|...........|...........|...........|...........|...........|...........|...........|...........|...........|...........|...........|...........|...........|...........|...........|...........|...........|...........|...........|...........|...........|...........|...........|...........|...........|...........|...........
Rows: 64
|...........|A-302......|B-406......|F#406......|C#406......|G-306......|...........|...........|...........|...........|...........|C-403......|...........|...........|...........|C-519......|...........|...........|...........|...........|...........|...........|...........|...........|...........|...........|...........|...........
|...........|...........|...........|...........|...........|...........|...........|...........|...........|...........|...........|...........|...........|...........|...........|...........|...........|...........|...........|...........|...........|...........|...........|...........|...........|...........|...........|...........
|...........|...........|...........|...........|...........|...........|...........|...........|...........|...........|...........|...........|...........|...........|...........|...........|...........|...........|...........|...........|...........|...........|...........|...........|...........|...........|...........|...........
|...........|...........|...........|...........|...........|...........|...........|...........|...........|...........|...........|...........|...........|...........|...........|...........|...........|...........|...........|...........|...........|...........|...........|...........|...........|...........|...........|...........
|...........|...........|...........|...........|...........|...........|...........|...........|...........|...........|...........|...........|...........|...........|...........|...........|...........|...........|...........|...........|...........|...........|...........|...........|...........|...........|...........|...........
|...........|...........|...........|...........|...........|...........|...........|...........|...........|...........|...........|...........|...........|...........|...........|...........|...........|...........|...........|...........|...........|...........|...........|...........|...........|...........|...........|...........
|...........|...........|...........|...........|...........|...........|...........|...........|...........|...........|...........|...........|...........|...........|...........|...........|...........|...........|...........|...........|...........|...........|...........|...........|...........|...........|...........|...........
|...........|...........|...........|...........|...........|...........|...........|...........|...........|...........|...........|...........|...........|...........|...........|...........|...........|...........|...........|...........|...........|...........|...........|...........|...........|...........|...........|...........
|...........|...........|...........|...........|...........|...........|...........|...........|...........|...........|C-503......|G-404......|C-526......|...........|...........|C-519......|...........|B-610......|...........|...........|...........|...........|...........|...........|...........|...........|...........|...........
|...........|...........|...........|...........|...........|...........|...........|...........|...........|...........|...........|...........|...........|...........|...........|...........|...........|...........|...........|...........|...........|...........|...........|...........|...........|...........|...........|...........
|...........|...........|...........|...........|...........|...........|...........|...........|...........|...........|...........|...........|...........|...........|...........|...........|...........|...........|...........|...........|...........|...........|...........|...........|...........|...........|...........|...........
|...........|...........|...........|...........|...........|...........|...........|...........|...........|...........|...........|...........|...........|...........|...........|...........|...........|...........|...........|...........|...........|...........|...........|...........|...........|...........|...........|...........
|...........|...........|...........|...........|...........|...........|...........|...........|...........|...........|...........|...........|...........|...........|...........|...........|...........|^^^........|...........|...........|...........|...........|...........|...........|...........|...........|...........|...........
|...........|...........|...........|...........|...........|...........|...........|...........|...........|...........|...........|C-403......|...........|...........|...........|...........|...........|...........|...........|...........|...........|...........|...........|...........|...........|...........|...........|...........
|...........|...........|...........|...........|...........|...........|...........|...........|...........|...........|...........|...........|...........|...........|...........|...........|...........|...........|...........|...........|...........|...........|...........|...........|...........|...........|...........|...........
|...........|...........|...........|...........|...........|...........|...........|...........|...........|...........|...........|...........|...........|...........|...........|...........|...........|...........|...........|...........|...........|...........|...........|...........|...........|...........|...........|...........
|...........|E-302......|...........|...........|...........|...........|...........|...........|...........|...........|C-403......|...........|...........|...........|...........|F-518......|...........|B-510......|...........|...........|...........|...........|...........|...........|...........|...........|...........|...........
|...........|...........|...........|...........|...........|...........|...........|...........|...........|...........|...........|...........|...........|...........|...........|...........|...........|...........|...........|...........|...........|...........|...........|...........|...........|...........|...........|...........
|...........|...........|...........|...........|...........|...........|...........|...........|...........|...........|...........|...........|...........|...........|...........|...........|...........|...........|...........|...........|...........|...........|...........|...........|...........|...........|...........|...........
|...........|...........|...........|...........|...........|...........|...........|...........|...........|...........|...........|...........|...........|...........|...........|...........|...........|^^^........|...........|...........|...........|...........|...........|...........|...........|...........|...........|...........
|...........|...........|...........|...........|...........|...........|...........|...........|...........|...........|...........|...........|...........|...........|...........|...........|...........|...........|...........|...........|...........|...........|...........|...........|...........|...........|...........|...........
|...........|...........|...........|...........|...........|...........|...........|...........|...........|...........|...........|...........|...........|...........|...........|...........|...........|...........|F#611......|...........|...........|...........|...........|...........|...........|...........|...........|...........
|...........|...........|...........|...........|...........|...........|...........|...........|...........|...........|...........|...........|...........|...........|...........|...........|...........|...........|...........|...........|...........|...........|...........|...........|...........|...........|...........|...........
|...........|...........|...........|...........|...........|...........|...........|...........|...........|...........|...........|...........|...........|...........|...........|...........|...........|...........|...........|...........|...........|...........|...........|...........|...........|...........|...........|...........
|...........|...........|...........|...........|...........|...........|...........|...........|...........|...........|G-404......|C-503......|G-525......|...........|...........|...........|E-711......|C-610......|G-611......|...........|...........|...........|...........|...........|...........|...........|...........|...........
|...........|...........|...........|...........|...........|...........|...........|...........|...........|...........|...........|...........|...........|...........|...........|...........|...........|...........|...........|...........|...........|...........|...........|...........|...........|...........|...........|...........
|...........|...........|...........|...........|...........|...........|...........|...........|...........|...........|...........|...........|...........|...........|...........|...........|^^^........|...........|...........|...........|...........|...........|...........|...........|...........|...........|...........|...........
|...........|...........|...........|...........|...........|...........|...........|...........|...........|...........|...........|...........|...........|...........|...........|...........|...........|...........|...........|...........|...........|...........|...........|...........|...........|...........|...........|...........
|...........|...........|...........|...........|...........|...........|...........|...........|...........|...........|...........|...........|...........|...........|...........|...........|...........|...........|...........|...........|...........|...........|...........|...........|...........|...........|...........|...........
|...........|...........|...........|...........|...........|...........|...........|...........|...........|...........|C-403......|...........|...........|...........|...........|F-518......|...........|C#610......|A-611......|...........|...........|...........|...........|...........|...........|...........|...........|...........
|...........|...........|...........|...........|...........|...........|...........|...........|...........|...........|...........|...........|...........|...........|...........|...........|...........|...........|...........|...........|...........|...........|...........|...........|...........|...........|...........|...........
|...........|...........|...........|...........|...........|...........|...........|...........|...........|...........|...........|...........|...........|...........|...........|...........|...........|...........|...........|...........|...........|...........|...........|...........|...........|...........|...........|...........
|...........|F#302......|...........|...........|...........|...........|...........|...........|...........|...........|...........|C-403......|...........|...........|...........|...........|C#711......|^^^........|...........|...........|...........|...........|...........|...........|...........|...........|...........|...........
|...........|...........|...........|...........|...........|...........|...........|...........|...........|...........|...........|...........|...........|...........|...........|...........|...........|...........|...........|...........|...........|...........|...........|...........|...........|...........|...........|...........
|...........|...........|...........|...........|...........|...........|...........|...........|...........|...........|...........|...........|...........|...........|...........|...........|^^^........|...........|...........|...........|...........|...........|...........|...........|...........|...........|...........|...........
|...........|...........|...........|...........|...........|...........|...........|...........|...........|...........|...........|...........|...........|...........|...........|...........|...........|...........|...........|...........|...........|...........|...........|...........|...........|...........|...........|...........
|...........|...........|...........|...........|...........|...........|...........|...........|...........|...........|...........|...........|...........|...........|...........|...........|...........|...........|...........|...........|...........|...........|...........|...........|...........|...........|...........|...........
|...........|...........|...........|...........|...........|...........|...........|...........|...........|...........|...........|...........|...........|...........|...........|...........|...........|...........|...........|...........|...........|...........|...........|...........|...........|...........|...........|...........
|...........|...........|...........|...........|...........|...........|...........|...........|...........|...........|...........|...........|...........|...........|...........|...........|...........|...........|...........|...........|...........|...........|...........|...........|...........|...........|...........|...........
|...........|...........|...........|...........|...........|...........|...........|...........|...........|...........|...........|...........|...........|...........|...........|...........|...........|...........|...........|...........|...........|...........|...........|...........|...........|...........|...........|...........
|...........|...........|C#506......|A-406......|E-406......|B-306......|...........|...........|...........|...........|C-503......|G-404......|C-526......|...........|...........|C-519......|A-611......|C#710......|...........|...........|...........|...........|...........|...........|...........|...........|...........|...........
|...........|...........|...........|...........|...........|...........|...........|...........|...........|...........|...........|...........|...........|...........|...........|...........|...........|...........|...........|...........|...........|...........|...........|...........|...........|...........|...........|...........
|...........|...........|...........|...........|...........|...........|...........|...........|...........|...........|...........|...........|...........|...........|...........|...........|^^^........|...........|...........|...........|...........|...........|...........|...........|...........|...........|...........|...........
|...........|...........|...........|...........|...........|...........|...........|...........|...........|...........|...........|...........|...........|...........|...........|...........|...........|^^^........|...........|...........|...........|...........|...........|...........|...........|...........|...........|...........
|...........|...........|...........|...........|...........|...........|...........|...........|...........|...........|...........|...........|...........|...........|...........|...........|...........|...........|...........|...........|...........|...........|...........|...........|...........|...........|...........|...........
|...........|...........|...........|...........|...........|...........|...........|...........|...........|...........|...........|C-403......|...........|...........|...........|...........|...........|...........|...........|...........|...........|...........|...........|...........|...........|...........|...........|...........
|...........|...........|...........|...........|...........|...........|...........|...........|...........|...........|...........|...........|...........|...........|...........|...........|...........|...........|...........|...........|...........|...........|...........|...........|...........|...........|...........|...........
|...........|...........|...........|...........|...........|...........|...........|...........|...........|...........|...........|...........|...........|...........|...........|...........|...........|...........|...........|...........|...........|...........|...........|...........|...........|...........|...........|...........
|...........|C#402......|...........|...........|...........|...........|...........|...........|...........|...........|C-403......|...........|...........|...........|...........|F-518......|E-611......|B-610......|...........|...........|...........|...........|...........|...........|...........|...........|...........|...........
|...........|...........|...........|...........|...........|...........|...........|...........|...........|...........|...........|...........|...........|...........|...........|...........|...........|...........|...........|...........|...........|...........|...........|...........|...........|...........|...........|...........
|...........|...........|...........|...........|...........|...........|...........|...........|...........|...........|...........|...........|...........|...........|...........|...........|...........|...........|...........|...........|...........|...........|...........|...........|...........|...........|...........|...........
|...........|...........|...........|...........|...........|...........|...........|...........|...........|...........|...........|...........|...........|...........|...........|...........|...........|^^^........|...........|...........|...........|...........|...........|...........|...........|...........|...........|...........
|...........|...........|...........|...........|...........|...........|...........|...........|...........|...........|...........|...........|...........|...........|...........|...........|...........|...........|...........|...........|...........|...........|...........|...........|...........|...........|...........|...........
|...........|...........|D-506......|A-406......|F#406......|C#406......|...........|...........|...........|...........|...........|...........|...........|...........|...........|...........|...........|...........|...........|...........|...........|...........|...........|...........|...........|...........|...........|...........
|...........|...........|...........|...........|...........|...........|...........|...........|...........|...........|...........|...........|...........|...........|...........|...........|...........|...........|...........|...........|...........|...........|...........|...........|...........|...........|...........|...........
|...........|...........|...........|...........|...........|...........|...........|...........|...........|...........|...........|...........|...........|...........|...........|...........|...........|...........|...........|...........|...........|...........|...........|...........|...........|...........|...........|...........
|...........|...........|...........|...........|...........|...........|...........|...........|...........|...........|G-404......|C-503......|G-525......|...........|...........|C-519......|C#611......|A-610......|...........|...........|...........|...........|...........|...........|...........|...........|...........|...........
|...........|...........|...........|...........|...........|...........|...........|...........|...........|...........|...........|...........|...........|...........|...........|...........|...........|...........|...........|...........|...........|...........|...........|...........|...........|...........|...........|...........
|...........|...........|...........|...........|...........|...........|...........|...........|...........|...........|...........|...........|...........|...........|...........|...........|...........|...........|...........|...........|...........|...........|...........|...........|...........|...........|...........|...........
|...........|...........|...........|...........|...........|...........|...........|...........|...........|...........|...........|...........|...........|...........|...........|...........|...........|...........|...........|...........|...........|...........|...........|...........|...........|...........|...........|...........
|...........|...........|...........|...........|...........|...........|...........|...........|...........|...........|...........|...........|...........|...........|...........|...........|...........|...........|...........|...........|...........|...........|...........|...........|...........|...........|...........|...........
|...........|...........|...........|...........|...........|...........|...........|...........|...........|...........|C-403......|...........|...........|...........|...........|...........|...........|E-610......|...........|...........|...........|...........|...........|...........|...........|...........|...........|...........
|...........|...........|...........|...........|...........|...........|...........|...........|...........|...........|...........|...........|...........|...........|...........|...........|...........|...........|...........|...........|...........|...........|...........|...........|...........|...........|...........|...........
|...........|...........|...........|...........|...........|...........|...........|...........|...........|...........|...........|...........|...........|...........|...........|...........|...........|........F10|...........|...........|...........|...........|...........|...........|...........|...........|...........|...........
Rows: 64
|...........|B-302......|E-506......|A-406......|F#406......|D-406......|...........|...........|...........|...........|...........|C-403......|...........|...........|...........|...........|...........|...........|...........|...........|...........|...........|...........|...........|...........|...........|...........|...........
|...........|...........|...........|...........|...........|...........|...........|...........|...........|...........|...........|...........|...........|...........|...........|...........|...........|...........|...........|...........|...........|...........|...........|...........|...........|...........|...........|...........
|...........|...........|...........|...........|...........|...........|...........|...........|...........|...........|...........|...........|...........|...........|...........|...........|...........|...........|...........|...........|...........|...........|...........|...........|...........|...........|...........|...........
|...........|...........|...........|...........|...........|...........|...........|...........|...........|...........|...........|...........|...........|...........|...........|...........|...........|...........|...........|...........|...........|...........|...........|...........|...........|...........|...........|...........
|...........|...........|...........|...........|...........|...........|...........|...........|...........|...........|...........|...........|...........|...........|...........|...........|...........|...........|...........|...........|...........|...........|...........|...........|...........|...........|...........|...........
|...........|...........|...........|...........|...........|...........|...........|...........|...........|...........|...........|...........|...........|...........|...........|...........|...........|...........|...........|...........|...........|...........|...........|...........|...........|...........|...........|...........
|...........|...........|...........|...........|...........|...........|...........|...........|...........|...........|...........|...........|...........|...........|...........|...........|...........|...........|...........|...........|...........|...........|...........|...........|...........|...........|...........|...........
|...........|...........|...........|...........|...........|...........|...........|...........|...........|...........|...........|...........|...........|...........|...........|...........|...........|...........|...........|...........|...........|...........|...........|...........|...........|...........|...........|...........
|...........|...........|...........|...........|...........|...........|...........|...........|...........|...........|C-503......|G-404......|C-526......|...........|...........|C-519......|D-611......|...........|...........|...........|...........|...........|...........|...........|...........|...........|...........|...........
|...........|...........|...........|...........|...........|...........|...........|...........|...........|...........|...........|...........|...........|...........|...........|...........|...........|...........|...........|...........|...........|...........|...........|...........|...........|...........|...........|...........
|...........|...........|...........|...........|...........|...........|...........|...........|...........|...........|...........|...........|...........|...........|...........|...........|...........|...........|...........|...........|...........|...........|...........|...........|...........|...........|...........|...........
|...........|...........|...........|...........|...........|...........|...........|...........|...........|...........|...........|...........|...........|...........|...........|...........|...........|...........|...........|...........|...........|...........|...........|...........|...........|...........|...........|...........
|...........|...........|...........|...........|...........|...........|...........|...........|...........|...........|...........|...........|...........|...........|...........|...........|...........|...........|...........|...........|...........|...........|...........|...........|...........|...........|...........|...........
|...........|...........|...........|...........|...........|...........|...........|...........|...........|...........|...........|C-403......|...........|...........|...........|...........|...........|...........|...........|...........|...........|...........|...........|...........|...........|...........|...........|...........
|...........|...........|...........|...........|...........|...........|...........|...........|...........|...........|...........|...........|...........|...........|...........|...........|...........|...........|...........|...........|...........|...........|...........|...........|...........|...........|...........|...........
|...........|...........|...........|...........|...........|...........|...........|...........|...........|...........|...........|...........|...........|...........|...........|...........|...........|...........|...........|...........|...........|...........|...........|...........|...........|...........|...........|...........
|...........|F#302......|...........|...........|...........|...........|...........|...........|...........|...........|C-403......|...........|...........|...........|...........|F-518......|E-611......|...........|...........|...........|...........|...........|...........|...........|...........|...........|...........|...........
|...........|...........|...........|...........|...........|...........|...........|...........|...........|...........|...........|...........|...........|...........|...........|...........|...........|...........|...........|...........|...........|...........|...........|...........|...........|...........|...........|...........
|...........|...........|...........|...........|...........|...........|...........|...........|...........|...........|...........|...........|...........|...........|...........|...........|...........|...........|...........|...........|...........|...........|...........|...........|...........|...........|...........|...........
|...........|...........|...........|...........|...........|...........|...........|...........|...........|...........|...........|...........|...........|...........|...........|...........|...........|...........|...........|...........|...........|...........|...........|...........|...........|...........|...........|...........
|...........|...........|...........|...........|...........|...........|...........|...........|...........|...........|...........|...........|...........|...........|...........|...........|...........|...........|...........|...........|...........|...........|...........|...........|...........|...........|...........|...........
|...........|...........|...........|...........|...........|...........|...........|...........|...........|...........|...........|...........|...........|...........|...........|...........|...........|...........|G#511......|...........|...........|...........|...........|...........|...........|...........|...........|...........
|...........|...........|...........|...........|...........|...........|...........|...........|...........|...........|...........|...........|...........|...........|...........|...........|...........|...........|...........|...........|...........|...........|...........|...........|...........|...........|...........|...........
|...........|...........|...........|...........|...........|...........|...........|...........|...........|...........|...........|...........|...........|...........|...........|...........|...........|...........|...........|...........|...........|...........|...........|...........|...........|...........|...........|...........
|...........|...........|...........|...........|...........|...........|...........|...........|...........|...........|G-404......|C-503......|G-525......|...........|...........|...........|F#611......|...........|F#511......|...........|...........|...........|...........|...........|...........|...........|...........|...........
|...........|...........|...........|...........|...........|...........|...........|...........|...........|...........|...........|...........|...........|...........|...........|...........|...........|...........|...........|...........|...........|...........|...........|...........|...........|...........|...........|...........
|...........|...........|...........|...........|...........|...........|...........|...........|...........|...........|...........|...........|...........|...........|...........|...........|...........|...........|...........|...........|...........|...........|...........|...........|...........|...........|...........|...........
|...........|...........|...........|...........|...........|...........|...........|...........|...........|...........|...........|...........|...........|...........|...........|...........|...........|...........|...........|...........|...........|...........|...........|...........|...........|...........|...........|...........
|...........|...........|...........|...........|...........|...........|...........|...........|...........|...........|...........|...........|...........|...........|...........|...........|...........|...........|...........|...........|...........|...........|...........|...........|...........|...........|...........|...........
|...........|...........|...........|...........|...........|...........|...........|...........|...........|...........|C-403......|...........|...........|...........|...........|F-518......|...........|...........|G#511......|...........|...........|...........|...........|...........|...........|...........|...........|...........
|...........|...........|...........|...........|...........|...........|...........|...........|...........|...........|...........|...........|...........|...........|...........|...........|...........|...........|...........|...........|...........|...........|...........|...........|...........|...........|...........|...........
|...........|...........|...........|...........|...........|...........|...........|...........|...........|...........|...........|...........|...........|...........|...........|...........|...........|...........|...........|...........|...........|...........|...........|...........|...........|...........|...........|...........
|...........|E-302......|...........|...........|...........|...........|...........|...........|...........|...........|...........|C-403......|...........|...........|...........|...........|...........|...........|...........|...........|...........|...........|...........|...........|...........|...........|...........|...........
|...........|...........|...........|...........|...........|...........|...........|...........|...........|...........|...........|...........|...........|...........|...........|...........|...........|...........|...........|...........|...........|...........|...........|...........|...........|...........|...........|...........
|...........|...........|...........|...........|...........|...........|...........|...........|...........|...........|...........|...........|...........|...........|...........|...........|...........|...........|...........|...........|...........|...........|...........|...........|...........|...........|...........|...........
|...........|...........|...........|...........|...........|...........|...........|...........|...........|...........|...........|...........|...........|...........|...........|...........|...........|...........|...........|...........|...........|...........|...........|...........|...........|...........|...........|...........
|...........|...........|...........|...........|...........|...........|...........|...........|...........|...........|...........|...........|...........|...........|...........|...........|...........|...........|...........|...........|...........|...........|...........|...........|...........|...........|...........|...........
|...........|...........|...........|...........|...........|...........|...........|...........|...........|...........|...........|...........|...........|...........|...........|...........|...........|...........|...........|...........|...........|...........|...........|...........|...........|...........|...........|...........
|...........|...........|...........|...........|...........|...........|...........|...........|...........|...........|...........|...........|...........|...........|...........|...........|...........|...........|...........|...........|...........|...........|...........|...........|...........|...........|...........|...........
|...........|...........|...........|...........|...........|...........|...........|...........|...........|...........|...........|...........|...........|...........|...........|...........|...........|...........|...........|...........|...........|...........|...........|...........|...........|...........|...........|...........
|...........|...........|C#506......|F#406......|D-406......|G#306......|...........|...........|...........|...........|C-503......|G-404......|C-526......|...........|...........|C-519......|F#611......|B-610......|...........|...........|...........|...........|...........|...........|...........|...........|...........|...........
|...........|...........|...........|...........|...........|...........|...........|...........|...........|...........|...........|...........|...........|...........|...........|...........|...........|...........|...........|...........|...........|...........|...........|...........|...........|...........|...........|...........
|...........|...........|...........|...........|...........|...........|...........|...........|...........|...........|...........|...........|...........|...........|...........|...........|........F10|...........|...........|...........|...........|...........|...........|...........|...........|...........|...........|...........
|...........|...........|...........|...........|...........|...........|...........|...........|...........|...........|...........|...........|...........|...........|...........|...........|...........|...........|...........|...........|...........|...........|...........|...........|...........|...........|...........|...........
|...........|...........|...........|...........|...........|...........|...........|...........|...........|...........|...........|...........|...........|...........|...........|...........|...........|^^^........|...........|...........|...........|...........|...........|...........|...........|...........|...........|...........
|...........|...........|...........|...........|...........|...........|...........|...........|...........|...........|...........|C-403......|...........|...........|...........|...........|...........|...........|...........|...........|...........|...........|...........|...........|...........|...........|...........|...........
|...........|...........|...........|...........|...........|...........|...........|...........|...........|...........|...........|...........|...........|...........|...........|...........|...........|...........|...........|...........|...........|...........|...........|...........|...........|...........|...........|...........
|...........|...........|...........|...........|...........|...........|...........|...........|...........|...........|...........|...........|...........|...........|...........|...........|...........|...........|...........|...........|...........|...........|...........|...........|...........|...........|...........|...........
|...........|B-302......|...........|...........|...........|...........|...........|...........|...........|...........|C-403......|...........|...........|...........|...........|F-518......|A-611......|B-510......|...........|...........|...........|...........|...........|...........|...........|...........|...........|...........
|...........|...........|...........|...........|...........|...........|...........|...........|...........|...........|...........|...........|...........|...........|...........|...........|...........|...........|...........|...........|...........|...........|...........|...........|...........|...........|...........|...........
|...........|...........|...........|...........|...........|...........|...........|...........|...........|...........|...........|...........|...........|...........|...........|...........|...........|...........|...........|...........|...........|...........|...........|...........|...........|...........|...........|...........
|...........|...........|...........|...........|...........|...........|...........|...........|...........|...........|...........|...........|...........|...........|...........|...........|...........|...........|...........|...........|...........|...........|...........|...........|...........|...........|...........|...........
|...........|...........|...........|...........|...........|...........|...........|...........|...........|...........|...........|...........|...........|...........|...........|...........|^^^........|...........|...........|...........|...........|...........|...........|...........|...........|...........|...........|...........
|...........|...........|E-506......|D-406......|G#406......|C#506......|...........|...........|...........|...........|...........|...........|...........|...........|...........|...........|...........|...........|C#611......|...........|...........|...........|...........|...........|...........|...........|...........|...........
|...........|...........|...........|...........|...........|...........|...........|...........|...........|...........|...........|...........|...........|...........|...........|...........|...........|...........|...........|...........|...........|...........|...........|...........|...........|...........|...........|...........
|...........|...........|...........|...........|...........|...........|...........|...........|...........|...........|...........|...........|...........|...........|...........|...........|...........|...........|...........|...........|...........|...........|...........|...........|...........|...........|...........|...........
|...........|...........|...........|...........|...........|...........|...........|...........|...........|...........|G-404......|C-503......|G-525......|...........|...........|C-519......|B-611......|...........|B-511......|...........|...........|...........|...........|...........|...........|...........|...........|...........
|...........|...........|...........|...........|...........|...........|...........|...........|...........|...........|...........|...........|...........|...........|...........|...........|...........|...........|...........|...........|...........|...........|...........|...........|...........|...........|...........|...........
|...........|...........|...........|...........|...........|...........|...........|...........|...........|...........|...........|...........|...........|...........|...........|...........|...........|...........|...........|...........|...........|...........|...........|...........|...........|...........|...........|...........
|...........|...........|...........|...........|...........|...........|...........|...........|...........|...........|...........|...........|...........|...........|...........|...........|...........|...........|...........|...........|...........|...........|...........|...........|...........|...........|...........|...........
|...........|...........|...........|...........|...........|...........|...........|...........|...........|...........|...........|...........|...........|...........|...........|...........|...........|...........|...........|...........|...........|...........|...........|...........|...........|...........|...........|...........
|...........|...........|...........|...........|...........|...........|...........|...........|...........|...........|C-403......|...........|...........|...........|...........|...........|...........|...........|C#611......|...........|...........|...........|...........|...........|...........|...........|...........|...........
|...........|...........|...........|...........|...........|...........|...........|...........|...........|...........|...........|...........|...........|...........|...........|...........|...........|...........|...........|...........|...........|...........|...........|...........|...........|...........|...........|...........
|...........|...........|...........|...........|...........|...........|...........|...........|...........|...........|...........|...........|...........|...........|...........|...........|...........|...........|...........|...........|...........|...........|...........|...........|...........|...........|...........|...........
Rows: 64
|...........|A-302......|G#406......|E-406......|B-306......|F#306......|...........|...........|...........|...........|...........|C-403......|...........|...........|...........|C-519......|...........|...........|...........|...........|...........|...........|...........|...........|...........|...........|...........|...........
|...........|...........|...........|...........|...........|...........|...........|...........|...........|...........|...........|...........|...........|...........|...........|...........|...........|...........|...........|...........|...........|...........|...........|...........|...........|...........|...........|...........
|...........|...........|...........|...........|...........|...........|...........|...........|...........|...........|...........|...........|...........|...........|...........|...........|...........|...........|...........|...........|...........|...........|...........|...........|...........|...........|...........|...........
|...........|...........|...........|...........|...........|...........|...........|...........|...........|...........|...........|...........|...........|...........|...........|...........|...........|...........|...........|...........|...........|...........|...........|...........|...........|...........|...........|...........
|...........|...........|...........|...........|...........|...........|...........|...........|...........|...........|...........|...........|...........|...........|...........|...........|...........|...........|...........|...........|...........|...........|...........|...........|...........|...........|...........|...........
|...........|...........|...........|...........|...........|...........|...........|...........|...........|...........|...........|...........|...........|...........|...........|...........|...........|...........|...........|...........|...........|...........|...........|...........|...........|...........|...........|...........
|...........|...........|...........|...........|...........|...........|...........|...........|...........|...........|...........|...........|...........|...........|...........|...........|...........|...........|...........|...........|...........|...........|...........|...........|...........|...........|...........|...........
|...........|...........|...........|...........|...........|...........|...........|...........|...........|...........|...........|...........|...........|...........|...........|...........|...........|...........|...........|...........|...........|...........|...........|...........|...........|...........|...........|...........
|...........|...........|...........|...........|...........|...........|...........|...........|...........|...........|C-503......|G-404......|C-526......|...........|...........|C-519......|E-611......|...........|...........|...........|...........|...........|...........|...........|...........|...........|...........|...........
|...........|...........|...........|...........|...........|...........|...........|...........|...........|...........|...........|...........|...........|...........|...........|...........|...........|...........|...........|...........|...........|...........|...........|...........|...........|...........|...........|...........
|...........|...........|...........|...........|...........|...........|...........|...........|...........|...........|...........|...........|...........|...........|...........|...........|...........|...........|...........|...........|...........|...........|...........|...........|...........|...........|...........|...........
|...........|...........|...........|...........|...........|...........|...........|...........|...........|...........|...........|...........|...........|...........|...........|...........|...........|...........|...........|...........|...........|...........|...........|...........|...........|...........|...........|...........
|...........|...........|...........|...........|...........|...........|...........|...........|...........|...........|...........|...........|...........|...........|...........|...........|^^^........|...........|...........|...........|...........|...........|...........|...........|...........|...........|...........|...........
|...........|...........|...........|...........|...........|...........|...........|...........|...........|...........|...........|C-403......|...........|...........|...........|...........|...........|...........|...........|...........|...........|...........|...........|...........|...........|...........|...........|...........
|...........|...........|...........|...........|...........|...........|...........|...........|...........|...........|...........|...........|...........|...........|...........|...........|...........|...........|...........|...........|...........|...........|...........|...........|...........|...........|...........|...........
|...........|...........|...........|...........|...........|...........|...........|...........|...........|...........|...........|...........|...........|...........|...........|...........|...........|...........|...........|...........|...........|...........|...........|...........|...........|...........|...........|...........
|...........|G#302......|...........|...........|...........|...........|...........|...........|...........|...........|C-403......|...........|...........|...........|...........|F-518......|B-611......|...........|...........|...........|...........|...........|...........|...........|...........|...........|...........|...........
|...........|...........|...........|...........|...........|...........|...........|...........|...........|...........|...........|...........|...........|...........|...........|...........|...........|...........|...........|...........|...........|...........|...........|...........|...........|...........|...........|...........
|...........|...........|...........|...........|...........|...........|...........|...........|...........|...........|...........|...........|...........|...........|...........|...........|........F10|...........|...........|...........|...........|...........|...........|...........|...........|...........|...........|...........
|...........|...........|...........|...........|...........|...........|...........|...........|...........|...........|...........|...........|...........|...........|...........|...........|...........|...........|...........|...........|...........|...........|...........|...........|...........|...........|...........|...........
|...........|...........|...........|...........|...........|...........|...........|...........|...........|...........|...........|...........|...........|...........|...........|...........|...........|...........|...........|...........|...........|...........|...........|...........|...........|...........|...........|...........
|...........|...........|...........|...........|...........|...........|...........|...........|...........|...........|...........|...........|...........|...........|...........|...........|...........|F#510......|...........|...........|...........|...........|...........|...........|...........|...........|...........|...........
|...........|...........|...........|...........|...........|...........|...........|...........|...........|...........|...........|...........|...........|...........|...........|...........|...........|...........|...........|...........|...........|...........|...........|...........|...........|...........|...........|...........
|...........|...........|...........|...........|...........|...........|...........|...........|...........|...........|...........|...........|...........|...........|...........|...........|...........|...........|...........|...........|...........|...........|...........|...........|...........|...........|...........|...........
|...........|...........|...........|...........|...........|...........|...........|...........|...........|...........|G-404......|C-503......|G-525......|...........|...........|...........|...........|E-510......|...........|A-511......|...........|...........|...........|...........|...........|...........|...........|...........
|...........|...........|...........|...........|...........|...........|...........|...........|...........|...........|...........|...........|...........|...........|...........|...........|...........|...........|...........|...........|...........|...........|...........|...........|...........|...........|...........|...........
|...........|...........|...........|...........|...........|...........|...........|...........|...........|...........|...........|...........|...........|...........|...........|...........|...........|...........|...........|...........|...........|...........|...........|...........|...........|...........|...........|...........
|...........|...........|...........|...........|...........|...........|...........|...........|...........|...........|...........|...........|...........|...........|...........|...........|...........|...........|...........|...........|...........|...........|...........|...........|...........|...........|...........|...........
|...........|...........|...........|...........|...........|...........|...........|...........|...........|...........|...........|...........|...........|...........|...........|...........|...........|...........|...........|^^^........|...........|...........|...........|...........|...........|...........|...........|...........
|...........|...........|...........|...........|...........|...........|...........|...........|...........|...........|C-403......|...........|...........|...........|...........|F-518......|...........|F#510......|...........|...........|...........|...........|...........|...........|...........|...........|...........|...........
|...........|...........|...........|...........|...........|...........|...........|...........|...........|...........|...........|...........|...........|...........|...........|...........|...........|...........|...........|...........|...........|...........|...........|...........|...........|...........|...........|...........
|...........|...........|...........|...........|...........|...........|...........|...........|...........|...........|...........|...........|...........|...........|...........|...........|...........|...........|...........|...........|...........|...........|...........|...........|...........|...........|...........|...........
|...........|F#302......|...........|...........|...........|...........|...........|...........|...........|...........|...........|C-403......|...........|...........|...........|...........|...........|...........|...........|A-411......|...........|...........|...........|...........|...........|...........|...........|...........
|...........|...........|...........|...........|...........|...........|...........|...........|...........|...........|...........|...........|...........|...........|...........|...........|...........|...........|...........|...........|...........|...........|...........|...........|...........|...........|...........|...........
|...........|...........|...........|...........|...........|...........|...........|...........|...........|...........|...........|...........|...........|...........|...........|...........|...........|...........|...........|...........|...........|...........|...........|...........|...........|...........|...........|...........
|...........|...........|...........|...........|...........|...........|...........|...........|...........|...........|...........|...........|...........|...........|...........|...........|...........|...........|...........|...........|...........|...........|...........|...........|...........|...........|...........|...........
|...........|...........|...........|...........|...........|...........|...........|...........|...........|...........|...........|...........|...........|...........|...........|...........|...........|...........|...........|...........|...........|...........|...........|...........|...........|...........|...........|...........
|...........|...........|...........|...........|...........|...........|...........|...........|...........|...........|...........|...........|...........|...........|...........|...........|...........|...........|...........|...........|...........|...........|...........|...........|...........|...........|...........|...........
|...........|...........|...........|...........|...........|...........|...........|...........|...........|...........|...........|...........|...........|...........|...........|...........|...........|...........|...........|...........|...........|...........|...........|...........|...........|...........|...........|...........
|...........|...........|...........|...........|...........|...........|...........|...........|...........|...........|...........|...........|...........|...........|...........|...........|...........|...........|...........|...........|...........|...........|...........|...........|...........|...........|...........|...........
|...........|...........|E-406......|B-306......|A-306......|G#306......|...........|...........|...........|...........|C-503......|G-404......|C-526......|...........|...........|C-519......|F#611......|G#510......|...........|B-411......|...........|...........|...........|...........|...........|...........|...........|...........
|...........|...........|...........|...........|...........|...........|...........|...........|...........|...........|...........|...........|...........|...........|...........|...........|...........|...........|...........|...........|...........|...........|...........|...........|...........|...........|...........|...........
|...........|...........|...........|...........|...........|...........|...........|...........|...........|...........|...........|...........|...........|...........|...........|...........|...........|...........|...........|...........|...........|...........|...........|...........|...........|...........|...........|...........
|...........|...........|...........|...........|...........|...........|...........|...........|...........|...........|...........|...........|...........|...........|...........|...........|...........|...........|...........|...........|...........|...........|...........|...........|...........|...........|...........|...........
|...........|...........|...........|...........|...........|...........|...........|...........|...........|...........|...........|...........|...........|...........|...........|...........|^^^........|...........|...........|...........|...........|...........|...........|...........|...........|...........|...........|...........
|...........|...........|...........|...........|...........|...........|...........|...........|...........|...........|...........|C-403......|...........|...........|...........|...........|...........|...........|...........|...........|...........|...........|...........|...........|...........|...........|...........|...........
|...........|...........|...........|...........|...........|...........|...........|...........|...........|...........|...........|...........|...........|...........|...........|...........|...........|...........|...........|...........|...........|...........|...........|...........|...........|...........|...........|...........
|...........|...........|...........|...........|...........|...........|...........|...........|...........|...........|...........|...........|...........|...........|...........|...........|...........|...........|...........|...........|...........|...........|...........|...........|...........|...........|...........|...........
|...........|B-202......|...........|...........|...........|...........|...........|...........|...........|...........|C-403......|...........|...........|...........|...........|F-518......|F#511......|A-510......|...........|C#511......|...........|...........|...........|...........|...........|...........|...........|...........
|...........|...........|...........|...........|...........|...........|...........|...........|...........|...........|...........|...........|...........|...........|...........|...........|...........|...........|...........|...........|...........|...........|...........|...........|...........|...........|...........|...........
|...........|...........|...........|...........|...........|...........|...........|...........|...........|...........|...........|...........|...........|...........|...........|...........|...........|...........|...........|...........|...........|...........|...........|...........|...........|...........|...........|...........
|...........|...........|...........|...........|...........|...........|...........|...........|...........|...........|...........|...........|...........|...........|...........|...........|...........|...........|...........|...........|...........|...........|...........|...........|...........|...........|...........|...........
|...........|...........|...........|...........|...........|...........|...........|...........|...........|...........|...........|...........|...........|...........|...........|...........|...........|...........|...........|...........|...........|...........|...........|...........|...........|...........|...........|...........
|...........|...........|C#506......|G#406......|E-406......|A-306......|...........|...........|...........|...........|...........|C-522......|...........|...........|...........|...........|...........|...........|...........|...........|...........|...........|...........|...........|...........|...........|...........|...........
|...........|...........|...........|...........|...........|...........|...........|...........|...........|...........|...........|...........|...........|...........|...........|...........|...........|...........|...........|...........|...........|...........|...........|...........|...........|...........|...........|...........
|...........|...........|...........|...........|...........|...........|...........|...........|...........|...........|...........|...........|...........|...........|...........|...........|...........|...........|...........|...........|...........|...........|...........|...........|...........|...........|...........|...........
|...........|...........|...........|...........|...........|...........|...........|...........|...........|...........|G-404......|C-503......|G-525......|...........|...........|C-518......|...........|B-510......|...........|D#511......|...........|...........|...........|...........|...........|...........|...........|...........
|...........|...........|...........|...........|...........|...........|...........|...........|...........|...........|...........|...........|...........|...........|...........|...........|...........|...........|...........|...........|...........|...........|...........|...........|...........|...........|...........|...........
|...........|...........|...........|...........|...........|...........|...........|...........|...........|...........|...........|...........|...........|...........|...........|...........|...........|...........|...........|...........|...........|...........|...........|...........|...........|...........|...........|...........
|...........|...........|...........|...........|...........|...........|...........|...........|...........|...........|...........|...........|...........|...........|...........|...........|...........|...........|...........|...........|...........|...........|...........|...........|...........|...........|...........|...........
|...........|...........|...........|...........|...........|...........|...........|...........|...........|...........|...........|...........|...........|...........|...........|C-519......|...........|...........|...........|...........|...........|...........|...........|...........|...........|...........|...........|...........
|...........|...........|...........|...........|...........|...........|...........|...........|...........|...........|C-403......|G-422......|...........|...........|...........|...........|...........|...........|...........|...........|...........|...........|...........|...........|...........|...........|...........|...........
|...........|...........|...........|...........|...........|...........|...........|...........|...........|...........|...........|...........|...........|...........|...........|...........|...........|...........|...........|...........|...........|...........|...........|...........|...........|...........|...........|...........
|...........|...........|...........|...........|...........|...........|...........|...........|...........|...........|...........|...........|...........|...........|...........|...........|...........|...........|...........|...........|...........|...........|...........|...........|...........|...........|...........|...........
Rows: 64
|...........|E-302......|B-406......|F#406......|C#406......|G#306......|...........|...........|...........|...........|...........|C-403......|...........|C-520......|...........|C-519......|...........|...........|........M3A|B-411...M40|...........|...........|...........|...........|...........|...........|...........|...........
|...........|...........|...........|...........|...........|...........|...........|...........|...........|...........|...........|...........|...........|...........|...........|...........|...........|...........|...........|...........|...........|...........|...........|...........|...........|...........|...........|...........
|...........|...........|...........|...........|...........|...........|...........|...........|...........|...........|...........|...........|...........|...........|...........|...........|...........|...........|...........|...........|...........|...........|...........|...........|...........|...........|...........|...........
|...........|...........|...........|...........|...........|...........|...........|...........|...........|...........|...........|...........|...........|...........|...........|...........|...........|...........|...........|...........|...........|...........|...........|...........|...........|...........|...........|...........
|...........|...........|...........|...........|...........|...........|...........|...........|...........|...........|...........|...........|...........|...........|...........|...........|...........|...........|...........|...........|...........|...........|...........|...........|...........|...........|...........|...........
|...........|...........|...........|...........|...........|...........|...........|...........|...........|...........|...........|...........|...........|...........|...........|...........|...........|B-510......|...........|...........|...........|...........|...........|...........|...........|...........|...........|...........
|...........|...........|...........|...........|...........|...........|...........|...........|...........|...........|...........|...........|...........|...........|...........|...........|...........|...........|...........|...........|...........|...........|...........|...........|...........|...........|...........|...........
|...........|...........|...........|...........|...........|...........|...........|...........|...........|...........|...........|...........|...........|...........|...........|...........|...........|...........|...........|...........|...........|...........|...........|...........|...........|...........|...........|...........
|...........|...........|...........|...........|...........|...........|...........|...........|...........|...........|C-503......|G-404......|C-526......|...........|...........|...........|...........|C#610......|G#510......|...........|...........|...........|...........|...........|...........|...........|...........|...........
|...........|...........|...........|...........|...........|...........|...........|...........|...........|...........|...........|...........|...........|...........|...........|...........|...........|...........|...........|...........|...........|...........|...........|...........|...........|...........|...........|...........
|...........|...........|...........|...........|...........|...........|...........|...........|...........|...........|...........|...........|...........|...........|...........|...........|...........|...........|...........|...........|...........|...........|...........|...........|...........|...........|...........|...........
|...........|...........|...........|...........|...........|...........|...........|...........|...........|...........|...........|...........|...........|...........|...........|...........|...........|...........|...........|...........|...........|...........|...........|...........|...........|...........|...........|...........
|...........|...........|...........|...........|...........|...........|...........|...........|...........|...........|...........|...........|...........|...........|...........|...........|...........|...........|^^^........|...........|...........|...........|...........|...........|...........|...........|...........|...........
|...........|...........|...........|...........|...........|...........|...........|...........|...........|...........|...........|C-403......|...........|...........|...........|...........|...........|D#610......|...........|...........|...........|...........|...........|...........|...........|...........|...........|...........
|...........|...........|...........|...........|...........|...........|...........|...........|...........|...........|...........|...........|...........|...........|...........|...........|...........|...........|...........|...........|...........|...........|...........|...........|...........|...........|...........|...........
|...........|...........|...........|...........|...........|...........|...........|...........|...........|...........|...........|...........|...........|...........|...........|...........|...........|...........|...........|...........|...........|...........|...........|...........|...........|...........|...........|...........
|...........|C#402......|E-406......|B-306......|G#306......|...........|...........|...........|...........|...........|C-403......|...........|...........|...........|...........|F-518......|...........|...........|F#510......|...........|...........|...........|...........|...........|...........|...........|...........|...........
|...........|...........|...........|...........|...........|...........|...........|...........|...........|...........|...........|...........|...........|...........|...........|...........|...........|...........|...........|...........|...........|...........|...........|...........|...........|...........|...........|...........
|...........|...........|...........|...........|...........|...........|...........|...........|...........|...........|...........|...........|...........|...........|...........|...........|...........|...........|...........|...........|...........|...........|...........|...........|...........|...........|...........|...........
|...........|...........|...........|...........|...........|...........|...........|...........|...........|...........|...........|...........|...........|...........|...........|...........|...........|...........|...........|...........|...........|...........|...........|...........|...........|...........|...........|...........
|...........|...........|...........|...........|...........|...........|...........|...........|...........|...........|...........|...........|...........|...........|...........|...........|...........|...........|^^^........|...........|...........|...........|...........|...........|...........|...........|...........|...........
|...........|...........|...........|...........|...........|...........|...........|...........|...........|...........|...........|...........|...........|...........|...........|...........|B-611......|...........|...........|...........|...........|...........|...........|...........|...........|...........|...........|...........
|...........|...........|...........|...........|...........|...........|...........|...........|...........|...........|...........|...........|...........|...........|...........|...........|...........|...........|...........|...........|...........|...........|...........|...........|...........|...........|...........|...........
|...........|...........|...........|...........|...........|...........|...........|...........|...........|...........|...........|...........|...........|...........|...........|...........|...........|...........|...........|...........|...........|...........|...........|...........|...........|...........|...........|...........
|...........|...........|...........|...........|...........|...........|...........|...........|...........|...........|G-404......|C-503......|G-525......|...........|...........|...........|........F10|F#610......|E-510......|C#511......|...........|...........|...........|...........|...........|...........|...........|...........
|...........|...........|...........|...........|...........|...........|...........|...........|...........|...........|...........|...........|...........|...........|...........|...........|...........|...........|...........|...........|...........|...........|...........|...........|...........|...........|...........|...........
|...........|...........|...........|...........|...........|...........|...........|...........|...........|...........|...........|...........|...........|...........|...........|...........|...........|...........|...........|...........|...........|...........|...........|...........|...........|...........|...........|...........
|...........|...........|...........|...........|...........|...........|...........|...........|...........|...........|...........|...........|...........|...........|...........|...........|...........|...........|...........|...........|...........|...........|...........|...........|...........|...........|...........|...........
|...........|...........|...........|...........|...........|...........|...........|...........|...........|...........|...........|...........|...........|...........|...........|...........|...........|^^^........|^^^........|^^^........|...........|...........|...........|...........|...........|...........|...........|...........
|...........|...........|...........|...........|...........|...........|...........|...........|...........|...........|C-403......|...........|...........|...........|...........|F-518......|........E10|...........|...........|...........|...........|...........|...........|...........|...........|...........|...........|...........
|...........|...........|...........|...........|...........|...........|...........|...........|...........|...........|...........|...........|...........|...........|...........|...........|...........|...........|...........|...........|...........|...........|...........|...........|...........|...........|...........|...........
|...........|...........|...........|...........|...........|...........|...........|...........|...........|...........|...........|...........|...........|...........|...........|...........|...........|...........|...........|...........|...........|...........|...........|...........|...........|...........|...........|...........
|...........|G#302......|F#306......|B-306......|D#406......|F#406......|...........|...........|...........|...........|...........|C-403......|...........|...........|...........|...........|...........|F#510......|...........|D-511......|...........|...........|...........|...........|...........|...........|...........|...........
|...........|...........|...........|...........|...........|...........|...........|...........|...........|...........|...........|...........|...........|...........|...........|...........|...........|...........|...........|...........|...........|...........|...........|...........|...........|...........|...........|...........
|...........|...........|...........|...........|...........|...........|...........|...........|...........|...........|...........|...........|...........|...........|...........|...........|...........|...........|...........|........F08|...........|...........|...........|...........|...........|...........|...........|...........
|...........|...........|...........|...........|...........|...........|...........|...........|...........|...........|...........|...........|...........|...........|...........|...........|...........|...........|...........|...........|...........|...........|...........|...........|...........|...........|...........|...........
|...........|...........|...........|...........|...........|...........|...........|...........|...........|...........|...........|...........|...........|...........|...........|...........|...........|...........|...........|...........|...........|...........|...........|...........|...........|...........|...........|...........
|...........|...........|...........|...........|...........|...........|...........|...........|...........|...........|...........|...........|...........|...........|...........|...........|...........|G#510......|...........|...........|...........|...........|...........|...........|...........|...........|...........|...........
|...........|...........|...........|...........|...........|...........|...........|...........|...........|...........|...........|...........|...........|...........|...........|...........|...........|...........|...........|...........|...........|...........|...........|...........|...........|...........|...........|...........
|...........|...........|...........|...........|...........|...........|...........|...........|...........|...........|...........|...........|...........|...........|...........|...........|...........|...........|...........|...........|...........|...........|...........|...........|...........|...........|...........|...........
|...........|...........|...........|...........|...........|...........|...........|...........|...........|...........|C-503......|G-404......|C-526......|...........|...........|C-519......|G#611......|B-510......|D#510......|...........|...........|...........|...........|...........|...........|...........|...........|...........
|...........|...........|...........|...........|...........|...........|...........|...........|...........|...........|...........|...........|...........|...........|...........|...........|...........|...........|...........|...........|...........|...........|...........|...........|...........|...........|...........|...........
|...........|...........|...........|...........|...........|...........|...........|...........|...........|...........|...........|...........|...........|...........|...........|...........|...........|...........|...........|...........|...........|...........|...........|...........|...........|...........|...........|...........
|...........|...........|...........|...........|...........|...........|...........|...........|...........|...........|...........|...........|...........|...........|...........|...........|...........|...........|...........|...........|...........|...........|...........|...........|...........|...........|...........|...........
|...........|...........|...........|...........|...........|...........|...........|...........|...........|...........|...........|...........|...........|...........|...........|...........|^^^........|...........|...........|...........|...........|...........|...........|...........|...........|...........|...........|...........
|...........|...........|...........|...........|...........|...........|...........|...........|...........|...........|...........|C-403......|...........|...........|...........|...........|...........|G#510......|...........|...........|...........|...........|...........|...........|...........|...........|...........|...........
|...........|...........|...........|...........|...........|...........|...........|...........|...........|...........|...........|...........|...........|...........|...........|...........|...........|...........|...........|...........|...........|...........|...........|...........|...........|...........|...........|...........
|...........|...........|...........|...........|...........|...........|...........|...........|...........|...........|...........|...........|...........|...........|...........|...........|...........|...........|...........|...........|...........|...........|...........|...........|...........|...........|...........|...........
|...........|C#402......|B-306......|D#406......|E-406......|G#406......|...........|...........|...........|...........|C-403......|...........|...........|...........|...........|F-518......|F#611......|...........|E-510......|E-511......|...........|...........|...........|...........|...........|...........|...........|...........
|...........|...........|...........|...........|...........|...........|...........|...........|...........|...........|...........|...........|...........|...........|...........|...........|...........|...........|...........|...........|...........|...........|...........|...........|...........|...........|...........|...........
|...........|...........|...........|...........|...........|...........|...........|...........|...........|...........|...........|...........|...........|...........|...........|...........|...........|...........|...........|...........|...........|...........|...........|...........|...........|...........|...........|...........
|...........|...........|...........|...........|...........|...........|...........|...........|...........|...........|...........|...........|...........|...........|...........|...........|...........|...........|...........|...........|...........|...........|...........|...........|...........|...........|...........|...........
|...........|...........|...........|...........|...........|...........|...........|...........|...........|...........|...........|...........|...........|...........|...........|...........|...........|...........|^^^........|...........|...........|...........|...........|...........|...........|...........|...........|...........
|...........|...........|...........|...........|...........|...........|...........|...........|...........|...........|...........|...........|...........|...........|...........|...........|E-611......|...........|...........|...........|...........|...........|...........|...........|...........|...........|...........|...........
|...........|...........|...........|...........|...........|...........|...........|...........|...........|...........|...........|...........|...........|...........|...........|...........|...........|...........|...........|...........|...........|...........|...........|...........|...........|...........|...........|...........
|...........|...........|...........|...........|...........|...........|...........|...........|...........|...........|...........|...........|...........|...........|...........|...........|...........|...........|...........|...........|...........|...........|...........|...........|...........|...........|...........|...........
|...........|...........|...........|...........|...........|...........|...........|...........|...........|...........|G-404......|C-503......|G-525......|...........|...........|C-519......|^^^........|G#610......|C#610......|...........|...........|...........|...........|...........|...........|...........|...........|...........
|...........|...........|...........|...........|...........|...........|...........|...........|...........|...........|...........|...........|...........|...........|...........|...........|...........|...........|...........|...........|...........|...........|...........|...........|...........|...........|...........|...........
|...........|...........|...........|...........|...........|...........|...........|...........|...........|...........|...........|...........|...........|...........|...........|...........|...........|...........|........E10|...........|...........|...........|...........|...........|...........|...........|...........|...........
|...........|...........|...........|...........|...........|...........|...........|...........|...........|...........|...........|...........|...........|...........|...........|...........|...........|^^^........|...........|...........|...........|...........|...........|...........|...........|...........|...........|...........
|...........|...........|...........|...........|...........|...........|...........|...........|...........|...........|...........|...........|...........|...........|...........|...........|...........|...........|...........|...........|...........|...........|...........|...........|...........|...........|...........|...........
|...........|...........|...........|...........|...........|...........|...........|...........|...........|...........|C-403......|...........|...........|...........|...........|...........|C#711......|...........|...........|F#511......|...........|...........|...........|...........|...........|...........|...........|...........
|...........|...........|...........|...........|...........|...........|...........|...........|...........|...........|...........|...........|...........|...........|...........|...........|...........|...........|...........|...........|...........|...........|...........|...........|...........|...........|...........|...........
|...........|...........|...........|...........|...........|...........|...........|...........|...........|...........|...........|...........|...........|...........|...........|...........|...........|...........|...........|...........|...........|...........|...........|...........|...........|...........|...........|...........
Rows: 64
|...........|F#302......|E-306......|A#306......|D#406......|G#406......|...........|...........|...........|...........|...........|C-403......|...........|...........|...........|C-519......|...........|D#610......|...........|...........|...........|...........|...........|...........|...........|...........|...........|...........
|...........|...........|...........|...........|...........|...........|...........|...........|...........|...........|...........|...........|...........|...........|...........|...........|...........|...........|...........|...........|...........|...........|...........|...........|...........|...........|...........|...........
|...........|...........|...........|...........|...........|...........|...........|...........|...........|...........|...........|...........|...........|...........|...........|...........|...........|...........|...........|...........|...........|...........|...........|...........|...........|...........|...........|...........
|...........|...........|...........|...........|...........|...........|...........|...........|...........|...........|...........|...........|...........|...........|...........|...........|...........|...........|...........|...........|...........|...........|...........|...........|...........|...........|...........|...........
|...........|...........|...........|...........|...........|...........|...........|...........|...........|...........|...........|...........|...........|...........|...........|...........|...........|...........|...........|...........|...........|...........|...........|...........|...........|...........|...........|...........
|...........|...........|...........|...........|...........|...........|...........|...........|...........|...........|...........|...........|...........|...........|...........|...........|...........|C#610......|...........|...........|...........|...........|...........|...........|...........|...........|...........|...........
|...........|...........|...........|...........|...........|...........|...........|...........|...........|...........|...........|...........|...........|...........|...........|...........|...........|...........|...........|...........|...........|...........|...........|...........|...........|...........|...........|...........
|...........|...........|...........|...........|...........|...........|...........|...........|...........|...........|...........|...........|...........|...........|...........|...........|...........|...........|...........|...........|...........|...........|...........|...........|...........|...........|...........|...........
|...........|...........|...........|...........|...........|...........|...........|...........|...........|...........|C-503......|G-404......|C-526......|...........|...........|...........|...........|D#610......|A#510......|...........|...........|...........|...........|...........|...........|...........|...........|...........
|...........|...........|...........|...........|...........|...........|...........|...........|...........|...........|...........|...........|...........|...........|...........|...........|...........|...........|...........|...........|...........|...........|...........|...........|...........|...........|...........|...........
|...........|...........|...........|...........|...........|...........|...........|...........|...........|...........|...........|...........|...........|...........|...........|...........|...........|...........|...........|...........|...........|...........|...........|...........|...........|...........|...........|...........
|...........|...........|...........|...........|...........|...........|...........|...........|...........|...........|...........|...........|...........|...........|...........|...........|...........|...........|...........|...........|...........|...........|...........|...........|...........|...........|...........|...........
|...........|...........|...........|...........|...........|...........|...........|...........|...........|...........|...........|...........|...........|...........|...........|...........|...........|...........|^^^........|...........|...........|...........|...........|...........|...........|...........|...........|...........
|...........|...........|...........|...........|...........|...........|...........|...........|...........|...........|...........|C-403......|...........|...........|...........|...........|...........|C#610......|...........|...........|...........|...........|...........|...........|...........|...........|...........|...........
|...........|...........|...........|...........|...........|...........|...........|...........|...........|...........|...........|...........|...........|...........|...........|...........|...........|...........|...........|...........|...........|...........|...........|...........|...........|...........|...........|...........
|...........|...........|...........|...........|...........|...........|...........|...........|...........|...........|...........|...........|...........|...........|...........|...........|...........|...........|...........|...........|...........|...........|...........|...........|...........|...........|...........|...........
|...........|C#402......|...........|...........|...........|...........|...........|...........|...........|...........|C-403......|...........|...........|...........|...........|F-518......|...........|...........|G#510......|...........|...........|...........|...........|...........|...........|...........|...........|...........
|...........|...........|...........|...........|...........|...........|...........|...........|...........|...........|...........|...........|...........|...........|...........|...........|...........|...........|...........|...........|...........|...........|...........|...........|...........|...........|...........|...........
|...........|...........|...........|...........|...........|...........|...........|...........|...........|...........|...........|...........|...........|...........|...........|...........|...........|...........|...........|...........|...........|...........|...........|...........|...........|...........|...........|...........
|...........|...........|...........|...........|...........|...........|...........|...........|...........|...........|...........|...........|...........|...........|...........|...........|...........|...........|...........|...........|...........|...........|...........|...........|...........|...........|...........|...........
|...........|...........|...........|...........|...........|...........|...........|...........|...........|...........|...........|...........|...........|...........|...........|...........|...........|...........|...........|...........|...........|...........|...........|...........|...........|...........|...........|...........
|...........|...........|...........|...........|...........|...........|...........|...........|...........|...........|...........|...........|...........|...........|...........|...........|A#611......|...........|F#510......|...........|...........|...........|...........|...........|...........|...........|...........|...........
|...........|...........|...........|...........|...........|...........|...........|...........|...........|...........|...........|...........|...........|...........|...........|...........|...........|...........|...........|...........|...........|...........|...........|...........|...........|...........|...........|...........
|...........|...........|...........|...........|...........|...........|...........|...........|...........|...........|...........|...........|...........|...........|...........|...........|...........|...........|...........|...........|...........|...........|...........|...........|...........|...........|...........|...........
|...........|...........|...........|...........|...........|...........|...........|...........|...........|...........|G-404......|C-503......|G-525......|...........|...........|...........|B-611......|G#610......|^^^........|...........|...........|...........|...........|...........|...........|...........|...........|...........
|...........|...........|...........|...........|...........|...........|...........|...........|...........|...........|...........|...........|...........|...........|...........|...........|...........|...........|...........|...........|...........|...........|...........|...........|...........|...........|...........|...........
|...........|...........|...........|...........|...........|...........|...........|...........|...........|...........|...........|...........|...........|...........|...........|...........|...........|........F10|...........|...........|...........|...........|...........|...........|...........|...........|...........|...........
|...........|...........|...........|...........|...........|...........|...........|...........|...........|...........|...........|...........|...........|...........|...........|...........|...........|...........|...........|...........|...........|...........|...........|...........|...........|...........|...........|...........
|...........|...........|...........|...........|...........|...........|...........|...........|...........|...........|...........|...........|...........|...........|...........|...........|...........|...........|...........|...........|...........|...........|...........|...........|...........|...........|...........|...........
|...........|...........|...........|...........|...........|...........|...........|...........|...........|...........|C-403......|...........|...........|...........|...........|F-518......|A#611......|........E10|D#610......|...........|...........|...........|...........|...........|...........|...........|...........|...........
|...........|...........|...........|...........|...........|...........|...........|...........|...........|...........|...........|...........|...........|...........|...........|...........|...........|...........|...........|...........|...........|...........|...........|...........|...........|...........|...........|...........
|...........|...........|...........|...........|...........|...........|...........|...........|...........|...........|...........|...........|...........|...........|...........|...........|...........|...........|........E10|...........|...........|...........|...........|...........|...........|...........|...........|...........
|...........|F#302......|...........|...........|...........|...........|...........|...........|...........|...........|...........|C-403......|...........|...........|...........|...........|...........|...........|...........|...........|...........|...........|...........|...........|...........|...........|...........|...........
|...........|...........|...........|...........|...........|...........|...........|...........|...........|...........|...........|...........|...........|...........|...........|...........|...........|...........|...........|...........|...........|...........|...........|...........|...........|...........|...........|...........
|...........|...........|...........|...........|...........|...........|...........|...........|...........|...........|...........|...........|...........|...........|...........|...........|...........|...........|...........|...........|...........|...........|...........|...........|...........|...........|...........|...........
|...........|...........|...........|...........|...........|...........|...........|...........|...........|...........|...........|...........|...........|...........|...........|...........|...........|...........|...........|...........|...........|...........|...........|...........|...........|...........|...........|...........
|...........|...........|...........|...........|...........|...........|...........|...........|...........|...........|...........|...........|...........|...........|...........|...........|...........|...........|...........|...........|...........|...........|...........|...........|...........|...........|...........|...........
|...........|...........|...........|...........|...........|...........|...........|...........|...........|...........|...........|...........|...........|...........|...........|...........|...........|F#610......|...........|...........|...........|...........|...........|...........|...........|...........|...........|...........
|...........|...........|...........|...........|...........|...........|...........|...........|...........|...........|...........|...........|...........|...........|...........|...........|...........|...........|...........|...........|...........|...........|...........|...........|...........|...........|...........|...........
|...........|...........|...........|...........|...........|...........|...........|...........|...........|...........|...........|...........|...........|...........|...........|...........|...........|...........|...........|...........|...........|...........|...........|...........|...........|...........|...........|...........
|...........|...........|...........|...........|...........|...........|...........|...........|...........|...........|C-503......|G-404......|C-526......|...........|...........|C-519......|B-611......|D#610......|G#510......|...........|...........|...........|...........|...........|...........|...........|...........|...........
|...........|...........|...........|...........|...........|...........|...........|...........|...........|...........|...........|...........|...........|...........|...........|...........|...........|...........|...........|...........|...........|...........|...........|...........|...........|...........|...........|...........
|...........|...........|...........|...........|...........|...........|...........|...........|...........|...........|...........|...........|...........|...........|...........|...........|...........|...........|........F10|...........|...........|...........|...........|...........|...........|...........|...........|...........
|...........|...........|...........|...........|...........|...........|...........|...........|...........|...........|...........|...........|...........|...........|...........|...........|^^^........|...........|...........|...........|...........|...........|...........|...........|...........|...........|...........|...........
|...........|...........|...........|...........|...........|...........|...........|...........|...........|...........|...........|...........|...........|...........|...........|...........|...........|...........|^^^........|...........|...........|...........|...........|...........|...........|...........|...........|...........
|...........|...........|...........|...........|...........|...........|...........|...........|...........|...........|...........|C-403......|...........|...........|...........|...........|...........|C#610......|...........|...........|...........|...........|...........|...........|...........|...........|...........|...........
|...........|...........|...........|...........|...........|...........|...........|...........|...........|...........|...........|...........|...........|...........|...........|...........|...........|...........|...........|...........|...........|...........|...........|...........|...........|...........|...........|...........
|...........|...........|...........|...........|...........|...........|...........|...........|...........|...........|...........|...........|...........|...........|...........|...........|...........|...........|...........|...........|...........|...........|...........|...........|...........|...........|...........|...........
|...........|C#302......|...........|...........|...........|...........|...........|...........|...........|...........|C-403......|...........|...........|...........|...........|F-518......|C#711......|...........|...........|...........|...........|...........|...........|...........|...........|...........|...........|...........
|...........|...........|...........|...........|...........|...........|...........|...........|...........|...........|...........|...........|...........|...........|...........|...........|...........|...........|...........|...........|...........|...........|...........|...........|...........|...........|...........|...........
|...........|...........|...........|...........|...........|...........|...........|...........|...........|...........|...........|...........|...........|...........|...........|...........|...........|...........|...........|...........|...........|...........|...........|...........|...........|...........|...........|...........
|...........|...........|...........|...........|...........|...........|...........|...........|...........|...........|...........|...........|...........|...........|...........|...........|^^^........|...........|...........|...........|...........|...........|...........|...........|...........|...........|...........|...........
|...........|...........|...........|...........|...........|...........|...........|...........|...........|...........|...........|...........|...........|...........|...........|...........|...........|...........|...........|...........|...........|...........|...........|...........|...........|...........|...........|...........
|...........|...........|...........|...........|...........|...........|...........|...........|...........|...........|...........|...........|...........|...........|...........|...........|...........|...........|G#510......|...........|...........|...........|...........|...........|...........|...........|...........|...........
|...........|...........|...........|...........|...........|...........|...........|...........|...........|...........|...........|...........|...........|...........|...........|...........|...........|...........|...........|...........|...........|...........|...........|...........|...........|...........|...........|...........
|...........|...........|...........|...........|...........|...........|...........|...........|...........|...........|...........|...........|...........|...........|...........|...........|...........|...........|...........|...........|...........|...........|...........|...........|...........|...........|...........|...........
|...........|...........|...........|...........|...........|...........|...........|...........|...........|...........|G-404......|C-503......|G-525......|...........|...........|C-519......|C#711......|D#610......|F#510......|...........|...........|...........|...........|...........|...........|...........|...........|...........
|...........|...........|...........|...........|...........|...........|...........|...........|...........|...........|...........|...........|...........|...........|...........|...........|...........|...........|...........|...........|...........|...........|...........|...........|...........|...........|...........|...........
|...........|...........|...........|...........|...........|...........|...........|...........|...........|...........|...........|...........|...........|...........|...........|...........|........F10|...........|...........|...........|...........|...........|...........|...........|...........|...........|...........|...........
|...........|...........|...........|...........|...........|...........|...........|...........|...........|...........|...........|...........|...........|...........|...........|...........|...........|...........|^^^........|...........|...........|...........|...........|...........|...........|...........|...........|...........
|...........|...........|...........|...........|...........|...........|...........|...........|...........|...........|...........|...........|...........|...........|...........|...........|...........|...........|...........|...........|...........|...........|...........|...........|...........|...........|...........|...........
|...........|...........|...........|...........|...........|...........|...........|...........|...........|...........|C-403......|...........|...........|...........|...........|...........|...........|...........|F#610......|...........|...........|...........|...........|...........|...........|...........|...........|...........
|...........|...........|...........|...........|...........|...........|...........|...........|...........|...........|...........|...........|...........|...........|...........|...........|...........|^^^........|...........|...........|...........|...........|...........|...........|...........|...........|...........|...........
|...........|...........|...........|...........|...........|...........|...........|...........|...........|...........|...........|...........|...........|...........|...........|...........|...........|...........|........E10|...........|...........|...........|...........|...........|...........|...........|...........|...........
Rows: 64
|...........|F#202......|F#406......|A-306......|E-306......|C#406......|...........|...........|...........|...........|...........|C-403......|...........|...........|...........|C-519......|...........|...........|...........|...........|...........|...........|...........|...........|...........|...........|...........|...........
|...........|...........|...........|...........|...........|...........|...........|...........|...........|...........|...........|...........|...........|...........|...........|...........|...........|...........|...........|...........|...........|...........|...........|...........|...........|...........|...........|...........
|...........|...........|...........|...........|...........|...........|...........|...........|...........|...........|...........|...........|...........|...........|...........|...........|...........|...........|...........|...........|...........|...........|...........|...........|...........|...........|...........|...........
|...........|...........|...........|...........|...........|...........|...........|...........|...........|...........|...........|...........|...........|...........|...........|...........|...........|...........|...........|...........|...........|...........|...........|...........|...........|...........|...........|...........
|...........|...........|...........|...........|...........|...........|...........|...........|...........|...........|...........|...........|...........|...........|...........|...........|...........|...........|...........|...........|...........|...........|...........|...........|...........|...........|...........|...........
|...........|...........|...........|...........|...........|...........|...........|...........|...........|...........|...........|...........|...........|...........|...........|...........|...........|...........|...........|...........|...........|...........|...........|...........|...........|...........|...........|...........
|...........|...........|...........|...........|...........|...........|...........|...........|...........|...........|...........|...........|...........|...........|...........|...........|...........|...........|...........|...........|...........|...........|...........|...........|...........|...........|...........|...........
|...........|...........|...........|...........|...........|...........|...........|...........|...........|...........|...........|...........|...........|...........|...........|...........|...........|...........|...........|...........|...........|...........|...........|...........|...........|...........|...........|...........
|...........|...........|...........|...........|...........|...........|...........|...........|...........|...........|C-503......|G-404......|C-526......|...........|...........|C-519......|G#611......|...........|C#610......|F#511......|...........|...........|...........|...........|...........|...........|...........|...........
|...........|...........|...........|...........|...........|...........|...........|...........|...........|...........|...........|...........|...........|...........|...........|...........|...........|...........|...........|...........|...........|...........|...........|...........|...........|...........|...........|...........
|...........|...........|...........|...........|...........|...........|...........|...........|...........|...........|...........|...........|...........|...........|...........|...........|...........|...........|...........|...........|...........|...........|...........|...........|...........|...........|...........|...........
|...........|...........|...........|...........|...........|...........|...........|...........|...........|...........|...........|...........|...........|...........|...........|...........|...........|...........|...........|...........|...........|...........|...........|...........|...........|...........|...........|...........
|...........|...........|...........|...........|...........|...........|...........|...........|...........|...........|...........|...........|...........|...........|...........|...........|...........|...........|^^^........|...........|...........|...........|...........|...........|...........|...........|...........|...........
|...........|...........|...........|...........|...........|...........|...........|...........|...........|...........|...........|C-403......|...........|...........|...........|...........|...........|...........|...........|...........|...........|...........|...........|...........|...........|...........|...........|...........
|...........|...........|...........|...........|...........|...........|...........|...........|...........|...........|...........|...........|...........|...........|...........|...........|...........|...........|...........|...........|...........|...........|...........|...........|...........|...........|...........|...........
|...........|...........|...........|...........|...........|...........|...........|...........|...........|...........|...........|...........|...........|...........|...........|...........|...........|...........|...........|...........|...........|...........|...........|...........|...........|...........|...........|...........
|...........|C#302......|G#406......|E-406......|B-306......|...........|...........|...........|...........|...........|C-403......|...........|...........|...........|...........|F-518......|...........|...........|...........|...........|...........|...........|...........|...........|...........|...........|...........|...........
|...........|...........|...........|...........|...........|...........|...........|...........|...........|...........|...........|...........|...........|...........|...........|...........|...........|...........|...........|...........|...........|...........|...........|...........|...........|...........|...........|...........
|...........|...........|...........|...........|...........|...........|...........|...........|...........|...........|...........|...........|...........|...........|...........|...........|...........|...........|...........|...........|...........|...........|...........|...........|...........|...........|...........|...........
|...........|...........|...........|...........|...........|...........|...........|...........|...........|...........|...........|...........|...........|...........|...........|...........|...........|...........|...........|...........|...........|...........|...........|...........|...........|...........|...........|...........
|...........|...........|...........|...........|...........|...........|...........|...........|...........|...........|...........|...........|...........|...........|...........|...........|...........|...........|...........|...........|...........|...........|...........|...........|...........|...........|...........|...........
|...........|...........|...........|...........|...........|...........|...........|...........|...........|...........|...........|...........|...........|...........|...........|...........|...........|C#610......|B-510......|...........|...........|...........|...........|...........|...........|...........|...........|...........
|...........|...........|...........|...........|...........|...........|...........|...........|...........|...........|...........|...........|...........|...........|...........|...........|...........|...........|...........|...........|...........|...........|...........|...........|...........|...........|...........|...........
|...........|...........|...........|...........|...........|...........|...........|...........|...........|...........|...........|...........|...........|...........|...........|...........|...........|...........|...........|...........|...........|...........|...........|...........|...........|...........|...........|...........
|...........|...........|...........|...........|...........|...........|...........|...........|...........|...........|G-404......|C-503......|G-525......|...........|...........|...........|^^^........|D#610......|A-510......|G#511......|...........|...........|...........|...........|...........|...........|...........|...........
|...........|...........|...........|...........|...........|...........|...........|...........|...........|...........|...........|...........|...........|...........|...........|...........|...........|...........|...........|...........|...........|...........|...........|...........|...........|...........|...........|...........
|...........|...........|...........|...........|...........|...........|...........|...........|...........|...........|...........|...........|...........|...........|...........|...........|...........|...........|...........|...........|...........|...........|...........|...........|...........|...........|...........|...........
|...........|...........|...........|...........|...........|...........|...........|...........|...........|...........|...........|...........|...........|...........|...........|...........|...........|...........|...........|...........|...........|...........|...........|...........|...........|...........|...........|...........
|...........|...........|...........|...........|...........|...........|...........|...........|...........|...........|...........|...........|...........|...........|...........|...........|...........|...........|...........|^^^........|...........|...........|...........|...........|...........|...........|...........|...........
|...........|...........|...........|...........|...........|...........|...........|...........|...........|...........|C-403......|...........|...........|...........|...........|F-518......|B-611......|E-610......|G#510......|...........|...........|...........|...........|...........|...........|...........|...........|...........
|...........|...........|...........|...........|...........|...........|...........|...........|...........|...........|...........|...........|...........|...........|...........|...........|...........|...........|...........|...........|...........|...........|...........|...........|...........|...........|...........|...........
|...........|...........|...........|...........|...........|...........|...........|...........|...........|...........|...........|...........|...........|...........|...........|...........|...........|...........|...........|...........|...........|...........|...........|...........|...........|...........|...........|...........
|...........|F#302......|A-406......|E-406......|C#406......|...........|...........|...........|...........|...........|...........|C-403......|...........|...........|...........|...........|........F10|...........|...........|A-511......|...........|...........|...........|...........|...........|...........|...........|...........
|...........|...........|...........|...........|...........|...........|...........|...........|...........|...........|...........|...........|...........|...........|...........|...........|...........|...........|...........|...........|...........|...........|...........|...........|...........|...........|...........|...........
|...........|...........|...........|...........|...........|...........|...........|...........|...........|...........|...........|...........|...........|...........|...........|...........|...........|...........|...........|...........|...........|...........|...........|...........|...........|...........|...........|...........
|...........|...........|...........|...........|...........|...........|...........|...........|...........|...........|...........|...........|...........|...........|...........|...........|...........|...........|...........|...........|...........|...........|...........|...........|...........|...........|...........|...........
|...........|...........|...........|...........|...........|...........|...........|...........|...........|...........|...........|...........|...........|...........|...........|...........|...........|...........|...........|...........|...........|...........|...........|...........|...........|...........|...........|...........
|...........|...........|...........|...........|...........|...........|...........|...........|...........|...........|...........|...........|...........|...........|...........|...........|........E10|...........|...........|...........|...........|...........|...........|...........|...........|...........|...........|...........
|...........|...........|...........|...........|...........|...........|...........|...........|...........|...........|...........|...........|...........|...........|...........|...........|...........|...........|...........|...........|...........|...........|...........|...........|...........|...........|...........|...........
|...........|...........|...........|...........|...........|...........|...........|...........|...........|...........|...........|...........|...........|...........|...........|...........|...........|...........|...........|...........|...........|...........|...........|...........|...........|...........|...........|...........
|...........|...........|...........|...........|...........|...........|...........|...........|...........|...........|C-503......|G-404......|C-526......|...........|...........|C-519......|...........|G#610......|A-510......|...........|...........|...........|...........|...........|...........|...........|...........|...........
|...........|...........|...........|...........|...........|...........|...........|...........|...........|...........|...........|...........|...........|...........|...........|...........|...........|...........|...........|...........|...........|...........|...........|...........|...........|...........|...........|...........
|...........|...........|...........|...........|...........|...........|...........|...........|...........|...........|...........|...........|...........|...........|...........|...........|...........|...........|...........|...........|...........|...........|...........|...........|...........|...........|...........|...........
|...........|...........|...........|...........|...........|...........|...........|...........|...........|...........|...........|...........|...........|...........|...........|...........|...........|^^^........|...........|...........|...........|...........|...........|...........|...........|...........|...........|...........
|...........|...........|...........|...........|...........|...........|...........|...........|...........|...........|...........|...........|...........|...........|...........|...........|...........|...........|^^^........|...........|...........|...........|...........|...........|...........|...........|...........|...........
|...........|...........|...........|...........|...........|...........|...........|...........|...........|...........|...........|C-403......|...........|...........|...........|...........|F#711......|...........|...........|...........|...........|...........|...........|...........|...........|...........|...........|...........
|...........|...........|...........|...........|...........|...........|...........|...........|...........|...........|...........|...........|...........|...........|...........|...........|...........|...........|...........|...........|...........|...........|...........|...........|...........|...........|...........|...........
|...........|...........|...........|...........|...........|...........|...........|...........|...........|...........|...........|...........|...........|...........|...........|...........|........F08|...........|...........|...........|...........|...........|...........|...........|...........|...........|...........|...........
|...........|B-202......|B-406......|A-306......|D#406......|G#406......|...........|...........|...........|...........|C-403......|...........|...........|...........|...........|F-518......|...........|B-510......|...........|B-511......|...........|...........|...........|...........|...........|...........|...........|...........
|...........|...........|...........|...........|...........|...........|...........|...........|...........|...........|...........|...........|...........|...........|...........|...........|...........|...........|...........|...........|...........|...........|...........|...........|...........|...........|...........|...........
|...........|...........|...........|...........|...........|...........|...........|...........|...........|...........|...........|...........|...........|...........|...........|...........|^^^........|...........|...........|...........|...........|...........|...........|...........|...........|...........|...........|...........
|...........|...........|...........|...........|...........|...........|...........|...........|...........|...........|...........|...........|...........|...........|...........|...........|...........|...........|...........|...........|...........|...........|...........|...........|...........|...........|...........|...........
|...........|...........|...........|...........|...........|...........|...........|...........|...........|...........|...........|...........|...........|...........|...........|...........|...........|...........|...........|...........|...........|...........|...........|...........|...........|...........|...........|...........
|...........|...........|...........|...........|...........|...........|...........|...........|...........|...........|...........|...........|...........|...........|...........|...........|F#711......|........F10|E-610......|...........|...........|...........|...........|...........|...........|...........|...........|...........
|...........|...........|...........|...........|...........|...........|...........|...........|...........|...........|...........|...........|...........|...........|...........|...........|...........|...........|...........|...........|...........|...........|...........|...........|...........|...........|...........|...........
|...........|...........|...........|...........|...........|...........|...........|...........|...........|...........|...........|...........|...........|...........|...........|...........|...........|...........|...........|...........|...........|...........|...........|...........|...........|...........|...........|...........
|...........|...........|...........|...........|...........|...........|...........|...........|...........|...........|G-404......|C-503......|G-525......|...........|...........|C-519......|C#711v30...|B-610......|........F10|...........|...........|...........|...........|...........|...........|...........|...........|...........
|...........|...........|...........|...........|...........|...........|...........|...........|...........|...........|...........|...........|...........|...........|...........|...........|...........|...........|...........|...........|...........|...........|...........|...........|...........|...........|...........|...........
|...........|...........|...........|...........|...........|...........|...........|...........|...........|...........|...........|...........|...........|...........|...........|...........|...........|........F10|...........|...........|...........|...........|...........|...........|...........|...........|...........|...........
|...........|...........|...........|...........|...........|...........|...........|...........|...........|...........|...........|...........|...........|...........|...........|...........|...........|...........|...........|...........|...........|...........|...........|...........|...........|...........|...........|...........
|...........|...........|...........|...........|...........|...........|...........|...........|...........|...........|...........|...........|...........|...........|...........|...........|...........|...........|...........|...........|...........|...........|...........|...........|...........|...........|...........|...........
|...........|...........|...........|...........|...........|...........|...........|...........|...........|...........|C-403......|...........|...........|...........|...........|...........|E-711......|........E10|........E10|B-511......|...........|...........|...........|...........|...........|...........|...........|...........
|...........|...........|...........|...........|...........|...........|...........|...........|...........|...........|...........|...........|...........|...........|...........|...........|...........|...........|...........|........F10|...........|...........|...........|...........|...........|...........|...........|...........
|...........|...........|...........|...........|...........|...........|...........|...........|...........|...........|...........|...........|...........|...........|...........|...........|...........|...........|...........|...........|...........|...........|...........|...........|...........|...........|...........|...........
Rows: 64
|...........|B-302......|C#506......|F#406......|D-406......|A-306......|...........|...........|...........|...........|...........|C-403......|...........|...........|...........|C-519......|...........|...........|...........|...........|...........|...........|...........|...........|...........|...........|...........|...........
|...........|...........|...........|...........|...........|...........|...........|...........|...........|...........|...........|...........|...........|...........|...........|...........|...........|...........|...........|...........|...........|...........|...........|...........|...........|...........|...........|...........
|...........|...........|...........|...........|...........|...........|...........|...........|...........|...........|...........|...........|...........|...........|...........|...........|...........|...........|...........|...........|...........|...........|...........|...........|...........|...........|...........|...........
|...........|...........|...........|...........|...........|...........|...........|...........|...........|...........|...........|...........|...........|...........|...........|...........|...........|...........|...........|...........|...........|...........|...........|...........|...........|...........|...........|...........
|...........|...........|...........|...........|...........|...........|...........|...........|...........|...........|...........|...........|...........|...........|...........|...........|...........|...........|...........|...........|...........|...........|...........|...........|...........|...........|...........|...........
|...........|...........|...........|...........|...........|...........|...........|...........|...........|...........|...........|...........|...........|...........|...........|...........|...........|...........|...........|...........|...........|...........|...........|...........|...........|...........|...........|...........
|...........|...........|...........|...........|...........|...........|...........|...........|...........|...........|...........|...........|...........|...........|...........|...........|...........|...........|...........|...........|...........|...........|...........|...........|...........|...........|...........|...........
|...........|...........|...........|...........|...........|...........|...........|...........|...........|...........|...........|...........|...........|...........|...........|...........|...........|...........|...........|...........|...........|...........|...........|...........|...........|...........|...........|...........
|...........|...........|...........|...........|...........|...........|...........|...........|...........|...........|C-503......|G-404......|C-526......|...........|...........|...........|...........|A-610......|C#610......|...........|...........|...........|...........|...........|...........|...........|...........|...........
|...........|...........|...........|...........|...........|...........|...........|...........|...........|...........|...........|...........|...........|...........|...........|...........|...........|...........|...........|...........|...........|...........|...........|...........|...........|...........|...........|...........
|...........|...........|...........|...........|...........|...........|...........|...........|...........|...........|...........|...........|...........|...........|...........|...........|...........|G#610...SD2|...........|...........|...........|...........|...........|...........|...........|...........|...........|...........
|...........|...........|...........|...........|...........|...........|...........|...........|...........|...........|...........|...........|...........|...........|...........|...........|...........|...........|...........|...........|...........|...........|...........|...........|...........|...........|...........|...........
|...........|...........|...........|...........|...........|...........|...........|...........|...........|...........|...........|...........|...........|...........|...........|...........|...........|...........|^^^........|...........|...........|...........|...........|...........|...........|...........|...........|...........
|...........|...........|...........|...........|...........|...........|...........|...........|...........|...........|...........|C-403......|...........|...........|...........|...........|...........|F#610...SD1|...........|...........|...........|...........|...........|...........|...........|...........|...........|...........
|...........|...........|...........|...........|...........|...........|...........|...........|...........|...........|...........|...........|...........|...........|...........|...........|...........|...........|...........|...........|...........|...........|...........|...........|...........|...........|...........|...........
|...........|...........|...........|...........|...........|...........|...........|...........|...........|...........|...........|...........|...........|...........|...........|...........|...........|...........|...........|...........|...........|...........|...........|...........|...........|...........|...........|...........
|...........|B-202......|...........|...........|...........|...........|...........|...........|...........|...........|C-403......|...........|...........|...........|...........|F-518......|F#711......|E-610......|A-510......|...........|...........|...........|...........|...........|...........|...........|...........|...........
|...........|...........|...........|...........|...........|...........|...........|...........|...........|...........|...........|...........|...........|...........|...........|...........|...........|...........|...........|...........|...........|...........|...........|...........|...........|...........|...........|...........
|...........|...........|...........|...........|...........|...........|...........|...........|...........|...........|...........|...........|...........|...........|...........|...........|...........|...........|...........|...........|...........|...........|...........|...........|...........|...........|...........|...........
|...........|...........|...........|...........|...........|...........|...........|...........|...........|...........|...........|...........|...........|...........|...........|...........|........F10|...........|...........|...........|...........|...........|...........|...........|...........|...........|...........|...........
|...........|...........|...........|...........|...........|...........|...........|...........|...........|...........|...........|...........|...........|...........|...........|...........|...........|...........|...........|...........|...........|...........|...........|...........|...........|...........|...........|...........
|...........|...........|...........|...........|...........|...........|...........|...........|...........|...........|...........|...........|...........|...........|...........|...........|...........|...........|F#510......|...........|...........|...........|...........|...........|...........|...........|...........|...........
|...........|...........|...........|...........|...........|...........|...........|...........|...........|...........|...........|...........|...........|...........|...........|...........|...........|...........|...........|...........|...........|...........|...........|...........|...........|...........|...........|...........
|...........|...........|...........|...........|...........|...........|...........|...........|...........|...........|...........|...........|...........|...........|...........|...........|...........|...........|...........|...........|...........|...........|...........|...........|...........|...........|...........|...........
|...........|...........|...........|...........|...........|...........|...........|...........|...........|...........|G-404......|C-503......|G-525......|...........|...........|...........|...........|F#610......|^^^........|...........|...........|...........|...........|...........|...........|...........|...........|...........
|...........|...........|...........|...........|...........|...........|...........|...........|...........|...........|...........|...........|...........|...........|...........|...........|...........|........F10|...........|...........|...........|...........|...........|...........|...........|...........|...........|...........
|...........|...........|...........|...........|...........|...........|...........|...........|...........|...........|...........|...........|...........|...........|...........|...........|...........|...........|...........|...........|...........|...........|...........|...........|...........|...........|...........|...........
|...........|...........|...........|...........|...........|...........|...........|...........|...........|...........|...........|...........|...........|...........|...........|...........|...........|...........|...........|...........|...........|...........|...........|...........|...........|...........|...........|...........
|...........|...........|...........|...........|...........|...........|...........|...........|...........|...........|...........|...........|...........|...........|...........|...........|...........|^^^........|...........|...........|...........|...........|...........|...........|...........|...........|...........|...........
|...........|...........|...........|...........|...........|...........|...........|...........|...........|...........|C-403......|...........|...........|...........|...........|F-518......|...........|...........|C#510......|...........|...........|...........|...........|...........|...........|...........|...........|...........
|...........|...........|...........|...........|...........|...........|...........|...........|...........|...........|...........|...........|...........|...........|...........|...........|...........|...........|...........|...........|...........|...........|...........|...........|...........|...........|...........|...........
|...........|...........|...........|...........|...........|...........|...........|...........|...........|...........|...........|...........|...........|...........|...........|...........|...........|...........|...........|...........|...........|...........|...........|...........|...........|...........|...........|...........
|...........|E-302......|F#406......|C#406......|A-306......|D-306......|...........|...........|...........|...........|...........|C-403......|...........|...........|...........|...........|...........|C#610......|D-510......|F#511......|...........|...........|...........|...........|...........|...........|...........|...........
|...........|...........|...........|...........|...........|...........|...........|...........|...........|...........|...........|...........|...........|...........|...........|...........|...........|...........|...........|...........|...........|...........|...........|...........|...........|...........|...........|...........
|...........|...........|...........|...........|...........|...........|...........|...........|...........|...........|...........|...........|...........|...........|...........|...........|...........|...........|...........|...........|...........|...........|...........|...........|...........|...........|...........|...........
|...........|...........|...........|...........|...........|...........|...........|...........|...........|...........|...........|...........|...........|...........|...........|...........|...........|...........|...........|...........|...........|...........|...........|...........|...........|...........|...........|...........
|...........|...........|...........|...........|...........|...........|...........|...........|...........|...........|...........|...........|...........|...........|...........|...........|...........|...........|...........|...........|...........|...........|...........|...........|...........|...........|...........|...........
|...........|...........|...........|...........|...........|...........|...........|...........|...........|...........|...........|...........|...........|...........|...........|...........|...........|...........|E-510......|...........|...........|...........|...........|...........|...........|...........|...........|...........
|...........|...........|...........|...........|...........|...........|...........|...........|...........|...........|...........|...........|...........|...........|...........|...........|...........|...........|...........|...........|...........|...........|...........|...........|...........|...........|...........|...........
|...........|...........|...........|...........|...........|...........|...........|...........|...........|...........|...........|...........|...........|...........|...........|...........|...........|...........|...........|...........|...........|...........|...........|...........|...........|...........|...........|...........
|...........|...........|...........|...........|...........|...........|...........|...........|...........|...........|C-503......|G-404......|C-526......|...........|...........|C-519......|...........|F#610......|F#510......|...........|...........|...........|...........|...........|...........|...........|...........|...........
|...........|...........|...........|...........|...........|...........|...........|...........|...........|...........|...........|...........|...........|...........|...........|...........|...........|...........|...........|...........|...........|...........|...........|...........|...........|...........|...........|...........
|...........|...........|...........|...........|...........|...........|...........|...........|...........|...........|...........|...........|...........|...........|...........|...........|...........|...........|...........|...........|...........|...........|...........|...........|...........|...........|...........|...........
|...........|...........|...........|...........|...........|...........|...........|...........|...........|...........|...........|...........|...........|...........|...........|...........|...........|^^^........|...........|...........|...........|...........|...........|...........|...........|...........|...........|...........
|...........|...........|...........|...........|...........|...........|...........|...........|...........|...........|...........|...........|...........|...........|...........|...........|...........|...........|...........|...........|...........|...........|...........|...........|...........|...........|...........|...........
|...........|...........|...........|...........|...........|...........|...........|...........|...........|...........|...........|C-403......|...........|...........|...........|...........|...........|...........|G#510......|...........|...........|...........|...........|...........|...........|...........|...........|...........
|...........|...........|...........|...........|...........|...........|...........|...........|...........|...........|...........|...........|...........|...........|...........|...........|...........|...........|...........|...........|...........|...........|...........|...........|...........|...........|...........|...........
|...........|...........|...........|...........|...........|...........|...........|...........|...........|...........|...........|...........|...........|...........|...........|...........|...........|...........|...........|...........|...........|...........|...........|...........|...........|...........|...........|...........
|...........|A#302......|B-406......|F#406......|C#406......|G#306......|...........|...........|...........|...........|C-403......|...........|...........|...........|...........|F-518......|B-711......|...........|...........|B-511......|...........|...........|...........|...........|...........|...........|...........|...........
|...........|...........|...........|...........|...........|...........|...........|...........|...........|...........|...........|...........|...........|...........|...........|...........|...........|...........|...........|...........|...........|...........|...........|...........|...........|...........|...........|...........
|...........|...........|...........|...........|...........|...........|...........|...........|...........|...........|...........|...........|...........|...........|...........|...........|...........|...........|...........|...........|...........|...........|...........|...........|...........|...........|...........|...........
|...........|...........|...........|...........|...........|...........|...........|...........|...........|...........|...........|...........|...........|...........|...........|...........|...........|...........|...........|...........|...........|...........|...........|...........|...........|...........|...........|...........
|...........|...........|...........|...........|...........|...........|...........|...........|...........|...........|...........|...........|...........|...........|...........|...........|...........|...........|...........|...........|...........|...........|...........|...........|...........|...........|...........|...........
|...........|...........|...........|...........|...........|...........|...........|...........|...........|...........|...........|...........|...........|...........|...........|...........|........F10|...........|A-510......|...........|...........|...........|...........|...........|...........|...........|...........|...........
|...........|...........|...........|...........|...........|...........|...........|...........|...........|...........|...........|...........|...........|...........|...........|...........|...........|...........|...........|...........|...........|...........|...........|...........|...........|...........|...........|...........
|...........|...........|...........|...........|...........|...........|...........|...........|...........|...........|...........|...........|...........|...........|...........|...........|...........|...........|...........|...........|...........|...........|...........|...........|...........|...........|...........|...........
|...........|...........|...........|...........|...........|...........|...........|...........|...........|...........|G-404......|C-503......|G-525......|...........|...........|C-519......|...........|E-610......|B-510......|...........|...........|...........|...........|...........|...........|...........|...........|...........
|...........|...........|...........|...........|...........|...........|...........|...........|...........|...........|...........|...........|...........|...........|...........|...........|...........|...........|...........|...........|...........|...........|...........|...........|...........|...........|...........|...........
|...........|...........|...........|...........|...........|...........|...........|...........|...........|...........|...........|...........|...........|...........|...........|...........|...........|...........|...........|...........|...........|...........|...........|...........|...........|...........|...........|...........
|...........|...........|...........|...........|...........|...........|...........|...........|...........|...........|...........|...........|...........|...........|...........|...........|...........|...........|...........|...........|...........|...........|...........|...........|...........|...........|...........|...........
|...........|...........|...........|...........|...........|...........|...........|...........|...........|...........|...........|...........|...........|...........|...........|...........|...........|...........|...........|...........|...........|...........|...........|...........|...........|...........|...........|...........
|...........|...........|...........|...........|...........|...........|...........|...........|...........|...........|C-403......|...........|...........|...........|...........|F-518......|...........|...........|C#610......|G#511......|...........|...........|...........|...........|...........|...........|...........|...........
|...........|...........|...........|...........|...........|...........|...........|...........|...........|...........|...........|...........|...........|...........|...........|...........|...........|...........|...........|...........|...........|...........|...........|...........|...........|...........|...........|...........
|...........|...........|...........|...........|...........|...........|...........|...........|...........|...........|...........|...........|...........|...........|...........|...........|...........|...........|...........|...........|...........|...........|...........|...........|...........|...........|...........|...........
Rows: 64
|...........|A-302...M34|G#406......|E-406......|B-306......|F#306......|...........|...........|...........|...........|...........|C-403......|...........|C-520......|...........|C-519......|...........|C#510......|...........|...........|...........|...........|...........|...........|...........|...........|...........|...........
|...........|...........|...........|...........|...........|...........|...........|...........|...........|...........|...........|...........|...........|...........|...........|...........|...........|...........|...........|...........|...........|...........|...........|...........|...........|...........|...........|...........
|...........|...........|...........|...........|...........|...........|...........|...........|...........|...........|...........|...........|...........|...........|...........|...........|...........|...........|...........|...........|...........|...........|...........|...........|...........|...........|...........|...........
|...........|...........|...........|...........|...........|...........|...........|...........|...........|...........|...........|...........|...........|...........|...........|...........|...........|...........|...........|...........|...........|...........|...........|...........|...........|...........|...........|...........
|...........|...........|...........|...........|...........|...........|...........|...........|...........|...........|...........|...........|...........|...........|...........|...........|...........|...........|...........|...........|...........|...........|...........|...........|...........|...........|...........|...........
|...........|...........|...........|...........|...........|...........|...........|...........|...........|...........|...........|...........|...........|...........|...........|...........|...........|...........|...........|...........|...........|...........|...........|...........|...........|...........|...........|...........
|...........|...........|...........|...........|...........|...........|...........|...........|...........|...........|...........|...........|...........|...........|...........|...........|...........|...........|...........|...........|...........|...........|...........|...........|...........|...........|...........|...........
|...........|...........|...........|...........|...........|...........|...........|...........|...........|...........|...........|...........|...........|...........|...........|...........|...........|...........|...........|...........|...........|...........|...........|...........|...........|...........|...........|...........
|...........|...........|...........|...........|...........|...........|...........|...........|...........|...........|C-503......|G-404......|C-526......|...........|...........|...........|...........|...........|E-610......|...........|...........|...........|...........|...........|...........|...........|...........|...........
|...........|...........|...........|...........|...........|...........|...........|...........|...........|...........|...........|...........|...........|...........|...........|...........|...........|...........|...........|...........|...........|...........|...........|...........|...........|...........|...........|...........
|...........|...........|...........|...........|...........|...........|...........|...........|...........|...........|...........|...........|...........|...........|...........|...........|...........|...........|...........|...........|...........|...........|...........|...........|...........|...........|...........|...........
|...........|...........|...........|...........|...........|...........|...........|...........|...........|...........|...........|...........|...........|...........|...........|...........|...........|...........|...........|...........|...........|...........|...........|...........|...........|...........|...........|...........
|...........|...........|...........|...........|...........|...........|...........|...........|...........|...........|...........|...........|...........|...........|...........|...........|...........|...........|^^^........|...........|...........|...........|...........|...........|...........|...........|...........|...........
|...........|...........|...........|...........|...........|...........|...........|...........|...........|...........|...........|C-403......|...........|...........|...........|...........|...........|...........|...........|...........|...........|...........|...........|...........|...........|...........|...........|...........
|...........|...........|...........|...........|...........|...........|...........|...........|...........|...........|...........|...........|...........|...........|...........|...........|...........|...........|...........|...........|...........|...........|...........|...........|...........|...........|...........|...........
|...........|...........|...........|...........|...........|...........|...........|...........|...........|...........|...........|...........|...........|...........|...........|...........|...........|...........|...........|...........|...........|...........|...........|...........|...........|...........|...........|...........
|...........|E-302......|...........|...........|...........|...........|...........|...........|...........|...........|C-403......|...........|...........|...........|...........|F-518......|...........|F#510......|E-510......|...........|...........|...........|...........|...........|...........|...........|...........|...........
|...........|...........|...........|...........|...........|...........|...........|...........|...........|...........|...........|...........|...........|...........|...........|...........|...........|...........|...........|...........|...........|...........|...........|...........|...........|...........|...........|...........
|...........|...........|...........|...........|...........|...........|...........|...........|...........|...........|...........|...........|...........|...........|...........|...........|...........|...........|...........|...........|...........|...........|...........|...........|...........|...........|...........|...........
|...........|...........|...........|...........|...........|...........|...........|...........|...........|...........|...........|...........|...........|...........|...........|...........|...........|...........|...........|...........|...........|...........|...........|...........|...........|...........|...........|...........
|...........|...........|...........|...........|...........|...........|...........|...........|...........|...........|...........|...........|...........|...........|...........|...........|...........|...........|^^^........|...........|...........|...........|...........|...........|...........|...........|...........|...........
|...........|...........|...........|...........|...........|...........|...........|...........|...........|...........|...........|...........|...........|...........|...........|...........|B-611......|...........|...........|...........|...........|...........|...........|...........|...........|...........|...........|...........
|...........|...........|...........|...........|...........|...........|...........|...........|...........|...........|...........|...........|...........|...........|...........|...........|...........|...........|...........|...........|...........|...........|...........|...........|...........|...........|...........|...........
|...........|...........|...........|...........|...........|...........|...........|...........|...........|...........|...........|...........|...........|...........|...........|...........|...........|...........|...........|...........|...........|...........|...........|...........|...........|...........|...........|...........
|...........|...........|...........|...........|...........|...........|...........|...........|...........|...........|G-404......|C-503......|G-525......|...........|...........|...........|C#711......|...........|...........|...........|...........|...........|...........|...........|...........|...........|...........|...........
|...........|...........|...........|...........|...........|...........|...........|...........|...........|...........|...........|...........|...........|...........|...........|...........|...........|...........|...........|...........|...........|...........|...........|...........|...........|...........|...........|...........
|...........|...........|...........|...........|...........|...........|...........|...........|...........|...........|...........|...........|...........|...........|...........|...........|...........|...........|...........|...........|...........|...........|...........|...........|...........|...........|...........|...........
|...........|...........|...........|...........|...........|...........|...........|...........|...........|...........|...........|...........|...........|...........|...........|...........|...........|...........|...........|...........|...........|...........|...........|...........|...........|...........|...........|...........
|...........|...........|...........|...........|...........|...........|...........|...........|...........|...........|...........|...........|...........|...........|...........|...........|...........|...........|...........|...........|...........|...........|...........|...........|...........|...........|...........|...........
|...........|...........|...........|...........|...........|...........|...........|...........|...........|...........|C-403......|...........|...........|...........|...........|F-518......|B-611......|E-510......|...........|...........|...........|...........|...........|...........|...........|...........|...........|...........
|...........|...........|...........|...........|...........|...........|...........|...........|...........|...........|...........|...........|...........|...........|...........|...........|...........|...........|...........|...........|...........|...........|...........|...........|...........|...........|...........|...........
|...........|...........|...........|...........|...........|...........|...........|...........|...........|...........|...........|...........|...........|...........|...........|...........|...........|...........|...........|...........|...........|...........|...........|...........|...........|...........|...........|...........
|...........|G#302......|...........|...........|...........|...........|...........|...........|...........|...........|...........|C-403......|...........|...........|...........|...........|...........|...........|A-410......|...........|...........|...........|...........|...........|...........|...........|...........|...........
|...........|...........|...........|...........|...........|...........|...........|...........|...........|...........|...........|...........|...........|...........|...........|...........|...........|...........|...........|...........|...........|...........|...........|...........|...........|...........|...........|...........
|...........|...........|...........|...........|...........|...........|...........|...........|...........|...........|...........|...........|...........|...........|...........|...........|...........|...........|...........|...........|...........|...........|...........|...........|...........|...........|...........|...........
|...........|...........|...........|...........|...........|...........|...........|...........|...........|...........|...........|...........|...........|...........|...........|...........|...........|...........|...........|...........|...........|...........|...........|...........|...........|...........|...........|...........
|...........|...........|...........|...........|...........|...........|...........|...........|...........|...........|...........|...........|...........|...........|...........|...........|...........|...........|...........|...........|...........|...........|...........|...........|...........|...........|...........|...........
|...........|...........|...........|...........|...........|...........|...........|...........|...........|...........|...........|...........|...........|...........|...........|...........|...........|...........|...........|...........|...........|...........|...........|...........|...........|...........|...........|...........
|...........|...........|...........|...........|...........|...........|...........|...........|...........|...........|...........|...........|...........|...........|...........|...........|...........|...........|...........|........M3A|...........|...........|...........|...........|...........|...........|...........|...........
|...........|...........|...........|...........|...........|...........|...........|...........|...........|...........|...........|...........|...........|...........|...........|...........|...........|...........|...........|...........|...........|...........|...........|...........|...........|...........|...........|...........
|...........|...........|B-406......|F#406......|E-406......|C-406......|F#306......|...........|...........|...........|C-503......|G-404......|C-526......|...........|...........|C-519......|C#711......|...........|...........|B-511......|...........|...........|...........|...........|...........|...........|...........|...........
|...........|...........|...........|...........|...........|...........|...........|...........|...........|...........|...........|...........|...........|...........|...........|...........|...........|...........|...........|...........|...........|...........|...........|...........|...........|...........|...........|...........
|...........|...........|...........|...........|...........|...........|...........|...........|...........|...........|...........|...........|...........|...........|...........|...........|...........|...........|...........|...........|...........|...........|...........|...........|...........|...........|...........|...........
|...........|...........|...........|...........|...........|...........|...........|...........|...........|...........|...........|...........|...........|...........|...........|...........|...........|...........|...........|...........|...........|...........|...........|...........|...........|...........|...........|...........
|...........|...........|...........|...........|...........|...........|...........|...........|...........|...........|...........|...........|...........|...........|...........|...........|^^^........|...........|...........|...........|...........|...........|...........|...........|...........|...........|...........|...........
|...........|...........|...........|...........|...........|...........|...........|...........|...........|...........|...........|C-403......|...........|...........|...........|...........|...........|...........|...........|...........|...........|...........|...........|...........|...........|...........|...........|...........
|...........|...........|...........|...........|...........|...........|...........|...........|...........|...........|...........|...........|...........|...........|...........|...........|...........|...........|...........|...........|...........|...........|...........|...........|...........|...........|...........|...........
|...........|...........|...........|...........|...........|...........|...........|...........|...........|...........|...........|...........|...........|...........|...........|...........|...........|...........|...........|...........|...........|...........|...........|...........|...........|...........|...........|...........
|...........|D-302......|...........|...........|...........|...........|...........|...........|...........|...........|C-403......|...........|...........|...........|...........|F-518......|F#611......|...........|...........|...........|...........|...........|...........|...........|...........|...........|...........|...........
|...........|...........|...........|...........|...........|...........|...........|...........|...........|...........|...........|...........|...........|...........|...........|...........|...........|...........|...........|...........|...........|...........|...........|...........|...........|...........|...........|...........
|...........|...........|...........|...........|...........|...........|...........|...........|...........|...........|...........|...........|...........|...........|...........|...........|...........|...........|...........|...........|...........|...........|...........|...........|...........|...........|...........|...........
|...........|...........|...........|...........|...........|...........|...........|...........|...........|...........|...........|...........|...........|...........|...........|...........|........F0A|...........|...........|...........|...........|...........|...........|...........|...........|...........|...........|...........
|...........|...........|...........|...........|...........|...........|...........|...........|...........|...........|...........|...........|...........|...........|...........|...........|...........|...........|...........|...........|...........|...........|...........|...........|...........|...........|...........|...........
|...........|...........|G#406......|E-406......|C-406......|F#306......|...........|...........|...........|...........|...........|...........|...........|...........|...........|...........|........E0A|...........|A#511......|G#511......|...........|...........|...........|...........|...........|...........|...........|...........
|...........|...........|...........|...........|...........|...........|...........|...........|...........|...........|...........|...........|...........|...........|...........|...........|...........|...........|...........|...........|...........|...........|...........|...........|...........|...........|...........|...........
|...........|...........|...........|...........|...........|...........|...........|...........|...........|...........|...........|...........|...........|...........|...........|...........|...........|...........|...........|...........|...........|...........|...........|...........|...........|...........|...........|...........
|...........|...........|...........|...........|...........|...........|...........|...........|...........|...........|G-404......|C-503......|G-525......|...........|...........|C-519......|E-611......|...........|C-611......|...........|...........|...........|...........|...........|...........|...........|...........|...........
|...........|...........|...........|...........|...........|...........|...........|...........|...........|...........|...........|...........|...........|...........|...........|...........|...........|...........|...........|...........|...........|...........|...........|...........|...........|...........|...........|...........
|...........|...........|...........|...........|...........|...........|...........|...........|...........|...........|...........|...........|...........|...........|...........|...........|...........|...........|...........|...........|...........|...........|...........|...........|...........|...........|...........|...........
|...........|...........|...........|...........|...........|...........|...........|...........|...........|...........|...........|...........|...........|...........|...........|...........|...........|...........|...........|...........|...........|...........|...........|...........|...........|...........|...........|...........
|...........|...........|...........|...........|...........|...........|...........|...........|...........|...........|...........|...........|...........|...........|...........|...........|^^^........|...........|...........|...........|...........|...........|...........|...........|...........|...........|...........|...........
|...........|...........|...........|...........|...........|...........|...........|...........|...........|...........|C-403......|...........|...........|...........|...........|...........|...........|...........|A#511......|...........|...........|...........|...........|...........|...........|...........|...........|...........
|...........|...........|...........|...........|...........|...........|...........|...........|...........|...........|...........|...........|...........|...........|...........|...........|...........|...........|...........|...........|...........|...........|...........|...........|...........|...........|...........|...........
|...........|...........|...........|...........|...........|...........|...........|...........|...........|...........|...........|...........|...........|...........|...........|...........|...........|...........|...........|...........|...........|...........|...........|...........|...........|...........|...........|...........
Rows: 64
|...........|C#302......|D#506......|C-506......|G#406......|A#306......|F-306......|...........|...........|...........|...........|C-403......|...........|...........|...........|C-519......|...........|...........|...........|F-611......|...........|...........|...........|...........|...........|...........|...........|...........
|...........|...........|...........|...........|...........|...........|...........|...........|...........|...........|...........|...........|...........|...........|...........|...........|...........|...........|...........|........E10|...........|...........|...........|...........|...........|...........|...........|...........
|...........|...........|...........|...........|...........|...........|...........|...........|...........|...........|...........|...........|...........|...........|...........|...........|...........|...........|...........|...........|...........|...........|...........|...........|...........|...........|...........|...........
|...........|...........|...........|...........|...........|...........|...........|...........|...........|...........|...........|...........|...........|...........|...........|...........|...........|...........|...........|...........|...........|...........|...........|...........|...........|...........|...........|...........
|...........|...........|...........|...........|...........|...........|...........|...........|...........|...........|...........|...........|...........|...........|...........|...........|...........|...........|...........|...........|...........|...........|...........|...........|...........|...........|...........|...........
|...........|...........|...........|...........|...........|...........|...........|...........|...........|...........|...........|...........|...........|...........|...........|...........|...........|...........|...........|...........|...........|...........|...........|...........|...........|...........|...........|...........
|...........|...........|...........|...........|...........|...........|...........|...........|...........|...........|...........|...........|...........|...........|...........|...........|...........|...........|...........|...........|...........|...........|...........|...........|...........|...........|...........|...........
|...........|...........|...........|...........|...........|...........|...........|...........|...........|...........|...........|...........|...........|...........|...........|...........|...........|...........|...........|...........|...........|...........|...........|...........|...........|...........|...........|...........
|...........|...........|...........|...........|...........|...........|...........|...........|...........|...........|C-503......|G-404......|C-526......|...........|...........|...........|...........|...........|C-611......|...........|...........|...........|...........|...........|...........|...........|...........|...........
|...........|...........|...........|...........|...........|...........|...........|...........|...........|...........|...........|...........|...........|...........|...........|...........|...........|...........|...........|...........|...........|...........|...........|...........|...........|...........|...........|...........
|...........|...........|...........|...........|...........|...........|...........|...........|...........|...........|...........|...........|...........|...........|...........|...........|...........|...........|...........|...........|...........|...........|...........|...........|...........|...........|...........|...........
|...........|...........|...........|...........|...........|...........|...........|...........|...........|...........|...........|...........|...........|...........|...........|...........|...........|...........|^^^........|...........|...........|...........|...........|...........|...........|...........|...........|...........
|...........|...........|...........|...........|...........|...........|...........|...........|...........|...........|...........|...........|...........|...........|...........|...........|...........|...........|...........|...........|...........|...........|...........|...........|...........|...........|...........|...........
|...........|...........|...........|...........|...........|...........|...........|...........|...........|...........|...........|C-403......|...........|...........|...........|...........|...........|...........|...........|...........|...........|...........|...........|...........|...........|...........|...........|...........
|...........|...........|...........|...........|...........|...........|...........|...........|...........|...........|...........|...........|...........|...........|...........|...........|...........|...........|...........|...........|...........|...........|...........|...........|...........|...........|...........|...........
|...........|...........|...........|...........|...........|...........|...........|...........|...........|...........|...........|...........|...........|...........|...........|...........|...........|...........|...........|...........|...........|...........|...........|...........|...........|...........|...........|...........
|...........|G#302......|...........|...........|...........|...........|...........|...........|...........|...........|C-403......|...........|...........|...........|...........|F-518......|...........|...........|G#611......|...........|...........|...........|...........|...........|...........|...........|...........|...........
|...........|...........|...........|...........|...........|...........|...........|...........|...........|...........|...........|...........|...........|...........|...........|...........|...........|...........|...........|...........|...........|...........|...........|...........|...........|...........|...........|...........
|...........|...........|...........|...........|...........|...........|...........|...........|...........|...........|...........|...........|...........|...........|...........|...........|...........|...........|...........|...........|...........|...........|...........|...........|...........|...........|...........|...........
|...........|...........|...........|...........|...........|...........|...........|...........|...........|...........|...........|...........|...........|...........|...........|...........|...........|...........|^^^........|...........|...........|...........|...........|...........|...........|...........|...........|...........
|...........|...........|...........|...........|...........|...........|...........|...........|...........|...........|...........|...........|...........|...........|...........|...........|...........|...........|...........|...........|...........|...........|...........|...........|...........|...........|...........|...........
|...........|...........|...........|...........|...........|...........|...........|...........|...........|...........|...........|...........|...........|...........|...........|...........|F#611......|B-610......|...........|...........|...........|...........|...........|...........|...........|...........|...........|...........
|...........|...........|...........|...........|...........|...........|...........|...........|...........|...........|...........|...........|...........|...........|...........|...........|...........|...........|...........|...........|...........|...........|...........|...........|...........|...........|...........|...........
|...........|...........|...........|...........|...........|...........|...........|...........|...........|...........|...........|...........|...........|...........|...........|...........|...........|...........|...........|...........|...........|...........|...........|...........|...........|...........|...........|...........
|...........|...........|...........|...........|...........|...........|...........|...........|...........|...........|G-404......|C-503......|G-525......|...........|...........|...........|G#611......|C#710......|...........|...........|...........|...........|...........|...........|...........|...........|...........|...........
|...........|...........|...........|...........|...........|...........|...........|...........|...........|...........|...........|...........|...........|...........|...........|...........|...........|...........|...........|...........|...........|...........|...........|...........|...........|...........|...........|...........
|...........|...........|...........|...........|...........|...........|...........|...........|...........|...........|...........|...........|...........|...........|...........|...........|...........|...........|...........|...........|...........|...........|...........|...........|...........|...........|...........|...........
|...........|...........|...........|...........|...........|...........|...........|...........|...........|...........|...........|...........|...........|...........|...........|...........|...........|...........|...........|...........|...........|...........|...........|...........|...........|...........|...........|...........
|...........|...........|...........|...........|...........|...........|...........|...........|...........|...........|...........|...........|...........|...........|...........|...........|...........|...........|...........|...........|...........|...........|...........|...........|...........|...........|...........|...........
|...........|...........|...........|...........|...........|...........|...........|...........|...........|...........|C-403......|...........|...........|...........|...........|F-518......|F#611......|B-610......|...........|...........|...........|...........|...........|...........|...........|...........|...........|...........
|...........|...........|...........|...........|...........|...........|...........|...........|...........|...........|...........|...........|...........|...........|...........|...........|...........|...........|...........|...........|...........|...........|...........|...........|...........|...........|...........|...........
|...........|...........|...........|...........|...........|...........|...........|...........|...........|...........|...........|...........|...........|...........|...........|...........|...........|...........|...........|...........|...........|...........|...........|...........|...........|...........|...........|...........
|...........|F#302......|...........|...........|...........|...........|...........|...........|...........|...........|...........|C-403......|...........|...........|...........|...........|...........|...........|...........|B-511......|...........|...........|...........|...........|...........|...........|...........|...........
|...........|...........|...........|...........|...........|...........|...........|...........|...........|...........|...........|...........|...........|...........|...........|...........|...........|...........|...........|...........|...........|...........|...........|...........|...........|...........|...........|...........
|...........|...........|...........|...........|...........|...........|...........|...........|...........|...........|...........|...........|...........|...........|...........|...........|...........|...........|...........|...........|...........|...........|...........|...........|...........|...........|...........|...........
|...........|...........|...........|...........|...........|...........|...........|...........|...........|...........|...........|...........|...........|...........|...........|...........|...........|...........|...........|...........|...........|...........|...........|...........|...........|...........|...........|...........
|...........|...........|...........|...........|...........|...........|...........|...........|...........|...........|...........|...........|...........|...........|...........|...........|...........|...........|...........|...........|...........|...........|...........|...........|...........|...........|...........|...........
|...........|...........|...........|...........|...........|...........|...........|...........|...........|...........|...........|...........|...........|...........|...........|...........|...........|...........|E-611......|...........|...........|...........|...........|...........|...........|...........|...........|...........
|...........|...........|...........|...........|...........|...........|...........|...........|...........|...........|...........|...........|...........|...........|...........|...........|...........|...........|...........|...........|...........|...........|...........|...........|...........|...........|...........|...........
|...........|...........|...........|...........|...........|...........|...........|...........|...........|...........|...........|...........|...........|...........|...........|...........|...........|...........|...........|...........|...........|...........|...........|...........|...........|...........|...........|...........
|...........|...........|E-306......|A-306......|C#406......|G#406......|B-406......|...........|...........|...........|C-503......|G-404......|C-526......|...........|...........|C-519......|G#611......|C#710......|F#611......|...........|...........|...........|...........|...........|...........|...........|...........|...........
|...........|...........|...........|...........|...........|...........|...........|...........|...........|...........|...........|...........|...........|...........|...........|...........|...........|...........|...........|...........|...........|...........|...........|...........|...........|...........|...........|...........
|...........|...........|...........|...........|...........|...........|...........|...........|...........|...........|...........|...........|...........|...........|...........|...........|...........|...........|...........|...........|...........|...........|...........|...........|...........|...........|...........|...........
|...........|...........|...........|...........|...........|...........|...........|...........|...........|...........|...........|...........|...........|...........|...........|...........|...........|...........|...........|...........|...........|...........|...........|...........|...........|...........|...........|...........
|...........|...........|...........|...........|...........|...........|...........|...........|...........|...........|...........|...........|...........|...........|...........|...........|^^^........|^^^........|...........|...........|...........|...........|...........|...........|...........|...........|...........|...........
|...........|...........|...........|...........|...........|...........|...........|...........|...........|...........|...........|C-403......|...........|...........|...........|...........|...........|...........|E-611......|...........|...........|...........|...........|...........|...........|...........|...........|...........
|...........|...........|...........|...........|...........|...........|...........|...........|...........|...........|...........|...........|...........|...........|...........|...........|...........|...........|...........|...........|...........|...........|...........|...........|...........|...........|...........|...........
|...........|...........|...........|...........|...........|...........|...........|...........|...........|...........|...........|...........|...........|...........|...........|...........|...........|...........|...........|...........|...........|...........|...........|...........|...........|...........|...........|...........
|...........|B-202......|...........|...........|...........|...........|...........|...........|...........|...........|C-403......|...........|...........|...........|...........|F-518......|...........|F#610......|...........|G#511......|...........|...........|...........|...........|...........|...........|...........|...........
|...........|...........|...........|...........|...........|...........|...........|...........|...........|...........|...........|...........|...........|...........|...........|...........|...........|...........|...........|...........|...........|...........|...........|...........|...........|...........|...........|...........
|...........|...........|...........|...........|...........|...........|...........|...........|...........|...........|...........|...........|...........|...........|...........|...........|...........|...........|...........|...........|...........|...........|...........|...........|...........|...........|...........|...........
|...........|...........|...........|...........|...........|...........|...........|...........|...........|...........|...........|...........|...........|...........|...........|...........|...........|........F0A|...........|...........|...........|...........|...........|...........|...........|...........|...........|...........
|...........|...........|...........|...........|...........|...........|...........|...........|...........|...........|...........|...........|...........|...........|...........|...........|...........|...........|...........|...........|...........|...........|...........|...........|...........|...........|...........|...........
|...........|...........|D#306......|A-306......|C#406......|...........|G#406......|...........|...........|...........|...........|...........|...........|...........|...........|...........|...........|........E0A|...........|...........|...........|...........|...........|...........|...........|...........|...........|...........
|...........|...........|...........|...........|...........|...........|...........|...........|...........|...........|...........|...........|...........|...........|...........|...........|...........|...........|...........|...........|...........|...........|...........|...........|...........|...........|...........|...........
|...........|...........|...........|...........|...........|...........|...........|...........|...........|...........|...........|...........|...........|...........|...........|...........|...........|...........|...........|...........|...........|...........|...........|...........|...........|...........|...........|...........
|...........|...........|...........|...........|...........|...........|...........|...........|...........|...........|G-404......|C-503......|G-525......|...........|...........|C-519......|...........|E-610......|F#611......|...........|...........|...........|...........|...........|...........|...........|...........|...........
|...........|...........|...........|...........|...........|...........|...........|...........|...........|...........|...........|...........|...........|...........|...........|...........|...........|...........|...........|...........|...........|...........|...........|...........|...........|...........|...........|...........
|...........|...........|...........|...........|...........|...........|...........|...........|...........|...........|...........|...........|...........|...........|...........|...........|...........|...........|...........|...........|...........|...........|...........|...........|...........|...........|...........|...........
|...........|...........|...........|...........|...........|...........|...........|...........|...........|...........|...........|...........|...........|...........|...........|...........|...........|...........|^^^........|...........|...........|...........|...........|...........|...........|...........|...........|...........
|...........|...........|...........|...........|...........|...........|...........|...........|...........|...........|...........|...........|...........|...........|...........|...........|...........|^^^........|...........|...........|...........|...........|...........|...........|...........|...........|...........|...........
|...........|...........|...........|...........|...........|...........|...........|...........|...........|...........|C-403......|...........|...........|...........|...........|...........|...........|...........|...........|C#611......|...........|...........|...........|...........|...........|...........|...........|...........
|...........|...........|...........|...........|...........|...........|...........|...........|...........|...........|...........|...........|...........|...........|...........|...........|...........|...........|...........|...........|...........|...........|...........|...........|...........|...........|...........|...........
|...........|...........|...........|...........|...........|...........|...........|...........|...........|...........|...........|...........|...........|...........|...........|...........|...........|...........|...........|........F10|...........|...........|...........|...........|...........|...........|...........|...........
Rows: 64
|...........|E-302......|D#506......|B-406......|F#406......|C#406......|G#306......|...........|...........|...........|...........|C-403......|...........|...........|...........|C-519......|...........|...........|F#611......|...........|...........|...........|...........|...........|...........|...........|...........|...........
|...........|...........|...........|...........|...........|...........|...........|...........|...........|...........|...........|...........|...........|...........|...........|...........|...........|...........|...........|...........|...........|...........|...........|...........|...........|...........|...........|...........
|...........|...........|...........|...........|...........|...........|...........|...........|...........|...........|...........|...........|...........|...........|...........|...........|...........|...........|...........|...........|...........|...........|...........|...........|...........|...........|...........|...........
|...........|...........|...........|...........|...........|...........|...........|...........|...........|...........|...........|...........|...........|...........|...........|...........|...........|...........|........F10|...........|...........|...........|...........|...........|...........|...........|...........|...........
|...........|...........|...........|...........|...........|...........|...........|...........|...........|...........|...........|...........|...........|...........|...........|...........|...........|...........|...........|...........|...........|...........|...........|...........|...........|...........|...........|...........
|...........|...........|...........|...........|...........|...........|...........|...........|...........|...........|...........|...........|...........|...........|...........|...........|...........|C#610......|...........|...........|...........|...........|...........|...........|...........|...........|...........|...........
|...........|...........|...........|...........|...........|...........|...........|...........|...........|...........|...........|...........|...........|...........|...........|...........|...........|...........|...........|...........|...........|...........|...........|...........|...........|...........|...........|...........
|...........|...........|...........|...........|...........|...........|...........|...........|...........|...........|...........|...........|...........|...........|...........|...........|...........|...........|^^^........|...........|...........|...........|...........|...........|...........|...........|...........|...........
|...........|...........|...........|...........|...........|...........|...........|...........|...........|...........|C-503......|G-404......|C-526......|...........|...........|...........|...........|D#610......|...........|...........|...........|...........|...........|...........|...........|...........|...........|...........
|...........|...........|...........|...........|...........|...........|...........|...........|...........|...........|...........|...........|...........|...........|...........|...........|...........|...........|...........|...........|...........|...........|...........|...........|...........|...........|...........|...........
|...........|...........|...........|...........|...........|...........|...........|...........|...........|...........|...........|...........|...........|...........|...........|...........|...........|...........|...........|...........|...........|...........|...........|...........|...........|...........|...........|...........
|...........|...........|...........|...........|...........|...........|...........|...........|...........|...........|...........|...........|...........|...........|...........|...........|...........|...........|...........|...........|...........|...........|...........|...........|...........|...........|...........|...........
|...........|...........|...........|...........|...........|...........|...........|...........|...........|...........|...........|...........|...........|...........|...........|...........|...........|...........|...........|...........|...........|...........|...........|...........|...........|...........|...........|...........
|...........|...........|...........|...........|...........|...........|...........|...........|...........|...........|...........|C-403......|...........|...........|...........|...........|...........|C#610......|...........|...........|...........|...........|...........|...........|...........|...........|...........|...........
|...........|...........|...........|...........|...........|...........|...........|...........|...........|...........|...........|...........|...........|...........|...........|...........|...........|...........|...........|...........|...........|...........|...........|...........|...........|...........|...........|...........
|...........|...........|...........|...........|...........|...........|...........|...........|...........|...........|...........|...........|...........|...........|...........|...........|...........|...........|...........|...........|...........|...........|...........|...........|...........|...........|...........|...........
|...........|B-202......|...........|...........|...........|...........|...........|...........|...........|...........|C-403......|...........|...........|...........|...........|F-518......|...........|...........|...........|...........|...........|...........|...........|...........|...........|...........|...........|...........
|...........|...........|...........|...........|...........|...........|...........|...........|...........|...........|...........|...........|...........|...........|...........|...........|...........|...........|...........|...........|...........|...........|...........|...........|...........|...........|...........|...........
|...........|...........|...........|...........|...........|...........|...........|...........|...........|...........|...........|...........|...........|...........|...........|...........|...........|...........|...........|...........|...........|...........|...........|...........|...........|...........|...........|...........
|...........|...........|...........|...........|...........|...........|...........|...........|...........|...........|...........|...........|...........|...........|...........|...........|...........|...........|...........|...........|...........|...........|...........|...........|...........|...........|...........|...........
|...........|...........|...........|...........|...........|...........|...........|...........|...........|...........|...........|...........|...........|...........|...........|...........|...........|...........|...........|...........|...........|...........|...........|...........|...........|...........|...........|...........
|...........|...........|...........|...........|...........|...........|...........|...........|...........|...........|...........|...........|...........|...........|...........|...........|F#711......|...........|...........|...........|...........|...........|...........|...........|...........|...........|...........|...........
|...........|...........|...........|...........|...........|...........|...........|...........|...........|...........|...........|...........|...........|...........|...........|...........|...........|...........|...........|...........|...........|...........|...........|...........|...........|...........|...........|...........
|...........|...........|...........|...........|...........|...........|...........|...........|...........|...........|...........|...........|...........|...........|...........|...........|...........|...........|...........|...........|...........|...........|...........|...........|...........|...........|...........|...........
|...........|...........|...........|...........|...........|...........|...........|...........|...........|...........|G-404......|C-503......|G-525......|...........|...........|...........|G#711......|C#610......|...........|...........|...........|...........|...........|...........|...........|...........|...........|...........
|...........|...........|...........|...........|...........|...........|...........|...........|...........|...........|...........|...........|...........|...........|...........|...........|...........|........F10|...........|...........|...........|...........|...........|...........|...........|...........|...........|...........
|...........|...........|...........|...........|...........|...........|...........|...........|...........|...........|...........|...........|...........|...........|...........|...........|...........|...........|...........|...........|...........|...........|...........|...........|...........|...........|...........|...........
|...........|...........|...........|...........|...........|...........|...........|...........|...........|...........|...........|...........|...........|...........|...........|...........|...........|...........|...........|...........|...........|...........|...........|...........|...........|...........|...........|...........
|...........|...........|...........|...........|...........|...........|...........|...........|...........|...........|...........|...........|...........|...........|...........|...........|...........|^^^........|...........|...........|...........|...........|...........|...........|...........|...........|...........|...........
|...........|...........|...........|...........|...........|...........|...........|...........|...........|...........|C-403......|...........|...........|...........|...........|F-518......|F#711......|...........|...........|...........|...........|...........|...........|...........|...........|...........|...........|...........
|...........|...........|...........|...........|...........|...........|...........|...........|...........|...........|...........|...........|...........|...........|...........|...........|...........|...........|...........|...........|...........|...........|...........|...........|...........|...........|...........|...........
|...........|...........|...........|...........|...........|...........|...........|...........|...........|...........|...........|...........|...........|...........|...........|...........|...........|...........|...........|...........|...........|...........|...........|...........|...........|...........|...........|...........
|...........|D#302......|...........|...........|...........|...........|...........|...........|...........|...........|...........|C-403......|...........|...........|...........|...........|...........|...........|...........|F#611......|...........|...........|...........|...........|...........|...........|...........|...........
|...........|...........|...........|...........|...........|...........|...........|...........|...........|...........|...........|...........|...........|...........|...........|...........|...........|...........|...........|...........|...........|...........|...........|...........|...........|...........|...........|...........
|...........|...........|...........|...........|...........|...........|...........|...........|...........|...........|...........|...........|...........|...........|...........|...........|...........|...........|...........|...........|...........|...........|...........|...........|...........|...........|...........|...........
|...........|...........|...........|...........|...........|...........|...........|...........|...........|...........|...........|...........|...........|...........|...........|...........|...........|...........|...........|...........|...........|...........|...........|...........|...........|...........|...........|...........
|...........|...........|...........|...........|...........|...........|...........|...........|...........|...........|...........|...........|...........|...........|...........|...........|...........|...........|...........|...........|...........|...........|...........|...........|...........|...........|...........|...........
|...........|...........|...........|...........|...........|...........|...........|...........|...........|...........|...........|...........|...........|...........|...........|...........|...........|C#510......|...........|...........|...........|...........|...........|...........|...........|...........|...........|...........
|...........|...........|...........|...........|...........|...........|...........|...........|...........|...........|...........|...........|...........|...........|...........|...........|...........|...........|...........|...........|...........|...........|...........|...........|...........|...........|...........|...........
|...........|...........|...........|...........|...........|...........|...........|...........|...........|...........|...........|...........|...........|...........|...........|...........|...........|...........|...........|...........|...........|...........|...........|...........|...........|...........|...........|...........
|...........|...........|F#506......|B-406......|G-406......|C#406......|G-306......|...........|...........|...........|C-503......|G-404......|C-526......|...........|...........|C-519......|G#711......|D#510......|...........|...........|...........|...........|...........|...........|...........|...........|...........|...........
|...........|...........|...........|...........|...........|...........|...........|...........|...........|...........|...........|...........|...........|...........|...........|...........|...........|...........|...........|...........|...........|...........|...........|...........|...........|...........|...........|...........
|...........|...........|...........|...........|...........|...........|...........|...........|...........|...........|...........|...........|...........|...........|...........|...........|...........|...........|...........|...........|...........|...........|...........|...........|...........|...........|...........|...........
|...........|...........|...........|...........|...........|...........|...........|...........|...........|...........|...........|...........|...........|...........|...........|...........|...........|...........|...........|...........|...........|...........|...........|...........|...........|...........|...........|...........
|...........|...........|...........|...........|...........|...........|...........|...........|...........|...........|...........|...........|...........|...........|...........|...........|^^^........|...........|...........|...........|...........|...........|...........|...........|...........|...........|...........|...........
|...........|...........|...........|...........|...........|...........|...........|...........|...........|...........|...........|C-403......|...........|...........|...........|...........|...........|C#510......|...........|...........|...........|...........|...........|...........|...........|...........|...........|...........
|...........|...........|...........|...........|...........|...........|...........|...........|...........|...........|...........|...........|...........|...........|...........|...........|...........|...........|...........|...........|...........|...........|...........|...........|...........|...........|...........|...........
|...........|...........|...........|...........|...........|...........|...........|...........|...........|...........|...........|...........|...........|...........|...........|...........|...........|...........|...........|...........|...........|...........|...........|...........|...........|...........|...........|...........
|...........|A-202......|...........|...........|...........|...........|...........|...........|...........|...........|C-403......|...........|...........|...........|...........|F-518......|C#711......|...........|...........|D#611......|...........|...........|...........|...........|...........|...........|...........|...........
|...........|...........|...........|...........|...........|...........|...........|...........|...........|...........|...........|...........|...........|...........|...........|...........|...........|...........|...........|...........|...........|...........|...........|...........|...........|...........|...........|...........
|...........|...........|...........|...........|...........|...........|...........|...........|...........|...........|...........|...........|...........|...........|...........|...........|...........|...........|...........|...........|...........|...........|...........|...........|...........|...........|...........|...........
|...........|...........|...........|...........|...........|...........|...........|...........|...........|...........|...........|...........|...........|...........|...........|...........|........F0A|...........|...........|...........|...........|...........|...........|...........|...........|...........|...........|...........
|...........|...........|...........|...........|...........|...........|...........|...........|...........|...........|...........|...........|...........|...........|...........|...........|...........|...........|...........|...........|...........|...........|...........|...........|...........|...........|...........|...........
|...........|...........|D#506......|B-406......|F-406......|C#406......|G-306......|...........|...........|...........|...........|...........|...........|...........|...........|...........|........E0A|...........|F-611......|...........|...........|...........|...........|...........|...........|...........|...........|...........
|...........|...........|...........|...........|...........|...........|...........|...........|...........|...........|...........|...........|...........|...........|...........|...........|...........|...........|...........|...........|...........|...........|...........|...........|...........|...........|...........|...........
|...........|...........|...........|...........|...........|...........|...........|...........|...........|...........|...........|...........|...........|...........|...........|...........|...........|...........|...........|...........|...........|...........|...........|...........|...........|...........|...........|...........
|...........|...........|...........|...........|...........|...........|...........|...........|...........|...........|G-404......|C-503......|G-525......|...........|...........|C-519......|B-611......|C#510......|G-611......|...........|...........|...........|...........|...........|...........|...........|...........|...........
|...........|...........|...........|...........|...........|...........|...........|...........|...........|...........|...........|...........|...........|...........|...........|...........|...........|........F10|...........|...........|...........|...........|...........|...........|...........|...........|...........|...........
|...........|...........|...........|...........|...........|...........|...........|...........|...........|...........|...........|...........|...........|...........|...........|...........|...........|...........|...........|...........|...........|...........|...........|...........|...........|...........|...........|...........
|...........|...........|...........|...........|...........|...........|...........|...........|...........|...........|...........|...........|...........|...........|...........|...........|...........|...........|...........|...........|...........|...........|...........|...........|...........|...........|...........|...........
|...........|...........|...........|...........|...........|...........|...........|...........|...........|...........|...........|...........|...........|...........|...........|...........|^^^........|^^^........|...........|...........|...........|...........|...........|...........|...........|...........|...........|...........
|...........|...........|...........|...........|...........|...........|...........|...........|...........|...........|C-403......|...........|...........|...........|...........|...........|...........|...........|F-611......|A#611......|...........|...........|...........|...........|...........|...........|...........|...........
|...........|...........|...........|...........|...........|...........|...........|...........|...........|...........|...........|...........|...........|...........|...........|...........|...........|...........|...........|...........|...........|...........|...........|...........|...........|...........|...........|...........
|...........|...........|...........|...........|...........|...........|...........|...........|...........|...........|...........|...........|...........|...........|...........|...........|...........|...........|...........|...........|...........|...........|...........|...........|...........|...........|...........|...........
Rows: 64
|...........|G#202...M36|A#406......|G-406......|D#406......|A#306......|C-406......|...........|...........|...........|...........|C-403......|...........|...........|...........|C-519......|...........|G#410......|...........|...........|...........|...........|...........|...........|...........|...........|...........|...........
|...........|...........|...........|...........|...........|...........|...........|...........|...........|...........|...........|...........|...........|...........|...........|...........|...........|...........|...........|...........|...........|...........|...........|...........|...........|...........|...........|...........
|...........|...........|...........|...........|...........|...........|...........|...........|...........|...........|...........|...........|...........|...........|...........|...........|...........|...........|...........|...........|...........|...........|...........|...........|...........|...........|...........|...........
|...........|...........|...........|...........|...........|...........|...........|...........|...........|...........|...........|...........|...........|...........|...........|...........|...........|...........|...........|...........|...........|...........|...........|...........|...........|...........|...........|...........
|...........|...........|...........|...........|...........|...........|...........|...........|...........|...........|...........|...........|...........|...........|...........|...........|...........|...........|...........|...........|...........|...........|...........|...........|...........|...........|...........|...........
|...........|...........|...........|...........|...........|...........|...........|...........|...........|...........|...........|...........|...........|...........|...........|...........|...........|...........|...........|...........|...........|...........|...........|...........|...........|...........|...........|...........
|...........|...........|...........|...........|...........|...........|...........|...........|...........|...........|...........|...........|...........|...........|...........|...........|...........|...........|...........|...........|...........|...........|...........|...........|...........|...........|...........|...........
|...........|...........|...........|...........|...........|...........|...........|...........|...........|...........|...........|...........|...........|...........|...........|...........|...........|...........|...........|...........|...........|...........|...........|...........|...........|...........|...........|...........
|...........|...........|...........|...........|...........|...........|...........|...........|...........|...........|C-503......|G-404......|C-526......|...........|...........|...........|...........|D#610......|G-611......|...........|...........|...........|...........|...........|...........|...........|...........|...........
|...........|...........|...........|...........|...........|...........|...........|...........|...........|...........|...........|...........|...........|...........|...........|...........|...........|...........|...........|...........|...........|...........|...........|...........|...........|...........|...........|...........
|...........|...........|...........|...........|...........|...........|...........|...........|...........|...........|...........|...........|...........|...........|...........|...........|...........|...........|...........|...........|...........|...........|...........|...........|...........|...........|...........|...........
|...........|...........|...........|...........|...........|...........|...........|...........|...........|...........|...........|...........|...........|...........|...........|...........|...........|...........|^^^........|...........|...........|...........|...........|...........|...........|...........|...........|...........
|...........|...........|...........|...........|...........|...........|...........|...........|...........|...........|...........|...........|...........|...........|...........|...........|...........|...........|...........|...........|...........|...........|...........|...........|...........|...........|...........|...........
|...........|...........|...........|...........|...........|...........|...........|...........|...........|...........|...........|C-403......|...........|...........|...........|...........|F-711......|C-610......|...........|...........|...........|...........|...........|...........|...........|...........|...........|...........
|...........|...........|...........|...........|...........|...........|...........|...........|...........|...........|...........|...........|...........|...........|...........|...........|........F10|...........|...........|...........|...........|...........|...........|...........|...........|...........|...........|...........
|...........|...........|...........|...........|...........|...........|...........|...........|...........|...........|...........|...........|...........|...........|...........|...........|...........|...........|...........|...........|...........|...........|...........|...........|...........|...........|...........|...........
|...........|A#202......|...........|...........|...........|...........|...........|...........|...........|...........|C-403......|...........|...........|...........|...........|F-518......|...........|...........|...........|...........|...........|...........|...........|...........|...........|...........|...........|...........
|...........|...........|...........|...........|...........|...........|...........|...........|...........|...........|...........|...........|...........|...........|...........|...........|^^^........|...........|...........|...........|...........|...........|...........|...........|...........|...........|...........|...........
|...........|...........|...........|...........|...........|...........|...........|...........|...........|...........|...........|...........|...........|...........|...........|...........|...........|...........|...........|...........|...........|...........|...........|...........|...........|...........|...........|...........
|...........|...........|...........|...........|...........|...........|...........|...........|...........|...........|...........|...........|...........|...........|...........|...........|...........|...........|...........|...........|...........|...........|...........|...........|...........|...........|...........|...........
|...........|...........|...........|...........|...........|...........|...........|...........|...........|...........|...........|...........|...........|...........|...........|...........|...........|...........|...........|...........|...........|...........|...........|...........|...........|...........|...........|...........
|...........|...........|...........|...........|...........|...........|...........|...........|...........|...........|...........|...........|...........|...........|...........|...........|F-711......|...........|...........|...........|...........|...........|...........|...........|...........|...........|...........|...........
|...........|...........|...........|...........|...........|...........|...........|...........|...........|...........|...........|...........|...........|...........|...........|...........|...........|...........|...........|...........|...........|...........|...........|...........|...........|...........|...........|...........
|...........|...........|...........|...........|...........|...........|...........|...........|...........|...........|...........|...........|...........|...........|...........|...........|...........|...........|...........|...........|...........|...........|...........|...........|...........|...........|...........|...........
|...........|...........|...........|...........|...........|...........|...........|...........|...........|...........|G-404......|C-503......|G-525......|...........|...........|...........|...........|...........|...........|...........|...........|...........|...........|...........|...........|...........|...........|...........
|...........|...........|...........|...........|...........|...........|...........|...........|...........|...........|...........|...........|...........|...........|...........|...........|^^^........|...........|...........|...........|...........|...........|...........|...........|...........|...........|...........|...........
|...........|...........|...........|...........|...........|...........|...........|...........|...........|...........|...........|...........|...........|...........|...........|...........|...........|...........|...........|...........|...........|...........|...........|...........|...........|...........|...........|...........
|...........|...........|...........|...........|...........|...........|...........|...........|...........|...........|...........|...........|...........|...........|...........|...........|...........|...........|...........|...........|...........|...........|...........|...........|...........|...........|...........|...........
|...........|...........|...........|...........|...........|...........|...........|...........|...........|...........|...........|...........|...........|...........|...........|...........|...........|...........|...........|...........|...........|...........|...........|...........|...........|...........|...........|...........
|...........|...........|...........|...........|...........|...........|...........|...........|...........|...........|C-403......|...........|...........|...........|...........|F-518......|C-711......|A#610......|...........|...........|...........|...........|...........|...........|...........|...........|...........|...........
|...........|...........|...........|...........|...........|...........|...........|...........|...........|...........|...........|...........|...........|...........|...........|...........|...........|........F10|...........|...........|...........|...........|...........|...........|...........|...........|...........|...........
|...........|...........|...........|...........|...........|...........|...........|...........|...........|...........|...........|...........|...........|...........|...........|...........|...........|...........|...........|...........|...........|...........|...........|...........|...........|...........|...........|...........
|...........|C-302......|...........|...........|...........|...........|...........|...........|...........|...........|...........|C-403......|...........|...........|...........|...........|D#711......|...........|...........|...........|...........|...........|...........|...........|...........|...........|...........|...........
|...........|...........|...........|...........|...........|...........|...........|...........|...........|...........|...........|...........|...........|...........|...........|...........|...........|^^^........|...........|...........|...........|...........|...........|...........|...........|...........|...........|...........
|...........|...........|...........|...........|...........|...........|...........|...........|...........|...........|...........|...........|...........|...........|...........|...........|...........|...........|...........|...........|...........|...........|...........|...........|...........|...........|...........|...........
|...........|...........|...........|...........|...........|...........|...........|...........|...........|...........|...........|...........|...........|...........|...........|...........|...........|...........|...........|...........|...........|...........|...........|...........|...........|...........|...........|...........
|...........|...........|...........|...........|...........|...........|...........|...........|...........|...........|...........|...........|...........|...........|...........|...........|...........|...........|...........|...........|...........|...........|...........|...........|...........|...........|...........|...........
|...........|...........|...........|...........|...........|...........|...........|...........|...........|...........|...........|...........|...........|...........|...........|...........|F-711......|A#610......|...........|...........|...........|...........|...........|...........|...........|...........|...........|...........
|...........|...........|...........|...........|...........|...........|...........|...........|...........|...........|...........|...........|...........|...........|...........|...........|...........|...........|...........|...........|...........|...........|...........|...........|...........|...........|...........|...........
|...........|...........|...........|...........|...........|...........|...........|...........|...........|...........|...........|...........|...........|...........|...........|...........|...........|...........|...........|...........|...........|...........|...........|...........|...........|...........|...........|...........
|...........|...........|A#306......|D#406......|G-406......|C-506......|...........|...........|...........|...........|C-503......|G-404......|C-526......|...........|...........|C-519......|...........|...........|...........|G#611......|...........|...........|...........|...........|...........|...........|...........|...........
|...........|...........|...........|...........|...........|...........|...........|...........|...........|...........|...........|...........|...........|...........|...........|...........|^^^........|^^^........|...........|...........|...........|...........|...........|...........|...........|...........|...........|...........
|...........|...........|...........|...........|...........|...........|...........|...........|...........|...........|...........|...........|...........|...........|...........|...........|...........|...........|...........|...........|...........|...........|...........|...........|...........|...........|...........|...........
|...........|...........|...........|...........|...........|...........|...........|...........|...........|...........|...........|...........|...........|...........|...........|...........|...........|...........|...........|...........|...........|...........|...........|...........|...........|...........|...........|...........
|...........|...........|...........|...........|...........|...........|...........|...........|...........|...........|...........|...........|...........|...........|...........|...........|...........|...........|...........|...........|...........|...........|...........|...........|...........|...........|...........|...........
|...........|...........|...........|...........|...........|...........|...........|...........|...........|...........|...........|C-403......|...........|...........|...........|...........|...........|F-610......|D#610......|...........|...........|...........|...........|...........|...........|...........|...........|...........
|...........|...........|...........|...........|...........|...........|...........|...........|...........|...........|...........|...........|...........|...........|...........|...........|...........|...........|........F10|...........|...........|...........|...........|...........|...........|...........|...........|...........
|...........|...........|...........|...........|...........|...........|...........|...........|...........|...........|...........|...........|...........|...........|...........|...........|...........|...........|...........|...........|...........|...........|...........|...........|...........|...........|...........|...........
|...........|F-302......|...........|...........|...........|...........|...........|...........|...........|...........|C-403......|...........|...........|...........|...........|F-518......|...........|G#610......|...........|...........|...........|...........|...........|...........|...........|...........|...........|...........
|...........|...........|...........|...........|...........|...........|...........|...........|...........|...........|...........|...........|...........|...........|...........|...........|...........|...........|^^^........|...........|...........|...........|...........|...........|...........|...........|...........|...........
|...........|...........|...........|...........|...........|...........|...........|...........|...........|...........|...........|...........|...........|...........|...........|...........|...........|...........|...........|...........|...........|...........|...........|...........|...........|...........|...........|...........
|...........|...........|...........|...........|...........|...........|...........|...........|...........|...........|...........|...........|...........|...........|...........|...........|...........|...........|...........|...........|...........|...........|...........|...........|...........|...........|...........|...........
|...........|...........|...........|...........|...........|...........|...........|...........|...........|...........|...........|...........|...........|...........|...........|...........|...........|...........|...........|...........|...........|...........|...........|...........|...........|...........|...........|...........
|...........|...........|A-306......|D#406......|F#406......|C#506......|...........|...........|...........|...........|...........|...........|...........|...........|...........|...........|...........|A#610......|D#610......|D#711......|...........|...........|...........|...........|...........|...........|...........|...........
|...........|...........|...........|...........|...........|...........|...........|...........|...........|...........|...........|...........|...........|...........|...........|...........|...........|...........|...........|...........|...........|...........|...........|...........|...........|...........|...........|...........
|...........|...........|...........|...........|...........|...........|...........|...........|...........|...........|...........|...........|...........|...........|...........|...........|...........|...........|...........|...........|...........|...........|...........|...........|...........|...........|...........|...........
|...........|...........|...........|...........|...........|...........|...........|...........|...........|...........|G-404......|C-503......|G-525......|...........|...........|C-519......|...........|...........|...........|...........|...........|...........|...........|...........|...........|...........|...........|...........
|...........|...........|...........|...........|...........|...........|...........|...........|...........|...........|...........|...........|...........|...........|...........|...........|...........|^^^........|^^^........|...........|...........|...........|...........|...........|...........|...........|...........|...........
|...........|...........|...........|...........|...........|...........|...........|...........|...........|...........|...........|...........|...........|...........|...........|...........|...........|...........|...........|...........|...........|...........|...........|...........|...........|...........|...........|...........
|...........|...........|...........|...........|...........|...........|...........|...........|...........|...........|...........|...........|...........|...........|...........|...........|...........|...........|...........|...........|...........|...........|...........|...........|...........|...........|...........|...........
|...........|...........|...........|...........|...........|...........|...........|...........|...........|...........|...........|...........|...........|...........|...........|...........|...........|...........|...........|...........|...........|...........|...........|...........|...........|...........|...........|...........
|...........|...........|...........|...........|...........|...........|...........|...........|...........|...........|C-403......|...........|...........|...........|...........|...........|...........|...........|A#510......|...........|...........|...........|...........|...........|...........|...........|...........|...........
|...........|...........|...........|...........|...........|...........|...........|...........|...........|...........|...........|...........|...........|...........|...........|...........|...........|...........|...........|...........|...........|...........|...........|...........|...........|...........|...........|...........
|...........|...........|...........|...........|...........|...........|...........|...........|...........|...........|...........|...........|...........|...........|...........|...........|...........|...........|...........|...........|...........|...........|...........|...........|...........|...........|...........|...........
Rows: 64
|...........|A#302...M36|D#506......|G#406......|F-406......|C-406......|C#406......|...........|...........|...........|...........|C-403......|...........|...........|...........|C-519......|...........|...........|C#610......|A#611......|...........|...........|...........|...........|...........|...........|...........|...........
|...........|...........|...........|...........|...........|...........|...........|...........|...........|...........|...........|...........|...........|...........|...........|...........|...........|...........|...........|...........|...........|...........|...........|...........|...........|...........|...........|...........
|...........|...........|...........|...........|...........|...........|...........|...........|...........|...........|...........|...........|...........|...........|...........|...........|...........|...........|...........|........F10|...........|...........|...........|...........|...........|...........|...........|...........
|...........|...........|...........|...........|...........|...........|...........|...........|...........|...........|...........|...........|...........|...........|...........|...........|...........|...........|...........|...........|...........|...........|...........|...........|...........|...........|...........|...........
|...........|...........|...........|...........|...........|...........|...........|...........|...........|...........|...........|...........|...........|...........|...........|...........|...........|...........|...........|...........|...........|...........|...........|...........|...........|...........|...........|...........
|...........|...........|...........|...........|...........|...........|...........|...........|...........|...........|...........|...........|...........|...........|...........|...........|...........|...........|D#610......|...........|...........|...........|...........|...........|...........|...........|...........|...........
|...........|...........|...........|...........|...........|...........|...........|...........|...........|...........|...........|...........|...........|...........|...........|...........|...........|...........|...........|...........|...........|...........|...........|...........|...........|...........|...........|...........
|...........|...........|...........|...........|...........|...........|...........|...........|...........|...........|...........|...........|...........|...........|...........|...........|...........|...........|...........|...........|...........|...........|...........|...........|...........|...........|...........|...........
|...........|...........|...........|...........|...........|...........|...........|...........|...........|...........|C-503......|G-404......|C-526......|...........|...........|...........|...........|...........|...........|...........|...........|...........|...........|...........|...........|...........|...........|...........
|...........|...........|...........|...........|...........|...........|...........|...........|...........|...........|...........|...........|...........|...........|...........|...........|...........|...........|^^^........|...........|...........|...........|...........|...........|...........|...........|...........|...........
|...........|...........|...........|...........|...........|...........|...........|...........|...........|...........|...........|...........|...........|...........|...........|...........|...........|...........|...........|...........|...........|...........|...........|...........|...........|...........|...........|...........
|...........|...........|...........|...........|...........|...........|...........|...........|...........|...........|...........|...........|...........|...........|...........|...........|...........|...........|...........|...........|...........|...........|...........|...........|...........|...........|...........|...........
|...........|...........|...........|...........|...........|...........|...........|...........|...........|...........|...........|...........|...........|...........|...........|...........|...........|...........|...........|...........|...........|...........|...........|...........|...........|...........|...........|...........
|...........|...........|...........|...........|...........|...........|...........|...........|...........|...........|...........|C-403......|...........|...........|...........|...........|F-711......|...........|...........|...........|...........|...........|...........|...........|...........|...........|...........|...........
|...........|...........|...........|...........|...........|...........|...........|...........|...........|...........|...........|...........|...........|...........|...........|...........|........F10|...........|...........|...........|...........|...........|...........|...........|...........|...........|...........|...........
|...........|...........|...........|...........|...........|...........|...........|...........|...........|...........|...........|...........|...........|...........|...........|...........|...........|...........|...........|...........|...........|...........|...........|...........|...........|...........|...........|...........
|...........|F-302......|...........|...........|...........|...........|...........|...........|...........|...........|C-403......|...........|...........|...........|...........|F-518......|...........|...........|...........|...........|...........|...........|...........|...........|...........|...........|...........|...........
|...........|...........|...........|...........|...........|...........|...........|...........|...........|...........|...........|...........|...........|...........|...........|...........|^^^........|...........|...........|...........|...........|...........|...........|...........|...........|...........|...........|...........
|...........|...........|...........|...........|...........|...........|...........|...........|...........|...........|...........|...........|...........|...........|...........|...........|...........|...........|...........|...........|...........|...........|...........|...........|...........|...........|...........|...........
|...........|...........|...........|...........|...........|...........|...........|...........|...........|...........|...........|...........|...........|...........|...........|...........|...........|...........|...........|...........|...........|...........|...........|...........|...........|...........|...........|...........
|...........|...........|...........|...........|...........|...........|...........|...........|...........|...........|...........|...........|...........|...........|...........|...........|...........|...........|...........|...........|...........|...........|...........|...........|...........|...........|...........|...........
|...........|...........|...........|...........|...........|...........|...........|...........|...........|...........|...........|...........|...........|...........|...........|...........|F-711......|...........|...........|...........|...........|...........|...........|...........|...........|...........|...........|...........
|...........|...........|...........|...........|...........|...........|...........|...........|...........|...........|...........|...........|...........|...........|...........|...........|...........|...........|...........|...........|...........|...........|...........|...........|...........|...........|...........|...........
|...........|...........|...........|...........|...........|...........|...........|...........|...........|...........|...........|...........|...........|...........|...........|...........|...........|...........|...........|...........|...........|...........|...........|...........|...........|...........|...........|...........
|...........|...........|...........|...........|...........|...........|...........|...........|...........|...........|G-404......|C-503......|G-525......|...........|...........|...........|...........|...........|...........|...........|...........|...........|...........|...........|...........|...........|...........|...........
|...........|...........|...........|...........|...........|...........|...........|...........|...........|...........|...........|...........|...........|...........|...........|...........|^^^........|...........|...........|...........|...........|...........|...........|...........|...........|...........|...........|...........
|...........|...........|...........|...........|...........|...........|...........|...........|...........|...........|...........|...........|...........|...........|...........|...........|...........|...........|...........|...........|...........|...........|...........|...........|...........|...........|...........|...........
|...........|...........|...........|...........|...........|...........|...........|...........|...........|...........|...........|...........|...........|...........|...........|...........|...........|...........|...........|...........|...........|...........|...........|...........|...........|...........|...........|...........
|...........|...........|...........|...........|...........|...........|...........|...........|...........|...........|...........|...........|...........|...........|...........|...........|...........|...........|...........|...........|...........|...........|...........|...........|...........|...........|...........|...........
|...........|...........|...........|...........|...........|...........|...........|...........|...........|...........|C-403......|...........|...........|...........|...........|F-518......|C-711......|A#611......|...........|...........|...........|...........|...........|...........|...........|...........|...........|...........
|...........|...........|...........|...........|...........|...........|...........|...........|...........|...........|...........|...........|...........|...........|...........|...........|...........|........F10|...........|...........|...........|...........|...........|...........|...........|...........|...........|...........
|...........|...........|...........|...........|...........|...........|...........|...........|...........|...........|...........|...........|...........|...........|...........|...........|...........|...........|...........|...........|...........|...........|...........|...........|...........|...........|...........|...........
|...........|D#302......|...........|...........|...........|...........|...........|...........|...........|...........|...........|C-403......|...........|...........|...........|...........|D#711......|...........|...........|F-511......|...........|...........|...........|...........|...........|...........|...........|...........
|...........|...........|...........|...........|...........|...........|...........|...........|...........|...........|...........|...........|...........|...........|...........|...........|...........|^^^........|...........|...........|...........|...........|...........|...........|...........|...........|...........|...........
|...........|...........|...........|...........|...........|...........|...........|...........|...........|...........|...........|...........|...........|...........|...........|...........|...........|...........|...........|...........|...........|...........|...........|...........|...........|...........|...........|...........
|...........|...........|...........|...........|...........|...........|...........|...........|...........|...........|...........|...........|...........|...........|...........|...........|...........|...........|...........|...........|...........|...........|...........|...........|...........|...........|...........|...........
|...........|...........|...........|...........|...........|...........|...........|...........|...........|...........|...........|...........|...........|...........|...........|...........|...........|...........|...........|...........|...........|...........|...........|...........|...........|...........|...........|...........
|...........|...........|...........|...........|...........|...........|...........|...........|...........|...........|...........|...........|...........|...........|...........|...........|F-711......|A#611......|...........|...........|...........|...........|...........|...........|...........|...........|...........|...........
|...........|...........|...........|...........|...........|...........|...........|...........|...........|...........|...........|...........|...........|...........|...........|...........|...........|...........|...........|...........|...........|...........|...........|...........|...........|...........|...........|...........
|...........|...........|...........|...........|...........|...........|...........|...........|...........|...........|...........|...........|...........|...........|...........|...........|...........|...........|...........|...........|...........|...........|...........|...........|...........|...........|...........|...........
|...........|...........|F#506......|B-406......|G-406......|C#406......|G-306......|...........|...........|...........|C-503......|G-404......|C-526......|...........|...........|C-519......|...........|...........|...........|...........|...........|...........|...........|...........|...........|...........|...........|...........
|...........|...........|...........|...........|...........|...........|...........|...........|...........|...........|...........|...........|...........|...........|...........|...........|^^^........|^^^........|...........|...........|...........|...........|...........|...........|...........|...........|...........|...........
|...........|...........|...........|...........|...........|...........|...........|...........|...........|...........|...........|...........|...........|...........|...........|...........|...........|...........|...........|...........|...........|...........|...........|...........|...........|...........|...........|...........
|...........|...........|...........|...........|...........|...........|...........|...........|...........|...........|...........|...........|...........|...........|...........|...........|...........|...........|...........|...........|...........|...........|...........|...........|...........|...........|...........|...........
|...........|...........|...........|...........|...........|...........|...........|...........|...........|...........|...........|...........|...........|...........|...........|...........|...........|...........|...........|...........|...........|...........|...........|...........|...........|...........|...........|...........
|...........|...........|...........|...........|...........|...........|...........|...........|...........|...........|...........|C-403......|...........|...........|...........|...........|...........|F-611......|...........|...........|...........|...........|...........|...........|...........|...........|...........|...........
|...........|...........|...........|...........|...........|...........|...........|...........|...........|...........|...........|...........|...........|...........|...........|...........|...........|...........|...........|...........|...........|...........|...........|...........|...........|...........|...........|...........
|...........|...........|...........|...........|...........|...........|...........|...........|...........|...........|...........|...........|...........|...........|...........|...........|...........|...........|...........|...........|...........|...........|...........|...........|...........|...........|...........|...........
|...........|A-202......|...........|...........|...........|...........|...........|...........|...........|...........|C-403......|...........|...........|...........|...........|F-518......|...........|G#611......|...........|E-511......|...........|...........|...........|...........|...........|...........|...........|...........
|...........|...........|...........|...........|...........|...........|...........|...........|...........|...........|...........|...........|...........|...........|...........|...........|...........|...........|...........|...........|...........|...........|...........|...........|...........|...........|...........|...........
|...........|...........|...........|...........|...........|...........|...........|...........|...........|...........|...........|...........|...........|...........|...........|...........|...........|...........|...........|...........|...........|...........|...........|...........|...........|...........|...........|...........
|...........|...........|...........|...........|...........|...........|...........|...........|...........|...........|...........|...........|...........|...........|...........|...........|...........|...........|...........|...........|...........|...........|...........|...........|...........|...........|...........|...........
|...........|...........|...........|...........|...........|...........|...........|...........|...........|...........|...........|...........|...........|...........|...........|...........|...........|...........|...........|...........|...........|...........|...........|...........|...........|...........|...........|...........
|...........|...........|D#506......|B-406......|F-406......|C#406......|G-306......|...........|...........|...........|...........|...........|...........|...........|...........|...........|...........|A#611......|A#510......|...........|...........|...........|...........|...........|...........|...........|...........|...........
|...........|...........|...........|...........|...........|...........|...........|...........|...........|...........|...........|...........|...........|...........|...........|...........|...........|...........|...........|...........|...........|...........|...........|...........|...........|...........|...........|...........
|...........|...........|...........|...........|...........|...........|...........|...........|...........|...........|...........|...........|...........|...........|...........|...........|...........|...........|...........|...........|...........|...........|...........|...........|...........|...........|...........|...........
|...........|...........|...........|...........|...........|...........|...........|...........|...........|...........|G-404......|C-503......|G-525......|...........|...........|C-519......|...........|...........|C-610......|...........|...........|...........|...........|...........|...........|...........|...........|...........
|...........|...........|...........|...........|...........|...........|...........|...........|...........|...........|...........|...........|...........|...........|...........|...........|...........|^^^........|...........|...........|...........|...........|...........|...........|...........|...........|...........|...........
|...........|...........|...........|...........|...........|...........|...........|...........|...........|...........|...........|...........|...........|...........|...........|...........|...........|...........|...........|...........|...........|...........|...........|...........|...........|...........|...........|...........
|...........|...........|...........|...........|...........|...........|...........|...........|...........|...........|...........|...........|...........|...........|...........|...........|...........|...........|...........|...........|...........|...........|...........|...........|...........|...........|...........|...........
|...........|...........|...........|...........|...........|...........|...........|...........|...........|...........|...........|...........|...........|...........|...........|...........|...........|...........|...........|...........|...........|...........|...........|...........|...........|...........|...........|...........
|...........|...........|...........|...........|...........|...........|...........|...........|...........|...........|C-403......|...........|...........|...........|...........|...........|...........|F-611......|A#510......|D#511......|...........|...........|...........|...........|...........|...........|...........|...........
|...........|...........|...........|...........|...........|...........|...........|...........|...........|...........|...........|...........|...........|...........|...........|...........|...........|........F10|...........|...........|...........|...........|...........|...........|...........|...........|...........|...........
|...........|...........|...........|...........|...........|...........|...........|...........|...........|...........|...........|...........|...........|...........|...........|...........|...........|...........|...........|...........|...........|...........|...........|...........|...........|...........|...........|...........
Rows: 64
|...........|G#202......|A#506......|D#506......|G-406......|C-406......|F-306......|...........|...........|...........|...........|C-403......|...........|...........|...........|C-519......|...........|...........|...........|...........|...........|...........|...........|...........|...........|...........|...........|...........
|...........|...........|...........|...........|...........|...........|...........|...........|...........|...........|...........|...........|...........|...........|...........|...........|...........|...........|...........|...........|...........|...........|...........|...........|...........|...........|...........|...........
|...........|...........|...........|...........|...........|...........|...........|...........|...........|...........|...........|...........|...........|...........|...........|...........|...........|...........|...........|...........|...........|...........|...........|...........|...........|...........|...........|...........
|...........|...........|...........|...........|...........|...........|...........|...........|...........|...........|...........|...........|...........|...........|...........|...........|...........|...........|...........|...........|...........|...........|...........|...........|...........|...........|...........|...........
|...........|...........|...........|...........|...........|...........|...........|...........|...........|...........|...........|...........|...........|...........|...........|...........|...........|........H66|...........|...........|...........|...........|...........|...........|...........|...........|...........|...........
|...........|...........|...........|...........|...........|...........|...........|...........|...........|...........|...........|...........|...........|...........|...........|...........|...........|........H66|...........|...........|...........|...........|...........|...........|...........|...........|...........|...........
|...........|...........|...........|...........|...........|...........|...........|...........|...........|...........|...........|...........|...........|...........|...........|...........|...........|........H66|...........|...........|...........|...........|...........|...........|...........|...........|...........|...........
|...........|...........|...........|...........|...........|...........|...........|...........|...........|...........|...........|...........|...........|...........|...........|...........|...........|...........|...........|...........|...........|...........|...........|...........|...........|...........|...........|...........
|...........|...........|...........|...........|...........|...........|...........|...........|...........|...........|C-503......|G-404......|C-526......|...........|...........|...........|...........|D#611......|C-610......|...........|...........|...........|...........|...........|...........|...........|...........|...........
|...........|...........|...........|...........|...........|...........|...........|...........|...........|...........|...........|...........|...........|...........|...........|...........|...........|...........|...........|...........|...........|...........|...........|...........|...........|...........|...........|...........
|...........|...........|...........|...........|...........|...........|...........|...........|...........|...........|...........|...........|...........|...........|...........|...........|...........|...........|...........|...........|...........|...........|...........|...........|...........|...........|...........|...........
|...........|...........|...........|...........|...........|...........|...........|...........|...........|...........|...........|...........|...........|...........|...........|...........|...........|...........|^^^........|...........|...........|...........|...........|...........|...........|...........|...........|...........
|...........|...........|...........|...........|...........|...........|...........|...........|...........|...........|...........|...........|...........|...........|...........|...........|...........|...........|...........|...........|...........|...........|...........|...........|...........|...........|...........|...........
|...........|...........|...........|...........|...........|...........|...........|...........|...........|...........|...........|C-403......|...........|...........|...........|...........|...........|C-611......|...........|...........|...........|...........|...........|...........|...........|...........|...........|...........
|...........|...........|...........|...........|...........|...........|...........|...........|...........|...........|...........|...........|...........|...........|...........|...........|...........|...........|...........|...........|...........|...........|...........|...........|...........|...........|...........|...........
|...........|...........|...........|...........|...........|...........|...........|...........|...........|...........|...........|...........|...........|...........|...........|...........|...........|^^^........|...........|...........|...........|...........|...........|...........|...........|...........|...........|...........
|...........|D#302......|...........|...........|...........|...........|...........|...........|...........|...........|C-403......|...........|...........|...........|...........|F-518......|...........|D#611......|F-510......|...........|...........|...........|...........|...........|...........|...........|...........|...........
|...........|...........|...........|...........|...........|...........|...........|...........|...........|...........|...........|...........|...........|...........|...........|...........|...........|...........|...........|...........|...........|...........|...........|...........|...........|...........|...........|...........
|...........|...........|...........|...........|...........|...........|...........|...........|...........|...........|...........|...........|...........|...........|...........|...........|...........|...........|...........|...........|...........|...........|...........|...........|...........|...........|...........|...........
|...........|...........|...........|...........|...........|...........|...........|...........|...........|...........|...........|...........|...........|...........|...........|...........|...........|^^^........|........F0A|...........|...........|...........|...........|...........|...........|...........|...........|...........
|...........|...........|...........|...........|...........|...........|...........|...........|...........|...........|...........|...........|...........|...........|...........|...........|...........|...........|...........|...........|...........|...........|...........|...........|...........|...........|...........|...........
|...........|...........|...........|...........|...........|...........|...........|...........|...........|...........|...........|...........|...........|...........|...........|...........|...........|F-611......|........E0A|...........|...........|...........|...........|...........|...........|...........|...........|...........
|...........|...........|...........|...........|...........|...........|...........|...........|...........|...........|...........|...........|...........|...........|...........|...........|...........|...........|...........|...........|...........|...........|...........|...........|...........|...........|...........|...........
|...........|...........|...........|...........|...........|...........|...........|...........|...........|...........|...........|...........|...........|...........|...........|...........|...........|...........|...........|...........|...........|...........|...........|...........|...........|...........|...........|...........
|...........|...........|...........|...........|...........|...........|...........|...........|...........|...........|G-404......|C-503......|G-525......|...........|...........|...........|...........|C-611......|D#510......|...........|...........|...........|...........|...........|...........|...........|...........|...........
|...........|...........|...........|...........|...........|...........|...........|...........|...........|...........|...........|...........|...........|...........|...........|...........|...........|...........|...........|...........|...........|...........|...........|...........|...........|...........|...........|...........
|...........|...........|...........|...........|...........|...........|...........|...........|...........|...........|...........|...........|...........|...........|...........|...........|...........|...........|...........|...........|...........|...........|...........|...........|...........|...........|...........|...........
|...........|...........|...........|...........|...........|...........|...........|...........|...........|...........|...........|...........|...........|...........|...........|...........|...........|...........|...........|...........|...........|...........|...........|...........|...........|...........|...........|...........
|...........|...........|...........|...........|...........|...........|...........|...........|...........|...........|...........|...........|...........|...........|...........|...........|...........|...........|^^^........|...........|...........|...........|...........|...........|...........|...........|...........|...........
|...........|...........|...........|...........|...........|...........|...........|...........|...........|...........|C-403......|...........|...........|...........|...........|F-518......|...........|D#611......|...........|...........|...........|...........|...........|...........|...........|...........|...........|...........
|...........|...........|...........|...........|...........|...........|...........|...........|...........|...........|...........|...........|...........|...........|...........|...........|...........|...........|...........|...........|...........|...........|...........|...........|...........|...........|...........|...........
|...........|...........|...........|...........|...........|...........|...........|...........|...........|...........|...........|...........|...........|...........|...........|...........|...........|...........|...........|...........|...........|...........|...........|...........|...........|...........|...........|...........
|...........|G#302......|...........|...........|...........|...........|...........|...........|...........|...........|...........|C-403......|...........|...........|...........|...........|...........|...........|...........|A#611......|...........|...........|...........|...........|...........|...........|...........|...........
|...........|...........|...........|...........|...........|...........|...........|...........|...........|...........|...........|...........|...........|...........|...........|...........|...........|...........|...........|...........|...........|...........|...........|...........|...........|...........|...........|...........
|...........|...........|...........|...........|...........|...........|...........|...........|...........|...........|...........|...........|...........|...........|...........|...........|...........|...........|...........|...........|...........|...........|...........|...........|...........|...........|...........|...........
|...........|...........|...........|...........|...........|...........|...........|...........|...........|...........|...........|...........|...........|...........|...........|...........|...........|...........|...........|...........|...........|...........|...........|...........|...........|...........|...........|...........
|...........|...........|...........|...........|...........|...........|...........|...........|...........|...........|...........|...........|...........|...........|...........|...........|...........|...........|...........|...........|...........|...........|...........|...........|...........|...........|...........|...........
|...........|...........|...........|...........|...........|...........|...........|...........|...........|...........|...........|...........|...........|...........|...........|...........|...........|...........|...........|C-711......|...........|...........|...........|...........|...........|...........|...........|...........
|...........|...........|...........|...........|...........|...........|...........|...........|...........|...........|...........|...........|...........|...........|...........|...........|...........|...........|...........|...........|...........|...........|...........|...........|...........|...........|...........|...........
|...........|...........|...........|...........|...........|...........|...........|...........|...........|...........|...........|...........|...........|...........|...........|...........|...........|...........|...........|...........|...........|...........|...........|...........|...........|...........|...........|...........
|...........|...........|G#506......|C#506......|F#406......|A#306......|F-406......|...........|...........|...........|C-503......|G-404......|C-526......|...........|...........|C-519......|...........|...........|...........|D#711......|...........|...........|...........|...........|...........|...........|...........|...........
|...........|...........|...........|...........|...........|...........|...........|...........|...........|...........|...........|...........|...........|...........|...........|...........|...........|...........|...........|...........|...........|...........|...........|...........|...........|...........|...........|...........
|...........|...........|...........|...........|...........|...........|...........|...........|...........|...........|...........|...........|...........|...........|...........|...........|...........|...........|...........|...........|...........|...........|...........|...........|...........|...........|...........|...........
|...........|...........|...........|...........|...........|...........|...........|...........|...........|...........|...........|...........|...........|...........|...........|...........|...........|...........|...........|...........|...........|...........|...........|...........|...........|...........|...........|...........
|...........|...........|...........|...........|...........|...........|...........|...........|...........|...........|...........|...........|...........|...........|...........|...........|...........|...........|...........|...........|...........|...........|...........|...........|...........|...........|...........|...........
|...........|...........|...........|...........|...........|...........|...........|...........|...........|...........|...........|C-403......|...........|...........|...........|...........|...........|...........|...........|C-711......|...........|...........|...........|...........|...........|...........|...........|...........
|...........|...........|...........|...........|...........|...........|...........|...........|...........|...........|...........|...........|...........|...........|...........|...........|...........|...........|...........|...........|...........|...........|...........|...........|...........|...........|...........|...........
|...........|...........|...........|...........|...........|...........|...........|...........|...........|...........|...........|...........|...........|...........|...........|...........|...........|...........|...........|...........|...........|...........|...........|...........|...........|...........|...........|...........
|...........|D-302......|...........|...........|...........|...........|...........|...........|...........|...........|C-403......|...........|...........|...........|...........|F-518......|...........|...........|D#610......|...........|...........|...........|...........|...........|...........|...........|...........|...........
|...........|...........|...........|...........|...........|...........|...........|...........|...........|...........|...........|...........|...........|...........|...........|...........|...........|...........|...........|...........|...........|...........|...........|...........|...........|...........|...........|...........
|...........|...........|...........|...........|...........|...........|...........|...........|...........|...........|...........|...........|...........|...........|...........|...........|...........|...........|...........|...........|...........|...........|...........|...........|...........|...........|...........|...........
|...........|...........|...........|...........|...........|...........|...........|...........|...........|...........|...........|...........|...........|...........|...........|...........|...........|...........|...........|...........|...........|...........|...........|...........|...........|...........|...........|...........
|...........|...........|...........|...........|...........|...........|...........|...........|...........|...........|...........|...........|...........|...........|...........|...........|...........|...........|...........|...........|...........|...........|...........|...........|...........|...........|...........|...........
|...........|...........|F-506......|A#406......|F-406......|C-406......|F#306......|...........|...........|...........|...........|...........|...........|...........|...........|...........|...........|...........|F-610......|...........|...........|...........|...........|...........|...........|...........|...........|...........
|...........|...........|...........|...........|...........|...........|...........|...........|...........|...........|...........|...........|...........|...........|...........|...........|...........|...........|...........|...........|...........|...........|...........|...........|...........|...........|...........|...........
|...........|...........|...........|...........|...........|...........|...........|...........|...........|...........|...........|...........|...........|...........|...........|...........|...........|...........|...........|...........|...........|...........|...........|...........|...........|...........|...........|...........
|...........|...........|...........|...........|...........|...........|...........|...........|...........|...........|G-404......|C-503......|G-525......|...........|...........|C-519......|...........|...........|G#610......|...........|...........|...........|...........|...........|...........|...........|...........|...........
|...........|...........|...........|...........|...........|...........|...........|...........|...........|...........|...........|...........|...........|...........|...........|...........|...........|...........|...........|...........|...........|...........|...........|...........|...........|...........|...........|...........
|...........|...........|...........|...........|...........|...........|...........|...........|...........|...........|...........|...........|...........|...........|...........|...........|...........|...........|...........|...........|...........|...........|...........|...........|...........|...........|...........|...........
|...........|...........|...........|...........|...........|...........|...........|...........|...........|...........|...........|...........|...........|...........|...........|...........|...........|...........|...........|...........|...........|...........|...........|...........|...........|...........|...........|...........
|...........|...........|...........|...........|...........|...........|...........|...........|...........|...........|...........|...........|...........|...........|...........|...........|...........|...........|...........|...........|...........|...........|...........|...........|...........|...........|...........|...........
|...........|...........|...........|...........|...........|...........|...........|...........|...........|...........|C-403......|...........|...........|...........|...........|...........|...........|...........|F-610......|...........|...........|...........|...........|...........|...........|...........|...........|...........
|...........|...........|...........|...........|...........|...........|...........|...........|...........|...........|...........|...........|...........|...........|...........|...........|...........|...........|...........|...........|...........|...........|...........|...........|...........|...........|...........|...........
|...........|...........|...........|...........|...........|...........|...........|...........|...........|...........|...........|...........|...........|...........|...........|...........|...........|...........|...........|...........|...........|...........|...........|...........|...........|...........|...........|...........
Rows: 64
|...........|C#302...M3A|C-506......|G#406......|D#406......|A#306......|F-306......|...........|...........|...........|...........|C-403......|...........|...........|...........|C-519......|...........|A#511......|...........|...........|...........|...........|...........|...........|...........|...........|...........|...........
|...........|...........|...........|...........|...........|...........|...........|...........|...........|...........|...........|...........|...........|...........|...........|...........|...........|...........|...........|...........|...........|...........|...........|...........|...........|...........|...........|...........
|...........|...........|...........|...........|...........|...........|...........|...........|...........|...........|...........|...........|...........|...........|...........|...........|...........|...........|...........|...........|...........|...........|...........|...........|...........|...........|...........|...........
|...........|...........|...........|...........|...........|...........|...........|...........|...........|...........|...........|...........|...........|...........|...........|...........|...........|...........|...........|...........|...........|...........|...........|...........|...........|...........|...........|...........
|...........|...........|...........|...........|...........|...........|...........|...........|...........|...........|...........|...........|...........|...........|...........|...........|...........|...........|...........|...........|...........|...........|...........|...........|...........|...........|...........|...........
|...........|...........|...........|...........|...........|...........|...........|...........|...........|...........|...........|...........|...........|...........|...........|...........|...........|C-611......|...........|...........|...........|...........|...........|...........|...........|...........|...........|...........
|...........|...........|...........|...........|...........|...........|...........|...........|...........|...........|...........|...........|...........|...........|...........|...........|...........|...........|...........|...........|...........|...........|...........|...........|...........|...........|...........|...........
|...........|...........|...........|...........|...........|...........|...........|...........|...........|...........|...........|...........|...........|...........|...........|...........|...........|...........|...........|...........|...........|...........|...........|...........|...........|...........|...........|...........
|...........|...........|...........|...........|...........|...........|...........|...........|...........|...........|C-503......|G-404......|C-526......|...........|...........|...........|...........|D#611......|...........|...........|...........|...........|...........|...........|...........|...........|...........|...........
|...........|...........|...........|...........|...........|...........|...........|...........|...........|...........|...........|...........|...........|...........|...........|...........|...........|...........|...........|...........|...........|...........|...........|...........|...........|...........|...........|...........
|...........|...........|...........|...........|...........|...........|...........|...........|...........|...........|...........|...........|...........|...........|...........|...........|...........|...........|...........|...........|...........|...........|...........|...........|...........|...........|...........|...........
|...........|...........|...........|...........|...........|...........|...........|...........|...........|...........|...........|...........|...........|...........|...........|...........|...........|...........|...........|...........|...........|...........|...........|...........|...........|...........|...........|...........
|...........|...........|...........|...........|...........|...........|...........|...........|...........|...........|...........|...........|...........|...........|...........|...........|...........|...........|...........|...........|...........|...........|...........|...........|...........|...........|...........|...........
|...........|...........|...........|...........|...........|...........|...........|...........|...........|...........|...........|C-403......|...........|...........|...........|...........|...........|C-611......|F-610......|...........|...........|...........|...........|...........|...........|...........|...........|...........
|...........|...........|...........|...........|...........|...........|...........|...........|...........|...........|...........|...........|...........|...........|...........|...........|...........|...........|........F10|...........|...........|...........|...........|...........|...........|...........|...........|...........
|...........|...........|...........|...........|...........|...........|...........|...........|...........|...........|...........|...........|...........|...........|...........|...........|...........|...........|...........|...........|...........|...........|...........|...........|...........|...........|...........|...........
|...........|C-302......|...........|...........|...........|...........|...........|...........|...........|...........|C-403......|...........|...........|...........|...........|F-518......|...........|...........|...........|D#510......|...........|...........|...........|...........|...........|...........|...........|...........
|...........|...........|...........|...........|...........|...........|...........|...........|...........|...........|...........|...........|...........|...........|...........|...........|...........|...........|^^^........|...........|...........|...........|...........|...........|...........|...........|...........|...........
|...........|...........|...........|...........|...........|...........|...........|...........|...........|...........|...........|...........|...........|...........|...........|...........|...........|...........|...........|...........|...........|...........|...........|...........|...........|...........|...........|...........
|...........|...........|...........|...........|...........|...........|...........|...........|...........|...........|...........|...........|...........|...........|...........|...........|...........|...........|...........|...........|...........|...........|...........|...........|...........|...........|...........|...........
|...........|...........|...........|...........|...........|...........|...........|...........|...........|...........|...........|...........|...........|...........|...........|...........|...........|...........|...........|...........|...........|...........|...........|...........|...........|...........|...........|...........
|...........|...........|...........|...........|...........|...........|...........|...........|...........|...........|...........|...........|...........|...........|...........|...........|...........|...........|F-610......|F-510......|...........|...........|...........|...........|...........|...........|...........|...........
|...........|...........|...........|...........|...........|...........|...........|...........|...........|...........|...........|...........|...........|...........|...........|...........|...........|...........|...........|...........|...........|...........|...........|...........|...........|...........|...........|...........
|...........|...........|...........|...........|...........|...........|...........|...........|...........|...........|...........|...........|...........|...........|...........|...........|...........|...........|...........|...........|...........|...........|...........|...........|...........|...........|...........|...........
|...........|...........|...........|...........|...........|...........|...........|...........|...........|...........|G-404......|C-503......|G-525......|...........|...........|...........|...........|...........|...........|G#510......|...........|...........|...........|...........|...........|...........|...........|...........
|...........|...........|...........|...........|...........|...........|...........|...........|...........|...........|...........|...........|...........|...........|...........|...........|...........|...........|^^^........|...........|...........|...........|...........|...........|...........|...........|...........|...........
|...........|...........|...........|...........|...........|...........|...........|...........|...........|...........|...........|...........|...........|...........|...........|...........|...........|...........|...........|...........|...........|...........|...........|...........|...........|...........|...........|...........
|...........|...........|...........|...........|...........|...........|...........|...........|...........|...........|...........|...........|...........|...........|...........|...........|...........|...........|...........|...........|...........|...........|...........|...........|...........|...........|...........|...........
|...........|...........|...........|...........|...........|...........|...........|...........|...........|...........|...........|...........|...........|...........|...........|...........|...........|...........|...........|...........|...........|...........|...........|...........|...........|...........|...........|...........
|...........|...........|...........|...........|...........|...........|...........|...........|...........|...........|C-403......|...........|...........|...........|...........|F-518......|A#610......|...........|C-610......|F-510......|...........|...........|...........|...........|...........|...........|...........|...........
|...........|...........|...........|...........|...........|...........|...........|...........|...........|...........|...........|...........|...........|...........|...........|...........|........F10|...........|...........|...........|...........|...........|...........|...........|...........|...........|...........|...........
|...........|...........|...........|...........|...........|...........|...........|...........|...........|...........|...........|...........|...........|...........|...........|...........|...........|...........|...........|...........|...........|...........|...........|...........|...........|...........|...........|...........
|...........|A#202......|...........|...........|...........|...........|...........|...........|...........|...........|...........|C-403......|...........|...........|...........|...........|...........|...........|D#610......|...........|...........|...........|...........|...........|...........|...........|...........|...........
|...........|...........|...........|...........|...........|...........|...........|...........|...........|...........|...........|...........|...........|...........|...........|...........|^^^........|...........|...........|...........|...........|...........|...........|...........|...........|...........|...........|...........
|...........|...........|...........|...........|...........|...........|...........|...........|...........|...........|...........|...........|...........|...........|...........|...........|...........|...........|...........|...........|...........|...........|...........|...........|...........|...........|...........|...........
|...........|...........|...........|...........|...........|...........|...........|...........|...........|...........|...........|...........|...........|...........|...........|...........|...........|...........|...........|...........|...........|...........|...........|...........|...........|...........|...........|...........
|...........|...........|...........|...........|...........|...........|...........|...........|...........|...........|...........|...........|...........|...........|...........|...........|...........|...........|...........|...........|...........|...........|...........|...........|...........|...........|...........|...........
|...........|...........|...........|...........|...........|...........|...........|...........|...........|...........|...........|...........|...........|...........|...........|...........|A#610......|...........|F-610......|...........|...........|...........|...........|...........|...........|...........|...........|...........
|...........|...........|...........|...........|...........|...........|...........|...........|...........|...........|...........|...........|...........|...........|...........|...........|...........|...........|...........|...........|...........|...........|...........|...........|...........|...........|...........|...........
|...........|...........|...........|...........|...........|...........|...........|...........|...........|...........|...........|...........|...........|...........|...........|...........|...........|...........|...........|...........|...........|...........|...........|...........|...........|...........|...........|...........
|...........|...........|D#506......|G#406......|F-406......|C-406......|C#406......|...........|...........|...........|C-503......|G-404......|C-526......|...........|...........|C-519......|...........|D#611......|...........|...........|...........|...........|...........|...........|...........|...........|...........|...........
|...........|...........|...........|...........|...........|...........|...........|...........|...........|...........|...........|...........|...........|...........|...........|...........|^^^........|...........|^^^........|...........|...........|...........|...........|...........|...........|...........|...........|...........
|...........|...........|...........|...........|...........|...........|...........|...........|...........|...........|...........|...........|...........|...........|...........|...........|...........|...........|...........|...........|...........|...........|...........|...........|...........|...........|...........|...........
|...........|...........|...........|...........|...........|...........|...........|...........|...........|...........|...........|...........|...........|...........|...........|...........|...........|...........|...........|...........|...........|...........|...........|...........|...........|...........|...........|...........
|...........|...........|...........|...........|...........|...........|...........|...........|...........|...........|...........|...........|...........|...........|...........|...........|...........|...........|...........|...........|...........|...........|...........|...........|...........|...........|...........|...........
|...........|...........|...........|...........|...........|...........|...........|...........|...........|...........|...........|C-403......|...........|...........|...........|...........|F-610......|...........|...........|D#711...M30|...........|...........|...........|...........|...........|...........|...........|...........
|...........|...........|...........|...........|...........|...........|...........|...........|...........|...........|...........|...........|...........|...........|...........|...........|...........|...........|...........|........F10|...........|...........|...........|...........|...........|...........|...........|...........
|...........|...........|...........|...........|...........|...........|...........|...........|...........|...........|...........|...........|...........|...........|...........|...........|...........|...........|...........|...........|...........|...........|...........|...........|...........|...........|...........|...........
|...........|D#302......|...........|...........|...........|...........|...........|...........|...........|...........|C-403......|...........|...........|...........|...........|F-518......|G#610......|...........|...........|...........|...........|...........|...........|...........|...........|...........|...........|...........
|...........|...........|...........|...........|...........|...........|...........|...........|...........|...........|...........|...........|...........|...........|...........|...........|...........|...........|...........|^^^........|...........|...........|...........|...........|...........|...........|...........|...........
|...........|...........|...........|...........|...........|...........|...........|...........|...........|...........|...........|...........|...........|...........|...........|...........|...........|...........|...........|...........|...........|...........|...........|...........|...........|...........|...........|...........
|...........|...........|...........|...........|...........|...........|...........|...........|...........|...........|...........|...........|...........|...........|...........|...........|...........|...........|...........|...........|...........|...........|...........|...........|...........|...........|...........|...........
|...........|...........|...........|...........|...........|...........|...........|...........|...........|...........|...........|...........|...........|...........|...........|...........|...........|...........|...........|...........|...........|...........|...........|...........|...........|...........|...........|...........
|...........|...........|C-506......|F-406......|C#406......|G-306......|...........|...........|...........|...........|...........|...........|...........|...........|...........|...........|A#610......|C-611......|...........|D#711......|...........|...........|...........|...........|...........|...........|...........|...........
|...........|...........|...........|...........|...........|...........|...........|...........|...........|...........|...........|...........|...........|...........|...........|...........|...........|...........|...........|...........|...........|...........|...........|...........|...........|...........|...........|...........
|...........|...........|...........|...........|...........|...........|...........|...........|...........|...........|...........|...........|...........|...........|...........|...........|...........|...........|...........|...........|...........|...........|...........|...........|...........|...........|...........|...........
|...........|...........|...........|...........|...........|...........|...........|...........|...........|...........|G-404......|C-503......|G-525......|...........|...........|C-519......|...........|...........|...........|...........|...........|...........|...........|...........|...........|...........|...........|...........
|...........|...........|...........|...........|...........|...........|...........|...........|...........|...........|...........|...........|...........|...........|...........|...........|^^^........|...........|...........|^^^........|...........|...........|...........|...........|...........|...........|...........|...........
|...........|...........|...........|...........|...........|...........|...........|...........|...........|...........|...........|...........|...........|...........|...........|...........|...........|...........|...........|...........|...........|...........|...........|...........|...........|...........|...........|...........
|...........|...........|...........|...........|...........|...........|...........|...........|...........|...........|...........|...........|...........|...........|...........|...........|...........|...........|...........|...........|...........|...........|...........|...........|...........|...........|...........|...........
|...........|...........|...........|...........|...........|...........|...........|...........|...........|...........|...........|...........|...........|...........|...........|...........|...........|...........|...........|...........|...........|...........|...........|...........|...........|...........|...........|...........
|...........|...........|...........|...........|...........|...........|...........|...........|...........|...........|C-403......|...........|...........|...........|...........|...........|...........|...........|F-710......|C-711...E10|...........|...........|...........|...........|...........|...........|...........|...........
|...........|...........|...........|...........|...........|...........|...........|...........|...........|...........|...........|...........|...........|...........|...........|...........|...........|...........|........F10|...........|...........|...........|...........|...........|...........|...........|...........|...........
|...........|...........|...........|...........|...........|...........|...........|...........|...........|...........|...........|...........|...........|...........|...........|...........|...........|...........|...........|...........|...........|...........|...........|...........|...........|...........|...........|...........
Rows: 64
|...........|G#302......|G-406......|D#406......|A#306......|F-306......|C-406......|...........|...........|...........|...........|C-403......|...........|...........|...........|C-519......|...........|F-611......|...........|........H77|...........|...........|...........|...........|...........|...........|...........|...........
|...........|...........|...........|...........|...........|...........|...........|...........|...........|...........|...........|...........|...........|...........|...........|...........|...........|...........|^^^........|........H77|...........|...........|...........|...........|...........|...........|...........|...........
|...........|...........|...........|...........|...........|...........|...........|...........|...........|...........|...........|...........|...........|...........|...........|...........|...........|...........|...........|........H77|...........|...........|...........|...........|...........|...........|...........|...........
|...........|...........|...........|...........|...........|...........|...........|...........|...........|...........|...........|...........|...........|...........|...........|...........|...........|...........|...........|........H77|...........|...........|...........|...........|...........|...........|...........|...........
|...........|...........|...........|...........|...........|...........|...........|...........|...........|...........|...........|...........|...........|...........|...........|...........|...........|........F10|...........|...........|...........|...........|...........|...........|...........|...........|...........|...........
|...........|...........|...........|...........|...........|...........|...........|...........|...........|...........|...........|...........|...........|...........|...........|...........|...........|...........|F-710......|G#611......|...........|...........|...........|...........|...........|...........|...........|...........
|...........|...........|...........|...........|...........|...........|...........|...........|...........|...........|...........|...........|...........|...........|...........|...........|...........|...........|...........|...........|...........|...........|...........|...........|...........|...........|...........|...........
|...........|...........|...........|...........|...........|...........|...........|...........|...........|...........|...........|...........|...........|...........|...........|...........|...........|...........|...........|...........|...........|...........|...........|...........|...........|...........|...........|...........
|...........|...........|...........|...........|...........|...........|...........|...........|...........|...........|C-503......|G-404......|C-526......|...........|...........|...........|...........|...........|...........|A#611......|...........|...........|...........|...........|...........|...........|...........|...........
|...........|...........|...........|...........|...........|...........|...........|...........|...........|...........|...........|...........|...........|...........|...........|...........|...........|...........|^^^........|...........|...........|...........|...........|...........|...........|...........|...........|...........
|...........|...........|...........|...........|...........|...........|...........|...........|...........|...........|...........|...........|...........|...........|...........|...........|...........|...........|...........|...........|...........|...........|...........|...........|...........|...........|...........|...........
|...........|...........|...........|...........|...........|...........|...........|...........|...........|...........|...........|...........|...........|...........|...........|...........|...........|...........|...........|^^^........|...........|...........|...........|...........|...........|...........|...........|...........
|...........|...........|...........|...........|...........|...........|...........|...........|...........|...........|...........|...........|...........|...........|...........|...........|...........|...........|...........|...........|...........|...........|...........|...........|...........|...........|...........|...........
|...........|...........|...........|...........|...........|...........|...........|...........|...........|...........|...........|C-403......|...........|...........|...........|...........|...........|...........|C-710......|F-611......|...........|...........|...........|...........|...........|...........|...........|...........
|...........|...........|...........|...........|...........|...........|...........|...........|...........|...........|...........|...........|...........|...........|...........|...........|...........|...........|...........|...........|...........|...........|...........|...........|...........|...........|...........|...........
|...........|...........|...........|...........|...........|...........|...........|...........|...........|...........|...........|...........|...........|...........|...........|...........|...........|...........|...........|........F10|...........|...........|...........|...........|...........|...........|...........|...........
|...........|D#302......|...........|...........|...........|...........|...........|...........|...........|...........|C-403......|...........|...........|...........|...........|F-518......|...........|...........|D#710......|...........|...........|...........|...........|...........|...........|...........|...........|...........
|...........|...........|...........|...........|...........|...........|...........|...........|...........|...........|...........|...........|...........|...........|...........|...........|...........|...........|...........|...........|...........|...........|...........|...........|...........|...........|...........|...........
|...........|...........|...........|...........|...........|...........|...........|...........|...........|...........|...........|...........|...........|...........|...........|...........|...........|...........|...........|...........|...........|...........|...........|...........|...........|...........|...........|...........
|...........|...........|...........|...........|...........|...........|...........|...........|...........|...........|...........|...........|...........|...........|...........|...........|...........|...........|...........|^^^........|...........|...........|...........|...........|...........|...........|...........|...........
|...........|...........|...........|...........|...........|...........|...........|...........|...........|...........|...........|...........|...........|...........|...........|...........|...........|...........|...........|...........|...........|...........|...........|...........|...........|...........|...........|...........
|...........|...........|...........|...........|...........|...........|...........|...........|...........|...........|...........|...........|...........|...........|...........|...........|A#611......|...........|F-710......|C-611......|...........|...........|...........|...........|...........|...........|...........|...........
|...........|...........|...........|...........|...........|...........|...........|...........|...........|...........|...........|...........|...........|...........|...........|...........|...........|...........|...........|...........|...........|...........|...........|...........|...........|...........|...........|...........
|...........|...........|...........|...........|...........|...........|...........|...........|...........|...........|...........|...........|...........|...........|...........|...........|...........|...........|...........|...........|...........|...........|...........|...........|...........|...........|...........|...........
|...........|...........|...........|...........|...........|...........|...........|...........|...........|...........|G-404......|C-503......|G-525......|...........|...........|...........|C-711......|...........|...........|D#611......|...........|...........|...........|...........|...........|...........|...........|...........
|...........|...........|...........|...........|...........|...........|...........|...........|...........|...........|...........|...........|...........|...........|...........|...........|...........|...........|^^^........|...........|...........|...........|...........|...........|...........|...........|...........|...........
|...........|...........|...........|...........|...........|...........|...........|...........|...........|...........|...........|...........|...........|...........|...........|...........|...........|...........|...........|...........|...........|...........|...........|...........|...........|...........|...........|...........
|...........|...........|...........|...........|...........|...........|...........|...........|...........|...........|...........|...........|...........|...........|...........|...........|...........|...........|...........|...........|...........|...........|...........|...........|...........|...........|...........|...........
|...........|...........|...........|...........|...........|...........|...........|...........|...........|...........|...........|...........|...........|...........|...........|...........|...........|...........|...........|...........|...........|...........|...........|...........|...........|...........|...........|...........
|...........|...........|...........|...........|...........|...........|...........|...........|...........|...........|C-403......|...........|...........|...........|...........|F-518......|A#611......|...........|...........|...........|...........|...........|...........|...........|...........|...........|...........|...........
|...........|...........|...........|...........|...........|...........|...........|...........|...........|...........|...........|...........|...........|...........|...........|...........|...........|...........|...........|...........|...........|...........|...........|...........|...........|...........|...........|...........
|...........|...........|...........|...........|...........|...........|...........|...........|...........|...........|...........|...........|...........|...........|...........|...........|...........|...........|...........|...........|...........|...........|...........|...........|...........|...........|...........|...........
|...........|G-302......|...........|...........|...........|...........|...........|...........|...........|...........|...........|C-403......|...........|...........|...........|...........|...........|...........|F-510......|...........|...........|...........|...........|...........|...........|...........|...........|...........
|...........|...........|...........|...........|...........|...........|...........|...........|...........|...........|...........|...........|...........|...........|...........|...........|...........|...........|...........|...........|...........|...........|...........|...........|...........|...........|...........|...........
|...........|...........|...........|...........|...........|...........|...........|...........|...........|...........|...........|...........|...........|...........|...........|...........|...........|...........|...........|...........|...........|...........|...........|...........|...........|...........|...........|...........
|...........|...........|...........|...........|...........|...........|...........|...........|...........|...........|...........|...........|...........|...........|...........|...........|...........|...........|...........|...........|...........|...........|...........|...........|...........|...........|...........|...........
|...........|...........|...........|...........|...........|...........|...........|...........|...........|...........|...........|...........|...........|...........|...........|...........|...........|...........|...........|...........|...........|...........|...........|...........|...........|...........|...........|...........
|...........|...........|...........|...........|...........|...........|...........|...........|...........|...........|...........|...........|...........|...........|...........|...........|...........|...........|G-510......|...........|...........|...........|...........|...........|...........|...........|...........|...........
|...........|...........|...........|...........|...........|...........|...........|...........|...........|...........|...........|...........|...........|...........|...........|...........|...........|...........|...........|...........|...........|...........|...........|...........|...........|...........|...........|...........
|...........|...........|...........|...........|...........|...........|...........|...........|...........|...........|...........|...........|...........|...........|...........|...........|...........|...........|...........|...........|...........|...........|...........|...........|...........|...........|...........|...........
|...........|...........|A#406......|F-406......|D#406......|B-306......|F-306......|...........|...........|...........|C-503......|G-404......|C-526......|...........|...........|C-519......|C-711......|A#511......|A#510......|...........|...........|...........|...........|...........|...........|...........|...........|...........
|...........|...........|...........|...........|...........|...........|...........|...........|...........|...........|...........|...........|...........|...........|...........|...........|...........|...........|...........|...........|...........|...........|...........|...........|...........|...........|...........|...........
|...........|...........|...........|...........|...........|...........|...........|...........|...........|...........|...........|...........|...........|...........|...........|...........|...........|...........|...........|...........|...........|...........|...........|...........|...........|...........|...........|...........
|...........|...........|...........|...........|...........|...........|...........|...........|...........|...........|...........|...........|...........|...........|...........|...........|...........|...........|...........|...........|...........|...........|...........|...........|...........|...........|...........|...........
|...........|...........|...........|...........|...........|...........|...........|...........|...........|...........|...........|...........|...........|...........|...........|...........|^^^........|...........|...........|...........|...........|...........|...........|...........|...........|...........|...........|...........
|...........|...........|...........|...........|...........|...........|...........|...........|...........|...........|...........|C-403......|...........|...........|...........|...........|...........|...........|G-510......|...........|...........|...........|...........|...........|...........|...........|...........|...........
|...........|...........|...........|...........|...........|...........|...........|...........|...........|...........|...........|...........|...........|...........|...........|...........|...........|...........|...........|...........|...........|...........|...........|...........|...........|...........|...........|...........
|...........|...........|...........|...........|...........|...........|...........|...........|...........|...........|...........|...........|...........|...........|...........|...........|...........|...........|...........|...........|...........|...........|...........|...........|...........|...........|...........|...........
|...........|B-302......|...........|...........|...........|...........|...........|...........|...........|...........|C-403......|...........|...........|...........|...........|F-518......|F-611......|...........|...........|D#510......|...........|...........|...........|...........|...........|...........|...........|...........
|...........|...........|...........|...........|...........|...........|...........|...........|...........|...........|...........|...........|...........|...........|...........|...........|...........|...........|...........|...........|...........|...........|...........|...........|...........|...........|...........|...........
|...........|...........|...........|...........|...........|...........|...........|...........|...........|...........|...........|...........|...........|...........|...........|...........|...........|...........|...........|...........|...........|...........|...........|...........|...........|...........|...........|...........
|...........|...........|...........|...........|...........|...........|...........|...........|...........|...........|...........|...........|...........|...........|...........|...........|........F0A|...........|...........|...........|...........|...........|...........|...........|...........|...........|...........|...........
|...........|...........|...........|...........|...........|...........|...........|...........|...........|...........|...........|...........|...........|...........|...........|...........|...........|...........|...........|...........|...........|...........|...........|...........|...........|...........|...........|...........
|...........|...........|G-406......|D#406......|A#306......|B-306......|F-306......|...........|...........|...........|...........|C-522......|...........|...........|...........|...........|........E0A|G-511......|...........|...........|...........|...........|...........|...........|...........|...........|...........|...........
|...........|...........|...........|...........|...........|...........|...........|...........|...........|...........|...........|...........|...........|...........|...........|...........|...........|...........|...........|...........|...........|...........|...........|...........|...........|...........|...........|...........
|...........|...........|...........|...........|...........|...........|...........|...........|...........|...........|...........|...........|...........|...........|...........|...........|...........|...........|...........|...........|...........|...........|...........|...........|...........|...........|...........|...........
|...........|...........|...........|...........|...........|...........|...........|...........|...........|...........|G-404......|C-503......|G-525......|...........|...........|C-519......|D#611......|...........|...........|F-510......|...........|...........|...........|...........|...........|...........|...........|...........
|...........|...........|...........|...........|...........|...........|...........|...........|...........|...........|...........|...........|...........|...........|...........|...........|...........|...........|...........|...........|...........|...........|...........|...........|...........|...........|...........|...........
|...........|...........|...........|...........|...........|...........|...........|...........|...........|...........|...........|...........|...........|...........|...........|...........|...........|...........|...........|...........|...........|...........|...........|...........|...........|...........|...........|...........
|...........|...........|...........|...........|...........|...........|...........|...........|...........|...........|...........|...........|...........|...........|...........|...........|...........|...........|...........|...........|...........|...........|...........|...........|...........|...........|...........|...........
|...........|...........|...........|...........|...........|...........|...........|...........|...........|...........|...........|...........|...........|...........|...........|...........|^^^........|...........|...........|...........|...........|...........|...........|...........|...........|...........|...........|...........
|...........|...........|...........|...........|...........|...........|...........|...........|...........|...........|C-403......|...........|G-422......|...........|...........|F-518......|...........|...........|...........|...........|...........|...........|...........|...........|...........|...........|...........|...........
|...........|...........|...........|...........|...........|...........|...........|...........|...........|...........|...........|...........|...........|...........|...........|...........|...........|...........|...........|...........|...........|...........|...........|...........|...........|...........|...........|...........
|...........|...........|...........|...........|...........|...........|...........|...........|...........|...........|...........|...........|...........|...........|...........|...........|...........|...........|...........|...........|...........|...........|...........|...........|...........|...........|...........|...........
Rows: 64
|...........|C-402......|D-506......|A-406......|D-406......|B-306......|E-306......|...........|...........|...........|...........|C-403......|...........|C-520......|...........|C-519......|...........|D-611......|...........|G-510...M40|...........|...........|...........|...........|...........|...........|...........|...........
|...........|...........|...........|...........|...........|...........|...........|...........|...........|...........|...........|...........|...........|...........|...........|...........|...........|...........|...........|...........|...........|...........|...........|...........|...........|...........|...........|...........
|...........|...........|...........|...........|...........|...........|...........|...........|...........|...........|...........|...........|...........|...........|...........|...........|...........|...........|...........|...........|...........|...........|...........|...........|...........|...........|...........|...........
|...........|...........|...........|...........|...........|...........|...........|...........|...........|...........|...........|...........|...........|...........|...........|...........|...........|...........|...........|...........|...........|...........|...........|...........|...........|...........|...........|...........
|...........|...........|...........|...........|...........|...........|...........|...........|...........|...........|...........|...........|...........|...........|...........|...........|...........|...........|...........|...........|...........|...........|...........|...........|...........|...........|...........|...........
|...........|...........|...........|...........|...........|...........|...........|...........|...........|...........|...........|...........|...........|...........|...........|...........|B-511......|...........|...........|...........|...........|...........|...........|...........|...........|...........|...........|...........
|...........|...........|...........|...........|...........|...........|...........|...........|...........|...........|...........|...........|...........|...........|...........|...........|...........|...........|...........|...........|...........|...........|...........|...........|...........|...........|...........|...........
|...........|...........|...........|...........|...........|...........|...........|...........|...........|...........|...........|...........|...........|...........|...........|...........|...........|...........|...........|...........|...........|...........|...........|...........|...........|...........|...........|...........
|...........|...........|...........|...........|...........|...........|...........|...........|...........|...........|C-503......|G-404......|C-526......|...........|...........|...........|A-511......|...........|D-711......|...........|...........|...........|...........|...........|...........|...........|...........|...........
|...........|...........|...........|...........|...........|...........|...........|...........|...........|...........|...........|...........|...........|...........|...........|...........|...........|...........|...........|...........|...........|...........|...........|...........|...........|...........|...........|...........
|...........|...........|...........|...........|...........|...........|...........|...........|...........|...........|...........|...........|...........|...........|...........|...........|...........|...........|........F10|...........|...........|...........|...........|...........|...........|...........|...........|...........
|...........|...........|...........|...........|...........|...........|...........|...........|...........|...........|...........|...........|...........|...........|...........|...........|^^^........|...........|...........|...........|...........|...........|...........|...........|...........|...........|...........|...........
|...........|...........|...........|...........|...........|...........|...........|...........|...........|...........|...........|...........|...........|...........|...........|...........|...........|...........|^^^........|...........|...........|...........|...........|...........|...........|...........|...........|...........
|...........|...........|...........|...........|...........|...........|...........|...........|...........|...........|...........|C-403......|...........|...........|...........|...........|B-511......|...........|...........|...........|...........|...........|...........|...........|...........|...........|...........|...........
|...........|...........|...........|...........|...........|...........|...........|...........|...........|...........|...........|...........|...........|...........|...........|...........|...........|...........|...........|...........|...........|...........|...........|...........|...........|...........|...........|...........
|...........|...........|...........|...........|...........|...........|...........|...........|...........|...........|...........|...........|...........|...........|...........|...........|...........|...........|...........|...........|...........|...........|...........|...........|...........|...........|...........|...........
|...........|G-302......|...........|...........|...........|...........|...........|...........|...........|...........|C-403......|...........|...........|...........|...........|F-518......|...........|...........|D-711......|...........|...........|...........|...........|...........|...........|...........|...........|...........
|...........|...........|...........|...........|...........|...........|...........|...........|...........|...........|...........|...........|...........|...........|...........|...........|...........|...........|...........|...........|...........|...........|...........|...........|...........|...........|...........|...........
|...........|...........|...........|...........|...........|...........|...........|...........|...........|...........|...........|...........|...........|...........|...........|...........|...........|...........|...........|...........|...........|...........|...........|...........|...........|...........|...........|...........
|...........|...........|...........|...........|...........|...........|...........|...........|...........|...........|...........|...........|...........|...........|...........|...........|...........|...........|...........|...........|...........|...........|...........|...........|...........|...........|...........|...........
|...........|...........|...........|...........|...........|...........|...........|...........|...........|...........|...........|...........|...........|...........|...........|...........|...........|...........|^^^........|...........|...........|...........|...........|...........|...........|...........|...........|...........
|...........|...........|...........|...........|...........|...........|...........|...........|...........|...........|...........|...........|...........|...........|...........|...........|...........|...........|...........|...........|...........|...........|...........|...........|...........|...........|...........|...........
|...........|...........|...........|...........|...........|...........|...........|...........|...........|...........|...........|...........|...........|...........|...........|...........|...........|...........|...........|...........|...........|...........|...........|...........|...........|...........|...........|...........
|...........|...........|...........|...........|...........|...........|...........|...........|...........|...........|...........|...........|...........|...........|...........|...........|...........|...........|...........|...........|...........|...........|...........|...........|...........|...........|...........|...........
|...........|...........|...........|...........|...........|...........|...........|...........|...........|...........|G-404......|C-503......|G-525......|...........|...........|...........|...........|...........|C-711......|A-510......|...........|...........|...........|...........|...........|...........|...........|...........
|...........|...........|...........|...........|...........|...........|...........|...........|...........|...........|...........|...........|...........|...........|...........|...........|...........|...........|...........|...........|...........|...........|...........|...........|...........|...........|...........|...........
|...........|...........|...........|...........|...........|...........|...........|...........|...........|...........|...........|...........|...........|...........|...........|...........|...........|...........|...........|...........|...........|...........|...........|...........|...........|...........|...........|...........
|...........|...........|...........|...........|...........|...........|...........|...........|...........|...........|...........|...........|...........|...........|...........|...........|...........|...........|...........|^^^........|...........|...........|...........|...........|...........|...........|...........|...........
|...........|...........|...........|...........|...........|...........|...........|...........|...........|...........|...........|...........|...........|...........|...........|...........|...........|...........|^^^........|...........|...........|...........|...........|...........|...........|...........|...........|...........
|...........|...........|...........|...........|...........|...........|...........|...........|...........|...........|C-403......|...........|...........|...........|...........|F-518......|...........|...........|...........|...........|...........|...........|...........|...........|...........|...........|...........|...........
|...........|...........|...........|...........|...........|...........|...........|...........|...........|...........|...........|...........|...........|...........|...........|...........|...........|...........|...........|...........|...........|...........|...........|...........|...........|...........|...........|...........
|...........|...........|...........|...........|...........|...........|...........|...........|...........|...........|...........|...........|...........|...........|...........|...........|...........|...........|...........|...........|...........|...........|...........|...........|...........|...........|...........|...........
|...........|A-302......|...........|...........|...........|...........|...........|...........|...........|...........|...........|C-403......|...........|...........|...........|...........|...........|...........|...........|B-510......|...........|...........|...........|...........|...........|...........|...........|...........
|...........|...........|...........|...........|...........|...........|...........|...........|...........|...........|...........|...........|...........|...........|...........|...........|...........|...........|...........|...........|...........|...........|...........|...........|...........|...........|...........|...........
|...........|...........|...........|...........|...........|...........|...........|...........|...........|...........|...........|...........|...........|...........|...........|...........|...........|...........|...........|...........|...........|...........|...........|...........|...........|...........|...........|...........
|...........|...........|...........|...........|...........|...........|...........|...........|...........|...........|...........|...........|...........|...........|...........|...........|...........|...........|...........|...........|...........|...........|...........|...........|...........|...........|...........|...........
|...........|...........|...........|...........|...........|...........|...........|...........|...........|...........|...........|...........|...........|...........|...........|...........|...........|...........|...........|...........|...........|...........|...........|...........|...........|...........|...........|...........
|...........|...........|...........|...........|...........|...........|...........|...........|...........|...........|...........|...........|...........|...........|...........|...........|E-611......|...........|...........|...........|...........|...........|...........|...........|...........|...........|...........|...........
|...........|...........|...........|...........|...........|...........|...........|...........|...........|...........|...........|...........|...........|...........|...........|...........|...........|...........|...........|...........|...........|...........|...........|...........|...........|...........|...........|...........
|...........|...........|...........|...........|...........|...........|...........|...........|...........|...........|...........|...........|...........|...........|...........|...........|...........|...........|...........|...........|...........|...........|...........|...........|...........|...........|...........|...........
|...........|...........|C-506......|G-406......|E-406......|B-306......|C-406......|...........|...........|...........|C-503......|G-404......|C-526......|...........|...........|C-519......|D-611......|C-611......|B-611......|...........|...........|...........|...........|...........|...........|...........|...........|...........
|...........|...........|...........|...........|...........|...........|...........|...........|...........|...........|...........|...........|...........|...........|...........|...........|...........|...........|...........|...........|...........|...........|...........|...........|...........|...........|...........|...........
|...........|...........|...........|...........|...........|...........|...........|...........|...........|...........|...........|...........|...........|...........|...........|...........|...........|...........|...........|...........|...........|...........|...........|...........|...........|...........|...........|...........
|...........|...........|...........|...........|...........|...........|...........|...........|...........|...........|...........|...........|...........|...........|...........|...........|^^^........|...........|...........|...........|...........|...........|...........|...........|...........|...........|...........|...........
|...........|...........|...........|...........|...........|...........|...........|...........|...........|...........|...........|...........|...........|...........|...........|...........|...........|...........|...........|...........|...........|...........|...........|...........|...........|...........|...........|...........
|...........|...........|...........|...........|...........|...........|...........|...........|...........|...........|...........|C-403......|...........|...........|...........|...........|E-611......|...........|...........|...........|...........|...........|...........|...........|...........|...........|...........|...........
|...........|...........|...........|...........|...........|...........|...........|...........|...........|...........|...........|...........|...........|...........|...........|...........|...........|...........|...........|...........|...........|...........|...........|...........|...........|...........|...........|...........
|...........|...........|...........|...........|...........|...........|...........|...........|...........|...........|...........|...........|...........|...........|...........|...........|...........|...........|...........|...........|...........|...........|...........|...........|...........|...........|...........|...........
|...........|E-302......|...........|...........|...........|...........|...........|...........|...........|...........|C-403......|...........|...........|...........|...........|F-518......|...........|...........|C-711......|C-610......|...........|...........|...........|...........|...........|...........|...........|...........
|...........|...........|...........|...........|...........|...........|...........|...........|...........|...........|...........|...........|...........|...........|...........|...........|...........|...........|...........|...........|...........|...........|...........|...........|...........|...........|...........|...........
|...........|...........|...........|...........|...........|...........|...........|...........|...........|...........|...........|...........|...........|...........|...........|...........|...........|...........|...........|...........|...........|...........|...........|...........|...........|...........|...........|...........
|...........|...........|...........|...........|...........|...........|...........|...........|...........|...........|...........|...........|...........|...........|...........|...........|...........|...........|...........|...........|...........|...........|...........|...........|...........|...........|...........|...........
|...........|...........|...........|...........|...........|...........|...........|...........|...........|...........|...........|...........|...........|...........|...........|...........|...........|...........|^^^........|...........|...........|...........|...........|...........|...........|...........|...........|...........
|...........|...........|E-406......|B-306......|G-306......|C-406......|...........|...........|...........|...........|...........|...........|...........|...........|...........|...........|...........|E-511......|...........|...........|...........|...........|...........|...........|...........|...........|...........|...........
|...........|...........|...........|...........|...........|...........|...........|...........|...........|...........|...........|...........|...........|...........|...........|...........|...........|...........|...........|...........|...........|...........|...........|...........|...........|...........|...........|...........
|...........|...........|...........|...........|...........|...........|...........|...........|...........|...........|...........|...........|...........|...........|...........|...........|...........|...........|...........|...........|...........|...........|...........|...........|...........|...........|...........|...........
|...........|...........|...........|...........|...........|...........|...........|...........|...........|...........|G-404......|C-503......|G-525......|...........|...........|C-519......|...........|...........|A-711......|...........|...........|...........|...........|...........|...........|...........|...........|...........
|...........|...........|...........|...........|...........|...........|...........|...........|...........|...........|...........|...........|...........|...........|...........|...........|...........|...........|...........|...........|...........|...........|...........|...........|...........|...........|...........|...........
|...........|...........|...........|...........|...........|...........|...........|...........|...........|...........|...........|...........|...........|...........|...........|...........|...........|...........|........E10|...........|...........|...........|...........|...........|...........|...........|...........|...........
|...........|...........|...........|...........|...........|...........|...........|...........|...........|...........|...........|...........|...........|...........|...........|...........|...........|...........|...........|...........|...........|...........|...........|...........|...........|...........|...........|...........
|...........|...........|...........|...........|...........|...........|...........|...........|...........|...........|...........|...........|...........|...........|...........|...........|...........|...........|...........|...........|...........|...........|...........|...........|...........|...........|...........|...........
|...........|...........|...........|...........|...........|...........|...........|...........|...........|...........|C-403......|...........|...........|...........|...........|...........|...........|...........|...........|D-610......|...........|...........|...........|...........|...........|...........|...........|...........
|...........|...........|...........|...........|...........|...........|...........|...........|...........|...........|...........|...........|...........|...........|...........|...........|...........|...........|...........|...........|...........|...........|...........|...........|...........|...........|...........|...........
|...........|...........|...........|...........|...........|...........|...........|...........|...........|...........|...........|...........|...........|...........|...........|...........|...........|...........|...........|...........|...........|...........|...........|...........|...........|...........|...........|...........
Rows: 64
|...........|D-302......|B-406......|F#406......|E-406......|C-406......|F#306......|...........|...........|...........|...........|C-403......|...........|...........|...........|C-519......|...........|A-511......|...........|...........|...........|...........|...........|...........|...........|...........|...........|...........
|...........|...........|...........|...........|...........|...........|...........|...........|...........|...........|...........|...........|...........|...........|...........|...........|...........|...........|...........|...........|...........|...........|...........|...........|...........|...........|...........|...........
|...........|...........|...........|...........|...........|...........|...........|...........|...........|...........|...........|...........|...........|...........|...........|...........|...........|........F10|...........|...........|...........|...........|...........|...........|...........|...........|...........|...........
|...........|...........|...........|...........|...........|...........|...........|...........|...........|...........|...........|...........|...........|...........|...........|...........|...........|...........|...........|...........|...........|...........|...........|...........|...........|...........|...........|...........
|...........|...........|...........|...........|...........|...........|...........|...........|...........|...........|...........|...........|...........|...........|...........|...........|...........|...........|...........|...........|...........|...........|...........|...........|...........|...........|...........|...........
|...........|...........|...........|...........|...........|...........|...........|...........|...........|...........|...........|...........|...........|...........|...........|...........|A-511......|...........|...........|...........|...........|...........|...........|...........|...........|...........|...........|...........
|...........|...........|...........|...........|...........|...........|...........|...........|...........|...........|...........|...........|...........|...........|...........|...........|...........|...........|...........|...........|...........|...........|...........|...........|...........|...........|...........|...........
|...........|...........|...........|...........|...........|...........|...........|...........|...........|...........|...........|...........|...........|...........|...........|...........|...........|...........|...........|...........|...........|...........|...........|...........|...........|...........|...........|...........
|...........|...........|...........|...........|...........|...........|...........|...........|...........|...........|C-503......|G-404......|C-526......|...........|...........|...........|G-511......|...........|F#711......|...........|...........|...........|...........|...........|...........|...........|...........|...........
|...........|...........|...........|...........|...........|...........|...........|...........|...........|...........|...........|...........|...........|...........|...........|...........|...........|...........|...........|...........|...........|...........|...........|...........|...........|...........|...........|...........
|...........|...........|...........|...........|...........|...........|...........|...........|...........|...........|...........|...........|...........|...........|...........|...........|...........|...........|...........|...........|...........|...........|...........|...........|...........|...........|...........|...........
|...........|...........|...........|...........|...........|...........|...........|...........|...........|...........|...........|...........|...........|...........|...........|...........|^^^........|...........|...........|...........|...........|...........|...........|...........|...........|...........|...........|...........
|...........|...........|...........|...........|...........|...........|...........|...........|...........|...........|...........|...........|...........|...........|...........|...........|...........|...........|^^^........|...........|...........|...........|...........|...........|...........|...........|...........|...........
|...........|...........|...........|...........|...........|...........|...........|...........|...........|...........|...........|C-403......|...........|...........|...........|...........|A-511......|...........|...........|...........|...........|...........|...........|...........|...........|...........|...........|...........
|...........|...........|...........|...........|...........|...........|...........|...........|...........|...........|...........|...........|...........|...........|...........|...........|...........|...........|...........|...........|...........|...........|...........|...........|...........|...........|...........|...........
|...........|...........|...........|...........|...........|...........|...........|...........|...........|...........|...........|...........|...........|...........|...........|...........|...........|...........|...........|...........|...........|...........|...........|...........|...........|...........|...........|...........
|...........|A-302......|...........|...........|...........|...........|...........|...........|...........|...........|C-403......|...........|...........|...........|...........|F-518......|...........|...........|E-711......|...........|...........|...........|...........|...........|...........|...........|...........|...........
|...........|...........|...........|...........|...........|...........|...........|...........|...........|...........|...........|...........|...........|...........|...........|...........|...........|...........|...........|...........|...........|...........|...........|...........|...........|...........|...........|...........
|...........|...........|...........|...........|...........|...........|...........|...........|...........|...........|...........|...........|...........|...........|...........|...........|...........|...........|...........|...........|...........|...........|...........|...........|...........|...........|...........|...........
|...........|...........|...........|...........|...........|...........|...........|...........|...........|...........|...........|...........|...........|...........|...........|...........|...........|...........|...........|...........|...........|...........|...........|...........|...........|...........|...........|...........
|...........|...........|...........|...........|...........|...........|...........|...........|...........|...........|...........|...........|...........|...........|...........|...........|...........|...........|...........|...........|...........|...........|...........|...........|...........|...........|...........|...........
|...........|...........|...........|...........|...........|...........|...........|...........|...........|...........|...........|...........|...........|...........|...........|...........|...........|...........|D-711......|...........|...........|...........|...........|...........|...........|...........|...........|...........
|...........|...........|...........|...........|...........|...........|...........|...........|...........|...........|...........|...........|...........|...........|...........|...........|...........|...........|...........|...........|...........|...........|...........|...........|...........|...........|...........|...........
|...........|...........|...........|...........|...........|...........|...........|...........|...........|...........|...........|...........|...........|...........|...........|...........|...........|...........|...........|...........|...........|...........|...........|...........|...........|...........|...........|...........
|...........|...........|...........|...........|...........|...........|...........|...........|...........|...........|G-404......|C-503......|G-525......|...........|...........|...........|B-511......|...........|^^^........|...........|...........|...........|...........|...........|...........|...........|...........|...........
|...........|...........|...........|...........|...........|...........|...........|...........|...........|...........|...........|...........|...........|...........|...........|...........|...........|...........|...........|...........|...........|...........|...........|...........|...........|...........|...........|...........
|...........|...........|...........|...........|...........|...........|...........|...........|...........|...........|...........|...........|...........|...........|...........|...........|...........|...........|...........|...........|...........|...........|...........|...........|...........|...........|...........|...........
|...........|...........|...........|...........|...........|...........|...........|...........|...........|...........|...........|...........|...........|...........|...........|...........|^^^........|...........|...........|...........|...........|...........|...........|...........|...........|...........|...........|...........
|...........|...........|...........|...........|...........|...........|...........|...........|...........|...........|...........|...........|...........|...........|...........|...........|...........|...........|...........|...........|...........|...........|...........|...........|...........|...........|...........|...........
|...........|...........|...........|...........|...........|...........|...........|...........|...........|...........|C-403......|...........|...........|...........|...........|F-518......|...........|...........|B-711......|...........|...........|...........|...........|...........|...........|...........|...........|...........
|...........|...........|...........|...........|...........|...........|...........|...........|...........|...........|...........|...........|...........|...........|...........|...........|...........|...........|...........|...........|...........|...........|...........|...........|...........|...........|...........|...........
|...........|...........|...........|...........|...........|...........|...........|...........|...........|...........|...........|...........|...........|...........|...........|...........|...........|...........|........E10|...........|...........|...........|...........|...........|...........|...........|...........|...........
|...........|D-402......|...........|...........|...........|...........|...........|...........|...........|...........|...........|C-403......|...........|...........|...........|...........|C-611......|...........|...........|...........|...........|...........|...........|...........|...........|...........|...........|...........
|...........|...........|...........|...........|...........|...........|...........|...........|...........|...........|...........|...........|...........|...........|...........|...........|...........|...........|...........|...........|...........|...........|...........|...........|...........|...........|...........|...........
|...........|...........|...........|...........|...........|...........|...........|...........|...........|...........|...........|...........|...........|...........|...........|...........|...........|...........|...........|...........|...........|...........|...........|...........|...........|...........|...........|...........
|...........|...........|...........|...........|...........|...........|...........|...........|...........|...........|...........|...........|...........|...........|...........|...........|...........|...........|...........|...........|...........|...........|...........|...........|...........|...........|...........|...........
|...........|...........|...........|...........|...........|...........|...........|...........|...........|...........|...........|...........|...........|...........|...........|...........|...........|...........|...........|...........|...........|...........|...........|...........|...........|...........|...........|...........
|...........|...........|...........|...........|...........|...........|...........|...........|...........|...........|...........|...........|...........|...........|...........|...........|...........|...........|...........|...........|...........|...........|...........|...........|...........|...........|...........|...........
|...........|...........|...........|...........|...........|...........|...........|...........|...........|...........|...........|...........|...........|...........|...........|...........|...........|...........|...........|...........|...........|...........|...........|...........|...........|...........|...........|...........
|...........|...........|...........|...........|...........|...........|...........|...........|...........|...........|...........|...........|...........|...........|...........|...........|...........|...........|...........|...........|...........|...........|...........|...........|...........|...........|...........|...........
|...........|...........|B-406......|F#406......|E-406......|C-406......|F#306......|...........|...........|...........|C-503......|G-404......|C-526......|...........|...........|C-519......|...........|...........|E-711......|...........|...........|...........|...........|...........|...........|...........|...........|...........
|...........|...........|...........|...........|...........|...........|...........|...........|...........|...........|...........|...........|...........|...........|...........|...........|...........|...........|...........|...........|...........|...........|...........|...........|...........|...........|...........|...........
|...........|...........|...........|...........|...........|...........|...........|...........|...........|...........|...........|...........|...........|...........|...........|...........|...........|...........|........F10|...........|...........|...........|...........|...........|...........|...........|...........|...........
|...........|...........|...........|...........|...........|...........|...........|...........|...........|...........|...........|...........|...........|...........|...........|...........|...........|...........|...........|...........|...........|...........|...........|...........|...........|...........|...........|...........
|...........|...........|...........|...........|...........|...........|...........|...........|...........|...........|...........|...........|...........|...........|...........|...........|...........|...........|^^^........|...........|...........|...........|...........|...........|...........|...........|...........|...........
|...........|...........|...........|...........|...........|...........|...........|...........|...........|...........|...........|C-403......|...........|...........|...........|...........|...........|...........|...........|...........|...........|...........|...........|...........|...........|...........|...........|...........
|...........|...........|...........|...........|...........|...........|...........|...........|...........|...........|...........|...........|...........|...........|...........|...........|...........|...........|...........|...........|...........|...........|...........|...........|...........|...........|...........|...........
|...........|...........|...........|...........|...........|...........|...........|...........|...........|...........|...........|...........|...........|...........|...........|...........|...........|...........|...........|...........|...........|...........|...........|...........|...........|...........|...........|...........
|...........|A-302......|...........|...........|...........|...........|...........|...........|...........|...........|C-403......|...........|...........|...........|...........|F-518......|D-611......|...........|...........|...........|...........|...........|...........|...........|...........|...........|...........|...........
|...........|...........|...........|...........|...........|...........|...........|...........|...........|...........|...........|...........|...........|...........|...........|...........|...........|...........|...........|...........|...........|...........|...........|...........|...........|...........|...........|...........
|...........|...........|...........|...........|...........|...........|...........|...........|...........|...........|...........|...........|...........|...........|...........|...........|...........|...........|...........|...........|...........|...........|...........|...........|...........|...........|...........|...........
|...........|...........|...........|...........|...........|...........|...........|...........|...........|...........|...........|...........|...........|...........|...........|...........|...........|...........|...........|...........|...........|...........|...........|...........|...........|...........|...........|...........
|...........|...........|...........|...........|...........|...........|...........|...........|...........|...........|...........|...........|...........|...........|...........|...........|...........|...........|...........|...........|...........|...........|...........|...........|...........|...........|...........|...........
|...........|...........|...........|...........|...........|...........|...........|...........|...........|...........|...........|...........|...........|...........|...........|...........|^^^........|...........|E-711......|...........|...........|...........|...........|...........|...........|...........|...........|...........
|...........|...........|...........|...........|...........|...........|...........|...........|...........|...........|...........|...........|...........|...........|...........|...........|...........|...........|...........|...........|...........|...........|...........|...........|...........|...........|...........|...........
|...........|...........|...........|...........|...........|...........|...........|...........|...........|...........|...........|...........|...........|...........|...........|...........|...........|...........|...........|...........|...........|...........|...........|...........|...........|...........|...........|...........
|...........|...........|...........|...........|...........|...........|...........|...........|...........|...........|G-404......|C-503......|G-525......|...........|...........|C-519......|...........|...........|D-711......|...........|...........|...........|...........|...........|...........|...........|...........|...........
|...........|...........|...........|...........|...........|...........|...........|...........|...........|...........|...........|...........|...........|...........|...........|...........|...........|...........|...........|...........|...........|...........|...........|...........|...........|...........|...........|...........
|...........|...........|...........|...........|...........|...........|...........|...........|...........|...........|...........|...........|...........|...........|...........|...........|...........|...........|...........|...........|...........|...........|...........|...........|...........|...........|...........|...........
|...........|...........|...........|...........|...........|...........|...........|...........|...........|...........|...........|...........|...........|...........|...........|...........|...........|...........|^^^........|...........|...........|...........|...........|...........|...........|...........|...........|...........
|...........|...........|...........|...........|...........|...........|...........|...........|...........|...........|...........|...........|...........|...........|...........|...........|...........|...........|...........|...........|...........|...........|...........|...........|...........|...........|...........|...........
|...........|...........|...........|...........|...........|...........|...........|...........|...........|...........|C-403......|...........|...........|...........|...........|...........|D-611......|...........|D-811......|...........|...........|...........|...........|...........|...........|...........|...........|...........
|...........|...........|...........|...........|...........|...........|...........|...........|...........|...........|...........|...........|...........|...........|...........|...........|........F10|...........|...........|...........|...........|...........|...........|...........|...........|...........|...........|...........
|...........|...........|...........|...........|...........|...........|...........|...........|...........|...........|...........|...........|...........|...........|...........|...........|...........|...........|........E10|...........|...........|...........|...........|...........|...........|...........|...........|...........
Rows: 64
|...........|D-302......|D-406......|F-306......|C-306......|A-306......|A-406......|...........|...........|...........|...........|C-403......|...........|...........|...........|C-519......|...........|...........|...........|...........|...........|...........|...........|...........|...........|...........|...........|...........
|...........|...........|...........|...........|...........|...........|...........|...........|...........|...........|...........|...........|...........|...........|...........|...........|...........|...........|...........|...........|...........|...........|...........|...........|...........|...........|...........|...........
|...........|...........|...........|...........|...........|...........|...........|...........|...........|...........|...........|...........|...........|...........|...........|...........|...........|...........|...........|...........|...........|...........|...........|...........|...........|...........|...........|...........
|...........|...........|...........|...........|...........|...........|...........|...........|...........|...........|...........|...........|...........|...........|...........|...........|...........|...........|...........|...........|...........|...........|...........|...........|...........|...........|...........|...........
|...........|...........|...........|...........|...........|...........|...........|...........|...........|...........|...........|...........|...........|...........|...........|...........|...........|...........|...........|...........|...........|...........|...........|...........|...........|...........|...........|...........
|...........|...........|...........|...........|...........|...........|...........|...........|...........|...........|...........|...........|...........|...........|...........|...........|...........|...........|...........|...........|...........|...........|...........|...........|...........|...........|...........|...........
|...........|...........|...........|...........|...........|...........|...........|...........|...........|...........|...........|...........|...........|...........|...........|...........|...........|...........|...........|...........|...........|...........|...........|...........|...........|...........|...........|...........
|...........|...........|...........|...........|...........|...........|...........|...........|...........|...........|...........|...........|...........|...........|...........|...........|...........|...........|...........|...........|...........|...........|...........|...........|...........|...........|...........|...........
|...........|...........|...........|...........|...........|...........|...........|...........|...........|...........|C-503......|G-404......|C-526......|...........|...........|...........|...........|...........|A-711......|D-610......|...........|...........|...........|...........|...........|...........|...........|...........
|...........|...........|...........|...........|...........|...........|...........|...........|...........|...........|...........|...........|...........|...........|...........|...........|...........|...........|...........|...........|...........|...........|...........|...........|...........|...........|...........|...........
|...........|...........|...........|...........|...........|...........|...........|...........|...........|...........|...........|...........|...........|...........|...........|...........|...........|...........|...........|...........|...........|...........|...........|...........|...........|...........|...........|...........
|...........|...........|...........|...........|...........|...........|...........|...........|...........|...........|...........|...........|...........|...........|...........|...........|...........|...........|...........|...........|...........|...........|...........|...........|...........|...........|...........|...........
|...........|...........|...........|...........|...........|...........|...........|...........|...........|...........|...........|...........|...........|...........|...........|...........|...........|...........|^^^........|...........|...........|...........|...........|...........|...........|...........|...........|...........
|...........|...........|...........|...........|...........|...........|...........|...........|...........|...........|...........|C-403......|...........|...........|...........|...........|...........|...........|...........|...........|...........|...........|...........|...........|...........|...........|...........|...........
|...........|...........|...........|...........|...........|...........|...........|...........|...........|...........|...........|...........|...........|...........|...........|...........|...........|...........|...........|...........|...........|...........|...........|...........|...........|...........|...........|...........
|...........|...........|...........|...........|...........|...........|...........|...........|...........|...........|...........|...........|...........|...........|...........|...........|...........|...........|...........|...........|...........|...........|...........|...........|...........|...........|...........|...........
|...........|A-302......|E-406......|C-406......|G-306......|...........|...........|...........|...........|...........|C-403......|...........|...........|...........|...........|F-518......|...........|...........|...........|...........|...........|...........|...........|...........|...........|...........|...........|...........
|...........|...........|...........|...........|...........|...........|...........|...........|...........|...........|...........|...........|...........|...........|...........|...........|...........|...........|...........|...........|...........|...........|...........|...........|...........|...........|...........|...........
|...........|...........|...........|...........|...........|...........|...........|...........|...........|...........|...........|...........|...........|...........|...........|...........|...........|...........|...........|...........|...........|...........|...........|...........|...........|...........|...........|...........
|...........|...........|...........|...........|...........|...........|...........|...........|...........|...........|...........|...........|...........|...........|...........|...........|...........|...........|...........|...........|...........|...........|...........|...........|...........|...........|...........|...........
|...........|...........|...........|...........|...........|...........|...........|...........|...........|...........|...........|...........|...........|...........|...........|...........|...........|...........|...........|...........|...........|...........|...........|...........|...........|...........|...........|...........
|...........|...........|...........|...........|...........|...........|...........|...........|...........|...........|...........|...........|...........|...........|...........|...........|...........|...........|G-711......|...........|...........|...........|...........|...........|...........|...........|...........|...........
|...........|...........|...........|...........|...........|...........|...........|...........|...........|...........|...........|...........|...........|...........|...........|...........|...........|...........|...........|...........|...........|...........|...........|...........|...........|...........|...........|...........
|...........|...........|...........|...........|...........|...........|...........|...........|...........|...........|...........|...........|...........|...........|...........|...........|...........|...........|...........|...........|...........|...........|...........|...........|...........|...........|...........|...........
|...........|...........|...........|...........|...........|...........|...........|...........|...........|...........|G-404......|C-503......|G-525......|...........|...........|...........|...........|...........|F-711......|E-610......|...........|...........|...........|...........|...........|...........|...........|...........
|...........|...........|...........|...........|...........|...........|...........|...........|...........|...........|...........|...........|...........|...........|...........|...........|...........|...........|...........|...........|...........|...........|...........|...........|...........|...........|...........|...........
|...........|...........|...........|...........|...........|...........|...........|...........|...........|...........|...........|...........|...........|...........|...........|...........|...........|...........|...........|...........|...........|...........|...........|...........|...........|...........|...........|...........
|...........|...........|...........|...........|...........|...........|...........|...........|...........|...........|...........|...........|...........|...........|...........|...........|...........|...........|...........|...........|...........|...........|...........|...........|...........|...........|...........|...........
|...........|...........|...........|...........|...........|...........|...........|...........|...........|...........|...........|...........|...........|...........|...........|...........|...........|...........|...........|^^^........|...........|...........|...........|...........|...........|...........|...........|...........
|...........|...........|...........|...........|...........|...........|...........|...........|...........|...........|C-403......|...........|...........|...........|...........|F-518......|...........|...........|E-711......|...........|...........|...........|...........|...........|...........|...........|...........|...........
|...........|...........|...........|...........|...........|...........|...........|...........|...........|...........|...........|...........|...........|...........|...........|...........|...........|...........|...........|...........|...........|...........|...........|...........|...........|...........|...........|...........
|...........|...........|...........|...........|...........|...........|...........|...........|...........|...........|...........|...........|...........|...........|...........|...........|...........|...........|...........|...........|...........|...........|...........|...........|...........|...........|...........|...........
|...........|D-402......|F-406......|C-406......|A-306......|...........|...........|...........|...........|...........|...........|C-403......|...........|...........|...........|...........|...........|...........|...........|F-610......|...........|...........|...........|...........|...........|...........|...........|...........
|...........|...........|...........|...........|...........|...........|...........|...........|...........|...........|...........|...........|...........|...........|...........|...........|...........|...........|...........|...........|...........|...........|...........|...........|...........|...........|...........|...........
|...........|...........|...........|...........|...........|...........|...........|...........|...........|...........|...........|...........|...........|...........|...........|...........|...........|...........|...........|...........|...........|...........|...........|...........|...........|...........|...........|...........
|...........|...........|...........|...........|...........|...........|...........|...........|...........|...........|...........|...........|...........|...........|...........|...........|...........|...........|...........|...........|...........|...........|...........|...........|...........|...........|...........|...........
|...........|...........|...........|...........|...........|...........|...........|...........|...........|...........|...........|...........|...........|...........|...........|...........|...........|...........|...........|...........|...........|...........|...........|...........|...........|...........|...........|...........
|...........|...........|...........|...........|...........|...........|...........|...........|...........|...........|...........|...........|...........|...........|...........|...........|...........|...........|...........|...........|...........|...........|...........|...........|...........|...........|...........|...........
|...........|...........|...........|...........|...........|...........|...........|...........|...........|...........|...........|...........|...........|...........|...........|...........|...........|...........|...........|...........|...........|...........|...........|...........|...........|...........|...........|...........
|...........|...........|...........|...........|...........|...........|...........|...........|...........|...........|...........|...........|...........|...........|...........|...........|...........|...........|...........|...........|...........|...........|...........|...........|...........|...........|...........|...........
|...........|...........|...........|...........|...........|...........|...........|...........|...........|...........|C-503......|G-404......|C-526......|...........|...........|C-519......|...........|...........|F-711......|...........|...........|...........|...........|...........|...........|...........|...........|...........
|...........|...........|...........|...........|...........|...........|...........|...........|...........|...........|...........|...........|...........|...........|...........|...........|...........|...........|...........|...........|...........|...........|...........|...........|...........|...........|...........|...........
|...........|...........|...........|...........|...........|...........|...........|...........|...........|...........|...........|...........|...........|...........|...........|...........|...........|...........|...........|...........|...........|...........|...........|...........|...........|...........|...........|...........
|...........|...........|...........|...........|...........|...........|...........|...........|...........|...........|...........|...........|...........|...........|...........|...........|...........|...........|...........|...........|...........|...........|...........|...........|...........|...........|...........|...........
|...........|...........|...........|...........|...........|...........|...........|...........|...........|...........|...........|...........|...........|...........|...........|...........|...........|...........|^^^........|...........|...........|...........|...........|...........|...........|...........|...........|...........
|...........|...........|...........|...........|...........|...........|...........|...........|...........|...........|...........|C-403......|...........|...........|...........|...........|...........|...........|...........|...........|...........|...........|...........|...........|...........|...........|...........|...........
|...........|...........|...........|...........|...........|...........|...........|...........|...........|...........|...........|...........|...........|...........|...........|...........|...........|...........|...........|...........|...........|...........|...........|...........|...........|...........|...........|...........
|...........|...........|...........|...........|...........|...........|...........|...........|...........|...........|...........|...........|...........|...........|...........|...........|...........|...........|...........|...........|...........|...........|...........|...........|...........|...........|...........|...........
|...........|G-302......|G-406......|F-306......|B-306......|E-406......|...........|...........|...........|...........|C-403......|...........|...........|...........|...........|F-518......|...........|...........|...........|G-610......|...........|...........|...........|...........|...........|...........|...........|...........
|...........|...........|...........|...........|...........|...........|...........|...........|...........|...........|...........|...........|...........|...........|...........|...........|...........|...........|...........|...........|...........|...........|...........|...........|...........|...........|...........|...........
|...........|...........|...........|...........|...........|...........|...........|...........|...........|...........|...........|...........|...........|...........|...........|...........|...........|...........|...........|...........|...........|...........|...........|...........|...........|...........|...........|...........
|...........|...........|...........|...........|...........|...........|...........|...........|...........|...........|...........|...........|...........|...........|...........|...........|...........|...........|...........|...........|...........|...........|...........|...........|...........|...........|...........|...........
|...........|...........|...........|...........|...........|...........|...........|...........|...........|...........|...........|...........|...........|...........|...........|...........|...........|...........|...........|...........|...........|...........|...........|...........|...........|...........|...........|...........
|...........|...........|...........|...........|...........|...........|...........|...........|...........|...........|...........|...........|...........|...........|...........|...........|...........|F-611......|C-811......|...........|...........|...........|...........|...........|...........|...........|...........|...........
|...........|...........|...........|...........|...........|...........|...........|...........|...........|...........|...........|...........|...........|...........|...........|...........|...........|...........|...........|...........|...........|...........|...........|...........|...........|...........|...........|...........
|...........|...........|...........|...........|...........|...........|...........|...........|...........|...........|...........|...........|...........|...........|...........|...........|...........|...........|...........|...........|...........|...........|...........|...........|...........|...........|...........|...........
|...........|...........|...........|...........|...........|...........|...........|...........|...........|...........|G-404......|C-503......|G-525......|...........|...........|C-519......|...........|G-611......|........F10|...........|...........|...........|...........|...........|...........|...........|...........|...........
|...........|...........|...........|...........|...........|...........|...........|...........|...........|...........|...........|...........|...........|...........|...........|...........|...........|...........|...........|...........|...........|...........|...........|...........|...........|...........|...........|...........
|...........|...........|...........|...........|...........|...........|...........|...........|...........|...........|...........|...........|...........|...........|...........|...........|...........|...........|...........|...........|...........|...........|...........|...........|...........|...........|...........|...........
|...........|...........|...........|...........|...........|...........|...........|...........|...........|...........|...........|...........|...........|...........|...........|...........|...........|^^^........|...........|...........|...........|...........|...........|...........|...........|...........|...........|...........
|...........|...........|...........|...........|...........|...........|...........|...........|...........|...........|...........|...........|...........|...........|...........|...........|...........|...........|...........|...........|...........|...........|...........|...........|...........|...........|...........|...........
|...........|...........|...........|...........|...........|...........|...........|...........|...........|...........|C-403......|...........|...........|...........|...........|...........|...........|F-611......|........E10|A-610......|...........|...........|...........|...........|...........|...........|...........|...........
|...........|...........|...........|...........|...........|...........|...........|...........|...........|...........|...........|...........|...........|...........|...........|...........|...........|...........|...........|...........|...........|...........|...........|...........|...........|...........|...........|...........
|...........|...........|...........|...........|...........|...........|...........|...........|...........|...........|...........|...........|...........|...........|...........|...........|...........|...........|...........|...........|...........|...........|...........|...........|...........|...........|...........|...........
Rows: 64
|...........|G-302......|A-406......|D-406......|A#306......|F-306......|...........|...........|...........|...........|...........|C-403......|...........|...........|...........|C-519......|...........|...........|...........|...........|...........|...........|...........|...........|...........|...........|...........|...........
|...........|...........|...........|...........|...........|...........|...........|...........|...........|...........|...........|...........|...........|...........|...........|...........|...........|...........|...........|...........|...........|...........|...........|...........|...........|...........|...........|...........
|...........|...........|...........|...........|...........|...........|...........|...........|...........|...........|...........|...........|...........|...........|...........|...........|...........|...........|...........|...........|...........|...........|...........|...........|...........|...........|...........|...........
|...........|...........|...........|...........|...........|...........|...........|...........|...........|...........|...........|...........|...........|...........|...........|...........|...........|...........|...........|...........|...........|...........|...........|...........|...........|...........|...........|...........
|...........|...........|...........|...........|...........|...........|...........|...........|...........|...........|...........|...........|...........|...........|...........|...........|...........|...........|...........|...........|...........|...........|...........|...........|...........|...........|...........|...........
|...........|...........|...........|...........|...........|...........|...........|...........|...........|...........|...........|...........|...........|...........|...........|...........|C-611......|...........|...........|...........|...........|...........|...........|...........|...........|...........|...........|...........
|...........|...........|...........|...........|...........|...........|...........|...........|...........|...........|...........|...........|...........|...........|...........|...........|...........|...........|...........|...........|...........|...........|...........|...........|...........|...........|...........|...........
|...........|...........|...........|...........|...........|...........|...........|...........|...........|...........|...........|...........|...........|...........|...........|...........|...........|...........|...........|...........|...........|...........|...........|...........|...........|...........|...........|...........
|...........|...........|...........|...........|...........|...........|...........|...........|...........|...........|C-503......|G-404......|C-526......|...........|...........|...........|D-611......|G-611......|A-711......|...........|...........|...........|...........|...........|...........|...........|...........|...........
|...........|...........|...........|...........|...........|...........|...........|...........|...........|...........|...........|...........|...........|...........|...........|...........|...........|...........|...........|...........|...........|...........|...........|...........|...........|...........|...........|...........
|...........|...........|...........|...........|...........|...........|...........|...........|...........|...........|...........|...........|...........|...........|...........|...........|...........|...........|...........|...........|...........|...........|...........|...........|...........|...........|...........|...........
|...........|...........|...........|...........|...........|...........|...........|...........|...........|...........|...........|...........|...........|...........|...........|...........|^^^........|^^^........|...........|...........|...........|...........|...........|...........|...........|...........|...........|...........
|...........|...........|...........|...........|...........|...........|...........|...........|...........|...........|...........|...........|...........|...........|...........|...........|...........|...........|...........|...........|...........|...........|...........|...........|...........|...........|...........|...........
|...........|...........|...........|...........|...........|...........|...........|...........|...........|...........|...........|C-403......|...........|...........|...........|...........|C-611......|...........|........E10|...........|...........|...........|...........|...........|...........|...........|...........|...........
|...........|...........|...........|...........|...........|...........|...........|...........|...........|...........|...........|...........|...........|...........|...........|...........|...........|...........|...........|...........|...........|...........|...........|...........|...........|...........|...........|...........
|...........|...........|...........|...........|...........|...........|...........|...........|...........|...........|...........|...........|...........|...........|...........|...........|...........|...........|...........|...........|...........|...........|...........|...........|...........|...........|...........|...........
|...........|G-202...M40|...........|...........|...........|...........|...........|...........|...........|...........|C-403......|...........|...........|...........|...........|F-518......|...........|...........|F-711......|...........|...........|...........|...........|...........|...........|...........|...........|...........
|...........|...........|...........|...........|...........|...........|...........|...........|...........|...........|...........|...........|...........|...........|...........|...........|...........|...........|...........|...........|...........|...........|...........|...........|...........|...........|...........|...........
|...........|...........|...........|...........|...........|...........|...........|...........|...........|...........|...........|...........|...........|...........|...........|...........|...........|...........|...........|...........|...........|...........|...........|...........|...........|...........|...........|...........
|...........|...........|...........|...........|...........|...........|...........|...........|...........|...........|...........|...........|...........|...........|...........|...........|...........|...........|...........|...........|...........|...........|...........|...........|...........|...........|...........|...........
|...........|...........|...........|...........|...........|...........|...........|...........|...........|...........|...........|...........|...........|...........|...........|...........|...........|...........|...........|...........|...........|...........|...........|...........|...........|...........|...........|...........
|...........|...........|...........|...........|...........|...........|...........|...........|...........|...........|...........|...........|...........|...........|...........|...........|...........|F-511......|D-711......|...........|...........|...........|...........|...........|...........|...........|...........|...........
|...........|...........|...........|...........|...........|...........|...........|...........|...........|...........|...........|...........|...........|...........|...........|...........|...........|...........|...........|...........|...........|...........|...........|...........|...........|...........|...........|...........
|...........|...........|...........|...........|...........|...........|...........|...........|...........|...........|...........|...........|...........|...........|...........|...........|...........|...........|...........|...........|...........|...........|...........|...........|...........|...........|...........|...........
|...........|...........|...........|...........|...........|...........|...........|...........|...........|...........|G-404......|C-503......|G-525......|...........|...........|...........|D-611......|G-511......|........E10|...........|...........|...........|...........|...........|...........|...........|...........|...........
|...........|...........|...........|...........|...........|...........|...........|...........|...........|...........|...........|...........|...........|...........|...........|...........|...........|...........|...........|...........|...........|...........|...........|...........|...........|...........|...........|...........
|...........|...........|...........|...........|...........|...........|...........|...........|...........|...........|...........|...........|...........|...........|...........|...........|...........|...........|...........|...........|...........|...........|...........|...........|...........|...........|...........|...........
|...........|...........|...........|...........|...........|...........|...........|...........|...........|...........|...........|...........|...........|...........|...........|...........|^^^........|^^^........|...........|...........|...........|...........|...........|...........|...........|...........|...........|...........
|...........|...........|...........|...........|...........|...........|...........|...........|...........|...........|...........|...........|...........|...........|...........|...........|...........|...........|...........|...........|...........|...........|...........|...........|...........|...........|...........|...........
|...........|...........|...........|...........|...........|...........|...........|...........|...........|...........|C-403......|...........|...........|...........|...........|F-518......|...........|F-511......|A#611......|...........|...........|...........|...........|...........|...........|...........|...........|...........
|...........|...........|...........|...........|...........|...........|...........|...........|...........|...........|...........|...........|...........|...........|...........|...........|...........|...........|...........|...........|...........|...........|...........|...........|...........|...........|...........|...........
|...........|...........|...........|...........|...........|...........|...........|...........|...........|...........|...........|...........|...........|...........|...........|...........|...........|...........|...........|...........|...........|...........|...........|...........|...........|...........|...........|...........
|...........|C-302......|A-406......|D-406......|A#306......|F-306......|...........|...........|...........|...........|...........|C-403......|...........|...........|...........|C-519......|...........|...........|G-611......|D-610......|...........|...........|...........|...........|...........|...........|...........|...........
|...........|...........|...........|...........|...........|...........|...........|...........|...........|...........|...........|...........|...........|...........|...........|...........|...........|...........|...........|...........|...........|...........|...........|...........|...........|...........|...........|...........
|...........|...........|...........|...........|...........|...........|...........|...........|...........|...........|...........|...........|...........|...........|...........|...........|...........|...........|...........|...........|...........|...........|...........|...........|...........|...........|...........|...........
|...........|...........|...........|...........|...........|...........|...........|...........|...........|...........|...........|...........|...........|...........|...........|...........|...........|...........|...........|...........|...........|...........|...........|...........|...........|...........|...........|...........
|...........|...........|...........|...........|...........|...........|...........|...........|...........|...........|...........|...........|...........|...........|...........|...........|...........|...........|...........|...........|...........|...........|...........|...........|...........|...........|...........|...........
|...........|...........|...........|...........|...........|...........|...........|...........|...........|...........|...........|...........|...........|...........|...........|...........|C-510......|...........|........F10|...........|...........|...........|...........|...........|...........|...........|...........|...........
|...........|...........|...........|...........|...........|...........|...........|...........|...........|...........|...........|...........|...........|...........|...........|...........|...........|...........|...........|...........|...........|...........|...........|...........|...........|...........|...........|...........
|...........|...........|...........|...........|...........|...........|...........|...........|...........|...........|...........|...........|...........|...........|...........|...........|...........|...........|...........|...........|...........|...........|...........|...........|...........|...........|...........|...........
|...........|...........|...........|...........|...........|...........|...........|...........|...........|...........|C-503......|G-404......|C-526......|...........|...........|F-518......|D-510......|G-511......|F-611......|...........|...........|...........|...........|...........|...........|...........|...........|...........
|...........|...........|...........|...........|...........|...........|...........|...........|...........|...........|...........|...........|...........|...........|...........|...........|...........|...........|...........|...........|...........|...........|...........|...........|...........|...........|...........|...........
|...........|...........|...........|...........|...........|...........|...........|...........|...........|...........|...........|...........|...........|...........|...........|...........|...........|...........|...........|...........|...........|...........|...........|...........|...........|...........|...........|...........
|...........|...........|...........|...........|...........|...........|...........|...........|...........|...........|...........|...........|...........|...........|...........|...........|^^^........|^^^........|...........|...........|...........|...........|...........|...........|...........|...........|...........|...........
|...........|...........|...........|...........|...........|...........|...........|...........|...........|...........|...........|...........|...........|...........|...........|...........|...........|...........|...........|...........|...........|...........|...........|...........|...........|...........|...........|...........
|...........|...........|...........|...........|...........|...........|...........|...........|...........|...........|...........|C-403......|...........|...........|...........|C-519......|C-510......|...........|D-611......|...........|...........|...........|...........|...........|...........|...........|...........|...........
|...........|...........|...........|...........|...........|...........|...........|...........|...........|...........|...........|...........|...........|...........|...........|...........|...........|...........|...........|...........|...........|...........|...........|...........|...........|...........|...........|...........
|...........|...........|...........|...........|...........|...........|...........|...........|...........|...........|...........|...........|...........|...........|...........|...........|...........|...........|...........|...........|...........|...........|...........|...........|...........|...........|...........|...........
|...........|F#302......|A-406......|D-406......|A#306......|E-306......|...........|...........|...........|...........|C-403......|...........|...........|...........|...........|F-518......|...........|...........|F-611......|G-610......|...........|...........|...........|...........|...........|...........|...........|...........
|...........|...........|...........|...........|...........|...........|...........|...........|...........|...........|...........|...........|...........|...........|...........|...........|...........|...........|...........|...........|...........|...........|...........|...........|...........|...........|...........|...........
|...........|...........|...........|...........|...........|...........|...........|...........|...........|...........|...........|...........|...........|...........|...........|...........|...........|...........|...........|...........|...........|...........|...........|...........|...........|...........|...........|...........
|...........|...........|...........|...........|...........|...........|...........|...........|...........|...........|...........|...........|...........|...........|...........|...........|...........|...........|...........|...........|...........|...........|...........|...........|...........|...........|...........|...........
|...........|...........|...........|...........|...........|...........|...........|...........|...........|...........|...........|...........|...........|...........|...........|...........|...........|...........|...........|...........|...........|...........|...........|...........|...........|...........|...........|...........
|...........|...........|...........|...........|...........|...........|...........|...........|...........|...........|...........|G-422......|...........|...........|...........|...........|...........|...........|........F10|...........|...........|...........|...........|...........|...........|...........|...........|...........
|...........|...........|...........|...........|...........|...........|...........|...........|...........|...........|...........|...........|...........|...........|...........|...........|...........|...........|...........|...........|...........|...........|...........|...........|...........|...........|...........|...........
|...........|...........|...........|...........|...........|...........|...........|...........|...........|...........|...........|...........|...........|...........|...........|...........|...........|...........|...........|...........|...........|...........|...........|...........|...........|...........|...........|...........
|...........|...........|...........|...........|...........|...........|...........|...........|...........|...........|G-404......|C-503......|G-525......|...........|...........|C-519......|D-510......|...........|...........|...........|...........|...........|...........|...........|...........|...........|...........|...........
|...........|...........|...........|...........|...........|...........|...........|...........|...........|...........|...........|...........|...........|...........|...........|...........|...........|...........|...........|...........|...........|...........|...........|...........|...........|...........|...........|...........
|...........|...........|...........|...........|...........|...........|...........|...........|...........|...........|...........|...........|...........|...........|...........|...........|...........|...........|...........|...........|...........|...........|...........|...........|...........|...........|...........|...........
|...........|...........|...........|...........|...........|...........|...........|...........|...........|...........|...........|...........|...........|...........|...........|...........|^^^........|...........|...........|...........|...........|...........|...........|...........|...........|...........|...........|...........
|...........|...........|...........|...........|...........|...........|...........|...........|...........|...........|...........|...........|...........|...........|...........|...........|...........|...........|...........|...........|...........|...........|...........|...........|...........|...........|...........|...........
|...........|...........|...........|...........|...........|...........|...........|...........|...........|...........|C-403......|...........|G-422......|...........|...........|F-518......|C-510......|...........|A-611......|D-610......|...........|...........|...........|...........|...........|...........|...........|...........
|...........|...........|...........|...........|...........|...........|...........|...........|...........|...........|...........|...........|...........|...........|...........|...........|...........|...........|...........|........F10|...........|...........|...........|...........|...........|...........|...........|...........
|...........|...........|...........|...........|...........|...........|...........|...........|...........|...........|...........|...........|...........|...........|...........|...........|...........|...........|...........|...........|...........|...........|...........|...........|...........|...........|...........|...........
Rows: 64
|...........|F-302...M3A|A-306......|D-406......|G-406......|C-506......|E-506......|...........|...........|...........|...........|C-403......|...........|C-520......|C-527......|C-519......|F-410......|...........|...........|...........|...........|...........|...........|...........|...........|...........|...........|...........
|...........|...........|...........|...........|...........|...........|...........|...........|...........|...........|...........|...........|...........|...........|...........|...........|...........|...........|...........|...........|...........|...........|...........|...........|...........|...........|...........|...........
|...........|...........|...........|...........|...........|...........|...........|...........|...........|...........|...........|...........|...........|...........|...........|...........|...........|...........|...........|...........|...........|...........|...........|...........|...........|...........|...........|...........
|...........|...........|...........|...........|...........|...........|...........|...........|...........|...........|...........|...........|...........|...........|...........|...........|...........|...........|...........|...........|...........|...........|...........|...........|...........|...........|...........|...........
|...........|...........|...........|...........|...........|...........|...........|...........|...........|...........|...........|...........|...........|...........|...........|...........|...........|...........|...........|...........|...........|...........|...........|...........|...........|...........|...........|...........
|...........|...........|...........|...........|...........|...........|...........|...........|...........|...........|...........|...........|...........|...........|C-527......|...........|...........|...........|...........|...........|...........|...........|...........|...........|...........|...........|...........|...........
|...........|...........|...........|...........|...........|...........|...........|...........|...........|...........|...........|...........|...........|...........|...........|...........|...........|...........|...........|...........|...........|...........|...........|...........|...........|...........|...........|...........
|...........|...........|...........|...........|...........|...........|...........|...........|...........|...........|...........|...........|...........|...........|...........|...........|...........|........M40|...........|...........|...........|...........|...........|...........|...........|...........|...........|...........
|...........|...........|...........|...........|...........|...........|...........|...........|...........|...........|C-503......|G-404......|C-526......|...........|C-528......|...........|...........|E-710......|...........|...........|...........|...........|...........|...........|...........|...........|...........|...........
|...........|...........|...........|...........|...........|...........|...........|...........|...........|...........|...........|...........|...........|...........|...........|...........|...........|...........|...........|...........|...........|...........|...........|...........|...........|...........|...........|...........
|...........|...........|...........|...........|...........|...........|...........|...........|...........|...........|...........|...........|...........|...........|...........|...........|...........|...........|...........|...........|...........|...........|...........|...........|...........|...........|...........|...........
|...........|...........|...........|...........|...........|...........|...........|...........|...........|...........|...........|...........|...........|...........|...........|...........|...........|...........|...........|...........|...........|...........|...........|...........|...........|...........|...........|...........
|...........|...........|...........|...........|...........|...........|...........|...........|...........|...........|...........|...........|...........|...........|...........|...........|...........|...........|...........|...........|...........|...........|...........|...........|...........|...........|...........|...........
|...........|...........|...........|...........|...........|...........|...........|...........|...........|...........|...........|C-403......|...........|...........|...........|...........|...........|........E10|...........|...........|...........|...........|...........|...........|...........|...........|...........|...........
|...........|...........|...........|...........|...........|...........|...........|...........|...........|...........|...........|...........|...........|...........|...........|...........|...........|...........|...........|...........|...........|...........|...........|...........|...........|...........|...........|...........
|...........|...........|...........|...........|...........|...........|...........|...........|...........|...........|...........|...........|...........|...........|...........|...........|...........|...........|...........|...........|...........|...........|...........|...........|...........|...........|...........|...........
|...........|C-402......|...........|...........|...........|...........|...........|...........|...........|...........|C-403......|...........|...........|...........|C-527......|F-518......|...........|C-710......|...........|...........|...........|...........|...........|...........|...........|...........|...........|...........
|...........|...........|...........|...........|...........|...........|...........|...........|...........|...........|...........|...........|...........|...........|...........|...........|...........|...........|...........|...........|...........|...........|...........|...........|...........|...........|...........|...........
|...........|...........|...........|...........|...........|...........|...........|...........|...........|...........|...........|...........|...........|...........|...........|...........|...........|...........|...........|...........|...........|...........|...........|...........|...........|...........|...........|...........
|...........|...........|...........|...........|...........|...........|...........|...........|...........|...........|...........|...........|...........|...........|...........|...........|...........|...........|...........|...........|...........|...........|...........|...........|...........|...........|...........|...........
|...........|...........|...........|...........|...........|...........|...........|...........|...........|...........|...........|...........|...........|...........|...........|...........|...........|...........|...........|...........|...........|...........|...........|...........|...........|...........|...........|...........
|...........|...........|...........|...........|...........|...........|...........|...........|...........|...........|...........|...........|...........|...........|C-527......|...........|...........|A-610......|...........|...........|...........|...........|...........|...........|...........|...........|...........|...........
|...........|...........|...........|...........|...........|...........|...........|...........|...........|...........|...........|...........|...........|...........|...........|...........|...........|...........|...........|...........|...........|...........|...........|...........|...........|...........|...........|...........
|...........|...........|...........|...........|...........|...........|...........|...........|...........|...........|...........|...........|...........|...........|...........|...........|...........|...........|...........|...........|...........|...........|...........|...........|...........|...........|...........|...........
|...........|...........|...........|...........|...........|...........|...........|...........|...........|...........|G-404......|C-503......|G-525......|...........|C-528......|...........|...........|........E10|...........|...........|...........|...........|...........|...........|...........|...........|...........|...........
|...........|...........|...........|...........|...........|...........|...........|...........|...........|...........|...........|...........|...........|...........|...........|...........|...........|...........|...........|...........|...........|...........|...........|...........|...........|...........|...........|...........
|...........|...........|...........|...........|...........|...........|...........|...........|...........|...........|...........|...........|...........|...........|...........|...........|...........|...........|...........|...........|...........|...........|...........|...........|...........|...........|...........|...........
|...........|...........|...........|...........|...........|...........|...........|...........|...........|...........|...........|...........|...........|...........|...........|...........|...........|...........|...........|...........|...........|...........|...........|...........|...........|...........|...........|...........
|...........|...........|...........|...........|...........|...........|...........|...........|...........|...........|...........|...........|...........|...........|...........|...........|...........|...........|...........|...........|...........|...........|...........|...........|...........|...........|...........|...........
|...........|...........|...........|...........|...........|...........|...........|...........|...........|...........|C-403......|...........|...........|...........|...........|F-518......|...........|F-610......|...........|...........|...........|...........|...........|...........|...........|...........|...........|...........
|...........|...........|...........|...........|...........|...........|...........|...........|...........|...........|...........|...........|...........|...........|...........|...........|...........|...........|........M28|........M28|........M28|...........|...........|...........|...........|...........|...........|...........
|...........|...........|...........|...........|...........|...........|...........|...........|...........|...........|...........|...........|...........|...........|...........|...........|........M28|...........|...........|...........|...........|...........|...........|...........|...........|...........|...........|...........
|...........|E-302......|...........|...........|...........|...........|...........|...........|...........|...........|...........|C-403......|...........|...........|C-527......|...........|...........|E-610......|G-611......|...........|...........|...........|...........|...........|...........|...........|...........|...........
|...........|...........|...........|...........|...........|...........|...........|...........|...........|...........|...........|...........|...........|...........|...........|...........|...........|...........|...........|...........|...........|...........|...........|...........|...........|...........|...........|...........
|...........|...........|...........|...........|...........|...........|...........|...........|...........|...........|...........|...........|...........|...........|...........|...........|...........|...........|...........|...........|...........|...........|...........|...........|...........|...........|...........|...........
|...........|...........|...........|...........|...........|...........|...........|...........|...........|...........|...........|...........|...........|...........|...........|...........|...........|...........|...........|...........|...........|...........|...........|...........|...........|...........|...........|...........
|...........|...........|...........|...........|...........|...........|...........|...........|...........|...........|...........|...........|...........|...........|...........|...........|...........|...........|...........|...........|...........|...........|...........|...........|...........|...........|...........|...........
|...........|...........|...........|...........|...........|...........|...........|...........|...........|...........|...........|...........|...........|...........|C-527......|...........|...........|D#610......|...........|...........|...........|...........|...........|...........|...........|...........|...........|...........
|...........|...........|...........|...........|...........|...........|...........|...........|...........|...........|...........|...........|...........|...........|...........|...........|...........|...........|...........|...........|...........|...........|...........|...........|...........|...........|...........|...........
|...........|...........|...........|...........|...........|...........|...........|...........|...........|...........|...........|...........|...........|...........|...........|...........|...........|...........|...........|...........|...........|...........|...........|...........|...........|...........|...........|...........
|...........|...........|G-406......|D-406......|C-406......|G#306......|...........|...........|...........|...........|C-503......|G-404......|C-526......|...........|C-528......|C-519......|...........|D-610......|...........|...........|...........|...........|...........|...........|...........|...........|...........|...........
|...........|...........|...........|...........|...........|...........|...........|...........|...........|...........|...........|...........|...........|...........|...........|...........|...........|...........|...........|...........|...........|...........|...........|...........|...........|...........|...........|...........
|...........|...........|...........|...........|...........|...........|...........|...........|...........|...........|...........|...........|...........|...........|...........|...........|...........|...........|...........|...........|...........|...........|...........|...........|...........|...........|...........|...........
|...........|...........|...........|...........|...........|...........|...........|...........|...........|...........|...........|...........|...........|...........|...........|...........|...........|...........|...........|...........|...........|...........|...........|...........|...........|...........|...........|...........
|...........|...........|...........|...........|...........|...........|...........|...........|...........|...........|...........|...........|...........|...........|...........|...........|...........|...........|...........|...........|...........|...........|...........|...........|...........|...........|...........|...........
|...........|...........|...........|...........|...........|...........|...........|...........|...........|...........|...........|C-403......|...........|...........|...........|...........|...........|C#610......|...........|...........|...........|...........|...........|...........|...........|...........|...........|...........
|...........|...........|...........|...........|...........|...........|...........|...........|...........|...........|...........|...........|...........|...........|...........|...........|...........|...........|...........|...........|...........|...........|...........|...........|...........|...........|...........|...........
|...........|...........|...........|...........|...........|...........|...........|...........|...........|...........|...........|...........|...........|...........|...........|...........|...........|...........|...........|...........|...........|...........|...........|...........|...........|...........|...........|...........
|...........|B-302......|...........|...........|...........|...........|...........|...........|...........|...........|C-403......|...........|...........|...........|C-527......|F-518......|...........|C-610......|E-611......|...........|...........|...........|...........|...........|...........|...........|...........|...........
|...........|...........|...........|...........|...........|...........|...........|...........|...........|...........|...........|...........|...........|...........|...........|...........|...........|...........|...........|...........|...........|...........|...........|...........|...........|...........|...........|...........
|...........|...........|...........|...........|...........|...........|...........|...........|...........|...........|...........|...........|...........|...........|...........|...........|...........|...........|...........|...........|...........|...........|...........|...........|...........|...........|...........|...........
|...........|...........|...........|...........|...........|...........|...........|...........|...........|...........|...........|...........|...........|...........|...........|...........|...........|...........|...........|...........|...........|...........|...........|...........|...........|...........|...........|...........
|...........|...........|...........|...........|...........|...........|...........|...........|...........|...........|...........|...........|...........|...........|...........|...........|...........|...........|...........|...........|...........|...........|...........|...........|...........|...........|...........|...........
|...........|...........|E-506......|C-506......|G-406......|D-406......|G#306......|...........|...........|...........|...........|...........|...........|...........|C-527......|...........|...........|G#510......|...........|...........|...........|...........|...........|...........|...........|...........|...........|...........
|...........|...........|...........|...........|...........|...........|...........|...........|...........|...........|...........|...........|...........|...........|...........|...........|...........|...........|...........|...........|...........|...........|...........|...........|...........|...........|...........|...........
|...........|...........|...........|...........|...........|...........|...........|...........|...........|...........|...........|...........|...........|...........|...........|...........|...........|...........|...........|...........|...........|...........|...........|...........|...........|...........|...........|...........
|...........|...........|...........|...........|...........|...........|...........|...........|...........|...........|G-404......|G-422......|G-525......|...........|C-528......|C-519......|...........|E-510......|...........|...........|...........|...........|...........|...........|...........|...........|...........|...........
|...........|...........|...........|...........|...........|...........|...........|...........|...........|...........|...........|...........|...........|...........|...........|...........|...........|...........|...........|...........|...........|...........|...........|...........|...........|...........|...........|...........
|...........|...........|...........|...........|...........|...........|...........|...........|...........|...........|...........|...........|...........|...........|...........|...........|...........|...........|...........|...........|...........|...........|...........|...........|...........|...........|...........|...........
|...........|...........|...........|...........|...........|...........|...........|...........|...........|...........|...........|...........|...........|...........|...........|...........|...........|...........|...........|...........|...........|...........|...........|...........|...........|...........|...........|...........
|...........|...........|...........|...........|...........|...........|...........|...........|...........|...........|...........|...........|...........|...........|...........|...........|...........|...........|...........|...........|...........|...........|...........|...........|...........|...........|...........|...........
|...........|...........|...........|...........|...........|...........|...........|...........|...........|...........|C-403......|...........|...........|...........|...........|...........|...........|F#510......|B-611......|...........|...........|...........|...........|...........|...........|...........|...........|...........
|...........|...........|...........|...........|...........|...........|...........|...........|...........|...........|...........|...........|...........|...........|...........|...........|...........|...........|...........|...........|...........|...........|...........|...........|...........|...........|...........|...........
|...........|...........|...........|...........|...........|...........|...........|...........|...........|...........|...........|...........|...........|...........|...........|...........|...........|...........|...........|...........|...........|...........|...........|...........|...........|...........|...........|...........
Rows: 64
|...........|A-302......|E-506......|B-406......|G#406......|C#406......|F#306......|...........|...........|...........|...........|C-403......|...........|...........|C-527......|C-519......|C#511......|F#510......|...........|...........|...........|...........|...........|...........|...........|...........|...........|...........
|...........|...........|...........|...........|...........|...........|...........|...........|...........|...........|...........|...........|...........|...........|...........|...........|...........|...........|...........|...........|...........|...........|...........|...........|...........|...........|...........|...........
|...........|...........|...........|...........|...........|...........|...........|...........|...........|...........|...........|...........|...........|...........|...........|...........|...........|...........|...........|...........|...........|...........|...........|...........|...........|...........|...........|...........
|...........|...........|...........|...........|...........|...........|...........|...........|...........|...........|...........|...........|...........|...........|...........|...........|...........|...........|...........|...........|...........|...........|...........|...........|...........|...........|...........|...........
|...........|...........|...........|...........|...........|...........|...........|...........|...........|...........|...........|...........|...........|...........|...........|...........|...........|...........|...........|...........|...........|...........|...........|...........|...........|...........|...........|...........
|...........|...........|...........|...........|...........|...........|...........|...........|...........|...........|...........|...........|...........|...........|C-527......|...........|...........|........F10|...........|...........|...........|...........|...........|...........|...........|...........|...........|...........
|...........|...........|...........|...........|...........|...........|...........|...........|...........|...........|...........|...........|...........|...........|...........|...........|...........|...........|...........|...........|...........|...........|...........|...........|...........|...........|...........|...........
|...........|...........|...........|...........|...........|...........|...........|...........|...........|...........|...........|...........|...........|...........|...........|...........|...........|...........|...........|...........|...........|...........|...........|...........|...........|...........|...........|...........
|...........|...........|...........|...........|...........|...........|...........|...........|...........|...........|C-503......|G-404......|C-526......|...........|C-528......|...........|...........|B-510......|...........|...........|...........|...........|...........|...........|...........|...........|...........|...........
|...........|...........|...........|...........|...........|...........|...........|...........|...........|...........|...........|...........|...........|...........|...........|...........|...........|...........|...........|...........|...........|...........|...........|...........|...........|...........|...........|...........
|...........|...........|...........|...........|...........|...........|...........|...........|...........|...........|...........|...........|...........|...........|...........|...........|...........|...........|...........|...........|...........|...........|...........|...........|...........|...........|...........|...........
|...........|...........|...........|...........|...........|...........|...........|...........|...........|...........|...........|...........|...........|...........|...........|...........|...........|...........|...........|...........|...........|...........|...........|...........|...........|...........|...........|...........
|...........|...........|...........|...........|...........|...........|...........|...........|...........|...........|...........|...........|...........|...........|...........|...........|...........|...........|...........|...........|...........|...........|...........|...........|...........|...........|...........|...........
|...........|...........|...........|...........|...........|...........|...........|...........|...........|...........|...........|C-403......|...........|...........|...........|...........|...........|E-610......|...........|...........|...........|...........|...........|...........|...........|...........|...........|...........
|...........|...........|...........|...........|...........|...........|...........|...........|...........|...........|...........|...........|...........|...........|...........|...........|...........|...........|...........|...........|...........|...........|...........|...........|...........|...........|...........|...........
|...........|...........|...........|...........|...........|...........|...........|...........|...........|...........|...........|...........|...........|...........|...........|...........|...........|...........|...........|...........|...........|...........|...........|...........|...........|...........|...........|...........
|...........|E-302......|...........|...........|...........|...........|...........|...........|...........|...........|C-403......|...........|...........|...........|C-527......|F-518......|...........|B-510......|...........|...........|...........|...........|...........|...........|...........|...........|...........|...........
|...........|...........|...........|...........|...........|...........|...........|...........|...........|...........|...........|...........|...........|...........|...........|...........|...........|...........|...........|...........|...........|...........|...........|...........|...........|...........|...........|...........
|...........|...........|...........|...........|...........|...........|...........|...........|...........|...........|...........|...........|...........|...........|...........|...........|...........|...........|...........|...........|...........|...........|...........|...........|...........|...........|...........|...........
|...........|...........|...........|...........|...........|...........|...........|...........|...........|...........|...........|...........|...........|...........|...........|...........|...........|...........|...........|...........|...........|...........|...........|...........|...........|...........|...........|...........
|...........|...........|...........|...........|...........|...........|...........|...........|...........|...........|...........|...........|...........|...........|...........|...........|...........|...........|...........|...........|...........|...........|...........|...........|...........|...........|...........|...........
|...........|...........|...........|...........|...........|...........|...........|...........|...........|...........|...........|...........|...........|...........|C-527......|...........|...........|........F10|...........|...........|...........|...........|...........|...........|...........|...........|...........|...........
|...........|...........|...........|...........|...........|...........|...........|...........|...........|...........|...........|...........|...........|...........|...........|...........|...........|...........|...........|...........|...........|...........|...........|...........|...........|...........|...........|...........
|...........|...........|...........|...........|...........|...........|...........|...........|...........|...........|...........|...........|...........|...........|...........|...........|...........|...........|...........|...........|...........|...........|...........|...........|...........|...........|...........|...........
|...........|...........|...........|...........|...........|...........|...........|...........|...........|...........|G-404......|C-503......|G-525......|...........|C-528......|...........|D-511......|F#610......|...........|...........|...........|...........|...........|...........|...........|...........|...........|...........
|...........|...........|...........|...........|...........|...........|...........|...........|...........|...........|...........|...........|...........|...........|...........|...........|...........|...........|...........|...........|...........|...........|...........|...........|...........|...........|...........|...........
|...........|...........|...........|...........|...........|...........|...........|...........|...........|...........|...........|...........|...........|...........|...........|...........|...........|...........|...........|...........|...........|...........|...........|...........|...........|...........|...........|...........
|...........|...........|...........|...........|...........|...........|...........|...........|...........|...........|...........|...........|...........|...........|...........|...........|...........|...........|...........|...........|...........|...........|...........|...........|...........|...........|...........|...........
|...........|...........|...........|...........|...........|...........|...........|...........|...........|...........|...........|...........|...........|...........|...........|...........|^^^........|...........|...........|...........|...........|...........|...........|...........|...........|...........|...........|...........
|...........|...........|...........|...........|...........|...........|...........|...........|...........|...........|C-403......|...........|...........|...........|...........|F-518......|...........|B-610......|...........|...........|...........|...........|...........|...........|...........|...........|...........|...........
|...........|...........|...........|...........|...........|...........|...........|...........|...........|...........|...........|...........|...........|...........|...........|...........|...........|...........|...........|...........|...........|...........|...........|...........|...........|...........|...........|...........
|...........|...........|...........|...........|...........|...........|...........|...........|...........|...........|...........|...........|...........|...........|...........|...........|...........|...........|...........|...........|...........|...........|...........|...........|...........|...........|...........|...........
|...........|D-302......|...........|...........|...........|...........|...........|...........|...........|...........|...........|C-403......|...........|...........|C-527......|...........|E-511......|E-610......|G-611......|...........|...........|...........|...........|...........|...........|...........|...........|...........
|...........|...........|...........|...........|...........|...........|...........|...........|...........|...........|...........|...........|...........|...........|...........|...........|...........|...........|...........|...........|...........|...........|...........|...........|...........|...........|...........|...........
|...........|...........|...........|...........|...........|...........|...........|...........|...........|...........|...........|...........|...........|...........|...........|...........|...........|...........|...........|...........|...........|...........|...........|...........|...........|...........|...........|...........
|...........|...........|...........|...........|...........|...........|...........|...........|...........|...........|...........|...........|...........|...........|...........|...........|...........|...........|...........|...........|...........|...........|...........|...........|...........|...........|...........|...........
|...........|...........|...........|...........|...........|...........|...........|...........|...........|...........|...........|...........|...........|...........|...........|...........|...........|...........|...........|...........|...........|...........|...........|...........|...........|...........|...........|...........
|...........|...........|...........|...........|...........|...........|...........|...........|...........|...........|...........|...........|...........|...........|C-527......|...........|...........|........F08|...........|...........|...........|...........|...........|...........|...........|...........|...........|...........
|...........|...........|...........|...........|...........|...........|...........|...........|...........|...........|...........|...........|...........|...........|...........|...........|...........|...........|...........|...........|...........|...........|...........|...........|...........|...........|...........|...........
|...........|...........|...........|...........|...........|...........|...........|...........|...........|...........|...........|...........|...........|...........|...........|...........|...........|...........|...........|...........|...........|...........|...........|...........|...........|...........|...........|...........
|...........|...........|G-406......|E-406......|C-406......|A-306......|F-306......|...........|...........|...........|C-503......|G-404......|C-526......|...........|C-528......|C-519......|...........|A-610......|...........|...........|...........|...........|...........|...........|...........|...........|...........|...........
|...........|...........|...........|...........|...........|...........|...........|...........|...........|...........|...........|...........|...........|...........|...........|...........|...........|...........|...........|...........|...........|...........|...........|...........|...........|...........|...........|...........
|...........|...........|...........|...........|...........|...........|...........|...........|...........|...........|...........|...........|...........|...........|...........|...........|...........|...........|...........|...........|...........|...........|...........|...........|...........|...........|...........|...........
|...........|...........|...........|...........|...........|...........|...........|...........|...........|...........|...........|...........|...........|...........|...........|...........|...........|...........|...........|...........|...........|...........|...........|...........|...........|...........|...........|...........
|...........|...........|...........|...........|...........|...........|...........|...........|...........|...........|...........|...........|...........|...........|...........|...........|...........|...........|...........|...........|...........|...........|...........|...........|...........|...........|...........|...........
|...........|...........|...........|...........|...........|...........|...........|...........|...........|...........|...........|C-403......|...........|...........|...........|...........|...........|C-710......|...........|...........|...........|...........|...........|...........|...........|...........|...........|...........
|...........|...........|...........|...........|...........|...........|...........|...........|...........|...........|...........|...........|...........|...........|...........|...........|...........|...........|...........|...........|...........|...........|...........|...........|...........|...........|...........|...........
|...........|...........|...........|...........|...........|...........|...........|...........|...........|...........|...........|...........|...........|...........|...........|...........|...........|...........|...........|...........|...........|...........|...........|...........|...........|...........|...........|...........
|...........|G-302......|...........|...........|...........|...........|...........|...........|...........|...........|C-403......|...........|...........|...........|C-527......|F-518......|F-511......|B-610......|E-611......|...........|...........|...........|...........|...........|...........|...........|...........|...........
|...........|...........|...........|...........|...........|...........|...........|...........|...........|...........|...........|...........|...........|...........|...........|...........|...........|...........|...........|...........|...........|...........|...........|...........|...........|...........|...........|...........
|...........|...........|...........|...........|...........|...........|...........|...........|...........|...........|...........|...........|...........|...........|...........|...........|...........|...........|...........|...........|...........|...........|...........|...........|...........|...........|...........|...........
|...........|...........|...........|...........|...........|...........|...........|...........|...........|...........|...........|...........|...........|...........|...........|...........|...........|...........|...........|...........|...........|...........|...........|...........|...........|...........|...........|...........
|...........|...........|...........|...........|...........|...........|...........|...........|...........|...........|...........|...........|...........|...........|...........|...........|...........|...........|...........|...........|...........|...........|...........|...........|...........|...........|...........|...........
|...........|...........|...........|...........|E-406......|B-306......|F-306......|...........|...........|...........|...........|...........|...........|...........|C-527......|...........|...........|........E08|...........|...........|...........|...........|...........|...........|...........|...........|...........|...........
|...........|...........|...........|...........|...........|...........|...........|...........|...........|...........|...........|...........|...........|...........|...........|...........|...........|...........|...........|...........|...........|...........|...........|...........|...........|...........|...........|...........
|...........|...........|...........|...........|...........|...........|...........|...........|...........|...........|...........|...........|...........|...........|...........|...........|...........|...........|...........|...........|...........|...........|...........|...........|...........|...........|...........|...........
|...........|...........|...........|...........|...........|...........|...........|...........|...........|...........|G-404......|G-422......|G-525......|...........|C-528......|C-519......|...........|A-610......|...........|...........|...........|...........|...........|...........|...........|...........|...........|...........
|...........|...........|...........|...........|...........|...........|...........|...........|...........|...........|...........|...........|...........|...........|...........|...........|...........|...........|...........|...........|...........|...........|...........|...........|...........|...........|...........|...........
|...........|...........|...........|...........|...........|...........|...........|...........|...........|...........|...........|...........|...........|...........|...........|...........|...........|...........|...........|...........|...........|...........|...........|...........|...........|...........|...........|...........
|...........|...........|...........|...........|...........|...........|...........|...........|...........|...........|...........|...........|...........|...........|...........|...........|...........|...........|...........|...........|...........|...........|...........|...........|...........|...........|...........|...........
|...........|...........|...........|...........|...........|...........|...........|...........|...........|...........|...........|...........|...........|...........|...........|...........|...........|...........|...........|...........|...........|...........|...........|...........|...........|...........|...........|...........
|...........|...........|...........|...........|...........|...........|...........|...........|...........|...........|C-403......|...........|...........|...........|...........|...........|G-511......|........E08|B-611......|...........|...........|...........|...........|...........|...........|...........|...........|...........
|...........|...........|...........|...........|...........|...........|...........|...........|...........|...........|...........|...........|...........|...........|...........|...........|...........|...........|...........|...........|...........|...........|...........|...........|...........|...........|...........|...........
|...........|...........|...........|...........|...........|...........|...........|...........|...........|...........|...........|...........|...........|...........|...........|...........|...........|...........|...........|...........|...........|...........|...........|...........|...........|...........|...........|...........
Rows: 64
|........A03|C-302......|B-406......|G-406......|D-406......|A-306......|E-306......|...........|...........|...........|...........|C-403......|...........|...........|C-527......|C-519......|...........|G-610......|...........|E-511......|...........|...........|...........|...........|...........|...........|...........|...........
|...........|...........|...........|...........|...........|...........|...........|...........|...........|...........|...........|...........|...........|...........|...........|...........|...........|...........|...........|...........|...........|...........|...........|...........|...........|...........|...........|...........
|...........|...........|...........|...........|...........|...........|...........|...........|...........|...........|...........|...........|...........|...........|...........|...........|...........|...........|...........|...........|...........|...........|...........|...........|...........|...........|...........|...........
|...........|...........|...........|...........|...........|...........|...........|...........|...........|...........|...........|...........|...........|...........|...........|...........|...........|...........|...........|...........|...........|...........|...........|...........|...........|...........|...........|...........
|...........|...........|...........|...........|...........|...........|...........|...........|...........|...........|...........|...........|...........|...........|...........|...........|...........|...........|...........|...........|...........|...........|...........|...........|...........|...........|...........|...........
|...........|...........|...........|...........|...........|...........|...........|...........|...........|...........|...........|...........|...........|...........|C-527......|...........|...........|E-610......|...........|...........|...........|...........|...........|...........|...........|...........|...........|...........
|...........|...........|...........|...........|...........|...........|...........|...........|...........|...........|...........|...........|...........|...........|...........|...........|...........|...........|...........|...........|...........|...........|...........|...........|...........|...........|...........|...........
|...........|...........|...........|...........|...........|...........|...........|...........|...........|...........|...........|...........|...........|...........|...........|...........|...........|...........|...........|...........|...........|...........|...........|...........|...........|...........|...........|...........
|...........|...........|...........|...........|...........|...........|...........|...........|...........|...........|C-503......|G-404......|C-526......|...........|C-528......|...........|...........|........E10|...........|...........|...........|...........|...........|...........|...........|...........|...........|...........
|...........|...........|...........|...........|...........|...........|...........|...........|...........|...........|...........|...........|...........|...........|...........|...........|...........|...........|...........|...........|...........|...........|...........|...........|...........|...........|...........|...........
|...........|...........|...........|...........|...........|...........|...........|...........|...........|...........|...........|...........|...........|...........|...........|...........|...........|...........|...........|...........|...........|...........|...........|...........|...........|...........|...........|...........
|...........|...........|...........|...........|...........|...........|...........|...........|...........|...........|...........|...........|...........|...........|...........|...........|...........|...........|...........|...........|...........|...........|...........|...........|...........|...........|...........|...........
|...........|...........|...........|...........|...........|...........|...........|...........|...........|...........|...........|...........|...........|...........|...........|...........|...........|...........|...........|...........|...........|...........|...........|...........|...........|...........|...........|...........
|...........|...........|...........|...........|...........|...........|...........|...........|...........|...........|...........|C-403......|...........|...........|...........|...........|...........|C-610......|...........|...........|...........|...........|...........|...........|...........|...........|...........|...........
|...........|...........|...........|...........|...........|...........|...........|...........|...........|...........|...........|...........|...........|...........|...........|...........|...........|...........|...........|...........|...........|...........|...........|...........|...........|...........|...........|...........
|...........|...........|...........|...........|...........|...........|...........|...........|...........|...........|...........|...........|...........|...........|...........|...........|...........|...........|...........|...........|...........|...........|...........|...........|...........|...........|...........|...........
|...........|G-302......|...........|...........|...........|...........|...........|...........|...........|...........|C-403......|...........|...........|...........|C-527......|F-518......|...........|B-510......|...........|...........|...........|...........|...........|...........|...........|...........|...........|...........
|...........|...........|...........|...........|...........|...........|...........|...........|...........|...........|...........|...........|...........|...........|...........|...........|...........|...........|...........|...........|...........|...........|...........|...........|...........|...........|...........|...........
|...........|...........|...........|...........|...........|...........|...........|...........|...........|...........|...........|...........|...........|...........|...........|...........|...........|...........|...........|...........|...........|...........|...........|...........|...........|...........|...........|...........
|...........|...........|...........|...........|...........|...........|...........|...........|...........|...........|...........|...........|...........|...........|...........|...........|...........|...........|...........|...........|...........|...........|...........|...........|...........|...........|...........|...........
|...........|...........|...........|...........|...........|...........|...........|...........|...........|...........|...........|...........|...........|...........|...........|...........|...........|...........|...........|...........|...........|...........|...........|...........|...........|...........|...........|...........
|...........|...........|...........|...........|...........|...........|...........|...........|...........|...........|...........|...........|...........|...........|C-527......|...........|...........|........F08|...........|...........|...........|...........|...........|...........|...........|...........|...........|...........
|...........|...........|...........|...........|...........|...........|...........|...........|...........|...........|...........|...........|...........|...........|...........|...........|...........|...........|...........|...........|...........|...........|...........|...........|...........|...........|...........|...........
|...........|...........|...........|...........|...........|...........|...........|...........|...........|...........|...........|...........|...........|...........|...........|...........|...........|...........|...........|...........|...........|...........|...........|...........|...........|...........|...........|...........
|...........|...........|...........|...........|...........|...........|...........|...........|...........|...........|G-404......|C-503......|G-525......|...........|C-528......|...........|...........|E-610......|...........|F-511......|...........|...........|...........|...........|...........|...........|...........|...........
|...........|...........|...........|...........|...........|...........|...........|...........|...........|...........|...........|...........|...........|...........|...........|...........|...........|...........|...........|...........|...........|...........|...........|...........|...........|...........|...........|...........
|...........|...........|...........|...........|...........|...........|...........|...........|...........|...........|...........|...........|...........|...........|...........|...........|...........|...........|...........|...........|...........|...........|...........|...........|...........|...........|...........|...........
|...........|...........|...........|...........|...........|...........|...........|...........|...........|...........|...........|...........|...........|...........|...........|...........|...........|...........|...........|...........|...........|...........|...........|...........|...........|...........|...........|...........
|...........|...........|...........|...........|...........|...........|...........|...........|...........|...........|...........|...........|...........|...........|...........|...........|...........|...........|...........|^^^........|...........|...........|...........|...........|...........|...........|...........|...........
|...........|...........|...........|...........|...........|...........|...........|...........|...........|...........|C-403......|...........|...........|...........|...........|F-518......|...........|G-610......|...........|...........|...........|...........|...........|...........|...........|...........|...........|...........
|...........|...........|...........|...........|...........|...........|...........|...........|...........|...........|...........|...........|...........|...........|...........|...........|...........|...........|...........|...........|...........|...........|...........|...........|...........|...........|...........|...........
|...........|...........|...........|...........|...........|...........|...........|...........|...........|...........|...........|...........|...........|...........|...........|...........|...........|...........|...........|...........|...........|...........|...........|...........|...........|...........|...........|...........
|...........|F#302......|...........|...........|...........|...........|...........|...........|...........|...........|...........|C-403......|...........|...........|C-527......|...........|...........|B-610......|D-611......|G-511......|...........|...........|...........|...........|...........|...........|...........|...........
|...........|...........|...........|...........|...........|...........|...........|...........|...........|...........|...........|...........|...........|...........|...........|...........|...........|...........|...........|...........|...........|...........|...........|...........|...........|...........|...........|...........
|...........|...........|...........|...........|...........|...........|...........|...........|...........|...........|...........|...........|...........|...........|...........|...........|...........|...........|...........|...........|...........|...........|...........|...........|...........|...........|...........|...........
|...........|...........|...........|...........|...........|...........|...........|...........|...........|...........|...........|...........|...........|...........|...........|...........|...........|...........|...........|...........|...........|...........|...........|...........|...........|...........|...........|...........
|...........|...........|...........|...........|...........|...........|...........|...........|...........|...........|...........|...........|...........|...........|...........|...........|...........|^^^........|...........|...........|...........|...........|...........|...........|...........|...........|...........|...........
|...........|...........|...........|...........|...........|...........|...........|...........|...........|...........|...........|...........|...........|...........|C-527......|...........|...........|...........|...........|...........|...........|...........|...........|...........|...........|...........|...........|...........
|...........|...........|...........|...........|...........|...........|...........|...........|...........|...........|...........|...........|...........|...........|...........|...........|...........|...........|...........|...........|...........|...........|...........|...........|...........|...........|...........|...........
|...........|...........|...........|...........|...........|...........|...........|...........|...........|...........|...........|...........|...........|...........|...........|...........|...........|...........|...........|...........|...........|...........|...........|...........|...........|...........|...........|...........
|...........|...........|D-506......|A-406......|E-406......|A-306......|E-306......|...........|...........|...........|C-503......|G-404......|C-526......|...........|C-528......|C-519......|...........|...........|...........|...........|...........|...........|...........|...........|...........|...........|...........|...........
|...........|...........|...........|...........|...........|...........|...........|...........|...........|...........|...........|...........|...........|...........|...........|...........|...........|...........|...........|...........|...........|...........|...........|...........|...........|...........|...........|...........
|...........|...........|...........|...........|...........|...........|...........|...........|...........|...........|...........|...........|...........|...........|...........|...........|...........|...........|...........|...........|...........|...........|...........|...........|...........|...........|...........|...........
|...........|...........|...........|...........|...........|...........|...........|...........|...........|...........|...........|...........|...........|...........|...........|...........|...........|...........|...........|...........|...........|...........|...........|...........|...........|...........|...........|...........
|...........|...........|...........|...........|...........|...........|...........|...........|...........|...........|...........|...........|...........|...........|...........|...........|...........|...........|...........|...........|...........|...........|...........|...........|...........|...........|...........|...........
|...........|...........|...........|...........|...........|...........|...........|...........|...........|...........|...........|C-403......|...........|...........|...........|...........|...........|...........|...........|...........|...........|...........|...........|...........|...........|...........|...........|...........
|...........|...........|...........|...........|...........|...........|...........|...........|...........|...........|...........|...........|...........|...........|...........|...........|...........|...........|...........|...........|...........|...........|...........|...........|...........|...........|...........|...........
|...........|...........|...........|...........|...........|...........|...........|...........|...........|...........|...........|...........|...........|...........|...........|...........|...........|...........|...........|...........|...........|...........|...........|...........|...........|...........|...........|...........
|...........|B-202......|...........|...........|...........|...........|...........|...........|...........|...........|C-403......|...........|...........|...........|C-527......|F-518......|...........|D#510......|B-511......|A-511......|...........|...........|...........|...........|...........|...........|...........|...........
|...........|...........|...........|...........|...........|...........|...........|...........|...........|...........|...........|...........|...........|...........|...........|...........|...........|...........|...........|...........|...........|...........|...........|...........|...........|...........|...........|...........
|...........|...........|...........|...........|...........|...........|...........|...........|...........|...........|...........|...........|...........|...........|...........|...........|...........|...........|...........|...........|...........|...........|...........|...........|...........|...........|...........|...........
|...........|...........|...........|...........|...........|...........|...........|...........|...........|...........|...........|...........|...........|...........|...........|...........|...........|...........|...........|...........|...........|...........|...........|...........|...........|...........|...........|...........
|...........|...........|...........|...........|...........|...........|...........|...........|...........|...........|...........|...........|...........|...........|...........|...........|...........|...........|...........|...........|...........|...........|...........|...........|...........|...........|...........|...........
|...........|...........|B-406......|G-406......|D#406......|A-306......|D#306......|...........|...........|...........|...........|...........|...........|...........|C-527......|...........|...........|G#510......|...........|...........|...........|...........|...........|...........|...........|...........|...........|...........
|...........|...........|...........|...........|...........|...........|...........|...........|...........|...........|...........|...........|...........|...........|...........|...........|...........|...........|...........|...........|...........|...........|...........|...........|...........|...........|...........|...........
|...........|...........|...........|...........|...........|...........|...........|...........|...........|...........|...........|...........|...........|...........|...........|...........|...........|...........|...........|...........|...........|...........|...........|...........|...........|...........|...........|...........
|...........|...........|...........|...........|...........|...........|...........|...........|...........|...........|G-404......|G-422......|G-525......|...........|C-528......|C-519......|...........|C#610......|...........|...........|...........|...........|...........|...........|...........|...........|...........|...........
|...........|...........|...........|...........|...........|...........|...........|...........|...........|...........|...........|...........|...........|...........|...........|...........|...........|...........|...........|...........|...........|...........|...........|...........|...........|...........|...........|...........
|...........|...........|...........|...........|...........|...........|...........|...........|...........|...........|...........|...........|...........|...........|...........|...........|...........|...........|...........|...........|...........|...........|...........|...........|...........|...........|...........|...........
|...........|...........|...........|...........|...........|...........|...........|...........|...........|...........|...........|...........|...........|...........|...........|...........|...........|...........|...........|...........|...........|...........|...........|...........|...........|...........|...........|...........
|...........|...........|...........|...........|...........|...........|...........|...........|...........|...........|...........|...........|...........|...........|...........|...........|...........|...........|...........|...........|...........|...........|...........|...........|...........|...........|...........|...........
|...........|...........|...........|...........|...........|...........|...........|...........|...........|...........|C-403......|G-422......|...........|...........|...........|...........|...........|F#610......|F#611......|B-511......|...........|...........|...........|...........|...........|...........|...........|...........
|...........|...........|...........|...........|...........|...........|...........|...........|...........|...........|...........|...........|...........|...........|...........|...........|...........|...........|...........|...........|...........|...........|...........|...........|...........|...........|...........|...........
|...........|...........|...........|...........|...........|...........|...........|...........|...........|...........|...........|...........|...........|...........|...........|...........|...........|...........|...........|...........|...........|...........|...........|...........|...........|...........|...........|...........
Rows: 64
|...........|E-302......|F#506......|C#506......|G#406......|D#406......|B-306......|G#306......|...........|...........|...........|C-403......|...........|...........|C-527......|C-519......|G#511......|B-510......|...........|...........|...........|...........|...........|...........|...........|...........|...........|...........
|...........|...........|...........|...........|...........|...........|...........|...........|...........|...........|...........|...........|...........|...........|...........|...........|...........|...........|...........|...........|...........|...........|...........|...........|...........|...........|...........|...........
|...........|...........|...........|...........|...........|...........|...........|...........|...........|...........|...........|...........|...........|...........|...........|...........|...........|...........|...........|...........|...........|...........|...........|...........|...........|...........|...........|...........
|...........|...........|...........|...........|...........|...........|...........|...........|...........|...........|...........|...........|...........|...........|...........|...........|...........|...........|...........|...........|...........|...........|...........|...........|...........|...........|...........|...........
|...........|...........|...........|...........|...........|...........|...........|...........|...........|...........|...........|...........|...........|...........|...........|...........|...........|...........|...........|...........|...........|...........|...........|...........|...........|...........|...........|...........
|...........|...........|...........|...........|...........|...........|...........|...........|...........|...........|...........|...........|...........|...........|C-527......|...........|...........|D#610......|...........|...........|...........|...........|...........|...........|...........|...........|...........|...........
|...........|...........|...........|...........|...........|...........|...........|...........|...........|...........|...........|...........|...........|...........|...........|...........|...........|...........|...........|...........|...........|...........|...........|...........|...........|...........|...........|...........
|...........|...........|...........|...........|...........|...........|...........|...........|...........|...........|...........|...........|...........|...........|...........|...........|...........|...........|...........|...........|...........|...........|...........|...........|...........|...........|...........|...........
|...........|...........|...........|...........|...........|...........|...........|...........|...........|...........|C-503......|G-404......|C-526......|...........|C-528......|...........|...........|G#610......|...........|...........|...........|...........|...........|...........|...........|...........|...........|...........
|...........|...........|...........|...........|...........|...........|...........|...........|...........|...........|...........|...........|...........|...........|...........|...........|...........|...........|...........|...........|...........|...........|...........|...........|...........|...........|...........|...........
|...........|...........|...........|...........|...........|...........|...........|...........|...........|...........|...........|...........|...........|...........|...........|...........|...........|...........|...........|...........|...........|...........|...........|...........|...........|...........|...........|...........
|...........|...........|...........|...........|...........|...........|...........|...........|...........|...........|...........|...........|...........|...........|...........|...........|...........|...........|...........|...........|...........|...........|...........|...........|...........|...........|...........|...........
|...........|...........|...........|...........|...........|...........|...........|...........|...........|...........|...........|...........|...........|...........|...........|...........|...........|...........|...........|...........|...........|...........|...........|...........|...........|...........|...........|...........
|...........|...........|...........|...........|...........|...........|...........|...........|...........|...........|...........|C-403......|...........|...........|...........|...........|...........|C#710......|...........|...........|...........|...........|...........|...........|...........|...........|...........|...........
|...........|...........|...........|...........|...........|...........|...........|...........|...........|...........|...........|...........|...........|...........|...........|...........|...........|...........|...........|...........|...........|...........|...........|...........|...........|...........|...........|...........
|...........|...........|...........|...........|...........|...........|...........|...........|...........|...........|...........|...........|...........|...........|...........|...........|...........|...........|...........|...........|...........|...........|...........|...........|...........|...........|...........|...........
|...........|F#302......|...........|...........|...........|...........|...........|...........|...........|...........|C-403......|...........|...........|...........|C-527......|F-518......|...........|F#610......|...........|...........|...........|...........|...........|...........|...........|...........|...........|...........
|...........|...........|...........|...........|...........|...........|...........|...........|...........|...........|...........|...........|...........|...........|...........|...........|...........|...........|...........|...........|...........|...........|...........|...........|...........|...........|...........|...........
|...........|...........|...........|...........|...........|...........|...........|...........|...........|...........|...........|...........|...........|...........|...........|...........|...........|...........|...........|...........|...........|...........|...........|...........|...........|...........|...........|...........
|...........|...........|...........|...........|...........|...........|...........|...........|...........|...........|...........|...........|...........|...........|...........|...........|...........|...........|...........|...........|...........|...........|...........|...........|...........|...........|...........|...........
|...........|...........|...........|...........|...........|...........|...........|...........|...........|...........|...........|...........|...........|...........|...........|...........|...........|...........|...........|...........|...........|...........|...........|...........|...........|...........|...........|...........
|...........|...........|...........|...........|...........|...........|...........|...........|...........|...........|...........|...........|...........|...........|C-527......|...........|...........|B-610......|...........|...........|...........|...........|...........|...........|...........|...........|...........|...........
|...........|...........|...........|...........|...........|...........|...........|...........|...........|...........|...........|...........|...........|...........|...........|...........|...........|...........|...........|...........|...........|...........|...........|...........|...........|...........|...........|...........
|...........|...........|...........|...........|...........|...........|...........|...........|...........|...........|...........|...........|...........|...........|...........|...........|...........|...........|...........|...........|...........|...........|...........|...........|...........|...........|...........|...........
|...........|...........|...........|...........|...........|...........|...........|...........|...........|...........|G-404......|C-503......|G-525......|...........|C-528......|...........|A-511......|G#610......|...........|...........|...........|...........|...........|...........|...........|...........|...........|...........
|...........|...........|...........|...........|...........|...........|...........|...........|...........|...........|...........|...........|...........|...........|...........|...........|...........|...........|...........|...........|...........|...........|...........|...........|...........|...........|...........|...........
|...........|...........|...........|...........|...........|...........|...........|...........|...........|...........|...........|...........|...........|...........|...........|...........|...........|...........|...........|...........|...........|...........|...........|...........|...........|...........|...........|...........
|...........|...........|...........|...........|...........|...........|...........|...........|...........|...........|...........|...........|...........|...........|...........|...........|^^^........|...........|...........|...........|...........|...........|...........|...........|...........|...........|...........|...........
|...........|...........|...........|...........|...........|...........|...........|...........|...........|...........|...........|...........|...........|...........|...........|...........|...........|...........|...........|...........|...........|...........|...........|...........|...........|...........|...........|...........
|...........|...........|...........|...........|...........|...........|...........|...........|...........|...........|C-403......|...........|...........|...........|...........|F-518......|...........|........E10|...........|...........|...........|...........|...........|...........|...........|...........|...........|...........
|...........|...........|...........|...........|...........|...........|...........|...........|...........|...........|...........|...........|...........|...........|...........|...........|...........|...........|...........|...........|...........|...........|...........|...........|...........|...........|...........|...........
|...........|...........|...........|...........|...........|...........|...........|...........|...........|...........|...........|...........|...........|...........|...........|...........|...........|...........|...........|...........|...........|...........|...........|...........|...........|...........|...........|...........
|...........|G#302......|...........|...........|...........|...........|...........|...........|...........|...........|...........|C-403......|...........|...........|C-527......|...........|B-511......|D#610......|...........|G#511......|...........|...........|...........|...........|...........|...........|...........|...........
|...........|...........|...........|...........|...........|...........|...........|...........|...........|...........|...........|...........|...........|...........|...........|...........|...........|...........|...........|...........|...........|...........|...........|...........|...........|...........|...........|...........
|...........|...........|...........|...........|...........|...........|...........|...........|...........|...........|...........|...........|...........|...........|...........|...........|...........|...........|...........|...........|...........|...........|...........|...........|...........|...........|...........|...........
|...........|...........|...........|...........|...........|...........|...........|...........|...........|...........|...........|...........|...........|...........|...........|...........|...........|...........|...........|...........|...........|...........|...........|...........|...........|...........|...........|...........
|...........|...........|...........|...........|...........|...........|...........|...........|...........|...........|...........|...........|...........|...........|...........|...........|...........|...........|...........|...........|...........|...........|...........|...........|...........|...........|...........|...........
|...........|...........|...........|...........|...........|...........|...........|...........|...........|...........|...........|...........|...........|...........|C-527......|...........|...........|G#610......|...........|...........|...........|...........|...........|...........|...........|...........|...........|...........
|...........|...........|...........|...........|...........|...........|...........|...........|...........|...........|...........|...........|...........|...........|...........|...........|...........|...........|...........|...........|...........|...........|...........|...........|...........|...........|...........|...........
|...........|...........|...........|...........|...........|...........|...........|...........|...........|...........|...........|...........|...........|...........|...........|...........|...........|...........|...........|...........|...........|...........|...........|...........|...........|...........|...........|...........
|...........|...........|E-506......|B-406......|F#406......|C#406......|F#306......|...........|...........|...........|C-503......|G-404......|C-526......|...........|C-528......|C-519......|...........|...........|...........|...........|...........|...........|...........|...........|...........|...........|...........|...........
|...........|...........|...........|...........|...........|...........|...........|...........|...........|...........|...........|...........|...........|...........|...........|...........|...........|........E10|...........|...........|...........|...........|...........|...........|...........|...........|...........|...........
|...........|...........|...........|...........|...........|...........|...........|...........|...........|...........|...........|...........|...........|...........|...........|...........|...........|...........|...........|...........|...........|...........|...........|...........|...........|...........|...........|...........
|...........|...........|...........|...........|...........|...........|...........|...........|...........|...........|...........|...........|...........|...........|...........|...........|...........|...........|...........|...........|...........|...........|...........|...........|...........|...........|...........|...........
|...........|...........|...........|...........|...........|...........|...........|...........|...........|...........|...........|...........|...........|...........|...........|...........|...........|...........|...........|...........|...........|...........|...........|...........|...........|...........|...........|...........
|...........|...........|...........|...........|...........|...........|...........|...........|...........|...........|...........|C-403......|...........|...........|...........|...........|...........|D#610......|...........|...........|...........|...........|...........|...........|...........|...........|...........|...........
|...........|...........|...........|...........|...........|...........|...........|...........|...........|...........|...........|...........|...........|...........|...........|...........|...........|...........|...........|...........|...........|...........|...........|...........|...........|...........|...........|...........
|...........|...........|...........|...........|...........|...........|...........|...........|...........|...........|...........|...........|...........|...........|...........|...........|...........|...........|...........|...........|...........|...........|...........|...........|...........|...........|...........|...........
|...........|C#302......|...........|...........|...........|...........|...........|...........|...........|...........|C-403......|...........|...........|...........|C-527......|F-518......|C#611......|........E10|...........|...........|...........|...........|...........|...........|...........|...........|...........|...........
|...........|...........|...........|...........|...........|...........|...........|...........|...........|...........|...........|...........|...........|...........|...........|...........|...........|...........|...........|...........|...........|...........|...........|...........|...........|...........|...........|...........
|...........|...........|...........|...........|...........|...........|...........|...........|...........|...........|...........|...........|...........|...........|...........|...........|...........|...........|...........|...........|...........|...........|...........|...........|...........|...........|...........|...........
|...........|...........|...........|...........|...........|...........|...........|...........|...........|...........|...........|...........|...........|...........|...........|...........|...........|...........|...........|...........|...........|...........|...........|...........|...........|...........|...........|...........
|...........|...........|...........|...........|...........|...........|...........|...........|...........|...........|...........|...........|...........|...........|...........|...........|...........|...........|...........|...........|...........|...........|...........|...........|...........|...........|...........|...........
|...........|...........|G#406......|D#406......|B-306......|E-306......|...........|...........|...........|...........|...........|...........|...........|...........|C-527......|...........|...........|F#610......|...........|...........|...........|...........|...........|...........|...........|...........|...........|...........
|...........|...........|...........|...........|...........|...........|...........|...........|...........|...........|...........|...........|...........|...........|...........|...........|...........|...........|...........|...........|...........|...........|...........|...........|...........|...........|...........|...........
|...........|...........|...........|...........|...........|...........|...........|...........|...........|...........|...........|...........|...........|...........|...........|...........|...........|...........|...........|...........|...........|...........|...........|...........|...........|...........|...........|...........
|...........|...........|...........|...........|...........|...........|...........|...........|...........|...........|G-404......|C-503......|G-525......|...........|C-528......|C-519......|...........|C#610......|...........|A-511......|...........|...........|...........|...........|...........|...........|...........|...........
|...........|...........|...........|...........|...........|...........|...........|...........|...........|...........|...........|...........|...........|...........|...........|...........|...........|........F10|...........|...........|...........|...........|...........|...........|...........|...........|...........|...........
|...........|...........|...........|...........|...........|...........|...........|...........|...........|...........|...........|...........|...........|...........|...........|...........|...........|...........|...........|...........|...........|...........|...........|...........|...........|...........|...........|...........
|...........|...........|...........|...........|...........|...........|...........|...........|...........|...........|...........|...........|...........|...........|...........|...........|...........|...........|...........|^^^........|...........|...........|...........|...........|...........|...........|...........|...........
|...........|...........|...........|...........|...........|...........|...........|...........|...........|...........|...........|...........|...........|...........|...........|...........|...........|...........|...........|...........|...........|...........|...........|...........|...........|...........|...........|...........
|...........|...........|...........|...........|...........|...........|...........|...........|...........|...........|C-403......|...........|...........|...........|...........|...........|...........|D-610......|...........|...........|...........|...........|...........|...........|...........|...........|...........|...........
|...........|...........|...........|...........|...........|...........|...........|...........|...........|...........|...........|...........|...........|...........|...........|...........|...........|...........|...........|...........|...........|...........|...........|...........|...........|...........|...........|...........
|...........|...........|...........|...........|...........|...........|...........|...........|...........|...........|...........|...........|...........|...........|...........|...........|...........|...........|...........|...........|...........|...........|...........|...........|...........|...........|...........|...........
Rows: 64
|...........|F#302......|D#506......|G#406......|E-406......|A#306......|...........|...........|...........|...........|...........|C-403......|...........|...........|C-527......|C-519......|D#611......|........F08|C#511......|B-511......|...........|...........|...........|...........|...........|...........|...........|...........
|...........|...........|...........|...........|...........|...........|...........|...........|...........|...........|...........|...........|...........|...........|...........|...........|...........|...........|...........|...........|...........|...........|...........|...........|...........|...........|...........|...........
|...........|...........|...........|...........|...........|...........|...........|...........|...........|...........|...........|...........|...........|...........|...........|...........|...........|...........|...........|...........|...........|...........|...........|...........|...........|...........|...........|...........
|...........|...........|...........|...........|...........|...........|...........|...........|...........|...........|...........|...........|...........|...........|...........|...........|...........|...........|...........|...........|...........|...........|...........|...........|...........|...........|...........|...........
|...........|...........|...........|...........|...........|...........|...........|...........|...........|...........|...........|...........|...........|...........|...........|...........|...........|...........|...........|...........|...........|...........|...........|...........|...........|...........|...........|...........
|...........|...........|...........|...........|...........|...........|...........|...........|...........|...........|...........|...........|...........|...........|C-527......|...........|...........|E-610......|...........|...........|...........|...........|...........|...........|...........|...........|...........|...........
|...........|...........|...........|...........|...........|...........|...........|...........|...........|...........|...........|...........|...........|...........|...........|...........|...........|...........|...........|...........|...........|...........|...........|...........|...........|...........|...........|...........
|...........|...........|...........|...........|...........|...........|...........|...........|...........|...........|...........|...........|...........|...........|...........|...........|...........|...........|...........|...........|...........|...........|...........|...........|...........|...........|...........|...........
|...........|...........|...........|...........|...........|...........|...........|...........|...........|...........|C-503......|G-404......|C-526......|...........|C-528......|...........|...........|G#610......|...........|...........|...........|...........|...........|...........|...........|...........|...........|...........
|...........|...........|...........|...........|...........|...........|...........|...........|...........|...........|...........|...........|...........|...........|...........|...........|...........|...........|...........|...........|...........|...........|...........|...........|...........|...........|...........|...........
|...........|...........|...........|...........|...........|...........|...........|...........|...........|...........|...........|...........|...........|...........|...........|...........|...........|...........|...........|...........|...........|...........|...........|...........|...........|...........|...........|...........
|...........|...........|...........|...........|...........|...........|...........|...........|...........|...........|...........|...........|...........|...........|...........|...........|...........|...........|...........|...........|...........|...........|...........|...........|...........|...........|...........|...........
|...........|...........|...........|...........|...........|...........|...........|...........|...........|...........|...........|...........|...........|...........|...........|...........|...........|...........|...........|...........|...........|...........|...........|...........|...........|...........|...........|...........
|...........|...........|...........|...........|...........|...........|...........|...........|...........|...........|...........|C-403......|...........|...........|...........|...........|...........|B-610......|...........|...........|...........|...........|...........|...........|...........|...........|...........|...........
|...........|...........|...........|...........|...........|...........|...........|...........|...........|...........|...........|...........|...........|...........|...........|...........|...........|...........|...........|...........|...........|...........|...........|...........|...........|...........|...........|...........
|...........|...........|...........|...........|...........|...........|...........|...........|...........|...........|...........|...........|...........|...........|...........|...........|...........|...........|...........|...........|...........|...........|...........|...........|...........|...........|...........|...........
|...........|C#302......|...........|...........|...........|...........|...........|...........|...........|...........|C-403......|...........|...........|...........|C-527......|F-518......|...........|...........|...........|C#611......|...........|...........|...........|...........|...........|...........|...........|...........
|...........|...........|...........|...........|...........|...........|...........|...........|...........|...........|...........|...........|...........|...........|...........|...........|...........|...........|...........|...........|...........|...........|...........|...........|...........|...........|...........|...........
|...........|...........|...........|...........|...........|...........|...........|...........|...........|...........|...........|...........|...........|...........|...........|...........|...........|...........|...........|...........|...........|...........|...........|...........|...........|...........|...........|...........
|...........|...........|...........|...........|...........|...........|...........|...........|...........|...........|...........|...........|...........|...........|...........|...........|...........|...........|...........|...........|...........|...........|...........|...........|...........|...........|...........|...........
|...........|...........|...........|...........|...........|...........|...........|...........|...........|...........|...........|...........|...........|...........|...........|...........|...........|...........|...........|...........|...........|...........|...........|...........|...........|...........|...........|...........
|...........|...........|...........|...........|...........|...........|...........|...........|...........|...........|...........|...........|...........|...........|C-527......|...........|...........|...........|...........|...........|...........|...........|...........|...........|...........|...........|...........|...........
|...........|...........|...........|...........|...........|...........|...........|...........|...........|...........|...........|...........|...........|...........|...........|...........|...........|...........|...........|...........|...........|...........|...........|...........|...........|...........|...........|...........
|...........|...........|...........|...........|...........|...........|...........|...........|...........|...........|...........|...........|...........|...........|...........|...........|...........|...........|...........|...........|...........|...........|...........|...........|...........|...........|...........|...........
|...........|...........|...........|...........|...........|...........|...........|...........|...........|...........|G-404......|C-503......|G-525......|...........|C-528......|...........|...........|...........|D#511......|...........|...........|...........|...........|...........|...........|...........|...........|...........
|...........|...........|...........|...........|...........|...........|...........|...........|...........|...........|...........|...........|...........|...........|...........|...........|...........|...........|...........|...........|...........|...........|...........|...........|...........|...........|...........|...........
|...........|...........|...........|...........|...........|...........|...........|...........|...........|...........|...........|...........|...........|...........|...........|...........|...........|...........|...........|...........|...........|...........|...........|...........|...........|...........|...........|...........
|...........|...........|...........|...........|...........|...........|...........|...........|...........|...........|...........|...........|...........|...........|...........|...........|...........|^^^........|...........|...........|...........|...........|...........|...........|...........|...........|...........|...........
|...........|...........|...........|...........|...........|...........|...........|...........|...........|...........|...........|...........|...........|...........|...........|...........|...........|...........|^^^........|...........|...........|...........|...........|...........|...........|...........|...........|...........
|...........|...........|...........|...........|...........|...........|...........|...........|...........|...........|C-403......|...........|...........|...........|...........|F-518......|...........|...........|...........|D#611......|...........|...........|...........|...........|...........|...........|...........|...........
|...........|...........|...........|...........|...........|...........|...........|...........|...........|...........|...........|...........|...........|...........|...........|...........|...........|...........|...........|...........|...........|...........|...........|...........|...........|...........|...........|...........
|...........|...........|...........|...........|...........|...........|...........|...........|...........|...........|...........|...........|...........|...........|...........|...........|...........|...........|...........|...........|...........|...........|...........|...........|...........|...........|...........|...........
|...........|B-202......|...........|...........|...........|...........|...........|...........|...........|...........|...........|C-403......|...........|...........|C-527......|...........|B-411......|...........|E-511......|...........|...........|...........|...........|...........|...........|...........|...........|...........
|...........|...........|...........|...........|...........|...........|...........|...........|...........|...........|...........|...........|...........|...........|...........|...........|...........|...........|...........|...........|...........|...........|...........|...........|...........|...........|...........|...........
|...........|...........|...........|...........|...........|...........|...........|...........|...........|...........|...........|...........|...........|...........|...........|...........|...........|...........|...........|...........|...........|...........|...........|...........|...........|...........|...........|...........
|...........|...........|...........|...........|...........|...........|...........|...........|...........|...........|...........|...........|...........|...........|...........|...........|...........|...........|...........|...........|...........|...........|...........|...........|...........|...........|...........|...........
|...........|...........|...........|...........|...........|...........|...........|...........|...........|...........|...........|...........|...........|...........|...........|...........|...........|...........|...........|...........|...........|...........|...........|...........|...........|...........|...........|...........
|...........|...........|...........|...........|...........|...........|...........|...........|...........|...........|...........|...........|...........|...........|C-527......|...........|...........|A-510......|...........|...........|...........|...........|...........|...........|...........|...........|...........|...........
|...........|...........|...........|...........|...........|...........|...........|...........|...........|...........|...........|...........|...........|...........|...........|...........|...........|...........|...........|...........|...........|...........|...........|...........|...........|...........|...........|...........
|...........|...........|...........|...........|...........|...........|...........|...........|...........|...........|...........|...........|...........|...........|...........|...........|...........|...........|...........|...........|...........|...........|...........|...........|...........|...........|...........|...........
|...........|...........|C#506......|G#406......|E-406......|A-306......|...........|...........|...........|...........|C-503......|G-404......|C-526......|...........|C-528......|C-519......|...........|........F10|...........|...........|...........|...........|...........|...........|...........|...........|...........|...........
|...........|...........|...........|...........|...........|...........|...........|...........|...........|...........|...........|...........|...........|...........|...........|...........|...........|...........|...........|...........|...........|...........|...........|...........|...........|...........|...........|...........
|...........|...........|...........|...........|...........|...........|...........|...........|...........|...........|...........|...........|...........|...........|...........|...........|...........|...........|...........|...........|...........|...........|...........|...........|...........|...........|...........|...........
|...........|...........|...........|...........|...........|...........|...........|...........|...........|...........|...........|...........|...........|...........|...........|...........|...........|...........|...........|...........|...........|...........|...........|...........|...........|...........|...........|...........
|...........|...........|...........|...........|...........|...........|...........|...........|...........|...........|...........|...........|...........|...........|...........|...........|...........|...........|...........|...........|...........|...........|...........|...........|...........|...........|...........|...........
|...........|...........|...........|...........|...........|...........|...........|...........|...........|...........|...........|C-403......|...........|...........|...........|...........|...........|E-610......|...........|...........|...........|...........|...........|...........|...........|...........|...........|...........
|...........|...........|...........|...........|...........|...........|...........|...........|...........|...........|...........|...........|...........|...........|...........|...........|...........|...........|...........|...........|...........|...........|...........|...........|...........|...........|...........|...........
|...........|...........|...........|...........|...........|...........|...........|...........|...........|...........|...........|...........|...........|...........|...........|...........|...........|...........|...........|...........|...........|...........|...........|...........|...........|...........|...........|...........
|...........|B-302......|...........|...........|...........|...........|...........|...........|...........|...........|C-403......|...........|...........|...........|C-527......|F-518......|...........|C#610......|F#511......|...........|...........|...........|...........|...........|...........|...........|...........|...........
|...........|...........|...........|...........|...........|...........|...........|...........|...........|...........|...........|...........|...........|...........|...........|...........|...........|...........|...........|...........|...........|...........|...........|...........|...........|...........|...........|...........
|...........|...........|...........|...........|...........|...........|...........|...........|...........|...........|...........|...........|...........|...........|...........|...........|...........|...........|...........|...........|...........|...........|...........|...........|...........|...........|...........|...........
|...........|...........|...........|...........|...........|...........|...........|...........|...........|...........|...........|...........|...........|...........|...........|...........|...........|...........|...........|...........|...........|...........|...........|...........|...........|...........|...........|...........
|...........|...........|...........|...........|...........|...........|...........|...........|...........|...........|...........|...........|...........|...........|...........|...........|...........|...........|...........|...........|...........|...........|...........|...........|...........|...........|...........|...........
|...........|...........|F#406......|C#406......|A-306......|D#306......|...........|...........|...........|...........|...........|...........|...........|...........|C-527......|...........|...........|F#610......|...........|...........|...........|...........|...........|...........|...........|...........|...........|...........
|...........|...........|...........|...........|...........|...........|...........|...........|...........|...........|...........|...........|...........|...........|...........|...........|...........|...........|...........|...........|...........|...........|...........|...........|...........|...........|...........|...........
|...........|...........|...........|...........|...........|...........|...........|...........|...........|...........|...........|...........|...........|...........|...........|...........|...........|...........|...........|...........|...........|...........|...........|...........|...........|...........|...........|...........
|...........|...........|...........|...........|...........|...........|...........|...........|...........|...........|G-404......|C-503......|G-525......|...........|C-528......|C-519......|C#511......|D#610......|...........|...........|...........|...........|...........|...........|...........|...........|...........|...........
|...........|...........|...........|...........|...........|...........|...........|...........|...........|...........|...........|...........|...........|...........|...........|...........|...........|...........|...........|...........|...........|...........|...........|...........|...........|...........|...........|...........
|...........|...........|...........|...........|...........|...........|...........|...........|...........|...........|...........|...........|...........|...........|...........|...........|...........|...........|...........|...........|...........|...........|...........|...........|...........|...........|...........|...........
|...........|...........|...........|...........|...........|...........|...........|...........|...........|...........|...........|...........|...........|...........|...........|...........|...........|...........|...........|...........|...........|...........|...........|...........|...........|...........|...........|...........
|...........|...........|...........|...........|...........|...........|...........|...........|...........|...........|...........|...........|...........|...........|...........|...........|^^^........|...........|...........|...........|...........|...........|...........|...........|...........|...........|...........|...........
|...........|...........|...........|...........|...........|...........|...........|...........|...........|...........|C-403......|...........|...........|...........|...........|...........|...........|C#610......|G#511......|...........|...........|...........|...........|...........|...........|...........|...........|...........
|...........|...........|...........|...........|...........|...........|...........|...........|...........|...........|...........|...........|...........|...........|...........|...........|...........|...........|...........|...........|...........|...........|...........|...........|...........|...........|...........|...........
|...........|...........|...........|...........|...........|...........|...........|...........|...........|...........|...........|...........|...........|...........|...........|...........|...........|...........|...........|...........|...........|...........|...........|...........|...........|...........|...........|...........
Rows: 64
|...........|G#302......|B-406......|F#406......|D-406......|F#306......|...........|...........|...........|...........|...........|C-403......|...........|...........|C-527......|C-519......|D-511......|........F08|...........|F#511......|...........|...........|...........|...........|...........|...........|...........|...........
|...........|...........|...........|...........|...........|...........|...........|...........|...........|...........|...........|...........|...........|...........|...........|...........|...........|...........|...........|...........|...........|...........|...........|...........|...........|...........|...........|...........
|...........|...........|...........|...........|...........|...........|...........|...........|...........|...........|...........|...........|...........|...........|...........|...........|...........|...........|...........|...........|...........|...........|...........|...........|...........|...........|...........|...........
|...........|...........|...........|...........|...........|...........|...........|...........|...........|...........|...........|...........|...........|...........|...........|...........|...........|...........|...........|...........|...........|...........|...........|...........|...........|...........|...........|...........
|...........|...........|...........|...........|...........|...........|...........|...........|...........|...........|...........|...........|...........|...........|...........|...........|...........|...........|...........|...........|...........|...........|...........|...........|...........|...........|...........|...........
|...........|...........|...........|...........|...........|...........|...........|...........|...........|...........|...........|...........|...........|...........|C-527......|...........|...........|E-610......|...........|...........|...........|...........|...........|...........|...........|...........|...........|...........
|...........|...........|...........|...........|...........|...........|...........|...........|...........|...........|...........|...........|...........|...........|...........|...........|...........|...........|...........|...........|...........|...........|...........|...........|...........|...........|...........|...........
|...........|...........|...........|...........|...........|...........|...........|...........|...........|...........|...........|...........|...........|...........|...........|...........|...........|...........|...........|...........|...........|...........|...........|...........|...........|...........|...........|...........
|...........|...........|...........|...........|...........|...........|...........|...........|...........|...........|C-503......|G-404......|C-526......|...........|C-528......|...........|...........|........F10|...........|...........|...........|...........|...........|...........|...........|...........|...........|...........
|...........|...........|...........|...........|...........|...........|...........|...........|...........|...........|...........|...........|...........|...........|...........|...........|...........|...........|...........|...........|...........|...........|...........|...........|...........|...........|...........|...........
|...........|...........|...........|...........|...........|...........|...........|...........|...........|...........|...........|...........|...........|...........|...........|...........|...........|...........|...........|...........|...........|...........|...........|...........|...........|...........|...........|...........
|...........|...........|...........|...........|...........|...........|...........|...........|...........|...........|...........|...........|...........|...........|...........|...........|...........|...........|...........|...........|...........|...........|...........|...........|...........|...........|...........|...........
|...........|...........|...........|...........|...........|...........|...........|...........|...........|...........|...........|...........|...........|...........|...........|...........|...........|...........|...........|...........|...........|...........|...........|...........|...........|...........|...........|...........
|...........|...........|...........|...........|...........|...........|...........|...........|...........|...........|...........|C-403......|...........|...........|...........|...........|...........|A-610......|...........|...........|...........|...........|...........|...........|...........|...........|...........|...........
|...........|...........|...........|...........|...........|...........|...........|...........|...........|...........|...........|...........|...........|...........|...........|...........|...........|...........|...........|...........|...........|...........|...........|...........|...........|...........|...........|...........
|...........|...........|...........|...........|...........|...........|...........|...........|...........|...........|...........|...........|...........|...........|...........|...........|...........|...........|...........|...........|...........|...........|...........|...........|...........|...........|...........|...........
|...........|D-302......|...........|...........|...........|...........|...........|...........|...........|...........|C-403......|...........|...........|...........|C-527......|F-518......|E-511......|F-610......|...........|...........|...........|...........|...........|...........|...........|...........|...........|...........
|...........|...........|...........|...........|...........|...........|...........|...........|...........|...........|...........|...........|...........|...........|...........|...........|...........|...........|...........|...........|...........|...........|...........|...........|...........|...........|...........|...........
|...........|...........|...........|...........|...........|...........|...........|...........|...........|...........|...........|...........|...........|...........|...........|...........|...........|...........|...........|...........|...........|...........|...........|...........|...........|...........|...........|...........
|...........|...........|...........|...........|...........|...........|...........|...........|...........|...........|...........|...........|...........|...........|...........|...........|...........|...........|...........|...........|...........|...........|...........|...........|...........|...........|...........|...........
|...........|...........|...........|...........|...........|...........|...........|...........|...........|...........|...........|...........|...........|...........|...........|...........|...........|...........|...........|...........|...........|...........|...........|...........|...........|...........|...........|...........
|...........|...........|...........|...........|...........|...........|...........|...........|...........|...........|...........|...........|...........|...........|C-527......|...........|...........|E-610......|...........|...........|...........|...........|...........|...........|...........|...........|...........|...........
|...........|...........|...........|...........|...........|...........|...........|...........|...........|...........|...........|...........|...........|...........|...........|...........|...........|...........|...........|...........|...........|...........|...........|...........|...........|...........|...........|...........
|...........|...........|...........|...........|...........|...........|...........|...........|...........|...........|...........|...........|...........|...........|...........|...........|...........|...........|...........|...........|...........|...........|...........|...........|...........|...........|...........|...........
|...........|...........|...........|...........|...........|...........|...........|...........|...........|...........|G-404......|C-503......|G-525......|...........|C-528......|...........|...........|........E08|...........|G#511......|...........|...........|...........|...........|...........|...........|...........|...........
|...........|...........|...........|...........|...........|...........|...........|...........|...........|...........|...........|...........|...........|...........|...........|...........|...........|...........|...........|...........|...........|...........|...........|...........|...........|...........|...........|...........
|...........|...........|...........|...........|...........|...........|...........|...........|...........|...........|...........|...........|...........|...........|...........|...........|...........|...........|...........|...........|...........|...........|...........|...........|...........|...........|...........|...........
|...........|...........|...........|...........|...........|...........|...........|...........|...........|...........|...........|...........|...........|...........|...........|...........|...........|...........|...........|^^^........|...........|...........|...........|...........|...........|...........|...........|...........
|...........|...........|...........|...........|...........|...........|...........|...........|...........|...........|...........|...........|...........|...........|...........|...........|...........|...........|...........|...........|...........|...........|...........|...........|...........|...........|...........|...........
|...........|...........|...........|...........|...........|...........|...........|...........|...........|...........|C-403......|...........|...........|...........|...........|F-518......|F-511......|F#610......|...........|...........|...........|...........|...........|...........|...........|...........|...........|...........
|...........|...........|...........|...........|...........|...........|...........|...........|...........|...........|...........|...........|...........|...........|...........|...........|...........|...........|...........|...........|...........|...........|...........|...........|...........|...........|...........|...........
|...........|...........|...........|...........|...........|...........|...........|...........|...........|...........|...........|...........|...........|...........|...........|...........|...........|...........|...........|...........|...........|...........|...........|...........|...........|...........|...........|...........
|...........|C#302......|...........|...........|...........|...........|...........|...........|...........|...........|...........|C-403......|...........|...........|C-527......|...........|...........|D-610......|F-510......|A-511......|...........|...........|...........|...........|...........|...........|...........|...........
|...........|...........|...........|...........|...........|...........|...........|...........|...........|...........|...........|...........|...........|...........|...........|...........|...........|...........|...........|...........|...........|...........|...........|...........|...........|...........|...........|...........
|...........|...........|...........|...........|...........|...........|...........|...........|...........|...........|...........|...........|...........|...........|...........|...........|...........|...........|...........|...........|...........|...........|...........|...........|...........|...........|...........|...........
|...........|...........|...........|...........|...........|...........|...........|...........|...........|...........|...........|...........|...........|...........|...........|...........|...........|...........|...........|...........|...........|...........|...........|...........|...........|...........|...........|...........
|...........|...........|...........|...........|...........|...........|...........|...........|...........|...........|...........|...........|...........|...........|...........|...........|...........|...........|...........|...........|...........|...........|...........|...........|...........|...........|...........|...........
|...........|...........|...........|...........|...........|...........|...........|...........|...........|...........|...........|...........|...........|...........|C-527......|...........|...........|........E08|...........|...........|...........|...........|...........|...........|...........|...........|...........|...........
|...........|...........|...........|...........|...........|...........|...........|...........|...........|...........|...........|...........|...........|...........|...........|...........|...........|...........|...........|...........|...........|...........|...........|...........|...........|...........|...........|...........
|...........|...........|...........|...........|...........|...........|...........|...........|...........|...........|...........|...........|...........|...........|...........|...........|...........|...........|...........|...........|...........|...........|...........|...........|...........|...........|...........|...........
|...........|...........|F-306......|B-306......|E-406......|A-406......|...........|...........|...........|...........|C-503......|G-404......|C-526......|...........|C-528......|C-519......|...........|D-610......|...........|...........|...........|...........|...........|...........|...........|...........|...........|...........
|...........|...........|...........|...........|...........|...........|...........|...........|...........|...........|...........|...........|...........|...........|...........|...........|...........|...........|...........|...........|...........|...........|...........|...........|...........|...........|...........|...........
|...........|...........|...........|...........|...........|...........|...........|...........|...........|...........|...........|...........|...........|...........|...........|...........|...........|G-610...SD2|...........|...........|...........|...........|...........|...........|...........|...........|...........|...........
|...........|...........|...........|...........|...........|...........|...........|...........|...........|...........|...........|...........|...........|...........|...........|...........|...........|...........|...........|...........|...........|...........|...........|...........|...........|...........|...........|...........
|...........|...........|...........|...........|...........|...........|...........|...........|...........|...........|...........|...........|...........|...........|...........|...........|...........|...........|...........|...........|...........|...........|...........|...........|...........|...........|...........|...........
|...........|...........|...........|...........|...........|...........|...........|...........|...........|...........|...........|C-403......|...........|...........|...........|...........|...........|B-610...SD1|...........|...........|...........|...........|...........|...........|...........|...........|...........|...........
|...........|...........|...........|...........|...........|...........|...........|...........|...........|...........|...........|...........|...........|...........|...........|...........|...........|...........|...........|...........|...........|...........|...........|...........|...........|...........|...........|...........
|...........|...........|...........|...........|...........|...........|...........|...........|...........|...........|...........|...........|...........|...........|...........|...........|...........|...........|...........|...........|...........|...........|...........|...........|...........|...........|...........|...........
|...........|G-302......|...........|...........|...........|...........|...........|...........|...........|...........|C-403......|...........|...........|...........|C-527......|F-518......|...........|E-710......|...........|B-511......|...........|...........|...........|...........|...........|...........|...........|...........
|...........|...........|...........|...........|...........|...........|...........|...........|...........|...........|...........|...........|...........|...........|...........|...........|...........|...........|...........|...........|...........|...........|...........|...........|...........|...........|...........|...........
|...........|...........|...........|...........|...........|...........|...........|...........|...........|...........|...........|...........|...........|...........|...........|...........|...........|...........|...........|...........|...........|...........|...........|...........|...........|...........|...........|...........
|...........|...........|...........|...........|...........|...........|...........|...........|...........|...........|...........|...........|...........|...........|...........|...........|...........|...........|...........|...........|...........|...........|...........|...........|...........|...........|...........|...........
|...........|...........|...........|...........|...........|...........|...........|...........|...........|...........|...........|...........|...........|...........|...........|...........|...........|...........|...........|...........|...........|...........|...........|...........|...........|...........|...........|...........
|...........|...........|B-306......|D-406......|F-306......|...........|...........|...........|...........|...........|...........|...........|...........|...........|C-527......|...........|...........|........E10|...........|...........|...........|...........|...........|...........|...........|...........|...........|...........
|...........|...........|...........|...........|...........|...........|...........|...........|...........|...........|...........|...........|...........|...........|...........|...........|...........|...........|...........|...........|...........|...........|...........|...........|...........|...........|...........|...........
|...........|...........|...........|...........|...........|...........|...........|...........|...........|...........|...........|...........|...........|...........|...........|...........|...........|...........|...........|...........|...........|...........|...........|...........|...........|...........|...........|...........
|...........|...........|...........|...........|...........|...........|...........|...........|...........|...........|G-404......|C-503......|G-525......|...........|C-528......|C-519......|...........|A-610......|F#510......|...........|...........|...........|...........|...........|...........|...........|...........|...........
|...........|...........|...........|...........|...........|...........|...........|...........|...........|...........|...........|...........|...........|...........|...........|...........|...........|...........|...........|...........|...........|...........|...........|...........|...........|...........|...........|...........
|...........|...........|...........|...........|...........|...........|...........|...........|...........|...........|...........|...........|...........|...........|...........|...........|...........|...........|...........|...........|...........|...........|...........|...........|...........|...........|...........|...........
|...........|...........|...........|...........|...........|...........|...........|...........|...........|...........|...........|...........|...........|...........|...........|...........|...........|...........|...........|...........|...........|...........|...........|...........|...........|...........|...........|...........
|...........|...........|...........|...........|...........|...........|...........|...........|...........|...........|...........|...........|...........|...........|...........|...........|...........|...........|^^^........|...........|...........|...........|...........|...........|...........|...........|...........|...........
|...........|...........|...........|...........|...........|...........|...........|...........|...........|...........|C-403......|...........|...........|...........|...........|...........|...........|B-610......|...........|C#611......|...........|...........|...........|...........|...........|...........|...........|...........
|...........|...........|...........|...........|...........|...........|...........|...........|...........|...........|...........|...........|...........|...........|...........|...........|...........|...........|...........|...........|...........|...........|...........|...........|...........|...........|...........|...........
|...........|...........|...........|...........|...........|...........|...........|...........|...........|...........|...........|...........|...........|...........|...........|...........|...........|...........|...........|...........|...........|...........|...........|...........|...........|...........|...........|...........
Rows: 64
|........A03|F#302......|C#306......|A#306......|D#406......|G#406......|...........|...........|...........|...........|...........|C-403......|...........|...........|C-527......|C-519......|...........|C-710......|G#510......|...........|...........|...........|...........|...........|...........|...........|...........|...........
|...........|...........|...........|...........|...........|...........|...........|...........|...........|...........|...........|...........|...........|...........|...........|...........|...........|...........|...........|...........|...........|...........|...........|...........|...........|...........|...........|...........
|...........|...........|...........|...........|...........|...........|...........|...........|...........|...........|...........|...........|...........|...........|...........|...........|...........|...........|...........|...........|...........|...........|...........|...........|...........|...........|...........|...........
|...........|...........|...........|...........|...........|...........|...........|...........|...........|...........|...........|...........|...........|...........|...........|...........|...........|...........|...........|...........|...........|...........|...........|...........|...........|...........|...........|...........
|...........|...........|...........|...........|...........|...........|...........|...........|...........|...........|...........|...........|...........|...........|...........|...........|...........|...........|...........|...........|...........|...........|...........|...........|...........|...........|...........|...........
|...........|...........|...........|...........|...........|...........|...........|...........|...........|...........|...........|...........|...........|...........|C-527......|...........|...........|........F08|...........|...........|...........|...........|...........|...........|...........|...........|...........|...........
|...........|...........|...........|...........|...........|...........|...........|...........|...........|...........|...........|...........|...........|...........|...........|...........|...........|...........|...........|...........|...........|...........|...........|...........|...........|...........|...........|...........
|...........|...........|...........|...........|...........|...........|...........|...........|...........|...........|...........|...........|...........|...........|...........|...........|...........|...........|...........|...........|...........|...........|...........|...........|...........|...........|...........|...........
|...........|...........|...........|...........|...........|...........|...........|...........|G#429......|C#529......|C-503......|G-404......|C-526......|...........|C-528......|...........|...........|...........|...........|...........|...........|...........|...........|...........|...........|...........|...........|...........
|...........|...........|...........|...........|...........|...........|...........|...........|...........|...........|...........|...........|...........|...........|...........|...........|...........|...........|...........|...........|...........|...........|...........|...........|...........|...........|...........|...........
|...........|...........|...........|...........|...........|...........|...........|...........|...........|...........|...........|...........|...........|...........|...........|...........|...........|...........|...........|...........|...........|...........|...........|...........|...........|...........|...........|...........
|...........|...........|...........|...........|...........|...........|...........|...........|^^^........|^^^........|...........|...........|...........|...........|...........|...........|...........|...........|...........|...........|...........|...........|...........|...........|...........|...........|...........|...........
|...........|...........|...........|...........|...........|...........|...........|...........|...........|...........|...........|...........|...........|...........|...........|...........|...........|...........|...........|...........|...........|...........|...........|...........|...........|...........|...........|...........
|...........|...........|...........|...........|...........|...........|...........|...........|...........|...........|...........|C-403......|...........|...........|...........|...........|...........|G#710......|...........|...........|D#710......|...........|...........|...........|...........|...........|...........|...........
|...........|...........|...........|...........|...........|...........|...........|...........|...........|...........|...........|...........|...........|...........|...........|...........|...........|...........|...........|...........|...........|...........|...........|...........|...........|...........|...........|...........
|...........|...........|...........|...........|...........|...........|...........|...........|...........|...........|...........|...........|...........|...........|...........|...........|...........|...........|...........|...........|...........|...........|...........|...........|...........|...........|...........|...........
|...........|C#302......|...........|...........|...........|...........|...........|...........|...........|...........|C-403......|...........|...........|...........|C-527......|F-518......|...........|...........|A#510......|...........|...........|...........|...........|...........|...........|...........|...........|...........
|...........|...........|...........|...........|...........|...........|...........|...........|...........|...........|...........|...........|...........|...........|...........|...........|...........|...........|...........|...........|...........|...........|...........|...........|...........|...........|...........|...........
|...........|...........|...........|...........|...........|...........|...........|...........|...........|...........|...........|...........|...........|...........|...........|...........|...........|...........|...........|...........|...........|...........|...........|...........|...........|...........|...........|...........
|...........|...........|...........|...........|...........|...........|...........|...........|...........|...........|...........|...........|...........|...........|...........|...........|...........|...........|...........|...........|...........|...........|...........|...........|...........|...........|...........|...........
|...........|...........|...........|...........|...........|...........|...........|...........|...........|...........|...........|...........|...........|...........|...........|...........|...........|...........|...........|...........|...........|...........|...........|...........|...........|...........|...........|...........
|...........|...........|...........|...........|...........|...........|...........|...........|...........|...........|...........|...........|...........|...........|C-527......|...........|C#611......|...........|...........|...........|...........|...........|...........|...........|...........|...........|...........|...........
|...........|...........|...........|...........|...........|...........|...........|...........|...........|...........|...........|...........|...........|...........|...........|...........|...........|...........|...........|...........|...........|...........|...........|...........|...........|...........|...........|...........
|...........|...........|...........|...........|...........|...........|...........|...........|...........|...........|...........|...........|...........|...........|...........|...........|...........|...........|...........|...........|...........|...........|...........|...........|...........|...........|...........|...........
|...........|...........|...........|...........|...........|...........|...........|...........|G#429......|C#529......|G-404......|C-503......|G-525......|...........|C-528......|...........|D#611......|...........|...........|...........|...........|...........|...........|...........|...........|...........|...........|...........
|...........|...........|...........|...........|...........|...........|...........|...........|...........|...........|...........|...........|...........|...........|...........|...........|...........|...........|...........|...........|...........|...........|...........|...........|...........|...........|...........|...........
|...........|...........|...........|...........|...........|...........|...........|...........|...........|...........|...........|...........|...........|...........|...........|...........|...........|...........|...........|...........|...........|...........|...........|...........|...........|...........|...........|...........
|...........|...........|...........|...........|...........|...........|...........|...........|^^^........|^^^........|...........|...........|...........|...........|...........|...........|...........|...........|...........|...........|...........|...........|...........|...........|...........|...........|...........|...........
|...........|...........|...........|...........|...........|...........|...........|...........|...........|...........|...........|...........|...........|...........|...........|...........|...........|...........|...........|...........|...........|...........|...........|...........|...........|...........|...........|...........
|...........|...........|...........|...........|...........|...........|...........|...........|...........|...........|C-403......|...........|...........|...........|...........|F-518......|F#611......|...........|...........|...........|...........|...........|...........|...........|...........|...........|...........|...........
|...........|...........|...........|...........|...........|...........|...........|...........|...........|...........|...........|...........|...........|...........|...........|...........|...........|...........|...........|...........|...........|...........|...........|...........|...........|...........|...........|...........
|...........|...........|...........|...........|...........|...........|...........|...........|...........|...........|...........|...........|...........|...........|...........|...........|...........|...........|...........|...........|...........|...........|...........|...........|...........|...........|...........|...........
|...........|D#302......|...........|...........|...........|...........|...........|...........|...........|...........|...........|C-403......|...........|...........|C-527......|...........|...........|...........|...........|C#611......|...........|...........|...........|...........|...........|...........|...........|...........
|...........|...........|...........|...........|...........|...........|...........|...........|...........|...........|...........|...........|...........|...........|...........|...........|...........|...........|...........|...........|...........|...........|...........|...........|...........|...........|...........|...........
|...........|...........|...........|...........|...........|...........|...........|...........|...........|...........|...........|...........|...........|...........|...........|...........|...........|...........|...........|...........|...........|...........|...........|...........|...........|...........|...........|...........
|...........|...........|...........|...........|...........|...........|...........|...........|...........|...........|...........|...........|...........|...........|...........|...........|...........|...........|...........|...........|...........|...........|...........|...........|...........|...........|...........|...........
|...........|...........|...........|...........|...........|...........|...........|...........|...........|...........|...........|...........|...........|...........|...........|...........|...........|...........|...........|...........|...........|...........|...........|...........|...........|...........|...........|...........
|...........|...........|...........|...........|...........|...........|...........|...........|...........|...........|...........|...........|...........|...........|C-527......|...........|...........|...........|G#510......|...........|...........|...........|...........|...........|...........|...........|...........|...........
|...........|...........|...........|...........|...........|...........|...........|...........|...........|...........|...........|...........|...........|...........|...........|...........|...........|...........|...........|...........|...........|...........|...........|...........|...........|...........|...........|...........
|...........|...........|...........|...........|...........|...........|...........|...........|...........|...........|...........|...........|...........|...........|...........|...........|...........|...........|...........|...........|...........|...........|...........|...........|...........|...........|...........|...........
|...........|...........|F#406......|C#406......|G#306......|A#306......|...........|...........|G#429......|C#529......|C-503......|G-404......|C-526......|...........|C-528......|C-519......|D#611......|...........|A#510......|...........|...........|...........|...........|...........|...........|...........|...........|...........
|...........|...........|...........|...........|...........|...........|...........|...........|...........|...........|...........|...........|...........|...........|...........|...........|...........|...........|...........|...........|...........|...........|...........|...........|...........|...........|...........|...........
|...........|...........|...........|...........|...........|...........|...........|...........|...........|...........|...........|...........|...........|...........|...........|...........|...........|...........|...........|...........|...........|...........|...........|...........|...........|...........|...........|...........
|...........|...........|...........|...........|...........|...........|...........|...........|^^^........|^^^........|...........|...........|...........|...........|...........|...........|^^^........|...........|...........|...........|...........|...........|...........|...........|...........|...........|...........|...........
|...........|...........|...........|...........|...........|...........|...........|...........|...........|...........|...........|...........|...........|...........|...........|...........|...........|...........|...........|...........|...........|...........|...........|...........|...........|...........|...........|...........
|...........|...........|...........|...........|...........|...........|...........|...........|...........|...........|...........|C-403......|...........|...........|...........|...........|...........|...........|C#610......|...........|...........|...........|...........|...........|...........|...........|...........|...........
|...........|...........|...........|...........|...........|...........|...........|...........|...........|...........|...........|...........|...........|...........|...........|...........|...........|...........|...........|...........|...........|...........|...........|...........|...........|...........|...........|...........
|...........|...........|...........|...........|...........|...........|...........|...........|...........|...........|...........|...........|...........|...........|...........|...........|...........|...........|...........|...........|...........|...........|...........|...........|...........|...........|...........|...........
|...........|A#302......|...........|...........|...........|...........|...........|...........|...........|...........|C-403......|...........|...........|...........|C-527......|F-518......|...........|...........|...........|...........|...........|...........|...........|...........|...........|...........|...........|...........
|...........|...........|...........|...........|...........|...........|...........|...........|...........|...........|...........|...........|...........|...........|...........|...........|...........|...........|...........|...........|...........|...........|...........|...........|...........|...........|...........|...........
|...........|...........|...........|...........|...........|...........|...........|...........|...........|...........|...........|...........|...........|...........|...........|...........|...........|...........|...........|...........|...........|...........|...........|...........|...........|...........|...........|...........
|...........|...........|...........|...........|...........|...........|...........|...........|...........|...........|...........|...........|...........|...........|...........|...........|...........|...........|...........|...........|...........|...........|...........|...........|...........|...........|...........|...........
|...........|...........|...........|...........|...........|...........|...........|...........|...........|...........|...........|...........|...........|...........|...........|...........|...........|...........|...........|...........|...........|...........|...........|...........|...........|...........|...........|...........
|...........|...........|A#406......|F-406......|C#406......|F#306......|...........|...........|...........|...........|...........|...........|...........|...........|C-527......|...........|...........|C#511...M30|...........|...........|...........|...........|...........|...........|...........|...........|...........|...........
|...........|...........|...........|...........|...........|...........|...........|...........|...........|...........|...........|...........|...........|...........|...........|...........|...........|...........|...........|...........|...........|...........|...........|...........|...........|...........|...........|...........
|...........|...........|...........|...........|...........|...........|...........|...........|...........|...........|...........|...........|...........|...........|...........|...........|...........|...........|...........|...........|...........|...........|...........|...........|...........|...........|...........|...........
|...........|...........|...........|...........|...........|...........|...........|...........|A#429......|D#529......|G-404......|C-503......|G-525......|...........|C-528......|C-519......|...........|D#511......|A#510......|D#611......|...........|...........|...........|...........|...........|...........|...........|...........
|...........|...........|...........|...........|...........|...........|...........|...........|...........|...........|...........|...........|...........|...........|...........|...........|...........|...........|...........|...........|...........|...........|...........|...........|...........|...........|...........|...........
|...........|...........|...........|...........|...........|...........|...........|...........|...........|...........|...........|...........|...........|...........|...........|...........|...........|...........|...........|...........|...........|...........|...........|...........|...........|...........|...........|...........
|...........|...........|...........|...........|...........|...........|...........|...........|...........|...........|...........|...........|...........|...........|...........|...........|...........|...........|^^^........|...........|...........|...........|...........|...........|...........|...........|...........|...........
|...........|...........|...........|...........|...........|...........|...........|...........|...........|...........|...........|...........|...........|...........|...........|...........|...........|...........|...........|^^^........|...........|...........|...........|...........|...........|...........|...........|...........
|...........|...........|...........|...........|...........|...........|...........|...........|........E10|........E10|C-403......|...........|...........|...........|...........|...........|...........|F#511......|...........|...........|...........|...........|...........|...........|...........|...........|...........|...........
|...........|...........|...........|...........|...........|...........|...........|...........|...........|...........|...........|...........|...........|...........|...........|...........|...........|...........|...........|...........|...........|...........|...........|...........|...........|...........|...........|...........
|...........|...........|...........|...........|...........|...........|...........|...........|...........|...........|...........|...........|...........|...........|...........|...........|...........|...........|...........|...........|...........|...........|...........|...........|...........|...........|...........|...........
Rows: 64
|...........|G#302......|D#506......|A#406......|F-406......|C-406......|F#306......|...........|...........|...........|...........|C-403......|...........|...........|C-527......|C-519......|C-511......|...........|...........|F-611......|F#508......|G#608......|F-608......|C-608......|...........|...........|...........|...........
|...........|...........|...........|...........|...........|...........|...........|...........|^^^........|^^^........|...........|...........|...........|...........|...........|...........|...........|...........|...........|...........|...........|...........|...........|...........|...........|...........|...........|...........
|...........|...........|...........|...........|...........|...........|...........|...........|...........|...........|...........|...........|...........|...........|...........|...........|...........|...........|...........|...........|...........|...........|...........|...........|...........|...........|...........|...........
|...........|...........|...........|...........|...........|...........|...........|...........|...........|...........|...........|...........|...........|...........|...........|...........|...........|...........|...........|...........|===........|===........|===........|===........|...........|...........|...........|...........
|...........|...........|...........|...........|...........|...........|...........|...........|...........|...........|...........|...........|...........|...........|...........|...........|...........|...........|...........|...........|...........|...........|...........|...........|...........|...........|...........|...........
|...........|...........|...........|...........|...........|...........|...........|...........|...........|...........|...........|...........|...........|...........|C-527......|...........|...........|...........|...........|...........|...........|...........|...........|...........|...........|...........|...........|...........
|...........|...........|...........|...........|...........|...........|...........|...........|...........|...........|...........|...........|...........|...........|...........|...........|...........|...........|...........|...........|...........|...........|...........|...........|...........|...........|...........|...........
|...........|...........|...........|...........|...........|...........|...........|...........|...........|...........|...........|...........|...........|...........|...........|...........|...........|...........|...........|...........|...........|...........|...........|...........|...........|...........|...........|...........
|...........|...........|...........|...........|...........|...........|...........|...........|G#429......|C#529......|C-503......|G-404......|C-526......|...........|C-528......|...........|...........|D#511......|...........|...........|...........|...........|...........|...........|...........|...........|...........|...........
|...........|...........|...........|...........|...........|...........|...........|...........|...........|...........|...........|...........|...........|...........|...........|...........|...........|...........|...........|...........|...........|...........|...........|...........|...........|...........|...........|...........
|...........|...........|...........|...........|...........|...........|...........|...........|...........|...........|...........|...........|...........|...........|...........|...........|...........|...........|...........|...........|...........|...........|...........|...........|...........|...........|...........|...........
|...........|...........|...........|...........|...........|...........|...........|...........|^^^........|^^^........|...........|...........|...........|...........|...........|...........|...........|^^^........|...........|...........|...........|...........|...........|...........|...........|...........|...........|...........
|...........|...........|...........|...........|...........|...........|...........|...........|...........|...........|...........|...........|...........|...........|...........|...........|...........|...........|...........|...........|...........|...........|...........|...........|...........|...........|...........|...........
|...........|...........|...........|...........|...........|...........|...........|...........|...........|...........|...........|C-403......|...........|...........|...........|...........|...........|...........|...........|...........|...........|...........|...........|...........|...........|...........|...........|...........
|...........|...........|...........|...........|...........|...........|...........|...........|...........|...........|...........|...........|...........|...........|...........|...........|...........|...........|...........|...........|...........|...........|...........|...........|...........|...........|...........|...........
|...........|...........|...........|...........|...........|...........|...........|...........|...........|...........|...........|...........|...........|...........|...........|...........|...........|...........|...........|...........|...........|...........|...........|...........|...........|...........|...........|...........
|...........|D#302......|...........|...........|...........|...........|...........|...........|...........|...........|C-403......|...........|...........|...........|C-527......|F-518......|...........|...........|...........|F#611......|...........|G#608......|F-608......|C-608......|F#508......|...........|...........|...........
|...........|...........|...........|...........|...........|...........|...........|...........|...........|...........|...........|...........|...........|...........|...........|...........|...........|...........|...........|...........|...........|...........|...........|...........|...........|...........|...........|...........
|...........|...........|...........|...........|...........|...........|...........|...........|...........|...........|...........|...........|...........|...........|...........|...........|...........|...........|...........|...........|...........|...........|...........|...........|...........|...........|...........|...........
|...........|...........|...........|...........|...........|...........|...........|...........|...........|...........|...........|...........|...........|...........|...........|...........|...........|...........|...........|...........|...........|===........|===........|===........|===........|...........|...........|...........
|...........|...........|...........|...........|...........|...........|...........|...........|...........|...........|...........|...........|...........|...........|...........|...........|...........|...........|...........|...........|...........|===........|===........|===........|...........|...........|...........|...........
|...........|...........|...........|...........|...........|...........|...........|...........|...........|...........|...........|...........|...........|...........|C-527......|...........|...........|...........|...........|...........|...........|...........|...........|...........|...........|...........|...........|...........
|...........|...........|...........|...........|...........|...........|...........|...........|...........|...........|...........|...........|...........|...........|...........|...........|...........|...........|...........|...........|...........|...........|...........|...........|...........|...........|...........|...........
|...........|...........|...........|...........|...........|...........|...........|...........|...........|...........|...........|...........|...........|...........|...........|...........|...........|...........|...........|...........|...........|...........|...........|...........|...........|...........|...........|...........
|...........|...........|...........|...........|...........|...........|...........|...........|A#429......|D#529......|G-404......|C-503......|G-525......|...........|C-528......|...........|C#511......|...........|...........|...........|...........|...........|...........|...........|...........|...........|...........|...........
|...........|...........|...........|...........|...........|...........|...........|...........|...........|...........|...........|...........|...........|...........|...........|...........|...........|...........|...........|...........|...........|...........|...........|...........|...........|...........|...........|...........
|...........|...........|...........|...........|...........|...........|...........|...........|...........|...........|...........|...........|...........|...........|...........|...........|...........|...........|...........|...........|...........|...........|...........|...........|...........|...........|...........|...........
|...........|...........|...........|...........|...........|...........|...........|...........|...........|...........|...........|...........|...........|...........|...........|...........|...........|...........|...........|...........|...........|...........|...........|...........|...........|...........|...........|...........
|...........|...........|...........|...........|...........|...........|...........|...........|...........|...........|...........|...........|...........|...........|...........|...........|^^^........|...........|...........|...........|...........|...........|...........|...........|...........|...........|...........|...........
|...........|...........|...........|...........|...........|...........|...........|...........|........E10|........E10|C-403......|...........|...........|...........|...........|F-518......|...........|...........|...........|G#611......|...........|G#608......|D#608......|A#508......|F-508......|...........|...........|...........
|...........|...........|...........|...........|...........|...........|...........|...........|...........|...........|...........|...........|...........|...........|...........|...........|...........|...........|...........|...........|...........|...........|...........|...........|...........|...........|...........|...........
|...........|...........|...........|...........|...........|...........|...........|...........|...........|...........|...........|...........|...........|...........|...........|...........|...........|...........|...........|...........|...........|...........|...........|...........|...........|...........|...........|...........
|...........|F-302......|...........|...........|...........|...........|...........|...........|...........|...........|...........|C-403......|...........|...........|C-527......|...........|D#511......|...........|C-511......|...........|...........|===........|===........|===........|===........|...........|...........|...........
|...........|...........|...........|...........|...........|...........|...........|...........|^^^........|^^^........|...........|...........|...........|...........|...........|...........|...........|...........|...........|...........|...........|...........|...........|...........|...........|...........|...........|...........
|...........|...........|...........|...........|...........|...........|...........|...........|...........|...........|...........|...........|...........|...........|...........|...........|...........|...........|...........|...........|...........|...........|...........|...........|...........|...........|...........|...........
|...........|...........|...........|...........|...........|...........|...........|...........|...........|...........|...........|...........|...........|...........|...........|...........|...........|...........|...........|...........|...........|...........|...........|...........|...........|...........|...........|...........
|...........|...........|...........|...........|...........|...........|...........|...........|...........|...........|...........|...........|...........|...........|...........|...........|...........|...........|...........|...........|...........|...........|...........|...........|...........|...........|...........|...........
|...........|...........|...........|...........|...........|...........|...........|...........|...........|...........|...........|...........|...........|...........|C-527......|...........|...........|...........|...........|...........|...........|...........|...........|...........|...........|...........|...........|...........
|...........|...........|...........|...........|...........|...........|...........|...........|...........|...........|...........|...........|...........|...........|...........|...........|...........|...........|...........|...........|...........|...........|...........|...........|...........|...........|...........|...........
|...........|...........|...........|...........|...........|...........|...........|...........|...........|...........|...........|...........|...........|...........|...........|...........|...........|...........|...........|...........|...........|...........|...........|...........|...........|...........|...........|...........
|...........|...........|G#406......|D#406......|A#306......|C-406......|...........|...........|G#429......|C#529......|C-503......|G-404......|C-526......|...........|C-528......|C-519......|...........|...........|...........|...........|...........|G#608......|D#608......|A#508......|F-508......|...........|...........|...........
|...........|...........|...........|...........|...........|...........|...........|...........|...........|...........|...........|...........|...........|...........|...........|...........|...........|...........|...........|...........|...........|...........|...........|...........|...........|...........|...........|...........
|...........|...........|...........|...........|...........|...........|...........|...........|...........|...........|...........|...........|...........|...........|...........|...........|...........|...........|...........|...........|...........|...........|...........|...........|...........|...........|...........|...........
|...........|...........|...........|...........|...........|...........|...........|...........|^^^........|^^^........|...........|...........|...........|...........|...........|...........|...........|...........|...........|...........|...........|===........|===........|===........|===........|...........|...........|...........
|...........|...........|...........|...........|...........|...........|...........|...........|...........|...........|...........|...........|...........|...........|...........|...........|...........|...........|...........|...........|...........|...........|...........|...........|...........|...........|...........|...........
|...........|...........|...........|...........|...........|...........|...........|...........|...........|...........|...........|C-403......|...........|...........|...........|...........|...........|...........|...........|...........|...........|...........|...........|...........|...........|...........|...........|...........
|...........|...........|...........|...........|...........|...........|...........|...........|...........|...........|...........|...........|...........|...........|...........|...........|...........|...........|...........|...........|...........|...........|...........|...........|...........|...........|...........|...........
|...........|...........|...........|...........|...........|...........|...........|...........|...........|...........|...........|...........|...........|...........|...........|...........|...........|...........|...........|...........|...........|...........|...........|...........|...........|...........|...........|...........
|...........|C-402......|...........|...........|...........|...........|...........|...........|...........|...........|C-403......|G-522......|...........|...........|C-527......|F-518......|F-511......|...........|...........|...........|...........|...........|...........|...........|...........|...........|...........|...........
|...........|...........|...........|...........|...........|...........|...........|...........|...........|...........|...........|...........|...........|...........|...........|...........|...........|...........|...........|...........|...........|...........|...........|...........|...........|...........|...........|...........
|...........|...........|...........|...........|...........|...........|...........|...........|...........|...........|...........|...........|...........|...........|...........|...........|...........|...........|...........|...........|...........|...........|...........|...........|...........|...........|...........|...........
|...........|...........|...........|...........|...........|...........|...........|...........|...........|...........|...........|...........|...........|...........|...........|...........|...........|...........|...........|...........|...........|...........|...........|...........|...........|...........|...........|...........
|...........|...........|...........|...........|...........|...........|...........|...........|...........|...........|...........|...........|...........|...........|...........|...........|...........|...........|...........|...........|...........|...........|...........|...........|...........|...........|...........|...........
|...........|...........|C#506......|G#406......|D#406......|F-406......|G#306......|...........|...........|...........|...........|...........|...........|...........|C-527......|...........|...........|F-610...M40|...........|...........|...........|...........|...........|...........|...........|...........|...........|...........
|...........|...........|...........|...........|...........|...........|...........|...........|...........|...........|...........|...........|...........|...........|...........|...........|...........|...........|...........|...........|...........|...........|...........|...........|...........|...........|...........|...........
|...........|...........|...........|...........|...........|...........|...........|...........|...........|...........|...........|...........|...........|...........|...........|...........|...........|...........|...........|...........|...........|...........|...........|...........|...........|...........|...........|...........
|...........|...........|...........|...........|...........|...........|...........|...........|G#529......|C#629......|G-404......|C-522......|G-525......|...........|C-528......|C-519......|...........|A#610......|C#511......|...........|...........|...........|...........|...........|...........|...........|...........|...........
|...........|...........|...........|...........|...........|...........|...........|...........|...........|...........|...........|...........|...........|...........|...........|...........|...........|...........|...........|...........|...........|...........|...........|...........|...........|...........|...........|...........
|...........|...........|...........|...........|...........|...........|...........|...........|...........|...........|...........|...........|...........|...........|...........|...........|...........|...........|...........|...........|...........|...........|...........|...........|...........|...........|...........|...........
|...........|...........|...........|...........|...........|...........|...........|...........|^^^........|^^^........|...........|...........|...........|...........|...........|...........|...........|...........|...........|...........|...........|...........|...........|...........|...........|...........|...........|...........
|...........|...........|...........|...........|...........|...........|...........|...........|...........|...........|...........|...........|...........|...........|...........|...........|...........|...........|^^^........|...........|...........|...........|...........|...........|...........|...........|...........|...........
|...........|...........|...........|...........|...........|...........|...........|...........|...........|...........|C-403......|C-522......|...........|...........|...........|F-518......|^^^........|C#710......|...........|...........|...........|...........|...........|...........|...........|...........|...........|...........
|...........|...........|...........|...........|...........|...........|...........|...........|...........|...........|...........|...........|...........|...........|...........|...........|...........|...........|...........|...........|...........|...........|...........|...........|...........|...........|...........|...........
|...........|...........|...........|...........|...........|...........|...........|...........|...........|...........|...........|...........|...........|...........|...........|...........|...........|...........|...........|...........|...........|...........|...........|...........|...........|...........|...........|...........
Rows: 64
|...........|A#302......|C-506......|G#406......|F-406......|C#406......|C-406......|...........|...........|...........|G-422......|C-403......|...........|C-520......|C-527......|C-519......|...........|C-710......|D#511......|...........|...........|...........|...........|...........|...........|...........|...........|...........
|...........|...........|...........|...........|...........|...........|...........|...........|...........|...........|...........|...........|...........|...........|...........|...........|...........|...........|...........|...........|...........|...........|...........|...........|...........|...........|...........|...........
|...........|...........|...........|...........|...........|...........|...........|...........|...........|...........|...........|...........|...........|...........|...........|...........|...........|...........|...........|...........|...........|...........|...........|...........|...........|...........|...........|...........
|...........|...........|...........|...........|...........|...........|...........|...........|...........|...........|...........|...........|...........|...........|...........|...........|...........|...........|...........|...........|...........|...........|...........|...........|...........|...........|...........|...........
|...........|...........|...........|...........|...........|...........|...........|...........|...........|...........|...........|...........|...........|...........|...........|...........|...........|...........|...........|...........|...........|...........|...........|...........|...........|...........|...........|...........
|...........|...........|...........|...........|...........|...........|...........|...........|...........|...........|...........|...........|...........|...........|C-527......|...........|...........|A#610......|...........|...........|...........|...........|...........|...........|...........|...........|...........|...........
|...........|...........|...........|...........|...........|...........|...........|...........|...........|...........|...........|...........|...........|...........|...........|...........|...........|...........|...........|...........|...........|...........|...........|...........|...........|...........|...........|...........
|...........|...........|...........|...........|...........|...........|...........|...........|...........|...........|...........|...........|...........|...........|...........|...........|...........|...........|...........|...........|...........|...........|...........|...........|...........|...........|...........|...........
|...........|...........|...........|...........|...........|...........|...........|...........|...........|...........|C-503......|G-404......|C-526......|...........|C-528......|...........|...........|........E10|...........|G-511......|...........|...........|...........|...........|...........|...........|...........|...........
|...........|...........|...........|...........|...........|...........|...........|...........|...........|...........|...........|...........|...........|...........|...........|...........|...........|...........|...........|...........|...........|...........|...........|...........|...........|...........|...........|...........
|...........|...........|...........|...........|...........|...........|...........|...........|...........|...........|...........|...........|...........|...........|...........|...........|...........|...........|...........|...........|...........|...........|...........|...........|...........|...........|...........|...........
|...........|...........|...........|...........|...........|...........|...........|...........|...........|...........|...........|...........|...........|...........|...........|...........|...........|...........|...........|...........|...........|...........|...........|...........|...........|...........|...........|...........
|...........|...........|...........|...........|...........|...........|...........|...........|...........|...........|...........|...........|...........|...........|...........|...........|...........|...........|...........|...........|...........|...........|...........|...........|...........|...........|...........|...........
|...........|...........|...........|...........|...........|...........|...........|...........|...........|...........|...........|C-403......|...........|...........|...........|...........|...........|F-610......|...........|...........|...........|...........|...........|...........|...........|...........|...........|...........
|...........|...........|...........|...........|...........|...........|...........|...........|...........|...........|...........|...........|...........|...........|...........|...........|...........|...........|...........|...........|...........|...........|...........|...........|...........|...........|...........|...........
|...........|...........|...........|...........|...........|...........|...........|...........|...........|...........|...........|...........|...........|...........|...........|...........|...........|...........|...........|...........|...........|...........|...........|...........|...........|...........|...........|...........
|...........|F-302......|...........|...........|...........|...........|...........|...........|...........|...........|C-403......|...........|...........|...........|C-527......|F-518......|...........|........E10|F-511......|...........|...........|...........|...........|...........|...........|...........|...........|...........
|...........|...........|...........|...........|...........|...........|...........|...........|...........|...........|...........|...........|...........|...........|...........|...........|...........|...........|...........|...........|...........|...........|...........|...........|...........|...........|...........|...........
|...........|...........|...........|...........|...........|...........|...........|...........|...........|...........|...........|...........|...........|...........|...........|...........|...........|...........|...........|...........|...........|...........|...........|...........|...........|...........|...........|...........
|...........|...........|...........|...........|...........|...........|...........|...........|...........|...........|...........|...........|...........|...........|...........|...........|...........|...........|...........|...........|...........|...........|...........|...........|...........|...........|...........|...........
|...........|...........|...........|...........|...........|...........|...........|...........|...........|...........|...........|...........|...........|...........|...........|...........|...........|...........|...........|...........|...........|...........|...........|...........|...........|...........|...........|...........
|...........|...........|...........|...........|...........|...........|...........|...........|...........|...........|...........|...........|...........|...........|C-527......|...........|...........|G#610......|...........|...........|...........|...........|...........|...........|...........|...........|...........|...........
|...........|...........|...........|...........|...........|...........|...........|...........|...........|...........|...........|...........|...........|...........|...........|...........|...........|...........|...........|...........|...........|...........|...........|...........|...........|...........|...........|...........
|...........|...........|...........|...........|...........|...........|...........|...........|...........|...........|...........|...........|...........|...........|...........|...........|...........|...........|...........|...........|...........|...........|...........|...........|...........|...........|...........|...........
|...........|...........|...........|...........|...........|...........|...........|...........|...........|...........|G-404......|C-503......|G-525......|...........|C-528......|...........|...........|F-610......|...........|G#511......|...........|...........|...........|...........|...........|...........|...........|...........
|...........|...........|...........|...........|...........|...........|...........|...........|...........|...........|...........|...........|...........|...........|...........|...........|...........|...........|...........|...........|...........|...........|...........|...........|...........|...........|...........|...........
|...........|...........|...........|...........|...........|...........|...........|...........|...........|...........|...........|...........|...........|...........|...........|...........|...........|........E10|...........|...........|...........|...........|...........|...........|...........|...........|...........|...........
|...........|...........|...........|...........|...........|...........|...........|...........|...........|...........|...........|...........|...........|...........|...........|...........|...........|...........|...........|...........|...........|...........|...........|...........|...........|...........|...........|...........
|...........|...........|...........|...........|...........|...........|...........|...........|...........|...........|...........|...........|...........|...........|...........|...........|...........|...........|...........|^^^........|...........|...........|...........|...........|...........|...........|...........|...........
|...........|...........|...........|...........|...........|...........|...........|...........|...........|...........|C-403......|...........|...........|...........|...........|F-518......|...........|........E10|G-511......|...........|...........|...........|...........|...........|...........|...........|...........|...........
|...........|...........|...........|...........|...........|...........|...........|...........|...........|...........|...........|...........|...........|...........|...........|...........|...........|...........|...........|...........|...........|...........|...........|...........|...........|...........|...........|...........
|...........|...........|...........|...........|...........|...........|...........|...........|...........|...........|...........|...........|...........|...........|...........|...........|...........|...........|...........|...........|...........|...........|...........|...........|...........|...........|...........|...........
|...........|D#302......|...........|...........|...........|...........|...........|...........|...........|...........|...........|C-403......|...........|...........|C-527......|...........|...........|C-610......|...........|A#511......|...........|...........|...........|...........|...........|...........|...........|...........
|...........|...........|...........|...........|...........|...........|...........|...........|...........|...........|...........|...........|...........|...........|...........|...........|...........|...........|...........|...........|...........|...........|...........|...........|...........|...........|...........|...........
|...........|...........|...........|...........|...........|...........|...........|...........|...........|...........|...........|...........|...........|...........|...........|...........|...........|...........|...........|...........|...........|...........|...........|...........|...........|...........|...........|...........
|...........|...........|...........|...........|...........|...........|...........|...........|...........|...........|...........|...........|...........|...........|...........|...........|...........|...........|...........|...........|...........|...........|...........|...........|...........|...........|...........|...........
|...........|...........|...........|...........|...........|...........|...........|...........|...........|...........|...........|...........|...........|...........|...........|...........|...........|...........|...........|...........|...........|...........|...........|...........|...........|...........|...........|...........
|...........|...........|...........|...........|...........|...........|...........|...........|...........|...........|...........|...........|...........|...........|C-527......|...........|...........|........F08|...........|...........|...........|...........|...........|...........|...........|...........|...........|...........
|...........|...........|...........|...........|...........|...........|...........|...........|...........|...........|...........|...........|...........|...........|...........|...........|...........|...........|...........|...........|...........|...........|...........|...........|...........|...........|...........|...........
|...........|...........|...........|...........|...........|...........|...........|...........|...........|...........|...........|...........|...........|...........|...........|...........|...........|...........|...........|...........|...........|...........|...........|...........|...........|...........|...........|...........
|...........|...........|C#306......|G-306......|C-406......|...........|...........|...........|...........|...........|C-503......|G-404......|C-526......|...........|C-528......|C-519......|...........|E-610......|...........|...........|...........|...........|...........|...........|...........|...........|...........|...........
|...........|...........|...........|...........|...........|...........|...........|...........|...........|...........|...........|...........|...........|...........|...........|...........|...........|...........|...........|...........|...........|...........|...........|...........|...........|...........|...........|...........
|...........|...........|...........|...........|...........|...........|...........|...........|...........|...........|...........|...........|...........|...........|...........|...........|...........|...........|...........|...........|...........|...........|...........|...........|...........|...........|...........|...........
|...........|...........|...........|...........|...........|...........|...........|...........|...........|...........|...........|...........|...........|...........|...........|...........|...........|...........|...........|...........|...........|...........|...........|...........|...........|...........|...........|...........
|...........|...........|...........|...........|...........|...........|...........|...........|...........|...........|...........|...........|...........|...........|...........|...........|...........|...........|...........|...........|...........|...........|...........|...........|...........|...........|...........|...........
|...........|...........|...........|...........|...........|...........|...........|...........|...........|...........|...........|C-403......|...........|...........|...........|...........|...........|G-610......|...........|...........|...........|...........|...........|...........|...........|...........|...........|...........
|...........|...........|...........|...........|...........|...........|...........|...........|...........|...........|...........|...........|...........|...........|...........|...........|...........|...........|...........|...........|...........|...........|...........|...........|...........|...........|...........|...........
|...........|...........|...........|...........|...........|...........|...........|...........|...........|...........|...........|...........|...........|...........|...........|...........|...........|...........|...........|...........|...........|...........|...........|...........|...........|...........|...........|...........
|...........|A#302......|...........|...........|...........|...........|...........|...........|...........|...........|C-403......|...........|...........|...........|C-527......|F-518......|...........|C-710......|...........|C-611......|...........|...........|...........|...........|...........|...........|...........|...........
|...........|...........|...........|...........|...........|...........|...........|...........|...........|...........|...........|...........|...........|...........|...........|...........|...........|...........|...........|...........|...........|...........|...........|...........|...........|...........|...........|...........
|...........|...........|...........|...........|...........|...........|...........|...........|...........|...........|...........|...........|...........|...........|...........|...........|...........|...........|...........|...........|...........|...........|...........|...........|...........|...........|...........|...........
|...........|...........|...........|...........|...........|...........|...........|...........|...........|...........|...........|...........|...........|...........|...........|...........|...........|...........|...........|...........|...........|...........|...........|...........|...........|...........|...........|...........
|...........|...........|...........|...........|...........|...........|...........|...........|...........|...........|...........|...........|...........|...........|...........|...........|...........|...........|...........|...........|...........|...........|...........|...........|...........|...........|...........|...........
|...........|...........|...........|...........|...........|...........|...........|...........|...........|...........|...........|...........|...........|...........|C-527......|...........|...........|A-610......|...........|...........|...........|...........|...........|...........|...........|...........|...........|...........
|...........|...........|...........|...........|...........|...........|...........|...........|...........|...........|...........|...........|...........|...........|...........|...........|...........|...........|...........|...........|...........|...........|...........|...........|...........|...........|...........|...........
|...........|...........|...........|...........|...........|...........|...........|...........|...........|...........|...........|...........|...........|...........|...........|...........|...........|...........|...........|...........|...........|...........|...........|...........|...........|...........|...........|...........
|...........|...........|...........|...........|...........|...........|...........|...........|...........|...........|G-404......|C-503......|G-525......|...........|C-528......|C-519......|...........|........E10|...........|...........|...........|...........|...........|...........|...........|...........|...........|...........
|...........|...........|...........|...........|...........|...........|...........|...........|...........|...........|...........|...........|...........|...........|...........|...........|...........|...........|...........|...........|...........|...........|...........|...........|...........|...........|...........|...........
|...........|...........|...........|...........|...........|...........|...........|...........|...........|...........|...........|...........|...........|...........|...........|...........|...........|...........|...........|...........|...........|...........|...........|...........|...........|...........|...........|...........
|...........|...........|...........|...........|...........|...........|...........|...........|...........|...........|...........|...........|...........|...........|...........|...........|...........|...........|...........|...........|...........|...........|...........|...........|...........|...........|...........|...........
|...........|...........|...........|...........|...........|...........|...........|...........|...........|...........|...........|...........|...........|...........|...........|...........|...........|...........|...........|...........|...........|...........|...........|...........|...........|...........|...........|...........
|...........|...........|...........|...........|...........|...........|...........|...........|...........|...........|C-403......|...........|...........|...........|...........|...........|...........|F-610......|...........|D-611......|...........|...........|...........|...........|...........|...........|...........|...........
|...........|...........|...........|...........|...........|...........|...........|...........|...........|...........|...........|...........|...........|...........|...........|...........|...........|...........|...........|...........|...........|...........|...........|...........|...........|...........|...........|...........
|...........|...........|...........|...........|...........|...........|...........|...........|...........|...........|...........|...........|...........|...........|...........|...........|...........|...........|...........|...........|...........|...........|...........|...........|...........|...........|...........|...........
Rows: 64
|...........|F-302......|G-406......|D-406......|A-306......|E-306......|...........|...........|...........|...........|...........|C-403......|...........|...........|C-527......|C-519......|...........|E-610......|...........|...........|...........|...........|...........|...........|...........|...........|...........|...........
|...........|...........|...........|...........|...........|...........|...........|...........|...........|...........|...........|...........|...........|...........|...........|...........|...........|...........|...........|...........|...........|...........|...........|...........|...........|...........|...........|...........
|...........|...........|...........|...........|...........|...........|...........|...........|...........|...........|...........|...........|...........|...........|...........|...........|...........|...........|...........|...........|...........|...........|...........|...........|...........|...........|...........|...........
|...........|...........|...........|...........|...........|...........|...........|...........|...........|...........|...........|...........|...........|...........|...........|...........|...........|...........|...........|...........|...........|...........|...........|...........|...........|...........|...........|...........
|...........|...........|...........|...........|...........|...........|...........|...........|...........|...........|...........|...........|...........|...........|...........|...........|...........|...........|...........|...........|...........|...........|...........|...........|...........|...........|...........|...........
|...........|...........|...........|...........|...........|...........|...........|...........|...........|...........|...........|...........|...........|...........|C-527......|...........|...........|F-610......|...........|...........|...........|...........|...........|...........|...........|...........|...........|...........
|...........|...........|...........|...........|...........|...........|...........|...........|...........|...........|...........|...........|...........|...........|...........|...........|...........|...........|...........|...........|...........|...........|...........|...........|...........|...........|...........|...........
|...........|...........|...........|...........|...........|...........|...........|...........|...........|...........|...........|...........|...........|...........|...........|...........|...........|...........|...........|...........|...........|...........|...........|...........|...........|...........|...........|...........
|...........|...........|...........|...........|...........|...........|...........|...........|...........|...........|C-503......|G-404......|C-526......|...........|C-528......|...........|...........|A-610......|B-410......|...........|...........|...........|...........|...........|...........|...........|...........|...........
|...........|...........|...........|...........|...........|...........|...........|...........|...........|...........|...........|...........|...........|...........|...........|...........|...........|...........|...........|...........|...........|...........|...........|...........|...........|...........|...........|...........
|...........|...........|...........|...........|...........|...........|...........|...........|...........|...........|...........|...........|...........|...........|...........|...........|...........|...........|...........|...........|...........|...........|...........|...........|...........|...........|...........|...........
|...........|...........|...........|...........|...........|...........|...........|...........|...........|...........|...........|...........|...........|...........|...........|...........|...........|...........|...........|...........|...........|...........|...........|...........|...........|...........|...........|...........
|...........|...........|...........|...........|...........|...........|...........|...........|...........|...........|...........|...........|...........|...........|...........|...........|...........|...........|...........|...........|...........|...........|...........|...........|...........|...........|...........|...........
|...........|...........|...........|...........|...........|...........|...........|...........|...........|...........|...........|C-403......|...........|...........|...........|...........|...........|C-710......|...........|...........|...........|...........|...........|...........|...........|...........|...........|...........
|...........|...........|...........|...........|...........|...........|...........|...........|...........|...........|...........|...........|...........|...........|...........|...........|...........|...........|...........|...........|...........|...........|...........|...........|...........|...........|...........|...........
|...........|...........|...........|...........|...........|...........|...........|...........|...........|...........|...........|...........|...........|...........|...........|...........|...........|...........|...........|...........|...........|...........|...........|...........|...........|...........|...........|...........
|...........|E-302......|A-406......|D-406......|G-306......|B-306......|...........|...........|...........|...........|C-403......|...........|...........|...........|C-527......|F-518......|...........|E-710......|...........|...........|...........|...........|...........|...........|...........|...........|...........|...........
|...........|...........|...........|...........|...........|...........|...........|...........|...........|...........|...........|...........|...........|...........|...........|...........|...........|...........|...........|...........|...........|...........|...........|...........|...........|...........|...........|...........
|...........|...........|...........|...........|...........|...........|...........|...........|...........|...........|...........|...........|...........|...........|...........|...........|...........|...........|...........|...........|...........|...........|...........|...........|...........|...........|...........|...........
|...........|...........|...........|...........|...........|...........|...........|...........|...........|...........|...........|...........|...........|...........|...........|...........|...........|...........|...........|...........|...........|...........|...........|...........|...........|...........|...........|...........
|...........|...........|...........|...........|...........|...........|...........|...........|...........|...........|...........|...........|...........|...........|...........|...........|...........|...........|...........|...........|...........|...........|...........|...........|...........|...........|...........|...........
|...........|...........|...........|...........|...........|...........|...........|...........|...........|...........|...........|...........|...........|...........|C-527......|...........|...........|........E10|...........|...........|...........|...........|...........|...........|...........|...........|...........|...........
|...........|...........|...........|...........|...........|...........|...........|...........|...........|...........|...........|...........|...........|...........|...........|...........|...........|...........|...........|...........|...........|...........|...........|...........|...........|...........|...........|...........
|...........|...........|...........|...........|...........|...........|...........|...........|...........|...........|...........|...........|...........|...........|...........|...........|...........|...........|...........|...........|...........|...........|...........|...........|...........|...........|...........|...........
|...........|...........|...........|...........|...........|...........|...........|...........|...........|...........|G-404......|C-503......|G-525......|...........|C-528......|...........|...........|C-710......|C-510......|...........|...........|...........|...........|...........|...........|...........|...........|...........
|...........|...........|...........|...........|...........|...........|...........|...........|...........|...........|...........|...........|...........|...........|...........|...........|...........|...........|...........|...........|...........|...........|...........|...........|...........|...........|...........|...........
|...........|...........|...........|...........|...........|...........|...........|...........|...........|...........|...........|...........|...........|...........|...........|...........|...........|...........|...........|...........|...........|...........|...........|...........|...........|...........|...........|...........
|...........|...........|...........|...........|...........|...........|...........|...........|...........|...........|...........|...........|...........|...........|...........|...........|...........|...........|...........|...........|...........|...........|...........|...........|...........|...........|...........|...........
|...........|...........|...........|...........|...........|...........|...........|...........|...........|...........|...........|...........|...........|...........|...........|...........|...........|...........|^^^........|...........|...........|...........|...........|...........|...........|...........|...........|...........
|...........|...........|...........|...........|...........|...........|...........|...........|...........|...........|C-403......|...........|...........|...........|...........|F-518......|...........|A-610......|...........|...........|...........|...........|...........|...........|...........|...........|...........|...........
|...........|...........|...........|...........|...........|...........|...........|...........|...........|...........|...........|...........|...........|...........|...........|...........|...........|...........|...........|...........|...........|...........|...........|...........|...........|...........|...........|...........
|...........|...........|...........|...........|...........|...........|...........|...........|...........|...........|...........|...........|...........|...........|...........|...........|...........|...........|...........|...........|...........|...........|...........|...........|...........|...........|...........|...........
|...........|D-302......|B-406......|G-406......|E-406......|C-406......|F-306......|...........|...........|...........|...........|C-403......|...........|...........|C-527......|...........|...........|........E10|D-510......|...........|...........|...........|...........|...........|...........|...........|...........|...........
|...........|...........|...........|...........|...........|...........|...........|...........|...........|...........|...........|...........|...........|...........|...........|...........|...........|...........|...........|...........|...........|...........|...........|...........|...........|...........|...........|...........
|...........|...........|...........|...........|...........|...........|...........|...........|...........|...........|...........|...........|...........|...........|...........|...........|...........|...........|...........|...........|...........|...........|...........|...........|...........|...........|...........|...........
|...........|...........|...........|...........|...........|...........|...........|...........|...........|...........|...........|...........|...........|...........|...........|...........|...........|...........|...........|...........|...........|...........|...........|...........|...........|...........|...........|...........
|...........|...........|...........|...........|...........|...........|...........|...........|...........|...........|...........|...........|...........|...........|...........|...........|...........|...........|...........|...........|...........|...........|...........|...........|...........|...........|...........|...........
|...........|...........|...........|...........|...........|...........|...........|...........|...........|...........|...........|...........|...........|...........|C-527......|...........|...........|F#610......|...........|...........|...........|...........|...........|...........|...........|...........|...........|...........
|...........|...........|...........|...........|...........|...........|...........|...........|...........|...........|...........|...........|...........|...........|...........|...........|...........|...........|...........|...........|...........|...........|...........|...........|...........|...........|...........|...........
|...........|...........|...........|...........|...........|...........|...........|...........|...........|...........|...........|...........|...........|...........|...........|...........|...........|...........|...........|...........|...........|...........|...........|...........|...........|...........|...........|...........
|...........|...........|...........|...........|...........|...........|...........|...........|...........|...........|C-503......|G-404......|C-526......|...........|C-528......|C-519......|...........|F-610......|...........|...........|...........|...........|...........|...........|...........|...........|...........|...........
|...........|...........|...........|...........|...........|...........|...........|...........|...........|...........|...........|...........|...........|...........|...........|...........|...........|...........|...........|...........|...........|...........|...........|...........|...........|...........|...........|...........
|...........|...........|...........|...........|...........|...........|...........|...........|...........|...........|...........|...........|...........|...........|...........|...........|...........|...........|...........|...........|...........|...........|...........|...........|...........|...........|...........|...........
|...........|...........|...........|...........|...........|...........|...........|...........|...........|...........|...........|...........|...........|...........|...........|...........|...........|...........|...........|...........|...........|...........|...........|...........|...........|...........|...........|...........
|...........|...........|...........|...........|...........|...........|...........|...........|...........|...........|...........|...........|...........|...........|...........|...........|...........|...........|...........|...........|...........|...........|...........|...........|...........|...........|...........|...........
|...........|...........|...........|...........|...........|...........|...........|...........|...........|...........|...........|C-403......|...........|...........|...........|...........|...........|C-710......|...........|...........|...........|...........|...........|...........|...........|...........|...........|...........
|...........|...........|...........|...........|...........|...........|...........|...........|...........|...........|...........|...........|...........|...........|...........|...........|...........|...........|...........|...........|...........|...........|...........|...........|...........|...........|...........|...........
|...........|...........|...........|...........|...........|...........|...........|...........|...........|...........|...........|...........|...........|...........|...........|...........|...........|...........|...........|...........|...........|...........|...........|...........|...........|...........|...........|...........
|...........|C-302......|C-506......|G-406......|F-406......|E-406......|A-306......|...........|...........|...........|C-403......|...........|...........|...........|C-527......|F-518......|...........|E-610......|E-510......|...........|...........|...........|...........|...........|...........|...........|...........|...........
|...........|...........|...........|...........|...........|...........|...........|...........|...........|...........|...........|...........|...........|...........|...........|...........|...........|...........|...........|...........|...........|...........|...........|...........|...........|...........|...........|...........
|...........|...........|...........|...........|...........|...........|...........|...........|...........|...........|...........|...........|...........|...........|...........|...........|...........|...........|...........|...........|...........|...........|...........|...........|...........|...........|...........|...........
|...........|...........|...........|...........|...........|...........|...........|...........|...........|...........|...........|...........|...........|...........|...........|...........|...........|...........|...........|...........|...........|...........|...........|...........|...........|...........|...........|...........
|...........|...........|...........|...........|...........|...........|...........|...........|...........|...........|...........|...........|...........|...........|...........|...........|...........|...........|...........|...........|...........|...........|...........|...........|...........|...........|...........|...........
|...........|...........|...........|...........|...........|...........|...........|...........|...........|...........|...........|...........|...........|...........|C-527......|...........|...........|........E10|...........|...........|...........|...........|...........|...........|...........|...........|...........|...........
|...........|...........|...........|...........|...........|...........|...........|...........|...........|...........|...........|...........|...........|...........|...........|...........|...........|...........|...........|...........|...........|...........|...........|...........|...........|...........|...........|...........
|...........|...........|...........|...........|...........|...........|...........|...........|...........|...........|...........|...........|...........|...........|...........|...........|...........|...........|...........|...........|...........|...........|...........|...........|...........|...........|...........|...........
|...........|...........|...........|...........|...........|...........|...........|...........|...........|...........|G-404......|C-503......|G-525......|...........|C-528......|...........|...........|C#610......|...........|...........|...........|...........|...........|...........|...........|...........|...........|...........
|...........|...........|...........|...........|...........|...........|...........|...........|...........|...........|...........|...........|...........|...........|...........|...........|...........|...........|...........|...........|...........|...........|...........|...........|...........|...........|...........|...........
|...........|...........|...........|...........|...........|...........|...........|...........|...........|...........|...........|...........|...........|...........|...........|...........|...........|...........|...........|...........|...........|...........|...........|...........|...........|...........|...........|...........
|...........|...........|...........|...........|...........|...........|...........|...........|...........|...........|...........|...........|...........|...........|...........|...........|...........|...........|...........|...........|...........|...........|...........|...........|...........|...........|...........|...........
|...........|...........|...........|...........|...........|...........|...........|...........|...........|...........|...........|...........|...........|...........|...........|...........|...........|...........|...........|...........|...........|...........|...........|...........|...........|...........|...........|...........
|...........|...........|...........|...........|...........|...........|...........|...........|...........|...........|C-403......|...........|...........|...........|...........|C-519......|...........|........F09|F-510......|...........|...........|...........|...........|...........|...........|...........|...........|...........
|...........|...........|...........|...........|...........|...........|...........|...........|...........|...........|...........|...........|...........|...........|...........|...........|...........|...........|...........|...........|...........|...........|...........|...........|...........|...........|...........|...........
|...........|...........|...........|...........|...........|...........|...........|...........|...........|...........|...........|...........|...........|...........|...........|...........|...........|...........|...........|...........|...........|...........|...........|...........|...........|...........|...........|...........
Rows: 64
|...........|B-202......|D-506......|F-406......|E-406......|A-306......|F-306......|...........|...........|...........|C-522......|C-403......|...........|...........|C-527......|C-519......|...........|E-610......|...........|...........|...........|...........|...........|...........|...........|...........|...........|...........
|...........|...........|...........|...........|...........|...........|...........|...........|...........|...........|...........|...........|...........|...........|...........|...........|...........|...........|...........|...........|...........|...........|...........|...........|...........|...........|...........|...........
|...........|...........|...........|...........|...........|...........|...........|...........|...........|...........|...........|...........|...........|...........|...........|...........|...........|...........|...........|...........|...........|...........|...........|...........|...........|...........|...........|...........
|...........|...........|...........|...........|...........|...........|...........|...........|...........|...........|...........|...........|...........|...........|...........|...........|...........|...........|...........|...........|...........|...........|...........|...........|...........|...........|...........|...........
|...........|...........|...........|...........|...........|...........|...........|...........|...........|...........|...........|...........|...........|...........|...........|...........|...........|........F09|...........|...........|...........|...........|...........|...........|...........|...........|...........|...........
|...........|...........|...........|...........|...........|...........|...........|...........|...........|...........|...........|...........|...........|...........|C-527......|...........|...........|...........|...........|...........|...........|...........|...........|...........|...........|...........|...........|...........
|...........|...........|...........|...........|...........|...........|...........|...........|...........|...........|...........|...........|...........|...........|...........|...........|...........|...........|...........|...........|...........|...........|...........|...........|...........|...........|...........|...........
|...........|...........|...........|...........|...........|...........|...........|...........|...........|...........|...........|...........|...........|...........|...........|...........|...........|...........|...........|...........|...........|...........|...........|...........|...........|...........|...........|...........
|...........|...........|...........|...........|...........|...........|...........|...........|...........|...........|C-503......|G-404......|C-526......|...........|C-528......|...........|...........|D-610......|...........|A-511......|...........|...........|...........|...........|...........|...........|...........|...........
|...........|...........|...........|...........|...........|...........|...........|...........|...........|...........|...........|...........|...........|...........|...........|...........|...........|...........|...........|...........|...........|...........|...........|...........|...........|...........|...........|...........
|...........|...........|...........|...........|...........|...........|...........|...........|...........|...........|...........|...........|...........|...........|...........|...........|...........|...........|...........|...........|...........|...........|...........|...........|...........|...........|...........|...........
|...........|...........|...........|...........|...........|...........|...........|...........|...........|...........|...........|...........|...........|...........|...........|...........|...........|...........|...........|...........|...........|...........|...........|...........|...........|...........|...........|...........
|...........|...........|...........|...........|...........|...........|...........|...........|...........|...........|...........|...........|...........|...........|...........|...........|...........|...........|...........|...........|...........|...........|...........|...........|...........|...........|...........|...........
|...........|...........|...........|...........|...........|...........|...........|...........|...........|...........|...........|C-403......|...........|...........|...........|...........|...........|B-510......|...........|...........|...........|...........|...........|...........|...........|...........|...........|...........
|...........|...........|...........|...........|...........|...........|...........|...........|...........|...........|...........|...........|...........|...........|...........|...........|...........|...........|...........|...........|...........|...........|...........|...........|...........|...........|...........|...........
|...........|...........|...........|...........|...........|...........|...........|...........|...........|...........|...........|...........|...........|...........|...........|...........|...........|...........|...........|...........|...........|...........|...........|...........|...........|...........|...........|...........
|...........|F-302......|...........|...........|...........|...........|...........|...........|...........|...........|C-403......|...........|...........|...........|C-527......|F-518......|...........|........E10|...........|...........|...........|...........|...........|...........|...........|...........|...........|...........
|...........|...........|...........|...........|...........|...........|...........|...........|...........|...........|...........|...........|...........|...........|...........|...........|...........|...........|...........|...........|...........|...........|...........|...........|...........|...........|...........|...........
|...........|...........|...........|...........|...........|...........|...........|...........|...........|...........|...........|...........|...........|...........|...........|...........|...........|...........|...........|...........|...........|...........|...........|...........|...........|...........|...........|...........
|...........|...........|...........|...........|...........|...........|...........|...........|...........|...........|...........|...........|...........|...........|...........|...........|...........|...........|...........|...........|...........|...........|...........|...........|...........|...........|...........|...........
|...........|...........|...........|...........|...........|...........|...........|...........|...........|...........|...........|...........|...........|...........|...........|...........|...........|...........|...........|...........|...........|...........|...........|...........|...........|...........|...........|...........
|...........|...........|...........|...........|...........|...........|...........|...........|...........|...........|...........|...........|...........|...........|C-527......|...........|...........|G-510......|...........|...........|...........|...........|...........|...........|...........|...........|...........|...........
|...........|...........|...........|...........|...........|...........|...........|...........|...........|...........|...........|...........|...........|...........|...........|...........|...........|...........|...........|...........|...........|...........|...........|...........|...........|...........|...........|...........
|...........|...........|...........|...........|...........|...........|...........|...........|...........|...........|...........|...........|...........|...........|...........|...........|...........|...........|...........|...........|...........|...........|...........|...........|...........|...........|...........|...........
|...........|...........|...........|...........|...........|...........|...........|...........|...........|...........|G-404......|C-503......|G-525......|...........|C-528......|...........|...........|........F08|...........|B-511......|...........|...........|...........|...........|...........|...........|...........|...........
|...........|...........|...........|...........|...........|...........|...........|...........|...........|...........|...........|...........|...........|...........|...........|...........|...........|...........|...........|...........|...........|...........|...........|...........|...........|...........|...........|...........
|...........|...........|...........|...........|...........|...........|...........|...........|...........|...........|...........|...........|...........|...........|...........|...........|...........|...........|...........|...........|...........|...........|...........|...........|...........|...........|...........|...........
|...........|...........|...........|...........|...........|...........|...........|...........|...........|...........|...........|...........|...........|...........|...........|...........|...........|...........|...........|...........|...........|...........|...........|...........|...........|...........|...........|...........
|...........|...........|...........|...........|...........|...........|...........|...........|...........|...........|...........|...........|...........|...........|...........|...........|...........|...........|...........|^^^........|...........|...........|...........|...........|...........|...........|...........|...........
|...........|...........|...........|...........|...........|...........|...........|...........|...........|...........|C-403......|...........|...........|...........|...........|F-518......|...........|...........|...........|...........|...........|...........|...........|...........|...........|...........|...........|...........
|...........|...........|...........|...........|...........|...........|...........|...........|...........|...........|...........|...........|...........|...........|...........|...........|...........|...........|...........|...........|...........|...........|...........|...........|...........|...........|...........|...........
|...........|...........|...........|...........|...........|...........|...........|...........|...........|...........|...........|...........|...........|...........|...........|...........|...........|...........|...........|...........|...........|...........|...........|...........|...........|...........|...........|...........
|...........|E-302......|...........|...........|...........|...........|...........|...........|...........|...........|...........|C-403......|...........|...........|C-527......|...........|...........|...........|E-511......|C-611......|...........|...........|...........|...........|...........|...........|...........|...........
|...........|...........|...........|...........|...........|...........|...........|...........|...........|...........|...........|...........|...........|...........|...........|...........|...........|...........|...........|...........|...........|...........|...........|...........|...........|...........|...........|...........
|...........|...........|...........|...........|...........|...........|...........|...........|...........|...........|...........|...........|...........|...........|...........|...........|...........|...........|...........|...........|...........|...........|...........|...........|...........|...........|...........|...........
|...........|...........|...........|...........|...........|...........|...........|...........|...........|...........|...........|...........|...........|...........|...........|...........|...........|...........|...........|...........|...........|...........|...........|...........|...........|...........|...........|...........
|...........|...........|...........|...........|...........|...........|...........|...........|...........|...........|...........|...........|...........|...........|...........|...........|...........|...........|...........|...........|...........|...........|...........|...........|...........|...........|...........|...........
|...........|...........|...........|...........|...........|...........|...........|...........|...........|...........|...........|...........|...........|...........|C-527......|...........|...........|...........|...........|...........|...........|...........|...........|...........|...........|...........|...........|...........
|...........|...........|...........|...........|...........|...........|...........|...........|...........|...........|...........|...........|...........|...........|...........|...........|...........|...........|...........|...........|...........|...........|...........|...........|...........|...........|...........|...........
|...........|...........|...........|...........|...........|...........|...........|...........|...........|...........|...........|...........|...........|...........|...........|...........|...........|...........|...........|...........|...........|...........|...........|...........|...........|...........|...........|...........
|...........|...........|C-506......|G-406......|F-406......|D-406......|G#306......|...........|...........|...........|C-503......|G-404......|C-526......|...........|C-528......|C-519......|...........|^^^........|...........|...........|...........|...........|...........|...........|...........|...........|...........|...........
|...........|...........|...........|...........|...........|...........|...........|...........|...........|...........|...........|...........|...........|...........|...........|...........|...........|...........|...........|...........|...........|...........|...........|...........|...........|...........|...........|...........
|...........|...........|...........|...........|...........|...........|...........|...........|...........|...........|...........|...........|...........|...........|...........|...........|...........|...........|...........|...........|...........|...........|...........|...........|...........|...........|...........|...........
|...........|...........|...........|...........|...........|...........|...........|...........|...........|...........|...........|...........|...........|...........|...........|...........|...........|...........|...........|...........|...........|...........|...........|...........|...........|...........|...........|...........
|...........|...........|...........|...........|...........|...........|...........|...........|...........|...........|...........|...........|...........|...........|...........|...........|...........|...........|...........|...........|...........|...........|...........|...........|...........|...........|...........|...........
|...........|...........|...........|...........|...........|...........|...........|...........|...........|...........|...........|C-403......|...........|...........|...........|...........|...........|...........|...........|...........|...........|...........|...........|...........|...........|...........|...........|...........
|...........|...........|...........|...........|...........|...........|...........|...........|...........|...........|...........|...........|...........|...........|...........|...........|...........|...........|...........|...........|...........|...........|...........|...........|...........|...........|...........|...........
|...........|...........|...........|...........|...........|...........|...........|...........|...........|...........|...........|...........|...........|...........|...........|...........|...........|...........|...........|...........|...........|...........|...........|...........|...........|...........|...........|...........
|...........|G#302......|...........|...........|...........|...........|...........|...........|...........|...........|C-403......|...........|...........|...........|C-527......|F-518......|...........|...........|...........|D-611......|...........|...........|...........|...........|...........|...........|...........|...........
|...........|...........|...........|...........|...........|...........|...........|...........|...........|...........|...........|...........|...........|...........|...........|...........|...........|...........|...........|...........|...........|...........|...........|...........|...........|...........|...........|...........
|...........|...........|...........|...........|...........|...........|...........|...........|...........|...........|...........|...........|...........|...........|...........|...........|...........|...........|...........|...........|...........|...........|...........|...........|...........|...........|...........|...........
|...........|...........|...........|...........|...........|...........|...........|...........|...........|...........|...........|...........|...........|...........|...........|...........|...........|...........|...........|...........|...........|...........|...........|...........|...........|...........|...........|...........
|...........|...........|...........|...........|...........|...........|...........|...........|...........|...........|...........|...........|...........|...........|...........|...........|...........|...........|...........|...........|...........|...........|...........|...........|...........|...........|...........|...........
|...........|...........|G#406......|C-406......|D-406......|G#306......|D-306......|...........|...........|...........|...........|...........|...........|...........|C-527......|...........|...........|...........|...........|...........|...........|...........|...........|...........|...........|...........|...........|...........
|...........|...........|...........|...........|...........|...........|...........|...........|...........|...........|...........|...........|...........|...........|...........|...........|...........|...........|...........|...........|...........|...........|...........|...........|...........|...........|...........|...........
|...........|...........|...........|...........|...........|...........|...........|...........|...........|...........|...........|...........|...........|...........|...........|...........|...........|...........|...........|...........|...........|...........|...........|...........|...........|...........|...........|...........
|...........|...........|...........|...........|...........|...........|...........|...........|...........|...........|G-404......|C-503......|G-525......|...........|C-528......|C-519......|...........|...........|F#511......|...........|...........|...........|...........|...........|...........|...........|...........|...........
|...........|...........|...........|...........|...........|...........|...........|...........|...........|...........|...........|...........|...........|...........|...........|...........|...........|...........|...........|...........|...........|...........|...........|...........|...........|...........|...........|...........
|...........|...........|...........|...........|...........|...........|...........|...........|...........|...........|...........|...........|...........|...........|...........|...........|...........|...........|...........|...........|...........|...........|...........|...........|...........|...........|...........|...........
|...........|...........|...........|...........|...........|...........|...........|...........|...........|...........|...........|...........|...........|...........|...........|...........|...........|...........|...........|...........|...........|...........|...........|...........|...........|...........|...........|...........
|...........|...........|...........|...........|...........|...........|...........|...........|...........|...........|...........|...........|...........|...........|...........|...........|...........|...........|^^^........|...........|...........|...........|...........|...........|...........|...........|...........|...........
|...........|...........|...........|...........|...........|...........|...........|...........|...........|...........|C-403......|...........|...........|...........|...........|...........|...........|...........|...........|E-611......|...........|...........|...........|...........|...........|...........|...........|...........
|...........|...........|...........|...........|...........|...........|...........|...........|...........|...........|...........|...........|...........|...........|...........|...........|...........|...........|...........|...........|...........|...........|...........|...........|...........|...........|...........|...........
|...........|...........|...........|...........|...........|...........|...........|...........|...........|...........|...........|...........|...........|...........|...........|...........|...........|...........|...........|...........|...........|...........|...........|...........|...........|...........|...........|...........
Rows: 64
|...........|A-202......|B-406......|F#406......|C#406......|G#306......|E-306......|...........|...........|...........|...........|C-403......|...........|...........|C-527......|C-519......|...........|...........|G#511......|...........|...........|...........|...........|...........|...........|...........|...........|...........
|...........|...........|...........|...........|...........|...........|...........|...........|...........|...........|...........|...........|...........|...........|...........|...........|...........|...........|...........|...........|...........|...........|...........|...........|...........|...........|...........|...........
|...........|...........|...........|...........|...........|...........|...........|...........|...........|...........|...........|...........|...........|...........|...........|...........|...........|...........|...........|...........|...........|...........|...........|...........|...........|...........|...........|...........
|...........|...........|...........|...........|...........|...........|...........|...........|...........|...........|...........|...........|...........|...........|...........|...........|...........|...........|...........|...........|...........|...........|...........|...........|...........|...........|...........|...........
|...........|...........|...........|...........|...........|...........|...........|...........|...........|...........|...........|...........|...........|...........|...........|...........|...........|...........|...........|...........|...........|...........|...........|...........|...........|...........|...........|...........
|...........|...........|...........|...........|...........|...........|...........|...........|E-529......|B-429......|...........|...........|...........|...........|C-527......|...........|...........|...........|...........|...........|...........|...........|...........|...........|...........|...........|...........|...........
|...........|...........|...........|...........|...........|...........|...........|...........|...........|...........|...........|...........|...........|...........|...........|...........|...........|...........|...........|...........|...........|...........|...........|...........|...........|...........|...........|...........
|...........|...........|...........|...........|...........|...........|...........|...........|...........|...........|...........|...........|...........|...........|...........|...........|...........|...........|...........|...........|...........|...........|...........|...........|...........|...........|...........|...........
|...........|...........|...........|...........|...........|...........|...........|...........|........F10|........F10|C-503......|G-404......|C-526......|...........|C-528......|...........|C#510......|...........|...........|...........|...........|...........|...........|...........|...........|...........|...........|...........
|...........|...........|...........|...........|...........|...........|...........|...........|...........|...........|...........|...........|...........|...........|...........|...........|...........|...........|...........|...........|...........|...........|...........|...........|...........|...........|...........|...........
|...........|...........|...........|...........|...........|...........|...........|...........|...........|...........|...........|...........|...........|...........|...........|...........|...........|...........|...........|...........|...........|...........|...........|...........|...........|...........|...........|...........
|...........|...........|...........|...........|...........|...........|...........|...........|...........|...........|...........|...........|...........|...........|...........|...........|...........|...........|...........|...........|...........|...........|...........|...........|...........|...........|...........|...........
|...........|...........|...........|...........|...........|...........|...........|...........|...........|...........|...........|...........|...........|...........|...........|...........|...........|...........|...........|...........|...........|...........|...........|...........|...........|...........|...........|...........
|...........|...........|...........|...........|...........|...........|...........|...........|E-529......|B-429......|...........|C-403......|...........|...........|...........|...........|...........|...........|...........|...........|...........|...........|...........|...........|...........|...........|...........|...........
|...........|...........|...........|...........|...........|...........|...........|...........|...........|...........|...........|...........|...........|...........|...........|...........|...........|...........|...........|...........|...........|...........|...........|...........|...........|...........|...........|...........
|...........|...........|...........|...........|...........|...........|...........|...........|...........|...........|...........|...........|...........|...........|...........|...........|...........|...........|...........|...........|...........|...........|...........|...........|...........|...........|...........|...........
|...........|B-202......|A-406......|F#406......|C#406......|A-306......|D-306......|...........|...........|...........|C-403......|...........|...........|...........|C-527......|F-518......|...........|E-510......|A-511......|...........|...........|...........|...........|...........|...........|...........|...........|...........
|...........|...........|...........|...........|...........|...........|...........|...........|...........|...........|...........|...........|...........|...........|...........|...........|...........|...........|...........|...........|...........|...........|...........|...........|...........|...........|...........|...........
|...........|...........|...........|...........|...........|...........|...........|...........|...........|...........|...........|...........|...........|...........|...........|...........|...........|...........|...........|...........|...........|...........|...........|...........|...........|...........|...........|...........
|...........|...........|...........|...........|...........|...........|...........|...........|...........|...........|...........|...........|...........|...........|...........|...........|...........|...........|...........|...........|...........|...........|...........|...........|...........|...........|...........|...........
|...........|...........|...........|...........|...........|...........|...........|...........|...........|...........|...........|...........|...........|...........|...........|...........|...........|...........|...........|...........|...........|...........|...........|...........|...........|...........|...........|...........
|...........|...........|...........|...........|...........|...........|...........|...........|...........|...........|...........|...........|...........|...........|C-527......|...........|...........|........F10|...........|...........|...........|...........|...........|...........|...........|...........|...........|...........
|...........|...........|...........|...........|...........|...........|...........|...........|...........|...........|...........|...........|...........|...........|...........|...........|...........|...........|...........|...........|...........|...........|...........|...........|...........|...........|...........|...........
|...........|...........|...........|...........|...........|...........|...........|...........|...........|...........|...........|...........|...........|...........|...........|...........|...........|...........|...........|...........|...........|...........|...........|...........|...........|...........|...........|...........
|...........|...........|...........|...........|...........|...........|...........|...........|F#529......|C#529......|G-404......|C-503......|G-525......|...........|C-528......|...........|D-510......|A-510......|...........|...........|...........|...........|...........|...........|...........|...........|...........|...........
|...........|...........|...........|...........|...........|...........|...........|...........|...........|...........|...........|...........|...........|...........|...........|...........|...........|...........|...........|...........|...........|...........|...........|...........|...........|...........|...........|...........
|...........|...........|...........|...........|...........|...........|...........|...........|...........|...........|...........|...........|...........|...........|...........|...........|...........|...........|...........|...........|...........|...........|...........|...........|...........|...........|...........|...........
|...........|...........|...........|...........|...........|...........|...........|...........|...........|...........|...........|...........|...........|...........|...........|...........|...........|...........|...........|...........|...........|...........|...........|...........|...........|...........|...........|...........
|...........|...........|...........|...........|...........|...........|...........|...........|^^^........|^^^........|...........|...........|...........|...........|...........|...........|^^^........|...........|...........|...........|...........|...........|...........|...........|...........|...........|...........|...........
|...........|...........|...........|...........|...........|...........|...........|...........|...........|...........|C-403......|...........|...........|...........|...........|F-518......|...........|B-510......|B-511......|...........|...........|...........|...........|...........|...........|...........|...........|...........
|...........|...........|...........|...........|...........|...........|...........|...........|...........|...........|...........|...........|...........|...........|...........|...........|...........|...........|...........|...........|...........|...........|...........|...........|...........|...........|...........|...........
|...........|...........|...........|...........|...........|...........|...........|...........|...........|...........|...........|...........|...........|...........|...........|...........|...........|...........|...........|...........|...........|...........|...........|...........|...........|...........|...........|...........
|...........|C#302......|G#406......|E-406......|B-306......|G#306......|E-306......|...........|B-429......|F#429......|...........|C-403......|...........|...........|C-527......|...........|E-510......|........F10|...........|...........|...........|...........|...........|...........|...........|...........|...........|...........
|...........|...........|...........|...........|...........|...........|...........|...........|...........|...........|...........|...........|...........|...........|...........|...........|...........|...........|...........|...........|...........|...........|...........|...........|...........|...........|...........|...........
|...........|...........|...........|...........|...........|...........|...........|...........|...........|...........|...........|...........|...........|...........|...........|...........|...........|...........|...........|...........|...........|...........|...........|...........|...........|...........|...........|...........
|...........|...........|...........|...........|...........|...........|...........|...........|...........|...........|...........|...........|...........|...........|...........|...........|...........|...........|...........|...........|...........|...........|...........|...........|...........|...........|...........|...........
|...........|...........|...........|...........|...........|...........|...........|...........|...........|...........|...........|...........|...........|...........|...........|...........|...........|...........|...........|...........|...........|...........|...........|...........|...........|...........|...........|...........
|...........|...........|...........|...........|...........|...........|...........|...........|........F06|........F06|...........|...........|...........|...........|C-527......|...........|...........|F#610......|...........|...........|...........|...........|...........|...........|...........|...........|...........|...........
|...........|...........|...........|...........|...........|...........|...........|...........|...........|...........|...........|...........|...........|...........|...........|...........|...........|...........|...........|...........|...........|...........|...........|...........|...........|...........|...........|...........
|...........|...........|...........|...........|...........|...........|...........|...........|...........|...........|...........|...........|...........|...........|...........|...........|...........|...........|...........|........M28|...........|...........|...........|...........|...........|...........|...........|...........
|...........|...........|...........|...........|...........|...........|...........|...........|........E06|........E06|C-503......|G-404......|C-526......|...........|C-528......|C-519......|...........|........E10|...........|A-611......|...........|...........|...........|...........|...........|...........|...........|...........
|...........|...........|...........|...........|...........|...........|...........|...........|...........|...........|...........|...........|...........|...........|...........|...........|...........|...........|...........|...........|...........|...........|...........|...........|...........|...........|...........|...........
|...........|...........|...........|...........|...........|...........|...........|...........|...........|...........|...........|...........|...........|...........|...........|...........|...........|...........|...........|...........|...........|...........|...........|...........|...........|...........|...........|...........
|...........|...........|...........|...........|...........|...........|...........|...........|...........|...........|...........|...........|...........|...........|...........|...........|...........|...........|...........|^^^........|...........|...........|...........|...........|...........|...........|...........|...........
|...........|...........|...........|...........|...........|...........|...........|...........|...........|...........|...........|...........|...........|...........|...........|...........|...........|...........|...........|...........|...........|...........|...........|...........|...........|...........|...........|...........
|...........|...........|...........|...........|...........|...........|...........|...........|A-429......|E-429......|...........|C-403......|...........|...........|...........|...........|...........|B-610......|...........|...........|...........|...........|...........|...........|...........|...........|...........|...........
|...........|...........|...........|...........|...........|...........|...........|...........|...........|...........|...........|...........|...........|...........|...........|...........|...........|...........|...........|...........|...........|...........|...........|...........|...........|...........|...........|...........
|...........|...........|...........|...........|...........|...........|...........|...........|...........|...........|...........|...........|...........|...........|...........|...........|...........|...........|...........|...........|...........|...........|...........|...........|...........|...........|...........|...........
|...........|D-302......|F#406......|C#406......|A-306......|E-306......|...........|...........|...........|...........|C-403......|...........|...........|...........|C-527......|F-518......|F#510......|........E10|...........|...........|...........|...........|...........|...........|...........|...........|...........|...........
|...........|...........|...........|...........|...........|...........|...........|...........|...........|...........|...........|...........|...........|...........|...........|...........|...........|...........|...........|...........|...........|...........|...........|...........|...........|...........|...........|...........
|...........|...........|...........|...........|...........|...........|...........|...........|...........|...........|...........|...........|...........|...........|...........|...........|...........|...........|...........|...........|...........|...........|...........|...........|...........|...........|...........|...........
|...........|...........|...........|...........|...........|...........|...........|...........|^^^........|^^^........|...........|...........|...........|...........|...........|...........|...........|...........|...........|...........|...........|...........|...........|...........|...........|...........|...........|...........
|...........|...........|...........|...........|...........|...........|...........|...........|...........|...........|...........|...........|...........|...........|...........|...........|...........|...........|...........|...........|...........|...........|...........|...........|...........|...........|...........|...........
|...........|...........|...........|...........|...........|...........|...........|...........|...........|...........|...........|...........|...........|...........|C-527......|...........|...........|F#610......|...........|...........|...........|...........|...........|...........|...........|...........|...........|...........
|...........|...........|...........|...........|...........|...........|...........|...........|...........|...........|...........|...........|...........|...........|...........|...........|...........|...........|...........|...........|...........|...........|...........|...........|...........|...........|...........|...........
|...........|...........|...........|...........|...........|...........|...........|...........|...........|...........|...........|...........|...........|...........|...........|...........|...........|...........|...........|...........|...........|...........|...........|...........|...........|...........|...........|...........
|...........|...........|...........|...........|...........|...........|...........|...........|A-529......|E-529......|C-522......|C-503......|G-525......|...........|C-528......|F-518......|...........|........E10|...........|B-611......|...........|...........|...........|...........|...........|...........|...........|...........
|...........|...........|...........|...........|...........|...........|...........|...........|...........|...........|...........|...........|...........|...........|...........|...........|...........|...........|...........|...........|...........|...........|...........|...........|...........|...........|...........|...........
|...........|...........|...........|...........|...........|...........|...........|...........|...........|...........|...........|...........|...........|...........|...........|...........|...........|...........|...........|...........|...........|...........|...........|...........|...........|...........|...........|...........
|...........|...........|...........|...........|...........|...........|...........|...........|...........|...........|...........|...........|...........|...........|...........|...........|...........|...........|...........|...........|...........|...........|...........|...........|...........|...........|...........|...........
|...........|...........|...........|...........|...........|...........|...........|...........|^^^........|...........|...........|...........|...........|...........|...........|...........|...........|...........|...........|^^^........|...........|...........|...........|...........|...........|...........|...........|...........
|...........|...........|...........|...........|...........|...........|...........|...........|...........|^^^........|C-522......|...........|...........|...........|...........|...........|G#510......|C#610......|...........|...........|...........|...........|...........|...........|...........|...........|...........|...........
|...........|...........|...........|...........|...........|...........|...........|...........|...........|...........|...........|...........|...........|...........|...........|...........|...........|...........|...........|...........|...........|...........|...........|...........|...........|...........|...........|...........
|...........|...........|...........|...........|...........|...........|...........|...........|...........|...........|...........|...........|...........|...........|...........|...........|...........|...........|...........|...........|...........|...........|...........|...........|...........|...........|...........|...........
Rows: 64
|...........|C#302......|E-406......|B-306......|A-306......|F-306......|...........|...........|...........|...........|...........|C-403......|...........|C-520......|C-527......|C-519......|...........|E-610......|...........|B-611......|...........|...........|...........|...........|...........|...........|...........|...........
|...........|...........|...........|...........|...........|...........|...........|...........|...........|...........|...........|...........|...........|...........|...........|...........|...........|...........|...........|...........|...........|...........|...........|...........|...........|...........|...........|...........
|...........|...........|...........|...........|...........|...........|...........|...........|...........|...........|...........|...........|...........|...........|...........|...........|...........|...........|...........|........F10|...........|...........|...........|...........|...........|...........|...........|...........
|...........|...........|...........|...........|...........|...........|...........|...........|...........|...........|...........|...........|...........|...........|...........|...........|...........|...........|...........|...........|...........|...........|...........|...........|...........|...........|...........|...........
|...........|...........|...........|...........|...........|...........|...........|...........|...........|...........|...........|...........|...........|...........|...........|...........|...........|...........|...........|...........|...........|...........|...........|...........|...........|...........|...........|...........
|...........|...........|...........|...........|...........|...........|...........|...........|...........|...........|...........|...........|...........|...........|C-527......|...........|...........|........F10|...........|...........|...........|...........|...........|...........|...........|...........|...........|...........
|...........|...........|...........|...........|...........|...........|...........|...........|...........|...........|...........|...........|...........|...........|...........|...........|...........|...........|...........|...........|...........|...........|...........|...........|...........|...........|...........|...........
|...........|...........|...........|...........|...........|...........|...........|...........|...........|...........|...........|...........|...........|...........|...........|...........|...........|...........|...........|...........|...........|...........|...........|...........|...........|...........|...........|...........
|...........|...........|...........|...........|...........|...........|...........|...........|...........|...........|C-503......|G-404......|C-526......|...........|C-528......|...........|...........|B-510......|...........|...........|...........|...........|...........|...........|...........|...........|...........|...........
|...........|...........|...........|...........|...........|...........|...........|...........|...........|...........|...........|...........|...........|...........|...........|...........|...........|...........|...........|...........|...........|...........|...........|...........|...........|...........|...........|...........
|...........|...........|...........|...........|...........|...........|...........|...........|...........|...........|...........|...........|...........|...........|...........|...........|...........|...........|...........|...........|...........|...........|...........|...........|...........|...........|...........|...........
|...........|...........|...........|...........|...........|...........|...........|...........|...........|...........|...........|...........|...........|...........|...........|...........|...........|...........|...........|...........|...........|...........|...........|...........|...........|...........|...........|...........
|...........|...........|...........|...........|...........|...........|...........|...........|...........|...........|...........|...........|...........|...........|...........|...........|...........|...........|...........|...........|...........|...........|...........|...........|...........|...........|...........|...........
|...........|...........|...........|...........|...........|...........|...........|...........|...........|...........|...........|C-403......|...........|...........|...........|...........|...........|........F10|...........|...........|...........|...........|...........|...........|...........|...........|...........|...........
|...........|...........|...........|...........|...........|...........|...........|...........|...........|...........|...........|...........|...........|...........|...........|...........|...........|...........|...........|...........|...........|...........|...........|...........|...........|...........|...........|...........
|...........|...........|...........|...........|...........|...........|...........|...........|...........|...........|...........|...........|...........|...........|...........|...........|...........|...........|...........|...........|...........|...........|...........|...........|...........|...........|...........|...........
|...........|F#302......|...........|...........|...........|...........|...........|...........|...........|...........|C-403......|...........|...........|...........|C-527......|F-518......|...........|A-510......|...........|D-711......|...........|...........|...........|...........|...........|...........|...........|...........
|...........|...........|...........|...........|...........|...........|...........|...........|...........|...........|...........|...........|...........|...........|...........|...........|...........|...........|...........|...........|...........|...........|...........|...........|...........|...........|...........|...........
|...........|...........|...........|...........|...........|...........|...........|...........|...........|...........|...........|...........|...........|...........|...........|...........|...........|...........|...........|...........|...........|...........|...........|...........|...........|...........|...........|...........
|...........|...........|...........|...........|...........|...........|...........|...........|...........|...........|...........|...........|...........|...........|...........|...........|...........|...........|...........|^^^........|...........|...........|...........|...........|...........|...........|...........|...........
|...........|...........|...........|...........|...........|...........|...........|...........|...........|...........|...........|...........|...........|...........|...........|...........|...........|...........|...........|...........|...........|...........|...........|...........|...........|...........|...........|...........
|...........|...........|...........|...........|...........|...........|...........|...........|...........|...........|...........|...........|...........|...........|C-527......|...........|...........|F#510......|...........|...........|...........|...........|...........|...........|...........|...........|...........|...........
|...........|...........|...........|...........|...........|...........|...........|...........|...........|...........|...........|...........|...........|...........|...........|...........|...........|...........|...........|...........|...........|...........|...........|...........|...........|...........|...........|...........
|...........|...........|...........|...........|...........|...........|...........|...........|...........|...........|...........|...........|...........|...........|...........|...........|...........|...........|...........|...........|...........|...........|...........|...........|...........|...........|...........|...........
|...........|...........|F#406......|C#406......|A-306......|E-306......|...........|...........|...........|...........|G-404......|C-503......|G-525......|...........|C-528......|...........|...........|^^^........|...........|...........|...........|...........|...........|...........|...........|...........|...........|...........
|...........|...........|...........|...........|...........|...........|...........|...........|...........|...........|...........|...........|...........|...........|...........|...........|...........|...........|...........|...........|...........|...........|...........|...........|...........|...........|...........|...........
|...........|...........|...........|...........|...........|...........|...........|...........|...........|...........|...........|...........|...........|...........|...........|...........|...........|...........|...........|...........|...........|...........|...........|...........|...........|...........|...........|...........
|...........|...........|...........|...........|...........|...........|...........|...........|...........|...........|...........|...........|...........|...........|...........|...........|...........|...........|...........|...........|...........|...........|...........|...........|...........|...........|...........|...........
|...........|...........|...........|...........|...........|...........|...........|...........|...........|...........|...........|...........|...........|...........|...........|...........|...........|...........|...........|...........|...........|...........|...........|...........|...........|...........|...........|...........
|...........|...........|...........|...........|...........|...........|...........|...........|...........|...........|C-403......|...........|...........|...........|...........|F-518......|...........|F#510......|...........|E-711......|...........|...........|...........|...........|...........|...........|...........|...........
|...........|...........|...........|...........|...........|...........|...........|...........|...........|...........|...........|...........|...........|...........|...........|...........|...........|...........|...........|...........|...........|...........|...........|...........|...........|...........|...........|...........
|...........|...........|...........|...........|...........|...........|...........|...........|...........|...........|...........|...........|...........|...........|...........|...........|...........|...........|...........|...........|...........|...........|...........|...........|...........|...........|...........|...........
|...........|B-302......|...........|...........|...........|...........|...........|...........|...........|...........|...........|C-403......|...........|...........|C-527......|...........|...........|A-510......|...........|^^^........|...........|...........|...........|...........|...........|...........|...........|...........
|...........|...........|...........|...........|...........|...........|...........|...........|...........|...........|...........|...........|...........|...........|...........|...........|...........|...........|...........|...........|...........|...........|...........|...........|...........|...........|...........|...........
|...........|...........|...........|...........|...........|...........|...........|...........|...........|...........|...........|...........|...........|...........|...........|...........|...........|...........|...........|...........|...........|...........|...........|...........|...........|...........|...........|...........
|...........|...........|...........|...........|...........|...........|...........|...........|...........|...........|...........|...........|...........|...........|...........|...........|...........|...........|...........|...........|...........|...........|...........|...........|...........|...........|...........|...........
|...........|...........|...........|...........|...........|...........|...........|...........|...........|...........|...........|...........|...........|...........|...........|...........|...........|...........|...........|...........|...........|...........|...........|...........|...........|...........|...........|...........
|...........|...........|...........|...........|...........|...........|...........|...........|...........|...........|...........|...........|...........|...........|C-527......|...........|...........|C#610......|...........|...........|...........|...........|...........|...........|...........|...........|...........|...........
|...........|...........|...........|...........|...........|...........|...........|...........|...........|...........|...........|...........|...........|...........|...........|...........|...........|...........|...........|...........|...........|...........|...........|...........|...........|...........|...........|...........
|...........|...........|...........|...........|...........|...........|...........|...........|...........|...........|...........|...........|...........|...........|...........|...........|...........|...........|...........|...........|...........|...........|...........|...........|...........|...........|...........|...........
|...........|...........|C#406......|A-306......|D-306......|F#306......|...........|...........|...........|...........|C-503......|G-404......|C-526......|...........|C-528......|C-519......|...........|G#610......|...........|E-611......|...........|...........|...........|...........|...........|...........|...........|...........
|...........|...........|...........|...........|...........|...........|...........|...........|...........|...........|...........|...........|...........|...........|...........|...........|...........|...........|...........|...........|...........|...........|...........|...........|...........|...........|...........|...........
|...........|...........|...........|...........|...........|...........|...........|...........|...........|...........|...........|...........|...........|...........|...........|...........|...........|...........|...........|...........|...........|...........|...........|...........|...........|...........|...........|...........
|...........|...........|...........|...........|...........|...........|...........|...........|...........|...........|...........|...........|...........|...........|...........|...........|...........|...........|...........|...........|...........|...........|...........|...........|...........|...........|...........|...........
|...........|...........|...........|...........|...........|...........|...........|...........|...........|...........|...........|...........|...........|...........|...........|...........|...........|...........|...........|...........|...........|...........|...........|...........|...........|...........|...........|...........
|...........|...........|...........|...........|...........|...........|...........|...........|...........|...........|...........|C-403......|...........|...........|...........|...........|...........|........E10|...........|...........|...........|...........|...........|...........|...........|...........|...........|...........
|...........|...........|...........|...........|...........|...........|...........|...........|...........|...........|...........|...........|...........|...........|...........|...........|...........|...........|...........|...........|...........|...........|...........|...........|...........|...........|...........|...........
|...........|...........|...........|...........|...........|...........|...........|...........|...........|...........|...........|...........|...........|...........|...........|...........|...........|...........|...........|...........|...........|...........|...........|...........|...........|...........|...........|...........
|...........|E-302......|...........|...........|...........|...........|...........|...........|...........|...........|C-403......|...........|...........|...........|C-527......|F-518......|...........|E-610......|...........|^^^........|...........|...........|...........|...........|...........|...........|...........|...........
|...........|...........|...........|...........|...........|...........|...........|...........|...........|...........|...........|...........|...........|...........|...........|...........|...........|...........|...........|...........|...........|...........|...........|...........|...........|...........|...........|...........
|...........|...........|...........|...........|...........|...........|...........|...........|...........|...........|...........|...........|...........|...........|...........|...........|...........|...........|...........|...........|...........|...........|...........|...........|...........|...........|...........|...........
|...........|...........|...........|...........|...........|...........|...........|...........|...........|...........|...........|...........|...........|...........|...........|...........|...........|...........|...........|...........|...........|...........|...........|...........|...........|...........|...........|...........
|...........|...........|...........|...........|...........|...........|...........|...........|...........|...........|...........|...........|...........|...........|...........|...........|...........|...........|...........|...........|...........|...........|...........|...........|...........|...........|...........|...........
|...........|...........|...........|...........|...........|...........|...........|...........|...........|...........|...........|...........|...........|...........|C-527......|...........|...........|C#610......|...........|B-611......|...........|...........|...........|...........|...........|...........|...........|...........
|...........|...........|...........|...........|...........|...........|...........|...........|...........|...........|...........|...........|...........|...........|...........|...........|...........|...........|...........|...........|...........|...........|...........|...........|...........|...........|...........|...........
|...........|...........|...........|...........|...........|...........|...........|...........|...........|...........|...........|...........|...........|...........|...........|...........|...........|...........|...........|........F10|...........|...........|...........|...........|...........|...........|...........|...........
|...........|...........|E-406......|C#406......|G#306......|D-306......|...........|...........|...........|...........|G-404......|C-503......|G-525......|...........|C-528......|C-519......|...........|........E10|...........|...........|...........|...........|...........|...........|...........|...........|...........|...........
|...........|...........|...........|...........|...........|...........|...........|...........|...........|...........|...........|...........|...........|...........|...........|...........|...........|...........|...........|...........|...........|...........|...........|...........|...........|...........|...........|...........
|...........|...........|...........|...........|...........|...........|...........|...........|...........|...........|...........|...........|...........|...........|...........|...........|...........|...........|...........|...........|...........|...........|...........|...........|...........|...........|...........|...........
|...........|...........|...........|...........|...........|...........|...........|...........|...........|...........|...........|...........|...........|...........|...........|...........|...........|...........|...........|...........|...........|...........|...........|...........|...........|...........|...........|...........
|...........|...........|...........|...........|...........|...........|...........|...........|...........|...........|...........|...........|...........|...........|...........|...........|...........|...........|...........|^^^........|...........|...........|...........|...........|...........|...........|...........|...........
|...........|...........|...........|...........|...........|...........|...........|...........|...........|...........|C-403......|...........|...........|...........|...........|...........|...........|A-510......|...........|...........|...........|...........|...........|...........|...........|...........|...........|...........
|...........|...........|...........|...........|...........|...........|...........|...........|...........|...........|...........|...........|...........|...........|...........|...........|...........|...........|...........|...........|...........|...........|...........|...........|...........|...........|...........|...........
|...........|...........|...........|...........|...........|...........|...........|...........|...........|...........|...........|...........|...........|...........|...........|...........|...........|...........|...........|...........|...........|...........|...........|...........|...........|...........|...........|...........
Rows: 64
|...........|A-302......|...........|...........|...........|...........|...........|...........|...........|...........|...........|C-403......|...........|...........|C-527......|C-519......|C#611......|F#510......|...........|B-611......|...........|...........|...........|...........|...........|...........|...........|...........
|...........|...........|...........|...........|...........|...........|...........|...........|...........|...........|...........|...........|...........|...........|...........|...........|...........|...........|...........|...........|...........|...........|...........|...........|...........|...........|...........|...........
|...........|...........|...........|...........|...........|...........|...........|...........|...........|...........|...........|...........|...........|...........|...........|...........|...........|........F10|...........|...........|...........|...........|...........|...........|...........|...........|...........|...........
|...........|...........|...........|...........|...........|...........|...........|...........|...........|...........|...........|...........|...........|...........|...........|...........|...........|...........|...........|...........|...........|...........|...........|...........|...........|...........|...........|...........
|...........|...........|...........|...........|...........|...........|...........|...........|...........|...........|...........|...........|...........|...........|...........|...........|...........|...........|...........|...........|...........|...........|...........|...........|...........|...........|...........|...........
|...........|...........|...........|...........|...........|...........|...........|...........|...........|...........|...........|...........|...........|...........|C-527......|...........|...........|...........|...........|...........|...........|...........|...........|...........|...........|...........|...........|...........
|...........|...........|...........|...........|...........|...........|...........|...........|...........|...........|...........|...........|...........|...........|...........|...........|...........|...........|...........|...........|...........|...........|...........|...........|...........|...........|...........|...........
|...........|...........|...........|...........|...........|...........|...........|...........|...........|...........|...........|...........|...........|...........|...........|...........|...........|...........|...........|...........|...........|...........|...........|...........|...........|...........|...........|...........
|...........|...........|G#406......|E-406......|B-306......|F#306......|...........|...........|...........|...........|C-503......|G-404......|C-526......|...........|C-528......|...........|...........|E-510......|...........|...........|...........|...........|...........|...........|...........|...........|...........|...........
|...........|...........|...........|...........|...........|...........|...........|...........|...........|...........|...........|...........|...........|...........|...........|...........|...........|...........|...........|...........|...........|...........|...........|...........|...........|...........|...........|...........
|...........|...........|...........|...........|...........|...........|...........|...........|...........|...........|...........|...........|...........|...........|...........|...........|...........|...........|...........|...........|...........|...........|...........|...........|...........|...........|...........|...........
|...........|...........|...........|...........|...........|...........|...........|...........|...........|...........|...........|...........|...........|...........|...........|...........|...........|...........|...........|...........|...........|...........|...........|...........|...........|...........|...........|...........
|...........|...........|...........|...........|...........|...........|...........|...........|...........|...........|...........|...........|...........|...........|...........|...........|...........|........F10|...........|...........|...........|...........|...........|...........|...........|...........|...........|...........
|...........|...........|...........|...........|...........|...........|...........|...........|...........|...........|...........|C-403......|...........|...........|...........|...........|...........|...........|...........|...........|...........|...........|...........|...........|...........|...........|...........|...........
|...........|...........|...........|...........|...........|...........|...........|...........|...........|...........|...........|...........|...........|...........|...........|...........|...........|...........|...........|...........|...........|...........|...........|...........|...........|...........|...........|...........
|...........|...........|...........|...........|...........|...........|...........|...........|...........|...........|...........|...........|...........|...........|...........|...........|...........|...........|...........|...........|...........|...........|...........|...........|...........|...........|...........|...........
|...........|G#302......|...........|...........|...........|...........|...........|...........|...........|...........|C-403......|...........|...........|...........|C-527......|F-518......|...........|A-510......|...........|A-611......|...........|...........|...........|...........|...........|...........|...........|...........
|...........|...........|...........|...........|...........|...........|...........|...........|...........|...........|...........|...........|...........|...........|...........|...........|...........|...........|...........|...........|...........|...........|...........|...........|...........|...........|...........|...........
|...........|...........|...........|...........|...........|...........|...........|...........|...........|...........|...........|...........|...........|...........|...........|...........|...........|...........|...........|...........|...........|...........|...........|...........|...........|...........|...........|...........
|...........|...........|...........|...........|...........|...........|...........|...........|...........|...........|...........|...........|...........|...........|...........|...........|...........|...........|...........|...........|...........|...........|...........|...........|...........|...........|...........|...........
|...........|...........|...........|...........|...........|...........|...........|...........|...........|...........|...........|...........|...........|...........|...........|...........|...........|...........|...........|...........|...........|...........|...........|...........|...........|...........|...........|...........
|...........|...........|A-406......|E-406......|B-306......|C#406......|...........|...........|...........|...........|...........|...........|...........|...........|C-527......|...........|...........|B-510......|...........|^^^........|...........|...........|...........|...........|...........|...........|...........|...........
|...........|...........|...........|...........|...........|...........|...........|...........|...........|...........|...........|...........|...........|...........|...........|...........|...........|...........|...........|...........|...........|...........|...........|...........|...........|...........|...........|...........
|...........|...........|...........|...........|...........|...........|...........|...........|...........|...........|...........|...........|...........|...........|...........|...........|...........|...........|...........|...........|...........|...........|...........|...........|...........|...........|...........|...........
|...........|...........|...........|...........|...........|...........|...........|...........|...........|...........|G-404......|C-503......|G-525......|...........|C-528......|...........|D-611......|........F10|...........|...........|...........|...........|...........|...........|...........|...........|...........|...........
|...........|...........|...........|...........|...........|...........|...........|...........|...........|...........|...........|...........|...........|...........|...........|...........|...........|...........|...........|...........|...........|...........|...........|...........|...........|...........|...........|...........
|...........|...........|...........|...........|...........|...........|...........|...........|...........|...........|...........|...........|...........|...........|...........|...........|...........|...........|...........|...........|...........|...........|...........|...........|...........|...........|...........|...........
|...........|...........|...........|...........|...........|...........|...........|...........|...........|...........|...........|...........|...........|...........|...........|...........|^^^........|...........|...........|...........|...........|...........|...........|...........|...........|...........|...........|...........
|...........|...........|...........|...........|...........|...........|...........|...........|...........|...........|...........|...........|...........|...........|...........|...........|...........|...........|...........|...........|...........|...........|...........|...........|...........|...........|...........|...........
|...........|...........|...........|...........|...........|...........|...........|...........|...........|...........|C-403......|...........|...........|...........|...........|F-518......|...........|E-610......|...........|...........|...........|...........|...........|...........|...........|...........|...........|...........
|...........|...........|...........|...........|...........|...........|...........|...........|...........|...........|...........|...........|...........|...........|...........|...........|...........|...........|...........|...........|...........|...........|...........|...........|...........|...........|...........|...........
|...........|...........|...........|...........|...........|...........|...........|...........|...........|...........|...........|...........|...........|...........|...........|...........|...........|...........|...........|...........|...........|...........|...........|...........|...........|...........|...........|...........
|...........|F#302......|B-406......|G#406......|C#406......|E-406......|A-306......|...........|...........|...........|...........|C-403......|...........|...........|C-527......|...........|E-611......|........F10|...........|F#611......|...........|...........|...........|...........|...........|...........|...........|...........
|...........|...........|...........|...........|...........|...........|...........|...........|...........|...........|...........|...........|...........|...........|...........|...........|...........|...........|...........|...........|...........|...........|...........|...........|...........|...........|...........|...........
|...........|...........|...........|...........|...........|...........|...........|...........|...........|...........|...........|...........|...........|...........|...........|...........|...........|...........|...........|........F10|...........|...........|...........|...........|...........|...........|...........|...........
|...........|...........|...........|...........|...........|...........|...........|...........|...........|...........|...........|...........|...........|...........|...........|...........|...........|...........|...........|...........|...........|...........|...........|...........|...........|...........|...........|...........
|...........|...........|...........|...........|...........|...........|...........|...........|...........|...........|...........|...........|...........|...........|...........|...........|...........|...........|...........|...........|...........|...........|...........|...........|...........|...........|...........|...........
|...........|...........|...........|...........|...........|...........|...........|...........|...........|...........|...........|...........|...........|...........|C-527......|...........|...........|A-610......|...........|...........|...........|...........|...........|...........|...........|...........|...........|...........
|...........|...........|...........|...........|...........|...........|...........|...........|...........|...........|...........|...........|...........|...........|...........|...........|...........|...........|...........|...........|...........|...........|...........|...........|...........|...........|...........|...........
|...........|...........|...........|...........|...........|...........|...........|...........|...........|...........|...........|...........|...........|...........|...........|...........|...........|...........|...........|...........|...........|...........|...........|...........|...........|...........|...........|...........
|...........|...........|...........|...........|...........|...........|...........|...........|...........|...........|C-503......|G-404......|C-526......|...........|C-528......|C-519......|...........|........F10|...........|...........|...........|...........|...........|...........|...........|...........|...........|...........
|...........|...........|...........|...........|...........|...........|...........|...........|...........|...........|...........|...........|...........|...........|...........|...........|...........|...........|...........|...........|...........|...........|...........|...........|...........|...........|...........|...........
|...........|...........|...........|...........|...........|...........|...........|...........|...........|...........|...........|...........|...........|...........|...........|...........|...........|...........|...........|...........|...........|...........|...........|...........|...........|...........|...........|...........
|...........|...........|...........|...........|...........|...........|...........|...........|...........|...........|...........|...........|...........|...........|...........|...........|...........|...........|...........|...........|...........|...........|...........|...........|...........|...........|...........|...........
|...........|...........|...........|...........|...........|...........|...........|...........|...........|...........|...........|...........|...........|...........|...........|...........|...........|...........|...........|...........|...........|...........|...........|...........|...........|...........|...........|...........
|...........|...........|...........|...........|...........|...........|...........|...........|...........|...........|...........|C-403......|...........|...........|...........|...........|...........|C#710......|...........|F#611......|...........|...........|...........|...........|...........|...........|...........|...........
|...........|...........|...........|...........|...........|...........|...........|...........|...........|...........|...........|...........|...........|...........|...........|...........|...........|...........|...........|...........|...........|...........|...........|...........|...........|...........|...........|...........
|...........|...........|...........|...........|...........|...........|...........|...........|...........|...........|...........|...........|...........|...........|...........|...........|...........|...........|...........|...........|...........|...........|...........|...........|...........|...........|...........|...........
|...........|E-302......|C#506......|G#406......|E-406......|A-306......|F#406......|...........|...........|...........|C-403......|...........|...........|...........|C-527......|F-518......|F#611......|E-710......|...........|...........|...........|...........|...........|...........|...........|...........|...........|...........
|...........|...........|...........|...........|...........|...........|...........|...........|...........|...........|...........|...........|...........|...........|...........|...........|...........|...........|...........|^^^........|...........|...........|...........|...........|...........|...........|...........|...........
|...........|...........|...........|...........|...........|...........|...........|...........|...........|...........|...........|...........|...........|...........|...........|...........|...........|...........|...........|...........|...........|...........|...........|...........|...........|...........|...........|...........
|...........|...........|...........|...........|...........|...........|...........|...........|...........|...........|...........|...........|...........|...........|...........|...........|...........|...........|...........|...........|...........|...........|...........|...........|...........|...........|...........|...........
|...........|...........|...........|...........|...........|...........|...........|...........|...........|...........|...........|...........|...........|...........|...........|...........|...........|...........|...........|...........|...........|...........|...........|...........|...........|...........|...........|...........
|...........|...........|...........|...........|...........|...........|...........|...........|...........|...........|...........|...........|...........|...........|C-527......|...........|...........|........F10|...........|B-611......|...........|...........|...........|...........|...........|...........|...........|...........
|...........|...........|...........|...........|...........|...........|...........|...........|...........|...........|...........|...........|...........|...........|...........|...........|...........|...........|...........|...........|...........|...........|...........|...........|...........|...........|...........|...........
|...........|...........|...........|...........|...........|...........|...........|...........|...........|...........|...........|...........|...........|...........|...........|...........|...........|...........|...........|...........|...........|...........|...........|...........|...........|...........|...........|...........
|...........|...........|...........|...........|...........|...........|...........|...........|...........|...........|G-404......|C-503......|G-525......|...........|C-528......|C-519......|...........|A-710......|...........|...........|...........|...........|...........|...........|...........|...........|...........|...........
|...........|...........|...........|...........|...........|...........|...........|...........|...........|...........|...........|...........|...........|...........|...........|...........|...........|...........|...........|^^^........|...........|...........|...........|...........|...........|...........|...........|...........
|...........|...........|...........|...........|...........|...........|...........|...........|...........|...........|...........|...........|...........|...........|...........|...........|...........|...........|...........|...........|...........|...........|...........|...........|...........|...........|...........|...........
|...........|...........|...........|...........|...........|...........|...........|...........|...........|...........|...........|...........|...........|...........|...........|...........|...........|...........|...........|...........|...........|...........|...........|...........|...........|...........|...........|...........
|...........|...........|...........|...........|...........|...........|...........|...........|...........|...........|...........|...........|...........|...........|...........|...........|...........|...........|...........|...........|...........|...........|...........|...........|...........|...........|...........|...........
|...........|...........|...........|...........|...........|...........|...........|...........|...........|...........|C-403......|...........|...........|...........|...........|...........|G#611......|B-710......|...........|...........|...........|...........|...........|...........|...........|...........|...........|...........
|...........|...........|...........|...........|...........|...........|...........|...........|...........|...........|...........|...........|...........|...........|...........|...........|...........|...........|...........|...........|...........|...........|...........|...........|...........|...........|...........|...........
|...........|...........|...........|...........|...........|...........|...........|...........|...........|...........|...........|...........|...........|...........|...........|...........|...........|...........|...........|...........|...........|...........|...........|...........|...........|...........|...........|...........
Rows: 64
|...........|D#302......|D#506......|A-406......|C#406......|F#406......|A-306......|...........|...........|...........|...........|C-403......|...........|...........|C-527......|C-519......|...........|........F06|...........|B-511......|...........|...........|...........|...........|...........|...........|...........|...........
|...........|...........|...........|...........|...........|...........|...........|...........|...........|...........|...........|...........|...........|...........|...........|...........|...........|...........|...........|...........|...........|...........|...........|...........|...........|...........|...........|...........
|...........|...........|...........|...........|...........|...........|...........|...........|...........|...........|...........|...........|...........|...........|...........|...........|...........|...........|...........|...........|...........|...........|...........|...........|...........|...........|...........|...........
|...........|...........|...........|...........|...........|...........|...........|...........|...........|...........|...........|...........|...........|...........|...........|...........|...........|........E06|...........|...........|...........|...........|...........|...........|...........|...........|...........|...........
|...........|...........|...........|...........|...........|...........|...........|...........|...........|...........|...........|...........|...........|...........|...........|...........|...........|...........|...........|...........|...........|...........|...........|...........|...........|...........|...........|...........
|...........|...........|...........|...........|...........|...........|...........|...........|...........|...........|...........|...........|...........|...........|C-527......|...........|...........|...........|...........|...........|...........|...........|...........|...........|...........|...........|...........|...........
|...........|...........|...........|...........|...........|...........|...........|...........|...........|...........|...........|...........|...........|...........|...........|...........|...........|...........|...........|...........|...........|...........|...........|...........|...........|...........|...........|...........
|...........|...........|...........|...........|...........|...........|...........|...........|...........|...........|...........|...........|...........|...........|...........|...........|...........|...........|...........|...........|...........|...........|...........|...........|...........|...........|...........|...........
|...........|...........|...........|...........|...........|...........|...........|...........|...........|...........|C-503......|G-404......|C-526......|...........|C-528......|...........|...........|A-710......|...........|...........|...........|...........|...........|...........|...........|...........|...........|...........
|...........|...........|...........|...........|...........|...........|...........|...........|...........|...........|...........|...........|...........|...........|...........|...........|...........|...........|...........|...........|...........|...........|...........|...........|...........|...........|...........|...........
|...........|...........|...........|...........|...........|...........|...........|...........|...........|...........|...........|...........|...........|...........|...........|...........|...........|F#710......|...........|...........|...........|...........|...........|...........|...........|...........|...........|...........
|...........|...........|...........|...........|...........|...........|...........|...........|...........|...........|...........|...........|...........|...........|...........|...........|...........|...........|...........|...........|...........|...........|...........|...........|...........|...........|...........|...........
|...........|...........|...........|...........|...........|...........|...........|...........|...........|...........|...........|...........|...........|...........|...........|...........|...........|...........|...........|...........|...........|...........|...........|...........|...........|...........|...........|...........
|...........|...........|...........|...........|...........|...........|...........|...........|...........|...........|...........|C-403......|...........|...........|...........|...........|...........|........F08|...........|...........|...........|...........|...........|...........|...........|...........|...........|...........
|...........|...........|...........|...........|...........|...........|...........|...........|...........|...........|...........|...........|...........|...........|...........|...........|...........|...........|...........|...........|...........|...........|...........|...........|...........|...........|...........|...........
|...........|...........|...........|...........|...........|...........|...........|...........|...........|...........|...........|...........|...........|...........|...........|...........|...........|...........|...........|...........|...........|...........|...........|...........|...........|...........|...........|...........
|...........|A-302......|...........|...........|...........|...........|...........|...........|...........|...........|C-403......|...........|...........|...........|C-527......|F-518......|...........|G#710......|...........|...........|...........|...........|...........|...........|...........|...........|...........|...........
|...........|...........|...........|...........|...........|...........|...........|...........|...........|...........|...........|...........|...........|...........|...........|...........|...........|...........|...........|...........|...........|...........|...........|...........|...........|...........|...........|...........
|...........|...........|...........|...........|...........|...........|...........|...........|...........|...........|...........|...........|...........|...........|...........|...........|...........|...........|...........|...........|...........|...........|...........|...........|...........|...........|...........|...........
|...........|...........|...........|...........|...........|...........|...........|...........|...........|...........|...........|...........|...........|...........|...........|...........|...........|...........|...........|...........|...........|...........|...........|...........|...........|...........|...........|...........
|...........|...........|...........|...........|...........|...........|...........|...........|...........|...........|...........|...........|...........|...........|...........|...........|...........|...........|...........|...........|...........|...........|...........|...........|...........|...........|...........|...........
|...........|...........|...........|...........|...........|...........|...........|...........|...........|...........|...........|...........|...........|...........|C-527......|...........|...........|G-710......|...........|...........|...........|...........|...........|...........|...........|...........|...........|...........
|...........|...........|...........|...........|...........|...........|...........|...........|...........|...........|...........|...........|...........|...........|...........|...........|...........|...........|...........|...........|...........|...........|...........|...........|...........|...........|...........|...........
|...........|...........|...........|...........|...........|...........|...........|...........|...........|...........|...........|...........|...........|...........|...........|...........|...........|...........|...........|...........|...........|...........|...........|...........|...........|...........|...........|...........
|...........|...........|...........|...........|...........|...........|...........|...........|...........|...........|G-404......|C-503......|G-525......|...........|C-528......|...........|...........|........E08|...........|...........|...........|...........|...........|...........|...........|...........|...........|...........
|...........|...........|...........|...........|...........|...........|...........|...........|...........|...........|...........|...........|...........|...........|...........|...........|...........|...........|...........|...........|...........|...........|...........|...........|...........|...........|...........|...........
|...........|...........|...........|...........|...........|...........|...........|...........|...........|...........|...........|...........|...........|...........|...........|...........|...........|...........|...........|...........|...........|...........|...........|...........|...........|...........|...........|...........
|...........|...........|...........|...........|...........|...........|...........|...........|...........|...........|...........|...........|...........|...........|...........|...........|...........|...........|...........|...........|...........|...........|...........|...........|...........|...........|...........|...........
|...........|...........|...........|...........|...........|...........|...........|...........|...........|...........|...........|...........|...........|...........|...........|...........|...........|...........|...........|...........|...........|...........|...........|...........|...........|...........|...........|...........
|...........|...........|...........|...........|...........|...........|...........|...........|...........|...........|C-403......|...........|...........|...........|...........|F-518......|...........|F-710......|...........|...........|...........|...........|...........|...........|...........|...........|...........|...........
|...........|...........|...........|...........|...........|...........|...........|...........|...........|...........|...........|...........|...........|...........|...........|...........|...........|...........|...........|...........|...........|...........|...........|...........|...........|...........|...........|...........
|...........|...........|...........|...........|...........|...........|...........|...........|...........|...........|...........|...........|...........|...........|...........|...........|...........|...........|...........|...........|...........|...........|...........|...........|...........|...........|...........|...........
|...........|G#302......|...........|...........|...........|...........|...........|...........|...........|...........|...........|C-403......|...........|...........|C-527......|...........|...........|........E08|...........|...........|...........|...........|...........|...........|...........|...........|...........|...........
|...........|...........|...........|...........|...........|...........|...........|...........|...........|...........|...........|...........|...........|...........|...........|...........|...........|...........|...........|...........|...........|...........|...........|...........|...........|...........|...........|...........
|...........|...........|...........|...........|...........|...........|...........|...........|...........|...........|...........|...........|...........|...........|...........|...........|...........|...........|...........|...........|...........|...........|...........|...........|...........|...........|...........|...........
|...........|...........|...........|...........|...........|...........|...........|...........|...........|...........|...........|...........|...........|...........|...........|...........|...........|...........|...........|...........|...........|...........|...........|...........|...........|...........|...........|...........
|...........|...........|...........|...........|...........|...........|...........|...........|...........|...........|...........|...........|...........|...........|...........|...........|...........|...........|...........|...........|...........|...........|...........|...........|...........|...........|...........|...........
|...........|...........|...........|...........|...........|...........|...........|...........|...........|...........|...........|...........|...........|...........|C-527......|...........|...........|C-710......|...........|...........|...........|...........|...........|...........|...........|...........|...........|...........
|...........|...........|...........|...........|...........|...........|...........|...........|...........|...........|...........|...........|...........|...........|...........|...........|...........|...........|...........|...........|...........|...........|...........|...........|...........|...........|...........|...........
|...........|...........|...........|...........|...........|...........|...........|...........|...........|...........|...........|...........|...........|...........|...........|...........|...........|...........|...........|...........|...........|...........|...........|...........|...........|...........|...........|...........
|...........|...........|E-506......|A-406......|E-406......|C-406......|F#306......|...........|...........|...........|C-503......|G-404......|C-526......|...........|C-528......|C-519......|...........|A-610......|...........|...........|...........|...........|...........|...........|...........|...........|...........|...........
|...........|...........|...........|...........|...........|...........|...........|...........|...........|...........|...........|...........|...........|...........|...........|...........|...........|...........|...........|...........|...........|...........|...........|...........|...........|...........|...........|...........
|...........|...........|...........|...........|...........|...........|...........|...........|...........|...........|...........|...........|...........|...........|...........|...........|...........|...........|...........|...........|...........|...........|...........|...........|...........|...........|...........|...........
|...........|...........|...........|...........|...........|...........|...........|...........|...........|...........|...........|...........|...........|...........|...........|...........|...........|...........|...........|...........|...........|...........|...........|...........|...........|...........|...........|...........
|...........|...........|...........|...........|...........|...........|...........|...........|...........|...........|...........|...........|...........|...........|...........|...........|...........|...........|...........|...........|...........|...........|...........|...........|...........|...........|...........|...........
|...........|...........|...........|...........|...........|...........|...........|...........|...........|...........|...........|C-403......|...........|...........|...........|...........|...........|A#610......|...........|...........|...........|...........|...........|...........|...........|...........|...........|...........
|...........|...........|...........|...........|...........|...........|...........|...........|...........|...........|...........|...........|...........|...........|...........|...........|...........|...........|...........|...........|...........|...........|...........|...........|...........|...........|...........|...........
|...........|...........|...........|...........|...........|...........|...........|...........|...........|...........|...........|...........|...........|...........|...........|...........|...........|...........|...........|...........|...........|...........|...........|...........|...........|...........|...........|...........
|...........|C-302......|...........|...........|...........|...........|...........|...........|...........|...........|C-403......|...........|...........|...........|C-527......|F-518......|...........|........F08|...........|...........|...........|...........|...........|...........|...........|...........|...........|...........
|...........|...........|...........|...........|...........|...........|...........|...........|...........|...........|...........|...........|...........|...........|...........|...........|...........|...........|...........|...........|...........|...........|...........|...........|...........|...........|...........|...........
|...........|...........|...........|...........|...........|...........|...........|...........|...........|...........|...........|...........|...........|...........|...........|...........|...........|...........|...........|...........|...........|...........|...........|...........|...........|...........|...........|...........
|...........|...........|...........|...........|...........|...........|...........|...........|...........|...........|...........|...........|...........|...........|...........|...........|...........|...........|...........|...........|...........|...........|...........|...........|...........|...........|...........|...........
|...........|...........|...........|...........|...........|...........|...........|...........|...........|...........|...........|...........|...........|...........|...........|...........|...........|...........|...........|...........|...........|...........|...........|...........|...........|...........|...........|...........
|...........|...........|C-506......|E-406......|F#406......|A-306......|D#406......|...........|...........|...........|...........|...........|...........|...........|C-527......|...........|...........|A-610......|...........|...........|...........|...........|...........|...........|...........|...........|...........|...........
|...........|...........|...........|...........|...........|...........|...........|...........|...........|...........|...........|...........|...........|...........|...........|...........|...........|...........|...........|...........|...........|...........|...........|...........|...........|...........|...........|...........
|...........|...........|...........|...........|...........|...........|...........|...........|...........|...........|...........|...........|...........|...........|...........|...........|...........|...........|...........|...........|...........|...........|...........|...........|...........|...........|...........|...........
|...........|...........|...........|...........|...........|...........|...........|...........|...........|...........|G-404......|C-503......|G-525......|...........|C-528......|C-519......|...........|E-610......|...........|...........|...........|...........|...........|...........|...........|...........|...........|...........
|...........|...........|...........|...........|...........|...........|...........|...........|...........|...........|...........|...........|...........|...........|...........|...........|...........|...........|...........|...........|...........|...........|...........|...........|...........|...........|...........|...........
|...........|...........|...........|...........|...........|...........|...........|...........|...........|...........|...........|...........|...........|...........|...........|...........|...........|...........|...........|...........|...........|...........|...........|...........|...........|...........|...........|...........
|...........|...........|...........|...........|...........|...........|...........|...........|...........|...........|...........|...........|...........|...........|...........|...........|...........|...........|...........|...........|...........|...........|...........|...........|...........|...........|...........|...........
|...........|...........|...........|...........|...........|...........|...........|...........|...........|...........|...........|...........|...........|...........|...........|...........|...........|...........|...........|...........|...........|...........|...........|...........|...........|...........|...........|...........
|...........|...........|...........|...........|...........|...........|...........|...........|...........|...........|C-403......|...........|...........|...........|...........|...........|...........|F#610......|...........|...........|...........|...........|...........|...........|...........|...........|...........|...........
|...........|...........|...........|...........|...........|...........|...........|...........|...........|...........|...........|...........|...........|...........|...........|...........|...........|...........|...........|...........|...........|...........|...........|...........|...........|...........|...........|...........
|...........|...........|...........|...........|...........|...........|...........|...........|...........|...........|...........|...........|...........|...........|...........|...........|...........|...........|...........|...........|...........|...........|...........|...........|...........|...........|...........|...........
Rows: 64
|...........|C#302......|E-306......|D#506......|B-406......|G#406......|D#406......|...........|...........|...........|...........|C-403......|...........|C-520......|C-527......|C-519......|...........|G-610......|...........|...........|...........|...........|...........|...........|...........|...........|...........|...........
|...........|...........|...........|...........|...........|...........|...........|...........|...........|...........|...........|...........|...........|...........|...........|...........|...........|...........|...........|...........|...........|...........|...........|...........|...........|...........|...........|...........
|...........|...........|...........|...........|...........|...........|...........|...........|...........|...........|...........|...........|...........|...........|...........|...........|...........|...........|...........|...........|...........|...........|...........|...........|...........|...........|...........|...........
|...........|...........|...........|...........|...........|...........|...........|...........|...........|...........|...........|...........|...........|...........|...........|...........|...........|...........|...........|...........|...........|...........|...........|...........|...........|...........|...........|...........
|...........|...........|...........|...........|...........|...........|...........|...........|...........|...........|...........|...........|...........|...........|...........|...........|...........|...........|...........|...........|...........|...........|...........|...........|...........|...........|...........|...........
|...........|...........|...........|...........|...........|...........|...........|...........|...........|...........|...........|...........|...........|...........|C-527......|...........|E-511...M3A|G#610......|...........|...........|...........|...........|...........|...........|...........|...........|...........|...........
|...........|...........|...........|...........|...........|...........|...........|...........|...........|...........|...........|...........|...........|...........|...........|...........|...........|...........|...........|...........|...........|...........|...........|...........|...........|...........|...........|...........
|...........|...........|...........|...........|...........|...........|...........|...........|...........|...........|...........|...........|...........|...........|...........|...........|...........|...........|...........|...........|...........|...........|...........|...........|...........|...........|...........|...........
|...........|...........|...........|...........|...........|...........|...........|...........|...........|...........|C-503......|G-404......|C-526......|...........|C-528......|...........|F#511......|D#710......|...........|...........|...........|...........|...........|...........|...........|...........|...........|...........
|...........|...........|...........|...........|...........|...........|...........|...........|...........|...........|...........|...........|...........|...........|...........|...........|...........|...........|...........|...........|...........|...........|...........|...........|...........|...........|...........|...........
|...........|...........|...........|...........|...........|...........|...........|...........|...........|...........|...........|...........|...........|...........|...........|...........|...........|...........|...........|...........|...........|...........|...........|...........|...........|...........|...........|...........
|...........|...........|...........|...........|...........|...........|...........|...........|...........|...........|...........|...........|...........|...........|...........|...........|...........|...........|...........|...........|...........|...........|...........|...........|...........|...........|...........|...........
|...........|...........|...........|...........|...........|...........|...........|...........|...........|...........|...........|...........|...........|...........|...........|...........|...........|...........|...........|...........|...........|...........|...........|...........|...........|...........|...........|...........
|...........|...........|...........|...........|...........|...........|...........|...........|...........|...........|...........|C-403......|...........|...........|...........|...........|E-511......|C#710......|...........|...........|...........|...........|...........|...........|...........|...........|...........|...........
|...........|...........|...........|...........|...........|...........|...........|...........|...........|...........|...........|...........|...........|...........|...........|...........|...........|...........|...........|...........|...........|...........|...........|...........|...........|...........|...........|...........
|...........|...........|...........|...........|...........|...........|...........|...........|...........|...........|...........|...........|...........|...........|...........|...........|...........|...........|...........|...........|...........|...........|...........|...........|...........|...........|...........|...........
|...........|F#302......|E-406......|G#406......|C#506......|A#306......|E-306......|...........|...........|...........|C-403......|C-522......|...........|...........|C-527......|F-518......|...........|........E10|...........|...........|...........|...........|...........|...........|...........|...........|...........|...........
|...........|...........|...........|...........|...........|...........|...........|...........|...........|...........|...........|...........|...........|...........|...........|...........|...........|...........|...........|...........|...........|...........|...........|...........|...........|...........|...........|...........
|...........|...........|...........|...........|...........|...........|...........|...........|...........|...........|...........|...........|...........|...........|...........|...........|...........|...........|...........|...........|...........|...........|...........|...........|...........|...........|...........|...........
|...........|...........|...........|...........|...........|...........|...........|...........|...........|...........|...........|...........|...........|...........|...........|...........|...........|...........|...........|...........|...........|...........|...........|...........|...........|...........|...........|...........
|...........|...........|...........|...........|...........|...........|...........|...........|...........|...........|...........|...........|...........|...........|...........|...........|...........|...........|...........|...........|...........|...........|...........|...........|...........|...........|...........|...........
|...........|...........|...........|...........|...........|...........|...........|...........|...........|...........|C-522......|...........|...........|...........|C-527......|...........|...........|G#610......|B-511...M3A|...........|...........|...........|...........|...........|...........|...........|...........|...........
|...........|...........|...........|...........|...........|...........|...........|...........|...........|...........|...........|...........|...........|...........|...........|...........|...........|...........|...........|...........|...........|...........|...........|...........|...........|...........|...........|...........
|...........|...........|...........|...........|...........|...........|...........|...........|...........|...........|...........|...........|...........|...........|...........|...........|...........|...........|...........|...........|...........|...........|...........|...........|...........|...........|...........|...........
|...........|...........|...........|...........|...........|...........|...........|...........|...........|...........|G-404......|C-503......|G-525......|...........|C-528......|...........|F#511......|........E10|C#611......|...........|...........|...........|...........|...........|...........|...........|...........|...........
|...........|...........|...........|...........|...........|...........|...........|...........|...........|...........|...........|...........|...........|...........|...........|...........|...........|...........|...........|...........|...........|...........|...........|...........|...........|...........|...........|...........
|...........|...........|...........|...........|...........|...........|...........|...........|...........|...........|...........|...........|...........|...........|...........|...........|...........|...........|...........|...........|...........|...........|...........|...........|...........|...........|...........|...........
|...........|...........|...........|...........|...........|...........|...........|...........|...........|...........|...........|...........|...........|...........|...........|...........|...........|...........|...........|...........|...........|...........|...........|...........|...........|...........|...........|...........
|...........|...........|...........|...........|...........|...........|...........|...........|...........|...........|...........|...........|...........|...........|...........|...........|^^^........|...........|...........|...........|...........|...........|...........|...........|...........|...........|...........|...........
|...........|...........|...........|...........|...........|...........|...........|...........|...........|...........|C-403......|G-422......|...........|...........|...........|F-518......|...........|E-610......|B-511......|...........|...........|...........|...........|...........|...........|...........|...........|...........
|...........|...........|...........|...........|...........|...........|...........|...........|...........|...........|...........|...........|...........|...........|...........|...........|...........|...........|...........|...........|...........|...........|...........|...........|...........|...........|...........|...........
|...........|...........|...........|...........|...........|...........|...........|...........|...........|...........|...........|...........|...........|...........|...........|...........|...........|...........|...........|...........|...........|...........|...........|...........|...........|...........|...........|...........
|...........|B-302......|B-406......|E-406......|C#406......|G#306......|A-306......|...........|...........|...........|...........|C-403......|...........|C-520......|C-527......|...........|...........|F#610......|...........|...........|...........|...........|...........|...........|...........|...........|...........|...........
|...........|...........|...........|...........|...........|...........|...........|...........|...........|...........|...........|...........|...........|...........|...........|...........|...........|...........|...........|...........|...........|...........|...........|...........|...........|...........|...........|...........
|...........|...........|...........|...........|...........|...........|...........|...........|...........|...........|...........|...........|...........|...........|...........|...........|...........|...........|...........|...........|...........|...........|...........|...........|...........|...........|...........|...........
|...........|...........|...........|...........|...........|...........|...........|...........|...........|...........|...........|...........|...........|...........|...........|...........|...........|...........|...........|...........|...........|...........|...........|...........|...........|...........|...........|...........
|...........|...........|...........|...........|...........|...........|...........|...........|...........|...........|...........|...........|...........|...........|...........|...........|...........|...........|...........|...........|...........|...........|...........|...........|...........|...........|...........|...........
|...........|...........|...........|...........|...........|...........|...........|...........|...........|...........|G-422......|...........|...........|...........|C-527......|...........|...........|........F10|...........|E-611...M3A|...........|...........|...........|...........|...........|...........|...........|...........
|...........|...........|...........|...........|...........|...........|...........|...........|...........|...........|...........|...........|...........|...........|...........|...........|...........|...........|...........|...........|...........|...........|...........|...........|...........|...........|...........|...........
|...........|...........|...........|...........|...........|...........|...........|...........|...........|...........|...........|...........|...........|...........|...........|...........|...........|...........|...........|...........|...........|...........|...........|...........|...........|...........|...........|...........
|...........|...........|...........|...........|...........|...........|...........|...........|B-429......|F#429......|C-503......|G-404......|C-526......|...........|C-528......|C-519......|...........|C#610......|C#611......|F#611......|...........|...........|...........|...........|...........|...........|...........|...........
|...........|...........|...........|...........|...........|...........|...........|...........|...........|...........|...........|...........|...........|...........|...........|...........|...........|...........|...........|...........|...........|...........|...........|...........|...........|...........|...........|...........
|...........|...........|...........|...........|...........|...........|...........|...........|...........|...........|...........|...........|...........|...........|...........|...........|...........|...........|...........|...........|...........|...........|...........|...........|...........|...........|...........|...........
|...........|...........|...........|...........|...........|...........|...........|...........|^^^........|^^^........|...........|...........|...........|...........|...........|...........|...........|^^^........|^^^........|...........|...........|...........|...........|...........|...........|...........|...........|...........
|...........|...........|...........|...........|...........|...........|...........|...........|...........|...........|...........|...........|...........|...........|...........|...........|...........|...........|...........|...........|...........|...........|...........|...........|...........|...........|...........|...........
|...........|...........|...........|...........|...........|...........|...........|...........|...........|...........|...........|C-403......|...........|...........|...........|...........|...........|...........|...........|E-611......|...........|...........|...........|...........|...........|...........|...........|...........
|...........|...........|...........|...........|...........|...........|...........|...........|...........|...........|...........|...........|...........|...........|...........|...........|...........|...........|...........|...........|...........|...........|...........|...........|...........|...........|...........|...........
|...........|...........|...........|...........|...........|...........|...........|...........|...........|...........|...........|...........|...........|...........|...........|...........|...........|...........|...........|...........|...........|...........|...........|...........|...........|...........|...........|...........
|...........|B-202......|G#406......|D#406......|C#406......|A-306......|...........|...........|...........|...........|C-522......|...........|...........|C-520......|C-527......|F-518......|...........|F#610......|...........|...........|...........|...........|...........|...........|...........|...........|...........|...........
|...........|...........|...........|...........|...........|...........|...........|...........|...........|...........|...........|...........|...........|...........|...........|...........|...........|...........|...........|...........|...........|...........|...........|...........|...........|...........|...........|...........
|...........|...........|...........|...........|...........|...........|...........|...........|...........|...........|...........|...........|...........|...........|...........|...........|...........|...........|...........|...........|...........|...........|...........|...........|...........|...........|...........|...........
|...........|...........|...........|...........|...........|...........|...........|...........|...........|...........|...........|...........|...........|...........|...........|...........|...........|...........|...........|...........|...........|...........|...........|...........|...........|...........|...........|...........
|...........|...........|...........|...........|...........|...........|...........|...........|...........|...........|...........|...........|...........|...........|...........|...........|...........|...........|...........|...........|...........|...........|...........|...........|...........|...........|...........|...........
|...........|...........|...........|...........|...........|...........|...........|...........|...........|...........|...........|...........|...........|...........|C-527......|...........|...........|...........|...........|...........|...........|...........|...........|...........|...........|...........|...........|...........
|...........|...........|...........|...........|...........|...........|...........|...........|...........|...........|...........|...........|...........|...........|...........|...........|...........|...........|...........|...........|...........|...........|...........|...........|...........|...........|...........|...........
|...........|...........|...........|...........|...........|...........|...........|...........|...........|...........|...........|...........|...........|...........|...........|...........|...........|...........|...........|...........|...........|...........|...........|...........|...........|...........|...........|...........
|...........|...........|...........|...........|...........|...........|...........|...........|B-529......|F#529......|G-404......|C-503......|G-525......|...........|C-528......|C-519......|...........|C#610......|...........|F#611......|...........|...........|...........|...........|...........|...........|...........|...........
|...........|...........|...........|...........|...........|...........|...........|...........|...........|...........|...........|...........|...........|...........|...........|...........|...........|...........|...........|...........|...........|...........|...........|...........|...........|...........|...........|...........
|...........|...........|...........|...........|...........|...........|...........|...........|...........|...........|...........|...........|...........|...........|...........|...........|...........|........F10|...........|...........|...........|...........|...........|...........|...........|...........|...........|...........
|...........|...........|...........|...........|...........|...........|...........|...........|^^^........|^^^........|...........|...........|...........|...........|...........|...........|...........|...........|...........|...........|...........|...........|...........|...........|...........|...........|...........|...........
|...........|...........|...........|...........|...........|...........|...........|...........|...........|...........|...........|...........|...........|...........|...........|...........|...........|...........|...........|^^^........|...........|...........|...........|...........|...........|...........|...........|...........
|...........|...........|...........|...........|...........|...........|...........|...........|...........|...........|C-403......|...........|...........|...........|...........|F-518......|...........|...........|...........|...........|...........|...........|...........|...........|...........|...........|...........|...........
|...........|...........|...........|...........|...........|...........|...........|...........|...........|...........|...........|...........|...........|...........|...........|...........|...........|...........|...........|...........|...........|...........|...........|...........|...........|...........|...........|...........
|...........|...........|...........|...........|...........|...........|...........|...........|...........|...........|...........|...........|...........|...........|...........|...........|...........|...........|...........|...........|...........|...........|...........|...........|...........|...........|...........|...........
Rows: 64
|...........|E-302......|F#406......|D#406......|B-306......|F#306......|...........|...........|F#529......|C#529......|...........|C-403......|...........|C-520......|C-527......|C-519......|...........|........M3A|........M3A|...........|...........|...........|...........|...........|...........|...........|...........|...........
|...........|...........|...........|...........|...........|...........|...........|...........|...........|...........|...........|...........|...........|...........|...........|...........|...........|...........|...........|...........|...........|...........|...........|...........|...........|...........|...........|...........
|...........|...........|...........|...........|...........|...........|...........|...........|...........|...........|...........|...........|...........|...........|...........|...........|...........|...........|...........|...........|...........|...........|...........|...........|...........|...........|...........|...........
|...........|...........|...........|...........|...........|...........|...........|...........|...........|...........|...........|...........|...........|...........|...........|...........|...........|...........|...........|...........|...........|...........|...........|...........|...........|...........|...........|...........
|...........|...........|...........|...........|...........|...........|...........|...........|...........|...........|...........|...........|...........|...........|...........|...........|...........|...........|...........|...........|...........|...........|...........|...........|...........|...........|...........|...........
|...........|...........|...........|...........|...........|...........|...........|...........|........F10|........F10|...........|...........|...........|...........|C-527......|...........|...........|B-510......|...........|...........|...........|...........|...........|...........|...........|...........|...........|...........
|...........|...........|...........|...........|...........|...........|...........|...........|...........|...........|...........|...........|...........|...........|...........|...........|...........|...........|...........|...........|...........|...........|...........|...........|...........|...........|...........|...........
|...........|...........|...........|...........|...........|...........|...........|...........|...........|...........|...........|...........|...........|...........|...........|...........|...........|...........|...........|...........|...........|...........|...........|...........|...........|...........|...........|...........
|...........|...........|...........|...........|...........|...........|...........|...........|...........|...........|C-503......|G-404......|C-526......|...........|C-528......|...........|...........|C#610......|G#611......|...........|...........|...........|...........|...........|...........|...........|...........|...........
|...........|...........|...........|...........|...........|...........|...........|...........|...........|...........|...........|...........|...........|...........|...........|...........|...........|...........|...........|...........|...........|...........|...........|...........|...........|...........|...........|...........
|...........|...........|...........|...........|...........|...........|...........|...........|...........|...........|...........|...........|...........|...........|...........|...........|...........|...........|...........|...........|...........|...........|...........|...........|...........|...........|...........|...........
|...........|...........|...........|...........|...........|...........|...........|...........|...........|...........|...........|...........|...........|...........|...........|...........|...........|...........|...........|...........|...........|...........|...........|...........|...........|...........|...........|...........
|...........|...........|...........|...........|...........|...........|...........|...........|...........|...........|...........|...........|...........|...........|...........|...........|...........|...........|^^^........|...........|...........|...........|...........|...........|...........|...........|...........|...........
|...........|...........|...........|...........|...........|...........|...........|...........|G#529......|D#529......|...........|C-403......|...........|...........|...........|...........|...........|D#610......|...........|...........|...........|...........|...........|...........|...........|...........|...........|...........
|...........|...........|...........|...........|...........|...........|...........|...........|...........|...........|...........|...........|...........|...........|...........|...........|...........|...........|...........|...........|...........|...........|...........|...........|...........|...........|...........|...........
|...........|...........|...........|...........|...........|...........|...........|...........|...........|...........|...........|...........|...........|...........|...........|...........|...........|...........|...........|...........|...........|...........|...........|...........|...........|...........|...........|...........
|...........|D#402......|...........|...........|...........|...........|...........|...........|^^^........|^^^........|C-403......|...........|...........|...........|C-527......|F-518......|...........|...........|F#611......|...........|...........|...........|...........|...........|...........|...........|...........|...........
|...........|...........|...........|...........|...........|...........|...........|...........|...........|...........|...........|...........|...........|...........|...........|...........|...........|...........|...........|...........|...........|...........|...........|...........|...........|...........|...........|...........
|...........|...........|...........|...........|...........|...........|...........|...........|...........|...........|...........|...........|...........|...........|...........|...........|...........|...........|...........|...........|...........|...........|...........|...........|...........|...........|...........|...........
|...........|...........|...........|...........|...........|...........|...........|...........|...........|...........|...........|...........|...........|...........|...........|...........|...........|...........|...........|...........|...........|...........|...........|...........|...........|...........|...........|...........
|...........|...........|...........|...........|...........|...........|...........|...........|...........|...........|...........|...........|...........|...........|...........|...........|...........|...........|^^^........|...........|...........|...........|...........|...........|...........|...........|...........|...........
|...........|...........|...........|...........|...........|...........|...........|...........|...........|...........|...........|...........|...........|...........|C-527......|...........|...........|...........|...........|...........|...........|...........|...........|...........|...........|...........|...........|...........
|...........|...........|...........|...........|...........|...........|...........|...........|...........|...........|...........|...........|...........|...........|...........|...........|...........|...........|...........|...........|...........|...........|...........|...........|...........|...........|...........|...........
|...........|...........|...........|...........|...........|...........|...........|...........|...........|...........|...........|...........|...........|...........|...........|...........|...........|...........|...........|...........|...........|...........|...........|...........|...........|...........|...........|...........
|...........|...........|...........|...........|...........|...........|...........|...........|...........|...........|G-404......|C-503......|G-525......|...........|C-528......|...........|...........|F#610......|E-611......|...........|...........|...........|...........|...........|...........|...........|...........|...........
|...........|...........|...........|...........|...........|...........|...........|...........|...........|...........|...........|...........|...........|...........|...........|...........|...........|...........|...........|...........|...........|...........|...........|...........|...........|...........|...........|...........
|...........|...........|...........|...........|...........|...........|...........|...........|...........|...........|...........|...........|...........|...........|...........|...........|...........|...........|...........|...........|...........|...........|...........|...........|...........|...........|...........|...........
|...........|...........|...........|...........|...........|...........|...........|...........|...........|...........|...........|...........|...........|...........|...........|...........|...........|...........|...........|...........|...........|...........|...........|...........|...........|...........|...........|...........
|...........|...........|...........|...........|...........|...........|...........|...........|...........|...........|...........|...........|...........|...........|...........|...........|...........|^^^........|^^^........|...........|...........|...........|...........|...........|...........|...........|...........|...........
|...........|...........|...........|...........|...........|...........|...........|...........|...........|...........|C-403......|...........|...........|...........|...........|F-518......|...........|...........|...........|...........|...........|...........|...........|...........|...........|...........|...........|...........
|...........|...........|...........|...........|...........|...........|...........|...........|...........|...........|...........|...........|...........|...........|...........|...........|...........|...........|...........|...........|...........|...........|...........|...........|...........|...........|...........|...........
|...........|...........|...........|...........|...........|...........|...........|...........|...........|...........|...........|...........|...........|...........|...........|...........|...........|...........|...........|...........|...........|...........|...........|...........|...........|...........|...........|...........
|...........|C#402......|...........|...........|...........|...........|...........|...........|...........|...........|...........|C-403......|...........|...........|C-527......|...........|...........|F#510......|...........|...........|...........|...........|...........|...........|...........|...........|...........|...........
|...........|...........|...........|...........|...........|...........|...........|...........|...........|...........|...........|...........|...........|...........|...........|...........|...........|...........|...........|...........|...........|...........|...........|...........|...........|...........|...........|...........
|...........|...........|...........|...........|...........|...........|...........|...........|...........|...........|...........|...........|...........|...........|...........|...........|...........|...........|...........|...........|...........|...........|...........|...........|...........|...........|...........|...........
|...........|...........|...........|...........|...........|...........|...........|...........|...........|...........|...........|...........|...........|...........|...........|...........|...........|...........|...........|...........|...........|...........|...........|...........|...........|...........|...........|...........
|...........|...........|...........|...........|...........|...........|...........|...........|...........|...........|...........|...........|...........|...........|...........|...........|...........|...........|...........|...........|...........|...........|...........|...........|...........|...........|...........|...........
|...........|...........|...........|...........|...........|...........|...........|...........|...........|...........|...........|...........|...........|...........|C-527......|...........|...........|G#510......|...........|...........|...........|...........|...........|...........|...........|...........|...........|...........
|...........|...........|...........|...........|...........|...........|...........|...........|...........|...........|...........|...........|...........|...........|...........|...........|...........|...........|...........|...........|...........|...........|...........|...........|...........|...........|...........|...........
|...........|...........|...........|...........|...........|...........|...........|...........|...........|...........|...........|...........|...........|...........|...........|...........|...........|...........|...........|...........|...........|...........|...........|...........|...........|...........|...........|...........
|...........|...........|E-506......|B-406......|F#406......|G#406......|B-306......|...........|...........|...........|C-503......|G-404......|C-526......|...........|C-528......|C-519......|...........|B-510......|D#611......|...........|...........|...........|...........|...........|...........|...........|...........|...........
|...........|...........|...........|...........|...........|...........|...........|...........|...........|...........|...........|...........|...........|...........|...........|...........|...........|...........|...........|...........|...........|...........|...........|...........|...........|...........|...........|...........
|...........|...........|...........|...........|...........|...........|...........|...........|...........|...........|...........|...........|...........|...........|...........|...........|...........|...........|...........|...........|...........|...........|...........|...........|...........|...........|...........|...........
|...........|...........|...........|...........|...........|...........|...........|...........|...........|...........|...........|...........|...........|...........|...........|...........|...........|...........|...........|...........|...........|...........|...........|...........|...........|...........|...........|...........
|...........|...........|...........|...........|...........|...........|...........|...........|...........|...........|...........|...........|...........|...........|...........|...........|...........|...........|...........|...........|...........|...........|...........|...........|...........|...........|...........|...........
|...........|...........|...........|...........|...........|...........|...........|...........|...........|...........|...........|C-403......|...........|...........|...........|...........|...........|G#510......|...........|...........|...........|...........|...........|...........|...........|...........|...........|...........
|...........|...........|...........|...........|...........|...........|...........|...........|...........|...........|...........|...........|...........|...........|...........|...........|...........|...........|...........|...........|...........|...........|...........|...........|...........|...........|...........|...........
|...........|...........|...........|...........|...........|...........|...........|...........|...........|...........|...........|...........|...........|...........|...........|...........|...........|...........|...........|...........|...........|...........|...........|...........|...........|...........|...........|...........
|...........|B-302......|...........|...........|...........|...........|...........|...........|...........|...........|C-403......|...........|...........|...........|C-527......|F-518......|...........|...........|E-611......|...........|...........|...........|...........|...........|...........|...........|...........|...........
|...........|...........|...........|...........|...........|...........|...........|...........|...........|...........|...........|...........|...........|...........|...........|...........|...........|...........|...........|...........|...........|...........|...........|...........|...........|...........|...........|...........
|...........|...........|...........|...........|...........|...........|...........|...........|...........|...........|...........|...........|...........|...........|...........|...........|...........|...........|...........|...........|...........|...........|...........|...........|...........|...........|...........|...........
|...........|...........|...........|...........|...........|...........|...........|...........|...........|...........|...........|...........|...........|...........|...........|...........|...........|...........|...........|...........|...........|...........|...........|...........|...........|...........|...........|...........
|...........|...........|...........|...........|...........|...........|...........|...........|...........|...........|...........|...........|...........|...........|...........|...........|...........|...........|^^^........|...........|...........|...........|...........|...........|...........|...........|...........|...........
|...........|...........|F#406......|G#406......|E-406......|B-306......|D#506......|...........|...........|...........|...........|...........|...........|...........|C-527......|...........|...........|...........|...........|...........|...........|...........|...........|...........|...........|...........|...........|...........
|...........|...........|...........|...........|...........|...........|...........|...........|...........|...........|...........|...........|...........|...........|...........|...........|...........|...........|...........|...........|...........|...........|...........|...........|...........|...........|...........|...........
|...........|...........|...........|...........|...........|...........|...........|...........|...........|...........|...........|...........|...........|...........|...........|...........|...........|...........|...........|...........|...........|...........|...........|...........|...........|...........|...........|...........
|...........|...........|...........|...........|...........|...........|...........|...........|...........|...........|G-404......|C-503......|G-525......|...........|C-528......|C-519......|...........|G#610......|C#711......|...........|...........|...........|...........|...........|...........|...........|...........|...........
|...........|...........|...........|...........|...........|...........|...........|...........|...........|...........|...........|...........|...........|...........|...........|...........|...........|...........|...........|...........|...........|...........|...........|...........|...........|...........|...........|...........
|...........|...........|...........|...........|...........|...........|...........|...........|...........|...........|...........|...........|...........|...........|...........|...........|...........|...........|........E10|...........|...........|...........|...........|...........|...........|...........|...........|...........
|...........|...........|...........|...........|...........|...........|...........|...........|...........|...........|...........|...........|...........|...........|...........|...........|...........|^^^........|...........|...........|...........|...........|...........|...........|...........|...........|...........|...........
|...........|...........|...........|...........|...........|...........|...........|...........|...........|...........|...........|...........|...........|...........|...........|...........|...........|...........|...........|...........|...........|...........|...........|...........|...........|...........|...........|...........
|...........|...........|...........|...........|...........|...........|...........|...........|...........|...........|C-403......|...........|...........|...........|...........|...........|...........|...........|...........|...........|...........|...........|...........|...........|...........|...........|...........|...........
|...........|...........|...........|...........|...........|...........|...........|...........|...........|...........|...........|...........|...........|...........|...........|...........|...........|...........|...........|...........|...........|...........|...........|...........|...........|...........|...........|...........
|...........|...........|...........|...........|...........|...........|...........|...........|...........|...........|...........|...........|...........|...........|...........|...........|...........|...........|...........|...........|...........|...........|...........|...........|...........|...........|...........|...........
Rows: 64
|...........|A#302......|C#506......|G#406......|E-406......|A#306......|...........|...........|...........|...........|...........|C-403......|...........|...........|C-527......|C-519......|...........|D#610......|...........|...........|...........|...........|...........|...........|...........|...........|...........|...........
|...........|...........|...........|...........|...........|...........|...........|...........|...........|...........|...........|...........|...........|...........|...........|...........|...........|...........|...........|...........|...........|...........|...........|...........|...........|...........|...........|...........
|...........|...........|...........|...........|...........|...........|...........|...........|...........|...........|...........|...........|...........|...........|...........|...........|...........|...........|...........|...........|...........|...........|...........|...........|...........|...........|...........|...........
|...........|...........|...........|...........|...........|...........|...........|...........|...........|...........|...........|...........|...........|...........|...........|...........|...........|...........|...........|...........|...........|...........|...........|...........|...........|...........|...........|...........
|...........|...........|...........|...........|...........|...........|...........|...........|...........|...........|...........|...........|...........|...........|...........|...........|...........|...........|...........|...........|...........|...........|...........|...........|...........|...........|...........|...........
|...........|...........|...........|...........|...........|...........|...........|...........|...........|...........|...........|...........|...........|...........|C-527......|...........|...........|C#610......|...........|C#511......|...........|...........|...........|...........|...........|...........|...........|...........
|...........|...........|...........|...........|...........|...........|...........|...........|...........|...........|...........|...........|...........|...........|...........|...........|...........|...........|...........|...........|...........|...........|...........|...........|...........|...........|...........|...........
|...........|...........|...........|...........|...........|...........|...........|...........|...........|...........|...........|...........|...........|...........|...........|...........|...........|...........|...........|...........|...........|...........|...........|...........|...........|...........|...........|...........
|...........|...........|...........|...........|...........|...........|...........|...........|...........|...........|C-503......|G-404......|C-526......|...........|C-528......|...........|...........|D#610......|A#611......|D#511......|...........|...........|...........|...........|...........|...........|...........|...........
|...........|...........|...........|...........|...........|...........|...........|...........|...........|...........|...........|...........|...........|...........|...........|...........|...........|...........|...........|...........|...........|...........|...........|...........|...........|...........|...........|...........
|...........|...........|...........|...........|...........|...........|...........|...........|...........|...........|...........|...........|...........|...........|...........|...........|...........|...........|...........|...........|...........|...........|...........|...........|...........|...........|...........|...........
|...........|...........|...........|...........|...........|...........|...........|...........|...........|...........|...........|...........|...........|...........|...........|...........|...........|...........|...........|...........|...........|...........|...........|...........|...........|...........|...........|...........
|...........|...........|...........|...........|...........|...........|...........|...........|...........|...........|...........|...........|...........|...........|...........|...........|...........|...........|^^^........|...........|...........|...........|...........|...........|...........|...........|...........|...........
|...........|...........|...........|...........|...........|...........|...........|...........|...........|...........|...........|C-403......|...........|...........|...........|...........|...........|C#610......|...........|E-511......|...........|...........|...........|...........|...........|...........|...........|...........
|...........|...........|...........|...........|...........|...........|...........|...........|...........|...........|...........|...........|...........|...........|...........|...........|...........|...........|...........|...........|...........|...........|...........|...........|...........|...........|...........|...........
|...........|...........|...........|...........|...........|...........|...........|...........|...........|...........|...........|...........|...........|...........|...........|...........|...........|...........|...........|...........|...........|...........|...........|...........|...........|...........|...........|...........
|...........|G#302......|...........|...........|...........|...........|...........|...........|...........|...........|C-403......|...........|...........|...........|C-527......|F-518......|...........|...........|G#611......|...........|...........|...........|...........|...........|...........|...........|...........|...........
|...........|...........|...........|...........|...........|...........|...........|...........|...........|...........|...........|...........|...........|...........|...........|...........|...........|...........|...........|...........|...........|...........|...........|...........|...........|...........|...........|...........
|...........|...........|...........|...........|...........|...........|...........|...........|...........|...........|...........|...........|...........|...........|...........|...........|...........|...........|...........|...........|...........|...........|...........|...........|...........|...........|...........|...........
|...........|...........|...........|...........|...........|...........|...........|...........|...........|...........|...........|...........|...........|...........|...........|...........|...........|...........|...........|...........|...........|...........|...........|...........|...........|...........|...........|...........
|...........|...........|...........|...........|...........|...........|...........|...........|...........|...........|...........|...........|...........|...........|...........|...........|...........|...........|...........|...........|...........|...........|...........|...........|...........|...........|...........|...........
|...........|...........|...........|...........|...........|...........|...........|...........|...........|...........|...........|...........|...........|...........|C-527......|...........|...........|...........|F#611......|...........|...........|...........|...........|...........|...........|...........|...........|...........
|...........|...........|...........|...........|...........|...........|...........|...........|...........|...........|...........|...........|...........|...........|...........|...........|...........|...........|...........|...........|...........|...........|...........|...........|...........|...........|...........|...........
|...........|...........|...........|...........|...........|...........|...........|...........|...........|...........|...........|...........|...........|...........|...........|...........|...........|...........|...........|...........|...........|...........|...........|...........|...........|...........|...........|...........
|...........|...........|...........|...........|...........|...........|...........|...........|...........|...........|G-404......|C-503......|G-525......|...........|C-528......|...........|...........|G#610......|^^^........|G#511......|...........|...........|...........|...........|...........|...........|...........|...........
|...........|...........|...........|...........|...........|...........|...........|...........|...........|...........|...........|...........|...........|...........|...........|...........|...........|...........|...........|...........|...........|...........|...........|...........|...........|...........|...........|...........
|...........|...........|...........|...........|...........|...........|...........|...........|...........|...........|...........|...........|...........|...........|...........|...........|...........|........F10|...........|...........|...........|...........|...........|...........|...........|...........|...........|...........
|...........|...........|...........|...........|...........|...........|...........|...........|...........|...........|...........|...........|...........|...........|...........|...........|...........|...........|...........|...........|...........|...........|...........|...........|...........|...........|...........|...........
|...........|...........|...........|...........|...........|...........|...........|...........|...........|...........|...........|...........|...........|...........|...........|...........|...........|...........|...........|^^^........|...........|...........|...........|...........|...........|...........|...........|...........
|...........|...........|...........|...........|...........|...........|...........|...........|...........|...........|C-403......|...........|...........|...........|...........|F-518......|...........|........E10|D#711......|...........|...........|...........|...........|...........|...........|...........|...........|...........
|...........|...........|...........|...........|...........|...........|...........|...........|...........|...........|...........|...........|...........|...........|...........|...........|...........|...........|...........|...........|...........|...........|...........|...........|...........|...........|...........|...........
|...........|...........|...........|...........|...........|...........|...........|...........|...........|...........|...........|...........|...........|...........|...........|...........|...........|...........|........E10|...........|...........|...........|...........|...........|...........|...........|...........|...........
|...........|F#302......|...........|...........|...........|...........|...........|...........|...........|...........|...........|C-403......|...........|...........|C-527......|...........|...........|...........|...........|G#411......|...........|...........|...........|...........|...........|...........|...........|...........
|...........|...........|...........|...........|...........|...........|...........|...........|...........|...........|...........|...........|...........|...........|...........|...........|...........|...........|...........|...........|...........|...........|...........|...........|...........|...........|...........|...........
|...........|...........|...........|...........|...........|...........|...........|...........|...........|...........|...........|...........|...........|...........|...........|...........|...........|...........|...........|...........|...........|...........|...........|...........|...........|...........|...........|...........
|...........|...........|...........|...........|...........|...........|...........|...........|...........|...........|...........|...........|...........|...........|...........|...........|...........|...........|...........|...........|...........|...........|...........|...........|...........|...........|...........|...........
|...........|...........|...........|...........|...........|...........|...........|...........|...........|...........|...........|...........|...........|...........|...........|...........|...........|...........|...........|...........|...........|...........|...........|...........|...........|...........|...........|...........
|...........|...........|...........|...........|...........|...........|...........|...........|...........|...........|...........|...........|...........|...........|C-527......|...........|...........|F#610......|...........|A#411......|...........|...........|...........|...........|...........|...........|...........|...........
|...........|...........|...........|...........|...........|...........|...........|...........|...........|...........|...........|...........|...........|...........|...........|...........|...........|...........|...........|...........|...........|...........|...........|...........|...........|...........|...........|...........
|...........|...........|...........|...........|...........|...........|...........|...........|...........|...........|...........|...........|...........|...........|...........|...........|...........|...........|...........|...........|...........|...........|...........|...........|...........|...........|...........|...........
|...........|...........|E-306......|A#306......|D#406......|G#406......|C#506......|...........|...........|...........|C-503......|G-404......|C-526......|...........|C-528......|C-519......|...........|D#610......|A#611......|C#511......|...........|...........|...........|...........|...........|...........|...........|...........
|...........|...........|...........|...........|...........|...........|...........|...........|...........|...........|...........|...........|...........|...........|...........|...........|...........|...........|...........|...........|...........|...........|...........|...........|...........|...........|...........|...........
|...........|...........|...........|...........|...........|...........|...........|...........|...........|...........|...........|...........|...........|...........|...........|...........|...........|...........|...........|...........|...........|...........|...........|...........|...........|...........|...........|...........
|...........|...........|...........|...........|...........|...........|...........|...........|...........|...........|...........|...........|...........|...........|...........|...........|...........|...........|...........|...........|...........|...........|...........|...........|...........|...........|...........|...........
|...........|...........|...........|...........|...........|...........|...........|...........|...........|...........|...........|...........|...........|...........|...........|...........|...........|...........|^^^........|...........|...........|...........|...........|...........|...........|...........|...........|...........
|...........|...........|...........|...........|...........|...........|...........|...........|...........|...........|...........|C-403......|...........|...........|...........|...........|...........|C#610......|...........|A#411......|...........|...........|...........|...........|...........|...........|...........|...........
|...........|...........|...........|...........|...........|...........|...........|...........|...........|...........|...........|...........|...........|...........|...........|...........|...........|...........|...........|...........|...........|...........|...........|...........|...........|...........|...........|...........
|...........|...........|...........|...........|...........|...........|...........|...........|...........|...........|...........|...........|...........|...........|...........|...........|...........|...........|...........|...........|...........|...........|...........|...........|...........|...........|...........|...........
|...........|E-302......|...........|...........|...........|...........|...........|...........|...........|...........|C-403......|...........|...........|...........|C-527......|F-518......|...........|...........|...........|...........|...........|...........|...........|...........|...........|...........|...........|...........
|...........|...........|...........|...........|...........|...........|...........|...........|...........|...........|...........|...........|...........|...........|...........|...........|...........|...........|...........|...........|...........|...........|...........|...........|...........|...........|...........|...........
|...........|...........|...........|...........|...........|...........|...........|...........|...........|...........|...........|...........|...........|...........|...........|...........|...........|...........|...........|...........|...........|...........|...........|...........|...........|...........|...........|...........
|...........|...........|...........|...........|...........|...........|...........|...........|...........|...........|...........|...........|...........|...........|...........|...........|...........|...........|...........|...........|...........|...........|...........|...........|...........|...........|...........|...........
|...........|...........|...........|...........|...........|...........|...........|...........|...........|...........|...........|...........|...........|...........|...........|...........|...........|...........|...........|...........|...........|...........|...........|...........|...........|...........|...........|...........
|...........|...........|A#306......|E-406......|G#406......|A#406......|D#506......|...........|...........|...........|...........|...........|...........|...........|C-527......|...........|...........|...........|G#611......|...........|...........|...........|...........|...........|...........|...........|...........|...........
|...........|...........|...........|...........|...........|...........|...........|...........|...........|...........|...........|...........|...........|...........|...........|...........|...........|...........|...........|...........|...........|...........|...........|...........|...........|...........|...........|...........
|...........|...........|...........|...........|...........|...........|...........|...........|...........|...........|...........|...........|...........|...........|...........|...........|...........|...........|...........|...........|...........|...........|...........|...........|...........|...........|...........|...........
|...........|...........|...........|...........|...........|...........|...........|...........|D#629......|A#529......|G-404......|C-503......|G-525......|...........|C-528......|C-519......|...........|D#610......|...........|A#511......|...........|...........|...........|...........|...........|...........|...........|...........
|...........|...........|...........|...........|...........|...........|...........|...........|...........|...........|...........|...........|...........|...........|...........|...........|...........|...........|........E10|...........|...........|...........|...........|...........|...........|...........|...........|...........
|...........|...........|...........|...........|...........|...........|...........|...........|...........|...........|...........|...........|...........|...........|...........|...........|...........|...........|...........|...........|...........|...........|...........|...........|...........|...........|...........|...........
|...........|...........|...........|...........|...........|...........|...........|...........|^^^........|^^^........|...........|...........|...........|...........|...........|...........|...........|...........|...........|^^^........|...........|...........|...........|...........|...........|...........|...........|...........
|...........|...........|...........|...........|...........|...........|...........|...........|...........|...........|...........|...........|...........|...........|...........|...........|...........|...........|...........|...........|...........|...........|...........|...........|...........|...........|...........|...........
|...........|...........|...........|...........|...........|...........|...........|...........|...........|...........|C-403......|...........|...........|...........|...........|...........|...........|...........|F-711......|...........|...........|...........|...........|...........|...........|...........|...........|...........
|...........|...........|...........|...........|...........|...........|...........|...........|...........|...........|...........|...........|...........|...........|...........|...........|...........|^^^........|...........|...........|...........|...........|...........|...........|...........|...........|...........|...........
|...........|...........|...........|...........|...........|...........|...........|...........|...........|...........|...........|...........|...........|...........|...........|...........|...........|...........|...........|...........|...........|...........|...........|...........|...........|...........|...........|...........
Rows: 64
|...........|D#302......|G#306......|A#306......|D#406......|G-406......|C-506......|...........|A#529......|F-529......|...........|C-403......|...........|C-520......|C-527......|C-519......|...........|...........|........E10|...........|...........|...........|...........|...........|...........|...........|...........|...........
|...........|...........|...........|...........|...........|...........|...........|...........|...........|...........|...........|...........|...........|...........|...........|...........|...........|...........|...........|...........|...........|...........|...........|...........|...........|...........|...........|...........
|...........|...........|...........|...........|...........|...........|...........|...........|...........|...........|...........|...........|...........|...........|...........|...........|...........|...........|...........|...........|...........|...........|...........|...........|...........|...........|...........|...........
|...........|...........|...........|...........|...........|...........|...........|...........|...........|...........|...........|...........|...........|...........|...........|...........|...........|...........|...........|...........|...........|...........|...........|...........|...........|...........|...........|...........
|...........|...........|...........|...........|...........|...........|...........|...........|...........|...........|...........|...........|...........|...........|...........|...........|...........|...........|...........|...........|...........|...........|...........|...........|...........|...........|...........|...........
|...........|...........|...........|...........|...........|...........|...........|...........|........F10|........F10|...........|...........|...........|...........|C-527......|...........|...........|D#610......|...........|...........|...........|...........|...........|...........|...........|...........|...........|...........
|...........|...........|...........|...........|...........|...........|...........|...........|...........|...........|...........|...........|...........|...........|...........|...........|...........|...........|...........|...........|...........|...........|...........|...........|...........|...........|...........|...........
|...........|...........|...........|...........|...........|...........|...........|...........|...........|...........|...........|...........|...........|...........|...........|...........|...........|...........|...........|...........|...........|...........|...........|...........|...........|...........|...........|...........
|...........|...........|...........|...........|...........|...........|...........|...........|...........|...........|C-503......|G-404......|C-526......|...........|C-528......|...........|...........|F-610......|C-711......|C-611......|...........|...........|...........|...........|...........|...........|...........|...........
|...........|...........|...........|...........|...........|...........|...........|...........|...........|...........|...........|...........|...........|...........|...........|...........|...........|...........|...........|...........|...........|...........|...........|...........|...........|...........|...........|...........
|...........|...........|...........|...........|...........|...........|...........|...........|...........|...........|...........|...........|...........|...........|...........|...........|...........|...........|...........|...........|...........|...........|...........|...........|...........|...........|...........|...........
|...........|...........|...........|...........|...........|...........|...........|...........|...........|...........|...........|...........|...........|...........|...........|...........|...........|...........|^^^........|...........|...........|...........|...........|...........|...........|...........|...........|...........
|...........|...........|...........|...........|...........|...........|...........|...........|...........|...........|...........|...........|...........|...........|...........|...........|...........|...........|...........|^^^........|...........|...........|...........|...........|...........|...........|...........|...........
|...........|...........|...........|...........|...........|...........|...........|...........|C-629......|G-529......|...........|C-403......|...........|...........|...........|...........|...........|G-610......|...........|...........|...........|...........|...........|...........|...........|...........|...........|...........
|...........|...........|...........|...........|...........|...........|...........|...........|...........|...........|...........|...........|...........|...........|...........|...........|...........|...........|...........|...........|...........|...........|...........|...........|...........|...........|...........|...........
|...........|...........|...........|...........|...........|...........|...........|...........|...........|...........|...........|...........|...........|...........|...........|...........|...........|...........|...........|...........|...........|...........|...........|...........|...........|...........|...........|...........
|...........|C#402......|...........|...........|...........|...........|...........|...........|^^^........|^^^........|C-403......|...........|...........|...........|C-527......|F-518......|...........|...........|...........|A#511......|...........|...........|...........|...........|...........|...........|...........|...........
|...........|...........|...........|...........|...........|...........|...........|...........|...........|...........|...........|...........|...........|...........|...........|...........|...........|...........|...........|...........|...........|...........|...........|...........|...........|...........|...........|...........
|...........|...........|...........|...........|...........|...........|...........|...........|...........|...........|...........|...........|...........|...........|...........|...........|...........|...........|...........|...........|...........|...........|...........|...........|...........|...........|...........|...........
|...........|...........|...........|...........|...........|...........|...........|...........|...........|...........|...........|...........|...........|...........|...........|...........|...........|...........|...........|...........|...........|...........|...........|...........|...........|...........|...........|...........
|...........|...........|...........|...........|...........|...........|...........|...........|...........|...........|...........|...........|...........|...........|...........|...........|...........|...........|...........|...........|...........|...........|...........|...........|...........|...........|...........|...........
|...........|...........|...........|...........|...........|...........|...........|...........|...........|...........|...........|...........|...........|...........|C-527......|...........|...........|...........|A#611......|G#511......|...........|...........|...........|...........|...........|...........|...........|...........
|...........|...........|...........|...........|...........|...........|...........|...........|...........|...........|...........|...........|...........|...........|...........|...........|...........|...........|...........|...........|...........|...........|...........|...........|...........|...........|...........|...........
|...........|...........|...........|...........|...........|...........|...........|...........|...........|...........|...........|...........|...........|...........|...........|...........|...........|...........|...........|...........|...........|...........|...........|...........|...........|...........|...........|...........
|...........|...........|...........|...........|...........|...........|...........|...........|...........|...........|G-404......|C-503......|G-525......|...........|C-528......|...........|...........|A#610......|........E10|^^^........|...........|...........|...........|...........|...........|...........|...........|...........
|...........|...........|...........|...........|...........|...........|...........|...........|...........|...........|...........|...........|...........|...........|...........|...........|...........|...........|...........|...........|...........|...........|...........|...........|...........|...........|...........|...........
|...........|...........|...........|...........|...........|...........|...........|...........|...........|...........|...........|...........|...........|...........|...........|...........|...........|...........|...........|...........|...........|...........|...........|...........|...........|...........|...........|...........
|...........|...........|...........|...........|...........|...........|...........|...........|...........|...........|...........|...........|...........|...........|...........|...........|...........|...........|...........|...........|...........|...........|...........|...........|...........|...........|...........|...........
|...........|...........|...........|...........|...........|...........|...........|...........|...........|...........|...........|...........|...........|...........|...........|...........|...........|^^^........|...........|...........|...........|...........|...........|...........|...........|...........|...........|...........
|...........|...........|...........|...........|...........|...........|...........|...........|...........|...........|C-403......|...........|...........|...........|...........|F-518......|...........|...........|A#711......|F-611......|...........|...........|...........|...........|...........|...........|...........|...........
|...........|...........|...........|...........|...........|...........|...........|...........|...........|...........|...........|...........|...........|...........|...........|...........|...........|...........|...........|...........|...........|...........|...........|...........|...........|...........|...........|...........
|...........|...........|...........|...........|...........|...........|...........|...........|...........|...........|...........|...........|...........|...........|...........|...........|...........|...........|........E10|........E10|...........|...........|...........|...........|...........|...........|...........|...........
|...........|C-402......|...........|...........|...........|...........|...........|...........|...........|...........|...........|C-403......|...........|...........|C-527......|...........|...........|A#510......|...........|...........|...........|...........|...........|...........|...........|...........|...........|...........
|...........|...........|...........|...........|...........|...........|...........|...........|...........|...........|...........|...........|...........|...........|...........|...........|...........|...........|...........|...........|...........|...........|...........|...........|...........|...........|...........|...........
|...........|...........|...........|...........|...........|...........|...........|...........|...........|...........|...........|...........|...........|...........|...........|...........|...........|...........|...........|...........|...........|...........|...........|...........|...........|...........|...........|...........
|...........|...........|...........|...........|...........|...........|...........|...........|...........|...........|...........|...........|...........|...........|...........|...........|...........|...........|...........|...........|...........|...........|...........|...........|...........|...........|...........|...........
|...........|...........|...........|...........|...........|...........|...........|...........|...........|...........|...........|...........|...........|...........|...........|...........|...........|...........|...........|...........|...........|...........|...........|...........|...........|...........|...........|...........
|...........|...........|...........|...........|...........|...........|...........|...........|...........|...........|...........|...........|...........|...........|C-527......|...........|...........|C-610......|...........|...........|...........|...........|...........|...........|...........|...........|...........|...........
|...........|...........|...........|...........|...........|...........|...........|...........|...........|...........|...........|...........|...........|...........|...........|...........|...........|...........|...........|...........|...........|...........|...........|...........|...........|...........|...........|...........
|...........|...........|...........|...........|...........|...........|...........|...........|...........|...........|...........|...........|...........|...........|...........|...........|...........|...........|...........|...........|...........|...........|...........|...........|...........|...........|...........|...........
|...........|...........|D#506......|A#406......|G-406......|A#306......|...........|...........|...........|...........|C-503......|G-404......|C-526......|...........|C-528......|C-519......|...........|D#610......|F-711......|C-611......|...........|...........|...........|...........|...........|...........|...........|...........
|...........|...........|...........|...........|...........|...........|...........|...........|...........|...........|...........|...........|...........|...........|...........|...........|...........|...........|...........|...........|...........|...........|...........|...........|...........|...........|...........|...........
|...........|...........|...........|...........|...........|...........|...........|...........|...........|...........|...........|...........|...........|...........|...........|...........|...........|...........|...........|...........|...........|...........|...........|...........|...........|...........|...........|...........
|...........|...........|...........|...........|...........|...........|...........|...........|...........|...........|...........|...........|...........|...........|...........|...........|...........|...........|^^^........|...........|...........|...........|...........|...........|...........|...........|...........|...........
|...........|...........|...........|...........|...........|...........|...........|...........|...........|...........|...........|...........|...........|...........|...........|...........|...........|...........|...........|^^^........|...........|...........|...........|...........|...........|...........|...........|...........
|...........|...........|...........|...........|...........|...........|...........|...........|...........|...........|...........|C-403......|...........|...........|...........|...........|...........|C-610......|...........|...........|...........|...........|...........|...........|...........|...........|...........|...........
|...........|...........|...........|...........|...........|...........|...........|...........|...........|...........|...........|...........|...........|...........|...........|...........|...........|...........|...........|...........|...........|...........|...........|...........|...........|...........|...........|...........
|...........|...........|...........|...........|...........|...........|...........|...........|...........|...........|...........|...........|...........|...........|...........|...........|...........|...........|...........|...........|...........|...........|...........|...........|...........|...........|...........|...........
|...........|F-302......|...........|...........|...........|...........|...........|...........|...........|...........|C-403......|...........|...........|...........|C-527......|F-518......|...........|...........|...........|...........|...........|...........|...........|...........|...........|...........|...........|...........
|...........|...........|...........|...........|...........|...........|...........|...........|...........|...........|...........|...........|...........|...........|...........|...........|...........|...........|...........|...........|...........|...........|...........|...........|...........|...........|...........|...........
|...........|...........|...........|...........|...........|...........|...........|...........|...........|...........|...........|...........|...........|...........|...........|...........|...........|...........|...........|...........|...........|...........|...........|...........|...........|...........|...........|...........
|...........|...........|...........|...........|...........|...........|...........|...........|...........|...........|...........|...........|...........|...........|...........|...........|...........|...........|...........|...........|...........|...........|...........|...........|...........|...........|...........|...........
|...........|...........|...........|...........|...........|...........|...........|...........|...........|...........|...........|...........|...........|...........|...........|...........|...........|...........|...........|...........|...........|...........|...........|...........|...........|...........|...........|...........
|...........|...........|G#406......|G-406......|D#406......|G#306......|F-406......|...........|...........|...........|...........|...........|...........|...........|C-527......|...........|...........|...........|D#711......|A#511......|...........|...........|...........|...........|...........|...........|...........|...........
|...........|...........|...........|...........|...........|...........|...........|...........|...........|...........|...........|...........|...........|...........|...........|...........|...........|...........|...........|...........|...........|...........|...........|...........|...........|...........|...........|...........
|...........|...........|...........|...........|...........|...........|...........|...........|...........|...........|...........|...........|...........|...........|...........|...........|...........|...........|...........|...........|...........|...........|...........|...........|...........|...........|...........|...........
|...........|...........|...........|...........|...........|...........|...........|...........|...........|...........|G-404......|C-503......|G-525......|...........|C-528......|C-519......|...........|C-710......|C-711......|...........|...........|...........|...........|...........|...........|...........|...........|...........
|...........|...........|...........|...........|...........|...........|...........|...........|...........|...........|...........|...........|...........|...........|...........|...........|...........|...........|...........|........E10|...........|...........|...........|...........|...........|...........|...........|...........
|...........|...........|...........|...........|...........|...........|...........|...........|...........|...........|...........|...........|...........|...........|...........|...........|...........|...........|...........|...........|...........|...........|...........|...........|...........|...........|...........|...........
|...........|...........|...........|...........|...........|...........|...........|...........|...........|...........|...........|...........|...........|...........|...........|...........|...........|^^^........|...........|...........|...........|...........|...........|...........|...........|...........|...........|...........
|...........|...........|...........|...........|...........|...........|...........|...........|...........|...........|...........|...........|...........|...........|...........|...........|...........|...........|...........|...........|...........|...........|...........|...........|...........|...........|...........|...........
|...........|...........|...........|...........|...........|...........|...........|...........|...........|...........|C-403......|...........|...........|...........|...........|...........|...........|...........|D#711......|G-611......|...........|...........|...........|...........|...........|...........|...........|...........
|...........|...........|...........|...........|...........|...........|...........|...........|...........|...........|...........|...........|...........|...........|...........|...........|...........|...........|...........|...........|...........|...........|...........|...........|...........|...........|...........|...........
|...........|...........|...........|...........|...........|...........|...........|...........|...........|...........|...........|...........|...........|...........|...........|...........|...........|...........|...........|...........|...........|...........|...........|...........|...........|...........|...........|...........
Rows: 64
|...........|A#302......|F-306......|G#306......|D-406......|G-406......|C-506......|...........|...........|...........|...........|C-403......|...........|...........|C-527......|C-519......|...........|G-610......|...........|........E10|...........|...........|...........|...........|...........|...........|...........|...........
|...........|...........|...........|...........|...........|...........|...........|...........|...........|...........|...........|...........|...........|...........|...........|...........|...........|...........|...........|...........|...........|...........|...........|...........|...........|...........|...........|...........
|...........|...........|...........|...........|...........|...........|...........|...........|...........|...........|...........|...........|...........|...........|...........|...........|...........|...........|...........|...........|...........|...........|...........|...........|...........|...........|...........|...........
|...........|...........|...........|...........|...........|...........|...........|...........|...........|...........|...........|...........|...........|...........|...........|...........|...........|...........|........H66|...........|...........|...........|...........|...........|...........|...........|...........|...........
|...........|...........|...........|...........|...........|...........|...........|...........|...........|...........|...........|...........|...........|...........|...........|...........|...........|...........|........H66|...........|...........|...........|...........|...........|...........|...........|...........|...........
|...........|...........|...........|...........|...........|...........|...........|...........|...........|...........|...........|...........|...........|...........|C-527......|...........|F-511......|F-610......|........H66|...........|...........|...........|...........|...........|...........|...........|...........|...........
|...........|...........|...........|...........|...........|...........|...........|...........|...........|...........|...........|...........|...........|...........|...........|...........|...........|...........|........H66|...........|...........|...........|...........|...........|...........|...........|...........|...........
|...........|...........|...........|...........|...........|...........|...........|...........|...........|...........|...........|...........|...........|...........|...........|...........|...........|...........|........H66|...........|...........|...........|...........|...........|...........|...........|...........|...........
|...........|...........|...........|...........|...........|...........|...........|...........|...........|...........|C-503......|G-404......|C-526......|...........|C-528......|...........|G-511......|G-610......|F-711......|D-611......|...........|...........|...........|...........|...........|...........|...........|...........
|...........|...........|...........|...........|...........|...........|...........|...........|...........|...........|...........|...........|...........|...........|...........|...........|...........|...........|...........|...........|...........|...........|...........|...........|...........|...........|...........|...........
|...........|...........|...........|...........|...........|...........|...........|...........|...........|...........|...........|...........|...........|...........|...........|...........|...........|...........|...........|...........|...........|...........|...........|...........|...........|...........|...........|...........
|...........|...........|...........|...........|...........|...........|...........|...........|...........|...........|...........|...........|...........|...........|...........|...........|...........|...........|...........|^^^........|...........|...........|...........|...........|...........|...........|...........|...........
|...........|...........|...........|...........|...........|...........|...........|...........|...........|...........|...........|...........|...........|...........|...........|...........|...........|...........|^^^........|...........|...........|...........|...........|...........|...........|...........|...........|...........
|...........|...........|...........|...........|...........|...........|...........|...........|...........|...........|...........|C-403......|...........|...........|...........|...........|G#511......|F-610......|...........|...........|...........|...........|...........|...........|...........|...........|...........|...........
|...........|...........|...........|...........|...........|...........|...........|...........|...........|...........|...........|...........|...........|...........|...........|...........|...........|...........|...........|...........|...........|...........|...........|...........|...........|...........|...........|...........
|...........|...........|...........|...........|...........|...........|...........|...........|...........|...........|...........|...........|...........|...........|...........|...........|...........|...........|...........|...........|...........|...........|...........|...........|...........|...........|...........|...........
|...........|G#302......|...........|...........|...........|...........|...........|...........|...........|...........|C-403......|...........|...........|...........|C-527......|F-518......|...........|...........|...........|...........|...........|...........|...........|...........|...........|...........|...........|...........
|...........|...........|...........|...........|...........|...........|...........|...........|...........|...........|...........|...........|...........|...........|...........|...........|...........|...........|...........|...........|...........|...........|...........|...........|...........|...........|...........|...........
|...........|...........|...........|...........|...........|...........|...........|...........|...........|...........|...........|...........|...........|...........|...........|...........|...........|...........|...........|...........|...........|...........|...........|...........|...........|...........|...........|...........
|...........|...........|...........|...........|...........|...........|...........|...........|...........|...........|...........|...........|...........|...........|...........|...........|...........|...........|...........|...........|...........|...........|...........|...........|...........|...........|...........|...........
|...........|...........|...........|...........|...........|...........|...........|...........|...........|...........|...........|...........|...........|...........|...........|...........|...........|^^^........|...........|...........|...........|...........|...........|...........|...........|...........|...........|...........
|...........|...........|...........|...........|...........|...........|...........|...........|...........|...........|...........|...........|...........|...........|C-527......|...........|...........|...........|G-711......|C-611......|...........|...........|...........|...........|...........|...........|...........|...........
|...........|...........|...........|...........|...........|...........|...........|...........|...........|...........|...........|...........|...........|...........|...........|...........|...........|...........|...........|...........|...........|...........|...........|...........|...........|...........|...........|...........
|...........|...........|...........|...........|...........|...........|...........|...........|...........|...........|...........|...........|...........|...........|...........|...........|...........|...........|...........|...........|...........|...........|...........|...........|...........|...........|...........|...........
|...........|...........|...........|...........|...........|...........|...........|...........|...........|...........|G-404......|C-503......|G-525......|...........|C-528......|...........|C-611......|C-710......|........E10|........E10|...........|...........|...........|...........|...........|...........|...........|...........
|...........|...........|...........|...........|...........|...........|...........|...........|...........|...........|...........|...........|...........|...........|...........|...........|...........|...........|...........|...........|...........|...........|...........|...........|...........|...........|...........|...........
|...........|...........|...........|...........|...........|...........|...........|...........|...........|...........|...........|...........|...........|...........|...........|...........|...........|........F10|...........|...........|...........|...........|...........|...........|...........|...........|...........|...........
|...........|...........|...........|...........|...........|...........|...........|...........|...........|...........|...........|...........|...........|...........|...........|...........|...........|...........|...........|...........|...........|...........|...........|...........|...........|...........|...........|...........
|...........|...........|...........|...........|...........|...........|...........|...........|...........|...........|...........|...........|...........|...........|...........|...........|^^^........|...........|...........|...........|...........|...........|...........|...........|...........|...........|...........|...........
|...........|...........|...........|...........|...........|...........|...........|...........|...........|...........|C-403......|...........|...........|...........|...........|F-518......|...........|........E10|A#711......|C-711......|...........|...........|...........|...........|...........|...........|...........|...........
|...........|...........|...........|...........|...........|...........|...........|...........|...........|...........|...........|...........|...........|...........|...........|...........|...........|...........|...........|...........|...........|...........|...........|...........|...........|...........|...........|...........
|...........|...........|...........|...........|...........|...........|...........|...........|...........|...........|...........|...........|...........|...........|...........|...........|...........|...........|........F10|........E10|...........|...........|...........|...........|...........|...........|...........|...........
|...........|G-302......|...........|...........|...........|...........|...........|...........|...........|...........|...........|C-403......|...........|...........|C-527......|...........|C-511......|...........|...........|...........|...........|...........|...........|...........|...........|...........|...........|...........
|...........|...........|...........|...........|...........|...........|...........|...........|...........|...........|...........|...........|...........|...........|...........|...........|...........|...........|...........|...........|...........|...........|...........|...........|...........|...........|...........|...........
|...........|...........|...........|...........|...........|...........|...........|...........|...........|...........|...........|...........|...........|...........|...........|...........|...........|...........|...........|...........|...........|...........|...........|...........|...........|...........|...........|...........
|...........|...........|...........|...........|...........|...........|...........|...........|...........|...........|...........|...........|...........|...........|...........|...........|...........|...........|...........|...........|...........|...........|...........|...........|...........|...........|...........|...........
|...........|...........|...........|...........|...........|...........|...........|...........|...........|...........|...........|...........|...........|...........|...........|...........|...........|...........|...........|...........|...........|...........|...........|...........|...........|...........|...........|...........
|...........|...........|...........|...........|...........|...........|...........|...........|...........|...........|...........|...........|...........|...........|C-527......|...........|D-511......|A#610......|...........|...........|...........|...........|...........|...........|...........|...........|...........|...........
|...........|...........|...........|...........|...........|...........|...........|...........|...........|...........|...........|...........|...........|...........|...........|...........|...........|...........|...........|...........|...........|...........|...........|...........|...........|...........|...........|...........
|...........|...........|...........|...........|...........|...........|...........|...........|...........|...........|...........|...........|...........|...........|...........|...........|...........|...........|...........|...........|...........|...........|...........|...........|...........|...........|...........|...........
|...........|...........|D-506......|A#406......|F-406......|D#406......|A#306......|...........|...........|...........|C-503......|G-404......|C-526......|...........|C-528......|C-519......|F-511......|G-610......|A#711......|G-611......|...........|...........|...........|...........|...........|...........|...........|...........
|...........|...........|...........|...........|...........|...........|...........|...........|...........|...........|...........|...........|...........|...........|...........|...........|...........|...........|...........|...........|...........|...........|...........|...........|...........|...........|...........|...........
|...........|...........|...........|...........|...........|...........|...........|...........|...........|...........|...........|...........|...........|...........|...........|...........|...........|...........|...........|...........|...........|...........|...........|...........|...........|...........|...........|...........
|...........|...........|...........|...........|...........|...........|...........|...........|...........|...........|...........|...........|...........|...........|...........|...........|...........|...........|...........|^^^........|...........|...........|...........|...........|...........|...........|...........|...........
|...........|...........|...........|...........|...........|...........|...........|...........|...........|...........|...........|...........|...........|...........|...........|...........|...........|...........|^^^........|...........|...........|...........|...........|...........|...........|...........|...........|...........
|...........|...........|...........|...........|...........|...........|...........|...........|...........|...........|...........|C-403......|...........|...........|...........|...........|D-511......|F-610......|...........|...........|...........|...........|...........|...........|...........|...........|...........|...........
|...........|...........|...........|...........|...........|...........|...........|...........|...........|...........|...........|...........|...........|...........|...........|...........|...........|...........|...........|...........|...........|...........|...........|...........|...........|...........|...........|...........
|...........|...........|...........|...........|...........|...........|...........|...........|...........|...........|...........|...........|...........|...........|...........|...........|...........|...........|...........|...........|...........|...........|...........|...........|...........|...........|...........|...........
|...........|F-302......|...........|...........|...........|...........|...........|...........|...........|...........|C-403......|...........|...........|...........|C-527......|F-518......|...........|...........|...........|...........|...........|...........|...........|...........|...........|...........|...........|...........
|...........|...........|...........|...........|...........|...........|...........|...........|...........|...........|...........|...........|...........|...........|...........|...........|...........|...........|...........|...........|...........|...........|...........|...........|...........|...........|...........|...........
|...........|...........|...........|...........|...........|...........|...........|...........|...........|...........|...........|...........|...........|...........|...........|...........|...........|...........|...........|...........|...........|...........|...........|...........|...........|...........|...........|...........
|...........|...........|...........|...........|...........|...........|...........|...........|...........|...........|...........|...........|...........|...........|...........|...........|...........|...........|...........|...........|...........|...........|...........|...........|...........|...........|...........|...........
|...........|...........|...........|...........|...........|...........|...........|...........|...........|...........|...........|...........|...........|...........|...........|...........|...........|...........|...........|...........|...........|...........|...........|...........|...........|...........|...........|...........
|...........|...........|G-506......|D-506......|A#406......|F-406......|D-406......|...........|...........|........E10|...........|...........|...........|...........|C-527......|...........|...........|...........|F-711......|D-611......|...........|...........|...........|...........|...........|...........|...........|...........
|...........|...........|...........|...........|...........|...........|...........|...........|...........|...........|...........|...........|...........|...........|...........|...........|...........|...........|...........|...........|...........|...........|...........|...........|...........|...........|...........|...........
|...........|...........|...........|...........|...........|...........|...........|...........|...........|...........|...........|...........|...........|...........|...........|...........|...........|...........|...........|...........|...........|...........|...........|...........|...........|...........|...........|...........
|...........|...........|...........|...........|...........|...........|...........|...........|G-529......|G-429......|G-404......|C-503......|G-525......|...........|C-528......|C-519......|G-511......|G-610......|........F10|C-611......|...........|...........|...........|...........|...........|...........|...........|...........
|...........|...........|...........|...........|...........|...........|...........|...........|...........|...........|...........|...........|...........|...........|...........|...........|...........|...........|...........|...........|...........|...........|...........|...........|...........|...........|...........|...........
|...........|...........|...........|...........|...........|...........|...........|...........|...........|...........|...........|...........|...........|...........|...........|...........|...........|...........|...........|...........|...........|...........|...........|...........|...........|...........|...........|...........
|...........|...........|...........|...........|...........|...........|...........|...........|^^^........|^^^........|...........|...........|...........|...........|...........|...........|...........|...........|...........|...........|...........|...........|...........|...........|...........|...........|...........|...........
|...........|...........|...........|...........|...........|...........|...........|...........|...........|...........|...........|...........|...........|...........|...........|...........|^^^........|^^^........|...........|...........|...........|...........|...........|...........|...........|...........|...........|...........
|...........|...........|...........|...........|...........|...........|...........|...........|...........|...........|C-403......|...........|...........|...........|...........|...........|...........|...........|^^^........|........E08|...........|...........|...........|...........|...........|...........|...........|...........
|...........|...........|...........|...........|...........|...........|...........|...........|...........|...........|...........|...........|...........|...........|...........|...........|...........|...........|...........|...........|...........|...........|...........|...........|...........|...........|...........|...........
|...........|...........|...........|...........|...........|...........|...........|...........|...........|...........|...........|...........|...........|...........|...........|...........|...........|...........|...........|...........|...........|...........|...........|...........|...........|...........|...........|...........
Rows: 64
|...........|E-302......|E-506......|B-406......|G-406......|D-406......|C-406......|...........|...........|...........|...........|C-403......|...........|C-520......|C-527......|C-519......|...........|...........|...........|........M3A|...........|...........|...........|...........|...........|...........|...........|...........
|...........|...........|...........|...........|...........|...........|...........|...........|...........|...........|...........|...........|...........|...........|...........|...........|...........|...........|...........|...........|...........|...........|...........|...........|...........|...........|...........|...........
|...........|...........|...........|...........|...........|...........|...........|...........|...........|...........|...........|...........|...........|...........|...........|...........|...........|...........|...........|...........|...........|...........|...........|...........|...........|...........|...........|...........
|...........|...........|...........|...........|...........|...........|...........|...........|...........|...........|...........|...........|...........|...........|...........|...........|...........|...........|...........|...........|...........|...........|...........|...........|...........|...........|...........|...........
|...........|...........|...........|...........|...........|...........|...........|...........|...........|...........|...........|...........|...........|...........|...........|...........|...........|...........|...........|...........|...........|...........|...........|...........|...........|...........|...........|...........
|...........|...........|...........|...........|...........|...........|...........|...........|...........|...........|...........|...........|...........|...........|C-527......|...........|...........|...........|D-711......|...........|...........|...........|...........|...........|...........|...........|...........|...........
|...........|...........|...........|...........|...........|...........|...........|...........|...........|...........|...........|...........|...........|...........|...........|...........|...........|...........|...........|...........|...........|...........|...........|...........|...........|...........|...........|...........
|...........|...........|...........|...........|...........|...........|...........|...........|...........|...........|...........|...........|...........|...........|...........|...........|...........|...........|...........|...........|...........|...........|...........|...........|...........|...........|...........|...........
|...........|...........|...........|...........|...........|...........|...........|...........|...........|...........|C-503......|G-404......|C-526......|...........|C-528......|...........|...........|G-511......|........F10|E-510......|...........|...........|...........|...........|...........|...........|...........|...........
|...........|...........|...........|...........|...........|...........|...........|...........|...........|...........|...........|...........|...........|...........|...........|...........|...........|...........|...........|...........|...........|...........|...........|...........|...........|...........|...........|...........
|...........|...........|...........|...........|...........|...........|...........|...........|...........|...........|...........|...........|...........|...........|...........|...........|...........|...........|...........|...........|...........|...........|...........|...........|...........|...........|...........|...........
|...........|...........|...........|...........|...........|...........|...........|...........|...........|...........|...........|...........|...........|...........|...........|...........|...........|...........|...........|...........|...........|...........|...........|...........|...........|...........|...........|...........
|...........|...........|...........|...........|...........|...........|...........|...........|...........|...........|...........|...........|...........|...........|...........|...........|...........|...........|...........|^^^........|...........|...........|...........|...........|...........|...........|...........|...........
|...........|...........|...........|...........|...........|...........|...........|...........|...........|...........|...........|C-403......|...........|...........|...........|...........|...........|...........|G-711......|...........|...........|...........|...........|...........|...........|...........|...........|...........
|...........|...........|...........|...........|...........|...........|...........|...........|...........|...........|...........|...........|...........|...........|...........|...........|...........|...........|...........|...........|...........|...........|...........|...........|...........|...........|...........|...........
|...........|...........|...........|...........|...........|...........|...........|...........|...........|...........|...........|...........|...........|...........|...........|...........|...........|...........|...........|...........|...........|...........|...........|...........|...........|...........|...........|...........
|...........|B-302......|...........|...........|...........|...........|...........|...........|...........|...........|C-403......|...........|...........|...........|C-527......|F-518......|...........|...........|...........|D-510......|...........|...........|...........|...........|...........|...........|...........|...........
|...........|...........|...........|...........|...........|...........|...........|...........|...........|...........|...........|...........|...........|...........|...........|...........|...........|...........|...........|...........|...........|...........|...........|...........|...........|...........|...........|...........
|...........|...........|...........|...........|...........|...........|...........|...........|...........|...........|...........|...........|...........|...........|...........|...........|...........|...........|...........|...........|...........|...........|...........|...........|...........|...........|...........|...........
|...........|...........|...........|...........|...........|...........|...........|...........|...........|...........|...........|...........|...........|...........|...........|...........|...........|...........|...........|...........|...........|...........|...........|...........|...........|...........|...........|...........
|...........|...........|...........|...........|...........|...........|...........|...........|...........|...........|...........|...........|...........|...........|...........|...........|...........|...........|...........|^^^........|...........|...........|...........|...........|...........|...........|...........|...........
|...........|...........|...........|...........|...........|...........|...........|...........|...........|...........|...........|...........|...........|...........|C-527......|...........|...........|...........|...........|...........|...........|...........|...........|...........|...........|...........|...........|...........
|...........|...........|...........|...........|...........|...........|...........|...........|...........|...........|...........|...........|...........|...........|...........|...........|...........|...........|...........|...........|...........|...........|...........|...........|...........|...........|...........|...........
|...........|...........|...........|...........|...........|...........|...........|...........|...........|...........|...........|...........|...........|...........|...........|...........|...........|...........|...........|...........|...........|...........|...........|...........|...........|...........|...........|...........
|...........|...........|...........|...........|...........|...........|...........|...........|...........|...........|G-404......|C-503......|G-525......|...........|C-528......|...........|...........|A-511......|E-711......|C-510......|...........|...........|...........|...........|...........|...........|...........|...........
|...........|...........|...........|...........|...........|...........|...........|...........|...........|...........|...........|...........|...........|...........|...........|...........|...........|...........|...........|...........|...........|...........|...........|...........|...........|...........|...........|...........
|...........|...........|...........|...........|...........|...........|...........|...........|...........|...........|...........|...........|...........|...........|...........|...........|...........|...........|...........|...........|...........|...........|...........|...........|...........|...........|...........|...........
|...........|...........|...........|...........|...........|...........|...........|...........|...........|...........|...........|...........|...........|...........|...........|...........|...........|^^^........|...........|...........|...........|...........|...........|...........|...........|...........|...........|...........
|...........|...........|...........|...........|...........|...........|...........|...........|...........|...........|...........|...........|...........|...........|...........|...........|...........|...........|^^^........|^^^........|...........|...........|...........|...........|...........|...........|...........|...........
|...........|...........|...........|...........|...........|...........|...........|...........|...........|...........|C-403......|...........|...........|...........|...........|F-518......|...........|...........|...........|...........|...........|...........|...........|...........|...........|...........|...........|...........
|...........|...........|...........|...........|...........|...........|...........|...........|...........|...........|...........|...........|...........|...........|...........|...........|...........|...........|...........|...........|...........|...........|...........|...........|...........|...........|...........|...........
|...........|...........|...........|...........|...........|...........|...........|...........|...........|...........|...........|...........|...........|...........|...........|...........|...........|...........|...........|...........|...........|...........|...........|...........|...........|...........|...........|...........
|...........|A-302......|...........|...........|...........|...........|...........|...........|...........|...........|...........|C-403......|...........|...........|C-527......|...........|...........|B-511......|A-611......|...........|...........|...........|...........|...........|...........|...........|...........|...........
|...........|...........|...........|...........|...........|...........|...........|...........|...........|...........|...........|...........|...........|...........|...........|...........|...........|...........|...........|...........|...........|...........|...........|...........|...........|...........|...........|...........
|...........|...........|...........|...........|...........|...........|...........|...........|...........|...........|...........|...........|...........|...........|...........|...........|...........|...........|...........|...........|...........|...........|...........|...........|...........|...........|...........|...........
|...........|...........|...........|...........|...........|...........|...........|...........|...........|...........|...........|...........|...........|...........|...........|...........|...........|...........|...........|...........|...........|...........|...........|...........|...........|...........|...........|...........
|...........|...........|...........|...........|...........|...........|...........|...........|...........|...........|...........|...........|...........|...........|...........|...........|...........|...........|...........|...........|...........|...........|...........|...........|...........|...........|...........|...........
|...........|...........|...........|...........|...........|...........|...........|...........|...........|...........|...........|...........|...........|...........|C-527......|...........|...........|...........|........F10|...........|...........|...........|...........|...........|...........|...........|...........|...........
|...........|...........|...........|...........|...........|...........|...........|...........|...........|...........|...........|...........|...........|...........|...........|...........|...........|...........|...........|...........|...........|...........|...........|...........|...........|...........|...........|...........
|...........|...........|...........|...........|...........|...........|...........|...........|...........|...........|...........|...........|...........|...........|...........|...........|...........|...........|...........|...........|...........|...........|...........|...........|...........|...........|...........|...........
|...........|...........|A-506......|E-506......|G-406......|C-406......|B-306......|...........|...........|...........|C-503......|G-404......|C-526......|...........|C-528......|C-519......|...........|...........|D-711......|B-410......|...........|...........|...........|...........|...........|...........|...........|...........
|...........|...........|...........|...........|...........|...........|...........|...........|...........|...........|...........|...........|...........|...........|...........|...........|...........|...........|...........|...........|...........|...........|...........|...........|...........|...........|...........|...........
|...........|...........|...........|...........|...........|...........|...........|...........|...........|...........|...........|...........|...........|...........|...........|...........|...........|...........|...........|...........|...........|...........|...........|...........|...........|...........|...........|...........
|...........|...........|...........|...........|...........|...........|...........|...........|...........|...........|...........|...........|...........|...........|...........|...........|...........|...........|...........|...........|...........|...........|...........|...........|...........|...........|...........|...........
|...........|...........|...........|...........|...........|...........|...........|...........|...........|...........|...........|...........|...........|...........|...........|...........|...........|...........|...........|...........|...........|...........|...........|...........|...........|...........|...........|...........
|...........|...........|...........|...........|...........|...........|...........|...........|...........|...........|...........|C-403......|...........|...........|...........|...........|...........|...........|B-611......|...........|...........|...........|...........|...........|...........|...........|...........|...........
|...........|...........|...........|...........|...........|...........|...........|...........|...........|...........|...........|...........|...........|...........|...........|...........|...........|...........|...........|...........|...........|...........|...........|...........|...........|...........|...........|...........
|...........|...........|...........|...........|...........|...........|...........|...........|...........|...........|...........|...........|...........|...........|...........|...........|...........|...........|...........|...........|...........|...........|...........|...........|...........|...........|...........|...........
|...........|E-402......|...........|...........|...........|...........|...........|...........|...........|...........|C-403......|...........|...........|...........|C-527......|F-518......|...........|C-611......|...........|C-510......|...........|...........|...........|...........|...........|...........|...........|...........
|...........|...........|...........|...........|...........|...........|...........|...........|...........|...........|...........|...........|...........|...........|...........|...........|...........|...........|...........|...........|...........|...........|...........|...........|...........|...........|...........|...........
|...........|...........|...........|...........|...........|...........|...........|...........|...........|...........|...........|...........|...........|...........|...........|...........|...........|...........|...........|...........|...........|...........|...........|...........|...........|...........|...........|...........
|...........|...........|...........|...........|...........|...........|...........|...........|...........|...........|...........|...........|...........|...........|...........|...........|...........|...........|...........|...........|...........|...........|...........|...........|...........|...........|...........|...........
|...........|...........|...........|...........|...........|...........|...........|...........|...........|...........|...........|...........|...........|...........|...........|...........|...........|...........|...........|^^^........|...........|...........|...........|...........|...........|...........|...........|...........
|...........|...........|G-506......|C-506......|F-406......|C#406......|G-306......|...........|...........|...........|...........|...........|...........|...........|C-527......|...........|...........|...........|...........|...........|...........|...........|...........|...........|...........|...........|...........|...........
|...........|...........|...........|...........|...........|...........|...........|...........|...........|...........|...........|...........|...........|...........|...........|...........|...........|...........|...........|...........|...........|...........|...........|...........|...........|...........|...........|...........
|...........|...........|...........|...........|...........|...........|...........|...........|...........|...........|...........|...........|...........|...........|...........|...........|...........|...........|...........|...........|...........|...........|...........|...........|...........|...........|...........|...........
|...........|...........|...........|...........|...........|...........|...........|...........|...........|...........|G-404......|C-503......|G-525......|...........|C-528......|C-519......|...........|...........|C-711......|A-510......|...........|...........|...........|...........|...........|...........|...........|...........
|...........|...........|...........|...........|...........|...........|...........|...........|...........|...........|...........|...........|...........|...........|...........|...........|...........|...........|...........|...........|...........|...........|...........|...........|...........|...........|...........|...........
|...........|...........|...........|...........|...........|...........|...........|...........|...........|...........|...........|...........|...........|...........|...........|...........|...........|...........|...........|........E10|...........|...........|...........|...........|...........|...........|...........|...........
|...........|...........|...........|...........|...........|...........|...........|...........|...........|...........|...........|...........|...........|...........|...........|...........|...........|...........|...........|...........|...........|...........|...........|...........|...........|...........|...........|...........
|...........|...........|...........|...........|...........|...........|...........|...........|...........|...........|...........|...........|...........|...........|...........|...........|...........|...........|^^^........|...........|...........|...........|...........|...........|...........|...........|...........|...........
|...........|...........|...........|...........|...........|...........|...........|...........|...........|...........|C-403......|...........|...........|...........|...........|...........|...........|D-611......|...........|...........|...........|...........|...........|...........|...........|...........|...........|...........
|...........|...........|...........|...........|...........|...........|...........|...........|...........|...........|...........|...........|...........|...........|...........|...........|...........|...........|...........|...........|...........|...........|...........|...........|...........|...........|...........|...........
|...........|...........|...........|...........|...........|...........|...........|...........|...........|...........|...........|...........|...........|...........|...........|...........|...........|...........|...........|...........|...........|...........|...........|...........|...........|...........|...........|...........
Rows: 64
|...........|D-402......|A-406......|F-506......|E-406......|C-406......|A-306......|...........|...........|...........|...........|C-403......|...........|...........|C-527......|C-519......|...........|...........|...........|...........|...........|...........|...........|...........|...........|...........|...........|...........
|...........|...........|...........|...........|...........|...........|...........|...........|...........|...........|...........|...........|...........|...........|...........|...........|...........|...........|...........|...........|...........|...........|...........|...........|...........|...........|...........|...........
|...........|...........|...........|...........|...........|...........|...........|...........|...........|...........|...........|...........|...........|...........|...........|...........|...........|...........|...........|...........|...........|...........|...........|...........|...........|...........|...........|...........
|...........|...........|...........|...........|...........|...........|...........|...........|...........|...........|...........|...........|...........|...........|...........|...........|...........|...........|...........|...........|...........|...........|...........|...........|...........|...........|...........|...........
|...........|...........|...........|...........|...........|...........|...........|...........|...........|...........|...........|...........|...........|...........|...........|...........|...........|...........|...........|...........|...........|...........|...........|...........|...........|...........|...........|...........
|...........|...........|...........|...........|...........|...........|...........|...........|...........|...........|...........|...........|...........|...........|C-527......|...........|...........|...........|G-611......|...........|...........|...........|...........|...........|...........|...........|...........|...........
|...........|...........|...........|...........|...........|...........|...........|...........|...........|...........|...........|...........|...........|...........|...........|...........|...........|...........|...........|...........|...........|...........|...........|...........|...........|...........|...........|...........
|...........|...........|...........|...........|...........|...........|...........|...........|...........|...........|...........|...........|...........|...........|...........|...........|...........|...........|...........|...........|...........|...........|...........|...........|...........|...........|...........|...........
|...........|...........|...........|...........|...........|...........|...........|...........|...........|...........|C-503......|G-404......|C-526......|...........|C-528......|...........|...........|...........|........F10|F-510......|...........|...........|...........|...........|...........|...........|...........|...........
|...........|...........|...........|...........|...........|...........|...........|...........|...........|...........|...........|...........|...........|...........|...........|...........|...........|...........|...........|...........|...........|...........|...........|...........|...........|...........|...........|...........
|...........|...........|...........|...........|...........|...........|...........|...........|...........|...........|...........|...........|...........|...........|...........|...........|...........|...........|...........|...........|...........|...........|...........|...........|...........|...........|...........|...........
|...........|...........|...........|...........|...........|...........|...........|...........|...........|...........|...........|...........|...........|...........|...........|...........|...........|...........|...........|^^^........|...........|...........|...........|...........|...........|...........|...........|...........
|...........|...........|...........|...........|...........|...........|...........|...........|...........|...........|...........|...........|...........|...........|...........|...........|...........|...........|...........|...........|...........|...........|...........|...........|...........|...........|...........|...........
|...........|...........|...........|...........|...........|...........|...........|...........|...........|...........|...........|C-403......|...........|...........|...........|...........|...........|...........|C-711......|...........|...........|...........|...........|...........|...........|...........|...........|...........
|...........|...........|...........|...........|...........|...........|...........|...........|...........|...........|...........|...........|...........|...........|...........|...........|...........|...........|...........|...........|...........|...........|...........|...........|...........|...........|...........|...........
|...........|...........|...........|...........|...........|...........|...........|...........|...........|...........|...........|...........|...........|...........|...........|...........|...........|...........|...........|...........|...........|...........|...........|...........|...........|...........|...........|...........
|...........|F-302......|...........|...........|...........|...........|...........|...........|...........|...........|C-403......|...........|...........|...........|C-527......|F-518......|...........|...........|...........|E-510......|...........|...........|...........|...........|...........|...........|...........|...........
|...........|...........|...........|...........|...........|...........|...........|...........|...........|...........|...........|...........|...........|...........|...........|...........|...........|...........|...........|...........|...........|...........|...........|...........|...........|...........|...........|...........
|...........|...........|...........|...........|...........|...........|...........|...........|...........|...........|...........|...........|...........|...........|...........|...........|...........|...........|...........|...........|...........|...........|...........|...........|...........|...........|...........|...........
|...........|...........|...........|...........|...........|...........|...........|...........|...........|...........|...........|...........|...........|...........|...........|...........|...........|...........|...........|...........|...........|...........|...........|...........|...........|...........|...........|...........
|...........|...........|...........|...........|...........|...........|...........|...........|...........|...........|...........|...........|...........|...........|...........|...........|...........|...........|...........|...........|...........|...........|...........|...........|...........|...........|...........|...........
|...........|...........|...........|...........|...........|...........|...........|...........|...........|...........|...........|...........|...........|...........|C-527......|...........|...........|...........|...........|........E10|...........|...........|...........|...........|...........|...........|...........|...........
|...........|...........|...........|...........|...........|...........|...........|...........|...........|...........|...........|...........|...........|...........|...........|...........|...........|...........|...........|...........|...........|...........|...........|...........|...........|...........|...........|...........
|...........|...........|...........|...........|...........|...........|...........|...........|...........|...........|...........|...........|...........|...........|...........|...........|...........|...........|...........|...........|...........|...........|...........|...........|...........|...........|...........|...........
|...........|...........|...........|...........|...........|...........|...........|...........|...........|...........|G-404......|C-503......|G-525......|...........|C-528......|...........|...........|...........|A-611......|...........|...........|...........|...........|...........|...........|...........|...........|...........
|...........|...........|...........|...........|...........|...........|...........|...........|...........|...........|...........|...........|...........|...........|...........|...........|...........|...........|...........|^^^........|...........|...........|...........|...........|...........|...........|...........|...........
|...........|...........|...........|...........|...........|...........|...........|...........|...........|...........|...........|...........|...........|...........|...........|...........|...........|...........|...........|...........|...........|...........|...........|...........|...........|...........|...........|...........
|...........|...........|...........|...........|...........|...........|...........|...........|...........|...........|...........|...........|...........|...........|...........|...........|...........|...........|^^^........|...........|...........|...........|...........|...........|...........|...........|...........|...........
|...........|...........|...........|...........|...........|...........|...........|...........|...........|...........|...........|...........|...........|...........|...........|...........|...........|...........|...........|...........|...........|...........|...........|...........|...........|...........|...........|...........
|...........|...........|...........|...........|...........|...........|...........|...........|...........|...........|C-403......|...........|...........|...........|...........|F-518......|...........|...........|...........|A-510......|...........|...........|...........|...........|...........|...........|...........|...........
|...........|...........|...........|...........|...........|...........|...........|...........|...........|...........|...........|...........|...........|...........|...........|...........|...........|...........|...........|...........|...........|...........|...........|...........|...........|...........|...........|...........
|...........|...........|...........|...........|...........|...........|...........|...........|...........|...........|...........|...........|...........|...........|...........|...........|...........|...........|...........|...........|...........|...........|...........|...........|...........|...........|...........|...........
|...........|E-302......|...........|...........|...........|...........|...........|...........|...........|...........|...........|C-403......|...........|...........|C-527......|...........|...........|...........|D-611......|........E08|...........|...........|...........|...........|...........|...........|...........|...........
|...........|...........|...........|...........|...........|...........|...........|...........|...........|...........|...........|...........|...........|...........|...........|...........|...........|...........|...........|...........|...........|...........|...........|...........|...........|...........|...........|...........
|...........|...........|...........|...........|...........|...........|...........|...........|...........|...........|...........|...........|...........|...........|...........|...........|...........|...........|...........|...........|...........|...........|...........|...........|...........|...........|...........|...........
|...........|...........|...........|...........|...........|...........|...........|...........|...........|...........|...........|...........|...........|...........|...........|...........|...........|...........|...........|...........|...........|...........|...........|...........|...........|...........|...........|...........
|...........|...........|...........|...........|...........|...........|...........|...........|...........|...........|...........|...........|...........|...........|...........|...........|...........|...........|...........|...........|...........|...........|...........|...........|...........|...........|...........|...........
|...........|...........|...........|...........|...........|...........|...........|...........|...........|...........|...........|...........|...........|...........|C-527......|...........|...........|...........|........F10|...........|...........|...........|...........|...........|...........|...........|...........|...........
|...........|...........|...........|...........|...........|...........|...........|...........|...........|...........|...........|...........|...........|...........|...........|...........|...........|...........|...........|...........|...........|...........|...........|...........|...........|...........|...........|...........
|...........|...........|...........|...........|...........|...........|...........|...........|...........|...........|...........|...........|...........|...........|...........|...........|...........|...........|...........|...........|...........|...........|...........|...........|...........|...........|...........|...........
|...........|...........|E-506......|C-506......|G-406......|D-406......|G#306......|...........|...........|...........|C-503......|G-404......|C-526......|...........|C-528......|C-519......|...........|...........|G-611......|E-510......|...........|...........|...........|...........|...........|...........|...........|...........
|...........|...........|...........|...........|...........|...........|...........|...........|...........|...........|...........|...........|...........|...........|...........|...........|...........|...........|...........|...........|...........|...........|...........|...........|...........|...........|...........|...........
|...........|...........|...........|...........|...........|...........|...........|...........|...........|...........|...........|...........|...........|...........|...........|...........|...........|...........|...........|...........|...........|...........|...........|...........|...........|...........|...........|...........
|...........|...........|...........|...........|...........|...........|...........|...........|...........|...........|...........|...........|...........|...........|...........|...........|...........|...........|...........|^^^........|...........|...........|...........|...........|...........|...........|...........|...........
|...........|...........|...........|...........|...........|...........|...........|...........|...........|...........|...........|...........|...........|...........|...........|...........|...........|...........|...........|...........|...........|...........|...........|...........|...........|...........|...........|...........
|...........|...........|...........|...........|...........|...........|...........|...........|...........|...........|...........|C-403......|...........|...........|...........|...........|...........|...........|E-611......|...........|...........|...........|...........|...........|...........|...........|...........|...........
|...........|...........|...........|...........|...........|...........|...........|...........|...........|...........|...........|...........|...........|...........|...........|...........|...........|...........|...........|...........|...........|...........|...........|...........|...........|...........|...........|...........
|...........|...........|...........|...........|...........|...........|...........|...........|...........|...........|...........|...........|...........|...........|...........|...........|...........|...........|...........|...........|...........|...........|...........|...........|...........|...........|...........|...........
|...........|G#302......|...........|...........|...........|...........|...........|...........|...........|...........|C-403......|...........|...........|...........|C-527......|F-518......|...........|...........|...........|D-510......|...........|...........|...........|...........|...........|...........|...........|...........
|...........|...........|...........|...........|...........|...........|...........|...........|...........|...........|...........|...........|...........|...........|...........|...........|...........|...........|...........|...........|...........|...........|...........|...........|...........|...........|...........|...........
|...........|...........|...........|...........|...........|...........|...........|...........|...........|...........|...........|...........|...........|...........|...........|...........|...........|...........|...........|...........|...........|...........|...........|...........|...........|...........|...........|...........
|...........|...........|...........|...........|...........|...........|...........|...........|...........|...........|...........|...........|...........|...........|...........|...........|...........|...........|...........|...........|...........|...........|...........|...........|...........|...........|...........|...........
|...........|...........|...........|...........|...........|...........|...........|...........|...........|...........|...........|...........|...........|...........|...........|...........|...........|...........|...........|...........|...........|...........|...........|...........|...........|...........|...........|...........
|...........|...........|D-506......|A#406......|F-406......|G#306......|C-406......|...........|...........|...........|...........|...........|...........|...........|C-527......|...........|...........|...........|...........|........E10|...........|...........|...........|...........|...........|...........|...........|...........
|...........|...........|...........|...........|...........|...........|...........|...........|...........|...........|...........|...........|...........|...........|...........|...........|...........|...........|...........|...........|...........|...........|...........|...........|...........|...........|...........|...........
|...........|...........|...........|...........|...........|...........|...........|...........|...........|...........|...........|...........|...........|...........|...........|...........|...........|...........|...........|...........|...........|...........|...........|...........|...........|...........|...........|...........
|...........|...........|...........|...........|...........|...........|...........|...........|...........|...........|G-404......|C-503......|G-525......|...........|C-528......|C-519......|...........|...........|D-611......|^^^........|...........|...........|...........|...........|...........|...........|...........|...........
|...........|...........|...........|...........|...........|...........|...........|...........|...........|...........|...........|...........|...........|...........|...........|...........|...........|...........|...........|...........|...........|...........|...........|...........|...........|...........|...........|...........
|...........|...........|...........|...........|...........|...........|...........|...........|...........|...........|...........|...........|...........|...........|...........|...........|...........|...........|...........|...........|...........|...........|...........|...........|...........|...........|...........|...........
|...........|...........|...........|...........|...........|...........|...........|...........|...........|...........|...........|...........|...........|...........|...........|...........|...........|...........|^^^........|...........|...........|...........|...........|...........|...........|...........|...........|...........
|...........|...........|...........|...........|...........|...........|...........|...........|...........|...........|...........|...........|...........|...........|...........|...........|...........|...........|...........|...........|...........|...........|...........|...........|...........|...........|...........|...........
|...........|...........|...........|...........|...........|...........|...........|...........|...........|...........|C-403......|...........|...........|...........|...........|...........|...........|...........|...........|E-510......|...........|...........|...........|...........|...........|...........|...........|...........
|...........|...........|...........|...........|...........|...........|...........|...........|...........|...........|...........|...........|...........|...........|...........|...........|...........|...........|...........|...........|...........|...........|...........|...........|...........|...........|...........|...........
|...........|...........|...........|...........|...........|...........|...........|...........|...........|...........|...........|...........|...........|...........|...........|...........|...........|...........|...........|...........|...........|...........|...........|...........|...........|...........|...........|...........
Rows: 64
|...........|A-302......|...........|C-506......|G-406......|E-406......|B-306......|...........|G-529......|D-529......|...........|C-403......|...........|...........|C-527......|C-519......|........M3A|...........|C-611......|...........|...........|...........|...........|...........|...........|...........|...........|...........
|...........|...........|...........|...........|...........|...........|...........|...........|...........|...........|...........|...........|...........|...........|...........|...........|...........|...........|...........|...........|...........|...........|...........|...........|...........|...........|...........|...........
|...........|...........|...........|...........|...........|...........|...........|...........|...........|...........|...........|...........|...........|...........|...........|...........|...........|...........|...........|...........|...........|...........|...........|...........|...........|...........|...........|...........
|...........|...........|...........|...........|...........|...........|...........|...........|...........|...........|...........|...........|...........|...........|...........|...........|...........|...........|...........|...........|...........|...........|...........|...........|...........|...........|...........|...........
|...........|...........|...........|...........|...........|...........|...........|...........|...........|...........|...........|...........|...........|...........|...........|...........|...........|...........|...........|...........|...........|...........|...........|...........|...........|...........|...........|...........
|...........|...........|...........|...........|...........|...........|...........|...........|........F10|........F10|...........|...........|...........|...........|C-527......|...........|...........|...........|...........|...........|...........|...........|...........|...........|...........|...........|...........|...........
|...........|...........|...........|...........|...........|...........|...........|...........|...........|...........|...........|...........|...........|...........|...........|...........|...........|...........|...........|...........|...........|...........|...........|...........|...........|...........|...........|...........
|...........|...........|...........|...........|...........|...........|...........|...........|...........|...........|...........|...........|...........|...........|...........|...........|...........|...........|...........|...........|...........|...........|...........|...........|...........|...........|...........|...........
|...........|...........|...........|...........|...........|...........|...........|...........|...........|...........|C-503......|G-404......|C-526......|...........|C-528......|...........|B-510......|D-611......|...........|...........|...........|...........|...........|...........|...........|...........|...........|...........
|...........|...........|...........|...........|...........|...........|...........|...........|...........|...........|...........|...........|...........|...........|...........|...........|...........|...........|...........|...........|...........|...........|...........|...........|...........|...........|...........|...........
|...........|...........|...........|...........|...........|...........|...........|...........|...........|...........|...........|...........|...........|...........|...........|...........|...........|...........|...........|...........|...........|...........|...........|...........|...........|...........|...........|...........
|...........|...........|...........|...........|...........|...........|...........|...........|...........|...........|...........|...........|...........|...........|...........|...........|...........|...........|...........|...........|...........|...........|...........|...........|...........|...........|...........|...........
|...........|...........|...........|...........|...........|...........|...........|...........|...........|...........|...........|...........|...........|...........|...........|...........|^^^........|...........|...........|...........|...........|...........|...........|...........|...........|...........|...........|...........
|...........|...........|...........|...........|...........|...........|...........|...........|A-529......|E-529......|...........|C-403......|...........|...........|...........|...........|...........|...........|...........|...........|...........|...........|...........|...........|...........|...........|...........|...........
|...........|...........|...........|...........|...........|...........|...........|...........|...........|...........|...........|...........|...........|...........|...........|...........|...........|...........|...........|...........|...........|...........|...........|...........|...........|...........|...........|...........
|...........|...........|...........|...........|...........|...........|...........|...........|...........|...........|...........|...........|...........|...........|...........|...........|...........|...........|...........|...........|...........|...........|...........|...........|...........|...........|...........|...........
|...........|E-302......|...........|...........|...........|...........|...........|...........|^^^........|^^^........|C-403......|...........|...........|...........|C-527......|F-518......|A-510......|...........|...........|...........|...........|...........|...........|...........|...........|...........|...........|...........
|...........|...........|...........|...........|...........|...........|...........|...........|...........|...........|...........|...........|...........|...........|...........|...........|...........|...........|...........|...........|...........|...........|...........|...........|...........|...........|...........|...........
|...........|...........|...........|...........|...........|...........|...........|...........|...........|...........|...........|...........|...........|...........|...........|...........|...........|...........|...........|...........|...........|...........|...........|...........|...........|...........|...........|...........
|...........|...........|...........|...........|...........|...........|...........|...........|...........|...........|...........|...........|...........|...........|...........|...........|...........|...........|...........|...........|...........|...........|...........|...........|...........|...........|...........|...........
|...........|...........|...........|...........|...........|...........|...........|...........|...........|...........|...........|...........|...........|...........|...........|...........|^^^........|...........|...........|...........|...........|...........|...........|...........|...........|...........|...........|...........
|...........|...........|...........|...........|...........|...........|...........|...........|...........|...........|...........|...........|...........|...........|C-527......|...........|...........|...........|...........|D-510......|...........|...........|...........|...........|...........|...........|...........|...........
|...........|...........|...........|...........|...........|...........|...........|...........|...........|...........|...........|...........|...........|...........|...........|...........|...........|...........|...........|...........|...........|...........|...........|...........|...........|...........|...........|...........
|...........|...........|...........|...........|...........|...........|...........|...........|...........|...........|...........|...........|...........|...........|...........|...........|...........|...........|...........|...........|...........|...........|...........|...........|...........|...........|...........|...........
|...........|...........|...........|...........|...........|...........|...........|...........|...........|...........|G-404......|C-503......|G-525......|...........|C-528......|...........|G-510......|E-611......|...........|........E10|...........|...........|...........|...........|...........|...........|...........|...........
|...........|...........|...........|...........|...........|...........|...........|...........|...........|...........|...........|...........|...........|...........|...........|...........|...........|...........|...........|...........|...........|...........|...........|...........|...........|...........|...........|...........
|...........|...........|...........|...........|...........|...........|...........|...........|...........|...........|...........|...........|...........|...........|...........|...........|...........|...........|...........|...........|...........|...........|...........|...........|...........|...........|...........|...........
|...........|...........|...........|...........|...........|...........|...........|...........|...........|...........|...........|...........|...........|...........|...........|...........|...........|...........|...........|...........|...........|...........|...........|...........|...........|...........|...........|...........
|...........|...........|...........|...........|...........|...........|...........|...........|...........|...........|...........|...........|...........|...........|...........|...........|^^^........|^^^........|...........|...........|...........|...........|...........|...........|...........|...........|...........|...........
|...........|...........|...........|...........|...........|...........|...........|...........|...........|...........|C-403......|...........|...........|...........|...........|F-518......|...........|...........|...........|D-510......|...........|...........|...........|...........|...........|...........|...........|...........
|...........|...........|...........|...........|...........|...........|...........|...........|...........|...........|...........|...........|...........|...........|...........|...........|...........|...........|...........|...........|...........|...........|...........|...........|...........|...........|...........|...........
|...........|...........|...........|...........|...........|...........|...........|...........|...........|...........|...........|...........|...........|...........|...........|...........|...........|...........|...........|...........|...........|...........|...........|...........|...........|...........|...........|...........
|...........|D-302......|...........|...........|...........|...........|...........|...........|...........|...........|...........|C-403......|...........|...........|C-527......|...........|...........|F-611......|...........|...........|...........|...........|...........|...........|...........|...........|...........|...........
|...........|...........|...........|...........|...........|...........|...........|...........|...........|...........|...........|...........|...........|...........|...........|...........|...........|...........|...........|...........|...........|...........|...........|...........|...........|...........|...........|...........
|...........|...........|...........|...........|...........|...........|...........|...........|...........|...........|...........|...........|...........|...........|...........|...........|...........|...........|...........|...........|...........|...........|...........|...........|...........|...........|...........|...........
|...........|...........|...........|...........|...........|...........|...........|...........|...........|...........|...........|...........|...........|...........|...........|...........|...........|...........|...........|...........|...........|...........|...........|...........|...........|...........|...........|...........
|...........|...........|...........|...........|...........|...........|...........|...........|...........|...........|...........|...........|...........|...........|...........|...........|...........|...........|...........|...........|...........|...........|...........|...........|...........|...........|...........|...........
|...........|...........|...........|...........|...........|...........|...........|...........|...........|...........|...........|...........|...........|...........|C-527......|...........|...........|...........|...........|...........|...........|...........|...........|...........|...........|...........|...........|...........
|...........|...........|...........|...........|...........|...........|...........|...........|...........|...........|...........|...........|...........|...........|...........|...........|...........|...........|...........|...........|...........|...........|...........|...........|...........|...........|...........|...........
|...........|...........|...........|...........|...........|...........|...........|...........|...........|...........|...........|...........|...........|...........|...........|...........|...........|...........|...........|...........|...........|...........|...........|...........|...........|...........|...........|...........
|...........|...........|E-406......|A-406......|C-406......|F-306......|...........|...........|G-529......|D-529......|C-503......|G-404......|C-526......|...........|C-528......|C-519......|F-510......|...........|...........|E-510......|...........|...........|...........|...........|...........|...........|...........|...........
|...........|...........|...........|...........|...........|...........|...........|...........|...........|...........|...........|...........|...........|...........|...........|...........|...........|...........|...........|...........|...........|...........|...........|...........|...........|...........|...........|...........
|...........|...........|...........|...........|...........|...........|...........|...........|...........|...........|...........|...........|...........|...........|...........|...........|...........|...........|...........|...........|...........|...........|...........|...........|...........|...........|...........|...........
|...........|...........|...........|...........|...........|...........|...........|...........|...........|...........|...........|...........|...........|...........|...........|...........|...........|...........|...........|^^^........|...........|...........|...........|...........|...........|...........|...........|...........
|...........|...........|...........|...........|...........|...........|...........|...........|...........|...........|...........|...........|...........|...........|...........|...........|...........|...........|...........|...........|...........|...........|...........|...........|...........|...........|...........|...........
|...........|...........|...........|...........|...........|...........|...........|...........|........F10|........F10|...........|C-403......|...........|...........|...........|...........|...........|...........|...........|...........|...........|...........|...........|...........|...........|...........|...........|...........
|...........|...........|...........|...........|...........|...........|...........|...........|...........|...........|...........|...........|...........|...........|...........|...........|...........|...........|...........|...........|...........|...........|...........|...........|...........|...........|...........|...........
|...........|...........|...........|...........|...........|...........|...........|...........|...........|...........|...........|...........|...........|...........|...........|...........|...........|...........|...........|...........|...........|...........|...........|...........|...........|...........|...........|...........
|...........|G-302......|...........|...........|...........|...........|...........|...........|...........|...........|C-403......|...........|...........|...........|C-527......|F-518......|G-510......|G-611......|...........|F-510......|...........|...........|...........|...........|...........|...........|...........|...........
|...........|...........|...........|...........|...........|...........|...........|...........|...........|...........|...........|...........|...........|...........|...........|...........|...........|...........|...........|...........|...........|...........|...........|...........|...........|...........|...........|...........
|...........|...........|...........|...........|...........|...........|...........|...........|...........|...........|...........|...........|...........|...........|...........|...........|...........|...........|...........|...........|...........|...........|...........|...........|...........|...........|...........|...........
|...........|...........|...........|...........|...........|...........|...........|...........|...........|...........|...........|...........|...........|...........|...........|...........|...........|...........|...........|...........|...........|...........|...........|...........|...........|...........|...........|...........
|...........|...........|...........|...........|...........|...........|...........|...........|...........|...........|...........|...........|...........|...........|...........|...........|^^^........|...........|...........|...........|...........|...........|...........|...........|...........|...........|...........|...........
|...........|...........|E-506......|A-406......|F-406......|B-306......|A-306......|...........|A-529......|E-529......|...........|...........|...........|...........|C-527......|...........|...........|...........|...........|...........|...........|...........|...........|...........|...........|...........|...........|...........
|...........|...........|...........|...........|...........|...........|...........|...........|...........|...........|...........|...........|...........|...........|...........|...........|...........|...........|...........|...........|...........|...........|...........|...........|...........|...........|...........|...........
|...........|...........|...........|...........|...........|...........|...........|...........|...........|...........|...........|...........|...........|...........|...........|...........|...........|...........|...........|...........|...........|...........|...........|...........|...........|...........|...........|...........
|...........|...........|...........|...........|...........|...........|...........|...........|^^^........|^^^........|G-404......|C-503......|G-525......|...........|C-528......|C-519......|E-610......|...........|...........|G-510......|...........|...........|...........|...........|...........|...........|...........|...........
|...........|...........|...........|...........|...........|...........|...........|...........|...........|...........|...........|...........|...........|...........|...........|...........|...........|...........|...........|...........|...........|...........|...........|...........|...........|...........|...........|...........
|...........|...........|...........|...........|...........|...........|...........|...........|...........|...........|...........|...........|...........|...........|...........|...........|........E10|...........|...........|...........|...........|...........|...........|...........|...........|...........|...........|...........
|...........|...........|...........|...........|...........|...........|...........|...........|...........|...........|...........|...........|...........|...........|...........|...........|...........|...........|...........|...........|...........|...........|...........|...........|...........|...........|...........|...........
|...........|...........|...........|...........|...........|...........|...........|...........|...........|...........|...........|...........|...........|...........|...........|...........|...........|...........|...........|^^^........|...........|...........|...........|...........|...........|...........|...........|...........
|...........|...........|...........|...........|...........|...........|...........|...........|...........|...........|C-403......|...........|...........|...........|...........|...........|...........|A-611......|...........|...........|...........|...........|...........|...........|...........|...........|...........|...........
|...........|...........|...........|...........|...........|...........|...........|...........|...........|...........|...........|...........|...........|...........|...........|...........|...........|...........|...........|...........|...........|...........|...........|...........|...........|...........|...........|...........
|...........|...........|...........|...........|...........|...........|...........|...........|...........|...........|...........|...........|...........|...........|...........|...........|...........|...........|...........|...........|...........|...........|...........|...........|...........|...........|...........|...........
Rows: 64
|...........|C-302......|B-406......|G-406......|D-406......|A-306......|E-306......|...........|G-529......|D-529......|...........|C-403......|...........|C-520......|C-527......|C-519......|...........|...........|D-511......|G-410......|...........|...........|...........|...........|...........|...........|...........|...........
|...........|...........|...........|...........|...........|...........|...........|...........|...........|...........|...........|...........|...........|...........|...........|...........|...........|...........|...........|...........|...........|...........|...........|...........|...........|...........|...........|...........
|...........|...........|...........|...........|...........|...........|...........|...........|...........|...........|...........|...........|...........|...........|...........|...........|...........|...........|...........|...........|...........|...........|...........|...........|...........|...........|...........|...........
|...........|...........|...........|...........|...........|...........|...........|...........|...........|...........|...........|...........|...........|...........|...........|...........|...........|...........|...........|...........|...........|...........|...........|...........|...........|...........|...........|...........
|...........|...........|...........|...........|...........|...........|...........|...........|...........|...........|...........|...........|...........|...........|...........|...........|...........|...........|...........|...........|...........|...........|...........|...........|...........|...........|...........|...........
|...........|...........|...........|...........|...........|...........|...........|...........|........F10|........F10|...........|...........|...........|...........|C-527......|...........|...........|...........|........F10|...........|...........|...........|...........|...........|...........|...........|...........|...........
|...........|...........|...........|...........|...........|...........|...........|...........|...........|...........|...........|...........|...........|...........|...........|...........|...........|...........|...........|...........|...........|...........|...........|...........|...........|...........|...........|...........
|...........|...........|...........|...........|...........|...........|...........|...........|...........|...........|...........|...........|...........|...........|...........|...........|...........|...........|...........|...........|...........|...........|...........|...........|...........|...........|...........|...........
|...........|...........|...........|...........|...........|...........|...........|...........|...........|...........|C-503......|G-404......|C-526......|...........|C-528......|...........|C-610......|...........|G-511......|...........|...........|...........|...........|...........|...........|...........|...........|...........
|...........|...........|...........|...........|...........|...........|...........|...........|...........|...........|...........|...........|...........|...........|...........|...........|...........|...........|...........|...........|...........|...........|...........|...........|...........|...........|...........|...........
|...........|...........|...........|...........|...........|...........|...........|...........|...........|...........|...........|...........|...........|...........|...........|...........|...........|...........|...........|...........|...........|...........|...........|...........|...........|...........|...........|...........
|...........|...........|...........|...........|...........|...........|...........|...........|...........|...........|...........|...........|...........|...........|...........|...........|^^^........|...........|...........|...........|...........|...........|...........|...........|...........|...........|...........|...........
|...........|...........|...........|...........|...........|...........|...........|...........|...........|...........|...........|...........|...........|...........|...........|...........|...........|...........|...........|...........|...........|...........|...........|...........|...........|...........|...........|...........
|...........|...........|...........|...........|...........|...........|...........|...........|A-529......|E-529......|...........|C-403......|...........|...........|...........|...........|...........|...........|E-511......|...........|...........|...........|...........|...........|...........|...........|...........|...........
|...........|...........|...........|...........|...........|...........|...........|...........|...........|...........|...........|...........|...........|...........|...........|...........|...........|...........|...........|...........|...........|...........|...........|...........|...........|...........|...........|...........
|...........|...........|...........|...........|...........|...........|...........|...........|...........|...........|...........|...........|...........|...........|...........|...........|...........|...........|...........|...........|...........|...........|...........|...........|...........|...........|...........|...........
|...........|F#302......|C-506......|E-406......|C-406......|A-306......|E-306......|...........|^^^........|^^^........|C-403......|...........|...........|C-520......|C-527......|F-518......|B-510......|...........|...........|A-510......|...........|...........|...........|...........|...........|...........|...........|...........
|...........|...........|...........|...........|...........|...........|...........|...........|...........|...........|...........|...........|...........|...........|...........|...........|...........|...........|...........|...........|...........|...........|...........|...........|...........|...........|...........|...........
|...........|...........|...........|...........|...........|...........|...........|...........|...........|...........|...........|...........|...........|...........|...........|...........|...........|...........|...........|...........|...........|...........|...........|...........|...........|...........|...........|...........
|...........|...........|...........|...........|...........|...........|...........|...........|...........|...........|...........|...........|...........|...........|...........|...........|...........|...........|...........|...........|...........|...........|...........|...........|...........|...........|...........|...........
|...........|...........|...........|...........|...........|...........|...........|...........|...........|...........|...........|...........|...........|...........|...........|...........|...........|...........|...........|...........|...........|...........|...........|...........|...........|...........|...........|...........
|...........|...........|...........|...........|...........|...........|...........|...........|...........|...........|...........|...........|...........|...........|C-527......|...........|........E10|...........|...........|........F10|...........|...........|...........|...........|...........|...........|...........|...........
|...........|...........|...........|...........|...........|...........|...........|...........|...........|...........|...........|...........|...........|...........|...........|...........|...........|...........|...........|...........|...........|...........|...........|...........|...........|...........|...........|...........
|...........|...........|...........|...........|...........|...........|...........|...........|...........|...........|...........|...........|...........|...........|...........|...........|...........|...........|...........|...........|...........|...........|...........|...........|...........|...........|...........|...........
|...........|...........|...........|...........|...........|...........|...........|...........|...........|...........|G-404......|C-503......|G-525......|...........|C-528......|...........|^^^........|^^^........|...........|D-610......|B-611...M3F|...........|...........|...........|...........|...........|...........|...........
|...........|...........|...........|...........|...........|...........|...........|...........|...........|...........|...........|...........|...........|...........|...........|...........|...........|...........|...........|...........|...........|...........|...........|...........|...........|...........|...........|...........
|...........|...........|...........|...........|...........|...........|...........|...........|...........|...........|...........|...........|...........|...........|...........|...........|...........|...........|...........|...........|...........|...........|...........|...........|...........|...........|...........|...........
|...........|...........|...........|...........|...........|...........|...........|...........|...........|...........|...........|...........|...........|...........|...........|...........|...........|...........|...........|...........|...........|...........|...........|...........|...........|...........|...........|...........
|...........|...........|...........|...........|...........|...........|...........|...........|...........|...........|...........|...........|...........|...........|...........|...........|...........|...........|...........|...........|^^^........|...........|...........|...........|...........|...........|...........|...........
|...........|...........|...........|...........|...........|...........|...........|...........|...........|...........|C-403......|C-522......|...........|...........|...........|F-518......|...........|...........|...........|B-510......|...........|...........|...........|...........|...........|...........|...........|...........
|...........|...........|...........|...........|...........|...........|...........|...........|...........|...........|...........|...........|...........|...........|...........|...........|...........|...........|...........|...........|...........|...........|...........|...........|...........|...........|...........|...........
|...........|...........|...........|...........|...........|...........|...........|...........|...........|...........|...........|...........|...........|...........|...........|...........|...........|...........|...........|...........|...........|...........|...........|...........|...........|...........|...........|...........
|...........|B-302......|D-506......|A-406......|G-406......|D#406......|A-306......|...........|...........|...........|...........|C-403......|...........|C-520......|C-527......|C-519......|G-511......|D-611......|...........|...........|C-711......|...........|...........|...........|...........|...........|...........|...........
|...........|...........|...........|...........|...........|...........|...........|...........|...........|...........|...........|...........|...........|...........|...........|...........|...........|...........|...........|...........|...........|...........|...........|...........|...........|...........|...........|...........
|...........|...........|...........|...........|...........|...........|...........|...........|...........|...........|...........|...........|...........|...........|...........|...........|...........|...........|...........|...........|...........|...........|...........|...........|...........|...........|...........|...........
|...........|...........|...........|...........|...........|...........|...........|...........|...........|...........|...........|...........|...........|...........|...........|...........|...........|...........|...........|...........|...........|...........|...........|...........|...........|...........|...........|...........
|...........|...........|...........|...........|...........|...........|...........|...........|...........|...........|...........|...........|...........|...........|...........|...........|...........|...........|...........|...........|...........|...........|...........|...........|...........|...........|...........|...........
|...........|...........|...........|...........|...........|...........|...........|...........|...........|...........|C-522......|...........|...........|...........|C-527......|...........|........F10|...........|...........|...........|...........|...........|...........|...........|...........|...........|...........|...........
|...........|...........|...........|...........|...........|...........|...........|...........|...........|...........|...........|...........|...........|...........|...........|...........|...........|...........|...........|...........|...........|...........|...........|...........|...........|...........|...........|...........
|...........|...........|...........|...........|...........|...........|...........|...........|...........|...........|...........|...........|...........|...........|...........|...........|...........|...........|...........|...........|...........|...........|...........|...........|...........|...........|...........|...........
|...........|...........|...........|...........|...........|...........|...........|...........|A-529......|E-529......|C-503......|G-404......|C-526......|...........|C-528......|C-519......|C-611......|...........|...........|A-610......|...........|...........|...........|...........|...........|...........|...........|...........
|...........|...........|...........|...........|...........|...........|...........|...........|...........|...........|...........|...........|...........|...........|...........|...........|...........|...........|...........|...........|...........|...........|...........|...........|...........|...........|...........|...........
|...........|...........|...........|...........|...........|...........|...........|...........|...........|...........|...........|...........|...........|...........|...........|...........|...........|...........|...........|........F10|...........|...........|...........|...........|...........|...........|...........|...........
|...........|...........|...........|...........|...........|...........|...........|...........|...........|...........|...........|...........|...........|...........|...........|...........|...........|...........|...........|...........|...........|...........|...........|...........|...........|...........|...........|...........
|...........|...........|...........|...........|...........|...........|...........|...........|...........|...........|...........|...........|...........|...........|...........|...........|...........|...........|...........|...........|...........|...........|...........|...........|...........|...........|...........|...........
|...........|...........|...........|...........|...........|...........|...........|...........|........F10|........F10|...........|C-403......|...........|...........|...........|...........|A-511......|...........|...........|^^^........|...........|...........|...........|...........|...........|...........|...........|...........
|...........|...........|...........|...........|...........|...........|...........|...........|...........|...........|...........|...........|...........|...........|...........|...........|...........|...........|...........|...........|...........|...........|...........|...........|...........|...........|...........|...........
|...........|...........|...........|...........|...........|...........|...........|...........|...........|...........|...........|...........|...........|...........|...........|...........|...........|...........|...........|...........|...........|...........|...........|...........|...........|...........|...........|...........
|...........|E-302......|E-506......|C-506......|G-406......|D-406......|G#306......|...........|...........|...........|C-403......|...........|...........|C-520......|C-527......|F-518......|A-511...F08|G-611......|A-611......|...........|D-711......|...........|...........|...........|...........|...........|...........|...........
|...........|...........|...........|...........|...........|...........|...........|...........|...........|...........|...........|...........|...........|...........|...........|...........|...........|...........|...........|...........|...........|...........|...........|...........|...........|...........|...........|...........
|...........|...........|...........|...........|...........|...........|...........|...........|...........|...........|...........|...........|...........|...........|...........|...........|...........|...........|...........|...........|...........|...........|...........|...........|...........|...........|...........|...........
|...........|...........|...........|...........|...........|...........|...........|...........|...........|...........|...........|...........|...........|...........|...........|...........|...........|...........|...........|...........|...........|...........|...........|...........|...........|...........|...........|...........
|...........|...........|...........|...........|...........|...........|...........|...........|...........|...........|...........|...........|...........|...........|...........|...........|...........|...........|...........|...........|...........|...........|...........|...........|...........|...........|...........|...........
|...........|...........|...........|...........|...........|...........|...........|...........|B-529......|F#529......|...........|C-522......|...........|...........|C-527......|...........|........E08|...........|........F10|...........|...........|...........|...........|...........|...........|...........|...........|...........
|...........|...........|...........|...........|...........|...........|...........|...........|...........|...........|...........|...........|...........|...........|...........|...........|...........|...........|...........|...........|...........|...........|...........|...........|...........|...........|...........|...........
|...........|...........|...........|...........|...........|...........|...........|...........|...........|...........|...........|...........|...........|...........|...........|...........|...........|...........|...........|...........|...........|...........|...........|...........|...........|...........|...........|...........
|...........|...........|...........|...........|...........|...........|...........|...........|^^^........|^^^........|G-404......|C-503......|G-525......|...........|C-528......|C-519......|G-511......|...........|D-711......|...........|...........|...........|...........|...........|...........|...........|...........|...........
|...........|...........|...........|...........|...........|...........|...........|...........|...........|...........|...........|...........|...........|...........|...........|...........|...........|...........|...........|...........|...........|...........|...........|...........|...........|...........|...........|...........
|...........|...........|...........|...........|...........|...........|...........|...........|...........|...........|...........|...........|...........|...........|...........|...........|...........|...........|...........|...........|...........|...........|...........|...........|...........|...........|...........|...........
|...........|...........|...........|...........|...........|...........|...........|...........|...........|...........|...........|...........|...........|...........|...........|...........|^^^........|...........|...........|...........|...........|...........|...........|...........|...........|...........|...........|...........
|...........|...........|...........|...........|...........|...........|...........|...........|...........|...........|...........|...........|...........|...........|...........|...........|...........|...........|...........|...........|...........|...........|...........|...........|...........|...........|...........|...........
|...........|...........|...........|...........|...........|...........|...........|...........|...........|...........|C-403......|...........|...........|...........|...........|F-518......|...........|E-611......|B-611......|...........|E-711......|...........|...........|...........|...........|...........|...........|...........
|...........|...........|...........|...........|...........|...........|...........|...........|...........|...........|...........|...........|...........|...........|...........|...........|...........|...........|...........|...........|...........|...........|...........|...........|...........|...........|...........|...........
|...........|...........|...........|...........|...........|...........|...........|...........|...........|...........|...........|...........|...........|...........|...........|...........|...........|...........|...........|...........|...........|...........|...........|...........|...........|...........|...........|...........
Rows: 64
|...........|A-302......|G#406......|E-406......|B-306......|F#306......|...........|D#533......|E-629......|E-529......|...........|C-403......|...........|C-520......|C-527......|C-519......|...........|...........|...........|...........|...........|...........|...........|...........|...........|...........|...........|...........
|...........|...........|...........|...........|...........|...........|...........|...........|...........|...........|...........|...........|...........|...........|...........|...........|...........|...........|...........|...........|...........|...........|...........|...........|...........|...........|...........|...........
|...........|...........|...........|...........|...........|...........|...........|...........|...........|...........|...........|...........|...........|...........|...........|...........|...........|...........|...........|...........|...........|...........|...........|...........|...........|...........|...........|...........
|...........|...........|...........|...........|...........|...........|...........|...........|...........|...........|...........|...........|...........|...........|...........|...........|...........|...........|...........|...........|...........|...........|...........|...........|...........|...........|...........|...........
|...........|...........|...........|...........|...........|...........|...........|...........|...........|...........|...........|...........|...........|...........|...........|...........|...........|...........|...........|...........|...........|...........|...........|...........|...........|...........|...........|...........
|...........|...........|...........|...........|...........|...........|...........|...........|...........|...........|...........|...........|...........|...........|C-527......|...........|...........|...........|E-510......|...........|...........|...........|...........|...........|...........|...........|...........|...........
|...........|...........|...........|...........|...........|...........|...........|...........|...........|...........|...........|...........|...........|...........|...........|...........|...........|...........|...........|...........|...........|...........|...........|...........|...........|...........|...........|...........
|...........|...........|...........|...........|...........|...........|...........|...........|........E07|........E07|...........|...........|...........|...........|...........|...........|...........|...........|^^^........|...........|...........|...........|...........|...........|...........|...........|...........|...........
|...........|...........|...........|...........|...........|...........|...........|...........|........E07|........E07|C-503......|G-404......|C-526......|...........|C-528......|...........|...........|...........|F#510......|...........|...........|...........|...........|...........|...........|...........|...........|...........
|...........|...........|...........|...........|...........|...........|...........|...........|........E07|........E07|...........|...........|...........|...........|...........|...........|...........|...........|...........|...........|...........|...........|...........|...........|...........|...........|...........|...........
|...........|...........|...........|...........|...........|...........|...........|...........|........E07|........E07|...........|...........|...........|...........|...........|...........|...........|...........|...........|...........|...........|...........|...........|...........|...........|...........|...........|...........
|...........|...........|...........|...........|...........|...........|...........|...........|........E07|........E07|...........|...........|...........|...........|...........|...........|...........|...........|^^^........|...........|...........|...........|...........|...........|...........|...........|...........|...........
|...........|...........|...........|...........|...........|...........|...........|...........|........E07|........E07|...........|...........|...........|...........|...........|...........|...........|...........|...........|...........|...........|...........|...........|...........|...........|...........|...........|...........
|...........|...........|...........|...........|...........|...........|...........|...........|........E07|........E07|...........|C-403......|...........|...........|...........|...........|...........|...........|E-510......|...........|...........|...........|...........|...........|...........|...........|...........|...........
|...........|...........|...........|...........|...........|...........|...........|...........|........E07|........E07|...........|...........|...........|...........|...........|...........|...........|...........|...........|...........|...........|...........|...........|...........|...........|...........|...........|...........
|...........|...........|...........|...........|...........|...........|...........|...........|........E07|........E07|...........|...........|...........|...........|...........|...........|...........|...........|^^^........|...........|...........|...........|...........|...........|...........|...........|...........|...........
|...........|G#302......|...........|...........|...........|...........|...........|...........|........E07|........E07|C-403......|...........|...........|...........|C-527......|F-518......|...........|...........|B-510......|...........|...........|...........|...........|...........|...........|...........|...........|...........
|...........|...........|...........|...........|...........|...........|...........|...........|........E07|........E07|...........|...........|...........|...........|...........|...........|...........|...........|...........|...........|...........|...........|...........|...........|...........|...........|...........|...........
|...........|...........|...........|...........|...........|...........|...........|...........|........E07|........E07|...........|...........|...........|...........|...........|...........|...........|...........|........F10|...........|...........|...........|...........|...........|...........|...........|...........|...........
|...........|...........|...........|...........|...........|...........|...........|...........|........E07|........E07|...........|...........|...........|...........|...........|...........|...........|...........|...........|...........|...........|...........|...........|...........|...........|...........|...........|...........
|...........|...........|...........|...........|...........|...........|...........|...........|........E07|........E07|...........|...........|...........|...........|...........|...........|...........|...........|...........|...........|...........|...........|...........|...........|...........|...........|...........|...........
|...........|...........|...........|...........|...........|...........|...........|...........|........E07|........E07|...........|...........|...........|...........|C-527......|...........|E-710...M3D|...........|...........|...........|...........|...........|...........|...........|...........|...........|...........|...........
|...........|...........|...........|...........|...........|...........|...........|...........|........E07|........E07|...........|...........|...........|...........|...........|...........|...........|...........|^^^........|...........|...........|...........|...........|...........|...........|...........|...........|...........
|...........|...........|...........|...........|...........|...........|...........|...........|^^^........|^^^........|...........|...........|...........|...........|...........|...........|...........|...........|...........|...........|...........|...........|...........|...........|...........|...........|...........|...........
|...........|...........|...........|...........|...........|...........|...........|...........|...........|...........|G-404......|C-503......|G-525......|...........|C-528......|...........|........F10|F#611......|B-510......|...........|...........|...........|...........|...........|...........|...........|...........|...........
|...........|...........|...........|...........|...........|...........|...........|...........|...........|...........|...........|...........|...........|...........|...........|...........|...........|...........|...........|...........|...........|...........|...........|...........|...........|...........|...........|...........
|...........|...........|...........|...........|...........|...........|...........|...........|...........|...........|...........|...........|...........|...........|...........|...........|...........|...........|........F10|...........|...........|...........|...........|...........|...........|...........|...........|...........
|...........|...........|...........|...........|...........|...........|...........|...........|...........|...........|...........|...........|...........|...........|...........|...........|...........|...........|...........|...........|...........|...........|...........|...........|...........|...........|...........|...........
|...........|...........|...........|...........|...........|...........|...........|...........|...........|...........|...........|...........|...........|...........|...........|...........|...........|^^^........|...........|...........|...........|...........|...........|...........|...........|...........|...........|...........
|...........|...........|...........|...........|...........|...........|...........|...........|...........|...........|C-403......|...........|...........|...........|...........|F-518......|........E10|...........|^^^........|...........|...........|...........|...........|...........|...........|...........|...........|...........
|...........|...........|...........|...........|...........|...........|...........|...........|...........|...........|...........|...........|...........|...........|...........|...........|...........|...........|...........|...........|...........|...........|...........|...........|...........|...........|...........|...........
|...........|...........|...........|...........|...........|...........|...........|...........|...........|...........|...........|...........|...........|...........|...........|...........|...........|...........|...........|...........|...........|...........|...........|...........|...........|...........|...........|...........
|...........|F#302......|...........|...........|...........|...........|...........|...........|...........|...........|...........|C-403......|...........|...........|C-527......|...........|...........|G#611......|C-610......|........M28|...........|...........|...........|...........|...........|...........|...........|...........
|...........|...........|...........|...........|...........|...........|...........|...........|...........|...........|...........|...........|...........|...........|...........|...........|...........|...........|...........|...........|...........|...........|...........|...........|...........|...........|...........|...........
|...........|...........|...........|...........|...........|...........|...........|...........|...........|...........|...........|...........|...........|...........|...........|...........|...........|...........|........E08|...........|...........|...........|...........|...........|...........|...........|...........|...........
|...........|...........|...........|...........|...........|...........|...........|...........|...........|...........|...........|...........|...........|...........|...........|...........|...........|...........|...........|...........|...........|...........|...........|...........|...........|...........|...........|...........
|...........|...........|...........|...........|...........|...........|...........|...........|...........|...........|...........|...........|...........|...........|...........|...........|...........|...........|...........|...........|...........|...........|...........|...........|...........|...........|...........|...........
|...........|...........|...........|...........|...........|...........|...........|...........|...........|...........|...........|...........|...........|...........|C-527......|...........|...........|...........|A-510...SD1|E-611......|...........|...........|...........|...........|...........|...........|...........|...........
|...........|...........|...........|...........|...........|...........|...........|...........|...........|...........|...........|...........|...........|...........|...........|...........|...........|...........|...........|...........|...........|...........|...........|...........|...........|...........|...........|...........
|...........|...........|...........|...........|...........|...........|...........|...........|...........|...........|...........|...........|...........|...........|...........|...........|...........|...........|...........|^^^........|...........|...........|...........|...........|...........|...........|...........|...........
|...........|...........|A-406......|E-406......|B-306......|C#406......|...........|...........|...........|...........|C-503......|G-404......|C-526......|...........|C-528......|C-519......|C#710......|...........|F#510......|F#611......|...........|...........|...........|...........|...........|...........|...........|...........
|...........|...........|...........|...........|...........|...........|...........|...........|...........|...........|...........|...........|...........|...........|...........|...........|...........|...........|...........|...........|...........|...........|...........|...........|...........|...........|...........|...........
|...........|...........|...........|...........|...........|...........|...........|...........|...........|...........|...........|...........|...........|...........|...........|...........|...........|...........|...........|...........|...........|...........|...........|...........|...........|...........|...........|...........
|...........|...........|...........|...........|...........|...........|...........|...........|...........|...........|...........|...........|...........|...........|...........|...........|...........|...........|...........|^^^........|...........|...........|...........|...........|...........|...........|...........|...........
|...........|...........|...........|...........|...........|...........|...........|...........|...........|...........|...........|...........|...........|...........|...........|...........|^^^........|...........|...........|...........|...........|...........|...........|...........|...........|...........|...........|...........
|...........|...........|...........|...........|...........|...........|...........|...........|...........|...........|...........|C-403......|...........|...........|...........|...........|...........|...........|........E10|E-611......|...........|...........|...........|...........|...........|...........|...........|...........
|...........|...........|...........|...........|...........|...........|...........|...........|...........|...........|...........|...........|...........|...........|...........|...........|...........|...........|...........|...........|...........|...........|...........|...........|...........|...........|...........|...........
|...........|...........|...........|...........|...........|...........|...........|...........|...........|...........|...........|...........|...........|...........|...........|...........|...........|...........|...........|^^^........|...........|...........|...........|...........|...........|...........|...........|...........
|...........|E-302......|...........|...........|...........|...........|...........|...........|...........|...........|C-403......|...........|...........|...........|C-527......|F-518......|B-610......|A-611......|A-510......|B-611......|...........|...........|...........|...........|...........|...........|...........|...........
|...........|...........|...........|...........|...........|...........|...........|...........|...........|...........|...........|...........|...........|...........|...........|...........|...........|...........|...........|...........|...........|...........|...........|...........|...........|...........|...........|...........
|...........|...........|...........|...........|...........|...........|...........|...........|...........|...........|...........|...........|...........|...........|...........|...........|...........|...........|...........|........F10|...........|...........|...........|...........|...........|...........|...........|...........
|...........|...........|...........|...........|...........|...........|...........|...........|...........|...........|...........|...........|...........|...........|...........|...........|...........|...........|...........|...........|...........|...........|...........|...........|...........|...........|...........|...........
|...........|...........|...........|...........|...........|...........|...........|...........|...........|...........|...........|...........|...........|...........|...........|...........|...........|...........|...........|...........|...........|...........|...........|...........|...........|...........|...........|...........
|...........|...........|C#506......|G#406......|E-406......|A-306......|...........|...........|...........|...........|...........|...........|...........|...........|C-527......|...........|A-610......|...........|F#510......|...........|...........|...........|...........|...........|...........|...........|...........|...........
|...........|...........|...........|...........|...........|...........|...........|...........|...........|...........|...........|...........|...........|...........|...........|...........|...........|...........|...........|^^^........|...........|...........|...........|...........|...........|...........|...........|...........
|...........|...........|...........|...........|...........|...........|...........|...........|...........|...........|...........|...........|...........|...........|...........|...........|...........|...........|...........|...........|...........|...........|...........|...........|...........|...........|...........|...........
|...........|...........|...........|...........|...........|...........|...........|...........|...........|...........|G-404......|C-503......|G-525......|...........|C-528......|C-519......|^^^........|...........|C#510......|B-611......|...........|...........|...........|...........|...........|...........|...........|...........
|...........|...........|...........|...........|...........|...........|...........|...........|...........|...........|...........|...........|...........|...........|...........|...........|...........|...........|...........|...........|...........|...........|...........|...........|...........|...........|...........|...........
|...........|...........|...........|...........|...........|...........|...........|...........|...........|...........|...........|...........|...........|...........|...........|...........|...........|...........|D-510...SD2|........F10|...........|...........|...........|...........|...........|...........|...........|...........
|...........|...........|...........|...........|...........|...........|...........|...........|...........|...........|...........|...........|...........|...........|...........|...........|...........|...........|...........|...........|...........|...........|...........|...........|...........|...........|...........|...........
|...........|...........|...........|...........|...........|...........|...........|...........|...........|...........|...........|...........|...........|...........|...........|...........|...........|...........|...........|...........|...........|...........|...........|...........|...........|...........|...........|...........
|...........|...........|...........|...........|...........|...........|...........|...........|...........|...........|C-403......|...........|...........|...........|...........|...........|F#710......|B-611......|D#510...SD1|^^^........|...........|...........|...........|...........|...........|...........|...........|...........
|...........|...........|...........|...........|...........|...........|...........|...........|...........|...........|...........|...........|...........|...........|...........|...........|...........|...........|...........|...........|...........|...........|...........|...........|...........|...........|...........|...........
|...........|...........|...........|...........|...........|...........|...........|...........|...........|...........|...........|...........|...........|...........|...........|...........|...........|...........|...........|...........|...........|...........|...........|...........|...........|...........|...........|...........
Rows: 64
|...........|D#302......|B-406......|F#406......|D#406......|B-306......|A-306......|...........|...........|...........|...........|C-403......|...........|...........|C-527......|C-519......|...........|...........|...........|C-711......|...........|...........|...........|...........|...........|...........|...........|...........
|...........|...........|...........|...........|...........|...........|...........|...........|...........|...........|...........|...........|...........|...........|...........|...........|...........|...........|...........|...........|...........|...........|...........|...........|...........|...........|...........|...........
|...........|...........|...........|...........|...........|...........|...........|...........|...........|...........|...........|...........|...........|...........|...........|...........|...........|...........|...........|........E08|...........|...........|...........|...........|...........|...........|...........|...........
|...........|...........|...........|...........|...........|...........|...........|...........|...........|...........|...........|...........|...........|...........|...........|...........|...........|...........|...........|...........|...........|...........|...........|...........|...........|...........|...........|...........
|...........|...........|...........|...........|...........|...........|...........|...........|...........|...........|...........|...........|...........|...........|...........|...........|...........|...........|...........|...........|...........|...........|...........|...........|...........|...........|...........|...........
|...........|...........|...........|...........|...........|...........|...........|...........|...........|...........|...........|...........|...........|...........|C-527......|...........|...........|...........|F#510......|A-611...SD1|...........|...........|...........|...........|...........|...........|...........|...........
|...........|...........|...........|...........|...........|...........|...........|...........|...........|...........|...........|...........|...........|...........|...........|...........|...........|...........|...........|...........|...........|...........|...........|...........|...........|...........|...........|...........
|...........|...........|...........|...........|...........|...........|...........|...........|...........|...........|...........|...........|...........|...........|...........|...........|...........|...........|^^^........|...........|...........|...........|...........|...........|...........|...........|...........|...........
|...........|...........|...........|...........|...........|...........|...........|...........|...........|...........|C-503......|G-404......|C-526......|...........|C-528......|...........|...........|...........|G#510......|F#611......|...........|...........|...........|...........|...........|...........|...........|...........
|...........|...........|...........|...........|...........|...........|...........|...........|...........|...........|...........|...........|...........|...........|...........|...........|...........|...........|...........|...........|...........|...........|...........|...........|...........|...........|...........|...........
|...........|...........|...........|...........|...........|...........|...........|...........|...........|...........|...........|...........|...........|...........|...........|...........|...........|...........|...........|...........|...........|...........|...........|...........|...........|...........|...........|...........
|...........|...........|...........|...........|...........|...........|...........|...........|...........|...........|...........|...........|...........|...........|...........|...........|...........|...........|^^^........|...........|...........|...........|...........|...........|...........|...........|...........|...........
|...........|...........|...........|...........|...........|...........|...........|...........|...........|...........|...........|...........|...........|...........|...........|...........|...........|...........|...........|...........|...........|...........|...........|...........|...........|...........|...........|...........
|...........|...........|...........|...........|...........|...........|...........|...........|...........|...........|...........|C-403......|...........|...........|...........|...........|...........|...........|F#510......|........E10|...........|...........|...........|...........|...........|...........|...........|...........
|...........|...........|...........|...........|...........|...........|...........|...........|...........|...........|...........|...........|...........|...........|...........|...........|...........|...........|...........|...........|...........|...........|...........|...........|...........|...........|...........|...........
|...........|...........|...........|...........|...........|...........|...........|...........|...........|...........|...........|...........|...........|...........|...........|...........|...........|...........|^^^........|...........|...........|...........|...........|...........|...........|...........|...........|...........
|...........|C#302......|...........|...........|...........|...........|...........|...........|...........|...........|C-403......|...........|...........|...........|C-527......|F-518......|...........|...........|D-610......|A-611......|...........|...........|...........|...........|...........|...........|...........|...........
|...........|...........|...........|...........|...........|...........|...........|...........|...........|...........|...........|...........|...........|...........|...........|...........|...........|...........|...........|...........|...........|...........|...........|...........|...........|...........|...........|...........
|...........|...........|...........|...........|...........|...........|...........|...........|...........|...........|...........|...........|...........|...........|...........|...........|...........|...........|........E08|...........|...........|...........|...........|...........|...........|...........|...........|...........
|...........|...........|...........|...........|...........|...........|...........|...........|...........|...........|...........|...........|...........|...........|...........|...........|...........|...........|...........|...........|...........|...........|...........|...........|...........|...........|...........|...........
|...........|...........|...........|...........|...........|...........|...........|...........|...........|...........|...........|...........|...........|...........|...........|...........|...........|...........|...........|...........|...........|...........|...........|...........|...........|...........|...........|...........
|...........|...........|...........|...........|...........|...........|...........|...........|...........|...........|...........|...........|...........|...........|C-527......|...........|D#710......|...........|B-510...SD1|F#611......|...........|...........|...........|...........|...........|...........|...........|...........
|...........|...........|...........|...........|...........|...........|...........|...........|...........|...........|...........|...........|...........|...........|...........|...........|...........|...........|...........|...........|...........|...........|...........|...........|...........|...........|...........|...........
|...........|...........|...........|...........|...........|...........|...........|...........|...........|...........|...........|...........|...........|...........|...........|...........|...........|...........|...........|...........|...........|...........|...........|...........|...........|...........|...........|...........
|...........|...........|...........|...........|...........|...........|...........|...........|...........|...........|G-404......|C-503......|G-525......|...........|C-528......|...........|E-710......|...........|G#510......|C#611......|...........|...........|...........|...........|...........|...........|...........|...........
|...........|...........|...........|...........|...........|...........|...........|...........|...........|...........|...........|...........|...........|...........|...........|...........|...........|...........|...........|...........|...........|...........|...........|...........|...........|...........|...........|...........
|...........|...........|...........|...........|...........|...........|...........|...........|...........|...........|...........|...........|...........|...........|...........|...........|...........|...........|...........|D-611...SD2|...........|...........|...........|...........|...........|...........|...........|...........
|...........|...........|...........|...........|...........|...........|...........|...........|...........|...........|...........|...........|...........|...........|...........|...........|...........|...........|...........|...........|...........|...........|...........|...........|...........|...........|...........|...........
|...........|...........|...........|...........|...........|...........|...........|...........|...........|...........|...........|...........|...........|...........|...........|...........|...........|...........|...........|...........|...........|...........|...........|...........|...........|...........|...........|...........
|...........|...........|...........|...........|...........|...........|...........|...........|...........|...........|C-403......|...........|...........|...........|...........|F-518......|D#710......|...........|F#510......|D#611...SD1|...........|...........|...........|...........|...........|...........|...........|...........
|...........|...........|...........|...........|...........|...........|...........|...........|...........|...........|...........|...........|...........|...........|...........|...........|...........|...........|...........|...........|...........|...........|...........|...........|...........|...........|...........|...........
|...........|...........|...........|...........|...........|...........|...........|...........|...........|...........|...........|...........|...........|...........|...........|...........|...........|...........|...........|...........|...........|...........|...........|...........|...........|...........|...........|...........
|...........|B-202......|...........|...........|...........|...........|...........|...........|...........|...........|...........|C-403......|...........|...........|C-527......|...........|...........|...........|A-510......|...........|...........|...........|...........|...........|...........|...........|...........|...........
|...........|...........|...........|...........|...........|...........|...........|...........|...........|...........|...........|...........|...........|...........|...........|...........|...........|...........|...........|...........|...........|...........|...........|...........|...........|...........|...........|...........
|...........|...........|...........|...........|...........|...........|...........|...........|...........|...........|...........|...........|...........|...........|...........|...........|...........|...........|...........|...........|...........|...........|...........|...........|...........|...........|...........|...........
|...........|...........|...........|...........|...........|...........|...........|...........|...........|...........|...........|...........|...........|...........|...........|...........|...........|...........|...........|...........|...........|...........|...........|...........|...........|...........|...........|...........
|...........|...........|...........|...........|...........|...........|...........|...........|...........|...........|...........|...........|...........|...........|...........|...........|...........|...........|...........|...........|...........|...........|...........|...........|...........|...........|...........|...........
|...........|...........|...........|...........|...........|...........|...........|...........|...........|...........|...........|...........|...........|...........|C-527......|...........|...........|...........|F#510......|...........|...........|...........|...........|...........|...........|...........|...........|...........
|...........|...........|...........|...........|...........|...........|...........|...........|...........|...........|...........|...........|...........|...........|...........|...........|...........|...........|...........|...........|...........|...........|...........|...........|...........|...........|...........|...........
|...........|...........|...........|...........|...........|...........|...........|...........|...........|...........|...........|...........|...........|...........|...........|...........|...........|...........|...........|...........|...........|...........|...........|...........|...........|...........|...........|...........
|...........|...........|D#506......|G#406......|C#406......|A-306......|D#306......|...........|...........|...........|C-503......|G-404......|C-526......|...........|C-528......|C-519......|E-710......|...........|........F10|F#611......|...........|...........|...........|...........|...........|...........|...........|...........
|...........|...........|...........|...........|...........|...........|...........|...........|...........|...........|...........|...........|...........|...........|...........|...........|...........|...........|...........|...........|...........|...........|...........|...........|...........|...........|...........|...........
|...........|...........|...........|...........|...........|...........|...........|...........|...........|...........|...........|...........|...........|...........|...........|...........|...........|...........|...........|........F10|...........|...........|...........|...........|...........|...........|...........|...........
|...........|...........|...........|...........|...........|...........|...........|...........|...........|...........|...........|...........|...........|...........|...........|...........|^^^........|...........|...........|...........|...........|...........|...........|...........|...........|...........|...........|...........
|...........|...........|...........|...........|...........|...........|...........|...........|...........|...........|...........|...........|...........|...........|...........|...........|...........|...........|...........|...........|...........|...........|...........|...........|...........|...........|...........|...........
|...........|...........|...........|...........|...........|...........|...........|...........|...........|...........|...........|C-403......|...........|...........|...........|...........|...........|...........|F#510......|^^^........|...........|...........|...........|...........|...........|...........|...........|...........
|...........|...........|...........|...........|...........|...........|...........|...........|...........|...........|...........|...........|...........|...........|...........|...........|...........|...........|...........|...........|...........|...........|...........|...........|...........|...........|...........|...........
|...........|...........|...........|...........|...........|...........|...........|...........|...........|...........|...........|...........|...........|...........|...........|...........|...........|...........|...........|...........|...........|...........|...........|...........|...........|...........|...........|...........
|...........|A-302......|...........|...........|...........|...........|...........|...........|...........|...........|C-403......|...........|...........|...........|C-527......|F-518......|F#710......|...........|...........|F#611......|...........|...........|...........|...........|...........|...........|...........|...........
|...........|...........|...........|...........|...........|...........|...........|...........|...........|...........|...........|...........|...........|...........|...........|...........|...........|...........|^^^........|...........|...........|...........|...........|...........|...........|...........|...........|...........
|...........|...........|...........|...........|...........|...........|...........|...........|...........|...........|...........|...........|...........|...........|...........|...........|...........|...........|...........|...........|...........|...........|...........|...........|...........|...........|...........|...........
|...........|...........|...........|...........|...........|...........|...........|...........|...........|...........|...........|...........|...........|...........|...........|...........|^^^........|...........|...........|...........|...........|...........|...........|...........|...........|...........|...........|...........
|...........|...........|...........|...........|...........|...........|...........|...........|...........|...........|...........|...........|...........|...........|...........|...........|...........|...........|...........|^^^........|...........|...........|...........|...........|...........|...........|...........|...........
|...........|...........|C#506......|G#406......|F#406......|C#406......|A-306......|...........|...........|...........|...........|C-522......|...........|...........|C-527......|...........|...........|...........|D#610......|...........|...........|...........|...........|...........|...........|...........|...........|...........
|...........|...........|...........|...........|...........|...........|...........|...........|...........|...........|...........|...........|...........|...........|...........|...........|...........|...........|...........|...........|...........|...........|...........|...........|...........|...........|...........|...........
|...........|...........|...........|...........|...........|...........|...........|...........|...........|...........|...........|...........|...........|...........|...........|...........|...........|...........|...........|...........|...........|...........|...........|...........|...........|...........|...........|...........
|...........|...........|...........|...........|...........|...........|...........|...........|F-529......|C-529......|G-404......|C-503......|G-525......|...........|C-528......|C-519......|F#710......|...........|^^^........|F-611......|...........|...........|...........|...........|...........|...........|...........|...........
|...........|...........|...........|...........|...........|...........|...........|...........|...........|...........|...........|...........|...........|...........|...........|...........|...........|...........|...........|...........|...........|...........|...........|...........|...........|...........|...........|...........
|...........|...........|...........|...........|...........|...........|...........|...........|...........|...........|...........|...........|...........|...........|...........|...........|........F10|...........|...........|...........|...........|...........|...........|...........|...........|...........|...........|...........
|...........|...........|...........|...........|...........|...........|...........|...........|^^^........|^^^........|...........|...........|...........|...........|...........|...........|...........|...........|...........|...........|...........|...........|...........|...........|...........|...........|...........|...........
|...........|...........|...........|...........|...........|...........|...........|...........|...........|...........|...........|...........|...........|...........|...........|...........|...........|...........|...........|...........|...........|...........|...........|...........|...........|...........|...........|...........
|...........|...........|...........|...........|...........|...........|...........|...........|...........|...........|C-403......|C-522......|...........|...........|C-527......|...........|...........|...........|D#610......|...........|...........|...........|...........|...........|...........|...........|...........|...........
|...........|...........|...........|...........|...........|...........|...........|...........|...........|...........|...........|...........|...........|...........|...........|...........|...........|...........|...........|...........|...........|...........|...........|...........|...........|...........|...........|...........
|...........|...........|...........|...........|...........|...........|...........|...........|...........|...........|...........|...........|...........|...........|...........|...........|...........|...........|...........|...........|...........|...........|...........|...........|...........|...........|...........|...........
Rows: 64
|...........|G#302......|C-506......|G#406......|D#406......|C#406......|F-306......|...........|G#529......|D#529......|...........|C-403......|...........|C-520......|C-527......|C-519......|...........|G#611......|...........|...........|...........|...........|...........|...........|...........|...........|...........|...........
|...........|...........|...........|...........|...........|...........|...........|...........|...........|...........|...........|...........|...........|...........|...........|...........|...........|...........|...........|...........|...........|...........|...........|...........|...........|...........|...........|...........
|...........|...........|...........|...........|...........|...........|...........|...........|...........|...........|...........|...........|...........|...........|...........|...........|...........|...........|...........|...........|...........|...........|...........|...........|...........|...........|...........|...........
|...........|...........|...........|...........|...........|...........|...........|...........|...........|...........|...........|...........|...........|...........|...........|...........|...........|...........|...........|...........|...........|...........|...........|...........|...........|...........|...........|...........
|...........|...........|...........|...........|...........|...........|...........|...........|...........|...........|...........|...........|...........|...........|...........|...........|...........|...........|...........|...........|...........|...........|...........|...........|...........|...........|...........|...........
|...........|...........|...........|...........|...........|...........|...........|...........|........F10|........F10|...........|...........|...........|...........|C-527......|...........|...........|...........|G#510......|...........|...........|...........|...........|...........|...........|...........|...........|...........
|...........|...........|...........|...........|...........|...........|...........|...........|...........|...........|...........|...........|...........|...........|...........|...........|...........|...........|...........|...........|...........|...........|...........|...........|...........|...........|...........|...........
|...........|...........|...........|...........|...........|...........|...........|...........|...........|...........|...........|...........|...........|...........|...........|...........|...........|...........|^^^........|...........|...........|...........|...........|...........|...........|...........|...........|...........
|...........|...........|...........|...........|...........|...........|...........|...........|...........|...........|C-503......|G-404......|C-526......|...........|C-528......|...........|...........|...........|A#510......|...........|...........|...........|...........|...........|...........|...........|...........|...........
|...........|...........|...........|...........|...........|...........|...........|...........|...........|...........|...........|...........|...........|...........|...........|...........|...........|...........|...........|...........|...........|...........|...........|...........|...........|...........|...........|...........
|...........|...........|...........|...........|...........|...........|...........|...........|...........|...........|...........|...........|...........|...........|...........|...........|...........|...........|...........|...........|...........|...........|...........|...........|...........|...........|...........|...........
|...........|...........|...........|...........|...........|...........|...........|...........|...........|...........|...........|...........|...........|...........|...........|...........|...........|...........|^^^........|...........|...........|...........|...........|...........|...........|...........|...........|...........
|...........|...........|...........|...........|...........|...........|...........|...........|...........|...........|...........|...........|...........|...........|...........|...........|...........|...........|...........|...........|...........|...........|...........|...........|...........|...........|...........|...........
|...........|...........|...........|...........|...........|...........|...........|...........|A#529......|F-529......|...........|C-403......|...........|...........|...........|...........|...........|...........|G#510......|...........|...........|...........|...........|...........|...........|...........|...........|...........
|...........|...........|...........|...........|...........|...........|...........|...........|...........|...........|...........|...........|...........|...........|...........|...........|...........|...........|...........|...........|...........|...........|...........|...........|...........|...........|...........|...........
|...........|...........|...........|...........|...........|...........|...........|...........|...........|...........|...........|...........|...........|...........|...........|...........|...........|...........|^^^........|...........|...........|...........|...........|...........|...........|...........|...........|...........
|...........|F#302......|...........|...........|...........|...........|...........|...........|^^^........|^^^........|C-403......|...........|...........|...........|C-527......|F-518......|...........|...........|D#610......|...........|...........|...........|...........|...........|...........|...........|...........|...........
|...........|...........|...........|...........|...........|...........|...........|...........|...........|...........|...........|...........|...........|...........|...........|...........|...........|...........|...........|...........|...........|...........|...........|...........|...........|...........|...........|...........
|...........|...........|...........|...........|...........|...........|...........|...........|...........|...........|...........|...........|...........|...........|...........|...........|...........|...........|........F10|...........|...........|...........|...........|...........|...........|...........|...........|...........
|...........|...........|...........|...........|...........|...........|...........|...........|...........|...........|...........|...........|...........|...........|...........|...........|...........|...........|...........|...........|...........|...........|...........|...........|...........|...........|...........|...........
|...........|...........|...........|...........|...........|...........|...........|...........|...........|...........|...........|...........|...........|...........|...........|...........|...........|...........|...........|...........|...........|...........|...........|...........|...........|...........|...........|...........
|...........|...........|...........|...........|...........|...........|...........|...........|...........|...........|...........|...........|...........|...........|C-527......|...........|G#710......|...........|...........|...........|...........|...........|...........|...........|...........|...........|...........|...........
|...........|...........|...........|...........|...........|...........|...........|...........|...........|...........|...........|...........|...........|...........|...........|...........|...........|...........|^^^........|...........|...........|...........|...........|...........|...........|...........|...........|...........
|...........|...........|...........|...........|...........|...........|...........|...........|...........|...........|...........|...........|...........|...........|...........|...........|...........|...........|...........|...........|...........|...........|...........|...........|...........|...........|...........|...........
|...........|...........|...........|...........|...........|...........|...........|...........|...........|...........|G-404......|C-503......|G-525......|...........|C-528......|...........|........F10|A#611......|D#610......|...........|...........|...........|...........|...........|...........|...........|...........|...........
|...........|...........|...........|...........|...........|...........|...........|...........|...........|...........|...........|...........|...........|...........|...........|...........|...........|...........|...........|...........|...........|...........|...........|...........|...........|...........|...........|...........
|...........|...........|...........|...........|...........|...........|...........|...........|...........|...........|...........|...........|...........|...........|...........|...........|...........|...........|........F10|...........|...........|...........|...........|...........|...........|...........|...........|...........
|...........|...........|...........|...........|...........|...........|...........|...........|...........|...........|...........|...........|...........|...........|...........|...........|...........|...........|...........|...........|...........|...........|...........|...........|...........|...........|...........|...........
|...........|...........|...........|...........|...........|...........|...........|...........|...........|...........|...........|...........|...........|...........|...........|...........|...........|^^^........|...........|...........|...........|...........|...........|...........|...........|...........|...........|...........
|...........|...........|...........|...........|...........|...........|...........|...........|...........|...........|C-403......|...........|...........|...........|...........|F-518......|........E10|...........|^^^........|...........|...........|...........|...........|...........|...........|...........|...........|...........
|...........|...........|...........|...........|...........|...........|...........|...........|...........|...........|...........|...........|...........|...........|...........|...........|...........|...........|...........|...........|...........|...........|...........|...........|...........|...........|...........|...........
|...........|...........|...........|...........|...........|...........|...........|...........|...........|...........|...........|...........|...........|...........|...........|...........|...........|...........|...........|...........|...........|...........|...........|...........|...........|...........|...........|...........
|...........|F-302......|...........|...........|...........|...........|...........|...........|...........|...........|...........|C-403......|...........|...........|C-527......|...........|...........|C-711......|E-610......|...........|...........|...........|...........|...........|...........|...........|...........|...........
|...........|...........|...........|...........|...........|...........|...........|...........|...........|...........|...........|...........|...........|...........|...........|...........|...........|...........|...........|...........|...........|...........|...........|...........|...........|...........|...........|...........
|...........|...........|...........|...........|...........|...........|...........|...........|...........|...........|...........|...........|...........|...........|...........|...........|...........|...........|........E08|...........|...........|...........|...........|...........|...........|...........|...........|...........
|...........|...........|...........|...........|...........|...........|...........|...........|...........|...........|...........|...........|...........|...........|...........|...........|...........|...........|...........|...........|...........|...........|...........|...........|...........|...........|...........|...........
|...........|...........|...........|...........|...........|...........|...........|...........|...........|...........|...........|...........|...........|...........|...........|...........|...........|...........|...........|...........|...........|...........|...........|...........|...........|...........|...........|...........
|...........|...........|...........|...........|...........|...........|...........|...........|...........|...........|...........|...........|...........|...........|C-527......|...........|...........|...........|C#610...SD1|G#611......|...........|...........|...........|...........|...........|...........|...........|...........
|...........|...........|...........|...........|...........|...........|...........|...........|...........|...........|...........|...........|...........|...........|...........|...........|...........|...........|...........|...........|...........|...........|...........|...........|...........|...........|...........|...........
|...........|...........|...........|...........|...........|...........|...........|...........|...........|...........|...........|...........|...........|...........|...........|...........|...........|...........|...........|^^^........|...........|...........|...........|...........|...........|...........|...........|...........
|...........|...........|C#506......|G#406......|D#406......|F-406......|...........|...........|...........|...........|C-503......|G-404......|C-526......|...........|C-528......|C-519......|F-710......|...........|A#510......|A#611......|...........|...........|...........|...........|...........|...........|...........|...........
|...........|...........|...........|...........|...........|...........|...........|...........|...........|...........|...........|...........|...........|...........|...........|...........|...........|...........|...........|...........|...........|...........|...........|...........|...........|...........|...........|...........
|...........|...........|...........|...........|...........|...........|...........|...........|...........|...........|...........|...........|...........|...........|...........|...........|...........|...........|...........|...........|...........|...........|...........|...........|...........|...........|...........|...........
|...........|...........|...........|...........|...........|...........|...........|...........|...........|...........|...........|...........|...........|...........|...........|...........|...........|...........|...........|^^^........|...........|...........|...........|...........|...........|...........|...........|...........
|...........|...........|...........|...........|...........|...........|...........|...........|...........|...........|...........|...........|...........|...........|...........|...........|^^^........|...........|...........|...........|...........|...........|...........|...........|...........|...........|...........|...........
|...........|...........|...........|...........|...........|...........|...........|...........|...........|...........|...........|C-403......|...........|...........|...........|...........|...........|...........|........E10|G#611......|...........|...........|...........|...........|...........|...........|...........|...........
|...........|...........|...........|...........|...........|...........|...........|...........|...........|...........|...........|...........|...........|...........|...........|...........|...........|...........|...........|...........|...........|...........|...........|...........|...........|...........|...........|...........
|...........|...........|...........|...........|...........|...........|...........|...........|...........|...........|...........|...........|...........|...........|...........|...........|...........|...........|...........|^^^........|...........|...........|...........|...........|...........|...........|...........|...........
|...........|A#302......|...........|...........|...........|...........|...........|...........|...........|...........|C-403......|...........|...........|...........|C-527......|F-518......|D#710......|C#711......|C#610......|D#711......|...........|...........|...........|...........|...........|...........|...........|...........
|...........|...........|...........|...........|...........|...........|...........|...........|...........|...........|...........|...........|...........|...........|...........|...........|...........|...........|...........|...........|...........|...........|...........|...........|...........|...........|...........|...........
|...........|...........|...........|...........|...........|...........|...........|...........|...........|...........|...........|...........|...........|...........|...........|...........|...........|...........|...........|........F10|...........|...........|...........|...........|...........|...........|...........|...........
|...........|...........|...........|...........|...........|...........|...........|...........|...........|...........|...........|...........|...........|...........|...........|...........|...........|...........|...........|...........|...........|...........|...........|...........|...........|...........|...........|...........
|...........|...........|...........|...........|...........|...........|...........|...........|...........|...........|...........|...........|...........|...........|...........|...........|...........|...........|...........|...........|...........|...........|...........|...........|...........|...........|...........|...........
|...........|...........|F-506......|C-506......|G#406......|C#406......|...........|...........|...........|...........|...........|...........|...........|...........|C-527......|...........|C#710......|...........|A#510......|...........|...........|...........|...........|...........|...........|...........|...........|...........
|...........|...........|...........|...........|...........|...........|...........|...........|...........|...........|...........|...........|...........|...........|...........|...........|...........|...........|...........|^^^........|...........|...........|...........|...........|...........|...........|...........|...........
|...........|...........|...........|...........|...........|...........|...........|...........|...........|...........|...........|...........|...........|...........|...........|...........|...........|...........|...........|...........|...........|...........|...........|...........|...........|...........|...........|...........
|...........|...........|...........|...........|...........|...........|...........|...........|...........|...........|G-404......|C-503......|G-525......|...........|C-528......|C-519......|^^^........|...........|F-510......|D#711......|...........|...........|...........|...........|...........|...........|...........|...........
|...........|...........|...........|...........|...........|...........|...........|...........|...........|...........|...........|...........|...........|...........|...........|...........|...........|...........|...........|...........|...........|...........|...........|...........|...........|...........|...........|...........
|...........|...........|...........|...........|...........|...........|...........|...........|...........|...........|...........|...........|...........|...........|...........|...........|...........|...........|F#510...SD2|........F10|...........|...........|...........|...........|...........|...........|...........|...........
|...........|...........|...........|...........|...........|...........|...........|...........|...........|...........|...........|...........|...........|...........|...........|...........|...........|...........|...........|...........|...........|...........|...........|...........|...........|...........|...........|...........
|...........|...........|...........|...........|...........|...........|...........|...........|...........|...........|...........|...........|...........|...........|...........|...........|...........|...........|...........|...........|...........|...........|...........|...........|...........|...........|...........|...........
|...........|...........|...........|...........|...........|...........|...........|...........|...........|...........|C-403......|...........|...........|...........|...........|...........|A#710......|D#711......|G-510...SD1|^^^........|...........|...........|...........|...........|...........|...........|...........|...........
|...........|...........|...........|...........|...........|...........|...........|...........|...........|...........|...........|...........|...........|...........|...........|...........|...........|...........|...........|...........|...........|...........|...........|...........|...........|...........|...........|...........
|...........|...........|...........|...........|...........|...........|...........|...........|...........|...........|...........|...........|...........|...........|...........|...........|...........|...........|...........|...........|...........|...........|...........|...........|...........|...........|...........|...........
Rows: 64
|...........|D#302......|C-506......|G-406......|F-406......|C#406......|G-306......|...........|...........|...........|...........|C-403......|...........|...........|C-527......|C-519......|...........|...........|...........|E-711......|...........|...........|...........|...........|...........|...........|...........|...........
|...........|...........|...........|...........|...........|...........|...........|...........|...........|...........|...........|...........|...........|...........|...........|...........|...........|...........|...........|...........|...........|...........|...........|...........|...........|...........|...........|...........
|...........|...........|...........|...........|...........|...........|...........|...........|...........|...........|...........|...........|...........|...........|...........|...........|...........|...........|...........|........E08|...........|...........|...........|...........|...........|...........|...........|...........
|...........|...........|...........|...........|...........|...........|...........|...........|...........|...........|...........|...........|...........|...........|...........|...........|...........|...........|...........|...........|...........|...........|...........|...........|...........|...........|...........|...........
|...........|...........|...........|...........|...........|...........|...........|...........|...........|...........|...........|...........|...........|...........|...........|...........|...........|...........|...........|...........|...........|...........|...........|...........|...........|...........|...........|...........
|...........|...........|...........|...........|...........|...........|...........|...........|...........|...........|...........|...........|...........|...........|C-527......|...........|...........|...........|A#510......|C#711...SD1|...........|...........|...........|...........|...........|...........|...........|...........
|...........|...........|...........|...........|...........|...........|...........|...........|...........|...........|...........|...........|...........|...........|...........|...........|...........|...........|...........|...........|...........|...........|...........|...........|...........|...........|...........|...........
|...........|...........|...........|...........|...........|...........|...........|...........|...........|...........|...........|...........|...........|...........|...........|...........|...........|...........|^^^........|...........|...........|...........|...........|...........|...........|...........|...........|...........
|...........|...........|...........|...........|...........|...........|...........|...........|...........|...........|C-503......|G-404......|C-526......|...........|C-528......|...........|...........|...........|C-610......|A#611......|...........|...........|...........|...........|...........|...........|...........|...........
|...........|...........|...........|...........|...........|...........|...........|...........|...........|...........|...........|...........|...........|...........|...........|...........|...........|...........|...........|...........|...........|...........|...........|...........|...........|...........|...........|...........
|...........|...........|...........|...........|...........|...........|...........|...........|...........|...........|...........|...........|...........|...........|...........|...........|...........|...........|...........|...........|...........|...........|...........|...........|...........|...........|...........|...........
|...........|...........|...........|...........|...........|...........|...........|...........|...........|...........|...........|...........|...........|...........|...........|...........|...........|...........|^^^........|...........|...........|...........|...........|...........|...........|...........|...........|...........
|...........|...........|...........|...........|...........|...........|...........|...........|...........|...........|...........|...........|...........|...........|...........|...........|...........|...........|...........|...........|...........|...........|...........|...........|...........|...........|...........|...........
|...........|...........|...........|...........|...........|...........|...........|...........|...........|...........|...........|C-403......|...........|...........|...........|...........|...........|...........|A#510......|........E10|...........|...........|...........|...........|...........|...........|...........|...........
|...........|...........|...........|...........|...........|...........|...........|...........|...........|...........|...........|...........|...........|...........|...........|...........|...........|...........|...........|...........|...........|...........|...........|...........|...........|...........|...........|...........
|...........|...........|...........|...........|...........|...........|...........|...........|...........|...........|...........|...........|...........|...........|...........|...........|...........|...........|^^^........|...........|...........|...........|...........|...........|...........|...........|...........|...........
|...........|C#402......|...........|...........|...........|...........|...........|...........|...........|...........|C-403......|...........|...........|...........|C-527......|F-518......|...........|...........|F#610......|C#711......|...........|...........|...........|...........|...........|...........|...........|...........
|...........|...........|...........|...........|...........|...........|...........|...........|...........|...........|...........|...........|...........|...........|...........|...........|...........|...........|...........|...........|...........|...........|...........|...........|...........|...........|...........|...........
|...........|...........|...........|...........|...........|...........|...........|...........|...........|...........|...........|...........|...........|...........|...........|...........|...........|...........|........E08|...........|...........|...........|...........|...........|...........|...........|...........|...........
|...........|...........|...........|...........|...........|...........|...........|...........|...........|...........|...........|...........|...........|...........|...........|...........|...........|...........|...........|...........|...........|...........|...........|...........|...........|...........|...........|...........
|...........|...........|...........|...........|...........|...........|...........|...........|...........|...........|...........|...........|...........|...........|...........|...........|...........|...........|...........|...........|...........|...........|...........|...........|...........|...........|...........|...........
|...........|...........|...........|...........|...........|...........|...........|...........|...........|...........|...........|...........|...........|...........|C-527......|...........|G-710......|...........|D#610...SD1|A#611......|...........|...........|...........|...........|...........|...........|...........|...........
|...........|...........|...........|...........|...........|...........|...........|...........|...........|...........|...........|...........|...........|...........|...........|...........|...........|...........|...........|...........|...........|...........|...........|...........|...........|...........|...........|...........
|...........|...........|...........|...........|...........|...........|...........|...........|...........|...........|...........|...........|...........|...........|...........|...........|...........|...........|...........|...........|...........|...........|...........|...........|...........|...........|...........|...........
|...........|...........|...........|...........|...........|...........|...........|...........|...........|...........|G-404......|C-503......|G-525......|...........|C-528......|...........|G#710......|...........|C-610......|F-611......|...........|...........|...........|...........|...........|...........|...........|...........
|...........|...........|...........|...........|...........|...........|...........|...........|...........|...........|...........|...........|...........|...........|...........|...........|...........|...........|...........|...........|...........|...........|...........|...........|...........|...........|...........|...........
|...........|...........|...........|...........|...........|...........|...........|...........|...........|...........|...........|...........|...........|...........|...........|...........|...........|...........|...........|F#611...SD2|...........|...........|...........|...........|...........|...........|...........|...........
|...........|...........|...........|...........|...........|...........|...........|...........|...........|...........|...........|...........|...........|...........|...........|...........|...........|...........|...........|...........|...........|...........|...........|...........|...........|...........|...........|...........
|...........|...........|...........|...........|...........|...........|...........|...........|...........|...........|...........|...........|...........|...........|...........|...........|...........|...........|...........|...........|...........|...........|...........|...........|...........|...........|...........|...........
|...........|...........|...........|...........|...........|...........|...........|...........|...........|...........|C-403......|...........|...........|...........|...........|F-518......|G-710......|...........|A#510......|G-611...SD1|...........|...........|...........|...........|...........|...........|...........|...........
|...........|...........|...........|...........|...........|...........|...........|...........|...........|...........|...........|...........|...........|...........|...........|...........|...........|...........|...........|...........|...........|...........|...........|...........|...........|...........|...........|...........
|...........|...........|...........|...........|...........|...........|...........|...........|...........|...........|...........|...........|...........|...........|...........|...........|...........|...........|...........|...........|...........|...........|...........|...........|...........|...........|...........|...........
|...........|C-402......|...........|...........|...........|...........|...........|...........|...........|...........|...........|C-403......|...........|...........|C-527......|...........|...........|...........|C#610......|...........|...........|...........|...........|...........|...........|...........|...........|...........
|...........|...........|...........|...........|...........|...........|...........|...........|...........|...........|...........|...........|...........|...........|...........|...........|...........|...........|...........|...........|...........|...........|...........|...........|...........|...........|...........|...........
|...........|...........|...........|...........|...........|...........|...........|...........|...........|...........|...........|...........|...........|...........|...........|...........|...........|...........|...........|...........|...........|...........|...........|...........|...........|...........|...........|...........
|...........|...........|...........|...........|...........|...........|...........|...........|...........|...........|...........|...........|...........|...........|...........|...........|...........|...........|...........|...........|...........|...........|...........|...........|...........|...........|...........|...........
|...........|...........|...........|...........|...........|...........|...........|...........|...........|...........|...........|...........|...........|...........|...........|...........|...........|...........|...........|...........|...........|...........|...........|...........|...........|...........|...........|...........
|...........|...........|...........|...........|...........|...........|...........|...........|...........|...........|...........|...........|...........|...........|C-527......|...........|...........|...........|A#510......|...........|...........|...........|...........|...........|...........|...........|...........|...........
|...........|...........|...........|...........|...........|...........|...........|...........|...........|...........|...........|...........|...........|...........|...........|...........|...........|...........|...........|...........|...........|...........|...........|...........|...........|...........|...........|...........
|...........|...........|...........|...........|...........|...........|...........|...........|...........|...........|...........|...........|...........|...........|...........|...........|...........|...........|...........|...........|...........|...........|...........|...........|...........|...........|...........|...........
|...........|...........|A#406......|F-406......|C#406......|G-306......|...........|...........|...........|...........|C-503......|G-404......|C-526......|...........|C-528......|C-519......|G#710......|...........|........F10|...........|...........|...........|...........|...........|...........|...........|...........|...........
|...........|...........|...........|...........|...........|...........|...........|...........|...........|...........|...........|...........|...........|...........|...........|...........|...........|...........|...........|...........|...........|...........|...........|...........|...........|...........|...........|...........
|...........|...........|...........|...........|...........|...........|...........|...........|...........|...........|...........|...........|...........|...........|...........|...........|...........|...........|...........|...........|...........|...........|...........|...........|...........|...........|...........|...........
|...........|...........|...........|...........|...........|...........|...........|...........|...........|...........|...........|...........|...........|...........|...........|...........|^^^........|...........|...........|...........|...........|...........|...........|...........|...........|...........|...........|...........
|...........|...........|...........|...........|...........|...........|...........|...........|...........|...........|...........|...........|...........|...........|...........|...........|...........|...........|...........|...........|...........|...........|...........|...........|...........|...........|...........|...........
|...........|...........|...........|...........|...........|...........|...........|...........|...........|...........|...........|C-403......|...........|...........|...........|...........|...........|...........|A#510......|...........|...........|...........|...........|...........|...........|...........|...........|...........
|...........|...........|...........|...........|...........|...........|...........|...........|...........|...........|...........|...........|...........|...........|...........|...........|...........|...........|...........|...........|...........|...........|...........|...........|...........|...........|...........|...........
|...........|...........|...........|...........|...........|...........|...........|...........|...........|...........|...........|...........|...........|...........|...........|...........|...........|...........|...........|...........|...........|...........|...........|...........|...........|...........|...........|...........
|...........|A#302......|...........|...........|...........|...........|...........|...........|...........|...........|C-403......|...........|...........|...........|C-527......|F-518......|A#710......|...........|...........|...........|...........|...........|...........|...........|...........|...........|...........|...........
|...........|...........|...........|...........|...........|...........|...........|...........|...........|...........|...........|...........|...........|...........|...........|...........|...........|...........|^^^........|...........|...........|...........|...........|...........|...........|...........|...........|...........
|...........|...........|...........|...........|...........|...........|...........|...........|...........|...........|...........|...........|...........|...........|...........|...........|...........|...........|...........|...........|...........|...........|...........|...........|...........|...........|...........|...........
|...........|...........|...........|...........|...........|...........|...........|...........|...........|...........|...........|...........|...........|...........|...........|...........|^^^........|...........|...........|...........|...........|...........|...........|...........|...........|...........|...........|...........
|...........|...........|...........|...........|...........|...........|...........|...........|...........|...........|...........|...........|...........|...........|...........|...........|...........|...........|...........|...........|...........|...........|...........|...........|...........|...........|...........|...........
|...........|...........|D#506......|C-506......|G-406......|C#406......|G-306......|...........|...........|...........|...........|G-522......|...........|...........|C-527......|...........|...........|...........|G-610......|...........|...........|...........|...........|...........|...........|...........|...........|...........
|...........|...........|...........|...........|...........|...........|...........|...........|...........|...........|...........|...........|...........|...........|...........|...........|...........|...........|...........|...........|...........|...........|...........|...........|...........|...........|...........|...........
|...........|...........|...........|...........|...........|...........|...........|...........|...........|...........|...........|...........|...........|...........|...........|...........|...........|...........|...........|...........|...........|...........|...........|...........|...........|...........|...........|...........
|...........|...........|...........|...........|...........|...........|...........|...........|G-529......|D-529......|G-404......|C-503......|G-525......|...........|C-528......|C-519......|A#710......|...........|^^^........|...........|...........|...........|...........|...........|...........|...........|...........|...........
|...........|...........|...........|...........|...........|...........|...........|...........|...........|...........|...........|...........|...........|...........|...........|...........|...........|...........|...........|...........|...........|...........|...........|...........|...........|...........|...........|...........
|...........|...........|...........|...........|...........|...........|...........|...........|...........|...........|...........|...........|...........|...........|...........|...........|........F10|...........|...........|...........|...........|...........|...........|...........|...........|...........|...........|...........
|...........|...........|...........|...........|...........|...........|...........|...........|^^^........|^^^........|...........|...........|...........|...........|...........|...........|...........|...........|...........|...........|...........|...........|...........|...........|...........|...........|...........|...........
|...........|...........|...........|...........|...........|...........|...........|...........|...........|...........|...........|...........|...........|...........|...........|...........|...........|...........|...........|...........|...........|...........|...........|...........|...........|...........|...........|...........
|...........|...........|...........|...........|...........|...........|...........|...........|...........|...........|C-403......|C-522......|...........|...........|C-527......|F-518......|...........|...........|G-610......|...........|...........|...........|...........|...........|...........|...........|...........|...........
|...........|...........|...........|...........|...........|...........|...........|...........|...........|...........|...........|...........|...........|...........|...........|...........|...........|...........|...........|...........|...........|...........|...........|...........|...........|...........|...........|...........
|...........|...........|...........|...........|...........|...........|...........|...........|...........|...........|...........|...........|...........|...........|...........|...........|...........|...........|...........|...........|...........|...........|...........|...........|...........|...........|...........|...........
Rows: 64
|...........|A-302......|C-506......|G-406......|D-406......|E-406......|G-306......|...........|C-629......|G-529......|...........|C-403......|...........|C-520......|C-527......|C-519......|...........|C-711......|...........|...........|...........|...........|...........|...........|...........|...........|...........|...........
|...........|...........|...........|...........|...........|...........|...........|...........|...........|...........|...........|...........|...........|...........|...........|...........|...........|...........|...........|...........|...........|...........|...........|...........|...........|...........|...........|...........
|...........|...........|...........|...........|...........|...........|...........|...........|...........|...........|...........|...........|...........|...........|...........|...........|...........|...........|...........|...........|...........|...........|...........|...........|...........|...........|...........|...........
|...........|...........|...........|...........|...........|...........|...........|...........|...........|...........|...........|...........|...........|...........|...........|...........|...........|...........|...........|...........|...........|...........|...........|...........|...........|...........|...........|...........
|...........|...........|...........|...........|...........|...........|...........|...........|...........|...........|...........|...........|...........|...........|...........|...........|...........|...........|...........|...........|...........|...........|...........|...........|...........|...........|...........|...........
|...........|...........|...........|...........|...........|...........|...........|...........|........F10|........F10|...........|...........|...........|...........|C-527......|...........|...........|...........|C-610......|...........|...........|...........|...........|...........|...........|...........|...........|...........
|...........|...........|...........|...........|...........|...........|...........|...........|...........|...........|...........|...........|...........|...........|...........|...........|...........|...........|...........|...........|...........|...........|...........|...........|...........|...........|...........|...........
|...........|...........|...........|...........|...........|...........|...........|...........|...........|...........|...........|...........|...........|...........|...........|...........|...........|...........|^^^........|...........|...........|...........|...........|...........|...........|...........|...........|...........
|...........|...........|...........|...........|...........|...........|...........|...........|...........|...........|C-503......|G-404......|C-526......|...........|C-528......|...........|...........|...........|D-610......|...........|...........|...........|...........|...........|...........|...........|...........|...........
|...........|...........|...........|...........|...........|...........|...........|...........|...........|...........|...........|...........|...........|...........|...........|...........|...........|...........|...........|...........|...........|...........|...........|...........|...........|...........|...........|...........
|...........|...........|...........|...........|...........|...........|...........|...........|...........|...........|...........|...........|...........|...........|...........|...........|...........|...........|...........|...........|...........|...........|...........|...........|...........|...........|...........|...........
|...........|...........|...........|...........|...........|...........|...........|...........|...........|...........|...........|...........|...........|...........|...........|...........|...........|...........|^^^........|...........|...........|...........|...........|...........|...........|...........|...........|...........
|...........|...........|...........|...........|...........|...........|...........|...........|...........|...........|...........|...........|...........|...........|...........|...........|...........|...........|...........|...........|...........|...........|...........|...........|...........|...........|...........|...........
|...........|...........|...........|...........|...........|...........|...........|...........|D-629......|A-529......|...........|C-403......|...........|...........|...........|...........|...........|...........|C-610......|...........|...........|...........|...........|...........|...........|...........|...........|...........
|...........|...........|...........|...........|...........|...........|...........|...........|...........|...........|...........|...........|...........|...........|...........|...........|...........|...........|...........|...........|...........|...........|...........|...........|...........|...........|...........|...........
|...........|...........|...........|...........|...........|...........|...........|...........|...........|...........|...........|...........|...........|...........|...........|...........|...........|...........|^^^........|...........|...........|...........|...........|...........|...........|...........|...........|...........
|...........|E-302......|...........|...........|...........|...........|...........|...........|D-629......|A-529......|C-403......|...........|...........|...........|C-527......|F-518......|...........|...........|G-610......|...........|...........|...........|...........|...........|...........|...........|...........|...........
|...........|...........|...........|...........|...........|...........|...........|...........|...........|...........|...........|...........|...........|...........|...........|...........|...........|...........|...........|...........|...........|...........|...........|...........|...........|...........|...........|...........
|...........|...........|...........|...........|...........|...........|...........|...........|...........|...........|...........|...........|...........|...........|...........|...........|...........|...........|........F10|...........|...........|...........|...........|...........|...........|...........|...........|...........
|...........|...........|...........|...........|...........|...........|...........|...........|...........|...........|...........|...........|...........|...........|...........|...........|...........|...........|...........|...........|...........|...........|...........|...........|...........|...........|...........|...........
|...........|...........|...........|...........|...........|...........|...........|...........|...........|...........|...........|...........|...........|...........|...........|...........|...........|...........|...........|...........|...........|...........|...........|...........|...........|...........|...........|...........
|...........|...........|...........|...........|...........|...........|...........|...........|........E10|........E10|...........|...........|...........|...........|C-527......|...........|...........|...........|...........|...........|...........|...........|...........|...........|...........|...........|...........|...........
|...........|...........|...........|...........|...........|...........|...........|...........|...........|...........|...........|...........|...........|...........|...........|...........|...........|...........|^^^........|...........|...........|...........|...........|...........|...........|...........|...........|...........
|...........|...........|...........|...........|...........|...........|...........|...........|...........|...........|...........|...........|...........|...........|...........|...........|...........|...........|...........|...........|...........|...........|...........|...........|...........|...........|...........|...........
|...........|...........|...........|...........|...........|...........|...........|...........|...........|...........|G-404......|C-503......|G-525......|...........|C-528......|...........|...........|D-711......|G-610......|...........|...........|...........|...........|...........|...........|...........|...........|...........
|...........|...........|...........|...........|...........|...........|...........|...........|...........|...........|...........|...........|...........|...........|...........|...........|...........|...........|...........|...........|...........|...........|...........|...........|...........|...........|...........|...........
|...........|...........|...........|...........|...........|...........|...........|...........|...........|...........|...........|...........|...........|...........|...........|...........|...........|...........|........F10|...........|...........|...........|...........|...........|...........|...........|...........|...........
|...........|...........|...........|...........|...........|...........|...........|...........|...........|...........|...........|...........|...........|...........|...........|...........|...........|...........|...........|...........|...........|...........|...........|...........|...........|...........|...........|...........
|...........|...........|...........|...........|...........|...........|...........|...........|...........|...........|...........|...........|...........|...........|...........|...........|...........|^^^........|...........|...........|...........|...........|...........|...........|...........|...........|...........|...........
|...........|...........|...........|...........|...........|...........|...........|...........|C-629......|G-529......|C-403......|...........|...........|...........|...........|F-518......|...........|...........|^^^........|...........|...........|...........|...........|...........|...........|...........|...........|...........
|...........|...........|...........|...........|...........|...........|...........|...........|...........|...........|...........|...........|...........|...........|...........|...........|...........|...........|...........|...........|...........|...........|...........|...........|...........|...........|...........|...........
|...........|...........|...........|...........|...........|...........|...........|...........|...........|...........|...........|...........|...........|...........|...........|...........|...........|...........|...........|...........|...........|...........|...........|...........|...........|...........|...........|...........
|...........|D-302......|...........|...........|...........|...........|...........|...........|^^^........|^^^........|...........|C-403......|...........|...........|C-527......|...........|...........|E-711......|G#610......|F-511......|...........|...........|...........|...........|...........|...........|...........|...........
|...........|...........|...........|...........|...........|...........|...........|...........|...........|...........|...........|...........|...........|...........|...........|...........|...........|...........|...........|...........|...........|...........|...........|...........|...........|...........|...........|...........
|...........|...........|...........|...........|...........|...........|...........|...........|...........|...........|...........|...........|...........|...........|...........|...........|...........|...........|........E08|...........|...........|...........|...........|...........|...........|...........|...........|...........
|...........|...........|...........|...........|...........|...........|...........|...........|...........|...........|...........|...........|...........|...........|...........|...........|...........|...........|...........|...........|...........|...........|...........|...........|...........|...........|...........|...........
|...........|...........|...........|...........|...........|...........|...........|...........|...........|...........|...........|...........|...........|...........|...........|...........|...........|...........|...........|...........|...........|...........|...........|...........|...........|...........|...........|...........
|...........|...........|...........|...........|...........|...........|...........|...........|...........|...........|...........|...........|...........|...........|C-527......|...........|...........|...........|F-610...SD1|...........|...........|...........|...........|...........|...........|...........|...........|...........
|...........|...........|...........|...........|...........|...........|...........|...........|...........|...........|...........|...........|...........|...........|...........|...........|...........|...........|...........|...........|...........|...........|...........|...........|...........|...........|...........|...........
|...........|...........|...........|...........|...........|...........|...........|...........|...........|...........|...........|...........|...........|...........|...........|...........|...........|...........|...........|...........|...........|...........|...........|...........|...........|...........|...........|...........
|...........|...........|A-406......|E-406......|C-406......|F-306......|...........|...........|...........|...........|C-503......|G-404......|C-526......|...........|C-528......|C-519......|...........|...........|D-610......|...........|...........|...........|...........|...........|...........|...........|...........|...........
|...........|...........|...........|...........|...........|...........|...........|...........|...........|...........|...........|...........|...........|...........|...........|...........|...........|...........|...........|...........|...........|...........|...........|...........|...........|...........|...........|...........
|...........|...........|...........|...........|...........|...........|...........|...........|...........|...........|...........|...........|...........|...........|...........|...........|...........|...........|...........|...........|...........|...........|...........|...........|...........|...........|...........|...........
|...........|...........|...........|...........|...........|...........|...........|...........|...........|...........|...........|...........|...........|...........|...........|...........|...........|...........|...........|...........|...........|...........|...........|...........|...........|...........|...........|...........
|...........|...........|...........|...........|...........|...........|...........|...........|...........|...........|...........|...........|...........|...........|...........|...........|...........|...........|...........|...........|...........|...........|...........|...........|...........|...........|...........|...........
|...........|...........|...........|...........|...........|...........|...........|...........|...........|...........|...........|C-403......|...........|...........|...........|...........|...........|...........|........E10|...........|...........|...........|...........|...........|...........|...........|...........|...........
|...........|...........|...........|...........|...........|...........|...........|...........|...........|...........|...........|...........|...........|...........|...........|...........|...........|...........|...........|...........|...........|...........|...........|...........|...........|...........|...........|...........
|...........|...........|...........|...........|...........|...........|...........|...........|...........|...........|...........|...........|...........|...........|...........|...........|...........|...........|...........|...........|...........|...........|...........|...........|...........|...........|...........|...........
|...........|A-302......|...........|...........|...........|...........|...........|...........|...........|...........|C-403......|...........|...........|...........|C-527......|F-518......|...........|F-711......|F-610......|...........|...........|...........|...........|...........|...........|...........|...........|...........
|...........|...........|...........|...........|...........|...........|...........|...........|...........|...........|...........|...........|...........|...........|...........|...........|...........|...........|...........|...........|...........|...........|...........|...........|...........|...........|...........|...........
|...........|...........|...........|...........|...........|...........|...........|...........|...........|...........|...........|...........|...........|...........|...........|...........|...........|...........|...........|...........|...........|...........|...........|...........|...........|...........|...........|...........
|...........|...........|...........|...........|...........|...........|...........|...........|...........|...........|...........|...........|...........|...........|...........|...........|...........|...........|...........|...........|...........|...........|...........|...........|...........|...........|...........|...........
|...........|...........|...........|...........|...........|...........|...........|...........|...........|...........|...........|...........|...........|...........|...........|...........|...........|...........|...........|...........|...........|...........|...........|...........|...........|...........|...........|...........
|...........|...........|F-406......|C-406......|A-306......|E-306......|...........|...........|...........|...........|...........|...........|...........|...........|C-527......|...........|...........|...........|D-610......|...........|...........|...........|...........|...........|...........|...........|...........|...........
|...........|...........|...........|...........|...........|...........|...........|...........|...........|...........|...........|...........|...........|...........|...........|...........|...........|...........|...........|...........|...........|...........|...........|...........|...........|...........|...........|...........
|...........|...........|...........|...........|...........|...........|...........|...........|...........|...........|...........|...........|...........|...........|...........|...........|...........|...........|...........|...........|...........|...........|...........|...........|...........|...........|...........|...........
|...........|...........|...........|...........|...........|...........|...........|...........|...........|...........|G-404......|C-503......|G-525......|...........|C-528......|C-519......|...........|...........|A-510......|G-511......|...........|...........|...........|...........|...........|...........|...........|...........
|...........|...........|...........|...........|...........|...........|...........|...........|...........|...........|...........|...........|...........|...........|...........|...........|...........|...........|...........|...........|...........|...........|...........|...........|...........|...........|...........|...........
|...........|...........|...........|...........|...........|...........|...........|...........|...........|...........|...........|...........|...........|...........|...........|...........|...........|...........|...........|...........|...........|...........|...........|...........|...........|...........|...........|...........
|...........|...........|...........|...........|...........|...........|...........|...........|...........|...........|...........|...........|...........|...........|...........|...........|...........|...........|...........|^^^........|...........|...........|...........|...........|...........|...........|...........|...........
|...........|...........|...........|...........|...........|...........|...........|...........|...........|...........|...........|...........|...........|...........|...........|...........|...........|...........|...........|...........|...........|...........|...........|...........|...........|...........|...........|...........
|...........|...........|...........|...........|...........|...........|...........|...........|...........|...........|C-403......|...........|...........|...........|...........|...........|...........|G-711......|C-610......|...........|...........|...........|...........|...........|...........|...........|...........|...........
|...........|...........|...........|...........|...........|...........|...........|...........|...........|...........|...........|...........|...........|...........|...........|...........|...........|...........|...........|...........|...........|...........|...........|...........|...........|...........|...........|...........
|...........|...........|...........|...........|...........|...........|...........|...........|...........|...........|...........|...........|...........|...........|...........|...........|...........|...........|...........|...........|...........|...........|...........|...........|...........|...........|...........|...........
Rows: 64
|...........|G-302......|A-406......|F-406......|D-406......|A#306......|F-306......|...........|...........|...........|...........|C-403......|...........|...........|C-527......|C-519......|D-611......|...........|A#510......|A-511......|...........|...........|...........|...........|...........|...........|...........|...........
|...........|...........|...........|...........|...........|...........|...........|...........|...........|...........|...........|...........|...........|...........|...........|...........|...........|...........|...........|...........|...........|...........|...........|...........|...........|...........|...........|...........
|...........|...........|...........|...........|...........|...........|...........|...........|...........|...........|...........|...........|...........|...........|...........|...........|...........|...........|...........|...........|...........|...........|...........|...........|...........|...........|...........|...........
|...........|...........|...........|...........|...........|...........|...........|...........|...........|...........|...........|...........|...........|...........|...........|...........|...........|...........|...........|...........|...........|...........|...........|...........|...........|...........|...........|...........
|...........|...........|...........|...........|...........|...........|...........|...........|...........|...........|...........|...........|...........|...........|...........|...........|...........|...........|...........|...........|...........|...........|...........|...........|...........|...........|...........|...........
|...........|...........|...........|...........|...........|...........|...........|...........|...........|...........|...........|...........|...........|...........|C-527......|...........|...........|...........|C#510......|...........|...........|...........|...........|...........|...........|...........|...........|...........
|...........|...........|...........|...........|...........|...........|...........|...........|...........|...........|...........|...........|...........|...........|...........|...........|...........|...........|...........|...........|...........|...........|...........|...........|...........|...........|...........|...........
|...........|...........|...........|...........|...........|...........|...........|...........|...........|...........|...........|...........|...........|...........|...........|...........|...........|...........|...........|...........|...........|...........|...........|...........|...........|...........|...........|...........
|...........|...........|...........|...........|...........|...........|...........|...........|...........|...........|C-503......|G-404......|C-526......|...........|C-528......|...........|...........|...........|........F08|...........|...........|...........|...........|...........|...........|...........|...........|...........
|...........|...........|...........|...........|...........|...........|...........|...........|...........|...........|...........|...........|...........|...........|...........|...........|...........|...........|...........|...........|...........|...........|...........|...........|...........|...........|...........|...........
|...........|...........|...........|...........|...........|...........|...........|...........|...........|...........|...........|...........|...........|...........|...........|...........|...........|...........|...........|...........|...........|...........|...........|...........|...........|...........|...........|...........
|...........|...........|...........|...........|...........|...........|...........|...........|...........|...........|...........|...........|...........|...........|...........|...........|...........|...........|...........|...........|...........|...........|...........|...........|...........|...........|...........|...........
|...........|...........|...........|...........|...........|...........|...........|...........|...........|...........|...........|...........|...........|...........|...........|...........|...........|...........|...........|...........|...........|...........|...........|...........|...........|...........|...........|...........
|...........|...........|...........|...........|...........|...........|...........|...........|...........|...........|...........|C-403......|...........|...........|...........|...........|...........|...........|F-510......|...........|...........|...........|...........|...........|...........|...........|...........|...........
|...........|...........|...........|...........|...........|...........|...........|...........|...........|...........|...........|...........|...........|...........|...........|...........|...........|...........|...........|...........|...........|...........|...........|...........|...........|...........|...........|...........
|...........|...........|...........|...........|...........|...........|...........|...........|...........|...........|...........|...........|...........|...........|...........|...........|...........|...........|...........|...........|...........|...........|...........|...........|...........|...........|...........|...........
|...........|D-402......|...........|...........|...........|...........|...........|...........|...........|...........|C-403......|...........|...........|...........|C-527......|F-518......|...........|...........|A-510......|A#511......|...........|...........|...........|...........|...........|...........|...........|...........
|...........|...........|...........|...........|...........|...........|...........|...........|...........|...........|...........|...........|...........|...........|...........|...........|...........|...........|...........|...........|...........|...........|...........|...........|...........|...........|...........|...........
|...........|...........|...........|...........|...........|...........|...........|...........|...........|...........|...........|...........|...........|...........|...........|...........|...........|...........|...........|...........|...........|...........|...........|...........|...........|...........|...........|...........
|...........|...........|...........|...........|...........|...........|...........|...........|...........|...........|...........|...........|...........|...........|...........|...........|...........|...........|...........|...........|...........|...........|...........|...........|...........|...........|...........|...........
|...........|...........|...........|...........|...........|...........|...........|...........|...........|...........|...........|...........|...........|...........|...........|...........|...........|...........|...........|...........|...........|...........|...........|...........|...........|...........|...........|...........
|...........|...........|...........|...........|...........|...........|...........|...........|...........|...........|...........|...........|...........|...........|C-527......|...........|...........|...........|........E10|...........|...........|...........|...........|...........|...........|...........|...........|...........
|...........|...........|...........|...........|...........|...........|...........|...........|...........|...........|...........|...........|...........|...........|...........|...........|...........|...........|...........|...........|...........|...........|...........|...........|...........|...........|...........|...........
|...........|...........|...........|...........|...........|...........|...........|...........|...........|...........|...........|...........|...........|...........|...........|...........|...........|...........|...........|...........|...........|...........|...........|...........|...........|...........|...........|...........
|...........|...........|...........|...........|...........|...........|...........|...........|...........|...........|G-404......|C-503......|G-525......|...........|C-528......|...........|E-611......|...........|C-610......|...........|...........|...........|...........|...........|...........|...........|...........|...........
|...........|...........|...........|...........|...........|...........|...........|...........|...........|...........|...........|...........|...........|...........|...........|...........|...........|...........|...........|...........|...........|...........|...........|...........|...........|...........|...........|...........
|...........|...........|...........|...........|...........|...........|...........|...........|...........|...........|...........|...........|...........|...........|...........|...........|...........|...........|...........|...........|...........|...........|...........|...........|...........|...........|...........|...........
|...........|...........|...........|...........|...........|...........|...........|...........|...........|...........|...........|...........|...........|...........|...........|...........|...........|...........|...........|...........|...........|...........|...........|...........|...........|...........|...........|...........
|...........|...........|...........|...........|...........|...........|...........|...........|...........|...........|...........|...........|...........|...........|...........|...........|^^^........|...........|...........|...........|...........|...........|...........|...........|...........|...........|...........|...........
|...........|...........|...........|...........|...........|...........|...........|...........|...........|...........|C-403......|...........|...........|...........|...........|F-518......|...........|...........|B-510......|C-611......|...........|...........|...........|...........|...........|...........|...........|...........
|...........|...........|...........|...........|...........|...........|...........|...........|...........|...........|...........|...........|...........|...........|...........|...........|...........|...........|...........|...........|...........|...........|...........|...........|...........|...........|...........|...........
|...........|...........|...........|...........|...........|...........|...........|...........|...........|...........|...........|...........|...........|...........|...........|...........|...........|...........|...........|...........|...........|...........|...........|...........|...........|...........|...........|...........
|...........|C#402......|...........|...........|...........|...........|...........|...........|...........|...........|...........|C-403......|...........|...........|C-527......|...........|F-611......|...........|........E08|...........|...........|...........|...........|...........|...........|...........|...........|...........
|...........|...........|...........|...........|...........|...........|...........|...........|...........|...........|...........|...........|...........|...........|...........|...........|...........|...........|...........|...........|...........|...........|...........|...........|...........|...........|...........|...........
|...........|...........|...........|...........|...........|...........|...........|...........|...........|...........|...........|...........|...........|...........|...........|...........|...........|...........|...........|...........|...........|...........|...........|...........|...........|...........|...........|...........
|...........|...........|...........|...........|...........|...........|...........|...........|...........|...........|...........|...........|...........|...........|...........|...........|...........|...........|...........|...........|...........|...........|...........|...........|...........|...........|...........|...........
|...........|...........|...........|...........|...........|...........|...........|...........|...........|...........|...........|...........|...........|...........|...........|...........|...........|...........|...........|...........|...........|...........|...........|...........|...........|...........|...........|...........
|...........|...........|...........|...........|...........|...........|...........|...........|...........|...........|...........|...........|...........|...........|C-527......|...........|...........|...........|C-610......|...........|...........|...........|...........|...........|...........|...........|...........|...........
|...........|...........|...........|...........|...........|...........|...........|...........|...........|...........|...........|...........|...........|...........|...........|...........|...........|...........|...........|...........|...........|...........|...........|...........|...........|...........|...........|...........
|...........|...........|...........|...........|...........|...........|...........|...........|...........|...........|...........|...........|...........|...........|...........|...........|...........|...........|...........|...........|...........|...........|...........|...........|...........|...........|...........|...........
|...........|...........|G-406......|C#406......|A#306......|F-306......|...........|...........|...........|...........|C-503......|G-404......|C-526......|...........|C-528......|C-519......|...........|...........|........F08|...........|...........|...........|...........|...........|...........|...........|...........|...........
|...........|...........|...........|...........|...........|...........|...........|...........|...........|...........|...........|...........|...........|...........|...........|...........|...........|...........|...........|...........|...........|...........|...........|...........|...........|...........|...........|...........
|...........|...........|...........|...........|...........|...........|...........|...........|...........|...........|...........|...........|...........|...........|...........|...........|...........|...........|...........|...........|...........|...........|...........|...........|...........|...........|...........|...........
|...........|...........|...........|...........|...........|...........|...........|...........|...........|...........|...........|...........|...........|...........|...........|...........|...........|...........|...........|...........|...........|...........|...........|...........|...........|...........|...........|...........
|...........|...........|...........|...........|...........|...........|...........|...........|...........|...........|...........|...........|...........|...........|...........|...........|...........|...........|...........|...........|...........|...........|...........|...........|...........|...........|...........|...........
|...........|...........|...........|...........|...........|...........|...........|...........|...........|...........|...........|C-403......|...........|...........|...........|...........|...........|...........|F-610......|...........|...........|...........|...........|...........|...........|...........|...........|...........
|...........|...........|...........|...........|...........|...........|...........|...........|...........|...........|...........|...........|...........|...........|...........|...........|...........|...........|...........|...........|...........|...........|...........|...........|...........|...........|...........|...........
|...........|...........|...........|...........|...........|...........|...........|...........|...........|...........|...........|...........|...........|...........|...........|...........|...........|...........|...........|...........|...........|...........|...........|...........|...........|...........|...........|...........
|...........|A#302......|...........|...........|...........|...........|...........|...........|...........|...........|C-403......|...........|...........|...........|C-527......|F-518......|G-611......|...........|C-710......|...........|...........|...........|...........|...........|...........|...........|...........|...........
|...........|...........|...........|...........|...........|...........|...........|...........|...........|...........|...........|...........|...........|...........|...........|...........|...........|...........|...........|...........|...........|...........|...........|...........|...........|...........|...........|...........
|...........|...........|...........|...........|...........|...........|...........|...........|...........|...........|...........|...........|...........|...........|...........|...........|...........|...........|...........|...........|...........|...........|...........|...........|...........|...........|...........|...........
|...........|...........|...........|...........|...........|...........|...........|...........|...........|...........|...........|...........|...........|...........|...........|...........|...........|...........|...........|...........|...........|...........|...........|...........|...........|...........|...........|...........
|...........|...........|...........|...........|...........|...........|...........|...........|...........|...........|...........|...........|...........|...........|...........|...........|...........|...........|...........|...........|...........|...........|...........|...........|...........|...........|...........|...........
|...........|...........|A-406......|C#406......|F-406......|A#306......|...........|...........|...........|...........|...........|...........|...........|...........|C-527......|...........|...........|...........|........E10|...........|...........|...........|...........|...........|...........|...........|...........|...........
|...........|...........|...........|...........|...........|...........|...........|...........|...........|...........|...........|...........|...........|...........|...........|...........|...........|...........|...........|...........|...........|...........|...........|...........|...........|...........|...........|...........
|...........|...........|...........|...........|...........|...........|...........|...........|...........|...........|...........|...........|...........|...........|...........|...........|...........|...........|...........|...........|...........|...........|...........|...........|...........|...........|...........|...........
|...........|...........|...........|...........|...........|...........|...........|...........|...........|...........|G-404......|C-503......|G-525......|...........|C-528......|C-519......|...........|...........|C#710......|...........|...........|...........|...........|...........|...........|...........|...........|...........
|...........|...........|...........|...........|...........|...........|...........|...........|...........|...........|...........|...........|...........|...........|...........|...........|...........|...........|...........|...........|...........|...........|...........|...........|...........|...........|...........|...........
|...........|...........|...........|...........|...........|...........|...........|...........|...........|...........|...........|...........|...........|...........|...........|...........|...........|...........|...........|...........|...........|...........|...........|...........|...........|...........|...........|...........
|...........|...........|...........|...........|...........|...........|...........|...........|...........|...........|...........|...........|...........|...........|...........|...........|...........|...........|...........|...........|...........|...........|...........|...........|...........|...........|...........|...........
|...........|...........|...........|...........|...........|...........|...........|...........|...........|...........|...........|...........|...........|...........|...........|...........|...........|...........|...........|...........|...........|...........|...........|...........|...........|...........|...........|...........
|...........|...........|...........|...........|...........|...........|...........|...........|...........|...........|C-403......|...........|...........|...........|...........|...........|A-611......|...........|F-710......|...........|...........|...........|...........|...........|...........|...........|...........|...........
|...........|...........|...........|...........|...........|...........|...........|...........|...........|...........|...........|...........|...........|...........|...........|...........|...........|...........|...........|...........|...........|...........|...........|...........|...........|...........|...........|...........
|...........|...........|...........|...........|...........|...........|...........|...........|...........|...........|...........|...........|...........|...........|...........|...........|...........|...........|...........|...........|...........|...........|...........|...........|...........|...........|...........|...........
Rows: 64
|...........|A-302......|G-406......|C-406......|E-406......|G-306......|...........|...........|...........|...........|...........|C-403......|...........|...........|C-527......|C-519......|...........|...........|E-710......|...........|...........|...........|...........|...........|...........|...........|...........|...........
|...........|...........|...........|...........|...........|...........|...........|...........|...........|...........|...........|...........|...........|...........|...........|...........|...........|...........|...........|...........|...........|...........|...........|...........|...........|...........|...........|...........
|...........|...........|...........|...........|...........|...........|...........|...........|...........|...........|...........|...........|...........|...........|...........|...........|...........|...........|...........|...........|...........|...........|...........|...........|...........|...........|...........|...........
|...........|...........|...........|...........|...........|...........|...........|...........|...........|...........|...........|...........|...........|...........|...........|...........|...........|...........|...........|...........|...........|...........|...........|...........|...........|...........|...........|...........
|...........|...........|...........|...........|...........|...........|...........|...........|...........|...........|...........|...........|...........|...........|...........|...........|...........|...........|...........|...........|...........|...........|...........|...........|...........|...........|...........|...........
|...........|...........|...........|...........|...........|...........|...........|...........|...........|...........|...........|...........|...........|...........|C-527......|...........|...........|...........|D-710......|...........|...........|...........|...........|...........|...........|...........|...........|...........
|...........|...........|...........|...........|...........|...........|...........|...........|...........|...........|...........|...........|...........|...........|...........|...........|...........|...........|...........|...........|...........|...........|...........|...........|...........|...........|...........|...........
|...........|...........|...........|...........|...........|...........|...........|...........|...........|...........|...........|...........|...........|...........|...........|...........|...........|...........|...........|...........|...........|...........|...........|...........|...........|...........|...........|...........
|...........|...........|...........|...........|...........|...........|...........|...........|...........|...........|C-503......|G-404......|C-526......|...........|C-528......|...........|...........|G-711......|C-710......|...........|...........|...........|...........|...........|...........|...........|...........|...........
|...........|...........|...........|...........|...........|...........|...........|...........|...........|...........|...........|...........|...........|...........|...........|...........|...........|...........|...........|...........|...........|...........|...........|...........|...........|...........|...........|...........
|...........|...........|...........|...........|...........|...........|...........|...........|...........|...........|...........|...........|...........|...........|...........|...........|...........|...........|...........|...........|...........|...........|...........|...........|...........|...........|...........|...........
|...........|...........|...........|...........|...........|...........|...........|...........|...........|...........|...........|...........|...........|...........|...........|...........|...........|...........|...........|...........|...........|...........|...........|...........|...........|...........|...........|...........
|...........|...........|...........|...........|...........|...........|...........|...........|...........|...........|...........|...........|...........|...........|...........|...........|...........|...........|...........|...........|...........|...........|...........|...........|...........|...........|...........|...........
|...........|...........|...........|...........|...........|...........|...........|...........|...........|...........|...........|C-403......|...........|...........|...........|...........|...........|...........|A-610......|...........|...........|...........|...........|...........|...........|...........|...........|...........
|...........|...........|...........|...........|...........|...........|...........|...........|...........|...........|...........|...........|...........|...........|...........|...........|...........|...........|...........|...........|...........|...........|...........|...........|...........|...........|...........|...........
|...........|...........|...........|...........|...........|...........|...........|...........|...........|...........|...........|...........|...........|...........|...........|...........|...........|...........|...........|...........|...........|...........|...........|...........|...........|...........|...........|...........
|...........|E-302......|...........|...........|...........|...........|...........|...........|...........|...........|C-403......|...........|...........|...........|C-527......|F-518......|...........|...........|G-610......|...........|...........|...........|...........|...........|...........|...........|...........|...........
|...........|...........|...........|...........|...........|...........|...........|...........|...........|...........|...........|...........|...........|...........|...........|...........|...........|...........|...........|...........|...........|...........|...........|...........|...........|...........|...........|...........
|...........|...........|...........|...........|...........|...........|...........|...........|...........|...........|...........|...........|...........|...........|...........|...........|...........|...........|...........|...........|...........|...........|...........|...........|...........|...........|...........|...........
|...........|...........|...........|...........|...........|...........|...........|...........|...........|...........|...........|...........|...........|...........|...........|...........|...........|...........|...........|...........|...........|...........|...........|...........|...........|...........|...........|...........
|...........|...........|...........|...........|...........|...........|...........|...........|...........|...........|...........|...........|...........|...........|...........|...........|...........|...........|...........|...........|...........|...........|...........|...........|...........|...........|...........|...........
|...........|...........|...........|...........|...........|...........|...........|...........|...........|...........|...........|...........|...........|...........|C-527......|...........|...........|...........|F-610......|...........|...........|...........|...........|...........|...........|...........|...........|...........
|...........|...........|...........|...........|...........|...........|...........|...........|...........|...........|...........|...........|...........|...........|...........|...........|...........|...........|...........|...........|...........|...........|...........|...........|...........|...........|...........|...........
|...........|...........|...........|...........|...........|...........|...........|...........|...........|...........|...........|...........|...........|...........|...........|...........|...........|...........|...........|...........|...........|...........|...........|...........|...........|...........|...........|...........
|...........|...........|...........|...........|...........|...........|...........|...........|...........|...........|G-404......|C-503......|G-525......|...........|C-528......|...........|...........|A-711......|E-610......|...........|...........|...........|...........|...........|...........|...........|...........|...........
|...........|...........|...........|...........|...........|...........|...........|...........|...........|...........|...........|...........|...........|...........|...........|...........|...........|...........|...........|...........|...........|...........|...........|...........|...........|...........|...........|...........
|...........|...........|...........|...........|...........|...........|...........|...........|...........|...........|...........|...........|...........|...........|...........|...........|...........|...........|...........|...........|...........|...........|...........|...........|...........|...........|...........|...........
|...........|...........|...........|...........|...........|...........|...........|...........|...........|...........|...........|...........|...........|...........|...........|...........|...........|...........|...........|...........|...........|...........|...........|...........|...........|...........|...........|...........
|...........|...........|...........|...........|...........|...........|...........|...........|...........|...........|...........|...........|...........|...........|...........|...........|...........|^^^........|...........|...........|...........|...........|...........|...........|...........|...........|...........|...........
|...........|...........|...........|...........|...........|...........|...........|...........|...........|...........|C-403......|...........|...........|...........|...........|F-518......|...........|...........|D-610......|...........|...........|...........|...........|...........|...........|...........|...........|...........
|...........|...........|...........|...........|...........|...........|...........|...........|...........|...........|...........|...........|...........|...........|...........|...........|...........|...........|...........|...........|...........|...........|...........|...........|...........|...........|...........|...........
|...........|...........|...........|...........|...........|...........|...........|...........|...........|...........|...........|...........|...........|...........|...........|...........|...........|...........|...........|...........|...........|...........|...........|...........|...........|...........|...........|...........
|...........|D-302......|...........|...........|...........|...........|...........|...........|...........|...........|...........|C-403......|...........|...........|C-527......|...........|...........|A#711......|C-610......|D-611......|...........|...........|...........|...........|...........|...........|...........|...........
|...........|...........|...........|...........|...........|...........|...........|...........|...........|...........|...........|...........|...........|...........|...........|...........|...........|...........|...........|...........|...........|...........|...........|...........|...........|...........|...........|...........
|...........|...........|...........|...........|...........|...........|...........|...........|...........|...........|...........|...........|...........|...........|...........|...........|...........|...........|...........|...........|...........|...........|...........|...........|...........|...........|...........|...........
|...........|...........|...........|...........|...........|...........|...........|...........|...........|...........|...........|...........|...........|...........|...........|...........|...........|...........|...........|...........|...........|...........|...........|...........|...........|...........|...........|...........
|...........|...........|...........|...........|...........|...........|...........|...........|...........|...........|...........|...........|...........|...........|...........|...........|...........|...........|...........|...........|...........|...........|...........|...........|...........|...........|...........|...........
|...........|...........|...........|...........|...........|...........|...........|...........|...........|...........|...........|...........|...........|...........|C-527......|...........|...........|...........|A-510...E07|...........|...........|...........|...........|...........|...........|...........|...........|...........
|...........|...........|...........|...........|...........|...........|...........|...........|...........|...........|...........|...........|...........|...........|...........|...........|...........|...........|...........|...........|...........|...........|...........|...........|...........|...........|...........|...........
|...........|...........|...........|...........|...........|...........|...........|...........|...........|...........|...........|...........|...........|...........|...........|...........|...........|...........|...........|...........|...........|...........|...........|...........|...........|...........|...........|...........
|...........|...........|F-406......|A#406......|C-406......|F#306......|...........|...........|...........|...........|C-503......|G-404......|C-526......|...........|C-528......|C-519......|...........|...........|G-510......|...........|...........|...........|...........|...........|...........|...........|...........|...........
|...........|...........|...........|...........|...........|...........|...........|...........|...........|...........|...........|...........|...........|...........|...........|...........|...........|...........|...........|...........|...........|...........|...........|...........|...........|...........|...........|...........
|...........|...........|...........|...........|...........|...........|...........|...........|...........|...........|...........|...........|...........|...........|...........|...........|...........|...........|...........|...........|...........|...........|...........|...........|...........|...........|...........|...........
|...........|...........|...........|...........|...........|...........|...........|...........|...........|...........|...........|...........|...........|...........|...........|...........|...........|...........|...........|...........|...........|...........|...........|...........|...........|...........|...........|...........
|...........|...........|...........|...........|...........|...........|...........|...........|...........|...........|...........|...........|...........|...........|...........|...........|...........|...........|...........|...........|...........|...........|...........|...........|...........|...........|...........|...........
|...........|...........|...........|...........|...........|...........|...........|...........|...........|...........|...........|C-403......|...........|...........|...........|...........|...........|...........|F-510......|...........|...........|...........|...........|...........|...........|...........|...........|...........
|...........|...........|...........|...........|...........|...........|...........|...........|...........|...........|...........|...........|...........|...........|...........|...........|...........|...........|...........|...........|...........|...........|...........|...........|...........|...........|...........|...........
|...........|...........|...........|...........|...........|...........|...........|...........|...........|...........|...........|...........|...........|...........|...........|...........|...........|...........|...........|...........|...........|...........|...........|...........|...........|...........|...........|...........
|...........|A-302......|...........|...........|...........|...........|...........|...........|...........|...........|C-403......|...........|...........|...........|C-527......|F-518......|...........|C-811......|D#510......|...........|...........|...........|...........|...........|...........|...........|...........|...........
|...........|...........|...........|...........|...........|...........|...........|...........|...........|...........|...........|...........|...........|...........|...........|...........|...........|...........|...........|...........|...........|...........|...........|...........|...........|...........|...........|...........
|...........|...........|...........|...........|...........|...........|...........|...........|...........|...........|...........|...........|...........|...........|...........|...........|...........|...........|...........|...........|...........|...........|...........|...........|...........|...........|...........|...........
|...........|...........|...........|...........|...........|...........|...........|...........|...........|...........|...........|...........|...........|...........|...........|...........|...........|...........|...........|...........|...........|...........|...........|...........|...........|...........|...........|...........
|...........|...........|...........|...........|...........|...........|...........|...........|...........|...........|...........|...........|...........|...........|...........|...........|...........|...........|...........|...........|...........|...........|...........|...........|...........|...........|...........|...........
|...........|...........|C-506......|F-406......|D#406......|C-406......|F#306......|...........|...........|...........|...........|...........|...........|...........|C-527......|...........|...........|...........|C-510......|...........|...........|...........|...........|...........|...........|...........|...........|...........
|...........|...........|...........|...........|...........|...........|...........|...........|...........|...........|...........|...........|...........|...........|...........|...........|...........|...........|...........|...........|...........|...........|...........|...........|...........|...........|...........|...........
|...........|...........|...........|...........|...........|...........|...........|...........|...........|...........|...........|...........|...........|...........|...........|...........|...........|...........|...........|...........|...........|...........|...........|...........|...........|...........|...........|...........
|...........|...........|...........|...........|...........|...........|...........|...........|...........|...........|G-404......|C-503......|G-525......|...........|C-528......|C-519......|...........|...........|A#410......|D#611......|...........|...........|...........|...........|...........|...........|...........|...........
|...........|...........|...........|...........|...........|...........|...........|...........|...........|...........|...........|...........|...........|...........|...........|...........|...........|...........|...........|...........|...........|...........|...........|...........|...........|...........|...........|...........
|...........|...........|...........|...........|...........|...........|...........|...........|...........|...........|...........|...........|...........|...........|...........|...........|...........|...........|...........|...........|...........|...........|...........|...........|...........|...........|...........|...........
|...........|...........|...........|...........|...........|...........|...........|...........|...........|...........|...........|...........|...........|...........|...........|...........|...........|...........|...........|...........|...........|...........|...........|...........|...........|...........|...........|...........
|...........|...........|...........|...........|...........|...........|...........|...........|...........|...........|...........|...........|...........|...........|...........|...........|...........|...........|...........|^^^........|...........|...........|...........|...........|...........|...........|...........|...........
|...........|...........|...........|...........|...........|...........|...........|...........|...........|...........|C-403......|...........|...........|...........|...........|...........|...........|D-811......|G#410......|...........|...........|...........|...........|...........|...........|...........|...........|...........
|...........|...........|...........|...........|...........|...........|...........|...........|...........|...........|...........|...........|...........|...........|...........|...........|...........|...........|...........|...........|...........|...........|...........|...........|...........|...........|...........|...........
|...........|...........|...........|...........|...........|...........|...........|...........|...........|...........|...........|...........|...........|...........|...........|...........|...........|...........|...........|...........|...........|...........|...........|...........|...........|...........|...........|...........
Rows: 64
|...........|G-302......|A-406......|F-406......|D-406......|A#306......|F-306......|...........|...........|...........|...........|C-403......|...........|...........|C-527......|C-519......|...........|...........|A-410......|F-611......|...........|...........|...........|...........|...........|...........|...........|...........
|...........|...........|...........|...........|...........|...........|...........|...........|...........|...........|...........|...........|...........|...........|...........|...........|...........|...........|...........|...........|...........|...........|...........|...........|...........|...........|...........|...........
|...........|...........|...........|...........|...........|...........|...........|...........|...........|...........|...........|...........|...........|...........|...........|...........|...........|...........|...........|...........|...........|...........|...........|...........|...........|...........|...........|...........
|...........|...........|...........|...........|...........|...........|...........|...........|...........|...........|...........|...........|...........|...........|...........|...........|...........|...........|...........|...........|...........|...........|...........|...........|...........|...........|...........|...........
|...........|...........|...........|...........|...........|...........|...........|...........|...........|...........|...........|...........|...........|...........|...........|...........|...........|...........|...........|...........|...........|...........|...........|...........|...........|...........|...........|...........
|...........|...........|...........|...........|...........|...........|...........|...........|...........|...........|...........|...........|...........|...........|C-527......|...........|...........|...........|A#410......|...........|...........|...........|...........|...........|...........|...........|...........|...........
|...........|...........|...........|...........|...........|...........|...........|...........|...........|...........|...........|...........|...........|...........|...........|...........|...........|...........|...........|...........|...........|...........|...........|...........|...........|...........|...........|...........
|...........|...........|...........|...........|...........|...........|...........|...........|...........|...........|...........|...........|...........|...........|...........|...........|...........|...........|...........|...........|...........|...........|...........|...........|...........|...........|...........|...........
|...........|...........|...........|...........|...........|...........|...........|...........|...........|...........|C-503......|G-404......|C-526......|...........|C-528......|...........|A-511......|...........|D-510......|...........|...........|...........|...........|...........|...........|...........|...........|...........
|...........|...........|...........|...........|...........|...........|...........|...........|...........|...........|...........|...........|...........|...........|...........|...........|...........|...........|...........|...........|...........|...........|...........|...........|...........|...........|...........|...........
|...........|...........|...........|...........|...........|...........|...........|...........|...........|...........|...........|...........|...........|...........|...........|...........|...........|...........|...........|...........|...........|...........|...........|...........|...........|...........|...........|...........
|...........|...........|...........|...........|...........|...........|...........|...........|...........|...........|...........|...........|...........|...........|...........|...........|...........|...........|...........|...........|...........|...........|...........|...........|...........|...........|...........|...........
|...........|...........|...........|...........|...........|...........|...........|...........|...........|...........|...........|...........|...........|...........|...........|...........|...........|...........|...........|...........|...........|...........|...........|...........|...........|...........|...........|...........
|...........|...........|...........|...........|...........|...........|...........|...........|...........|...........|...........|C-403......|...........|...........|...........|...........|...........|...........|F-510......|...........|...........|...........|...........|...........|...........|...........|...........|...........
|...........|...........|...........|...........|...........|...........|...........|...........|...........|...........|...........|...........|...........|...........|...........|...........|...........|...........|...........|...........|...........|...........|...........|...........|...........|...........|...........|...........
|...........|...........|...........|...........|...........|...........|...........|...........|...........|...........|...........|...........|...........|...........|...........|...........|...........|...........|...........|...........|...........|...........|...........|...........|...........|...........|...........|...........
|...........|C-402......|D-406......|A-306......|F-306......|A#306......|...........|...........|...........|...........|C-403......|...........|...........|...........|C-527......|F-518......|...........|...........|A-510......|G-611......|...........|...........|...........|...........|...........|...........|...........|...........
|...........|...........|...........|...........|...........|...........|...........|...........|...........|...........|...........|...........|...........|...........|...........|...........|...........|...........|...........|...........|...........|...........|...........|...........|...........|...........|...........|...........
|...........|...........|...........|...........|...........|...........|...........|...........|...........|...........|...........|...........|...........|...........|...........|...........|...........|...........|...........|...........|...........|...........|...........|...........|...........|...........|...........|...........
|...........|...........|...........|...........|...........|...........|...........|...........|...........|...........|...........|...........|...........|...........|...........|...........|...........|...........|...........|...........|...........|...........|...........|...........|...........|...........|...........|...........
|...........|...........|...........|...........|...........|...........|...........|...........|...........|...........|...........|...........|...........|...........|...........|...........|...........|...........|...........|...........|...........|...........|...........|...........|...........|...........|...........|...........
|...........|...........|...........|...........|...........|...........|...........|...........|...........|...........|...........|...........|...........|...........|C-527......|...........|...........|...........|F#510......|...........|...........|...........|...........|...........|...........|...........|...........|...........
|...........|...........|...........|...........|...........|...........|...........|...........|...........|...........|...........|...........|...........|...........|...........|...........|...........|...........|...........|...........|...........|...........|...........|...........|...........|...........|...........|...........
|...........|...........|...........|...........|...........|...........|...........|...........|...........|...........|...........|...........|...........|...........|...........|...........|...........|...........|...........|...........|...........|...........|...........|...........|...........|...........|...........|...........
|...........|...........|...........|...........|...........|...........|...........|...........|...........|...........|G-404......|C-503......|G-525......|...........|C-528......|...........|A#511......|...........|G-510......|...........|...........|...........|...........|...........|...........|...........|...........|...........
|...........|...........|...........|...........|...........|...........|...........|...........|...........|...........|...........|...........|...........|...........|...........|...........|...........|...........|...........|...........|...........|...........|...........|...........|...........|...........|...........|...........
|...........|...........|...........|...........|...........|...........|...........|...........|...........|...........|...........|...........|...........|...........|...........|...........|...........|...........|...........|...........|...........|...........|...........|...........|...........|...........|...........|...........
|...........|...........|...........|...........|...........|...........|...........|...........|...........|...........|...........|...........|...........|...........|...........|...........|...........|...........|...........|...........|...........|...........|...........|...........|...........|...........|...........|...........
|...........|...........|...........|...........|...........|...........|...........|...........|...........|...........|...........|...........|...........|...........|...........|...........|^^^........|...........|...........|...........|...........|...........|...........|...........|...........|...........|...........|...........
|...........|...........|...........|...........|...........|...........|...........|...........|...........|...........|C-403......|...........|...........|...........|...........|F-518......|...........|...........|A#510......|A-611......|...........|...........|...........|...........|...........|...........|...........|...........
|...........|...........|...........|...........|...........|...........|...........|...........|...........|...........|...........|...........|...........|...........|...........|...........|...........|...........|...........|...........|...........|...........|...........|...........|...........|...........|...........|...........
|...........|...........|...........|...........|...........|...........|...........|...........|...........|...........|...........|...........|...........|...........|...........|...........|...........|...........|...........|...........|...........|...........|...........|...........|...........|...........|...........|...........
|...........|C-302......|F-406......|A-306......|A#306......|D-406......|...........|...........|...........|...........|...........|C-403......|...........|...........|C-527......|...........|C-611......|G-711......|D-610......|...........|...........|...........|...........|...........|...........|...........|...........|...........
|...........|...........|...........|...........|...........|...........|...........|...........|...........|...........|...........|...........|...........|...........|...........|...........|...........|...........|...........|...........|...........|...........|...........|...........|...........|...........|...........|...........
|...........|...........|...........|...........|...........|...........|...........|...........|...........|...........|...........|...........|...........|...........|...........|...........|...........|...........|...........|...........|...........|...........|...........|...........|...........|...........|...........|...........
|...........|...........|...........|...........|...........|...........|...........|...........|...........|...........|...........|...........|...........|...........|...........|...........|...........|...........|...........|...........|...........|...........|...........|...........|...........|...........|...........|...........
|...........|...........|...........|...........|...........|...........|...........|...........|...........|...........|...........|...........|...........|...........|...........|...........|...........|...........|...........|...........|...........|...........|...........|...........|...........|...........|...........|...........
|...........|...........|...........|...........|...........|...........|...........|...........|...........|...........|...........|...........|...........|...........|C-527......|...........|...........|...........|F-610......|...........|...........|...........|...........|...........|...........|...........|...........|...........
|...........|...........|...........|...........|...........|...........|...........|...........|...........|...........|...........|...........|...........|...........|...........|...........|...........|...........|...........|...........|...........|...........|...........|...........|...........|...........|...........|...........
|...........|...........|...........|...........|...........|...........|...........|...........|...........|...........|...........|...........|...........|...........|...........|...........|...........|...........|...........|...........|...........|...........|...........|...........|...........|...........|...........|...........
|...........|...........|...........|...........|...........|...........|...........|...........|...........|...........|C-503......|G-404......|C-526......|...........|C-528......|C-519......|...........|...........|A-610......|...........|...........|...........|...........|...........|...........|...........|...........|...........
|...........|...........|...........|...........|...........|...........|...........|...........|...........|...........|...........|...........|...........|...........|...........|...........|...........|...........|...........|...........|...........|...........|...........|...........|...........|...........|...........|...........
|...........|...........|...........|...........|...........|...........|...........|...........|...........|...........|...........|...........|...........|...........|...........|...........|...........|...........|...........|...........|...........|...........|...........|...........|...........|...........|...........|...........
|...........|...........|...........|...........|...........|...........|...........|...........|...........|...........|...........|...........|...........|...........|...........|...........|...........|...........|...........|...........|...........|...........|...........|...........|...........|...........|...........|...........
|...........|...........|...........|...........|...........|...........|...........|...........|...........|...........|...........|...........|...........|...........|...........|...........|...........|...........|...........|...........|...........|...........|...........|...........|...........|...........|...........|...........
|...........|...........|...........|...........|...........|...........|...........|...........|...........|...........|...........|C-403......|...........|...........|...........|C-519......|...........|...........|F#610......|...........|...........|...........|...........|...........|...........|...........|...........|...........
|...........|...........|...........|...........|...........|...........|...........|...........|...........|...........|...........|...........|...........|...........|...........|...........|...........|...........|...........|...........|...........|...........|...........|...........|...........|...........|...........|...........
|...........|...........|...........|...........|...........|...........|...........|...........|...........|...........|...........|...........|...........|...........|...........|...........|...........|...........|...........|...........|...........|...........|...........|...........|...........|...........|...........|...........
|...........|C-402......|A-406......|D-406......|A#306......|F-306......|...........|...........|...........|...........|C-403......|C-522......|...........|...........|C-527......|F-518......|D-611......|C-811......|G-610......|...........|...........|...........|...........|...........|...........|...........|...........|...........
|...........|...........|...........|...........|...........|...........|...........|...........|...........|...........|...........|...........|...........|...........|...........|...........|...........|...........|...........|...........|...........|...........|...........|...........|...........|...........|...........|...........
|...........|...........|...........|...........|...........|...........|...........|...........|...........|...........|...........|...........|...........|...........|...........|...........|...........|...........|...........|...........|...........|...........|...........|...........|...........|...........|...........|...........
|...........|...........|...........|...........|...........|...........|...........|...........|...........|...........|...........|...........|...........|...........|...........|...........|...........|...........|...........|...........|...........|...........|...........|...........|...........|...........|...........|...........
|...........|...........|...........|...........|...........|...........|...........|...........|...........|...........|...........|...........|...........|...........|...........|...........|...........|...........|...........|...........|...........|...........|...........|...........|...........|...........|...........|...........
|...........|...........|...........|...........|...........|...........|...........|...........|...........|...........|...........|...........|...........|...........|C-527......|...........|...........|...........|...........|...........|...........|...........|...........|...........|...........|...........|...........|...........
|...........|...........|...........|...........|...........|...........|...........|...........|...........|...........|...........|...........|...........|...........|...........|...........|...........|...........|...........|...........|...........|...........|...........|...........|...........|...........|...........|...........
|...........|...........|...........|...........|...........|...........|...........|...........|...........|...........|...........|...........|...........|...........|...........|...........|...........|...........|^^^........|...........|...........|...........|...........|...........|...........|...........|...........|...........
|...........|...........|...........|...........|...........|...........|...........|...........|A-429......|E-529......|G-404......|C-503......|G-525......|...........|C-528......|C-519......|...........|...........|...........|...........|...........|...........|...........|...........|...........|...........|...........|...........
|...........|...........|...........|...........|...........|...........|...........|...........|...........|...........|...........|...........|...........|...........|...........|...........|...........|...........|...........|...........|...........|...........|...........|...........|...........|...........|...........|...........
|...........|...........|...........|...........|...........|...........|...........|...........|...........|...........|...........|...........|...........|...........|...........|...........|...........|...........|...........|...........|...........|...........|...........|...........|...........|...........|...........|...........
|...........|...........|...........|...........|...........|...........|...........|...........|^^^........|^^^........|...........|...........|...........|...........|...........|...........|...........|...........|...........|...........|...........|...........|...........|...........|...........|...........|...........|...........
|...........|...........|...........|...........|...........|...........|...........|...........|...........|...........|...........|...........|...........|...........|...........|...........|...........|...........|...........|...........|...........|...........|...........|...........|...........|...........|...........|...........
|...........|...........|...........|...........|...........|...........|...........|...........|...........|...........|C-403......|...........|...........|...........|...........|C-519......|E-611......|A-711......|...........|...........|...........|...........|...........|...........|...........|...........|...........|...........
|...........|...........|...........|...........|...........|...........|...........|...........|...........|...........|...........|...........|...........|...........|...........|...........|...........|...........|...........|...........|...........|...........|...........|...........|...........|...........|...........|...........
|...........|...........|...........|...........|...........|...........|...........|...........|...........|...........|...........|...........|...........|...........|...........|...........|...........|...........|...........|...........|...........|...........|...........|...........|...........|...........|...........|...........
Rows: 64
|...........|D-302...M36|C#506......|A-406......|E-406......|B-306......|F#306......|...........|A-529......|E-529......|...........|C-403......|...........|C-520......|C-527......|C-519......|........M26|........M26|........M40|........M26|...........|...........|...........|...........|...........|...........|...........|...........
|...........|...........|...........|...........|...........|...........|...........|...........|...........|...........|...........|...........|...........|...........|...........|...........|...........|...........|...........|...........|...........|...........|...........|...........|...........|...........|...........|...........
|...........|...........|...........|...........|...........|...........|...........|...........|...........|...........|...........|...........|...........|...........|...........|...........|...........|...........|...........|...........|...........|...........|...........|...........|...........|...........|...........|...........
|...........|...........|...........|...........|...........|...........|...........|...........|...........|...........|...........|...........|...........|...........|...........|...........|...........|...........|...........|...........|...........|...........|...........|...........|...........|...........|...........|...........
|...........|...........|...........|...........|...........|...........|...........|...........|...........|...........|...........|...........|...........|...........|...........|...........|...........|...........|...........|...........|...........|...........|...........|...........|...........|...........|...........|...........
|...........|...........|...........|...........|...........|...........|...........|...........|........F10|........F10|...........|...........|...........|...........|C-527......|...........|...........|...........|...........|A-611......|...........|...........|...........|...........|...........|...........|...........|...........
|...........|...........|...........|...........|...........|...........|...........|...........|...........|...........|...........|...........|...........|...........|...........|...........|...........|...........|...........|...........|...........|...........|...........|...........|...........|...........|...........|...........
|...........|...........|...........|...........|...........|...........|...........|...........|...........|...........|...........|...........|...........|...........|...........|...........|...........|...........|...........|...........|...........|...........|...........|...........|...........|...........|...........|...........
|...........|...........|...........|...........|...........|...........|...........|...........|...........|...........|C-503......|G-404......|C-526......|...........|C-528......|...........|...........|...........|A-510......|B-611......|...........|...........|...........|...........|...........|...........|...........|...........
|...........|...........|...........|...........|...........|...........|...........|...........|...........|...........|...........|...........|...........|...........|...........|...........|...........|...........|...........|...........|...........|...........|...........|...........|...........|...........|...........|...........
|...........|...........|...........|...........|...........|...........|...........|...........|...........|...........|...........|...........|...........|...........|...........|...........|...........|...........|...........|...........|...........|...........|...........|...........|...........|...........|...........|...........
|...........|...........|...........|...........|...........|...........|...........|...........|...........|...........|...........|...........|...........|...........|...........|...........|...........|...........|...........|...........|...........|...........|...........|...........|...........|...........|...........|...........
|...........|...........|...........|...........|...........|...........|...........|...........|...........|...........|...........|...........|...........|...........|...........|...........|...........|...........|...........|...........|...........|...........|...........|...........|...........|...........|...........|...........
|...........|...........|...........|...........|...........|...........|...........|...........|B-529......|F#529......|...........|C-403......|...........|...........|...........|...........|...........|...........|...........|C#711......|...........|...........|...........|...........|...........|...........|...........|...........
|...........|...........|...........|...........|...........|...........|...........|...........|...........|...........|...........|...........|...........|...........|...........|...........|...........|...........|...........|...........|...........|...........|...........|...........|...........|...........|...........|...........
|...........|...........|...........|...........|...........|...........|...........|...........|...........|...........|...........|...........|...........|...........|...........|...........|...........|...........|...........|...........|...........|...........|...........|...........|...........|...........|...........|...........
|...........|C#402......|...........|...........|...........|...........|...........|...........|B-529......|F#529......|C-403......|...........|...........|...........|C-527......|F-518......|...........|...........|...........|...........|...........|...........|...........|...........|...........|...........|...........|...........
|...........|...........|...........|...........|...........|...........|...........|...........|...........|...........|...........|...........|...........|...........|...........|...........|...........|...........|...........|...........|...........|...........|...........|...........|...........|...........|...........|...........
|...........|...........|...........|...........|...........|...........|...........|...........|...........|...........|...........|...........|...........|...........|...........|...........|...........|...........|...........|...........|...........|...........|...........|...........|...........|...........|...........|...........
|...........|...........|...........|...........|...........|...........|...........|...........|...........|...........|...........|...........|...........|...........|...........|...........|...........|...........|...........|...........|...........|...........|...........|...........|...........|...........|...........|...........
|...........|...........|...........|...........|...........|...........|...........|...........|...........|...........|...........|...........|...........|...........|...........|...........|...........|...........|...........|...........|...........|...........|...........|...........|...........|...........|...........|...........
|...........|...........|...........|...........|...........|...........|...........|...........|........E10|........E10|...........|...........|...........|...........|C-527......|...........|...........|...........|...........|...........|...........|...........|...........|...........|...........|...........|...........|...........
|...........|...........|...........|...........|...........|...........|...........|...........|...........|...........|...........|...........|...........|...........|...........|...........|...........|...........|...........|...........|...........|...........|...........|...........|...........|...........|...........|...........
|...........|...........|...........|...........|...........|...........|...........|...........|...........|...........|...........|...........|...........|...........|...........|...........|...........|...........|...........|...........|...........|...........|...........|...........|...........|...........|...........|...........
|...........|...........|...........|...........|...........|...........|...........|...........|...........|...........|G-404......|C-503......|G-525......|...........|C-528......|...........|...........|...........|B-510......|E-711......|...........|...........|...........|...........|...........|...........|...........|...........
|...........|...........|...........|...........|...........|...........|...........|...........|...........|...........|...........|...........|...........|...........|...........|...........|...........|...........|...........|...........|...........|...........|...........|...........|...........|...........|...........|...........
|...........|...........|...........|...........|...........|...........|...........|...........|...........|...........|...........|...........|...........|...........|...........|...........|...........|...........|...........|...........|...........|...........|...........|...........|...........|...........|...........|...........
|...........|...........|...........|...........|...........|...........|...........|...........|...........|...........|...........|...........|...........|...........|...........|...........|...........|...........|...........|...........|...........|...........|...........|...........|...........|...........|...........|...........
|...........|...........|...........|...........|...........|...........|...........|...........|...........|...........|...........|...........|...........|...........|...........|...........|...........|...........|^^^........|^^^........|...........|...........|...........|...........|...........|...........|...........|...........
|...........|...........|...........|...........|...........|...........|...........|...........|A-529......|E-529......|C-403......|...........|...........|...........|...........|F-518......|...........|...........|...........|...........|...........|...........|...........|...........|...........|...........|...........|...........
|...........|...........|...........|...........|...........|...........|...........|...........|...........|...........|...........|...........|...........|...........|...........|...........|...........|...........|...........|...........|...........|...........|...........|...........|...........|...........|...........|...........
|...........|...........|...........|...........|...........|...........|...........|...........|...........|...........|...........|...........|...........|...........|...........|...........|...........|...........|...........|...........|...........|...........|...........|...........|...........|...........|...........|...........
|...........|B-302......|...........|...........|...........|...........|...........|...........|^^^........|^^^........|...........|C-403......|...........|...........|C-527......|...........|...........|...........|B-510......|E-611......|...........|...........|...........|...........|...........|...........|...........|...........
|...........|...........|...........|...........|...........|...........|...........|...........|...........|...........|...........|...........|...........|...........|...........|...........|...........|...........|...........|...........|...........|...........|...........|...........|...........|...........|...........|...........
|...........|...........|...........|...........|...........|...........|...........|...........|...........|...........|...........|...........|...........|...........|...........|...........|...........|...........|........F10|...........|...........|...........|...........|...........|...........|...........|...........|...........
|...........|...........|...........|...........|...........|...........|...........|...........|...........|...........|...........|...........|...........|...........|...........|...........|...........|...........|...........|...........|...........|...........|...........|...........|...........|...........|...........|...........
|...........|...........|...........|...........|...........|...........|...........|...........|...........|...........|...........|...........|...........|...........|...........|...........|...........|...........|...........|...........|...........|...........|...........|...........|...........|...........|...........|...........
|...........|...........|...........|...........|...........|...........|...........|...........|...........|...........|...........|...........|...........|...........|C-527......|...........|...........|...........|...........|F#611......|...........|...........|...........|...........|...........|...........|...........|...........
|...........|...........|...........|...........|...........|...........|...........|...........|...........|...........|...........|...........|...........|...........|...........|...........|...........|...........|...........|...........|...........|...........|...........|...........|...........|...........|...........|...........
|...........|...........|...........|...........|...........|...........|...........|...........|...........|...........|...........|...........|...........|...........|...........|...........|...........|...........|...........|...........|...........|...........|...........|...........|...........|...........|...........|...........
|...........|...........|B-406......|F#406......|D-406......|A-306......|F#306......|...........|...........|...........|C-503......|G-404......|C-526......|...........|C-528......|C-519......|...........|...........|...........|A-611......|...........|...........|...........|...........|...........|...........|...........|...........
|...........|...........|...........|...........|...........|...........|...........|...........|...........|...........|...........|...........|...........|...........|...........|...........|...........|...........|...........|...........|...........|...........|...........|...........|...........|...........|...........|...........
|...........|...........|...........|...........|...........|...........|...........|...........|...........|...........|...........|...........|...........|...........|...........|...........|...........|...........|...........|...........|...........|...........|...........|...........|...........|...........|...........|...........
|...........|...........|...........|...........|...........|...........|...........|...........|...........|...........|...........|...........|...........|...........|...........|...........|...........|...........|...........|...........|...........|...........|...........|...........|...........|...........|...........|...........
|...........|...........|...........|...........|...........|...........|...........|...........|...........|...........|...........|...........|...........|...........|...........|...........|...........|...........|...........|...........|...........|...........|...........|...........|...........|...........|...........|...........
|...........|...........|...........|...........|...........|...........|...........|...........|...........|...........|...........|C-403......|...........|...........|...........|...........|...........|...........|...........|F#611......|...........|...........|...........|...........|...........|...........|...........|...........
|...........|...........|...........|...........|...........|...........|...........|...........|...........|...........|...........|...........|...........|...........|...........|...........|...........|...........|...........|...........|...........|...........|...........|...........|...........|...........|...........|...........
|...........|...........|...........|...........|...........|...........|...........|...........|...........|...........|...........|...........|...........|...........|...........|...........|...........|...........|...........|...........|...........|...........|...........|...........|...........|...........|...........|...........
|...........|A-302......|...........|...........|...........|...........|...........|...........|...........|...........|C-403......|...........|...........|...........|C-527......|F-518......|...........|...........|D-610......|...........|...........|...........|...........|...........|...........|...........|...........|...........
|...........|...........|...........|...........|...........|...........|...........|...........|...........|...........|...........|...........|...........|...........|...........|...........|...........|...........|...........|...........|...........|...........|...........|...........|...........|...........|...........|...........
|...........|...........|...........|...........|...........|...........|...........|...........|...........|...........|...........|...........|...........|...........|...........|...........|...........|...........|...........|...........|...........|...........|...........|...........|...........|...........|...........|...........
|...........|...........|...........|...........|...........|...........|...........|...........|...........|...........|...........|...........|...........|...........|...........|...........|...........|...........|...........|...........|...........|...........|...........|...........|...........|...........|...........|...........
|...........|...........|...........|...........|...........|...........|...........|...........|...........|...........|...........|...........|...........|...........|...........|...........|...........|...........|...........|...........|...........|...........|...........|...........|...........|...........|...........|...........
|...........|...........|D-506......|A-406......|F#406......|C#406......|...........|...........|...........|...........|...........|...........|...........|...........|C-527......|...........|...........|...........|...........|...........|...........|...........|...........|...........|...........|...........|...........|...........
|...........|...........|...........|...........|...........|...........|...........|...........|...........|...........|...........|...........|...........|...........|...........|...........|...........|...........|...........|...........|...........|...........|...........|...........|...........|...........|...........|...........
|...........|...........|...........|...........|...........|...........|...........|...........|...........|...........|...........|...........|...........|...........|...........|...........|...........|...........|...........|...........|...........|...........|...........|...........|...........|...........|...........|...........
|...........|...........|...........|...........|...........|...........|...........|...........|...........|...........|G-404......|C-503......|G-525......|...........|C-528......|C-519......|...........|...........|...........|E-711......|...........|...........|...........|...........|...........|...........|...........|...........
|...........|...........|...........|...........|...........|...........|...........|...........|...........|...........|...........|...........|...........|...........|...........|...........|...........|...........|...........|...........|...........|...........|...........|...........|...........|...........|...........|...........
|...........|...........|...........|...........|...........|...........|...........|...........|...........|...........|...........|...........|...........|...........|...........|...........|...........|...........|...........|...........|...........|...........|...........|...........|...........|...........|...........|...........
|...........|...........|...........|...........|...........|...........|...........|...........|...........|...........|...........|...........|...........|...........|...........|...........|...........|...........|...........|^^^........|...........|...........|...........|...........|...........|...........|...........|...........
|...........|...........|...........|...........|...........|...........|...........|...........|...........|...........|...........|...........|...........|...........|...........|...........|...........|^^^........|...........|...........|...........|...........|...........|...........|...........|...........|...........|...........
|...........|...........|...........|...........|...........|...........|...........|...........|...........|...........|C-403......|...........|...........|...........|...........|...........|...........|...........|E-610......|...........|...........|...........|...........|...........|...........|...........|...........|...........
|...........|...........|...........|...........|...........|...........|...........|...........|...........|...........|...........|...........|...........|...........|...........|...........|...........|...........|...........|...........|...........|...........|...........|...........|...........|...........|...........|...........
|...........|...........|...........|...........|...........|...........|...........|...........|...........|...........|...........|...........|...........|...........|...........|...........|...........|...........|...........|...........|...........|...........|...........|...........|...........|...........|...........|...........
Rows: 64
|...........|G-302......|F#406......|A-306......|D-406......|E-306......|...........|...........|...........|...........|...........|C-403......|...........|...........|C-527......|C-519......|........M26|...........|...........|B-611...M24|...........|...........|...........|...........|...........|...........|...........|...........
|...........|...........|...........|...........|...........|...........|...........|...........|...........|...........|...........|...........|...........|...........|...........|...........|...........|...........|...........|...........|...........|...........|...........|...........|...........|...........|...........|...........
|...........|...........|...........|...........|...........|...........|...........|...........|...........|...........|...........|...........|...........|...........|...........|...........|...........|...........|...........|...........|...........|...........|...........|...........|...........|...........|...........|...........
|...........|...........|...........|...........|...........|...........|...........|...........|...........|...........|...........|...........|...........|...........|...........|...........|...........|...........|...........|...........|...........|...........|...........|...........|...........|...........|...........|...........
|...........|...........|...........|...........|...........|...........|...........|...........|...........|...........|...........|...........|...........|...........|...........|...........|...........|...........|...........|...........|...........|...........|...........|...........|...........|...........|...........|...........
|...........|...........|...........|...........|...........|...........|...........|...........|...........|...........|...........|...........|...........|...........|C-527......|...........|D-611......|...........|...........|A-611......|...........|...........|...........|...........|...........|...........|...........|...........
|...........|...........|...........|...........|...........|...........|...........|...........|...........|...........|...........|...........|...........|...........|...........|...........|...........|...........|...........|...........|...........|...........|...........|...........|...........|...........|...........|...........
|...........|...........|...........|...........|...........|...........|...........|...........|...........|...........|...........|...........|...........|...........|...........|...........|...........|...........|...........|...........|...........|...........|...........|...........|...........|...........|...........|...........
|...........|...........|...........|...........|...........|...........|...........|...........|...........|...........|C-503......|G-404......|C-526......|...........|C-528......|...........|E-611......|...........|...........|........F10|...........|...........|...........|...........|...........|...........|...........|...........
|...........|...........|...........|...........|...........|...........|...........|...........|...........|...........|...........|...........|...........|...........|...........|...........|...........|...........|...........|...........|...........|...........|...........|...........|...........|...........|...........|...........
|...........|...........|...........|...........|...........|...........|...........|...........|...........|...........|...........|...........|...........|...........|...........|...........|...........|...........|...........|...........|...........|...........|...........|...........|...........|...........|...........|...........
|...........|...........|...........|...........|...........|...........|...........|...........|...........|...........|...........|...........|...........|...........|...........|...........|...........|...........|...........|...........|...........|...........|...........|...........|...........|...........|...........|...........
|...........|...........|...........|...........|...........|...........|...........|...........|...........|...........|...........|...........|...........|...........|...........|...........|...........|...........|...........|...........|...........|...........|...........|...........|...........|...........|...........|...........
|...........|...........|...........|...........|...........|...........|...........|...........|...........|...........|...........|C-403......|...........|...........|...........|...........|F#611......|...........|...........|A-611......|...........|...........|...........|...........|...........|...........|...........|...........
|...........|...........|...........|...........|...........|...........|...........|...........|...........|...........|...........|...........|...........|...........|...........|...........|...........|...........|...........|...........|...........|...........|...........|...........|...........|...........|...........|...........
|...........|...........|...........|...........|...........|...........|...........|...........|...........|...........|...........|...........|...........|...........|...........|...........|...........|...........|...........|...........|...........|...........|...........|...........|...........|...........|...........|...........
|...........|F#302......|...........|...........|...........|...........|...........|...........|...........|...........|C-403......|...........|...........|...........|C-527......|F-518......|...........|...........|...........|...........|...........|...........|...........|...........|...........|...........|...........|...........
|...........|...........|...........|...........|...........|...........|...........|...........|...........|...........|...........|...........|...........|...........|...........|...........|...........|...........|...........|...........|...........|...........|...........|...........|...........|...........|...........|...........
|...........|...........|...........|...........|...........|...........|...........|...........|...........|...........|...........|...........|...........|...........|...........|...........|...........|...........|...........|...........|...........|...........|...........|...........|...........|...........|...........|...........
|...........|...........|...........|...........|...........|...........|...........|...........|...........|...........|...........|...........|...........|...........|...........|...........|...........|...........|...........|...........|...........|...........|...........|...........|...........|...........|...........|...........
|...........|...........|...........|...........|...........|...........|...........|...........|...........|...........|...........|...........|...........|...........|...........|...........|...........|...........|...........|...........|...........|...........|...........|...........|...........|...........|...........|...........
|...........|...........|...........|...........|...........|...........|...........|...........|...........|...........|...........|...........|...........|...........|C-527......|...........|...........|...........|...........|...........|...........|...........|...........|...........|...........|...........|...........|...........
|...........|...........|...........|...........|...........|...........|...........|...........|...........|...........|...........|...........|...........|...........|...........|...........|...........|...........|...........|...........|...........|...........|...........|...........|...........|...........|...........|...........
|...........|...........|...........|...........|...........|...........|...........|...........|...........|...........|...........|...........|...........|...........|...........|...........|...........|...........|...........|...........|...........|...........|...........|...........|...........|...........|...........|...........
|...........|...........|...........|...........|...........|...........|...........|...........|...........|...........|G-404......|C-503......|G-525......|...........|C-528......|...........|A-611......|...........|...........|E-711......|...........|...........|...........|...........|...........|...........|...........|...........
|...........|...........|...........|...........|...........|...........|...........|...........|...........|...........|...........|...........|...........|...........|...........|...........|...........|...........|...........|...........|...........|...........|...........|...........|...........|...........|...........|...........
|...........|...........|...........|...........|...........|...........|...........|...........|...........|...........|...........|...........|...........|...........|...........|...........|...........|...........|...........|........F10|...........|...........|...........|...........|...........|...........|...........|...........
|...........|...........|...........|...........|...........|...........|...........|...........|...........|...........|...........|...........|...........|...........|...........|...........|...........|...........|...........|...........|...........|...........|...........|...........|...........|...........|...........|...........
|...........|...........|...........|...........|...........|...........|...........|...........|...........|...........|...........|...........|...........|...........|...........|...........|^^^........|...........|...........|...........|...........|...........|...........|...........|...........|...........|...........|...........
|...........|...........|...........|...........|...........|...........|...........|...........|...........|...........|C-403......|...........|...........|...........|...........|F-518......|...........|...........|...........|........E10|...........|...........|...........|...........|...........|...........|...........|...........
|...........|...........|...........|...........|...........|...........|...........|...........|...........|...........|...........|...........|...........|...........|...........|...........|...........|...........|...........|...........|...........|...........|...........|...........|...........|...........|...........|...........
|...........|...........|...........|...........|...........|...........|...........|...........|...........|...........|...........|...........|...........|...........|...........|...........|...........|...........|...........|...........|...........|...........|...........|...........|...........|...........|...........|...........
|...........|E-302......|...........|...........|...........|...........|...........|...........|...........|...........|...........|C-403......|...........|...........|C-527......|...........|A-511......|...........|...........|...........|...........|...........|...........|...........|...........|...........|...........|...........
|...........|...........|...........|...........|...........|...........|...........|...........|...........|...........|...........|...........|...........|...........|...........|...........|...........|...........|...........|...........|...........|...........|...........|...........|...........|...........|...........|...........
|...........|...........|...........|...........|...........|...........|...........|...........|...........|...........|...........|...........|...........|...........|...........|...........|...........|...........|...........|...........|...........|...........|...........|...........|...........|...........|...........|...........
|...........|...........|...........|...........|...........|...........|...........|...........|...........|...........|...........|...........|...........|...........|...........|...........|...........|...........|...........|...........|...........|...........|...........|...........|...........|...........|...........|...........
|...........|...........|...........|...........|...........|...........|...........|...........|...........|...........|...........|...........|...........|...........|...........|...........|...........|...........|...........|...........|...........|...........|...........|...........|...........|...........|...........|...........
|...........|...........|...........|...........|...........|...........|...........|...........|...........|...........|...........|...........|...........|...........|C-527......|...........|B-511......|...........|...........|D-711......|...........|...........|...........|...........|...........|...........|...........|...........
|...........|...........|...........|...........|...........|...........|...........|...........|...........|...........|...........|...........|...........|...........|...........|...........|...........|...........|...........|...........|...........|...........|...........|...........|...........|...........|...........|...........
|...........|...........|...........|...........|...........|...........|...........|...........|...........|...........|...........|...........|...........|...........|...........|...........|...........|...........|...........|...........|...........|...........|...........|...........|...........|...........|...........|...........
|...........|...........|E-406......|B-306......|G-306......|D-306......|...........|...........|...........|...........|C-503......|G-404......|C-526......|...........|C-528......|C-519......|D-611......|...........|...........|B-611......|...........|...........|...........|...........|...........|...........|...........|...........
|...........|...........|...........|...........|...........|...........|...........|...........|...........|...........|...........|...........|...........|...........|...........|...........|...........|...........|...........|...........|...........|...........|...........|...........|...........|...........|...........|...........
|...........|...........|...........|...........|...........|...........|...........|...........|...........|...........|...........|...........|...........|...........|...........|...........|...........|...........|...........|...........|...........|...........|...........|...........|...........|...........|...........|...........
|...........|...........|...........|...........|...........|...........|...........|...........|...........|...........|...........|...........|...........|...........|...........|...........|...........|...........|...........|...........|...........|...........|...........|...........|...........|...........|...........|...........
|...........|...........|...........|...........|...........|...........|...........|...........|...........|...........|...........|...........|...........|...........|...........|...........|...........|...........|...........|...........|...........|...........|...........|...........|...........|...........|...........|...........
|...........|...........|...........|...........|...........|...........|...........|...........|...........|...........|...........|C-403......|...........|...........|...........|...........|B-511......|...........|...........|A-611......|...........|...........|...........|...........|...........|...........|...........|...........
|...........|...........|...........|...........|...........|...........|...........|...........|...........|...........|...........|...........|...........|...........|...........|...........|...........|...........|...........|...........|...........|...........|...........|...........|...........|...........|...........|...........
|...........|...........|...........|...........|...........|...........|...........|...........|...........|...........|...........|...........|...........|...........|...........|...........|...........|...........|...........|...........|...........|...........|...........|...........|...........|...........|...........|...........
|...........|D-302......|...........|...........|...........|...........|...........|...........|...........|...........|C-403......|...........|...........|...........|C-527......|F-518......|...........|...........|...........|...........|...........|...........|...........|...........|...........|...........|...........|...........
|...........|...........|...........|...........|...........|...........|...........|...........|...........|...........|...........|...........|...........|...........|...........|...........|...........|...........|...........|...........|...........|...........|...........|...........|...........|...........|...........|...........
|...........|...........|...........|...........|...........|...........|...........|...........|...........|...........|...........|...........|...........|...........|...........|...........|...........|...........|...........|...........|...........|...........|...........|...........|...........|...........|...........|...........
|...........|...........|...........|...........|...........|...........|...........|...........|...........|...........|...........|...........|...........|...........|...........|...........|...........|...........|...........|...........|...........|...........|...........|...........|...........|...........|...........|...........
|...........|...........|...........|...........|...........|...........|...........|...........|...........|...........|...........|...........|...........|...........|...........|...........|...........|...........|...........|...........|...........|...........|...........|...........|...........|...........|...........|...........
|...........|...........|G-406......|E-406......|C-406......|A-306......|F-306......|...........|...........|...........|...........|...........|...........|...........|C-527......|...........|...........|...........|...........|...........|...........|...........|...........|...........|...........|...........|...........|...........
|...........|...........|...........|...........|...........|...........|...........|...........|...........|...........|...........|...........|...........|...........|...........|...........|...........|...........|...........|...........|...........|...........|...........|...........|...........|...........|...........|...........
|...........|...........|...........|...........|...........|...........|...........|...........|...........|...........|...........|...........|...........|...........|...........|...........|...........|...........|...........|...........|...........|...........|...........|...........|...........|...........|...........|...........
|...........|...........|...........|...........|...........|...........|...........|...........|G-529......|G-429......|G-404......|C-503......|G-525......|...........|C-528......|C-519......|A-611......|...........|...........|B-611......|...........|...........|...........|...........|...........|...........|...........|...........
|...........|...........|...........|...........|...........|...........|...........|...........|...........|...........|...........|...........|...........|...........|...........|...........|...........|...........|...........|...........|...........|...........|...........|...........|...........|...........|...........|...........
|...........|...........|...........|...........|...........|...........|...........|...........|...........|...........|...........|...........|...........|...........|...........|...........|...........|...........|...........|...........|...........|...........|...........|...........|...........|...........|...........|...........
|...........|...........|...........|...........|...........|...........|...........|...........|...........|...........|...........|...........|...........|...........|...........|...........|^^^........|...........|...........|...........|...........|...........|...........|...........|...........|...........|...........|...........
|...........|...........|...........|...........|...........|...........|...........|...........|^^^........|^^^........|...........|...........|...........|...........|...........|...........|...........|...........|...........|^^^........|...........|...........|...........|...........|...........|...........|...........|...........
|...........|...........|...........|...........|...........|...........|...........|...........|...........|...........|C-403......|...........|...........|...........|...........|...........|...........|...........|...........|...........|...........|...........|...........|...........|...........|...........|...........|...........
|...........|...........|...........|...........|...........|...........|...........|...........|...........|...........|...........|...........|...........|...........|...........|...........|...........|...........|...........|...........|...........|...........|...........|...........|...........|...........|...........|...........
|...........|...........|...........|...........|...........|...........|...........|...........|...........|...........|...........|...........|...........|...........|...........|...........|...........|...........|...........|...........|...........|...........|...........|...........|...........|...........|...........|...........
Rows: 64
|...........|C-302......|B-406......|G-406......|D-406......|A-306......|E-306......|...........|...........|...........|...........|C-403......|...........|...........|C-527......|C-519......|E-611...M24|...........|........M40|........M20|...........|...........|...........|...........|...........|...........|...........|...........
|...........|...........|...........|...........|...........|...........|...........|...........|...........|...........|...........|...........|...........|...........|...........|...........|...........|...........|...........|...........|...........|...........|...........|...........|...........|...........|...........|...........
|...........|...........|...........|...........|...........|...........|...........|...........|...........|...........|...........|...........|...........|...........|...........|...........|...........|...........|...........|...........|...........|...........|...........|...........|...........|...........|...........|...........
|...........|...........|...........|...........|...........|...........|...........|...........|...........|...........|...........|...........|...........|...........|...........|...........|...........|...........|...........|...........|...........|...........|...........|...........|...........|...........|...........|...........
|...........|...........|...........|...........|...........|...........|...........|...........|...........|...........|...........|...........|...........|...........|...........|...........|...........|...........|...........|...........|...........|...........|...........|...........|...........|...........|...........|...........
|...........|...........|...........|...........|...........|...........|...........|...........|...........|...........|...........|...........|...........|...........|C-527......|...........|D-611......|...........|...........|G-611......|...........|...........|...........|...........|...........|...........|...........|...........
|...........|...........|...........|...........|...........|...........|...........|...........|...........|...........|...........|...........|...........|...........|...........|...........|...........|...........|...........|...........|...........|...........|...........|...........|...........|...........|...........|...........
|...........|...........|...........|...........|...........|...........|...........|...........|...........|...........|...........|...........|...........|...........|...........|...........|...........|...........|...........|...........|...........|...........|...........|...........|...........|...........|...........|...........
|...........|...........|...........|...........|...........|...........|...........|...........|...........|...........|C-503......|G-404......|C-526......|...........|C-528......|...........|........F10|...........|G-510......|A-611......|...........|...........|...........|...........|...........|...........|...........|...........
|...........|...........|...........|...........|...........|...........|...........|...........|...........|...........|...........|...........|...........|...........|...........|...........|...........|...........|...........|...........|...........|...........|...........|...........|...........|...........|...........|...........
|...........|...........|...........|...........|...........|...........|...........|...........|...........|...........|...........|...........|...........|...........|...........|...........|...........|...........|...........|...........|...........|...........|...........|...........|...........|...........|...........|...........
|...........|...........|...........|...........|...........|...........|...........|...........|...........|...........|...........|...........|...........|...........|...........|...........|...........|...........|...........|...........|...........|...........|...........|...........|...........|...........|...........|...........
|...........|...........|...........|...........|...........|...........|...........|...........|...........|...........|...........|...........|...........|...........|...........|...........|...........|...........|...........|...........|...........|...........|...........|...........|...........|...........|...........|...........
|...........|...........|...........|...........|...........|...........|...........|...........|...........|...........|...........|C-403......|...........|...........|...........|...........|D-611......|...........|...........|B-611......|...........|...........|...........|...........|...........|...........|...........|...........
|...........|...........|...........|...........|...........|...........|...........|...........|...........|...........|...........|...........|...........|...........|...........|...........|...........|...........|...........|...........|...........|...........|...........|...........|...........|...........|...........|...........
|...........|...........|...........|...........|...........|...........|...........|...........|...........|...........|...........|...........|...........|...........|...........|...........|...........|...........|...........|...........|...........|...........|...........|...........|...........|...........|...........|...........
|...........|B-302......|...........|...........|...........|...........|...........|...........|...........|...........|C-403......|...........|...........|...........|C-527......|F-518......|...........|...........|...........|...........|...........|...........|...........|...........|...........|...........|...........|...........
|...........|...........|...........|...........|...........|...........|...........|...........|...........|...........|...........|...........|...........|...........|...........|...........|...........|...........|...........|...........|...........|...........|...........|...........|...........|...........|...........|...........
|...........|...........|...........|...........|...........|...........|...........|...........|...........|...........|...........|...........|...........|...........|...........|...........|...........|...........|...........|...........|...........|...........|...........|...........|...........|...........|...........|...........
|...........|...........|...........|...........|...........|...........|...........|...........|...........|...........|...........|...........|...........|...........|...........|...........|...........|...........|...........|...........|...........|...........|...........|...........|...........|...........|...........|...........
|...........|...........|...........|...........|...........|...........|...........|...........|...........|...........|...........|...........|...........|...........|...........|...........|...........|...........|...........|...........|...........|...........|...........|...........|...........|...........|...........|...........
|...........|...........|...........|...........|...........|...........|...........|...........|...........|...........|...........|...........|...........|...........|C-527......|...........|...........|...........|...........|...........|...........|...........|...........|...........|...........|...........|...........|...........
|...........|...........|...........|...........|...........|...........|...........|...........|...........|...........|...........|...........|...........|...........|...........|...........|...........|...........|...........|...........|...........|...........|...........|...........|...........|...........|...........|...........
|...........|...........|...........|...........|...........|...........|...........|...........|...........|...........|...........|...........|...........|...........|...........|...........|...........|...........|...........|...........|...........|...........|...........|...........|...........|...........|...........|...........
|...........|...........|...........|...........|...........|...........|...........|...........|...........|...........|G-404......|C-503......|G-525......|...........|C-528......|...........|A-611......|...........|A-510......|D-711......|...........|...........|...........|...........|...........|...........|...........|...........
|...........|...........|...........|...........|...........|...........|...........|...........|...........|...........|...........|...........|...........|...........|...........|...........|...........|...........|...........|...........|...........|...........|...........|...........|...........|...........|...........|...........
|...........|...........|...........|...........|...........|...........|...........|...........|...........|...........|...........|...........|...........|...........|...........|...........|........F10|...........|...........|...........|...........|...........|...........|...........|...........|...........|...........|...........
|...........|...........|...........|...........|...........|...........|...........|...........|...........|...........|...........|...........|...........|...........|...........|...........|...........|...........|...........|...........|...........|...........|...........|...........|...........|...........|...........|...........
|...........|...........|...........|...........|...........|...........|...........|...........|...........|...........|...........|...........|...........|...........|...........|...........|...........|...........|^^^........|^^^........|...........|...........|...........|...........|...........|...........|...........|...........
|...........|...........|...........|...........|...........|...........|...........|...........|...........|...........|C-403......|...........|...........|...........|...........|F-518......|........E10|...........|...........|...........|...........|...........|...........|...........|...........|...........|...........|...........
|...........|...........|...........|...........|...........|...........|...........|...........|...........|...........|...........|...........|...........|...........|...........|...........|...........|...........|...........|...........|...........|...........|...........|...........|...........|...........|...........|...........
|...........|...........|...........|...........|...........|...........|...........|...........|...........|...........|...........|...........|...........|...........|...........|...........|...........|...........|...........|...........|...........|...........|...........|...........|...........|...........|...........|...........
|...........|A-302......|...........|...........|...........|...........|...........|...........|...........|...........|...........|C-403......|...........|...........|C-527......|...........|...........|...........|A-510......|D-611......|...........|...........|...........|...........|...........|...........|...........|...........
|...........|...........|...........|...........|...........|...........|...........|...........|...........|...........|...........|...........|...........|...........|...........|...........|...........|...........|...........|...........|...........|...........|...........|...........|...........|...........|...........|...........
|...........|...........|...........|...........|...........|...........|...........|...........|...........|...........|...........|...........|...........|...........|...........|...........|...........|...........|........F10|...........|...........|...........|...........|...........|...........|...........|...........|...........
|...........|...........|...........|...........|...........|...........|...........|...........|...........|...........|...........|...........|...........|...........|...........|...........|...........|...........|...........|...........|...........|...........|...........|...........|...........|...........|...........|...........
|...........|...........|...........|...........|...........|...........|...........|...........|...........|...........|...........|...........|...........|...........|...........|...........|...........|...........|...........|...........|...........|...........|...........|...........|...........|...........|...........|...........
|...........|...........|...........|...........|...........|...........|...........|...........|...........|...........|...........|...........|...........|...........|C-527......|...........|G-611......|...........|...........|E-611......|...........|...........|...........|...........|...........|...........|...........|...........
|...........|...........|...........|...........|...........|...........|...........|...........|...........|...........|...........|...........|...........|...........|...........|...........|...........|...........|...........|...........|...........|...........|...........|...........|...........|...........|...........|...........
|...........|...........|...........|...........|...........|...........|...........|...........|...........|...........|...........|...........|...........|...........|...........|...........|...........|...........|...........|...........|...........|...........|...........|...........|...........|...........|...........|...........
|...........|...........|A-406......|E-406......|C-406......|G-306......|E-306......|...........|...........|...........|C-503......|G-404......|C-526......|...........|C-528......|C-519......|E-611......|...........|...........|G-611......|...........|...........|...........|...........|...........|...........|...........|...........
|...........|...........|...........|...........|...........|...........|...........|...........|...........|...........|...........|...........|...........|...........|...........|...........|...........|...........|...........|...........|...........|...........|...........|...........|...........|...........|...........|...........
|...........|...........|...........|...........|...........|...........|...........|...........|...........|...........|...........|...........|...........|...........|...........|...........|...........|...........|...........|...........|...........|...........|...........|...........|...........|...........|...........|...........
|...........|...........|...........|...........|...........|...........|...........|...........|...........|...........|...........|...........|...........|...........|...........|...........|...........|...........|...........|...........|...........|...........|...........|...........|...........|...........|...........|...........
|...........|...........|...........|...........|...........|...........|...........|...........|...........|...........|...........|...........|...........|...........|...........|...........|...........|...........|...........|...........|...........|...........|...........|...........|...........|...........|...........|...........
|...........|...........|...........|...........|...........|...........|...........|...........|...........|...........|...........|C-403......|...........|...........|...........|...........|D-611......|...........|...........|E-611......|...........|...........|...........|...........|...........|...........|...........|...........
|...........|...........|...........|...........|...........|...........|...........|...........|...........|...........|...........|...........|...........|...........|...........|...........|...........|...........|...........|...........|...........|...........|...........|...........|...........|...........|...........|...........
|...........|...........|...........|...........|...........|...........|...........|...........|...........|...........|...........|...........|...........|...........|...........|...........|...........|...........|...........|...........|...........|...........|...........|...........|...........|...........|...........|...........
|...........|G-302......|...........|...........|...........|...........|...........|...........|...........|...........|C-403......|...........|...........|...........|C-527......|F-518......|...........|G-410......|C-610......|...........|...........|...........|...........|...........|...........|...........|...........|...........
|...........|...........|...........|...........|...........|...........|...........|...........|...........|...........|...........|...........|...........|...........|...........|...........|...........|...........|...........|...........|...........|...........|...........|...........|...........|...........|...........|...........
|...........|...........|...........|...........|...........|...........|...........|...........|...........|...........|...........|...........|...........|...........|...........|...........|...........|...........|...........|...........|...........|...........|...........|...........|...........|...........|...........|...........
|...........|...........|...........|...........|...........|...........|...........|...........|...........|...........|...........|...........|...........|...........|...........|...........|...........|...........|...........|...........|...........|...........|...........|...........|...........|...........|...........|...........
|...........|...........|...........|...........|...........|...........|...........|...........|...........|...........|...........|...........|...........|...........|...........|...........|...........|^^^........|...........|...........|...........|...........|...........|...........|...........|...........|...........|...........
|...........|...........|C-506......|G-406......|E-406......|B-306......|...........|...........|...........|...........|...........|...........|...........|...........|C-527......|...........|...........|A-410......|...........|...........|...........|...........|...........|...........|...........|...........|...........|...........
|...........|...........|...........|...........|...........|...........|...........|...........|...........|...........|...........|...........|...........|...........|...........|...........|...........|...........|...........|...........|...........|...........|...........|...........|...........|...........|...........|...........
|...........|...........|...........|...........|...........|...........|...........|...........|...........|...........|...........|...........|...........|...........|...........|...........|...........|^^^........|...........|...........|...........|...........|...........|...........|...........|...........|...........|...........
|...........|...........|...........|...........|...........|...........|...........|...........|...........|...........|G-404......|C-503......|G-525......|...........|C-528......|C-519......|E-611......|C-510......|...........|D-711......|...........|...........|...........|...........|...........|...........|...........|...........
|...........|...........|...........|...........|...........|...........|...........|...........|...........|...........|...........|...........|...........|...........|...........|...........|...........|...........|...........|...........|...........|...........|...........|...........|...........|...........|...........|...........
|...........|...........|...........|...........|...........|...........|...........|...........|...........|...........|...........|...........|...........|...........|...........|...........|...........|...........|...........|...........|...........|...........|...........|...........|...........|...........|...........|...........
|...........|...........|...........|...........|...........|...........|...........|...........|...........|...........|...........|...........|...........|...........|...........|...........|...........|^^^........|...........|^^^........|...........|...........|...........|...........|...........|...........|...........|...........
|...........|...........|...........|...........|...........|...........|...........|...........|...........|...........|...........|...........|...........|...........|...........|...........|^^^........|...........|...........|...........|...........|...........|...........|...........|...........|...........|...........|...........
|...........|...........|...........|...........|...........|...........|...........|...........|...........|...........|C-403......|...........|...........|...........|...........|...........|...........|A-410......|D-610......|...........|...........|...........|...........|...........|...........|...........|...........|...........
|...........|...........|...........|...........|...........|...........|...........|...........|...........|...........|...........|...........|...........|...........|...........|...........|...........|...........|...........|...........|...........|...........|...........|...........|...........|...........|...........|...........
|...........|...........|...........|...........|...........|...........|...........|...........|...........|...........|...........|...........|...........|...........|...........|...........|...........|...........|...........|...........|...........|...........|...........|...........|...........|...........|...........|...........
Rows: 64
|...........|F-302......|E-406......|G-306......|C-406......|D-306......|...........|...........|...........|...........|...........|C-403......|...........|...........|C-527......|C-519......|........M26|...........|...........|A-611...M24|...........|...........|...........|...........|...........|...........|...........|...........
|...........|...........|...........|...........|...........|...........|...........|...........|...........|...........|...........|...........|...........|...........|...........|...........|...........|...........|...........|...........|...........|...........|...........|...........|...........|...........|...........|...........
|...........|...........|...........|...........|...........|...........|...........|...........|...........|...........|...........|...........|...........|...........|...........|...........|...........|...........|...........|...........|...........|...........|...........|...........|...........|...........|...........|...........
|...........|...........|...........|...........|...........|...........|...........|...........|...........|...........|...........|...........|...........|...........|...........|...........|...........|...........|...........|...........|...........|...........|...........|...........|...........|...........|...........|...........
|...........|...........|...........|...........|...........|...........|...........|...........|...........|...........|...........|...........|...........|...........|...........|...........|...........|...........|...........|...........|...........|...........|...........|...........|...........|...........|...........|...........
|...........|...........|...........|...........|...........|...........|...........|...........|...........|...........|...........|...........|...........|...........|C-527......|...........|C-611......|...........|...........|G-611......|...........|...........|...........|...........|...........|...........|...........|...........
|...........|...........|...........|...........|...........|...........|...........|...........|...........|...........|...........|...........|...........|...........|...........|...........|...........|...........|...........|...........|...........|...........|...........|...........|...........|...........|...........|...........
|...........|...........|...........|...........|...........|...........|...........|...........|...........|...........|...........|...........|...........|...........|...........|...........|...........|...........|...........|...........|...........|...........|...........|...........|...........|...........|...........|...........
|...........|...........|...........|...........|...........|...........|...........|...........|...........|...........|C-503......|G-404......|C-526......|...........|C-528......|...........|D-611......|...........|...........|........F10|...........|...........|...........|...........|...........|...........|...........|...........
|...........|...........|...........|...........|...........|...........|...........|...........|...........|...........|...........|...........|...........|...........|...........|...........|...........|...........|...........|...........|...........|...........|...........|...........|...........|...........|...........|...........
|...........|...........|...........|...........|...........|...........|...........|...........|...........|...........|...........|...........|...........|...........|...........|...........|...........|...........|...........|...........|...........|...........|...........|...........|...........|...........|...........|...........
|...........|...........|...........|...........|...........|...........|...........|...........|...........|...........|...........|...........|...........|...........|...........|...........|...........|...........|...........|...........|...........|...........|...........|...........|...........|...........|...........|...........
|...........|...........|...........|...........|...........|...........|...........|...........|...........|...........|...........|...........|...........|...........|...........|...........|...........|...........|...........|...........|...........|...........|...........|...........|...........|...........|...........|...........
|...........|...........|...........|...........|...........|...........|...........|...........|...........|...........|...........|C-403......|...........|...........|...........|...........|E-611......|...........|...........|G-611......|...........|...........|...........|...........|...........|...........|...........|...........
|...........|...........|...........|...........|...........|...........|...........|...........|...........|...........|...........|...........|...........|...........|...........|...........|...........|...........|...........|...........|...........|...........|...........|...........|...........|...........|...........|...........
|...........|...........|...........|...........|...........|...........|...........|...........|...........|...........|...........|...........|...........|...........|...........|...........|...........|...........|...........|...........|...........|...........|...........|...........|...........|...........|...........|...........
|...........|E-302......|...........|...........|...........|...........|...........|...........|...........|...........|C-403......|...........|...........|...........|C-527......|F-518......|...........|...........|...........|...........|D-510...M26|...........|...........|...........|...........|...........|...........|...........
|...........|...........|...........|...........|...........|...........|...........|...........|...........|...........|...........|...........|...........|...........|...........|...........|...........|...........|...........|...........|...........|...........|...........|...........|...........|...........|...........|...........
|...........|...........|...........|...........|...........|...........|...........|...........|...........|...........|...........|...........|...........|...........|...........|...........|...........|...........|...........|...........|...........|...........|...........|...........|...........|...........|...........|...........
|...........|...........|...........|...........|...........|...........|...........|...........|...........|...........|...........|...........|...........|...........|...........|...........|...........|...........|...........|...........|^^^........|...........|...........|...........|...........|...........|...........|...........
|...........|...........|...........|...........|...........|...........|...........|...........|...........|...........|...........|...........|...........|...........|...........|...........|...........|...........|...........|...........|...........|...........|...........|...........|...........|...........|...........|...........
|...........|...........|...........|...........|...........|...........|...........|...........|...........|...........|...........|...........|...........|...........|C-527......|...........|...........|...........|...........|...........|E-510......|...........|...........|...........|...........|...........|...........|...........
|...........|...........|...........|...........|...........|...........|...........|...........|...........|...........|...........|...........|...........|...........|...........|...........|...........|...........|...........|...........|...........|...........|...........|...........|...........|...........|...........|...........
|...........|...........|...........|...........|...........|...........|...........|...........|...........|...........|...........|...........|...........|...........|...........|...........|...........|...........|...........|...........|^^^........|...........|...........|...........|...........|...........|...........|...........
|...........|...........|...........|...........|...........|...........|...........|...........|...........|...........|G-404......|C-503......|G-525......|...........|C-528......|...........|G-611......|...........|...........|D-711......|G-510......|...........|...........|...........|...........|...........|...........|...........
|...........|...........|...........|...........|...........|...........|...........|...........|...........|...........|...........|...........|...........|...........|...........|...........|...........|...........|...........|...........|...........|...........|...........|...........|...........|...........|...........|...........
|...........|...........|...........|...........|...........|...........|...........|...........|...........|...........|...........|...........|...........|...........|...........|...........|...........|...........|...........|........F10|...........|...........|...........|...........|...........|...........|...........|...........
|...........|...........|...........|...........|...........|...........|...........|...........|...........|...........|...........|...........|...........|...........|...........|...........|...........|...........|...........|...........|^^^........|...........|...........|...........|...........|...........|...........|...........
|...........|...........|...........|...........|...........|...........|...........|...........|...........|...........|...........|...........|...........|...........|...........|...........|^^^........|...........|...........|...........|...........|...........|...........|...........|...........|...........|...........|...........
|...........|...........|...........|...........|...........|...........|...........|...........|...........|...........|C-403......|...........|...........|...........|...........|F-518......|...........|...........|...........|........E10|E-510......|...........|...........|...........|...........|...........|...........|...........
|...........|...........|...........|...........|...........|...........|...........|...........|...........|...........|...........|...........|...........|...........|...........|...........|...........|...........|...........|...........|...........|...........|...........|...........|...........|...........|...........|...........
|...........|...........|...........|...........|...........|...........|...........|...........|...........|...........|...........|...........|...........|...........|...........|...........|...........|...........|...........|...........|...........|...........|...........|...........|...........|...........|...........|...........
|...........|D-302......|...........|...........|...........|...........|...........|...........|...........|...........|...........|C-403......|...........|...........|C-527......|...........|G-511......|...........|G-510......|...........|...........|...........|...........|...........|...........|...........|...........|...........
|...........|...........|...........|...........|...........|...........|...........|...........|...........|...........|...........|...........|...........|...........|...........|...........|...........|...........|...........|...........|...........|...........|...........|...........|...........|...........|...........|...........
|...........|...........|...........|...........|...........|...........|...........|...........|...........|...........|...........|...........|...........|...........|...........|...........|...........|...........|...........|...........|...........|...........|...........|...........|...........|...........|...........|...........
|...........|...........|...........|...........|...........|...........|...........|...........|...........|...........|...........|...........|...........|...........|...........|...........|...........|...........|...........|...........|...........|...........|...........|...........|...........|...........|...........|...........
|...........|...........|...........|...........|...........|...........|...........|...........|...........|...........|...........|...........|...........|...........|...........|...........|...........|...........|...........|...........|...........|...........|...........|...........|...........|...........|...........|...........
|...........|...........|...........|...........|...........|...........|...........|...........|...........|...........|...........|...........|...........|...........|C-527......|...........|A-511......|...........|...........|C-711......|...........|...........|...........|...........|...........|...........|...........|...........
|...........|...........|...........|...........|...........|...........|...........|...........|...........|...........|...........|...........|...........|...........|...........|...........|...........|...........|...........|...........|...........|...........|...........|...........|...........|...........|...........|...........
|...........|...........|...........|...........|...........|...........|...........|...........|...........|...........|...........|...........|...........|...........|...........|...........|...........|...........|...........|...........|...........|...........|...........|...........|...........|...........|...........|...........
|...........|...........|D-406......|A-306......|F-306......|C-306......|...........|...........|...........|...........|C-503......|G-404......|C-526......|...........|C-528......|C-519......|C-611......|...........|...........|A-611......|...........|...........|...........|...........|...........|...........|...........|...........
|...........|...........|...........|...........|...........|...........|...........|...........|...........|...........|...........|...........|...........|...........|...........|...........|...........|...........|...........|...........|...........|...........|...........|...........|...........|...........|...........|...........
|...........|...........|...........|...........|...........|...........|...........|...........|...........|...........|...........|...........|...........|...........|...........|...........|...........|...........|...........|...........|...........|...........|...........|...........|...........|...........|...........|...........
|...........|...........|...........|...........|...........|...........|...........|...........|...........|...........|...........|...........|...........|...........|...........|...........|...........|...........|...........|...........|...........|...........|...........|...........|...........|...........|...........|...........
|...........|...........|...........|...........|...........|...........|...........|...........|...........|...........|...........|...........|...........|...........|...........|...........|...........|...........|...........|...........|...........|...........|...........|...........|...........|...........|...........|...........
|...........|...........|...........|...........|...........|...........|...........|...........|...........|...........|...........|C-403......|...........|...........|...........|...........|A-511......|...........|...........|G-611......|...........|...........|...........|...........|...........|...........|...........|...........
|...........|...........|...........|...........|...........|...........|...........|...........|...........|...........|...........|...........|...........|...........|...........|...........|...........|...........|...........|...........|...........|...........|...........|...........|...........|...........|...........|...........
|...........|...........|...........|...........|...........|...........|...........|...........|...........|...........|...........|...........|...........|...........|...........|...........|...........|...........|...........|...........|...........|...........|...........|...........|...........|...........|...........|...........
|...........|C-302......|...........|...........|...........|...........|...........|...........|...........|...........|C-403......|...........|...........|...........|C-527......|F-518......|...........|F-511...M3A|C-610......|...........|...........|...........|...........|...........|...........|...........|...........|...........
|...........|...........|...........|...........|...........|...........|...........|...........|...........|...........|...........|...........|...........|...........|...........|...........|...........|...........|...........|...........|...........|...........|...........|...........|...........|...........|...........|...........
|...........|...........|...........|...........|...........|...........|...........|...........|...........|...........|...........|...........|...........|...........|...........|...........|...........|...........|...........|...........|...........|...........|...........|...........|...........|...........|...........|...........
|...........|...........|...........|...........|...........|...........|...........|...........|...........|...........|...........|...........|...........|...........|...........|...........|...........|...........|...........|...........|...........|...........|...........|...........|...........|...........|...........|...........
|...........|...........|...........|...........|...........|...........|...........|...........|...........|...........|...........|...........|...........|...........|...........|...........|...........|^^^........|...........|...........|...........|...........|...........|...........|...........|...........|...........|...........
|...........|...........|F-406......|D-406......|A#306......|G-306......|D#306......|...........|...........|...........|...........|...........|...........|...........|C-527......|...........|...........|G-511......|...........|...........|...........|...........|...........|...........|...........|...........|...........|...........
|...........|...........|...........|...........|...........|...........|...........|...........|...........|...........|...........|...........|...........|...........|...........|...........|...........|...........|...........|...........|...........|...........|...........|...........|...........|...........|...........|...........
|...........|...........|...........|...........|...........|...........|...........|...........|...........|...........|...........|...........|...........|...........|...........|...........|...........|^^^........|...........|...........|...........|...........|...........|...........|...........|...........|...........|...........
|...........|...........|...........|...........|...........|...........|...........|...........|C-629......|G-529......|G-404......|C-503......|G-525......|...........|C-528......|C-519......|G-611......|A-511......|...........|A-611......|...........|...........|...........|...........|...........|...........|...........|...........
|...........|...........|...........|...........|...........|...........|...........|...........|...........|...........|...........|...........|...........|...........|...........|...........|...........|...........|...........|...........|...........|...........|...........|...........|...........|...........|...........|...........
|...........|...........|...........|...........|...........|...........|...........|...........|...........|...........|...........|...........|...........|...........|...........|...........|...........|...........|...........|...........|...........|...........|...........|...........|...........|...........|...........|...........
|...........|...........|...........|...........|...........|...........|...........|...........|^^^........|^^^........|...........|...........|...........|...........|...........|...........|^^^........|^^^........|...........|...........|...........|...........|...........|...........|...........|...........|...........|...........
|...........|...........|...........|...........|...........|...........|...........|...........|...........|...........|...........|...........|...........|...........|...........|...........|...........|...........|...........|^^^........|...........|...........|...........|...........|...........|...........|...........|...........
|...........|...........|...........|...........|...........|...........|...........|...........|...........|...........|C-403......|...........|...........|...........|...........|...........|...........|F-511......|A-510......|...........|...........|...........|...........|...........|...........|...........|...........|...........
|...........|...........|...........|...........|...........|...........|...........|...........|...........|...........|...........|...........|...........|...........|...........|...........|...........|...........|...........|...........|...........|...........|...........|...........|...........|...........|...........|...........
|...........|...........|...........|...........|...........|...........|...........|...........|...........|...........|...........|...........|...........|...........|...........|...........|...........|...........|...........|...........|...........|...........|...........|...........|...........|...........|...........|...........
Rows: 64
|...........|A#202......|A-406......|F-406......|C-406......|G-306......|D-306......|...........|F-529......|C-529......|...........|C-403......|...........|...........|C-527......|C-519......|........M34|...........|...........|........M2C|...........|...........|...........|...........|...........|...........|...........|...........
|...........|...........|...........|...........|...........|...........|...........|...........|...........|...........|...........|...........|...........|...........|...........|...........|...........|...........|...........|...........|...........|...........|...........|...........|...........|...........|...........|...........
|...........|...........|...........|...........|...........|...........|...........|...........|...........|...........|...........|...........|...........|...........|...........|...........|...........|...........|...........|...........|...........|...........|...........|...........|...........|...........|...........|...........
|...........|...........|...........|...........|...........|...........|...........|...........|...........|...........|...........|...........|...........|...........|...........|...........|...........|...........|...........|...........|...........|...........|...........|...........|...........|...........|...........|...........
|...........|...........|...........|...........|...........|...........|...........|...........|...........|...........|...........|...........|...........|...........|...........|...........|...........|...........|...........|...........|...........|...........|...........|...........|...........|...........|...........|...........
|...........|...........|...........|...........|...........|...........|...........|...........|........F10|........F10|...........|...........|...........|...........|C-527......|...........|...........|...........|...........|...........|...........|...........|...........|...........|...........|...........|...........|...........
|...........|...........|...........|...........|...........|...........|...........|...........|...........|...........|...........|...........|...........|...........|...........|...........|...........|...........|...........|...........|...........|...........|...........|...........|...........|...........|...........|...........
|...........|...........|...........|...........|...........|...........|...........|...........|...........|...........|...........|...........|...........|...........|...........|...........|...........|...........|...........|...........|...........|...........|...........|...........|...........|...........|...........|...........
|...........|...........|...........|...........|...........|...........|...........|...........|...........|...........|C-503......|G-404......|C-526......|...........|C-528......|...........|...........|G-511......|...........|D-611......|...........|...........|...........|...........|...........|...........|...........|...........
|...........|...........|...........|...........|...........|...........|...........|...........|...........|...........|...........|...........|...........|...........|...........|...........|...........|...........|...........|...........|...........|...........|...........|...........|...........|...........|...........|...........
|...........|...........|...........|...........|...........|...........|...........|...........|...........|...........|...........|...........|...........|...........|...........|...........|...........|...........|...........|...........|...........|...........|...........|...........|...........|...........|...........|...........
|...........|...........|...........|...........|...........|...........|...........|...........|...........|...........|...........|...........|...........|...........|...........|...........|...........|...........|...........|...........|...........|...........|...........|...........|...........|...........|...........|...........
|...........|...........|...........|...........|...........|...........|...........|...........|...........|...........|...........|...........|...........|...........|...........|...........|...........|^^^........|...........|^^^........|...........|...........|...........|...........|...........|...........|...........|...........
|...........|...........|...........|...........|...........|...........|...........|...........|G-529......|D-529......|...........|C-403......|...........|...........|...........|...........|...........|...........|...........|...........|...........|...........|...........|...........|...........|...........|...........|...........
|...........|...........|...........|...........|...........|...........|...........|...........|...........|...........|...........|...........|...........|...........|...........|...........|...........|...........|...........|...........|...........|...........|...........|...........|...........|...........|...........|...........
|...........|...........|...........|...........|...........|...........|...........|...........|...........|...........|...........|...........|...........|...........|...........|...........|...........|...........|...........|...........|...........|...........|...........|...........|...........|...........|...........|...........
|...........|A-302......|...........|...........|...........|...........|...........|...........|G-529......|D-529......|C-403......|...........|...........|...........|C-527......|F-518......|...........|...........|...........|C-611......|...........|...........|...........|...........|...........|...........|...........|...........
|...........|...........|...........|...........|...........|...........|...........|...........|...........|...........|...........|...........|...........|...........|...........|...........|...........|...........|...........|...........|...........|...........|...........|...........|...........|...........|...........|...........
|...........|...........|...........|...........|...........|...........|...........|...........|...........|...........|...........|...........|...........|...........|...........|...........|...........|...........|...........|...........|...........|...........|...........|...........|...........|...........|...........|...........
|...........|...........|...........|...........|...........|...........|...........|...........|...........|...........|...........|...........|...........|...........|...........|...........|...........|...........|...........|...........|...........|...........|...........|...........|...........|...........|...........|...........
|...........|...........|...........|...........|...........|...........|...........|...........|...........|...........|...........|...........|...........|...........|...........|...........|...........|...........|...........|^^^........|...........|...........|...........|...........|...........|...........|...........|...........
|...........|...........|...........|...........|...........|...........|...........|...........|........E10|........E10|...........|...........|...........|...........|C-527......|...........|F-711......|...........|...........|...........|...........|...........|...........|...........|...........|...........|...........|...........
|...........|...........|...........|...........|...........|...........|...........|...........|...........|...........|...........|...........|...........|...........|...........|...........|...........|...........|...........|...........|...........|...........|...........|...........|...........|...........|...........|...........
|...........|...........|...........|...........|...........|...........|...........|...........|...........|...........|...........|...........|...........|...........|...........|...........|...........|...........|...........|...........|...........|...........|...........|...........|...........|...........|...........|...........
|...........|...........|...........|...........|...........|...........|...........|...........|...........|...........|G-404......|C-503......|G-525......|...........|C-528......|...........|........F10|...........|E-511...M37|A#511......|...........|...........|...........|...........|...........|...........|...........|...........
|...........|...........|...........|...........|...........|...........|...........|...........|...........|...........|...........|...........|...........|...........|...........|...........|...........|...........|...........|...........|...........|...........|...........|...........|...........|...........|...........|...........
|...........|...........|...........|...........|...........|...........|...........|...........|...........|...........|...........|...........|...........|...........|...........|...........|...........|...........|...........|...........|...........|...........|...........|...........|...........|...........|...........|...........
|...........|...........|...........|...........|...........|...........|...........|...........|...........|...........|...........|...........|...........|...........|...........|...........|...........|...........|...........|...........|...........|...........|...........|...........|...........|...........|...........|...........
|...........|...........|...........|...........|...........|...........|...........|...........|...........|...........|...........|...........|...........|...........|...........|...........|...........|...........|^^^........|^^^........|...........|...........|...........|...........|...........|...........|...........|...........
|...........|...........|...........|...........|...........|...........|...........|...........|F-529......|C-529......|C-403......|...........|...........|...........|...........|F-518......|........E10|...........|...........|...........|...........|...........|...........|...........|...........|...........|...........|...........
|...........|...........|...........|...........|...........|...........|...........|...........|...........|...........|...........|...........|...........|...........|...........|...........|...........|...........|...........|...........|...........|...........|...........|...........|...........|...........|...........|...........
|...........|...........|...........|...........|...........|...........|...........|...........|...........|...........|...........|...........|...........|...........|...........|...........|...........|...........|...........|...........|...........|...........|...........|...........|...........|...........|...........|...........
|...........|G-302......|...........|...........|...........|...........|...........|...........|^^^........|^^^........|...........|C-403......|...........|...........|C-527......|...........|...........|...........|F-511......|...........|...........|...........|...........|...........|...........|...........|...........|...........
|...........|...........|...........|...........|...........|...........|...........|...........|...........|...........|...........|...........|...........|...........|...........|...........|...........|...........|...........|...........|...........|...........|...........|...........|...........|...........|...........|...........
|...........|...........|...........|...........|...........|...........|...........|...........|...........|...........|...........|...........|...........|...........|...........|...........|...........|...........|...........|...........|...........|...........|...........|...........|...........|...........|...........|...........
|...........|...........|...........|...........|...........|...........|...........|...........|...........|...........|...........|...........|...........|...........|...........|...........|...........|...........|...........|...........|...........|...........|...........|...........|...........|...........|...........|...........
|...........|...........|...........|...........|...........|...........|...........|...........|...........|...........|...........|...........|...........|...........|...........|...........|...........|...........|...........|...........|...........|...........|...........|...........|...........|...........|...........|...........
|...........|...........|...........|...........|...........|...........|...........|...........|...........|...........|...........|...........|...........|...........|C-527......|...........|...........|...........|...........|...........|...........|...........|...........|...........|...........|...........|...........|...........
|...........|...........|...........|...........|...........|...........|...........|...........|...........|...........|...........|...........|...........|...........|...........|...........|...........|...........|...........|...........|...........|...........|...........|...........|...........|...........|...........|...........
|...........|...........|...........|...........|...........|...........|...........|...........|...........|...........|...........|...........|...........|...........|...........|...........|...........|...........|...........|...........|...........|...........|...........|...........|...........|...........|...........|...........
|...........|...........|C-506......|F-406......|A#306......|A-406......|...........|...........|...........|...........|C-503......|G-404......|C-526......|...........|C-528......|C-519......|D-711......|...........|...........|A-511......|...........|...........|...........|...........|...........|...........|...........|...........
|...........|...........|...........|...........|...........|...........|...........|...........|...........|...........|...........|...........|...........|...........|...........|...........|...........|...........|...........|...........|...........|...........|...........|...........|...........|...........|...........|...........
|...........|...........|...........|...........|...........|...........|...........|...........|...........|...........|...........|...........|...........|...........|...........|...........|...........|...........|...........|...........|...........|...........|...........|...........|...........|...........|...........|...........
|...........|...........|...........|...........|...........|...........|...........|...........|...........|...........|...........|...........|...........|...........|...........|...........|...........|...........|...........|...........|...........|...........|...........|...........|...........|...........|...........|...........
|...........|...........|...........|...........|...........|...........|...........|...........|...........|...........|...........|...........|...........|...........|...........|...........|^^^........|...........|...........|^^^........|...........|...........|...........|...........|...........|...........|...........|...........
|...........|...........|...........|...........|...........|...........|...........|...........|...........|...........|...........|C-403......|...........|...........|...........|...........|...........|...........|...........|...........|...........|...........|...........|...........|...........|...........|...........|...........
|...........|...........|...........|...........|...........|...........|...........|...........|...........|...........|...........|...........|...........|...........|...........|...........|...........|...........|...........|...........|...........|...........|...........|...........|...........|...........|...........|...........
|...........|...........|...........|...........|...........|...........|...........|...........|...........|...........|...........|...........|...........|...........|...........|...........|...........|...........|...........|...........|...........|...........|...........|...........|...........|...........|...........|...........
|...........|C-402......|...........|...........|...........|...........|...........|...........|...........|...........|C-403......|...........|...........|...........|C-527......|F-518......|C-711......|...........|G-511......|A#511......|...........|...........|...........|...........|...........|...........|...........|...........
|...........|...........|...........|...........|...........|...........|...........|...........|...........|...........|...........|...........|...........|...........|...........|...........|...........|...........|...........|...........|...........|...........|...........|...........|...........|...........|...........|...........
|...........|...........|...........|...........|...........|...........|...........|...........|...........|...........|...........|...........|...........|...........|...........|...........|...........|...........|...........|...........|...........|...........|...........|...........|...........|...........|...........|...........
|...........|...........|...........|...........|...........|...........|...........|...........|...........|...........|...........|...........|...........|...........|...........|...........|...........|...........|...........|...........|...........|...........|...........|...........|...........|...........|...........|...........
|...........|...........|...........|...........|...........|...........|...........|...........|...........|...........|...........|...........|...........|...........|...........|...........|...........|...........|...........|^^^........|...........|...........|...........|...........|...........|...........|...........|...........
|...........|...........|A-406......|E-406......|A#306......|E-306......|...........|...........|...........|...........|...........|...........|...........|...........|C-527......|...........|A#611......|...........|...........|...........|...........|...........|...........|...........|...........|...........|...........|...........
|...........|...........|...........|...........|...........|...........|...........|...........|...........|...........|...........|...........|...........|...........|...........|...........|...........|...........|...........|...........|...........|...........|...........|...........|...........|...........|...........|...........
|...........|...........|...........|...........|...........|...........|...........|...........|...........|...........|...........|...........|...........|...........|...........|...........|...........|...........|...........|...........|...........|...........|...........|...........|...........|...........|...........|...........
|...........|...........|...........|...........|...........|...........|...........|...........|...........|...........|G-404......|C-503......|G-525......|...........|C-528......|C-519......|^^^........|...........|...........|G-611......|...........|...........|...........|...........|...........|...........|...........|...........
|...........|...........|...........|...........|...........|...........|...........|...........|...........|...........|...........|...........|...........|...........|...........|...........|...........|...........|...........|...........|...........|...........|...........|...........|...........|...........|...........|...........
|...........|...........|...........|...........|...........|...........|...........|...........|...........|...........|...........|...........|...........|...........|...........|...........|...........|...........|...........|........E10|...........|...........|...........|...........|...........|...........|...........|...........
|...........|...........|...........|...........|...........|...........|...........|...........|...........|...........|...........|...........|...........|...........|...........|...........|...........|...........|...........|...........|...........|...........|...........|...........|...........|...........|...........|...........
|...........|...........|...........|...........|...........|...........|...........|...........|...........|...........|...........|...........|...........|...........|...........|...........|...........|...........|...........|...........|...........|...........|...........|...........|...........|...........|...........|...........
|...........|...........|...........|...........|...........|...........|...........|...........|...........|...........|C-403......|...........|...........|...........|...........|...........|G-711......|...........|A-511......|...........|...........|...........|...........|...........|...........|...........|...........|...........
|...........|...........|...........|...........|...........|...........|...........|...........|...........|...........|...........|...........|...........|...........|...........|...........|...........|...........|...........|...........|...........|...........|...........|...........|...........|...........|...........|...........
|...........|...........|...........|...........|...........|...........|...........|...........|...........|...........|...........|...........|...........|...........|...........|...........|...........|...........|...........|...........|...........|...........|...........|...........|...........|...........|...........|...........
Rows: 64
|...........|F-302......|E-506......|C-506......|G-406......|D-406......|A-306......|...........|...........|...........|...........|C-403......|...........|...........|C-527......|C-519......|...........|...........|...........|...........|...........|...........|...........|...........|...........|...........|...........|...........
|...........|...........|...........|...........|...........|...........|...........|...........|...........|...........|...........|...........|...........|...........|...........|...........|...........|...........|...........|...........|...........|...........|...........|...........|...........|...........|...........|...........
|...........|...........|...........|...........|...........|...........|...........|...........|...........|...........|...........|...........|...........|...........|...........|...........|...........|...........|...........|...........|...........|...........|...........|...........|...........|...........|...........|...........
|...........|...........|...........|...........|...........|...........|...........|...........|...........|...........|...........|...........|...........|...........|...........|...........|...........|...........|...........|...........|...........|...........|...........|...........|...........|...........|...........|...........
|...........|...........|...........|...........|...........|...........|...........|...........|...........|...........|...........|...........|...........|...........|...........|...........|...........|...........|...........|...........|...........|...........|...........|...........|...........|...........|...........|...........
|...........|...........|...........|...........|...........|...........|...........|...........|...........|...........|...........|...........|...........|...........|C-527......|...........|...........|A-510......|...........|...........|...........|...........|...........|...........|...........|...........|...........|...........
|...........|...........|...........|...........|...........|...........|...........|...........|...........|...........|...........|...........|...........|...........|...........|...........|...........|...........|...........|...........|...........|...........|...........|...........|...........|...........|...........|...........
|...........|...........|...........|...........|...........|...........|...........|...........|...........|...........|...........|...........|...........|...........|...........|...........|...........|...........|...........|...........|...........|...........|...........|...........|...........|...........|...........|...........
|...........|...........|...........|...........|...........|...........|...........|...........|...........|...........|C-503......|G-404......|C-526......|...........|C-528......|...........|...........|........F18|...........|E-611......|...........|...........|...........|...........|...........|...........|...........|...........
|...........|...........|...........|...........|...........|...........|...........|...........|...........|...........|...........|...........|...........|...........|...........|...........|...........|...........|...........|...........|...........|...........|...........|...........|...........|...........|...........|...........
|...........|...........|...........|...........|...........|...........|...........|...........|...........|...........|...........|...........|...........|...........|...........|...........|...........|...........|...........|...........|...........|...........|...........|...........|...........|...........|...........|...........
|...........|...........|...........|...........|...........|...........|...........|...........|...........|...........|...........|...........|...........|...........|...........|...........|...........|...........|...........|...........|...........|...........|...........|...........|...........|...........|...........|...........
|...........|...........|...........|...........|...........|...........|...........|...........|...........|...........|...........|...........|...........|...........|...........|...........|...........|...........|...........|^^^........|...........|...........|...........|...........|...........|...........|...........|...........
|...........|...........|...........|...........|...........|...........|...........|...........|...........|...........|...........|C-403......|...........|...........|...........|...........|...........|........E18|...........|...........|...........|...........|...........|...........|...........|...........|...........|...........
|...........|...........|...........|...........|...........|...........|...........|...........|...........|...........|...........|...........|...........|...........|...........|...........|...........|...........|...........|...........|...........|...........|...........|...........|...........|...........|...........|...........
|...........|...........|...........|...........|...........|...........|...........|...........|...........|...........|...........|...........|...........|...........|...........|...........|...........|...........|...........|...........|...........|...........|...........|...........|...........|...........|...........|...........
|...........|E-302......|...........|...........|...........|...........|...........|...........|...........|...........|C-403......|...........|...........|...........|C-527......|F-518......|...........|...........|...........|D-611......|...........|...........|...........|...........|...........|...........|...........|...........
|...........|...........|...........|...........|...........|...........|...........|...........|...........|...........|...........|...........|...........|...........|...........|...........|...........|...........|...........|...........|...........|...........|...........|...........|...........|...........|...........|...........
|...........|...........|...........|...........|...........|...........|...........|...........|...........|...........|...........|...........|...........|...........|...........|...........|...........|...........|...........|...........|...........|...........|...........|...........|...........|...........|...........|...........
|...........|...........|...........|...........|...........|...........|...........|...........|...........|...........|...........|...........|...........|...........|...........|...........|...........|...........|...........|...........|...........|...........|...........|...........|...........|...........|...........|...........
|...........|...........|...........|...........|...........|...........|...........|...........|...........|...........|...........|...........|...........|...........|...........|...........|...........|...........|...........|...........|...........|...........|...........|...........|...........|...........|...........|...........
|...........|...........|...........|...........|...........|...........|...........|...........|...........|...........|...........|...........|...........|...........|C-527......|...........|G-711......|...........|...........|........E10|...........|...........|...........|...........|...........|...........|...........|...........
|...........|...........|...........|...........|...........|...........|...........|...........|...........|...........|...........|...........|...........|...........|...........|...........|...........|...........|...........|...........|...........|...........|...........|...........|...........|...........|...........|...........
|...........|...........|...........|...........|...........|...........|...........|...........|...........|...........|...........|...........|...........|...........|...........|...........|...........|...........|...........|...........|...........|...........|...........|...........|...........|...........|...........|...........
|...........|...........|...........|...........|...........|...........|...........|...........|...........|...........|G-404......|C-503......|G-525......|...........|C-528......|...........|........F10|F#510......|...........|^^^........|...........|...........|...........|...........|...........|...........|...........|...........
|...........|...........|...........|...........|...........|...........|...........|...........|...........|...........|...........|...........|...........|...........|...........|...........|...........|...........|...........|...........|...........|...........|...........|...........|...........|...........|...........|...........
|...........|...........|...........|...........|...........|...........|...........|...........|...........|...........|...........|...........|...........|...........|...........|...........|...........|...........|...........|...........|...........|...........|...........|...........|...........|...........|...........|...........
|...........|...........|...........|...........|...........|...........|...........|...........|...........|...........|...........|...........|...........|...........|...........|...........|...........|...........|...........|...........|...........|...........|...........|...........|...........|...........|...........|...........
|...........|...........|...........|...........|...........|...........|...........|...........|...........|...........|...........|...........|...........|...........|...........|...........|...........|^^^........|...........|...........|...........|...........|...........|...........|...........|...........|...........|...........
|...........|...........|...........|...........|...........|...........|...........|...........|...........|...........|C-403......|...........|...........|...........|...........|F-518......|........E10|...........|...........|A-611......|...........|...........|...........|...........|...........|...........|...........|...........
|...........|...........|...........|...........|...........|...........|...........|...........|...........|...........|...........|...........|...........|...........|...........|...........|...........|...........|...........|...........|...........|...........|...........|...........|...........|...........|...........|...........
|...........|...........|...........|...........|...........|...........|...........|...........|...........|...........|...........|...........|...........|...........|...........|...........|...........|...........|...........|........E10|...........|...........|...........|...........|...........|...........|...........|...........
|...........|D-302......|...........|...........|...........|...........|...........|...........|...........|...........|...........|C-403......|...........|...........|C-527......|...........|...........|E-510......|...........|...........|...........|...........|...........|...........|...........|...........|...........|...........
|...........|...........|...........|...........|...........|...........|...........|...........|...........|...........|...........|...........|...........|...........|...........|...........|...........|...........|...........|...........|...........|...........|...........|...........|...........|...........|...........|...........
|...........|...........|...........|...........|...........|...........|...........|...........|...........|...........|...........|...........|...........|...........|...........|...........|...........|...........|...........|...........|...........|...........|...........|...........|...........|...........|...........|...........
|...........|...........|...........|...........|...........|...........|...........|...........|...........|...........|...........|...........|...........|...........|...........|...........|...........|...........|...........|...........|...........|...........|...........|...........|...........|...........|...........|...........
|...........|...........|...........|...........|...........|...........|...........|...........|...........|...........|...........|...........|...........|...........|...........|...........|...........|...........|...........|...........|...........|...........|...........|...........|...........|...........|...........|...........
|...........|...........|...........|...........|...........|...........|...........|...........|...........|...........|...........|...........|...........|...........|C-527......|...........|...........|D-510......|...........|...........|...........|...........|...........|...........|...........|...........|...........|...........
|...........|...........|...........|...........|...........|...........|...........|...........|...........|...........|...........|...........|...........|...........|...........|...........|...........|...........|...........|...........|...........|...........|...........|...........|...........|...........|...........|...........
|...........|...........|...........|...........|...........|...........|...........|...........|...........|...........|...........|...........|...........|...........|...........|...........|...........|...........|...........|...........|...........|...........|...........|...........|...........|...........|...........|...........
|...........|...........|C-306......|F#306......|B-306......|E-406......|A-406......|...........|...........|...........|C-503......|G-404......|C-526......|...........|C-528......|C-519......|E-711......|^^^........|...........|E-611......|...........|...........|...........|...........|...........|...........|...........|...........
|...........|...........|...........|...........|...........|...........|...........|...........|...........|...........|...........|...........|...........|...........|...........|...........|...........|...........|...........|...........|...........|...........|...........|...........|...........|...........|...........|...........
|...........|...........|...........|...........|...........|...........|...........|...........|...........|...........|...........|...........|...........|...........|...........|...........|...........|...........|...........|...........|...........|...........|...........|...........|...........|...........|...........|...........
|...........|...........|...........|...........|...........|...........|...........|...........|...........|...........|...........|...........|...........|...........|...........|...........|...........|...........|...........|^^^........|...........|...........|...........|...........|...........|...........|...........|...........
|...........|...........|...........|...........|...........|...........|...........|...........|...........|...........|...........|...........|...........|...........|...........|...........|^^^........|...........|...........|...........|...........|...........|...........|...........|...........|...........|...........|...........
|...........|...........|...........|...........|...........|...........|...........|...........|...........|...........|...........|C-403......|...........|...........|...........|...........|...........|B-510......|...........|...........|...........|...........|...........|...........|...........|...........|...........|...........
|...........|...........|...........|...........|...........|...........|...........|...........|...........|...........|...........|...........|...........|...........|...........|...........|...........|...........|...........|...........|...........|...........|...........|...........|...........|...........|...........|...........
|...........|...........|...........|...........|...........|...........|...........|...........|...........|...........|...........|...........|...........|...........|...........|...........|...........|...........|...........|...........|...........|...........|...........|...........|...........|...........|...........|...........
|...........|C-302......|...........|...........|...........|...........|...........|...........|...........|...........|C-403......|...........|...........|...........|C-527......|F-518......|D-711......|...........|...........|...........|...........|...........|...........|...........|...........|...........|...........|...........
|...........|...........|...........|...........|...........|...........|...........|...........|...........|...........|...........|...........|...........|...........|...........|...........|...........|...........|...........|...........|...........|...........|...........|...........|...........|...........|...........|...........
|...........|...........|...........|...........|...........|...........|...........|...........|...........|...........|...........|...........|...........|...........|...........|...........|...........|...........|...........|...........|...........|...........|...........|...........|...........|...........|...........|...........
|...........|...........|...........|...........|...........|...........|...........|...........|...........|...........|...........|...........|...........|...........|...........|...........|...........|...........|...........|...........|...........|...........|...........|...........|...........|...........|...........|...........
|...........|...........|...........|...........|...........|...........|...........|...........|...........|...........|...........|...........|...........|...........|...........|...........|...........|...........|...........|...........|...........|...........|...........|...........|...........|...........|...........|...........
|...........|...........|D-506......|B-406......|F#406......|C-406......|D-406......|...........|...........|...........|...........|...........|...........|...........|C-527......|...........|C-711......|...........|...........|D-611......|...........|...........|...........|...........|...........|...........|...........|...........
|...........|...........|...........|...........|...........|...........|...........|...........|...........|...........|...........|...........|...........|...........|...........|...........|...........|...........|...........|...........|...........|...........|...........|...........|...........|...........|...........|...........
|...........|...........|...........|...........|...........|...........|...........|...........|...........|...........|...........|...........|...........|...........|...........|...........|...........|...........|...........|...........|...........|...........|...........|...........|...........|...........|...........|...........
|...........|...........|...........|...........|...........|...........|...........|...........|...........|...........|G-404......|C-503......|G-525......|...........|C-528......|C-519......|^^^........|...........|...........|C-611......|...........|...........|...........|...........|...........|...........|...........|...........
|...........|...........|...........|...........|...........|...........|...........|...........|...........|...........|...........|...........|...........|...........|...........|...........|...........|...........|...........|...........|...........|...........|...........|...........|...........|...........|...........|...........
|...........|...........|...........|...........|...........|...........|...........|...........|...........|...........|...........|...........|...........|...........|...........|...........|...........|...........|...........|...........|...........|...........|...........|...........|...........|...........|...........|...........
|...........|...........|...........|...........|...........|...........|...........|...........|...........|...........|...........|...........|...........|...........|...........|...........|...........|...........|...........|...........|...........|...........|...........|...........|...........|...........|...........|...........
|...........|...........|...........|...........|...........|...........|...........|...........|...........|...........|...........|...........|...........|...........|...........|...........|...........|...........|...........|...........|...........|...........|...........|...........|...........|...........|...........|...........
|...........|...........|...........|...........|...........|...........|...........|...........|...........|...........|C-403......|...........|...........|...........|...........|...........|A-711......|...........|...........|B-511......|...........|...........|...........|...........|...........|...........|...........|...........
|...........|...........|...........|...........|...........|...........|...........|...........|...........|...........|...........|...........|...........|...........|...........|...........|...........|...........|...........|...........|...........|...........|...........|...........|...........|...........|...........|...........
|...........|...........|...........|...........|...........|...........|...........|...........|...........|...........|...........|...........|...........|...........|...........|...........|...........|...........|...........|...........|...........|...........|...........|...........|...........|...........|...........|...........
Rows: 64
|...........|B-202......|B-306......|G-306......|D-406......|B-406......|F#406......|...........|...........|...........|...........|C-403......|...........|...........|C-527......|C-519......|...........|...........|B-410......|...........|...........|...........|...........|...........|...........|...........|...........|...........
|...........|...........|...........|...........|...........|...........|...........|...........|...........|...........|...........|...........|...........|...........|...........|...........|...........|...........|...........|...........|...........|...........|...........|...........|...........|...........|...........|...........
|...........|...........|...........|...........|...........|...........|...........|...........|...........|...........|...........|...........|...........|...........|...........|...........|...........|...........|...........|...........|...........|...........|...........|...........|...........|...........|...........|...........
|...........|...........|...........|...........|...........|...........|...........|...........|...........|...........|...........|...........|...........|...........|...........|...........|...........|...........|...........|...........|...........|...........|...........|...........|...........|...........|...........|...........
|...........|...........|...........|...........|...........|...........|...........|...........|...........|...........|...........|...........|...........|...........|...........|...........|...........|...........|...........|...........|...........|...........|...........|...........|...........|...........|...........|...........
|...........|...........|...........|...........|...........|...........|...........|...........|...........|...........|...........|...........|...........|...........|C-527......|...........|...........|...........|...........|...........|...........|...........|...........|...........|...........|...........|...........|...........
|...........|...........|...........|...........|...........|...........|...........|...........|...........|...........|...........|...........|...........|...........|...........|...........|...........|...........|...........|...........|...........|...........|...........|...........|...........|...........|...........|...........
|...........|...........|...........|...........|...........|...........|...........|...........|...........|...........|...........|...........|...........|...........|...........|...........|...........|...........|...........|...........|...........|...........|...........|...........|...........|...........|...........|...........
|...........|...........|...........|...........|...........|...........|...........|...........|...........|...........|C-503......|G-404......|C-526......|...........|C-528......|...........|...........|...........|...........|C-611......|...........|...........|...........|...........|...........|...........|...........|...........
|...........|...........|...........|...........|...........|...........|...........|...........|...........|...........|...........|...........|...........|...........|...........|...........|...........|...........|...........|...........|...........|...........|...........|...........|...........|...........|...........|...........
|...........|...........|...........|...........|...........|...........|...........|...........|...........|...........|...........|...........|...........|...........|...........|...........|...........|...........|...........|...........|...........|...........|...........|...........|...........|...........|...........|...........
|...........|...........|...........|...........|...........|...........|...........|...........|...........|...........|...........|...........|...........|...........|...........|...........|...........|...........|...........|...........|...........|...........|...........|...........|...........|...........|...........|...........
|...........|...........|...........|...........|...........|...........|...........|...........|...........|...........|...........|...........|...........|...........|...........|...........|...........|...........|...........|^^^........|...........|...........|...........|...........|...........|...........|...........|...........
|...........|...........|...........|...........|...........|...........|...........|...........|...........|...........|...........|C-403......|...........|...........|...........|...........|...........|...........|...........|...........|...........|...........|...........|...........|...........|...........|...........|...........
|...........|...........|...........|...........|...........|...........|...........|...........|...........|...........|...........|...........|...........|...........|...........|...........|...........|...........|...........|...........|...........|...........|...........|...........|...........|...........|...........|...........
|...........|...........|...........|...........|...........|...........|...........|...........|...........|...........|...........|...........|...........|...........|...........|...........|...........|...........|...........|...........|...........|...........|...........|...........|...........|...........|...........|...........
|...........|G-302......|...........|...........|...........|...........|...........|...........|...........|...........|C-403......|...........|...........|...........|C-527......|F-518......|...........|...........|...........|...........|...........|...........|...........|...........|...........|...........|...........|...........
|...........|...........|...........|...........|...........|...........|...........|...........|...........|...........|...........|...........|...........|...........|...........|...........|...........|...........|...........|...........|...........|...........|...........|...........|...........|...........|...........|...........
|...........|...........|...........|...........|...........|...........|...........|...........|...........|...........|...........|...........|...........|...........|...........|...........|...........|...........|...........|...........|...........|...........|...........|...........|...........|...........|...........|...........
|...........|...........|...........|...........|...........|...........|...........|...........|...........|...........|...........|...........|...........|...........|...........|...........|...........|...........|...........|...........|...........|...........|...........|...........|...........|...........|...........|...........
|...........|...........|...........|...........|...........|...........|...........|...........|...........|...........|...........|...........|...........|...........|...........|...........|...........|...........|...........|...........|...........|...........|...........|...........|...........|...........|...........|...........
|...........|...........|...........|...........|...........|...........|...........|...........|...........|...........|...........|...........|...........|...........|C-527......|...........|A-711......|...........|...........|D-611......|...........|...........|...........|...........|...........|...........|...........|...........
|...........|...........|...........|...........|...........|...........|...........|...........|...........|...........|...........|...........|...........|...........|...........|...........|...........|...........|...........|...........|...........|...........|...........|...........|...........|...........|...........|...........
|...........|...........|...........|...........|...........|...........|...........|...........|...........|...........|...........|...........|...........|...........|...........|...........|...........|...........|...........|...........|...........|...........|...........|...........|...........|...........|...........|...........
|...........|...........|...........|...........|...........|...........|...........|...........|...........|...........|G-404......|C-503......|G-525......|...........|C-528......|...........|........F10|...........|C-510......|E-611......|...........|...........|...........|...........|...........|...........|...........|...........
|...........|...........|...........|...........|...........|...........|...........|...........|...........|...........|...........|...........|...........|...........|...........|...........|...........|...........|...........|...........|...........|...........|...........|...........|...........|...........|...........|...........
|...........|...........|...........|...........|...........|...........|...........|...........|...........|...........|...........|...........|...........|...........|...........|...........|...........|...........|...........|...........|...........|...........|...........|...........|...........|...........|...........|...........
|...........|...........|...........|...........|...........|...........|...........|...........|...........|...........|...........|...........|...........|...........|...........|...........|...........|...........|...........|...........|...........|...........|...........|...........|...........|...........|...........|...........
|...........|...........|...........|...........|...........|...........|...........|...........|...........|...........|...........|...........|...........|...........|...........|...........|...........|...........|^^^........|...........|...........|...........|...........|...........|...........|...........|...........|...........
|...........|...........|...........|...........|...........|...........|...........|...........|...........|...........|C-403......|...........|...........|...........|...........|F-518......|........E10|...........|...........|F#611......|...........|...........|...........|...........|...........|...........|...........|...........
|...........|...........|...........|...........|...........|...........|...........|...........|...........|...........|...........|...........|...........|...........|...........|...........|...........|...........|...........|...........|...........|...........|...........|...........|...........|...........|...........|...........
|...........|...........|...........|...........|...........|...........|...........|...........|...........|...........|...........|...........|...........|...........|...........|...........|...........|...........|...........|...........|...........|...........|...........|...........|...........|...........|...........|...........
|...........|E-302......|...........|...........|...........|...........|...........|...........|...........|...........|...........|C-403......|...........|...........|C-527......|...........|...........|...........|D-510......|...........|...........|...........|...........|...........|...........|...........|...........|...........
|...........|...........|...........|...........|...........|...........|...........|...........|...........|...........|...........|...........|...........|...........|...........|...........|...........|...........|...........|...........|...........|...........|...........|...........|...........|...........|...........|...........
|...........|...........|...........|...........|...........|...........|...........|...........|...........|...........|...........|...........|...........|...........|...........|...........|...........|...........|...........|...........|...........|...........|...........|...........|...........|...........|...........|...........
|...........|...........|...........|...........|...........|...........|...........|...........|...........|...........|...........|...........|...........|...........|...........|...........|...........|...........|...........|...........|...........|...........|...........|...........|...........|...........|...........|...........
|...........|...........|...........|...........|...........|...........|...........|...........|...........|...........|...........|...........|...........|...........|...........|...........|...........|...........|...........|...........|...........|...........|...........|...........|...........|...........|...........|...........
|...........|...........|...........|...........|...........|...........|...........|...........|...........|...........|...........|...........|...........|...........|C-527......|...........|...........|...........|...........|...........|...........|...........|...........|...........|...........|...........|...........|...........
|...........|...........|...........|...........|...........|...........|...........|...........|...........|...........|...........|...........|...........|...........|...........|...........|...........|...........|...........|...........|...........|...........|...........|...........|...........|...........|...........|...........
|...........|...........|...........|...........|...........|...........|...........|...........|...........|...........|...........|...........|...........|...........|...........|...........|...........|...........|...........|...........|...........|...........|...........|...........|...........|...........|...........|...........
|...........|...........|A-406......|D-406......|G-306......|B-306......|F#406......|...........|...........|...........|C-503......|G-404......|C-526......|...........|C-528......|C-519......|G-711......|...........|...........|E-611......|...........|...........|...........|...........|...........|...........|...........|...........
|...........|...........|...........|...........|...........|...........|...........|...........|...........|...........|...........|...........|...........|...........|...........|...........|...........|...........|...........|...........|...........|...........|...........|...........|...........|...........|...........|...........
|...........|...........|...........|...........|...........|...........|...........|...........|...........|...........|...........|...........|...........|...........|...........|...........|...........|...........|...........|...........|...........|...........|...........|...........|...........|...........|...........|...........
|...........|...........|...........|...........|...........|...........|...........|...........|...........|...........|...........|...........|...........|...........|...........|...........|...........|...........|...........|...........|...........|...........|...........|...........|...........|...........|...........|...........
|...........|...........|...........|...........|...........|...........|...........|...........|...........|...........|...........|...........|...........|...........|...........|...........|^^^........|...........|...........|...........|...........|...........|...........|...........|...........|...........|...........|...........
|...........|...........|...........|...........|...........|...........|...........|...........|...........|...........|...........|C-403......|...........|...........|...........|...........|...........|...........|...........|^^^........|...........|...........|...........|...........|...........|...........|...........|...........
|...........|...........|...........|...........|...........|...........|...........|...........|...........|...........|...........|...........|...........|...........|...........|...........|...........|...........|...........|...........|...........|...........|...........|...........|...........|...........|...........|...........
|...........|...........|...........|...........|...........|...........|...........|...........|...........|...........|...........|...........|...........|...........|...........|...........|...........|...........|...........|...........|...........|...........|...........|...........|...........|...........|...........|...........
|...........|A-202......|...........|...........|...........|...........|...........|...........|...........|...........|C-403......|...........|...........|...........|C-527......|F-518......|E-711......|...........|E-510......|D-611......|...........|...........|...........|...........|...........|...........|...........|...........
|...........|...........|...........|...........|...........|...........|...........|...........|...........|...........|...........|...........|...........|...........|...........|...........|...........|...........|...........|...........|...........|...........|...........|...........|...........|...........|...........|...........
|...........|...........|...........|...........|...........|...........|...........|...........|...........|...........|...........|...........|...........|...........|...........|...........|........F10|...........|...........|...........|...........|...........|...........|...........|...........|...........|...........|...........
|...........|...........|...........|...........|...........|...........|...........|...........|...........|...........|...........|...........|...........|...........|...........|...........|...........|...........|...........|...........|...........|...........|...........|...........|...........|...........|...........|...........
|...........|...........|...........|...........|...........|...........|...........|...........|...........|...........|...........|...........|...........|...........|...........|...........|...........|...........|...........|^^^........|...........|...........|...........|...........|...........|...........|...........|...........
|...........|...........|F#406......|C#406......|G-306......|...........|...........|...........|...........|...........|...........|...........|...........|...........|C-527......|...........|...........|...........|...........|...........|...........|...........|...........|...........|...........|...........|...........|...........
|...........|...........|...........|...........|...........|...........|...........|...........|...........|...........|...........|...........|...........|...........|...........|...........|...........|...........|...........|...........|...........|...........|...........|...........|...........|...........|...........|...........
|...........|...........|...........|...........|...........|...........|...........|...........|...........|...........|...........|...........|...........|...........|...........|...........|...........|...........|...........|...........|...........|...........|...........|...........|...........|...........|...........|...........
|...........|...........|...........|...........|...........|...........|...........|...........|...........|...........|G-404......|C-503......|G-525......|...........|C-528......|C-519......|F#711......|...........|...........|B-511......|...........|...........|...........|...........|...........|...........|...........|...........
|...........|...........|...........|...........|...........|...........|...........|...........|...........|...........|...........|...........|...........|...........|...........|...........|...........|...........|...........|...........|...........|...........|...........|...........|...........|...........|...........|...........
|...........|...........|...........|...........|...........|...........|...........|...........|...........|...........|...........|...........|...........|...........|...........|...........|........E10|...........|...........|........F10|...........|...........|...........|...........|...........|...........|...........|...........
|...........|...........|...........|...........|...........|...........|...........|...........|...........|...........|...........|...........|...........|...........|...........|...........|...........|...........|...........|...........|...........|...........|...........|...........|...........|...........|...........|...........
|...........|...........|...........|...........|...........|...........|...........|...........|...........|...........|...........|...........|...........|...........|...........|...........|...........|...........|...........|...........|...........|...........|...........|...........|...........|...........|...........|...........
|...........|...........|...........|...........|...........|...........|...........|...........|...........|...........|C-403......|...........|...........|...........|...........|...........|...........|...........|F#510......|...........|...........|...........|...........|...........|...........|...........|...........|...........
|...........|...........|...........|...........|...........|...........|...........|...........|...........|...........|...........|...........|...........|...........|...........|...........|...........|...........|...........|...........|...........|...........|...........|...........|...........|...........|...........|...........
|...........|...........|...........|...........|...........|...........|...........|...........|...........|...........|...........|...........|...........|...........|...........|...........|...........|...........|...........|...........|...........|...........|...........|...........|...........|...........|...........|...........
Rows: 64
|...........|D-302......|C#506......|A-406......|E-406......|B-306......|F#306......|...........|...........|...........|...........|C-403......|...........|C-520......|C-527......|...........|...........|...........|...........|...........|...........|...........|...........|...........|...........|...........|...........|...........
|...........|...........|...........|...........|...........|...........|...........|...........|...........|...........|...........|...........|...........|...........|...........|...........|...........|...........|...........|...........|...........|...........|...........|...........|...........|...........|...........|...........
|...........|...........|...........|...........|...........|...........|...........|...........|...........|...........|...........|...........|...........|...........|...........|...........|...........|...........|...........|...........|...........|...........|...........|...........|...........|...........|...........|...........
|...........|...........|...........|...........|...........|...........|...........|...........|...........|...........|...........|...........|...........|...........|...........|...........|...........|...........|...........|...........|...........|...........|...........|...........|...........|...........|...........|...........
|...........|...........|...........|...........|...........|...........|...........|...........|...........|...........|...........|...........|...........|...........|...........|...........|...........|...........|...........|...........|...........|...........|...........|...........|...........|...........|...........|...........
|...........|...........|...........|...........|...........|...........|...........|...........|...........|...........|...........|...........|...........|...........|C-527......|...........|...........|E-611......|...........|...........|...........|...........|...........|...........|...........|...........|...........|...........
|...........|...........|...........|...........|...........|...........|...........|...........|...........|...........|...........|...........|...........|...........|...........|...........|...........|...........|...........|...........|...........|...........|...........|...........|...........|...........|...........|...........
|...........|...........|...........|...........|...........|...........|...........|...........|...........|...........|...........|...........|...........|...........|...........|...........|...........|...........|...........|...........|...........|...........|...........|...........|...........|...........|...........|...........
|...........|...........|...........|...........|...........|...........|...........|...........|...........|...........|C-503......|G-404......|C-526......|...........|C-528......|...........|A-611......|F#611......|...........|...........|...........|...........|...........|...........|...........|...........|...........|...........
|...........|...........|...........|...........|...........|...........|...........|...........|...........|...........|...........|...........|...........|...........|...........|...........|...........|...........|...........|...........|...........|...........|...........|...........|...........|...........|...........|...........
|...........|...........|...........|...........|...........|...........|...........|...........|...........|...........|...........|...........|...........|...........|...........|...........|...........|...........|...........|...........|...........|...........|...........|...........|...........|...........|...........|...........
|...........|...........|...........|...........|...........|...........|...........|...........|...........|...........|...........|...........|...........|...........|...........|...........|...........|...........|...........|...........|...........|...........|...........|...........|...........|...........|...........|...........
|...........|...........|...........|...........|...........|...........|...........|...........|...........|...........|...........|...........|...........|...........|...........|...........|^^^........|...........|...........|...........|...........|...........|...........|...........|...........|...........|...........|...........
|...........|...........|...........|...........|...........|...........|...........|...........|...........|...........|...........|C-403......|...........|...........|...........|...........|...........|E-611......|...........|...........|...........|...........|...........|...........|...........|...........|...........|...........
|...........|...........|...........|...........|...........|...........|...........|...........|...........|...........|...........|...........|...........|...........|...........|...........|...........|...........|...........|...........|...........|...........|...........|...........|...........|...........|...........|...........
|...........|...........|...........|...........|...........|...........|...........|...........|...........|...........|...........|...........|...........|...........|...........|...........|...........|...........|...........|...........|...........|...........|...........|...........|...........|...........|...........|...........
|...........|F#302......|D-506......|A-406......|E-406......|A#306......|E-306......|...........|E-529......|B-429......|C-403......|...........|...........|C-520......|C-527......|...........|D-711......|...........|...........|...........|...........|...........|...........|...........|...........|...........|...........|...........
|...........|...........|...........|...........|...........|...........|...........|...........|...........|...........|...........|...........|...........|...........|...........|...........|...........|...........|...........|...........|...........|...........|...........|...........|...........|...........|...........|...........
|...........|...........|...........|...........|...........|...........|...........|...........|...........|...........|...........|...........|...........|...........|...........|...........|...........|...........|...........|...........|...........|...........|...........|...........|...........|...........|...........|...........
|...........|...........|...........|...........|...........|...........|...........|...........|...........|...........|...........|...........|...........|...........|...........|...........|...........|...........|...........|...........|...........|...........|...........|...........|...........|...........|...........|...........
|...........|...........|...........|...........|...........|...........|...........|...........|...........|...........|...........|...........|...........|...........|...........|...........|...........|...........|...........|...........|...........|...........|...........|...........|...........|...........|...........|...........
|...........|...........|...........|...........|...........|...........|...........|...........|F#529......|C#529......|...........|...........|...........|...........|C-527......|...........|...........|...........|B-510......|...........|...........|...........|...........|...........|...........|...........|...........|...........
|...........|...........|...........|...........|...........|...........|...........|...........|...........|...........|...........|...........|...........|...........|...........|...........|...........|...........|...........|...........|...........|...........|...........|...........|...........|...........|...........|...........
|...........|...........|...........|...........|...........|...........|...........|...........|^^^........|^^^........|...........|...........|...........|...........|...........|...........|...........|...........|...........|...........|...........|...........|...........|...........|...........|...........|...........|...........
|...........|...........|...........|...........|...........|...........|...........|...........|...........|...........|G-404......|C-503......|G-525......|...........|C-528......|...........|C#711......|F#611......|C#610......|...........|...........|...........|...........|...........|...........|...........|...........|...........
|...........|...........|...........|...........|...........|...........|...........|...........|...........|...........|...........|...........|...........|...........|...........|...........|...........|...........|...........|...........|...........|...........|...........|...........|...........|...........|...........|...........
|...........|...........|...........|...........|...........|...........|...........|...........|...........|...........|...........|...........|...........|...........|...........|...........|...........|...........|...........|...........|...........|...........|...........|...........|...........|...........|...........|...........
|...........|...........|...........|...........|...........|...........|...........|...........|...........|...........|...........|...........|...........|...........|...........|...........|...........|^^^........|...........|...........|...........|...........|...........|...........|...........|...........|...........|...........
|...........|...........|...........|...........|...........|...........|...........|...........|...........|...........|...........|...........|...........|...........|...........|...........|...........|...........|...........|...........|...........|...........|...........|...........|...........|...........|...........|...........
|...........|...........|...........|...........|...........|...........|...........|...........|...........|...........|C-403......|...........|...........|...........|...........|...........|...........|...........|B-510......|...........|...........|...........|...........|...........|...........|...........|...........|...........
|...........|...........|...........|...........|...........|...........|...........|...........|...........|...........|...........|...........|...........|...........|...........|...........|...........|...........|...........|...........|...........|...........|...........|...........|...........|...........|...........|...........
|...........|...........|...........|...........|...........|...........|...........|...........|...........|...........|...........|...........|...........|...........|...........|...........|...........|...........|...........|...........|...........|...........|...........|...........|...........|...........|...........|...........
|...........|B-302......|E-506......|C#406......|F#406......|A-306......|D-306......|...........|B-429......|F#429......|...........|C-403......|...........|C-520......|C-527......|...........|...........|...........|...........|...........|...........|...........|...........|...........|...........|...........|...........|...........
|...........|...........|...........|...........|...........|...........|...........|...........|...........|...........|...........|...........|...........|...........|...........|...........|...........|...........|...........|...........|...........|...........|...........|...........|...........|...........|...........|...........
|...........|...........|...........|...........|...........|...........|...........|...........|...........|...........|...........|...........|...........|...........|...........|...........|...........|...........|...........|...........|...........|...........|...........|...........|...........|...........|...........|...........
|...........|...........|...........|...........|...........|...........|...........|...........|...........|...........|...........|...........|...........|...........|...........|...........|...........|...........|...........|...........|...........|...........|...........|...........|...........|...........|...........|...........
|...........|...........|...........|...........|...........|...........|...........|...........|...........|...........|...........|...........|...........|...........|...........|...........|...........|...........|...........|...........|...........|...........|...........|...........|...........|...........|...........|...........
|...........|...........|...........|...........|...........|...........|...........|...........|C#529......|G#429......|...........|...........|...........|...........|C-527......|...........|...........|...........|...........|E-510......|...........|...........|...........|...........|...........|...........|...........|...........
|...........|...........|...........|...........|...........|...........|...........|...........|...........|...........|...........|...........|...........|...........|...........|...........|...........|...........|...........|...........|...........|...........|...........|...........|...........|...........|...........|...........
|...........|...........|...........|...........|...........|...........|...........|...........|^^^........|^^^........|...........|...........|...........|...........|...........|...........|...........|...........|...........|...........|...........|...........|...........|...........|...........|...........|...........|...........
|...........|...........|...........|...........|...........|...........|...........|...........|...........|...........|C-503......|G-404......|C-526......|...........|C-528......|...........|F#611......|...........|C#610......|F#510......|...........|...........|...........|...........|...........|...........|...........|...........
|...........|...........|...........|...........|...........|...........|...........|...........|...........|...........|...........|...........|...........|...........|...........|...........|...........|...........|...........|...........|...........|...........|...........|...........|...........|...........|...........|...........
|...........|...........|...........|...........|...........|...........|...........|...........|...........|...........|...........|...........|...........|...........|...........|...........|...........|...........|...........|...........|...........|...........|...........|...........|...........|...........|...........|...........
|...........|...........|...........|...........|...........|...........|...........|...........|...........|...........|...........|...........|...........|...........|...........|...........|...........|...........|^^^........|...........|...........|...........|...........|...........|...........|...........|...........|...........
|...........|...........|...........|...........|...........|...........|...........|...........|...........|...........|...........|...........|...........|...........|...........|...........|^^^........|...........|...........|...........|...........|...........|...........|...........|...........|...........|...........|...........
|...........|...........|...........|...........|...........|...........|...........|...........|...........|...........|...........|C-403......|...........|...........|...........|...........|...........|...........|...........|E-510......|...........|...........|...........|...........|...........|...........|...........|...........
|...........|...........|...........|...........|...........|...........|...........|...........|...........|...........|...........|...........|...........|...........|...........|...........|...........|...........|...........|...........|...........|...........|...........|...........|...........|...........|...........|...........
|...........|...........|...........|...........|...........|...........|...........|...........|...........|...........|...........|...........|...........|...........|...........|...........|...........|...........|...........|...........|...........|...........|...........|...........|...........|...........|...........|...........
|...........|E-302......|F#506......|C#506......|G#406......|D-406......|G#306......|...........|E-429......|B-329......|C-403......|C-522......|...........|C-520......|C-527......|...........|A-611......|...........|...........|...........|...........|...........|...........|...........|...........|...........|...........|...........
|...........|...........|...........|...........|...........|...........|...........|...........|...........|...........|...........|...........|...........|...........|...........|...........|...........|...........|...........|...........|...........|...........|...........|...........|...........|...........|...........|...........
|...........|...........|...........|...........|...........|...........|...........|...........|...........|...........|...........|...........|...........|...........|...........|...........|........F10|...........|...........|...........|...........|...........|...........|...........|...........|...........|...........|...........
|...........|...........|...........|...........|...........|...........|...........|...........|...........|...........|...........|...........|...........|...........|...........|...........|...........|...........|...........|...........|...........|...........|...........|...........|...........|...........|...........|...........
|...........|...........|...........|...........|...........|...........|...........|...........|...........|...........|...........|...........|...........|...........|...........|...........|...........|...........|...........|...........|...........|...........|...........|...........|...........|...........|...........|...........
|...........|...........|...........|...........|...........|...........|...........|...........|F#429......|C#429......|...........|...........|...........|...........|C-527......|...........|...........|...........|...........|...........|...........|...........|...........|...........|...........|...........|...........|...........
|...........|...........|...........|...........|...........|...........|...........|...........|...........|...........|...........|...........|...........|...........|...........|...........|...........|...........|...........|...........|...........|...........|...........|...........|...........|...........|...........|...........
|...........|...........|...........|...........|...........|...........|...........|...........|^^^........|^^^........|...........|...........|...........|...........|...........|...........|...........|...........|...........|...........|...........|...........|...........|...........|...........|...........|...........|...........
|...........|...........|...........|...........|...........|...........|...........|...........|...........|...........|G-404......|C-503......|G-525......|...........|C-528......|...........|G#611......|...........|...........|F#510......|...........|...........|...........|...........|...........|...........|...........|...........
|...........|...........|...........|...........|...........|...........|...........|...........|...........|...........|...........|...........|...........|...........|...........|...........|...........|...........|...........|...........|...........|...........|...........|...........|...........|...........|...........|...........
|...........|...........|...........|...........|...........|...........|...........|...........|...........|...........|...........|...........|...........|...........|...........|...........|...........|...........|...........|...........|...........|...........|...........|...........|...........|...........|...........|...........
|...........|...........|...........|...........|...........|...........|...........|...........|...........|...........|...........|...........|...........|...........|...........|...........|...........|...........|...........|...........|...........|...........|...........|...........|...........|...........|...........|...........
|...........|...........|...........|...........|...........|...........|...........|...........|...........|...........|...........|...........|...........|...........|...........|...........|...........|...........|...........|^^^........|...........|...........|...........|...........|...........|...........|...........|...........
|...........|...........|...........|...........|...........|...........|...........|...........|E-429......|B-329......|C-403......|...........|...........|...........|...........|...........|...........|...........|...........|E-510......|...........|...........|...........|...........|...........|...........|...........|...........
|...........|...........|...........|...........|...........|...........|...........|...........|...........|...........|...........|...........|...........|...........|...........|...........|...........|...........|...........|...........|...........|...........|...........|...........|...........|...........|...........|...........
|...........|...........|...........|...........|...........|...........|...........|...........|...........|...........|...........|...........|...........|...........|...........|...........|...........|...........|...........|...........|...........|...........|...........|...........|...........|...........|...........|...........
Rows: 64
|...........|A-202...M30|E-405......|B-305......|G#305......|G#506......|B-406......|C#406......|...........|...........|........M28|C-403...M28|........M28|C-520...M28|C-527...M18|C-519...M30|........M30|E-611...M3C|........M28|........M20|A-410...M30|...........|...........|...........|...........|...........|...........|...........
|...........|...........|...........|...........|...........|...........|...........|...........|...........|...........|...........|...........|...........|...........|...........|...........|...........|...........|...........|...........|...........|...........|...........|...........|...........|...........|...........|...........
|...........|...........|...........|...........|...........|...........|...........|...........|...........|...........|...........|...........|...........|...........|...........|...........|...........|...........|...........|...........|...........|...........|...........|...........|...........|...........|...........|...........
|...........|...........|...........|...........|...........|...........|...........|...........|...........|...........|...........|...........|...........|...........|...........|...........|...........|...........|...........|...........|...........|...........|...........|...........|...........|...........|...........|...........
|...........|...........|...........|...........|...........|...........|...........|...........|...........|...........|...........|...........|...........|...........|...........|...........|...........|...........|...........|...........|...........|...........|...........|...........|...........|...........|...........|...........
|...........|...........|...........|...........|...........|...........|...........|...........|...........|...........|...........|...........|...........|...........|C-527......|...........|...........|...........|...........|E-610......|...........|...........|...........|...........|...........|...........|...........|...........
|...........|...........|...........|...........|...........|...........|...........|...........|...........|...........|...........|...........|...........|...........|...........|...........|...........|...........|...........|...........|...........|...........|...........|...........|...........|...........|...........|...........
|...........|...........|...........|...........|...........|...........|...........|...........|...........|...........|...........|...........|...........|...........|...........|...........|...........|...........|...........|...........|...........|...........|...........|...........|...........|...........|...........|...........
|...........|...........|...........|...........|...........|...........|...........|...........|F#429......|C#429......|C-503......|G-404......|C-526......|...........|C-528......|...........|C#611......|...........|...........|F#610......|...........|...........|...........|...........|...........|...........|...........|...........
|...........|...........|...........|...........|...........|...........|...........|...........|...........|...........|...........|...........|...........|...........|...........|...........|...........|...........|...........|...........|...........|...........|...........|...........|...........|...........|...........|...........
|...........|...........|...........|...........|...........|...........|...........|...........|^^^........|^^^........|...........|...........|...........|...........|...........|...........|...........|...........|...........|...........|...........|...........|...........|...........|...........|...........|...........|...........
|...........|...........|...........|...........|...........|...........|...........|...........|...........|...........|...........|...........|...........|...........|...........|...........|...........|...........|...........|...........|...........|...........|...........|...........|...........|...........|...........|...........
|...........|...........|...........|...........|...........|...........|...........|...........|...........|...........|...........|...........|...........|...........|...........|...........|^^^........|...........|...........|...........|...........|...........|...........|...........|...........|...........|...........|...........
|...........|...........|...........|...........|...........|...........|...........|...........|...........|...........|...........|C-403......|...........|...........|...........|...........|...........|...........|...........|G#610......|...........|...........|...........|...........|...........|...........|...........|...........
|...........|...........|...........|...........|...........|...........|...........|...........|...........|...........|...........|...........|...........|...........|...........|...........|...........|...........|...........|...........|...........|...........|...........|...........|...........|...........|...........|...........
|...........|...........|...........|...........|...........|...........|...........|...........|...........|...........|...........|...........|...........|...........|...........|...........|...........|...........|...........|...........|...........|...........|...........|...........|...........|...........|...........|...........
|...........|F#302......|F#405......|C#405......|A-305......|...........|...........|...........|E-529......|B-429......|C-403......|...........|...........|...........|C-527......|F-518......|B-511......|...........|...........|...........|...........|...........|...........|...........|...........|...........|...........|...........
|...........|...........|...........|...........|...........|...........|...........|...........|...........|...........|...........|...........|...........|...........|...........|...........|...........|...........|...........|...........|...........|...........|...........|...........|...........|...........|...........|...........
|...........|...........|...........|...........|...........|...........|...........|...........|...........|...........|...........|...........|...........|...........|...........|...........|...........|...........|...........|...........|...........|...........|...........|...........|...........|...........|...........|...........
|...........|...........|...........|...........|...........|...........|...........|...........|...........|...........|...........|...........|...........|...........|...........|...........|...........|...........|...........|...........|...........|...........|...........|...........|...........|...........|...........|...........
|...........|...........|...........|...........|...........|...........|...........|...........|^^^........|^^^........|...........|...........|...........|...........|...........|...........|^^^........|...........|...........|...........|...........|...........|...........|...........|...........|...........|...........|...........
|...........|...........|...........|...........|...........|...........|...........|...........|...........|...........|...........|...........|...........|...........|C-527......|...........|...........|...........|E-510......|...........|...........|...........|...........|...........|...........|...........|...........|...........
|...........|...........|...........|...........|...........|...........|...........|...........|...........|...........|...........|...........|...........|...........|...........|...........|...........|...........|...........|...........|...........|...........|...........|...........|...........|...........|...........|...........
|...........|...........|...........|...........|...........|...........|...........|...........|...........|...........|...........|...........|...........|...........|...........|...........|...........|...........|...........|...........|...........|...........|...........|...........|...........|...........|...........|...........
|...........|...........|...........|...........|...........|...........|...........|...........|...........|...........|G-404......|C-503......|G-525......|...........|C-528......|...........|A-511......|F#611......|........F10|B-610......|...........|...........|...........|...........|...........|...........|...........|...........
|...........|...........|...........|...........|...........|...........|...........|...........|...........|...........|...........|...........|...........|...........|...........|...........|...........|...........|...........|...........|...........|...........|...........|...........|...........|...........|...........|...........
|...........|...........|...........|...........|...........|...........|...........|...........|...........|...........|...........|...........|...........|...........|...........|...........|...........|...........|...........|...........|...........|...........|...........|...........|...........|...........|...........|...........
|...........|...........|...........|...........|...........|...........|...........|...........|...........|...........|...........|...........|...........|...........|...........|...........|...........|...........|...........|...........|...........|...........|...........|...........|...........|...........|...........|...........
|...........|...........|...........|...........|...........|...........|...........|...........|...........|...........|...........|...........|...........|...........|...........|...........|^^^........|^^^........|...........|^^^........|...........|...........|...........|...........|...........|...........|...........|...........
|...........|...........|...........|...........|...........|...........|...........|...........|...........|...........|C-403......|...........|...........|...........|...........|F-518......|...........|...........|........E10|...........|...........|...........|...........|...........|...........|...........|...........|...........
|...........|...........|...........|...........|...........|...........|...........|...........|...........|...........|...........|...........|...........|...........|...........|...........|...........|...........|...........|...........|...........|...........|...........|...........|...........|...........|...........|...........
|...........|...........|...........|...........|...........|...........|...........|...........|...........|...........|...........|...........|...........|...........|...........|...........|...........|...........|...........|...........|...........|...........|...........|...........|...........|...........|...........|...........
|...........|C#302......|G#405......|E-405......|B-305......|...........|...........|...........|...........|...........|...........|C-403......|...........|...........|C-527......|...........|...........|G-611......|...........|B-510......|...........|...........|...........|...........|...........|...........|...........|...........
|...........|...........|...........|...........|...........|...........|...........|...........|...........|...........|...........|...........|...........|...........|...........|...........|...........|...........|...........|...........|...........|...........|...........|...........|...........|...........|...........|...........
|...........|...........|...........|...........|...........|...........|...........|...........|...........|...........|...........|...........|...........|...........|...........|...........|...........|........F08|...........|...........|...........|...........|...........|...........|...........|...........|...........|...........
|...........|...........|...........|...........|...........|...........|...........|...........|...........|...........|...........|...........|...........|...........|...........|...........|...........|...........|...........|...........|...........|...........|...........|...........|...........|...........|...........|...........
|...........|...........|...........|...........|...........|...........|...........|...........|...........|...........|...........|...........|...........|...........|...........|...........|...........|...........|...........|...........|...........|...........|...........|...........|...........|...........|...........|...........
|...........|...........|...........|...........|...........|...........|...........|...........|...........|...........|...........|...........|...........|...........|C-527......|...........|...........|...........|...........|C#610......|...........|...........|...........|...........|...........|...........|...........|...........
|...........|...........|...........|...........|...........|...........|...........|...........|...........|...........|...........|...........|...........|...........|...........|...........|...........|...........|...........|...........|...........|...........|...........|...........|...........|...........|...........|...........
|...........|...........|...........|...........|...........|...........|...........|...........|...........|...........|...........|...........|...........|...........|...........|...........|...........|...........|...........|...........|...........|...........|...........|...........|...........|...........|...........|...........
|...........|...........|...........|...........|...........|...........|...........|...........|...........|...........|C-503......|G-404......|C-526......|...........|C-528......|C-519......|G#511......|...........|C#510......|E-610......|...........|...........|...........|...........|...........|...........|...........|...........
|...........|...........|...........|...........|...........|...........|...........|...........|...........|...........|...........|...........|...........|...........|...........|...........|...........|...........|...........|...........|...........|...........|...........|...........|...........|...........|...........|...........
|...........|...........|...........|...........|...........|...........|...........|...........|...........|...........|...........|...........|...........|...........|...........|...........|...........|...........|...........|...........|...........|...........|...........|...........|...........|...........|...........|...........
|...........|...........|...........|...........|...........|...........|...........|...........|...........|...........|...........|...........|...........|...........|...........|...........|...........|...........|...........|...........|...........|...........|...........|...........|...........|...........|...........|...........
|...........|...........|...........|...........|...........|...........|...........|...........|...........|...........|...........|...........|...........|...........|...........|...........|...........|...........|^^^........|...........|...........|...........|...........|...........|...........|...........|...........|...........
|...........|...........|...........|...........|...........|...........|...........|...........|...........|...........|...........|C-403......|...........|...........|...........|...........|...........|...........|...........|C#610......|...........|...........|...........|...........|...........|...........|...........|...........
|...........|...........|...........|...........|...........|...........|...........|...........|...........|...........|...........|...........|...........|...........|...........|...........|...........|...........|...........|...........|...........|...........|...........|...........|...........|...........|...........|...........
|...........|...........|...........|...........|...........|...........|...........|...........|...........|...........|...........|...........|...........|...........|...........|...........|...........|...........|...........|...........|...........|...........|...........|...........|...........|...........|...........|...........
|...........|F#202......|A-405......|E-405......|C#405......|...........|...........|...........|...........|...........|C-403......|...........|...........|...........|C-527......|F-518......|A-511......|A-611......|B-410......|...........|...........|...........|...........|...........|...........|...........|...........|...........
|...........|...........|...........|...........|...........|...........|...........|...........|...........|...........|...........|...........|...........|...........|...........|...........|...........|...........|...........|...........|...........|...........|...........|...........|...........|...........|...........|...........
|...........|...........|...........|...........|...........|...........|...........|...........|...........|...........|...........|...........|...........|...........|...........|...........|...........|...........|...........|...........|...........|...........|...........|...........|...........|...........|...........|...........
|...........|...........|...........|...........|...........|...........|...........|...........|...........|...........|...........|...........|...........|...........|...........|...........|...........|...........|...........|...........|...........|...........|...........|...........|...........|...........|...........|...........
|...........|...........|...........|...........|...........|...........|...........|...........|...........|...........|...........|...........|...........|...........|...........|...........|^^^........|...........|...........|...........|...........|...........|...........|...........|...........|...........|...........|...........
|...........|...........|...........|...........|...........|...........|...........|...........|...........|...........|...........|...........|...........|...........|C-527......|...........|...........|...........|A-410......|...........|...........|...........|...........|...........|...........|...........|...........|...........
|...........|...........|...........|...........|...........|...........|...........|...........|...........|...........|...........|...........|...........|...........|...........|...........|...........|...........|...........|...........|...........|...........|...........|...........|...........|...........|...........|...........
|...........|...........|...........|...........|...........|...........|...........|...........|...........|...........|...........|...........|...........|...........|...........|...........|...........|...........|...........|...........|...........|...........|...........|...........|...........|...........|...........|...........
|...........|...........|...........|...........|...........|...........|...........|...........|...........|...........|G-404......|C-503......|G-525......|...........|C-528......|C-519......|F#611......|...........|^^^........|C#710......|...........|...........|...........|...........|...........|...........|...........|...........
|...........|...........|...........|...........|...........|...........|...........|...........|...........|...........|...........|...........|...........|...........|...........|...........|...........|...........|...........|...........|...........|...........|...........|...........|...........|...........|...........|...........
|...........|...........|...........|...........|...........|...........|...........|...........|...........|...........|...........|...........|...........|...........|...........|...........|........E10|...........|...........|...........|...........|...........|...........|...........|...........|...........|...........|...........
|...........|...........|...........|...........|...........|...........|...........|...........|...........|...........|...........|...........|...........|...........|...........|...........|...........|...........|...........|^^^........|...........|...........|...........|...........|...........|...........|...........|...........
|...........|...........|...........|...........|...........|...........|...........|...........|...........|...........|...........|...........|...........|...........|...........|...........|...........|...........|...........|...........|...........|...........|...........|...........|...........|...........|...........|...........
|...........|...........|...........|...........|...........|...........|...........|...........|...........|...........|C-403......|...........|...........|...........|...........|...........|...........|B-611......|F#510......|...........|...........|...........|...........|...........|...........|...........|...........|...........
|...........|...........|...........|...........|...........|...........|...........|...........|...........|...........|...........|...........|...........|...........|...........|...........|...........|...........|...........|...........|...........|...........|...........|...........|...........|...........|...........|...........
|...........|...........|...........|...........|...........|...........|...........|...........|...........|...........|...........|...........|...........|...........|...........|...........|...........|...........|...........|...........|...........|...........|...........|...........|...........|...........|...........|...........
Rows: 64
|...........|B-202......|B-405......|G#405......|D#405......|A-305......|...........|...........|...........|...........|...........|C-403......|...........|...........|C-527......|C-519......|...........|...........|...........|G#610......|...........|...........|...........|...........|...........|...........|...........|...........
|...........|...........|...........|...........|...........|...........|...........|...........|...........|...........|...........|...........|...........|...........|...........|...........|...........|...........|...........|...........|...........|...........|...........|...........|...........|...........|...........|...........
|...........|...........|...........|...........|...........|...........|...........|...........|...........|...........|...........|...........|...........|...........|...........|...........|...........|...........|...........|...........|...........|...........|...........|...........|...........|...........|...........|...........
|...........|...........|...........|...........|...........|...........|...........|...........|...........|...........|...........|...........|...........|...........|...........|...........|...........|...........|...........|...........|...........|...........|...........|...........|...........|...........|...........|...........
|...........|...........|...........|...........|...........|...........|...........|...........|...........|...........|...........|...........|...........|...........|...........|...........|...........|...........|...........|...........|...........|...........|...........|...........|...........|...........|...........|...........
|...........|...........|...........|...........|...........|...........|...........|...........|...........|...........|...........|...........|...........|...........|C-527......|...........|...........|...........|...........|F#610......|...........|...........|...........|...........|...........|...........|...........|...........
|...........|...........|...........|...........|...........|...........|...........|...........|...........|...........|...........|...........|...........|...........|...........|...........|...........|...........|...........|...........|...........|...........|...........|...........|...........|...........|...........|...........
|...........|...........|...........|...........|...........|...........|...........|...........|...........|...........|...........|...........|...........|...........|...........|...........|...........|...........|...........|...........|...........|...........|...........|...........|...........|...........|...........|...........
|...........|...........|...........|...........|...........|...........|...........|...........|...........|...........|C-503......|G-404......|C-526......|...........|C-528......|...........|D#610......|...........|...........|G#610......|...........|...........|...........|...........|...........|...........|...........|...........
|...........|...........|...........|...........|...........|...........|...........|...........|...........|...........|...........|...........|...........|...........|...........|...........|...........|...........|...........|...........|...........|...........|...........|...........|...........|...........|...........|...........
|...........|...........|...........|...........|...........|...........|...........|...........|...........|...........|...........|...........|...........|...........|...........|...........|...........|...........|...........|...........|...........|...........|...........|...........|...........|...........|...........|...........
|...........|...........|...........|...........|...........|...........|...........|...........|...........|...........|...........|...........|...........|...........|...........|...........|...........|...........|...........|...........|...........|...........|...........|...........|...........|...........|...........|...........
|...........|...........|...........|...........|...........|...........|...........|...........|...........|...........|...........|...........|...........|...........|...........|...........|^^^........|...........|...........|...........|...........|...........|...........|...........|...........|...........|...........|...........
|...........|...........|...........|...........|...........|...........|...........|...........|...........|...........|...........|C-403......|...........|...........|...........|...........|...........|...........|...........|F#610......|...........|...........|...........|...........|...........|...........|...........|...........
|...........|...........|...........|...........|...........|...........|...........|...........|...........|...........|...........|...........|...........|...........|...........|...........|...........|...........|...........|...........|...........|...........|...........|...........|...........|...........|...........|...........
|...........|...........|...........|...........|...........|...........|...........|...........|...........|...........|...........|...........|...........|...........|...........|...........|...........|...........|...........|...........|...........|...........|...........|...........|...........|...........|...........|...........
|...........|F#302......|...........|...........|...........|...........|...........|...........|...........|...........|C-403......|...........|...........|...........|C-527......|F-518......|C#610......|...........|...........|...........|...........|...........|...........|...........|...........|...........|...........|...........
|...........|...........|...........|...........|...........|...........|...........|...........|...........|...........|...........|...........|...........|...........|...........|...........|...........|...........|...........|...........|...........|...........|...........|...........|...........|...........|...........|...........
|...........|...........|...........|...........|...........|...........|...........|...........|...........|...........|...........|...........|...........|...........|...........|...........|...........|...........|...........|...........|...........|...........|...........|...........|...........|...........|...........|...........
|...........|...........|...........|...........|...........|...........|...........|...........|...........|...........|...........|...........|...........|...........|...........|...........|...........|...........|...........|...........|...........|...........|...........|...........|...........|...........|...........|...........
|...........|...........|...........|...........|...........|...........|...........|...........|...........|...........|...........|...........|...........|...........|...........|...........|...........|...........|...........|...........|...........|...........|...........|...........|...........|...........|...........|...........
|...........|...........|...........|...........|...........|...........|...........|...........|...........|...........|...........|...........|...........|...........|C-527......|...........|B-510......|...........|D#510......|...........|...........|...........|...........|...........|...........|...........|...........|...........
|...........|...........|...........|...........|...........|...........|...........|...........|...........|...........|...........|...........|...........|...........|...........|...........|...........|...........|...........|...........|...........|...........|...........|...........|...........|...........|...........|...........
|...........|...........|...........|...........|...........|...........|...........|...........|...........|...........|...........|...........|...........|...........|...........|...........|...........|...........|...........|...........|...........|...........|...........|...........|...........|...........|...........|...........
|...........|...........|...........|...........|...........|...........|...........|...........|...........|...........|G-404......|C-503......|G-525......|...........|C-528......|...........|^^^........|...........|E-510......|C#710......|...........|...........|...........|...........|...........|...........|...........|...........
|...........|...........|...........|...........|...........|...........|...........|...........|...........|...........|...........|...........|...........|...........|...........|...........|...........|...........|...........|...........|...........|...........|...........|...........|...........|...........|...........|...........
|...........|...........|...........|...........|...........|...........|...........|...........|...........|...........|...........|...........|...........|...........|...........|...........|...........|...........|...........|........F10|...........|...........|...........|...........|...........|...........|...........|...........
|...........|...........|...........|...........|...........|...........|...........|...........|...........|...........|...........|...........|...........|...........|...........|...........|...........|...........|...........|...........|...........|...........|...........|...........|...........|...........|...........|...........
|...........|...........|...........|...........|...........|...........|...........|...........|...........|...........|...........|...........|...........|...........|...........|...........|...........|...........|...........|...........|...........|...........|...........|...........|...........|...........|...........|...........
|...........|...........|...........|...........|...........|...........|...........|...........|...........|...........|C-403......|...........|...........|...........|...........|F-518......|G#610......|...........|D#510......|........E10|...........|...........|...........|...........|...........|...........|...........|...........
|...........|...........|...........|...........|...........|...........|...........|...........|...........|...........|...........|...........|...........|...........|...........|...........|...........|...........|...........|...........|...........|...........|...........|...........|...........|...........|...........|...........
|...........|...........|...........|...........|...........|...........|...........|...........|...........|...........|...........|...........|...........|...........|...........|...........|........E10|...........|...........|...........|...........|...........|...........|...........|...........|...........|...........|...........
|...........|B-202......|...........|...........|...........|...........|...........|...........|...........|...........|...........|C-403......|...........|...........|C-527......|...........|...........|...........|...........|...........|...........|...........|...........|...........|...........|...........|...........|...........
|...........|...........|...........|...........|...........|...........|...........|...........|...........|...........|...........|...........|...........|...........|...........|...........|...........|...........|...........|...........|...........|...........|...........|...........|...........|...........|...........|...........
|...........|...........|...........|...........|...........|...........|...........|...........|...........|...........|...........|...........|...........|...........|...........|...........|...........|...........|...........|...........|...........|...........|...........|...........|...........|...........|...........|...........
|...........|...........|...........|...........|...........|...........|...........|...........|...........|...........|...........|...........|...........|...........|...........|...........|...........|...........|...........|...........|...........|...........|...........|...........|...........|...........|...........|...........
|...........|...........|...........|...........|...........|...........|...........|...........|...........|...........|...........|...........|...........|...........|...........|...........|...........|...........|...........|...........|...........|...........|...........|...........|...........|...........|...........|...........
|...........|...........|...........|...........|...........|...........|...........|...........|...........|...........|...........|...........|...........|...........|C-527......|...........|...........|...........|...........|B-610......|...........|...........|...........|...........|...........|...........|...........|...........
|...........|...........|...........|...........|...........|...........|...........|...........|...........|...........|...........|...........|...........|...........|...........|...........|...........|...........|...........|...........|...........|...........|...........|...........|...........|...........|...........|...........
|...........|...........|...........|...........|...........|...........|...........|...........|...........|...........|...........|...........|...........|...........|...........|...........|...........|...........|...........|...........|...........|...........|...........|...........|...........|...........|...........|...........
|...........|...........|...........|...........|...........|...........|...........|...........|...........|...........|C-503......|G-404......|C-526......|...........|C-528......|C-519......|C#610......|...........|E-510......|G#610......|...........|...........|...........|...........|...........|...........|...........|...........
|...........|...........|...........|...........|...........|...........|...........|...........|...........|...........|...........|...........|...........|...........|...........|...........|...........|...........|...........|...........|...........|...........|...........|...........|...........|...........|...........|...........
|...........|...........|...........|...........|...........|...........|...........|...........|...........|...........|...........|...........|...........|...........|...........|...........|........F10|...........|...........|...........|...........|...........|...........|...........|...........|...........|...........|...........
|...........|...........|...........|...........|...........|...........|...........|...........|...........|...........|...........|...........|...........|...........|...........|...........|...........|...........|^^^........|...........|...........|...........|...........|...........|...........|...........|...........|...........
|...........|...........|...........|...........|...........|...........|...........|...........|...........|...........|...........|...........|...........|...........|...........|...........|^^^........|...........|...........|...........|...........|...........|...........|...........|...........|...........|...........|...........
|...........|...........|...........|...........|...........|...........|...........|...........|...........|...........|...........|C-403......|...........|...........|...........|...........|...........|...........|...........|F#610......|...........|...........|...........|...........|...........|...........|...........|...........
|...........|...........|...........|...........|...........|...........|...........|...........|...........|...........|...........|...........|...........|...........|...........|...........|...........|...........|...........|...........|...........|...........|...........|...........|...........|...........|...........|...........
|...........|...........|...........|...........|...........|...........|...........|...........|...........|...........|...........|...........|...........|...........|...........|...........|...........|...........|...........|...........|...........|...........|...........|...........|...........|...........|...........|...........
|...........|F#302......|...........|...........|...........|...........|...........|...........|...........|...........|C-403......|...........|...........|...........|C-527......|F-518......|...........|...........|F#510......|...........|...........|...........|...........|...........|...........|...........|...........|...........
|...........|...........|...........|...........|...........|...........|...........|...........|...........|...........|...........|...........|...........|...........|...........|...........|...........|...........|...........|...........|...........|...........|...........|...........|...........|...........|...........|...........
|...........|...........|...........|...........|...........|...........|...........|...........|...........|...........|...........|...........|...........|...........|...........|...........|...........|...........|...........|...........|...........|...........|...........|...........|...........|...........|...........|...........
|...........|...........|...........|...........|...........|...........|...........|...........|...........|...........|...........|...........|...........|...........|...........|...........|...........|...........|^^^........|...........|...........|...........|...........|...........|...........|...........|...........|...........
|...........|...........|...........|...........|...........|...........|...........|...........|...........|...........|...........|...........|...........|...........|...........|...........|...........|...........|...........|...........|...........|...........|...........|...........|...........|...........|...........|...........
|...........|...........|...........|...........|...........|...........|...........|...........|...........|...........|...........|...........|...........|...........|C-527......|...........|C#610......|...........|...........|...........|...........|...........|...........|...........|...........|...........|...........|...........
|...........|...........|...........|...........|...........|...........|...........|...........|...........|...........|...........|...........|...........|...........|...........|...........|...........|...........|...........|...........|...........|...........|...........|...........|...........|...........|...........|...........
|...........|...........|...........|...........|...........|...........|...........|...........|...........|...........|...........|...........|...........|...........|...........|...........|...........|...........|...........|...........|...........|...........|...........|...........|...........|...........|...........|...........
|...........|...........|...........|...........|...........|...........|...........|...........|...........|...........|G-404......|C-503......|G-525......|...........|C-528......|C-519......|B-510......|...........|F#510......|G#610......|...........|...........|...........|...........|...........|...........|...........|...........
|...........|...........|...........|...........|...........|...........|...........|...........|...........|...........|...........|...........|...........|...........|...........|...........|...........|...........|...........|...........|...........|...........|...........|...........|...........|...........|...........|...........
|...........|...........|...........|...........|...........|...........|...........|...........|...........|...........|...........|...........|...........|...........|...........|...........|...........|...........|........F10|...........|...........|...........|...........|...........|...........|...........|...........|...........
|...........|...........|...........|...........|...........|...........|...........|...........|...........|...........|...........|...........|...........|...........|...........|...........|^^^........|...........|...........|...........|...........|...........|...........|...........|...........|...........|...........|...........
|...........|...........|...........|...........|...........|...........|...........|...........|...........|...........|...........|...........|...........|...........|...........|...........|...........|...........|...........|^^^........|...........|...........|...........|...........|...........|...........|...........|...........
|...........|...........|...........|...........|...........|...........|...........|...........|...........|...........|C-403......|...........|...........|...........|...........|...........|B-610......|...........|...........|...........|...........|...........|...........|...........|...........|...........|...........|...........
|...........|...........|...........|...........|...........|...........|...........|...........|...........|...........|...........|...........|...........|...........|...........|...........|...........|...........|...........|...........|...........|...........|...........|...........|...........|...........|...........|...........
|...........|...........|...........|...........|...........|...........|...........|...........|...........|...........|...........|...........|...........|...........|...........|...........|........E10|...........|...........|...........|...........|...........|...........|...........|...........|...........|...........|...........
Rows: 64
|...........|B-202......|B-405......|D-405......|A-305......|F#405......|...........|...........|...........|...........|...........|C-403......|...........|...........|C-527......|C-519......|...........|...........|...........|...........|...........|...........|...........|...........|...........|...........|...........|...........
|...........|...........|...........|...........|...........|...........|...........|...........|...........|...........|...........|...........|...........|...........|...........|...........|...........|...........|...........|...........|...........|...........|...........|...........|...........|...........|...........|...........
|...........|...........|...........|...........|...........|...........|...........|...........|...........|...........|...........|...........|...........|...........|...........|...........|...........|...........|...........|...........|...........|...........|...........|...........|...........|...........|...........|...........
|...........|...........|...........|...........|...........|...........|...........|...........|...........|...........|...........|...........|...........|...........|...........|...........|...........|...........|...........|...........|...........|...........|...........|...........|...........|...........|...........|...........
|...........|...........|...........|...........|...........|...........|...........|...........|...........|...........|...........|...........|...........|...........|...........|...........|...........|...........|...........|...........|...........|...........|...........|...........|...........|...........|...........|...........
|...........|...........|...........|...........|...........|...........|...........|...........|...........|...........|...........|...........|...........|...........|C-527......|...........|...........|...........|...........|...........|...........|...........|...........|...........|...........|...........|...........|...........
|...........|...........|...........|...........|...........|...........|...........|...........|...........|...........|...........|...........|...........|...........|...........|...........|...........|...........|...........|...........|...........|...........|...........|...........|...........|...........|...........|...........
|...........|...........|...........|...........|...........|...........|...........|...........|...........|...........|...........|...........|...........|...........|...........|...........|...........|...........|...........|...........|...........|...........|...........|...........|...........|...........|...........|...........
|...........|...........|...........|...........|...........|...........|...........|...........|...........|...........|C-503......|G-404......|C-526......|...........|C-528......|...........|F#610......|B-611......|C#510......|...........|...........|...........|...........|...........|...........|...........|...........|...........
|...........|...........|...........|...........|...........|...........|...........|...........|...........|...........|...........|...........|...........|...........|...........|...........|...........|...........|...........|...........|...........|...........|...........|...........|...........|...........|...........|...........
|...........|...........|...........|...........|...........|...........|...........|...........|...........|...........|...........|...........|...........|...........|...........|...........|...........|...........|...........|...........|...........|...........|...........|...........|...........|...........|...........|...........
|...........|...........|...........|...........|...........|...........|...........|...........|...........|...........|...........|...........|...........|...........|...........|...........|...........|...........|...........|...........|...........|...........|...........|...........|...........|...........|...........|...........
|...........|...........|...........|...........|...........|...........|...........|...........|...........|...........|...........|...........|...........|...........|...........|...........|^^^........|...........|...........|...........|...........|...........|...........|...........|...........|...........|...........|...........
|...........|...........|...........|...........|...........|...........|...........|...........|...........|...........|...........|C-403......|...........|...........|...........|...........|...........|...........|...........|...........|...........|...........|...........|...........|...........|...........|...........|...........
|...........|...........|...........|...........|...........|...........|...........|...........|...........|...........|...........|...........|...........|...........|...........|...........|...........|...........|...........|...........|...........|...........|...........|...........|...........|...........|...........|...........
|...........|...........|...........|...........|...........|...........|...........|...........|...........|...........|...........|...........|...........|...........|...........|...........|...........|...........|...........|...........|...........|...........|...........|...........|...........|...........|...........|...........
|...........|F#302......|C#505......|A-405......|E-405......|...........|...........|...........|...........|...........|C-403......|...........|...........|...........|C-527......|F-518......|...........|...........|...........|...........|...........|...........|...........|...........|...........|...........|...........|...........
|...........|...........|...........|...........|...........|...........|...........|...........|...........|...........|...........|...........|...........|...........|...........|...........|...........|...........|...........|...........|...........|...........|...........|...........|...........|...........|...........|...........
|...........|...........|...........|...........|...........|...........|...........|...........|...........|...........|...........|...........|...........|...........|...........|...........|...........|...........|...........|...........|...........|...........|...........|...........|...........|...........|...........|...........
|...........|...........|...........|...........|...........|...........|...........|...........|...........|...........|...........|...........|...........|...........|...........|...........|...........|...........|...........|...........|...........|...........|...........|...........|...........|...........|...........|...........
|...........|...........|...........|...........|...........|...........|...........|...........|...........|...........|...........|...........|...........|...........|...........|...........|...........|...........|...........|...........|...........|...........|...........|...........|...........|...........|...........|...........
|...........|...........|...........|...........|...........|...........|...........|...........|...........|...........|...........|...........|...........|...........|C-527......|...........|E-610......|...........|...........|F#610......|...........|...........|...........|...........|...........|...........|...........|...........
|...........|...........|...........|...........|...........|...........|...........|...........|...........|...........|...........|...........|...........|...........|...........|...........|...........|...........|...........|...........|...........|...........|...........|...........|...........|...........|...........|...........
|...........|...........|...........|...........|...........|...........|...........|...........|...........|...........|...........|...........|...........|...........|...........|...........|...........|...........|...........|...........|...........|...........|...........|...........|...........|...........|...........|...........
|...........|...........|...........|...........|...........|...........|...........|...........|...........|...........|G-404......|C-503......|G-525......|...........|C-528......|...........|D-610......|C#711......|^^^........|G#610......|...........|...........|...........|...........|...........|...........|...........|...........
|...........|...........|...........|...........|...........|...........|...........|...........|...........|...........|...........|...........|...........|...........|...........|...........|...........|...........|...........|...........|...........|...........|...........|...........|...........|...........|...........|...........
|...........|...........|...........|...........|...........|...........|...........|...........|...........|...........|...........|...........|...........|...........|...........|...........|...........|...........|...........|...........|...........|...........|...........|...........|...........|...........|...........|...........
|...........|...........|...........|...........|...........|...........|...........|...........|...........|...........|...........|...........|...........|...........|...........|...........|...........|...........|...........|...........|...........|...........|...........|...........|...........|...........|...........|...........
|...........|...........|...........|...........|...........|...........|...........|...........|...........|...........|...........|...........|...........|...........|...........|...........|...........|^^^........|...........|...........|...........|...........|...........|...........|...........|...........|...........|...........
|...........|...........|...........|...........|...........|...........|...........|...........|...........|...........|C-403......|...........|...........|...........|...........|F-518......|C#610......|...........|E-510......|A-610......|...........|...........|...........|...........|...........|...........|...........|...........
|...........|...........|...........|...........|...........|...........|...........|...........|...........|...........|...........|...........|...........|...........|...........|...........|...........|...........|...........|...........|...........|...........|...........|...........|...........|...........|...........|...........
|...........|...........|...........|...........|...........|...........|...........|...........|...........|...........|...........|...........|...........|...........|...........|...........|...........|...........|...........|...........|...........|...........|...........|...........|...........|...........|...........|...........
|...........|B-302......|D-505......|A-405......|F#405......|...........|...........|...........|...........|...........|...........|C-403......|...........|...........|C-527......|...........|...........|D-711......|........F10|...........|...........|...........|...........|...........|...........|...........|...........|...........
|...........|...........|...........|...........|...........|...........|...........|...........|...........|...........|...........|...........|...........|...........|...........|...........|...........|...........|...........|...........|...........|...........|...........|...........|...........|...........|...........|...........
|...........|...........|...........|...........|...........|...........|...........|...........|...........|...........|...........|...........|...........|...........|...........|...........|...........|...........|...........|...........|...........|...........|...........|...........|...........|...........|...........|...........
|...........|...........|...........|...........|...........|...........|...........|...........|...........|...........|...........|...........|...........|...........|...........|...........|...........|...........|...........|...........|...........|...........|...........|...........|...........|...........|...........|...........
|...........|...........|...........|...........|...........|...........|...........|...........|...........|...........|...........|...........|...........|...........|...........|...........|...........|...........|...........|...........|...........|...........|...........|...........|...........|...........|...........|...........
|...........|...........|...........|...........|...........|...........|...........|...........|...........|...........|...........|...........|...........|...........|C-527......|...........|...........|...........|........E10|...........|...........|...........|...........|...........|...........|...........|...........|...........
|...........|...........|...........|...........|...........|...........|...........|...........|...........|...........|...........|...........|...........|...........|...........|...........|...........|...........|...........|...........|...........|...........|...........|...........|...........|...........|...........|...........
|...........|...........|...........|...........|...........|...........|...........|...........|...........|...........|...........|...........|...........|...........|...........|...........|...........|...........|...........|...........|...........|...........|...........|...........|...........|...........|...........|...........
|...........|...........|...........|...........|...........|...........|...........|...........|...........|...........|C-503......|G-404......|C-526......|...........|C-528......|C-519......|D-610......|...........|...........|C#710......|...........|...........|...........|...........|...........|...........|...........|...........
|...........|...........|...........|...........|...........|...........|...........|...........|...........|...........|...........|...........|...........|...........|...........|...........|...........|...........|...........|...........|...........|...........|...........|...........|...........|...........|...........|...........
|...........|...........|...........|...........|...........|...........|...........|...........|...........|...........|...........|...........|...........|...........|...........|...........|...........|...........|...........|...........|...........|...........|...........|...........|...........|...........|...........|...........
|...........|...........|...........|...........|...........|...........|...........|...........|...........|...........|...........|...........|...........|...........|...........|...........|...........|...........|...........|^^^........|...........|...........|...........|...........|...........|...........|...........|...........
|...........|...........|...........|...........|...........|...........|...........|...........|...........|...........|...........|...........|...........|...........|...........|...........|^^^........|...........|...........|...........|...........|...........|...........|...........|...........|...........|...........|...........
|...........|...........|...........|...........|...........|...........|...........|...........|...........|...........|...........|C-403......|...........|...........|...........|...........|...........|...........|B-510......|...........|...........|...........|...........|...........|...........|...........|...........|...........
|...........|...........|...........|...........|...........|...........|...........|...........|...........|...........|...........|...........|...........|...........|...........|...........|...........|...........|...........|...........|...........|...........|...........|...........|...........|...........|...........|...........
|...........|...........|...........|...........|...........|...........|...........|...........|...........|...........|...........|...........|...........|...........|...........|...........|...........|...........|........F08|...........|...........|...........|...........|...........|...........|...........|...........|...........
|...........|E-302......|E-505......|D-405......|G#405......|C#505......|...........|...........|...........|...........|C-403......|...........|...........|...........|C-527......|F-518......|...........|E-711......|...........|E-610......|...........|...........|...........|...........|...........|...........|...........|...........
|...........|...........|...........|...........|...........|...........|...........|...........|...........|...........|...........|...........|...........|...........|...........|...........|...........|...........|...........|...........|...........|...........|...........|...........|...........|...........|...........|...........
|...........|...........|...........|...........|...........|...........|...........|...........|...........|...........|...........|...........|...........|...........|...........|...........|...........|...........|^^^........|...........|...........|...........|...........|...........|...........|...........|...........|...........
|...........|...........|...........|...........|...........|...........|...........|...........|...........|...........|...........|...........|...........|...........|...........|...........|...........|...........|...........|...........|...........|...........|...........|...........|...........|...........|...........|...........
|...........|...........|...........|...........|...........|...........|...........|...........|...........|...........|...........|...........|...........|...........|...........|...........|...........|...........|...........|...........|...........|...........|...........|...........|...........|...........|...........|...........
|...........|...........|...........|...........|...........|...........|...........|...........|...........|...........|...........|...........|...........|...........|C-527......|...........|A-610......|...........|B-510......|........F10|...........|...........|...........|...........|...........|...........|...........|...........
|...........|...........|...........|...........|...........|...........|...........|...........|...........|...........|...........|...........|...........|...........|...........|...........|...........|...........|...........|...........|...........|...........|...........|...........|...........|...........|...........|...........
|...........|...........|...........|...........|...........|...........|...........|...........|...........|...........|...........|...........|...........|...........|...........|...........|...........|...........|...........|...........|...........|...........|...........|...........|...........|...........|...........|...........
|...........|...........|...........|...........|...........|...........|...........|...........|...........|...........|G-404......|C-503......|G-525......|...........|C-528......|C-519......|........F10|...........|F#510v30...|E-710......|...........|...........|...........|...........|...........|...........|...........|...........
|...........|...........|...........|...........|...........|...........|...........|...........|...........|...........|...........|...........|...........|...........|...........|...........|...........|...........|...........|...........|...........|...........|...........|...........|...........|...........|...........|...........
|...........|...........|...........|...........|...........|...........|...........|...........|...........|...........|...........|...........|...........|...........|...........|...........|...........|...........|...........|........F10|...........|...........|...........|...........|...........|...........|...........|...........
|...........|...........|...........|...........|...........|...........|...........|...........|...........|...........|...........|...........|...........|...........|...........|...........|...........|...........|...........|...........|...........|...........|...........|...........|...........|...........|...........|...........
|...........|...........|...........|...........|...........|...........|...........|...........|...........|...........|...........|...........|...........|...........|...........|...........|...........|...........|...........|...........|...........|...........|...........|...........|...........|...........|...........|...........
|...........|...........|...........|...........|...........|...........|...........|...........|...........|...........|C-403......|...........|...........|...........|...........|...........|........E10|E-711......|A-510......|........E10|...........|...........|...........|...........|...........|...........|...........|...........
|...........|...........|...........|...........|...........|...........|...........|...........|...........|...........|...........|...........|...........|...........|...........|...........|...........|........F10|...........|...........|...........|...........|...........|...........|...........|...........|...........|...........
|...........|...........|...........|...........|...........|...........|...........|...........|...........|...........|...........|...........|...........|...........|...........|...........|...........|...........|...........|...........|...........|...........|...........|...........|...........|...........|...........|...........
Rows: 64
|...........|E-402......|F#505......|B-405......|G-405......|D-405......|...........|...........|...........|...........|...........|C-403......|...........|...........|...........|C-519......|...........|...........|...........|...........|...........|...........|...........|...........|...........|...........|...........|...........
|...........|...........|...........|...........|...........|...........|...........|...........|...........|...........|...........|...........|...........|...........|...........|...........|...........|...........|...........|...........|...........|...........|...........|...........|...........|...........|...........|...........
|...........|...........|...........|...........|...........|...........|...........|...........|...........|...........|...........|...........|...........|...........|...........|...........|...........|...........|...........|...........|...........|...........|...........|...........|...........|...........|...........|...........
|...........|...........|...........|...........|...........|...........|...........|...........|...........|...........|...........|...........|...........|...........|...........|...........|...........|...........|...........|...........|...........|...........|...........|...........|...........|...........|...........|...........
|...........|...........|...........|...........|...........|...........|...........|...........|...........|...........|...........|...........|...........|...........|...........|...........|...........|...........|...........|...........|...........|...........|...........|...........|...........|...........|...........|...........
|...........|...........|...........|...........|...........|...........|...........|...........|...........|...........|...........|...........|...........|...........|...........|...........|...........|...........|...........|...........|...........|...........|...........|...........|...........|...........|...........|...........
|...........|...........|...........|...........|...........|...........|...........|...........|...........|...........|...........|...........|...........|...........|...........|...........|...........|...........|...........|...........|...........|...........|...........|...........|...........|...........|...........|...........
|...........|...........|...........|...........|...........|...........|...........|...........|...........|...........|...........|...........|...........|...........|...........|...........|...........|...........|...........|...........|...........|...........|...........|...........|...........|...........|...........|...........
|...........|...........|...........|...........|...........|...........|...........|...........|...........|...........|C-503......|G-404......|C-526......|...........|...........|...........|F#610......|...........|...........|D-710......|...........|...........|...........|...........|...........|...........|...........|...........
|...........|...........|...........|...........|...........|...........|...........|...........|...........|...........|...........|...........|...........|...........|...........|...........|...........|...........|...........|...........|...........|...........|...........|...........|...........|...........|...........|...........
|...........|...........|...........|...........|...........|...........|...........|...........|...........|...........|...........|...........|...........|...........|...........|...........|...........|...........|...........|C#710...SD2|...........|...........|...........|...........|...........|...........|...........|...........
|...........|...........|...........|...........|...........|...........|...........|...........|...........|...........|...........|...........|...........|...........|...........|...........|...........|...........|...........|...........|...........|...........|...........|...........|...........|...........|...........|...........
|...........|...........|...........|...........|...........|...........|...........|...........|...........|...........|...........|...........|...........|...........|...........|...........|^^^........|...........|...........|...........|...........|...........|...........|...........|...........|...........|...........|...........
|...........|...........|...........|...........|...........|...........|...........|...........|...........|...........|...........|C-403......|...........|...........|...........|...........|...........|...........|...........|B-610...SD1|...........|...........|...........|...........|...........|...........|...........|...........
|...........|...........|...........|...........|...........|...........|...........|...........|...........|...........|...........|...........|...........|...........|...........|...........|...........|...........|...........|...........|...........|...........|...........|...........|...........|...........|...........|...........
|...........|...........|...........|...........|...........|...........|...........|...........|...........|...........|...........|...........|...........|...........|...........|...........|...........|...........|...........|...........|...........|...........|...........|...........|...........|...........|...........|...........
|...........|E-302......|...........|...........|...........|...........|...........|...........|...........|...........|C-403......|...........|...........|...........|...........|F-518......|D-610......|...........|^^^........|A-610......|...........|...........|...........|...........|...........|...........|...........|...........
|...........|...........|...........|...........|...........|...........|...........|...........|...........|...........|...........|...........|...........|...........|...........|...........|...........|...........|...........|...........|...........|...........|...........|...........|...........|...........|...........|...........
|...........|...........|...........|...........|...........|...........|...........|...........|...........|...........|...........|...........|...........|...........|...........|...........|...........|...........|...........|...........|...........|...........|...........|...........|...........|...........|...........|...........
|...........|...........|...........|...........|...........|...........|...........|...........|...........|...........|...........|...........|...........|...........|...........|...........|...........|...........|...........|...........|...........|...........|...........|...........|...........|...........|...........|...........
|...........|...........|...........|...........|...........|...........|...........|...........|...........|...........|...........|...........|...........|...........|...........|...........|...........|...........|...........|...........|...........|...........|...........|...........|...........|...........|...........|...........
|...........|...........|...........|...........|...........|...........|...........|...........|...........|...........|...........|...........|...........|...........|...........|...........|B-510......|...........|...........|...........|...........|...........|...........|...........|...........|...........|...........|...........
|...........|...........|...........|...........|...........|...........|...........|...........|...........|...........|...........|...........|...........|...........|...........|...........|...........|...........|...........|...........|...........|...........|...........|...........|...........|...........|...........|...........
|...........|...........|...........|...........|...........|...........|...........|...........|...........|...........|...........|...........|...........|...........|...........|...........|...........|...........|...........|...........|...........|...........|...........|...........|...........|...........|...........|...........
|...........|...........|...........|...........|...........|...........|...........|...........|...........|...........|G-404......|C-503......|G-525......|...........|...........|...........|^^^........|...........|...........|B-610......|...........|...........|...........|...........|...........|...........|...........|...........
|...........|...........|...........|...........|...........|...........|...........|...........|...........|...........|...........|...........|...........|...........|...........|...........|...........|...........|...........|........F10|...........|...........|...........|...........|...........|...........|...........|...........
|...........|...........|...........|...........|...........|...........|...........|...........|...........|...........|...........|...........|...........|...........|...........|...........|...........|...........|...........|...........|...........|...........|...........|...........|...........|...........|...........|...........
|...........|...........|...........|...........|...........|...........|...........|...........|...........|...........|...........|...........|...........|...........|...........|...........|...........|...........|...........|...........|...........|...........|...........|...........|...........|...........|...........|...........
|...........|...........|...........|...........|...........|...........|...........|...........|...........|...........|...........|...........|...........|...........|...........|...........|...........|...........|...........|^^^........|...........|...........|...........|...........|...........|...........|...........|...........
|...........|...........|...........|...........|...........|...........|...........|...........|...........|...........|C-403......|...........|...........|...........|...........|F-518......|F#510......|...........|...........|...........|...........|...........|...........|...........|...........|...........|...........|...........
|...........|...........|...........|...........|...........|...........|...........|...........|...........|...........|...........|...........|...........|...........|...........|...........|...........|...........|...........|...........|...........|...........|...........|...........|...........|...........|...........|...........
|...........|...........|...........|...........|...........|...........|...........|...........|...........|...........|...........|...........|...........|...........|...........|...........|...........|...........|...........|...........|...........|...........|...........|...........|...........|...........|...........|...........
|...........|A-302......|B-405......|F#405......|D-405......|G-305......|...........|...........|...........|...........|...........|C-403......|...........|...........|...........|...........|G-510......|B-611......|...........|F#610......|...........|...........|...........|...........|...........|...........|...........|...........
|...........|...........|...........|...........|...........|...........|...........|...........|...........|...........|...........|...........|...........|...........|...........|...........|...........|...........|...........|...........|...........|...........|...........|...........|...........|...........|...........|...........
|...........|...........|...........|...........|...........|...........|...........|...........|...........|...........|...........|...........|...........|...........|...........|...........|...........|...........|...........|...........|...........|...........|...........|...........|...........|...........|...........|...........
|...........|...........|...........|...........|...........|...........|...........|...........|...........|...........|...........|...........|...........|...........|...........|...........|...........|...........|...........|...........|...........|...........|...........|...........|...........|...........|...........|...........
|...........|...........|...........|...........|...........|...........|...........|...........|...........|...........|...........|...........|...........|...........|...........|...........|...........|...........|...........|...........|...........|...........|...........|...........|...........|...........|...........|...........
|...........|...........|...........|...........|...........|...........|...........|...........|...........|...........|...........|...........|...........|...........|...........|...........|A-510......|...........|...........|...........|...........|...........|...........|...........|...........|...........|...........|...........
|...........|...........|...........|...........|...........|...........|...........|...........|...........|...........|...........|...........|...........|...........|...........|...........|...........|...........|...........|...........|...........|...........|...........|...........|...........|...........|...........|...........
|...........|...........|...........|...........|...........|...........|...........|...........|...........|...........|...........|...........|...........|...........|...........|...........|...........|...........|...........|...........|...........|...........|...........|...........|...........|...........|...........|...........
|...........|...........|...........|...........|...........|...........|...........|...........|...........|...........|C-503......|G-404......|C-526......|...........|...........|C-519......|B-510......|...........|...........|B-610......|...........|...........|...........|...........|...........|...........|...........|...........
|...........|...........|...........|...........|...........|...........|...........|...........|...........|...........|...........|...........|...........|...........|...........|...........|...........|...........|...........|...........|...........|...........|...........|...........|...........|...........|...........|...........
|...........|...........|...........|...........|...........|...........|...........|...........|...........|...........|...........|...........|...........|...........|...........|...........|...........|...........|...........|...........|...........|...........|...........|...........|...........|...........|...........|...........
|...........|...........|...........|...........|...........|...........|...........|...........|...........|...........|...........|...........|...........|...........|...........|...........|...........|...........|...........|^^^........|...........|...........|...........|...........|...........|...........|...........|...........
|...........|...........|...........|...........|...........|...........|...........|...........|...........|...........|...........|...........|...........|...........|...........|...........|...........|...........|...........|...........|...........|...........|...........|...........|...........|...........|...........|...........
|...........|...........|...........|...........|...........|...........|...........|...........|...........|...........|...........|C-403......|...........|...........|...........|...........|C#610......|...........|...........|...........|...........|...........|...........|...........|...........|...........|...........|...........
|...........|...........|...........|...........|...........|...........|...........|...........|...........|...........|...........|...........|...........|...........|...........|...........|...........|...........|...........|...........|...........|...........|...........|...........|...........|...........|...........|...........
|...........|...........|...........|...........|...........|...........|...........|...........|...........|...........|...........|...........|...........|...........|...........|...........|...........|...........|...........|...........|...........|...........|...........|...........|...........|...........|...........|...........
|...........|A-202......|E-505......|B-405......|F#405......|C#405......|...........|...........|...........|...........|C-403......|...........|...........|...........|...........|F-518......|...........|E-711......|E-610......|...........|...........|...........|...........|...........|...........|...........|...........|...........
|...........|...........|...........|...........|...........|...........|...........|...........|...........|...........|...........|...........|...........|...........|...........|...........|...........|...........|...........|...........|...........|...........|...........|...........|...........|...........|...........|...........
|...........|...........|...........|...........|...........|...........|...........|...........|...........|...........|...........|...........|...........|...........|...........|...........|...........|...........|...........|...........|...........|...........|...........|...........|...........|...........|...........|...........
|...........|...........|...........|...........|...........|...........|...........|...........|...........|...........|...........|...........|...........|...........|...........|...........|...........|...........|...........|...........|...........|...........|...........|...........|...........|...........|...........|...........
|...........|...........|...........|...........|...........|...........|...........|...........|...........|...........|...........|...........|...........|...........|...........|...........|...........|...........|...........|...........|...........|...........|...........|...........|...........|...........|...........|...........
|...........|...........|...........|...........|...........|...........|...........|...........|...........|...........|...........|...........|...........|...........|...........|...........|D-610......|...........|........F10|...........|...........|...........|...........|...........|...........|...........|...........|...........
|...........|...........|...........|...........|...........|...........|...........|...........|...........|...........|...........|...........|...........|...........|...........|...........|...........|...........|...........|...........|...........|...........|...........|...........|...........|...........|...........|...........
|...........|...........|...........|...........|...........|...........|...........|...........|...........|...........|...........|...........|...........|...........|...........|...........|...........|...........|...........|...........|...........|...........|...........|...........|...........|...........|...........|...........
|...........|...........|...........|...........|...........|...........|...........|...........|...........|...........|G-404......|C-503......|G-525......|...........|...........|C-519......|E-610......|...........|...........|A-610......|...........|...........|...........|...........|...........|...........|...........|...........
|...........|...........|...........|...........|...........|...........|...........|...........|...........|...........|...........|...........|...........|...........|...........|...........|...........|...........|...........|...........|...........|...........|...........|...........|...........|...........|...........|...........
|...........|...........|...........|...........|...........|...........|...........|...........|...........|...........|...........|...........|...........|...........|...........|...........|...........|...........|...........|...........|...........|...........|...........|...........|...........|...........|...........|...........
|...........|...........|...........|...........|...........|...........|...........|...........|...........|...........|...........|...........|...........|...........|...........|...........|...........|...........|...........|...........|...........|...........|...........|...........|...........|...........|...........|...........
|...........|...........|...........|...........|...........|...........|...........|...........|...........|...........|...........|...........|...........|...........|...........|...........|...........|...........|...........|...........|...........|...........|...........|...........|...........|...........|...........|...........
|...........|...........|...........|...........|...........|...........|...........|...........|...........|...........|C-403......|...........|...........|...........|...........|F-518......|F#610......|C#711......|...........|...........|...........|...........|...........|...........|...........|...........|...........|...........
|...........|...........|...........|...........|...........|...........|...........|...........|...........|...........|...........|...........|...........|...........|...........|...........|...........|...........|...........|...........|...........|...........|...........|...........|...........|...........|...........|...........
|...........|...........|...........|...........|...........|...........|...........|...........|...........|...........|...........|...........|...........|...........|...........|...........|...........|...........|...........|...........|...........|...........|...........|...........|...........|...........|...........|...........
Rows: 64
|...........|D-402...M33|C#505......|A-405......|E-405......|B-305......|...........|...........|...........|...........|...........|C-403......|...........|C-520......|C-527......|C-519......|...........|...........|...........|...........|...........|...........|...........|...........|...........|...........|...........|...........
|...........|...........|...........|...........|...........|...........|...........|...........|...........|...........|...........|...........|...........|...........|...........|...........|...........|...........|...........|...........|...........|...........|...........|...........|...........|...........|...........|...........
|...........|...........|...........|...........|...........|...........|...........|...........|...........|...........|...........|...........|...........|...........|...........|...........|...........|...........|...........|...........|...........|...........|...........|...........|...........|...........|...........|...........
|...........|...........|...........|...........|...........|...........|...........|...........|...........|...........|...........|...........|...........|...........|...........|...........|...........|...........|...........|...........|...........|...........|...........|...........|...........|...........|...........|...........
|...........|...........|...........|...........|...........|...........|...........|...........|...........|...........|...........|...........|...........|...........|...........|...........|...........|...........|...........|...........|...........|...........|...........|...........|...........|...........|...........|...........
|...........|...........|...........|...........|...........|...........|...........|...........|...........|...........|...........|...........|...........|...........|C-527......|...........|...........|...........|...........|...........|...........|...........|...........|...........|...........|...........|...........|...........
|...........|...........|...........|...........|...........|...........|...........|...........|...........|...........|...........|...........|...........|...........|...........|...........|...........|...........|...........|...........|...........|...........|...........|...........|...........|...........|...........|...........
|...........|...........|...........|...........|...........|...........|...........|...........|...........|...........|...........|...........|...........|...........|...........|...........|...........|...........|...........|...........|...........|...........|...........|...........|...........|...........|...........|...........
|...........|...........|...........|...........|...........|...........|...........|...........|...........|...........|C-503......|G-404......|C-526......|...........|C-528......|...........|...........|...........|...........|...........|...........|...........|...........|...........|...........|...........|...........|...........
|...........|...........|...........|...........|...........|...........|...........|...........|...........|...........|...........|...........|...........|...........|...........|...........|...........|...........|...........|...........|...........|...........|...........|...........|...........|...........|...........|...........
|...........|...........|...........|...........|...........|...........|...........|...........|...........|...........|...........|...........|...........|...........|...........|...........|...........|...........|...........|...........|...........|...........|...........|...........|...........|...........|...........|...........
|...........|...........|...........|...........|...........|...........|...........|...........|...........|...........|...........|...........|...........|...........|...........|...........|...........|...........|...........|...........|...........|...........|...........|...........|...........|...........|...........|...........
|...........|...........|...........|...........|...........|...........|...........|...........|...........|...........|...........|...........|...........|...........|...........|...........|...........|...........|...........|...........|...........|...........|...........|...........|...........|...........|...........|...........
|...........|...........|...........|...........|...........|...........|...........|...........|...........|...........|...........|C-403......|...........|...........|...........|...........|...........|...........|...........|...........|...........|...........|...........|...........|...........|...........|...........|...........
|...........|...........|...........|...........|...........|...........|...........|...........|...........|...........|...........|...........|...........|...........|...........|...........|...........|...........|...........|...........|...........|...........|...........|...........|...........|...........|...........|...........
|...........|...........|...........|...........|...........|...........|...........|...........|...........|...........|...........|...........|...........|...........|...........|...........|...........|...........|...........|...........|...........|...........|...........|...........|...........|...........|...........|...........
|...........|A-302......|...........|...........|...........|...........|...........|...........|...........|...........|C-403......|...........|...........|...........|C-527......|F-518......|...........|...........|...........|...........|...........|...........|...........|...........|...........|...........|...........|...........
|...........|...........|...........|...........|...........|...........|...........|...........|...........|...........|...........|...........|...........|...........|...........|...........|...........|...........|...........|...........|...........|...........|...........|...........|...........|...........|...........|...........
|...........|...........|...........|...........|...........|...........|...........|...........|...........|...........|...........|...........|...........|...........|...........|...........|...........|...........|...........|...........|...........|...........|...........|...........|...........|...........|...........|...........
|...........|...........|...........|...........|...........|...........|...........|...........|...........|...........|...........|...........|...........|...........|...........|...........|...........|...........|...........|...........|...........|...........|...........|...........|...........|...........|...........|...........
|...........|...........|...........|...........|...........|...........|...........|...........|...........|...........|...........|...........|...........|...........|...........|...........|...........|...........|...........|...........|...........|...........|...........|...........|...........|...........|...........|...........
|...........|...........|...........|...........|...........|...........|...........|...........|...........|...........|...........|...........|...........|...........|C-527......|...........|...........|...........|...........|...........|...........|...........|...........|...........|...........|...........|...........|...........
|...........|...........|...........|...........|...........|...........|...........|...........|...........|...........|...........|...........|...........|...........|...........|...........|...........|...........|...........|...........|...........|...........|...........|...........|...........|...........|...........|...........
|...........|...........|...........|...........|...........|...........|...........|...........|...........|...........|...........|...........|...........|...........|...........|...........|...........|...........|...........|...........|...........|...........|...........|...........|...........|...........|...........|...........
|...........|...........|...........|...........|...........|...........|...........|...........|...........|...........|G-404......|C-503......|G-525......|...........|C-528......|...........|...........|...........|...........|...........|...........|...........|...........|...........|...........|...........|...........|...........
|...........|...........|...........|...........|...........|...........|...........|...........|...........|...........|...........|...........|...........|...........|...........|...........|...........|...........|...........|...........|...........|...........|...........|...........|...........|...........|...........|...........
|...........|...........|...........|...........|...........|...........|...........|...........|...........|...........|...........|...........|...........|...........|...........|...........|...........|...........|...........|...........|...........|...........|...........|...........|...........|...........|...........|...........
|...........|...........|...........|...........|...........|...........|...........|...........|...........|...........|...........|...........|...........|...........|...........|...........|...........|...........|...........|...........|...........|...........|...........|...........|...........|...........|...........|...........
|...........|...........|...........|...........|...........|...........|...........|...........|...........|...........|...........|...........|...........|...........|...........|...........|...........|...........|...........|...........|...........|...........|...........|...........|...........|...........|...........|...........
|...........|...........|...........|...........|...........|...........|...........|...........|...........|...........|C-403......|...........|...........|...........|...........|F-518......|...........|...........|...........|...........|...........|...........|...........|...........|...........|...........|...........|...........
|...........|...........|...........|...........|...........|...........|...........|...........|...........|...........|...........|...........|...........|...........|...........|...........|...........|...........|...........|...........|...........|...........|...........|...........|...........|...........|...........|...........
|...........|...........|...........|...........|...........|...........|...........|...........|...........|...........|...........|...........|...........|...........|...........|...........|...........|...........|...........|...........|...........|...........|...........|...........|...........|...........|...........|...........
|...........|C#402......|...........|...........|...........|...........|...........|...........|...........|...........|...........|C-403......|...........|...........|C-527......|...........|...........|...........|...........|...........|...........|...........|...........|...........|...........|...........|...........|...........
|...........|...........|...........|...........|...........|...........|...........|...........|...........|...........|...........|...........|...........|...........|...........|...........|...........|...........|...........|...........|...........|...........|...........|...........|...........|...........|...........|...........
|...........|...........|...........|...........|...........|...........|...........|...........|...........|...........|...........|...........|...........|...........|...........|...........|...........|...........|...........|...........|...........|...........|...........|...........|...........|...........|...........|...........
|...........|...........|...........|...........|...........|...........|...........|...........|...........|...........|...........|...........|...........|...........|...........|...........|...........|...........|...........|...........|...........|...........|...........|...........|...........|...........|...........|...........
|...........|...........|...........|...........|...........|...........|...........|...........|...........|...........|...........|...........|...........|...........|...........|...........|...........|...........|...........|...........|...........|...........|...........|...........|...........|...........|...........|...........
|...........|...........|...........|...........|...........|...........|...........|...........|...........|...........|...........|...........|...........|...........|C-527......|...........|...........|...........|...........|...........|...........|...........|...........|...........|...........|...........|...........|...........
|...........|...........|...........|...........|...........|...........|...........|...........|...........|...........|...........|...........|...........|...........|...........|...........|...........|...........|...........|...........|...........|...........|...........|...........|...........|...........|...........|...........
|...........|...........|...........|...........|...........|...........|...........|...........|...........|...........|...........|...........|...........|...........|...........|...........|...........|...........|...........|...........|...........|...........|...........|...........|...........|...........|...........|...........
|...........|...........|E-405......|B-305......|F-305......|...........|...........|...........|...........|...........|C-503......|G-404......|C-526......|...........|C-528......|C-519......|...........|...........|...........|...........|...........|...........|...........|...........|...........|...........|...........|...........
|...........|...........|...........|...........|...........|...........|...........|...........|...........|...........|...........|...........|...........|...........|...........|...........|...........|...........|...........|...........|...........|...........|...........|...........|...........|...........|...........|...........
|...........|...........|...........|...........|...........|...........|...........|...........|...........|...........|...........|...........|...........|...........|...........|...........|...........|...........|...........|...........|...........|...........|...........|...........|...........|...........|...........|...........
|...........|...........|...........|...........|...........|...........|...........|...........|...........|...........|...........|...........|...........|...........|...........|...........|...........|...........|...........|...........|...........|...........|...........|...........|...........|...........|...........|...........
|...........|...........|...........|...........|...........|...........|...........|...........|...........|...........|...........|...........|...........|...........|...........|...........|...........|...........|...........|...........|...........|...........|...........|...........|...........|...........|...........|...........
|...........|...........|...........|...........|...........|...........|...........|...........|...........|...........|...........|C-403......|...........|...........|...........|...........|...........|...........|...........|...........|...........|...........|...........|...........|...........|...........|...........|...........
|...........|...........|...........|...........|...........|...........|...........|...........|...........|...........|...........|...........|...........|...........|...........|...........|...........|...........|...........|...........|...........|...........|...........|...........|...........|...........|...........|...........
|...........|...........|...........|...........|...........|...........|...........|...........|...........|...........|...........|...........|...........|...........|...........|...........|...........|...........|...........|...........|...........|...........|...........|...........|...........|...........|...........|...........
|...........|G-302......|...........|...........|...........|...........|...........|...........|...........|...........|C-403......|...........|...........|...........|C-527......|F-518......|...........|...........|...........|...........|...........|...........|...........|...........|...........|...........|...........|...........
|...........|...........|...........|...........|...........|...........|...........|...........|...........|...........|...........|...........|...........|...........|...........|...........|...........|...........|...........|...........|...........|...........|...........|...........|...........|...........|...........|...........
|...........|...........|...........|...........|...........|...........|...........|...........|...........|...........|...........|...........|...........|...........|...........|...........|...........|...........|...........|...........|...........|...........|...........|...........|...........|...........|...........|...........
|...........|...........|...........|...........|...........|...........|...........|...........|...........|...........|...........|...........|...........|...........|...........|...........|...........|...........|...........|...........|...........|...........|...........|...........|...........|...........|...........|...........
|...........|...........|...........|...........|...........|...........|...........|...........|...........|...........|...........|...........|...........|...........|...........|...........|...........|...........|...........|...........|...........|...........|...........|...........|...........|...........|...........|...........
|...........|...........|C#405......|A-305......|F-305......|...........|...........|...........|...........|...........|...........|...........|...........|...........|C-527......|...........|...........|...........|...........|...........|...........|...........|...........|...........|...........|...........|...........|...........
|...........|...........|...........|...........|...........|...........|...........|...........|...........|...........|...........|...........|...........|...........|...........|...........|...........|...........|...........|...........|...........|...........|...........|...........|...........|...........|...........|...........
|...........|...........|...........|...........|...........|...........|...........|...........|...........|...........|...........|...........|...........|...........|...........|...........|...........|...........|...........|...........|...........|...........|...........|...........|...........|...........|...........|...........
|...........|...........|...........|...........|...........|...........|...........|...........|...........|...........|G-404......|C-503......|G-525......|...........|C-528......|C-519......|...........|...........|...........|...........|...........|...........|...........|...........|...........|...........|...........|...........
|...........|...........|...........|...........|...........|...........|...........|...........|...........|...........|...........|...........|...........|...........|...........|...........|...........|...........|...........|...........|...........|...........|...........|...........|...........|...........|...........|...........
|...........|...........|...........|...........|...........|...........|...........|...........|...........|...........|...........|...........|...........|...........|...........|...........|...........|...........|...........|...........|...........|...........|...........|...........|...........|...........|...........|...........
|...........|...........|...........|...........|...........|...........|...........|...........|...........|...........|...........|...........|...........|...........|...........|...........|...........|...........|...........|...........|...........|...........|...........|...........|...........|...........|...........|...........
|...........|...........|...........|...........|...........|...........|...........|...........|...........|...........|...........|...........|...........|...........|...........|...........|...........|...........|...........|...........|...........|...........|...........|...........|...........|...........|...........|...........
|...........|...........|...........|...........|...........|...........|...........|...........|...........|...........|C-403......|...........|...........|...........|...........|...........|...........|...........|...........|...........|...........|...........|...........|...........|...........|...........|...........|...........
|...........|...........|...........|...........|...........|...........|...........|...........|...........|...........|...........|...........|...........|...........|...........|...........|...........|...........|...........|...........|...........|...........|...........|...........|...........|...........|...........|...........
|...........|...........|...........|...........|...........|...........|...........|...........|...........|...........|...........|...........|...........|...........|...........|...........|...........|...........|...........|...........|...........|...........|...........|...........|...........|...........|...........|...........
Rows: 64
|...........|F#302......|G#405......|D#405......|A#305......|...........|...........|...........|...........|...........|...........|C-403......|...........|...........|C-527......|C-519......|...........|...........|...........|...........|...........|...........|...........|...........|...........|...........|...........|...........
|...........|...........|...........|...........|...........|...........|...........|...........|...........|...........|...........|...........|...........|...........|...........|...........|...........|...........|...........|...........|...........|...........|...........|...........|...........|...........|...........|...........
|...........|...........|...........|...........|...........|...........|...........|...........|...........|...........|...........|...........|...........|...........|...........|...........|...........|...........|...........|...........|...........|...........|...........|...........|...........|...........|...........|...........
|...........|...........|...........|...........|...........|...........|...........|...........|...........|...........|...........|...........|...........|...........|...........|...........|...........|...........|...........|...........|...........|...........|...........|...........|...........|...........|...........|...........
|...........|...........|...........|...........|...........|...........|...........|...........|...........|...........|...........|...........|...........|...........|...........|...........|...........|...........|...........|...........|...........|...........|...........|...........|...........|...........|...........|...........
|...........|...........|...........|...........|...........|...........|...........|...........|...........|...........|...........|...........|...........|...........|C-527......|...........|...........|...........|...........|...........|...........|...........|...........|...........|...........|...........|...........|...........
|...........|...........|...........|...........|...........|...........|...........|...........|...........|...........|...........|...........|...........|...........|...........|...........|...........|...........|...........|...........|...........|...........|...........|...........|...........|...........|...........|...........
|...........|...........|...........|...........|...........|...........|...........|...........|...........|...........|...........|...........|...........|...........|...........|...........|...........|...........|...........|...........|...........|...........|...........|...........|...........|...........|...........|...........
|...........|...........|...........|...........|...........|...........|...........|...........|...........|...........|C-503......|G-404......|C-526......|...........|C-528......|...........|...........|...........|...........|...........|...........|...........|...........|...........|...........|...........|...........|...........
|...........|...........|...........|...........|...........|...........|...........|...........|...........|...........|...........|...........|...........|...........|...........|...........|...........|...........|...........|...........|...........|...........|...........|...........|...........|...........|...........|...........
|...........|...........|...........|...........|...........|...........|...........|...........|...........|...........|...........|...........|...........|...........|...........|...........|...........|...........|...........|...........|...........|...........|...........|...........|...........|...........|...........|...........
|...........|...........|...........|...........|...........|...........|...........|...........|...........|...........|...........|...........|...........|...........|...........|...........|...........|...........|...........|...........|...........|...........|...........|...........|...........|...........|...........|...........
|...........|...........|...........|...........|...........|...........|...........|...........|...........|...........|...........|...........|...........|...........|...........|...........|...........|...........|...........|...........|...........|...........|...........|...........|...........|...........|...........|...........
|...........|...........|...........|...........|...........|...........|...........|...........|...........|...........|...........|C-403......|...........|...........|...........|...........|...........|...........|...........|...........|...........|...........|...........|...........|...........|...........|...........|...........
|...........|...........|...........|...........|...........|...........|...........|...........|...........|...........|...........|...........|...........|...........|...........|...........|...........|...........|...........|...........|...........|...........|...........|...........|...........|...........|...........|...........
|...........|...........|...........|...........|...........|...........|...........|...........|...........|...........|...........|...........|...........|...........|...........|...........|...........|...........|...........|...........|...........|...........|...........|...........|...........|...........|...........|...........
|...........|C#402......|...........|...........|...........|...........|...........|...........|...........|...........|C-403......|...........|...........|...........|C-527......|F-518......|...........|...........|...........|...........|...........|...........|...........|...........|...........|...........|...........|...........
|...........|...........|...........|...........|...........|...........|...........|...........|...........|...........|...........|...........|...........|...........|...........|...........|...........|...........|...........|...........|...........|...........|...........|...........|...........|...........|...........|...........
|...........|...........|...........|...........|...........|...........|...........|...........|...........|...........|...........|...........|...........|...........|...........|...........|...........|...........|...........|...........|...........|...........|...........|...........|...........|...........|...........|...........
|...........|...........|...........|...........|...........|...........|...........|...........|...........|...........|...........|...........|...........|...........|...........|...........|...........|...........|...........|...........|...........|...........|...........|...........|...........|...........|...........|...........
|...........|...........|...........|...........|...........|...........|...........|...........|...........|...........|...........|...........|...........|...........|...........|...........|...........|...........|...........|...........|...........|...........|...........|...........|...........|...........|...........|...........
|...........|...........|...........|...........|...........|...........|...........|...........|...........|...........|...........|...........|...........|...........|C-527......|...........|...........|...........|...........|...........|...........|...........|...........|...........|...........|...........|...........|...........
|...........|...........|...........|...........|...........|...........|...........|...........|...........|...........|...........|...........|...........|...........|...........|...........|...........|...........|...........|...........|...........|...........|...........|...........|...........|...........|...........|...........
|...........|...........|...........|...........|...........|...........|...........|...........|...........|...........|...........|...........|...........|...........|...........|...........|...........|...........|...........|...........|...........|...........|...........|...........|...........|...........|...........|...........
|...........|...........|...........|...........|...........|...........|...........|...........|...........|...........|G-404......|C-503......|G-525......|...........|C-528......|...........|...........|...........|...........|...........|...........|...........|...........|...........|...........|...........|...........|...........
|...........|...........|...........|...........|...........|...........|...........|...........|...........|...........|...........|...........|...........|...........|...........|...........|...........|...........|...........|...........|...........|...........|...........|...........|...........|...........|...........|...........
|...........|...........|...........|...........|...........|...........|...........|...........|...........|...........|...........|...........|...........|...........|...........|...........|...........|...........|...........|...........|...........|...........|...........|...........|...........|...........|...........|...........
|...........|...........|...........|...........|...........|...........|...........|...........|...........|...........|...........|...........|...........|...........|...........|...........|...........|...........|...........|...........|...........|...........|...........|...........|...........|...........|...........|...........
|...........|...........|...........|...........|...........|...........|...........|...........|...........|...........|...........|...........|...........|...........|...........|...........|...........|...........|...........|...........|...........|...........|...........|...........|...........|...........|...........|...........
|...........|...........|...........|...........|...........|...........|...........|...........|...........|...........|C-403......|...........|...........|...........|...........|F-518......|...........|...........|...........|...........|...........|...........|...........|...........|...........|...........|...........|...........
|...........|...........|...........|...........|...........|...........|...........|...........|...........|...........|...........|...........|...........|...........|...........|...........|...........|...........|...........|...........|...........|...........|...........|...........|...........|...........|...........|...........
|...........|...........|...........|...........|...........|...........|...........|...........|...........|...........|...........|...........|...........|...........|...........|...........|...........|...........|...........|...........|...........|...........|...........|...........|...........|...........|...........|...........
|...........|B-302......|...........|...........|...........|...........|...........|...........|...........|...........|...........|C-403......|...........|...........|C-527......|...........|...........|...........|...........|...........|...........|...........|...........|...........|...........|...........|...........|...........
|...........|...........|...........|...........|...........|...........|...........|...........|...........|...........|...........|...........|...........|...........|...........|...........|...........|...........|...........|...........|...........|...........|...........|...........|...........|...........|...........|...........
|...........|...........|...........|...........|...........|...........|...........|...........|...........|...........|...........|...........|...........|...........|...........|...........|...........|...........|...........|...........|...........|...........|...........|...........|...........|...........|...........|...........
|...........|...........|...........|...........|...........|...........|...........|...........|...........|...........|...........|...........|...........|...........|...........|...........|...........|...........|...........|...........|...........|...........|...........|...........|...........|...........|...........|...........
|...........|...........|...........|...........|...........|...........|...........|...........|...........|...........|...........|...........|...........|...........|...........|...........|...........|...........|...........|...........|...........|...........|...........|...........|...........|...........|...........|...........
|...........|...........|...........|...........|...........|...........|...........|...........|...........|...........|...........|...........|...........|...........|C-527......|...........|...........|...........|...........|...........|...........|...........|...........|...........|...........|...........|...........|...........
|...........|...........|...........|...........|...........|...........|...........|...........|...........|...........|...........|...........|...........|...........|...........|...........|...........|...........|...........|...........|...........|...........|...........|...........|...........|...........|...........|...........
|...........|...........|...........|...........|...........|...........|...........|...........|...........|...........|...........|...........|...........|...........|...........|...........|...........|...........|...........|...........|...........|...........|...........|...........|...........|...........|...........|...........
|...........|...........|A-405......|F#405......|C#405......|D-305......|A-305......|...........|...........|...........|C-503......|G-404......|C-526......|...........|C-528......|C-519......|...........|...........|...........|...........|...........|...........|...........|...........|...........|...........|...........|...........
|...........|...........|...........|...........|...........|...........|...........|...........|...........|...........|...........|...........|...........|...........|...........|...........|...........|...........|...........|...........|...........|...........|...........|...........|...........|...........|...........|...........
|...........|...........|...........|...........|...........|...........|...........|...........|...........|...........|...........|...........|...........|...........|...........|...........|...........|...........|...........|...........|...........|...........|...........|...........|...........|...........|...........|...........
|...........|...........|...........|...........|...........|...........|...........|...........|...........|...........|...........|...........|...........|...........|...........|...........|...........|...........|...........|...........|...........|...........|...........|...........|...........|...........|...........|...........
|...........|...........|...........|...........|...........|...........|...........|...........|...........|...........|...........|...........|...........|...........|...........|...........|...........|...........|...........|...........|...........|...........|...........|...........|...........|...........|...........|...........
|...........|...........|...........|...........|...........|...........|...........|...........|...........|...........|...........|C-403......|...........|...........|...........|...........|...........|...........|...........|...........|...........|...........|...........|...........|...........|...........|...........|...........
|...........|...........|...........|...........|...........|...........|...........|...........|...........|...........|...........|...........|...........|...........|...........|...........|...........|...........|...........|...........|...........|...........|...........|...........|...........|...........|...........|...........
|...........|...........|...........|...........|...........|...........|...........|...........|...........|...........|...........|...........|...........|...........|...........|...........|...........|...........|...........|...........|...........|...........|...........|...........|...........|...........|...........|...........
|...........|E-302......|...........|...........|...........|...........|...........|...........|...........|...........|C-403......|...........|...........|...........|C-527......|F-518......|...........|...........|...........|...........|...........|...........|...........|...........|...........|...........|...........|...........
|...........|...........|...........|...........|...........|...........|...........|...........|...........|...........|...........|...........|...........|...........|...........|...........|...........|...........|...........|...........|...........|...........|...........|...........|...........|...........|...........|...........
|...........|...........|...........|...........|...........|...........|...........|...........|...........|...........|...........|...........|...........|...........|...........|...........|...........|...........|...........|...........|...........|...........|...........|...........|...........|...........|...........|...........
|...........|...........|...........|...........|...........|...........|...........|...........|...........|...........|...........|...........|...........|...........|...........|...........|...........|...........|...........|...........|...........|...........|...........|...........|...........|...........|...........|...........
|...........|...........|...........|...........|...........|...........|...........|...........|...........|...........|...........|...........|...........|...........|...........|...........|...........|...........|...........|...........|...........|...........|...........|...........|...........|...........|...........|...........
|...........|...........|F#405......|C#405......|G#305......|B-405......|D-305......|...........|...........|...........|...........|...........|...........|...........|C-527......|...........|...........|...........|...........|...........|...........|...........|...........|...........|...........|...........|...........|...........
|...........|...........|...........|...........|...........|...........|...........|...........|...........|...........|...........|...........|...........|...........|...........|...........|...........|...........|...........|...........|...........|...........|...........|...........|...........|...........|...........|...........
|...........|...........|...........|...........|...........|...........|...........|...........|...........|...........|...........|...........|...........|...........|...........|...........|...........|...........|...........|...........|...........|...........|...........|...........|...........|...........|...........|...........
|...........|...........|...........|...........|...........|...........|...........|...........|...........|...........|G-404......|C-503......|G-525......|...........|C-528......|C-519......|...........|...........|...........|...........|...........|...........|...........|...........|...........|...........|...........|...........
|...........|...........|...........|...........|...........|...........|...........|...........|...........|...........|...........|...........|...........|...........|...........|...........|...........|...........|...........|...........|...........|...........|...........|...........|...........|...........|...........|...........
|...........|...........|...........|...........|...........|...........|...........|...........|...........|...........|...........|...........|...........|...........|...........|...........|...........|...........|...........|...........|...........|...........|...........|...........|...........|...........|...........|...........
|...........|...........|...........|...........|...........|...........|...........|...........|...........|...........|...........|...........|...........|...........|...........|...........|...........|...........|...........|...........|...........|...........|...........|...........|...........|...........|...........|...........
|...........|...........|...........|...........|...........|...........|...........|...........|...........|...........|...........|...........|...........|...........|...........|...........|...........|...........|...........|...........|...........|...........|...........|...........|...........|...........|...........|...........
|...........|...........|...........|...........|...........|...........|...........|...........|...........|...........|C-403......|...........|...........|...........|...........|...........|...........|...........|...........|...........|...........|...........|...........|...........|...........|...........|...........|...........
|...........|...........|...........|...........|...........|...........|...........|...........|...........|...........|...........|...........|...........|...........|...........|...........|...........|...........|...........|...........|...........|...........|...........|...........|...........|...........|...........|...........
|...........|...........|...........|...........|...........|...........|...........|...........|...........|...........|...........|...........|...........|...........|...........|...........|...........|...........|...........|...........|...........|...........|...........|...........|...........|...........|...........|...........
Rows: 64
|...........|A-302......|C#505......|G#405......|E-405......|B-305......|F#305......|...........|...........|...........|...........|C-403......|...........|...........|C-527......|C-519......|...........|...........|...........|...........|...........|...........|...........|...........|...........|...........|...........|...........
|...........|...........|...........|...........|...........|...........|...........|...........|...........|...........|...........|...........|...........|...........|...........|...........|...........|...........|...........|...........|...........|...........|...........|...........|...........|...........|...........|...........
|...........|...........|...........|...........|...........|...........|...........|...........|...........|...........|...........|...........|...........|...........|...........|...........|...........|...........|...........|...........|...........|...........|...........|...........|...........|...........|...........|...........
|...........|...........|...........|...........|...........|...........|...........|...........|...........|...........|...........|...........|...........|...........|...........|...........|...........|...........|...........|...........|...........|...........|...........|...........|...........|...........|...........|...........
|...........|...........|...........|...........|...........|...........|...........|...........|...........|...........|...........|...........|...........|...........|...........|...........|...........|...........|...........|...........|...........|...........|...........|...........|...........|...........|...........|...........
|...........|...........|...........|...........|...........|...........|...........|...........|...........|...........|...........|...........|...........|...........|C-527......|...........|...........|...........|...........|...........|...........|...........|...........|...........|...........|...........|...........|...........
|...........|...........|...........|...........|...........|...........|...........|...........|...........|...........|...........|...........|...........|...........|...........|...........|...........|...........|...........|...........|...........|...........|...........|...........|...........|...........|...........|...........
|...........|...........|...........|...........|...........|...........|...........|...........|...........|...........|...........|...........|...........|...........|...........|...........|...........|...........|...........|...........|...........|...........|...........|...........|...........|...........|...........|...........
|...........|...........|...........|...........|...........|...........|...........|...........|...........|...........|C-503......|G-404......|C-526......|...........|C-528......|...........|...........|...........|...........|...........|...........|...........|...........|...........|...........|...........|...........|...........
|...........|...........|...........|...........|...........|...........|...........|...........|...........|...........|...........|...........|...........|...........|...........|...........|...........|...........|...........|...........|...........|...........|...........|...........|...........|...........|...........|...........
|...........|...........|...........|...........|...........|...........|...........|...........|...........|...........|...........|...........|...........|...........|...........|...........|...........|...........|...........|...........|...........|...........|...........|...........|...........|...........|...........|...........
|...........|...........|...........|...........|...........|...........|...........|...........|...........|...........|...........|...........|...........|...........|...........|...........|...........|...........|...........|...........|...........|...........|...........|...........|...........|...........|...........|...........
|...........|...........|...........|...........|...........|...........|...........|...........|...........|...........|...........|...........|...........|...........|...........|...........|...........|...........|...........|...........|...........|...........|...........|...........|...........|...........|...........|...........
|...........|...........|...........|...........|...........|...........|...........|...........|...........|...........|...........|C-403......|...........|...........|...........|...........|...........|...........|...........|...........|...........|...........|...........|...........|...........|...........|...........|...........
|...........|...........|...........|...........|...........|...........|...........|...........|...........|...........|...........|...........|...........|...........|...........|...........|...........|...........|...........|...........|...........|...........|...........|...........|...........|...........|...........|...........
|...........|...........|...........|...........|...........|...........|...........|...........|...........|...........|...........|...........|...........|...........|...........|...........|...........|...........|...........|...........|...........|...........|...........|...........|...........|...........|...........|...........
|...........|E-302......|...........|...........|...........|...........|...........|...........|...........|...........|C-403......|...........|...........|...........|C-527......|F-518......|...........|...........|...........|...........|...........|...........|...........|...........|...........|...........|...........|...........
|...........|...........|...........|...........|...........|...........|...........|...........|...........|...........|...........|...........|...........|...........|...........|...........|...........|...........|...........|...........|...........|...........|...........|...........|...........|...........|...........|...........
|...........|...........|...........|...........|...........|...........|...........|...........|...........|...........|...........|...........|...........|...........|...........|...........|...........|...........|...........|...........|...........|...........|...........|...........|...........|...........|...........|...........
|...........|...........|...........|...........|...........|...........|...........|...........|...........|...........|...........|...........|...........|...........|...........|...........|...........|...........|...........|...........|...........|...........|...........|...........|...........|...........|...........|...........
|...........|...........|...........|...........|...........|...........|...........|...........|...........|...........|...........|...........|...........|...........|...........|...........|...........|...........|...........|...........|...........|...........|...........|...........|...........|...........|...........|...........
|...........|...........|...........|...........|...........|...........|...........|...........|...........|...........|...........|...........|...........|...........|C-527......|...........|...........|...........|...........|...........|...........|...........|...........|...........|...........|...........|...........|...........
|...........|...........|...........|...........|...........|...........|...........|...........|...........|...........|...........|...........|...........|...........|...........|...........|...........|...........|...........|...........|...........|...........|...........|...........|...........|...........|...........|...........
|...........|...........|...........|...........|...........|...........|...........|...........|...........|...........|...........|...........|...........|...........|...........|...........|...........|...........|...........|...........|...........|...........|...........|...........|...........|...........|...........|...........
|...........|...........|...........|...........|...........|...........|...........|...........|...........|...........|G-404......|C-503......|G-525......|...........|C-528......|...........|...........|...........|...........|...........|...........|...........|...........|...........|...........|...........|...........|...........
|...........|...........|...........|...........|...........|...........|...........|...........|...........|...........|...........|...........|...........|...........|...........|...........|...........|...........|...........|...........|...........|...........|...........|...........|...........|...........|...........|...........
|...........|...........|...........|...........|...........|...........|...........|...........|...........|...........|...........|...........|...........|...........|...........|...........|...........|...........|...........|...........|...........|...........|...........|...........|...........|...........|...........|...........
|...........|...........|...........|...........|...........|...........|...........|...........|...........|...........|...........|...........|...........|...........|...........|...........|...........|...........|...........|...........|...........|...........|...........|...........|...........|...........|...........|...........
|...........|...........|...........|...........|...........|...........|...........|...........|...........|...........|...........|...........|...........|...........|...........|...........|...........|...........|...........|...........|...........|...........|...........|...........|...........|...........|...........|...........
|...........|...........|...........|...........|...........|...........|...........|...........|...........|...........|C-403......|...........|...........|...........|...........|F-518......|...........|...........|...........|...........|...........|...........|...........|...........|...........|...........|...........|...........
|...........|...........|...........|...........|...........|...........|...........|...........|...........|...........|...........|...........|...........|...........|...........|...........|...........|...........|...........|...........|...........|...........|...........|...........|...........|...........|...........|...........
|...........|...........|...........|...........|...........|...........|...........|...........|...........|...........|...........|...........|...........|...........|...........|...........|...........|...........|...........|...........|...........|...........|...........|...........|...........|...........|...........|...........
|...........|G#302......|...........|...........|...........|...........|...........|...........|...........|...........|...........|C-403......|...........|...........|C-527......|...........|...........|...........|...........|...........|...........|...........|...........|...........|...........|...........|...........|...........
|...........|...........|...........|...........|...........|...........|...........|...........|...........|...........|...........|...........|...........|...........|...........|...........|...........|...........|...........|...........|...........|...........|...........|...........|...........|...........|...........|...........
|...........|...........|...........|...........|...........|...........|...........|...........|...........|...........|...........|...........|...........|...........|...........|...........|...........|...........|...........|...........|...........|...........|...........|...........|...........|...........|...........|...........
|...........|...........|...........|...........|...........|...........|...........|...........|...........|...........|...........|...........|...........|...........|...........|...........|...........|...........|...........|...........|...........|...........|...........|...........|...........|...........|...........|...........
|...........|...........|...........|...........|...........|...........|...........|...........|...........|...........|...........|...........|...........|...........|...........|...........|...........|...........|...........|...........|...........|...........|...........|...........|...........|...........|...........|...........
|...........|...........|...........|...........|...........|...........|...........|...........|...........|...........|...........|...........|...........|...........|C-527......|...........|...........|...........|...........|...........|...........|...........|...........|...........|...........|...........|...........|...........
|...........|...........|...........|...........|...........|...........|...........|...........|...........|...........|...........|...........|...........|...........|...........|...........|...........|...........|...........|...........|...........|...........|...........|...........|...........|...........|...........|...........
|...........|...........|...........|...........|...........|...........|...........|...........|...........|...........|...........|...........|...........|...........|...........|...........|...........|...........|...........|...........|...........|...........|...........|...........|...........|...........|...........|...........
|...........|...........|B-405......|F#405......|E-405......|C-405......|F#305......|...........|...........|...........|C-503......|G-404......|C-526......|...........|C-528......|C-519......|...........|...........|...........|...........|...........|...........|...........|...........|...........|...........|...........|...........
|...........|...........|...........|...........|...........|...........|...........|...........|...........|...........|...........|...........|...........|...........|...........|...........|...........|...........|...........|...........|...........|...........|...........|...........|...........|...........|...........|...........
|...........|...........|...........|...........|...........|...........|...........|...........|...........|...........|...........|...........|...........|...........|...........|...........|...........|...........|...........|...........|...........|...........|...........|...........|...........|...........|...........|...........
|...........|...........|...........|...........|...........|...........|...........|...........|...........|...........|...........|...........|...........|...........|...........|...........|...........|...........|...........|...........|...........|...........|...........|...........|...........|...........|...........|...........
|...........|...........|...........|...........|...........|...........|...........|...........|...........|...........|...........|...........|...........|...........|...........|...........|...........|...........|...........|...........|...........|...........|...........|...........|...........|...........|...........|...........
|...........|...........|...........|...........|...........|...........|...........|...........|...........|...........|...........|C-403......|...........|...........|...........|...........|...........|...........|...........|...........|...........|...........|...........|...........|...........|...........|...........|...........
|...........|...........|...........|...........|...........|...........|...........|...........|...........|...........|...........|...........|...........|...........|...........|...........|...........|...........|...........|...........|...........|...........|...........|...........|...........|...........|...........|...........
|...........|...........|...........|...........|...........|...........|...........|...........|...........|...........|...........|...........|...........|...........|...........|...........|...........|...........|...........|...........|...........|...........|...........|...........|...........|...........|...........|...........
|...........|D-302......|...........|...........|...........|...........|...........|...........|...........|...........|C-403......|...........|...........|...........|C-527......|F-518......|...........|...........|...........|...........|...........|...........|...........|...........|...........|...........|...........|...........
|...........|...........|...........|...........|...........|...........|...........|...........|...........|...........|...........|...........|...........|...........|...........|...........|...........|...........|...........|...........|...........|...........|...........|...........|...........|...........|...........|...........
|...........|...........|...........|...........|...........|...........|...........|...........|...........|...........|...........|...........|...........|...........|...........|...........|...........|...........|...........|...........|...........|...........|...........|...........|...........|...........|...........|...........
|...........|...........|...........|...........|...........|...........|...........|...........|...........|...........|...........|...........|...........|...........|...........|...........|...........|...........|...........|...........|...........|...........|...........|...........|...........|...........|...........|...........
|...........|...........|...........|...........|...........|...........|...........|...........|...........|...........|...........|...........|...........|...........|...........|...........|...........|...........|...........|...........|...........|...........|...........|...........|...........|...........|...........|...........
|...........|...........|G#405......|E-405......|B-305......|F#305......|C-405......|...........|...........|...........|...........|...........|...........|...........|C-527......|...........|...........|...........|...........|...........|...........|...........|...........|...........|...........|...........|...........|...........
|...........|...........|...........|...........|...........|...........|...........|...........|...........|...........|...........|...........|...........|...........|...........|...........|...........|...........|...........|...........|...........|...........|...........|...........|...........|...........|...........|...........
|...........|...........|...........|...........|...........|...........|...........|...........|...........|...........|...........|...........|...........|...........|...........|...........|...........|...........|...........|...........|...........|...........|...........|...........|...........|...........|...........|...........
|...........|...........|...........|...........|...........|...........|...........|...........|...........|...........|G-404......|C-503......|G-525......|...........|C-528......|C-519......|...........|...........|...........|...........|...........|...........|...........|...........|...........|...........|...........|...........
|...........|...........|...........|...........|...........|...........|...........|...........|...........|...........|...........|...........|...........|...........|...........|...........|...........|...........|...........|...........|...........|...........|...........|...........|...........|...........|...........|...........
|...........|...........|...........|...........|...........|...........|...........|...........|...........|...........|...........|...........|...........|...........|...........|...........|...........|...........|...........|...........|...........|...........|...........|...........|...........|...........|...........|...........
|...........|...........|...........|...........|...........|...........|...........|...........|...........|...........|...........|...........|...........|...........|...........|...........|...........|...........|...........|...........|...........|...........|...........|...........|...........|...........|...........|...........
|...........|...........|...........|...........|...........|...........|...........|...........|...........|...........|...........|...........|...........|...........|...........|...........|...........|...........|...........|...........|...........|...........|...........|...........|...........|...........|...........|...........
|...........|...........|...........|...........|...........|...........|...........|...........|...........|...........|C-403......|...........|...........|...........|...........|...........|...........|...........|...........|...........|...........|...........|...........|...........|...........|...........|...........|...........
|...........|...........|...........|...........|...........|...........|...........|...........|...........|...........|...........|...........|...........|...........|...........|...........|...........|...........|...........|...........|...........|...........|...........|...........|...........|...........|...........|...........
|...........|...........|...........|...........|...........|...........|...........|...........|...........|...........|...........|...........|...........|...........|...........|...........|...........|...........|...........|...........|...........|...........|...........|...........|...........|...........|...........|...........
Rows: 64
|...........|C#402...M33|C-505......|G#405......|D#505......|A#305......|G#305......|...........|...........|...........|...........|C-403......|...........|...........|C-527......|C-519......|...........|...........|...........|...........|...........|...........|...........|...........|...........|...........|...........|...........
|...........|...........|...........|...........|...........|...........|...........|...........|...........|...........|...........|...........|...........|...........|...........|...........|...........|...........|...........|...........|...........|...........|...........|...........|...........|...........|...........|...........
|...........|...........|...........|...........|...........|...........|...........|...........|...........|...........|...........|...........|...........|...........|...........|...........|...........|...........|...........|...........|...........|...........|...........|...........|...........|...........|...........|...........
|...........|...........|...........|...........|...........|...........|...........|...........|...........|...........|...........|...........|...........|...........|...........|...........|...........|...........|...........|...........|...........|...........|...........|...........|...........|...........|...........|...........
|...........|...........|...........|...........|...........|...........|...........|...........|...........|...........|...........|...........|...........|...........|...........|...........|...........|...........|...........|...........|...........|...........|...........|...........|...........|...........|...........|...........
|...........|...........|...........|...........|...........|...........|...........|...........|...........|...........|...........|...........|...........|...........|C-527......|...........|...........|...........|...........|...........|...........|...........|...........|...........|...........|...........|...........|...........
|...........|...........|...........|...........|...........|...........|...........|...........|...........|...........|...........|...........|...........|...........|...........|...........|...........|...........|...........|...........|...........|...........|...........|...........|...........|...........|...........|...........
|...........|...........|...........|...........|...........|...........|...........|...........|...........|...........|...........|...........|...........|...........|...........|...........|...........|...........|...........|...........|...........|...........|...........|...........|...........|...........|...........|...........
|...........|...........|...........|...........|...........|...........|...........|...........|...........|...........|C-503......|G-404......|C-526......|...........|C-528......|...........|...........|...........|...........|...........|...........|...........|...........|...........|...........|...........|...........|...........
|...........|...........|...........|...........|...........|...........|...........|...........|...........|...........|...........|...........|...........|...........|...........|...........|...........|...........|...........|...........|...........|...........|...........|...........|...........|...........|...........|...........
|...........|...........|...........|...........|...........|...........|...........|...........|...........|...........|...........|...........|...........|...........|...........|...........|...........|...........|...........|...........|...........|...........|...........|...........|...........|...........|...........|...........
|...........|...........|...........|...........|...........|...........|...........|...........|...........|...........|...........|...........|...........|...........|...........|...........|...........|...........|...........|...........|...........|...........|...........|...........|...........|...........|...........|...........
|...........|...........|...........|...........|...........|...........|...........|...........|...........|...........|...........|...........|...........|...........|...........|...........|...........|...........|...........|...........|...........|...........|...........|...........|...........|...........|...........|...........
|...........|...........|...........|...........|...........|...........|...........|...........|...........|...........|...........|C-403......|...........|...........|...........|...........|...........|...........|...........|...........|...........|...........|...........|...........|...........|...........|...........|...........
|...........|...........|...........|...........|...........|...........|...........|...........|...........|...........|...........|...........|...........|...........|...........|...........|...........|...........|...........|...........|...........|...........|...........|...........|...........|...........|...........|...........
|...........|...........|...........|...........|...........|...........|...........|...........|...........|...........|...........|...........|...........|...........|...........|...........|...........|...........|...........|...........|...........|...........|...........|...........|...........|...........|...........|...........
|...........|G#302......|...........|...........|...........|...........|...........|...........|...........|...........|C-403......|...........|...........|...........|C-527......|F-518......|...........|...........|...........|...........|...........|...........|...........|...........|...........|...........|...........|...........
|...........|...........|...........|...........|...........|...........|...........|...........|...........|...........|...........|...........|...........|...........|...........|...........|...........|...........|...........|...........|...........|...........|...........|...........|...........|...........|...........|...........
|...........|...........|...........|...........|...........|...........|...........|...........|...........|...........|...........|...........|...........|...........|...........|...........|...........|...........|...........|...........|...........|...........|...........|...........|...........|...........|...........|...........
|...........|...........|...........|...........|...........|...........|...........|...........|...........|...........|...........|...........|...........|...........|...........|...........|...........|...........|...........|...........|...........|...........|...........|...........|...........|...........|...........|...........
|...........|...........|...........|...........|...........|...........|...........|...........|...........|...........|...........|...........|...........|...........|...........|...........|...........|...........|...........|...........|...........|...........|...........|...........|...........|...........|...........|...........
|...........|...........|...........|...........|...........|...........|...........|...........|...........|...........|...........|...........|...........|...........|C-527......|...........|...........|...........|...........|...........|...........|...........|...........|...........|...........|...........|...........|...........
|...........|...........|...........|...........|...........|...........|...........|...........|...........|...........|...........|...........|...........|...........|...........|...........|...........|...........|...........|...........|...........|...........|...........|...........|...........|...........|...........|...........
|...........|...........|...........|...........|...........|...........|...........|...........|...........|...........|...........|...........|...........|...........|...........|...........|...........|...........|...........|...........|...........|...........|...........|...........|...........|...........|...........|...........
|...........|...........|...........|...........|...........|...........|...........|...........|...........|...........|G-404......|C-503......|G-525......|...........|C-528......|...........|...........|...........|...........|...........|...........|...........|...........|...........|...........|...........|...........|...........
|...........|...........|...........|...........|...........|...........|...........|...........|...........|...........|...........|...........|...........|...........|...........|...........|...........|...........|...........|...........|...........|...........|...........|...........|...........|...........|...........|...........
|...........|...........|...........|...........|...........|...........|...........|...........|...........|...........|...........|...........|...........|...........|...........|...........|...........|...........|...........|...........|...........|...........|...........|...........|...........|...........|...........|...........
|...........|...........|...........|...........|...........|...........|...........|...........|...........|...........|...........|...........|...........|...........|...........|...........|...........|...........|...........|...........|...........|...........|...........|...........|...........|...........|...........|...........
|...........|...........|...........|...........|...........|...........|...........|...........|...........|...........|...........|...........|...........|...........|...........|...........|...........|...........|...........|...........|...........|...........|...........|...........|...........|...........|...........|...........
|...........|...........|...........|...........|...........|...........|...........|...........|...........|...........|C-403......|...........|...........|...........|...........|F-518......|...........|...........|...........|...........|...........|...........|...........|...........|...........|...........|...........|...........
|...........|...........|...........|...........|...........|...........|...........|...........|...........|...........|...........|...........|...........|...........|...........|...........|...........|...........|...........|...........|...........|...........|...........|...........|...........|...........|...........|...........
|...........|...........|...........|...........|...........|...........|...........|...........|...........|...........|...........|...........|...........|...........|...........|...........|...........|...........|...........|...........|...........|...........|...........|...........|...........|...........|...........|...........
|...........|C-402......|...........|...........|...........|...........|...........|...........|...........|...........|...........|C-403......|...........|...........|C-527......|...........|...........|...........|...........|...........|...........|...........|...........|...........|...........|...........|...........|...........
|...........|...........|...........|...........|...........|...........|...........|...........|...........|...........|...........|...........|...........|...........|...........|...........|...........|...........|...........|...........|...........|...........|...........|...........|...........|...........|...........|...........
|...........|...........|...........|...........|...........|...........|...........|...........|...........|...........|...........|...........|...........|...........|...........|...........|...........|...........|...........|...........|...........|...........|...........|...........|...........|...........|...........|...........
|...........|...........|...........|...........|...........|...........|...........|...........|...........|...........|...........|...........|...........|...........|...........|...........|...........|...........|...........|...........|...........|...........|...........|...........|...........|...........|...........|...........
|...........|...........|...........|...........|...........|...........|...........|...........|...........|...........|...........|...........|...........|...........|...........|...........|...........|...........|...........|...........|...........|...........|...........|...........|...........|...........|...........|...........
|...........|...........|...........|...........|...........|...........|...........|...........|...........|...........|...........|...........|...........|...........|C-527......|...........|...........|...........|...........|...........|...........|...........|...........|...........|...........|...........|...........|...........
|...........|...........|...........|...........|...........|...........|...........|...........|...........|...........|...........|...........|...........|...........|...........|...........|...........|...........|...........|...........|...........|...........|...........|...........|...........|...........|...........|...........
|...........|...........|...........|...........|...........|...........|...........|...........|...........|...........|...........|...........|...........|...........|...........|...........|...........|...........|...........|...........|...........|...........|...........|...........|...........|...........|...........|...........
|...........|...........|D#405......|A#305......|E-305......|...........|...........|...........|...........|...........|C-503......|G-404......|C-526......|...........|C-528......|C-519......|...........|...........|...........|...........|...........|...........|...........|...........|...........|...........|...........|...........
|...........|...........|...........|...........|...........|...........|...........|...........|...........|...........|...........|...........|...........|...........|...........|...........|...........|...........|...........|...........|...........|...........|...........|...........|...........|...........|...........|...........
|...........|...........|...........|...........|...........|...........|...........|...........|...........|...........|...........|...........|...........|...........|...........|...........|...........|...........|...........|...........|...........|...........|...........|...........|...........|...........|...........|...........
|...........|...........|...........|...........|...........|...........|...........|...........|...........|...........|...........|...........|...........|...........|...........|...........|...........|...........|...........|...........|...........|...........|...........|...........|...........|...........|...........|...........
|...........|...........|...........|...........|...........|...........|...........|...........|...........|...........|...........|...........|...........|...........|...........|...........|...........|...........|...........|...........|...........|...........|...........|...........|...........|...........|...........|...........
|...........|...........|...........|...........|...........|...........|...........|...........|...........|...........|...........|C-403......|...........|...........|...........|...........|...........|...........|...........|...........|...........|...........|...........|...........|...........|...........|...........|...........
|...........|...........|...........|...........|...........|...........|...........|...........|...........|...........|...........|...........|...........|...........|...........|...........|...........|...........|...........|...........|...........|...........|...........|...........|...........|...........|...........|...........
|...........|...........|...........|...........|...........|...........|...........|...........|...........|...........|...........|...........|...........|...........|...........|...........|...........|...........|...........|...........|...........|...........|...........|...........|...........|...........|...........|...........
|...........|F#302......|...........|...........|...........|...........|...........|...........|...........|...........|C-403......|...........|...........|...........|C-527......|F-518......|...........|...........|...........|...........|...........|...........|...........|...........|...........|...........|...........|...........
|...........|...........|...........|...........|...........|...........|...........|...........|...........|...........|...........|...........|...........|...........|...........|...........|...........|...........|...........|...........|...........|...........|...........|...........|...........|...........|...........|...........
|...........|...........|...........|...........|...........|...........|...........|...........|...........|...........|...........|...........|...........|...........|...........|...........|...........|...........|...........|...........|...........|...........|...........|...........|...........|...........|...........|...........
|...........|...........|...........|...........|...........|...........|...........|...........|...........|...........|...........|...........|...........|...........|...........|...........|...........|...........|...........|...........|...........|...........|...........|...........|...........|...........|...........|...........
|...........|...........|...........|...........|...........|...........|...........|...........|...........|...........|...........|...........|...........|...........|...........|...........|...........|...........|...........|...........|...........|...........|...........|...........|...........|...........|...........|...........
|...........|...........|C-405......|G#305......|E-305......|...........|...........|...........|...........|...........|...........|...........|...........|...........|C-527......|...........|...........|...........|...........|...........|...........|...........|...........|...........|...........|...........|...........|...........
|...........|...........|...........|...........|...........|...........|...........|...........|...........|...........|...........|...........|...........|...........|...........|...........|...........|...........|...........|...........|...........|...........|...........|...........|...........|...........|...........|...........
|...........|...........|...........|...........|...........|...........|...........|...........|...........|...........|...........|...........|...........|...........|...........|...........|...........|...........|...........|...........|...........|...........|...........|...........|...........|...........|...........|...........
|...........|...........|...........|...........|...........|...........|...........|...........|...........|...........|G-404......|C-503......|G-525......|...........|C-528......|C-519......|...........|...........|...........|...........|...........|...........|...........|...........|...........|...........|...........|...........
|...........|...........|...........|...........|...........|...........|...........|...........|...........|...........|...........|...........|...........|...........|...........|...........|...........|...........|...........|...........|...........|...........|...........|...........|...........|...........|...........|...........
|...........|...........|...........|...........|...........|...........|...........|...........|...........|...........|...........|...........|...........|...........|...........|...........|...........|...........|...........|...........|...........|...........|...........|...........|...........|...........|...........|...........
|...........|...........|...........|...........|...........|...........|...........|...........|...........|...........|...........|...........|...........|...........|...........|...........|...........|...........|...........|...........|...........|...........|...........|...........|...........|...........|...........|...........
|...........|...........|...........|...........|...........|...........|...........|...........|...........|...........|...........|...........|...........|...........|...........|...........|...........|...........|...........|...........|...........|...........|...........|...........|...........|...........|...........|...........
|...........|...........|...........|...........|...........|...........|...........|...........|...........|...........|C-403......|...........|...........|...........|...........|...........|...........|...........|...........|...........|...........|...........|...........|...........|...........|...........|...........|...........
|...........|...........|...........|...........|...........|...........|...........|...........|...........|...........|...........|...........|...........|...........|...........|...........|...........|...........|...........|...........|...........|...........|...........|...........|...........|...........|...........|...........
|...........|...........|...........|...........|...........|...........|...........|...........|...........|...........|...........|...........|...........|...........|...........|...........|...........|...........|...........|...........|...........|...........|...........|...........|...........|...........|...........|...........
Rows: 64
|...........|F-302......|G-405......|D-405......|A-305......|...........|...........|...........|...........|...........|...........|C-403......|...........|...........|C-527......|C-519......|...........|...........|...........|...........|...........|...........|...........|...........|...........|...........|...........|...........
|...........|...........|...........|...........|...........|...........|...........|...........|...........|...........|...........|...........|...........|...........|...........|...........|...........|...........|...........|...........|...........|...........|...........|...........|...........|...........|...........|...........
|...........|...........|...........|...........|...........|...........|...........|...........|...........|...........|...........|...........|...........|...........|...........|...........|...........|...........|...........|...........|...........|...........|...........|...........|...........|...........|...........|...........
|...........|...........|...........|...........|...........|...........|...........|...........|...........|...........|...........|...........|...........|...........|...........|...........|...........|...........|...........|...........|...........|...........|...........|...........|...........|...........|...........|...........
|...........|...........|...........|...........|...........|...........|...........|...........|...........|...........|...........|...........|...........|...........|...........|...........|...........|...........|...........|...........|...........|...........|...........|...........|...........|...........|...........|...........
|...........|...........|...........|...........|...........|...........|...........|...........|...........|...........|...........|...........|...........|...........|C-527......|...........|...........|...........|...........|...........|...........|...........|...........|...........|...........|...........|...........|...........
|...........|...........|...........|...........|...........|...........|...........|...........|...........|...........|...........|...........|...........|...........|...........|...........|...........|...........|...........|...........|...........|...........|...........|...........|...........|...........|...........|...........
|...........|...........|...........|...........|...........|...........|...........|...........|...........|...........|...........|...........|...........|...........|...........|...........|...........|...........|...........|...........|...........|...........|...........|...........|...........|...........|...........|...........
|...........|...........|...........|...........|...........|...........|...........|...........|...........|...........|C-503......|G-404......|C-526......|...........|C-528......|...........|...........|...........|...........|...........|...........|...........|...........|...........|...........|...........|...........|...........
|...........|...........|...........|...........|...........|...........|...........|...........|...........|...........|...........|...........|...........|...........|...........|...........|...........|...........|...........|...........|...........|...........|...........|...........|...........|...........|...........|...........
|...........|...........|...........|...........|...........|...........|...........|...........|...........|...........|...........|...........|...........|...........|...........|...........|...........|...........|...........|...........|...........|...........|...........|...........|...........|...........|...........|...........
|...........|...........|...........|...........|...........|...........|...........|...........|...........|...........|...........|...........|...........|...........|...........|...........|...........|...........|...........|...........|...........|...........|...........|...........|...........|...........|...........|...........
|...........|...........|...........|...........|...........|...........|...........|...........|...........|...........|...........|...........|...........|...........|...........|...........|...........|...........|...........|...........|...........|...........|...........|...........|...........|...........|...........|...........
|...........|...........|...........|...........|...........|...........|...........|...........|...........|...........|...........|C-403......|...........|...........|...........|...........|...........|...........|...........|...........|...........|...........|...........|...........|...........|...........|...........|...........
|...........|...........|...........|...........|...........|...........|...........|...........|...........|...........|...........|...........|...........|...........|...........|...........|...........|...........|...........|...........|...........|...........|...........|...........|...........|...........|...........|...........
|...........|...........|...........|...........|...........|...........|...........|...........|...........|...........|...........|...........|...........|...........|...........|...........|...........|...........|...........|...........|...........|...........|...........|...........|...........|...........|...........|...........
|...........|C-402......|...........|...........|...........|...........|...........|...........|...........|...........|C-403......|...........|...........|...........|C-527......|F-518......|...........|...........|...........|...........|...........|...........|...........|...........|...........|...........|...........|...........
|...........|...........|...........|...........|...........|...........|...........|...........|...........|...........|...........|...........|...........|...........|...........|...........|...........|...........|...........|...........|...........|...........|...........|...........|...........|...........|...........|...........
|...........|...........|...........|...........|...........|...........|...........|...........|...........|...........|...........|...........|...........|...........|...........|...........|...........|...........|...........|...........|...........|...........|...........|...........|...........|...........|...........|...........
|...........|...........|...........|...........|...........|...........|...........|...........|...........|...........|...........|...........|...........|...........|...........|...........|...........|...........|...........|...........|...........|...........|...........|...........|...........|...........|...........|...........
|...........|...........|...........|...........|...........|...........|...........|...........|...........|...........|...........|...........|...........|...........|...........|...........|...........|...........|...........|...........|...........|...........|...........|...........|...........|...........|...........|...........
|...........|...........|...........|...........|...........|...........|...........|...........|...........|...........|...........|...........|...........|...........|C-527......|...........|...........|...........|...........|...........|...........|...........|...........|...........|...........|...........|...........|...........
|...........|...........|...........|...........|...........|...........|...........|...........|...........|...........|...........|...........|...........|...........|...........|...........|...........|...........|...........|...........|...........|...........|...........|...........|...........|...........|...........|...........
|...........|...........|...........|...........|...........|...........|...........|...........|...........|...........|...........|...........|...........|...........|...........|...........|...........|...........|...........|...........|...........|...........|...........|...........|...........|...........|...........|...........
|...........|...........|...........|...........|...........|...........|...........|...........|...........|...........|G-404......|C-503......|G-525......|...........|C-528......|...........|...........|...........|...........|...........|...........|...........|...........|...........|...........|...........|...........|...........
|...........|...........|...........|...........|...........|...........|...........|...........|...........|...........|...........|...........|...........|...........|...........|...........|...........|...........|...........|...........|...........|...........|...........|...........|...........|...........|...........|...........
|...........|...........|...........|...........|...........|...........|...........|...........|...........|...........|...........|...........|...........|...........|...........|...........|...........|...........|...........|...........|...........|...........|...........|...........|...........|...........|...........|...........
|...........|...........|...........|...........|...........|...........|...........|...........|...........|...........|...........|...........|...........|...........|...........|...........|...........|...........|...........|...........|...........|...........|...........|...........|...........|...........|...........|...........
|...........|...........|...........|...........|...........|...........|...........|...........|...........|...........|...........|...........|...........|...........|...........|...........|...........|...........|...........|...........|...........|...........|...........|...........|...........|...........|...........|...........
|...........|...........|...........|...........|...........|...........|...........|...........|...........|...........|C-403......|...........|...........|...........|...........|F-518......|...........|...........|...........|...........|...........|...........|...........|...........|...........|...........|...........|...........
|...........|...........|...........|...........|...........|...........|...........|...........|...........|...........|...........|...........|...........|...........|...........|...........|...........|...........|...........|...........|...........|...........|...........|...........|...........|...........|...........|...........
|...........|...........|...........|...........|...........|...........|...........|...........|...........|...........|...........|...........|...........|...........|...........|...........|...........|...........|...........|...........|...........|...........|...........|...........|...........|...........|...........|...........
|...........|A#302......|...........|...........|...........|...........|...........|...........|...........|...........|...........|C-403......|...........|...........|C-527......|...........|...........|...........|...........|...........|...........|...........|...........|...........|...........|...........|...........|...........
|...........|...........|...........|...........|...........|...........|...........|...........|...........|...........|...........|...........|...........|...........|...........|...........|...........|...........|...........|...........|...........|...........|...........|...........|...........|...........|...........|...........
|...........|...........|...........|...........|...........|...........|...........|...........|...........|...........|...........|...........|...........|...........|...........|...........|...........|...........|...........|...........|...........|...........|...........|...........|...........|...........|...........|...........
|...........|...........|...........|...........|...........|...........|...........|...........|...........|...........|...........|...........|...........|...........|...........|...........|...........|...........|...........|...........|...........|...........|...........|...........|...........|...........|...........|...........
|...........|...........|...........|...........|...........|...........|...........|...........|...........|...........|...........|...........|...........|...........|...........|...........|...........|...........|...........|...........|...........|...........|...........|...........|...........|...........|...........|...........
|...........|...........|...........|...........|...........|...........|...........|...........|...........|...........|...........|...........|...........|...........|C-527......|...........|...........|...........|...........|...........|...........|...........|...........|...........|...........|...........|...........|...........
|...........|...........|...........|...........|...........|...........|...........|...........|...........|...........|...........|...........|...........|...........|...........|...........|...........|...........|...........|...........|...........|...........|...........|...........|...........|...........|...........|...........
|...........|...........|...........|...........|...........|...........|...........|...........|...........|...........|...........|...........|...........|...........|...........|...........|...........|...........|...........|...........|...........|...........|...........|...........|...........|...........|...........|...........
|...........|...........|G#405......|F-405......|C-405......|C#305......|G#305......|...........|...........|...........|C-503......|G-404......|C-526......|...........|C-528......|C-519......|...........|...........|...........|...........|...........|...........|...........|...........|...........|...........|...........|...........
|...........|...........|...........|...........|...........|...........|...........|...........|...........|...........|...........|...........|...........|...........|...........|...........|...........|...........|...........|...........|...........|...........|...........|...........|...........|...........|...........|...........
|...........|...........|...........|...........|...........|...........|...........|...........|...........|...........|...........|...........|...........|...........|...........|...........|...........|...........|...........|...........|...........|...........|...........|...........|...........|...........|...........|...........
|...........|...........|...........|...........|...........|...........|...........|...........|...........|...........|...........|...........|...........|...........|...........|...........|...........|...........|...........|...........|...........|...........|...........|...........|...........|...........|...........|...........
|...........|...........|...........|...........|...........|...........|...........|...........|...........|...........|...........|...........|...........|...........|...........|...........|...........|...........|...........|...........|...........|...........|...........|...........|...........|...........|...........|...........
|...........|...........|...........|...........|...........|...........|...........|...........|...........|...........|...........|C-403......|...........|...........|...........|...........|...........|...........|...........|...........|...........|...........|...........|...........|...........|...........|...........|...........
|...........|...........|...........|...........|...........|...........|...........|...........|...........|...........|...........|...........|...........|...........|...........|...........|...........|...........|...........|...........|...........|...........|...........|...........|...........|...........|...........|...........
|...........|...........|...........|...........|...........|...........|...........|...........|...........|...........|...........|...........|...........|...........|...........|...........|...........|...........|...........|...........|...........|...........|...........|...........|...........|...........|...........|...........
|...........|D#302......|...........|...........|...........|...........|...........|...........|...........|...........|C-403......|...........|...........|...........|C-527......|F-518......|...........|...........|...........|...........|...........|...........|...........|...........|...........|...........|...........|...........
|...........|...........|...........|...........|...........|...........|...........|...........|...........|...........|...........|...........|...........|...........|...........|...........|...........|...........|...........|...........|...........|...........|...........|...........|...........|...........|...........|...........
|...........|...........|...........|...........|...........|...........|...........|...........|...........|...........|...........|...........|...........|...........|...........|...........|...........|...........|...........|...........|...........|...........|...........|...........|...........|...........|...........|...........
|...........|...........|...........|...........|...........|...........|...........|...........|...........|...........|...........|...........|...........|...........|...........|...........|...........|...........|...........|...........|...........|...........|...........|...........|...........|...........|...........|...........
|...........|...........|...........|...........|...........|...........|...........|...........|...........|...........|...........|...........|...........|...........|...........|...........|...........|...........|...........|...........|...........|...........|...........|...........|...........|...........|...........|...........
|...........|...........|F-405......|C-405......|G-305......|A#405......|C#305......|...........|...........|...........|...........|...........|...........|...........|C-527......|...........|...........|...........|...........|...........|...........|...........|...........|...........|...........|...........|...........|...........
|...........|...........|...........|...........|...........|...........|...........|...........|...........|...........|...........|...........|...........|...........|...........|...........|...........|...........|...........|...........|...........|...........|...........|...........|...........|...........|...........|...........
|...........|...........|...........|...........|...........|...........|...........|...........|...........|...........|...........|...........|...........|...........|...........|...........|...........|...........|...........|...........|...........|...........|...........|...........|...........|...........|...........|...........
|...........|...........|...........|...........|...........|...........|...........|...........|...........|...........|G-404......|C-503......|G-525......|...........|C-528......|C-519......|...........|...........|...........|...........|...........|...........|...........|...........|...........|...........|...........|...........
|...........|...........|...........|...........|...........|...........|...........|...........|...........|...........|...........|...........|...........|...........|...........|...........|...........|...........|...........|...........|...........|...........|...........|...........|...........|...........|...........|...........
|...........|...........|...........|...........|...........|...........|...........|...........|...........|...........|...........|...........|...........|...........|...........|...........|...........|...........|...........|...........|...........|...........|...........|...........|...........|...........|...........|...........
|...........|...........|...........|...........|...........|...........|...........|...........|...........|...........|...........|...........|...........|...........|...........|...........|...........|...........|...........|...........|...........|...........|...........|...........|...........|...........|...........|...........
|...........|...........|...........|...........|...........|...........|...........|...........|...........|...........|...........|...........|...........|...........|...........|...........|...........|...........|...........|...........|...........|...........|...........|...........|...........|...........|...........|...........
|...........|...........|...........|...........|...........|...........|...........|...........|...........|...........|C-403......|...........|...........|...........|...........|...........|...........|...........|...........|...........|...........|...........|...........|...........|...........|...........|...........|...........
|...........|...........|...........|...........|...........|...........|...........|...........|...........|...........|...........|...........|...........|...........|...........|...........|...........|...........|...........|...........|...........|...........|...........|...........|...........|...........|...........|...........
|...........|...........|...........|...........|...........|...........|...........|...........|...........|...........|...........|...........|...........|...........|...........|...........|...........|...........|...........|...........|...........|...........|...........|...........|...........|...........|...........|...........
Rows: 64
|...........|G#302......|C-505......|G-405......|D#405......|A#305......|F-305......|...........|...........|...........|...........|C-403......|...........|...........|C-527......|C-519......|...........|...........|...........|...........|...........|...........|...........|...........|...........|...........|...........|...........
|...........|...........|...........|...........|...........|...........|...........|...........|...........|...........|...........|...........|...........|...........|...........|...........|...........|...........|...........|...........|...........|...........|...........|...........|...........|...........|...........|...........
|...........|...........|...........|...........|...........|...........|...........|...........|...........|...........|...........|...........|...........|...........|...........|...........|...........|...........|...........|...........|...........|...........|...........|...........|...........|...........|...........|...........
|...........|...........|...........|...........|...........|...........|...........|...........|...........|...........|...........|...........|...........|...........|...........|...........|...........|...........|...........|...........|...........|...........|...........|...........|...........|...........|...........|...........
|...........|...........|...........|...........|...........|...........|...........|...........|...........|...........|...........|...........|...........|...........|...........|...........|...........|...........|...........|...........|...........|...........|...........|...........|...........|...........|...........|...........
|...........|...........|...........|...........|...........|...........|...........|...........|...........|...........|...........|...........|...........|...........|C-527......|...........|...........|...........|...........|...........|...........|...........|...........|...........|...........|...........|...........|...........
|...........|...........|...........|...........|...........|...........|...........|...........|...........|...........|...........|...........|...........|...........|...........|...........|...........|...........|...........|...........|...........|...........|...........|...........|...........|...........|...........|...........
|...........|...........|...........|...........|...........|...........|...........|...........|...........|...........|...........|...........|...........|...........|...........|...........|...........|...........|...........|...........|...........|...........|...........|...........|...........|...........|...........|...........
|...........|...........|...........|...........|...........|...........|...........|...........|...........|...........|C-503......|G-404......|C-526......|...........|C-528......|...........|...........|...........|...........|...........|...........|...........|...........|...........|...........|...........|...........|...........
|...........|...........|...........|...........|...........|...........|...........|...........|...........|...........|...........|...........|...........|...........|...........|...........|...........|...........|...........|...........|...........|...........|...........|...........|...........|...........|...........|...........
|...........|...........|...........|...........|...........|...........|...........|...........|...........|...........|...........|...........|...........|...........|...........|...........|...........|...........|...........|...........|...........|...........|...........|...........|...........|...........|...........|...........
|...........|...........|...........|...........|...........|...........|...........|...........|...........|...........|...........|...........|...........|...........|...........|...........|...........|...........|...........|...........|...........|...........|...........|...........|...........|...........|...........|...........
|...........|...........|...........|...........|...........|...........|...........|...........|...........|...........|...........|...........|...........|...........|...........|...........|...........|...........|...........|...........|...........|...........|...........|...........|...........|...........|...........|...........
|...........|...........|...........|...........|...........|...........|...........|...........|...........|...........|...........|C-403......|...........|...........|...........|...........|...........|...........|...........|...........|...........|...........|...........|...........|...........|...........|...........|...........
|...........|...........|...........|...........|...........|...........|...........|...........|...........|...........|...........|...........|...........|...........|...........|...........|...........|...........|...........|...........|...........|...........|...........|...........|...........|...........|...........|...........
|...........|...........|...........|...........|...........|...........|...........|...........|...........|...........|...........|...........|...........|...........|...........|...........|...........|...........|...........|...........|...........|...........|...........|...........|...........|...........|...........|...........
|...........|D#302......|...........|...........|...........|...........|...........|...........|...........|...........|C-403......|...........|...........|...........|C-527......|F-518......|...........|...........|...........|...........|...........|...........|...........|...........|...........|...........|...........|...........
|...........|...........|...........|...........|...........|...........|...........|...........|...........|...........|...........|...........|...........|...........|...........|...........|...........|...........|...........|...........|...........|...........|...........|...........|...........|...........|...........|...........
|...........|...........|...........|...........|...........|...........|...........|...........|...........|...........|...........|...........|...........|...........|...........|...........|...........|...........|...........|...........|...........|...........|...........|...........|...........|...........|...........|...........
|...........|...........|...........|...........|...........|...........|...........|...........|...........|...........|...........|...........|...........|...........|...........|...........|...........|...........|...........|...........|...........|...........|...........|...........|...........|...........|...........|...........
|...........|...........|...........|...........|...........|...........|...........|...........|...........|...........|...........|...........|...........|...........|...........|...........|...........|...........|...........|...........|...........|...........|...........|...........|...........|...........|...........|...........
|...........|...........|...........|...........|...........|...........|...........|...........|...........|...........|...........|...........|...........|...........|C-527......|...........|...........|...........|...........|...........|...........|...........|...........|...........|...........|...........|...........|...........
|...........|...........|...........|...........|...........|...........|...........|...........|...........|...........|...........|...........|...........|...........|...........|...........|...........|...........|...........|...........|...........|...........|...........|...........|...........|...........|...........|...........
|...........|...........|...........|...........|...........|...........|...........|...........|...........|...........|...........|...........|...........|...........|...........|...........|...........|...........|...........|...........|...........|...........|...........|...........|...........|...........|...........|...........
|...........|...........|...........|...........|...........|...........|...........|...........|...........|...........|G-404......|C-503......|G-525......|...........|C-528......|...........|...........|...........|...........|...........|...........|...........|...........|...........|...........|...........|...........|...........
|...........|...........|...........|...........|...........|...........|...........|...........|...........|...........|...........|...........|...........|...........|...........|...........|...........|...........|...........|...........|...........|...........|...........|...........|...........|...........|...........|...........
|...........|...........|...........|...........|...........|...........|...........|...........|...........|...........|...........|...........|...........|...........|...........|...........|...........|...........|...........|...........|...........|...........|...........|...........|...........|...........|...........|...........
|...........|...........|...........|...........|...........|...........|...........|...........|...........|...........|...........|...........|...........|...........|...........|...........|...........|...........|...........|...........|...........|...........|...........|...........|...........|...........|...........|...........
|...........|...........|...........|...........|...........|...........|...........|...........|...........|...........|...........|...........|...........|...........|...........|...........|...........|...........|...........|...........|...........|...........|...........|...........|...........|...........|...........|...........
|...........|...........|...........|...........|...........|...........|...........|...........|...........|...........|C-403......|...........|...........|...........|...........|F-518......|...........|...........|...........|...........|...........|...........|...........|...........|...........|...........|...........|...........
|...........|...........|...........|...........|...........|...........|...........|...........|...........|...........|...........|...........|...........|...........|...........|...........|...........|...........|...........|...........|...........|...........|...........|...........|...........|...........|...........|...........
|...........|...........|...........|...........|...........|...........|...........|...........|...........|...........|...........|...........|...........|...........|...........|...........|...........|...........|...........|...........|...........|...........|...........|...........|...........|...........|...........|...........
|...........|G-302......|...........|...........|...........|...........|...........|...........|...........|...........|...........|C-403......|...........|...........|C-527......|...........|...........|...........|...........|...........|...........|...........|...........|...........|...........|...........|...........|...........
|...........|...........|...........|...........|...........|...........|...........|...........|...........|...........|...........|...........|...........|...........|...........|...........|...........|...........|...........|...........|...........|...........|...........|...........|...........|...........|...........|...........
|...........|...........|...........|...........|...........|...........|...........|...........|...........|...........|...........|...........|...........|...........|...........|...........|...........|...........|...........|...........|...........|...........|...........|...........|...........|...........|...........|...........
|...........|...........|...........|...........|...........|...........|...........|...........|...........|...........|...........|...........|...........|...........|...........|...........|...........|...........|...........|...........|...........|...........|...........|...........|...........|...........|...........|...........
|...........|...........|...........|...........|...........|...........|...........|...........|...........|...........|...........|...........|...........|...........|...........|...........|...........|...........|...........|...........|...........|...........|...........|...........|...........|...........|...........|...........
|...........|...........|...........|...........|...........|...........|...........|...........|...........|...........|...........|...........|...........|...........|C-527......|...........|...........|...........|...........|...........|...........|...........|...........|...........|...........|...........|...........|...........
|...........|...........|...........|...........|...........|...........|...........|...........|...........|...........|...........|...........|...........|...........|...........|...........|...........|...........|...........|...........|...........|...........|...........|...........|...........|...........|...........|...........
|...........|...........|...........|...........|...........|...........|...........|...........|...........|...........|...........|...........|...........|...........|...........|...........|...........|...........|...........|...........|...........|...........|...........|...........|...........|...........|...........|...........
|...........|...........|A#405......|F-405......|D#405......|B-305......|F-305......|...........|...........|...........|C-503......|G-404......|C-526......|...........|C-528......|C-519......|...........|...........|...........|...........|...........|...........|...........|...........|...........|...........|...........|...........
|...........|...........|...........|...........|...........|...........|...........|...........|...........|...........|...........|...........|...........|...........|...........|...........|...........|...........|...........|...........|...........|...........|...........|...........|...........|...........|...........|...........
|...........|...........|...........|...........|...........|...........|...........|...........|...........|...........|...........|...........|...........|...........|...........|...........|...........|...........|...........|...........|...........|...........|...........|...........|...........|...........|...........|...........
|...........|...........|...........|...........|...........|...........|...........|...........|...........|...........|...........|...........|...........|...........|...........|...........|...........|...........|...........|...........|...........|...........|...........|...........|...........|...........|...........|...........
|...........|...........|...........|...........|...........|...........|...........|...........|...........|...........|...........|...........|...........|...........|...........|...........|...........|...........|...........|...........|...........|...........|...........|...........|...........|...........|...........|...........
|...........|...........|...........|...........|...........|...........|...........|...........|...........|...........|...........|C-403......|...........|...........|...........|...........|...........|...........|...........|...........|...........|...........|...........|...........|...........|...........|...........|...........
|...........|...........|...........|...........|...........|...........|...........|...........|...........|...........|...........|...........|...........|...........|...........|...........|...........|...........|...........|...........|...........|...........|...........|...........|...........|...........|...........|...........
|...........|...........|...........|...........|...........|...........|...........|...........|...........|...........|...........|...........|...........|...........|...........|...........|...........|...........|...........|...........|...........|...........|...........|...........|...........|...........|...........|...........
|...........|C#302......|...........|...........|...........|...........|...........|...........|...........|...........|C-403......|...........|...........|...........|C-527......|F-518......|...........|...........|...........|...........|...........|...........|...........|...........|...........|...........|...........|...........
|...........|...........|...........|...........|...........|...........|...........|...........|...........|...........|...........|...........|...........|...........|...........|...........|...........|...........|...........|...........|...........|...........|...........|...........|...........|...........|...........|...........
|...........|...........|...........|...........|...........|...........|...........|...........|...........|...........|...........|...........|...........|...........|...........|...........|...........|...........|...........|...........|...........|...........|...........|...........|...........|...........|...........|...........
|...........|...........|...........|...........|...........|...........|...........|...........|...........|...........|...........|...........|...........|...........|...........|...........|...........|...........|...........|...........|...........|...........|...........|...........|...........|...........|...........|...........
|...........|...........|...........|...........|...........|...........|...........|...........|...........|...........|...........|...........|...........|...........|...........|...........|...........|...........|...........|...........|...........|...........|...........|...........|...........|...........|...........|...........
|...........|...........|G-405......|D#405......|A#305......|F-305......|B-305......|...........|...........|...........|...........|...........|...........|...........|C-527......|...........|...........|...........|...........|...........|...........|...........|...........|...........|...........|...........|...........|...........
|...........|...........|...........|...........|...........|...........|...........|...........|...........|...........|...........|...........|...........|...........|...........|...........|...........|...........|...........|...........|...........|...........|...........|...........|...........|...........|...........|...........
|...........|...........|...........|...........|...........|...........|...........|...........|...........|...........|...........|...........|...........|...........|...........|...........|...........|...........|...........|...........|...........|...........|...........|...........|...........|...........|...........|...........
|...........|...........|...........|...........|...........|...........|...........|...........|...........|...........|G-404......|C-503......|G-525......|...........|C-528......|C-519......|...........|...........|...........|...........|...........|...........|...........|...........|...........|...........|...........|...........
|...........|...........|...........|...........|...........|...........|...........|...........|...........|...........|...........|...........|...........|...........|...........|...........|...........|...........|...........|...........|...........|...........|...........|...........|...........|...........|...........|...........
|...........|...........|...........|...........|...........|...........|...........|...........|...........|...........|...........|...........|...........|...........|...........|...........|...........|...........|...........|...........|...........|...........|...........|...........|...........|...........|...........|...........
|...........|...........|...........|...........|...........|...........|...........|...........|...........|...........|...........|...........|...........|...........|...........|...........|...........|...........|...........|...........|...........|...........|...........|...........|...........|...........|...........|...........
|...........|...........|...........|...........|...........|...........|...........|...........|...........|...........|...........|...........|...........|...........|...........|...........|...........|...........|...........|...........|...........|...........|...........|...........|...........|...........|...........|...........
|...........|...........|...........|...........|...........|...........|...........|...........|...........|...........|C-403......|...........|...........|...........|...........|...........|...........|...........|...........|...........|...........|...........|...........|...........|...........|...........|...........|...........
|...........|...........|...........|...........|...........|...........|...........|...........|...........|...........|...........|...........|...........|...........|...........|...........|...........|...........|...........|...........|...........|...........|...........|...........|...........|...........|...........|...........
|...........|...........|...........|...........|...........|...........|...........|...........|...........|...........|...........|...........|...........|...........|...........|...........|...........|...........|...........|...........|...........|...........|...........|...........|...........|...........|...........|...........
Rows: 64
|...........|C-402...M33|B-405......|G-405......|D-505......|A-305......|G-305......|...........|...........|...........|...........|C-403......|...........|...........|C-527......|C-519......|...........|...........|...........|...........|...........|...........|...........|...........|...........|...........|...........|...........
|...........|...........|...........|...........|...........|...........|...........|...........|...........|...........|...........|...........|...........|...........|...........|...........|...........|...........|...........|...........|...........|...........|...........|...........|...........|...........|...........|...........
|...........|...........|...........|...........|...........|...........|...........|...........|...........|...........|...........|...........|...........|...........|...........|...........|...........|...........|...........|...........|...........|...........|...........|...........|...........|...........|...........|...........
|...........|...........|...........|...........|...........|...........|...........|...........|...........|...........|...........|...........|...........|...........|...........|...........|...........|...........|...........|...........|...........|...........|...........|...........|...........|...........|...........|...........
|...........|...........|...........|...........|...........|...........|...........|...........|...........|...........|...........|...........|...........|...........|...........|...........|...........|...........|...........|...........|...........|...........|...........|...........|...........|...........|...........|...........
|...........|...........|...........|...........|...........|...........|...........|...........|...........|...........|...........|...........|...........|...........|C-527......|...........|...........|...........|...........|...........|...........|...........|...........|...........|...........|...........|...........|...........
|...........|...........|...........|...........|...........|...........|...........|...........|...........|...........|...........|...........|...........|...........|...........|...........|...........|...........|...........|...........|...........|...........|...........|...........|...........|...........|...........|...........
|...........|...........|...........|...........|...........|...........|...........|...........|...........|...........|...........|...........|...........|...........|...........|...........|...........|...........|...........|...........|...........|...........|...........|...........|...........|...........|...........|...........
|...........|...........|...........|...........|...........|...........|...........|...........|...........|...........|C-503......|G-404......|C-526......|...........|C-528......|...........|...........|...........|...........|...........|...........|...........|...........|...........|...........|...........|...........|...........
|...........|...........|...........|...........|...........|...........|...........|...........|...........|...........|...........|...........|...........|...........|...........|...........|...........|...........|...........|...........|...........|...........|...........|...........|...........|...........|...........|...........
|...........|...........|...........|...........|...........|...........|...........|...........|...........|...........|...........|...........|...........|...........|...........|...........|...........|...........|...........|...........|...........|...........|...........|...........|...........|...........|...........|...........
|...........|...........|...........|...........|...........|...........|...........|...........|...........|...........|...........|...........|...........|...........|...........|...........|...........|...........|...........|...........|...........|...........|...........|...........|...........|...........|...........|...........
|...........|...........|...........|...........|...........|...........|...........|...........|...........|...........|...........|...........|...........|...........|...........|...........|...........|...........|...........|...........|...........|...........|...........|...........|...........|...........|...........|...........
|...........|...........|...........|...........|...........|...........|...........|...........|...........|...........|...........|C-403......|...........|...........|...........|...........|...........|...........|...........|...........|...........|...........|...........|...........|...........|...........|...........|...........
|...........|...........|...........|...........|...........|...........|...........|...........|...........|...........|...........|...........|...........|...........|...........|...........|...........|...........|...........|...........|...........|...........|...........|...........|...........|...........|...........|...........
|...........|...........|...........|...........|...........|...........|...........|...........|...........|...........|...........|...........|...........|...........|...........|...........|...........|...........|...........|...........|...........|...........|...........|...........|...........|...........|...........|...........
|...........|G-302......|...........|...........|...........|...........|...........|...........|...........|...........|C-403......|...........|...........|...........|C-527......|F-518......|...........|...........|...........|...........|...........|...........|...........|...........|...........|...........|...........|...........
|...........|...........|...........|...........|...........|...........|...........|...........|...........|...........|...........|...........|...........|...........|...........|...........|...........|...........|...........|...........|...........|...........|...........|...........|...........|...........|...........|...........
|...........|...........|...........|...........|...........|...........|...........|...........|...........|...........|...........|...........|...........|...........|...........|...........|...........|...........|...........|...........|...........|...........|...........|...........|...........|...........|...........|...........
|...........|...........|...........|...........|...........|...........|...........|...........|...........|...........|...........|...........|...........|...........|...........|...........|...........|...........|...........|...........|...........|...........|...........|...........|...........|...........|...........|...........
|...........|...........|...........|...........|...........|...........|...........|...........|...........|...........|...........|...........|...........|...........|...........|...........|...........|...........|...........|...........|...........|...........|...........|...........|...........|...........|...........|...........
|...........|...........|...........|...........|...........|...........|...........|...........|...........|...........|...........|...........|...........|...........|C-527......|...........|...........|...........|...........|...........|...........|...........|...........|...........|...........|...........|...........|...........
|...........|...........|...........|...........|...........|...........|...........|...........|...........|...........|...........|...........|...........|...........|...........|...........|...........|...........|...........|...........|...........|...........|...........|...........|...........|...........|...........|...........
|...........|...........|...........|...........|...........|...........|...........|...........|...........|...........|...........|...........|...........|...........|...........|...........|...........|...........|...........|...........|...........|...........|...........|...........|...........|...........|...........|...........
|...........|...........|...........|...........|...........|...........|...........|...........|...........|...........|G-404......|C-503......|G-525......|...........|C-528......|...........|...........|...........|...........|...........|...........|...........|...........|...........|...........|...........|...........|...........
|...........|...........|...........|...........|...........|...........|...........|...........|...........|...........|...........|...........|...........|...........|...........|...........|...........|...........|...........|...........|...........|...........|...........|...........|...........|...........|...........|...........
|...........|...........|...........|...........|...........|...........|...........|...........|...........|...........|...........|...........|...........|...........|...........|...........|...........|...........|...........|...........|...........|...........|...........|...........|...........|...........|...........|...........
|...........|...........|...........|...........|...........|...........|...........|...........|...........|...........|...........|...........|...........|...........|...........|...........|...........|...........|...........|...........|...........|...........|...........|...........|...........|...........|...........|...........
|...........|...........|...........|...........|...........|...........|...........|...........|...........|...........|...........|...........|...........|...........|...........|...........|...........|...........|...........|...........|...........|...........|...........|...........|...........|...........|...........|...........
|...........|...........|...........|...........|...........|...........|...........|...........|...........|...........|C-403......|...........|...........|...........|...........|F-518......|...........|...........|...........|...........|...........|...........|...........|...........|...........|...........|...........|...........
|...........|...........|...........|...........|...........|...........|...........|...........|...........|...........|...........|...........|...........|...........|...........|...........|...........|...........|...........|...........|...........|...........|...........|...........|...........|...........|...........|...........
|...........|...........|...........|...........|...........|...........|...........|...........|...........|...........|...........|...........|...........|...........|...........|...........|...........|...........|...........|...........|...........|...........|...........|...........|...........|...........|...........|...........
|...........|B-302......|...........|...........|...........|...........|...........|...........|...........|...........|...........|C-403......|...........|...........|C-527......|...........|...........|...........|...........|...........|...........|...........|...........|...........|...........|...........|...........|...........
|...........|...........|...........|...........|...........|...........|...........|...........|...........|...........|...........|...........|...........|...........|...........|...........|...........|...........|...........|...........|...........|...........|...........|...........|...........|...........|...........|...........
|...........|...........|...........|...........|...........|...........|...........|...........|...........|...........|...........|...........|...........|...........|...........|...........|...........|...........|...........|...........|...........|...........|...........|...........|...........|...........|...........|...........
|...........|...........|...........|...........|...........|...........|...........|...........|...........|...........|...........|...........|...........|...........|...........|...........|...........|...........|...........|...........|...........|...........|...........|...........|...........|...........|...........|...........
|...........|...........|...........|...........|...........|...........|...........|...........|...........|...........|...........|...........|...........|...........|...........|...........|...........|...........|...........|...........|...........|...........|...........|...........|...........|...........|...........|...........
|...........|...........|...........|...........|...........|...........|...........|...........|...........|...........|...........|...........|...........|...........|C-527......|...........|...........|...........|...........|...........|...........|...........|...........|...........|...........|...........|...........|...........
|...........|...........|...........|...........|...........|...........|...........|...........|...........|...........|...........|...........|...........|...........|...........|...........|...........|...........|...........|...........|...........|...........|...........|...........|...........|...........|...........|...........
|...........|...........|...........|...........|...........|...........|...........|...........|...........|...........|...........|...........|...........|...........|...........|...........|...........|...........|...........|...........|...........|...........|...........|...........|...........|...........|...........|...........
|...........|...........|D-405......|A-305......|D#305......|...........|...........|...........|...........|...........|C-503......|G-404......|C-526......|...........|C-528......|C-519......|...........|...........|...........|...........|...........|...........|...........|...........|...........|...........|...........|...........
|...........|...........|...........|...........|...........|...........|...........|...........|...........|...........|...........|...........|...........|...........|...........|...........|...........|...........|...........|...........|...........|...........|...........|...........|...........|...........|...........|...........
|...........|...........|...........|...........|...........|...........|...........|...........|...........|...........|...........|...........|...........|...........|...........|...........|...........|...........|...........|...........|...........|...........|...........|...........|...........|...........|...........|...........
|...........|...........|...........|...........|...........|...........|...........|...........|...........|...........|...........|...........|...........|...........|...........|...........|...........|...........|...........|...........|...........|...........|...........|...........|...........|...........|...........|...........
|...........|...........|...........|...........|...........|...........|...........|...........|...........|...........|...........|...........|...........|...........|...........|...........|...........|...........|...........|...........|...........|...........|...........|...........|...........|...........|...........|...........
|...........|...........|...........|...........|...........|...........|...........|...........|...........|...........|...........|C-403......|...........|...........|...........|...........|...........|...........|...........|...........|...........|...........|...........|...........|...........|...........|...........|...........
|...........|...........|...........|...........|...........|...........|...........|...........|...........|...........|...........|...........|...........|...........|...........|...........|...........|...........|...........|...........|...........|...........|...........|...........|...........|...........|...........|...........
|...........|...........|...........|...........|...........|...........|...........|...........|...........|...........|...........|...........|...........|...........|...........|...........|...........|...........|...........|...........|...........|...........|...........|...........|...........|...........|...........|...........
|...........|F-302......|...........|...........|...........|...........|...........|...........|...........|...........|C-403......|...........|...........|...........|C-527......|F-518......|...........|...........|...........|...........|...........|...........|...........|...........|...........|...........|...........|...........
|...........|...........|...........|...........|...........|...........|...........|...........|...........|...........|...........|...........|...........|...........|...........|...........|...........|...........|...........|...........|...........|...........|...........|...........|...........|...........|...........|...........
|...........|...........|...........|...........|...........|...........|...........|...........|...........|...........|...........|...........|...........|...........|...........|...........|...........|...........|...........|...........|...........|...........|...........|...........|...........|...........|...........|...........
|...........|...........|...........|...........|...........|...........|...........|...........|...........|...........|...........|...........|...........|...........|...........|...........|...........|...........|...........|...........|...........|...........|...........|...........|...........|...........|...........|...........
|...........|...........|...........|...........|...........|...........|...........|...........|...........|...........|...........|...........|...........|...........|...........|...........|...........|...........|...........|...........|...........|...........|...........|...........|...........|...........|...........|...........
|...........|...........|B-305......|G-305......|D#305......|...........|...........|...........|...........|...........|...........|...........|...........|...........|C-527......|...........|...........|...........|...........|...........|...........|...........|...........|...........|...........|...........|...........|...........
|...........|...........|...........|...........|...........|...........|...........|...........|...........|...........|...........|...........|...........|...........|...........|...........|...........|...........|...........|...........|...........|...........|...........|...........|...........|...........|...........|...........
|...........|...........|...........|...........|...........|...........|...........|...........|...........|...........|...........|...........|...........|...........|...........|...........|...........|...........|...........|...........|...........|...........|...........|...........|...........|...........|...........|...........
|...........|...........|...........|...........|...........|...........|...........|...........|...........|...........|G-404......|C-503......|G-525......|...........|C-528......|C-519......|...........|...........|...........|...........|...........|...........|...........|...........|...........|...........|...........|...........
|...........|...........|...........|...........|...........|...........|...........|...........|...........|...........|...........|...........|...........|...........|...........|...........|...........|...........|...........|...........|...........|...........|...........|...........|...........|...........|...........|...........
|...........|...........|...........|...........|...........|...........|...........|...........|...........|...........|...........|...........|...........|...........|...........|...........|...........|...........|...........|...........|...........|...........|...........|...........|...........|...........|...........|...........
|...........|...........|...........|...........|...........|...........|...........|...........|...........|...........|...........|...........|...........|...........|...........|...........|...........|...........|...........|...........|...........|...........|...........|...........|...........|...........|...........|...........
|...........|...........|...........|...........|...........|...........|...........|...........|...........|...........|...........|...........|...........|...........|...........|...........|...........|...........|...........|...........|...........|...........|...........|...........|...........|...........|...........|...........
|...........|...........|...........|...........|...........|...........|...........|...........|...........|...........|C-403......|...........|...........|...........|...........|...........|...........|...........|...........|...........|...........|...........|...........|...........|...........|...........|...........|...........
|...........|...........|...........|...........|...........|...........|...........|...........|...........|...........|...........|...........|...........|...........|...........|...........|...........|...........|...........|...........|...........|...........|...........|...........|...........|...........|...........|...........
|...........|...........|...........|...........|...........|...........|...........|...........|...........|...........|...........|...........|...........|...........|...........|...........|...........|...........|...........|...........|...........|...........|...........|...........|...........|...........|...........|...........
Rows: 64
|...........|E-302......|F#405......|C#405......|G#305......|...........|...........|...........|...........|...........|...........|C-403......|...........|...........|C-527......|C-519......|...........|...........|...........|...........|...........|...........|...........|...........|...........|...........|...........|...........
|...........|...........|...........|...........|...........|...........|...........|...........|...........|...........|...........|...........|...........|...........|...........|...........|...........|...........|...........|...........|...........|...........|...........|...........|...........|...........|...........|...........
|...........|...........|...........|...........|...........|...........|...........|...........|...........|...........|...........|...........|...........|...........|...........|...........|...........|...........|...........|...........|...........|...........|...........|...........|...........|...........|...........|...........
|...........|...........|...........|...........|...........|...........|...........|...........|...........|...........|...........|...........|...........|...........|...........|...........|...........|...........|...........|...........|...........|...........|...........|...........|...........|...........|...........|...........
|...........|...........|...........|...........|...........|...........|...........|...........|...........|...........|...........|...........|...........|...........|...........|...........|...........|...........|...........|...........|...........|...........|...........|...........|...........|...........|...........|...........
|...........|...........|...........|...........|...........|...........|...........|...........|...........|...........|...........|...........|...........|...........|C-527......|...........|...........|...........|...........|...........|...........|...........|...........|...........|...........|...........|...........|...........
|...........|...........|...........|...........|...........|...........|...........|...........|...........|...........|...........|...........|...........|...........|...........|...........|...........|...........|...........|...........|...........|...........|...........|...........|...........|...........|...........|...........
|...........|...........|...........|...........|...........|...........|...........|...........|...........|...........|...........|...........|...........|...........|...........|...........|...........|...........|...........|...........|...........|...........|...........|...........|...........|...........|...........|...........
|...........|...........|...........|...........|...........|...........|...........|...........|...........|...........|C-503......|G-404......|C-526......|...........|C-528......|...........|...........|...........|...........|...........|...........|...........|...........|...........|...........|...........|...........|...........
|...........|...........|...........|...........|...........|...........|...........|...........|...........|...........|...........|...........|...........|...........|...........|...........|...........|...........|...........|...........|...........|...........|...........|...........|...........|...........|...........|...........
|...........|...........|...........|...........|...........|...........|...........|...........|...........|...........|...........|...........|...........|...........|...........|...........|...........|...........|...........|...........|...........|...........|...........|...........|...........|...........|...........|...........
|...........|...........|...........|...........|...........|...........|...........|...........|...........|...........|...........|...........|...........|...........|...........|...........|...........|...........|...........|...........|...........|...........|...........|...........|...........|...........|...........|...........
|...........|...........|...........|...........|...........|...........|...........|...........|...........|...........|...........|...........|...........|...........|...........|...........|...........|...........|...........|...........|...........|...........|...........|...........|...........|...........|...........|...........
|...........|...........|...........|...........|...........|...........|...........|...........|...........|...........|...........|C-403......|...........|...........|...........|...........|...........|...........|...........|...........|...........|...........|...........|...........|...........|...........|...........|...........
|...........|...........|...........|...........|...........|...........|...........|...........|...........|...........|...........|...........|...........|...........|...........|...........|...........|...........|...........|...........|...........|...........|...........|...........|...........|...........|...........|...........
|...........|...........|...........|...........|...........|...........|...........|...........|...........|...........|...........|...........|...........|...........|...........|...........|...........|...........|...........|...........|...........|...........|...........|...........|...........|...........|...........|...........
|...........|B-302......|...........|...........|...........|...........|...........|...........|...........|...........|C-403......|...........|...........|...........|C-527......|F-518......|...........|...........|...........|...........|...........|...........|...........|...........|...........|...........|...........|...........
|...........|...........|...........|...........|...........|...........|...........|...........|...........|...........|...........|...........|...........|...........|...........|...........|...........|...........|...........|...........|...........|...........|...........|...........|...........|...........|...........|...........
|...........|...........|...........|...........|...........|...........|...........|...........|...........|...........|...........|...........|...........|...........|...........|...........|...........|...........|...........|...........|...........|...........|...........|...........|...........|...........|...........|...........
|...........|...........|...........|...........|...........|...........|...........|...........|...........|...........|...........|...........|...........|...........|...........|...........|...........|...........|...........|...........|...........|...........|...........|...........|...........|...........|...........|...........
|...........|...........|...........|...........|...........|...........|...........|...........|...........|...........|...........|...........|...........|...........|...........|...........|...........|...........|...........|...........|...........|...........|...........|...........|...........|...........|...........|...........
|...........|...........|...........|...........|...........|...........|...........|...........|...........|...........|...........|...........|...........|...........|C-527......|...........|...........|...........|...........|...........|...........|...........|...........|...........|...........|...........|...........|...........
|...........|...........|...........|...........|...........|...........|...........|...........|...........|...........|...........|...........|...........|...........|...........|...........|...........|...........|...........|...........|...........|...........|...........|...........|...........|...........|...........|...........
|...........|...........|...........|...........|...........|...........|...........|...........|...........|...........|...........|...........|...........|...........|...........|...........|...........|...........|...........|...........|...........|...........|...........|...........|...........|...........|...........|...........
|...........|...........|...........|...........|...........|...........|...........|...........|...........|...........|G-404......|C-503......|G-525......|...........|C-528......|...........|...........|...........|...........|...........|...........|...........|...........|...........|...........|...........|...........|...........
|...........|...........|...........|...........|...........|...........|...........|...........|...........|...........|...........|...........|...........|...........|...........|...........|...........|...........|...........|...........|...........|...........|...........|...........|...........|...........|...........|...........
|...........|...........|...........|...........|...........|...........|...........|...........|...........|...........|...........|...........|...........|...........|...........|...........|...........|...........|...........|...........|...........|...........|...........|...........|...........|...........|...........|...........
|...........|...........|...........|...........|...........|...........|...........|...........|...........|...........|...........|...........|...........|...........|...........|...........|...........|...........|...........|...........|...........|...........|...........|...........|...........|...........|...........|...........
|...........|...........|...........|...........|...........|...........|...........|...........|...........|...........|...........|...........|...........|...........|...........|...........|...........|...........|...........|...........|...........|...........|...........|...........|...........|...........|...........|...........
|...........|...........|...........|...........|...........|...........|...........|...........|...........|...........|C-403......|...........|...........|...........|...........|F-518......|...........|...........|...........|...........|...........|...........|...........|...........|...........|...........|...........|...........
|...........|...........|...........|...........|...........|...........|...........|...........|...........|...........|...........|...........|...........|...........|...........|...........|...........|...........|...........|...........|...........|...........|...........|...........|...........|...........|...........|...........
|...........|...........|...........|...........|...........|...........|...........|...........|...........|...........|...........|...........|...........|...........|...........|...........|...........|...........|...........|...........|...........|...........|...........|...........|...........|...........|...........|...........
|...........|A-302......|...........|...........|...........|...........|...........|...........|...........|...........|...........|C-403......|...........|...........|C-527......|...........|...........|...........|...........|...........|...........|...........|...........|...........|...........|...........|...........|...........
|...........|...........|...........|...........|...........|...........|...........|...........|...........|...........|...........|...........|...........|...........|...........|...........|...........|...........|...........|...........|...........|...........|...........|...........|...........|...........|...........|...........
|...........|...........|...........|...........|...........|...........|...........|...........|...........|...........|...........|...........|...........|...........|...........|...........|...........|...........|...........|...........|...........|...........|...........|...........|...........|...........|...........|...........
|...........|...........|...........|...........|...........|...........|...........|...........|...........|...........|...........|...........|...........|...........|...........|...........|...........|...........|...........|...........|...........|...........|...........|...........|...........|...........|...........|...........
|...........|...........|...........|...........|...........|...........|...........|...........|...........|...........|...........|...........|...........|...........|...........|...........|...........|...........|...........|...........|...........|...........|...........|...........|...........|...........|...........|...........
|...........|...........|...........|...........|...........|...........|...........|...........|...........|...........|...........|...........|...........|...........|C-527......|...........|...........|...........|...........|...........|...........|...........|...........|...........|...........|...........|...........|...........
|...........|...........|...........|...........|...........|...........|...........|...........|...........|...........|...........|...........|...........|...........|...........|...........|...........|...........|...........|...........|...........|...........|...........|...........|...........|...........|...........|...........
|...........|...........|...........|...........|...........|...........|...........|...........|...........|...........|...........|...........|...........|...........|...........|...........|...........|...........|...........|...........|...........|...........|...........|...........|...........|...........|...........|...........
|...........|...........|G-405......|E-405......|B-305......|C-305......|G-305......|...........|...........|...........|C-503......|G-404......|C-526......|...........|C-528......|C-519......|...........|...........|...........|...........|...........|...........|...........|...........|...........|...........|...........|...........
|...........|...........|...........|...........|...........|...........|...........|...........|...........|...........|...........|...........|...........|...........|...........|...........|...........|...........|...........|...........|...........|...........|...........|...........|...........|...........|...........|...........
|...........|...........|...........|...........|...........|...........|...........|...........|...........|...........|...........|...........|...........|...........|...........|...........|...........|...........|...........|...........|...........|...........|...........|...........|...........|...........|...........|...........
|...........|...........|...........|...........|...........|...........|...........|...........|...........|...........|...........|...........|...........|...........|...........|...........|...........|...........|...........|...........|...........|...........|...........|...........|...........|...........|...........|...........
|...........|...........|...........|...........|...........|...........|...........|...........|...........|...........|...........|...........|...........|...........|...........|...........|...........|...........|...........|...........|...........|...........|...........|...........|...........|...........|...........|...........
|...........|...........|...........|...........|...........|...........|...........|...........|...........|...........|...........|C-403......|...........|...........|...........|...........|...........|...........|...........|...........|...........|...........|...........|...........|...........|...........|...........|...........
|...........|...........|...........|...........|...........|...........|...........|...........|...........|...........|...........|...........|...........|...........|...........|...........|...........|...........|...........|...........|...........|...........|...........|...........|...........|...........|...........|...........
|...........|...........|...........|...........|...........|...........|...........|...........|...........|...........|...........|...........|...........|...........|...........|...........|...........|...........|...........|...........|...........|...........|...........|...........|...........|...........|...........|...........
|...........|D-302......|...........|...........|...........|...........|...........|...........|...........|...........|C-403......|...........|...........|...........|C-527......|F-518......|...........|...........|...........|...........|...........|...........|...........|...........|...........|...........|...........|...........
|...........|...........|...........|...........|...........|...........|...........|...........|...........|...........|...........|...........|...........|...........|...........|...........|...........|...........|...........|...........|...........|...........|...........|...........|...........|...........|...........|...........
|...........|...........|...........|...........|...........|...........|...........|...........|...........|...........|...........|...........|...........|...........|...........|...........|...........|...........|...........|...........|...........|...........|...........|...........|...........|...........|...........|...........
|...........|...........|...........|...........|...........|...........|...........|...........|...........|...........|...........|...........|...........|...........|...........|...........|...........|...........|...........|...........|...........|...........|...........|...........|...........|...........|...........|...........
|...........|...........|...........|...........|...........|...........|...........|...........|...........|...........|...........|...........|...........|...........|...........|...........|...........|...........|...........|...........|...........|...........|...........|...........|...........|...........|...........|...........
|...........|...........|E-405......|B-305......|F#305......|A-405......|C-305......|...........|...........|...........|...........|...........|...........|...........|C-527......|...........|...........|...........|...........|...........|...........|...........|...........|...........|...........|...........|...........|...........
|...........|...........|...........|...........|...........|...........|...........|...........|...........|...........|...........|...........|...........|...........|...........|...........|...........|...........|...........|...........|...........|...........|...........|...........|...........|...........|...........|...........
|...........|...........|...........|...........|...........|...........|...........|...........|...........|...........|...........|...........|...........|...........|...........|...........|...........|...........|...........|...........|...........|...........|...........|...........|...........|...........|...........|...........
|...........|...........|...........|...........|...........|...........|...........|...........|...........|...........|G-404......|C-503......|G-525......|...........|C-528......|C-519......|...........|...........|...........|...........|...........|...........|...........|...........|...........|...........|...........|...........
|...........|...........|...........|...........|...........|...........|...........|...........|...........|...........|...........|...........|...........|...........|...........|...........|...........|...........|...........|...........|...........|...........|...........|...........|...........|...........|...........|...........
|...........|...........|...........|...........|...........|...........|...........|...........|...........|...........|...........|...........|...........|...........|...........|...........|...........|...........|...........|...........|...........|...........|...........|...........|...........|...........|...........|...........
|...........|...........|...........|...........|...........|...........|...........|...........|...........|...........|...........|...........|...........|...........|...........|...........|...........|...........|...........|...........|...........|...........|...........|...........|...........|...........|...........|...........
|...........|...........|...........|...........|...........|...........|...........|...........|...........|...........|...........|...........|...........|...........|...........|...........|...........|...........|...........|...........|...........|...........|...........|...........|...........|...........|...........|...........
|...........|...........|...........|...........|...........|...........|...........|...........|...........|...........|C-403......|...........|...........|...........|...........|...........|...........|...........|...........|...........|...........|...........|...........|...........|...........|...........|...........|...........
|...........|...........|...........|...........|...........|...........|...........|...........|...........|...........|...........|...........|...........|...........|...........|...........|...........|...........|...........|...........|...........|...........|...........|...........|...........|...........|...........|...........
|...........|...........|...........|...........|...........|...........|...........|...........|...........|...........|...........|...........|...........|...........|...........|...........|...........|...........|...........|...........|...........|...........|...........|...........|...........|...........|...........|...........
Rows: 64
|...........|G-302......|B-405......|F#405......|D-405......|A-305......|E-305......|...........|...........|...........|...........|C-403......|...........|...........|C-527......|C-519......|...........|...........|...........|...........|...........|...........|...........|...........|...........|...........|...........|...........
|...........|...........|...........|...........|...........|...........|...........|...........|...........|...........|...........|...........|...........|...........|...........|...........|...........|...........|...........|...........|...........|...........|...........|...........|...........|...........|...........|...........
|...........|...........|...........|...........|...........|...........|...........|...........|...........|...........|...........|...........|...........|...........|...........|...........|...........|...........|...........|...........|...........|...........|...........|...........|...........|...........|...........|...........
|...........|...........|...........|...........|...........|...........|...........|...........|...........|...........|...........|...........|...........|...........|...........|...........|...........|...........|...........|...........|...........|...........|...........|...........|...........|...........|...........|...........
|...........|...........|...........|...........|...........|...........|...........|...........|...........|...........|...........|...........|...........|...........|...........|...........|...........|...........|...........|...........|...........|...........|...........|...........|...........|...........|...........|...........
|...........|...........|...........|...........|...........|...........|...........|...........|...........|...........|...........|...........|...........|...........|C-527......|...........|...........|...........|...........|...........|...........|...........|...........|...........|...........|...........|...........|...........
|...........|...........|...........|...........|...........|...........|...........|...........|...........|...........|...........|...........|...........|...........|...........|...........|...........|...........|...........|...........|...........|...........|...........|...........|...........|...........|...........|...........
|...........|...........|...........|...........|...........|...........|...........|...........|...........|...........|...........|...........|...........|...........|...........|...........|...........|...........|...........|...........|...........|...........|...........|...........|...........|...........|...........|...........
|...........|...........|...........|...........|...........|...........|...........|...........|...........|...........|C-503......|G-404......|C-526......|...........|C-528......|...........|...........|...........|...........|...........|...........|...........|...........|...........|...........|...........|...........|...........
|...........|...........|...........|...........|...........|...........|...........|...........|...........|...........|...........|...........|...........|...........|...........|...........|...........|...........|...........|...........|...........|...........|...........|...........|...........|...........|...........|...........
|...........|...........|...........|...........|...........|...........|...........|...........|...........|...........|...........|...........|...........|...........|...........|...........|...........|...........|...........|...........|...........|...........|...........|...........|...........|...........|...........|...........
|...........|...........|...........|...........|...........|...........|...........|...........|...........|...........|...........|...........|...........|...........|...........|...........|...........|...........|...........|...........|...........|...........|...........|...........|...........|...........|...........|...........
|...........|...........|...........|...........|...........|...........|...........|...........|...........|...........|...........|...........|...........|...........|...........|...........|...........|...........|...........|...........|...........|...........|...........|...........|...........|...........|...........|...........
|...........|...........|...........|...........|...........|...........|...........|...........|...........|...........|...........|C-403......|...........|...........|...........|...........|...........|...........|...........|...........|...........|...........|...........|...........|...........|...........|...........|...........
|...........|...........|...........|...........|...........|...........|...........|...........|...........|...........|...........|...........|...........|...........|...........|...........|...........|...........|...........|...........|...........|...........|...........|...........|...........|...........|...........|...........
|...........|...........|...........|...........|...........|...........|...........|...........|...........|...........|...........|...........|...........|...........|...........|...........|...........|...........|...........|...........|...........|...........|...........|...........|...........|...........|...........|...........
|...........|D-302......|...........|...........|...........|...........|...........|...........|...........|...........|C-403......|...........|...........|...........|C-527......|F-518......|...........|...........|...........|...........|...........|...........|...........|...........|...........|...........|...........|...........
|...........|...........|...........|...........|...........|...........|...........|...........|...........|...........|...........|...........|...........|...........|...........|...........|...........|...........|...........|...........|...........|...........|...........|...........|...........|...........|...........|...........
|...........|...........|...........|...........|...........|...........|...........|...........|...........|...........|...........|...........|...........|...........|...........|...........|...........|...........|...........|...........|...........|...........|...........|...........|...........|...........|...........|...........
|...........|...........|...........|...........|...........|...........|...........|...........|...........|...........|...........|...........|...........|...........|...........|...........|...........|...........|...........|...........|...........|...........|...........|...........|...........|...........|...........|...........
|...........|...........|...........|...........|...........|...........|...........|...........|...........|...........|...........|...........|...........|...........|...........|...........|...........|...........|...........|...........|...........|...........|...........|...........|...........|...........|...........|...........
|...........|...........|...........|...........|...........|...........|...........|...........|...........|...........|...........|...........|...........|...........|C-527......|...........|...........|...........|...........|...........|...........|...........|...........|...........|...........|...........|...........|...........
|...........|...........|...........|...........|...........|...........|...........|...........|...........|...........|...........|...........|...........|...........|...........|...........|...........|...........|...........|...........|...........|...........|...........|...........|...........|...........|...........|...........
|...........|...........|...........|...........|...........|...........|...........|...........|...........|...........|...........|...........|...........|...........|...........|...........|...........|...........|...........|...........|...........|...........|...........|...........|...........|...........|...........|...........
|...........|...........|...........|...........|...........|...........|...........|...........|...........|...........|G-404......|C-503......|G-525......|...........|C-528......|...........|...........|...........|...........|...........|...........|...........|...........|...........|...........|...........|...........|...........
|...........|...........|...........|...........|...........|...........|...........|...........|...........|...........|...........|...........|...........|...........|...........|...........|...........|...........|...........|...........|...........|...........|...........|...........|...........|...........|...........|...........
|...........|...........|...........|...........|...........|...........|...........|...........|...........|...........|...........|...........|...........|...........|...........|...........|...........|...........|...........|...........|...........|...........|...........|...........|...........|...........|...........|...........
|...........|...........|...........|...........|...........|...........|...........|...........|...........|...........|...........|...........|...........|...........|...........|...........|...........|...........|...........|...........|...........|...........|...........|...........|...........|...........|...........|...........
|...........|...........|...........|...........|...........|...........|...........|...........|...........|...........|...........|...........|...........|...........|...........|...........|...........|...........|...........|...........|...........|...........|...........|...........|...........|...........|...........|...........
|...........|...........|...........|...........|...........|...........|...........|...........|...........|...........|C-403......|...........|...........|...........|...........|F-518......|...........|...........|...........|...........|...........|...........|...........|...........|...........|...........|...........|...........
|...........|...........|...........|...........|...........|...........|...........|...........|...........|...........|...........|...........|...........|...........|...........|...........|...........|...........|...........|...........|...........|...........|...........|...........|...........|...........|...........|...........
|...........|...........|...........|...........|...........|...........|...........|...........|...........|...........|...........|...........|...........|...........|...........|...........|...........|...........|...........|...........|...........|...........|...........|...........|...........|...........|...........|...........
|...........|F#302......|...........|...........|...........|...........|...........|...........|...........|...........|...........|C-403......|...........|...........|C-527......|...........|...........|...........|...........|...........|...........|...........|...........|...........|...........|...........|...........|...........
|...........|...........|...........|...........|...........|...........|...........|...........|...........|...........|...........|...........|...........|...........|...........|...........|...........|...........|...........|...........|...........|...........|...........|...........|...........|...........|...........|...........
|...........|...........|...........|...........|...........|...........|...........|...........|...........|...........|...........|...........|...........|...........|...........|...........|...........|...........|...........|...........|...........|...........|...........|...........|...........|...........|...........|...........
|...........|...........|...........|...........|...........|...........|...........|...........|...........|...........|...........|...........|...........|...........|...........|...........|...........|...........|...........|...........|...........|...........|...........|...........|...........|...........|...........|...........
|...........|...........|...........|...........|...........|...........|...........|...........|...........|...........|...........|...........|...........|...........|...........|...........|...........|...........|...........|...........|...........|...........|...........|...........|...........|...........|...........|...........
|...........|...........|...........|...........|...........|...........|...........|...........|...........|...........|...........|...........|...........|...........|C-527......|...........|...........|...........|...........|...........|...........|...........|...........|...........|...........|...........|...........|...........
|...........|...........|...........|...........|...........|...........|...........|...........|...........|...........|...........|...........|...........|...........|...........|...........|...........|...........|...........|...........|...........|...........|...........|...........|...........|...........|...........|...........
|...........|...........|...........|...........|...........|...........|...........|...........|...........|...........|...........|...........|...........|...........|...........|...........|...........|...........|...........|...........|...........|...........|...........|...........|...........|...........|...........|...........
|...........|...........|A-405......|E-405......|D-405......|A#305......|E-305......|...........|...........|...........|C-503......|G-404......|C-526......|...........|C-528......|C-519......|...........|...........|...........|...........|...........|...........|...........|...........|...........|...........|...........|...........
|...........|...........|...........|...........|...........|...........|...........|...........|...........|...........|...........|...........|...........|...........|...........|...........|...........|...........|...........|...........|...........|...........|...........|...........|...........|...........|...........|...........
|...........|...........|...........|...........|...........|...........|...........|...........|...........|...........|...........|...........|...........|...........|...........|...........|...........|...........|...........|...........|...........|...........|...........|...........|...........|...........|...........|...........
|...........|...........|...........|...........|...........|...........|...........|...........|...........|...........|...........|...........|...........|...........|...........|...........|...........|...........|...........|...........|...........|...........|...........|...........|...........|...........|...........|...........
|...........|...........|...........|...........|...........|...........|...........|...........|...........|...........|...........|...........|...........|...........|...........|...........|...........|...........|...........|...........|...........|...........|...........|...........|...........|...........|...........|...........
|...........|...........|...........|...........|...........|...........|...........|...........|...........|...........|...........|C-403......|...........|...........|...........|...........|...........|...........|...........|...........|...........|...........|...........|...........|...........|...........|...........|...........
|...........|...........|...........|...........|...........|...........|...........|...........|...........|...........|...........|...........|...........|...........|...........|...........|...........|...........|...........|...........|...........|...........|...........|...........|...........|...........|...........|...........
|...........|...........|...........|...........|...........|...........|...........|...........|...........|...........|...........|...........|...........|...........|...........|...........|...........|...........|...........|...........|...........|...........|...........|...........|...........|...........|...........|...........
|...........|C-302......|...........|...........|...........|...........|...........|...........|...........|...........|C-403......|...........|...........|...........|C-527......|F-518......|...........|...........|...........|...........|...........|...........|...........|...........|...........|...........|...........|...........
|...........|...........|...........|...........|...........|...........|...........|...........|...........|...........|...........|...........|...........|...........|...........|...........|...........|...........|...........|...........|...........|...........|...........|...........|...........|...........|...........|...........
|...........|...........|...........|...........|...........|...........|...........|...........|...........|...........|...........|...........|...........|...........|...........|...........|...........|...........|...........|...........|...........|...........|...........|...........|...........|...........|...........|...........
|...........|...........|...........|...........|...........|...........|...........|...........|...........|...........|...........|...........|...........|...........|...........|...........|...........|...........|...........|...........|...........|...........|...........|...........|...........|...........|...........|...........
|...........|...........|...........|...........|...........|...........|...........|...........|...........|...........|...........|...........|...........|...........|...........|...........|...........|...........|...........|...........|...........|...........|...........|...........|...........|...........|...........|...........
|...........|...........|F#405......|D-405......|A-305......|E-305......|A#305......|...........|...........|...........|...........|...........|...........|...........|C-527......|...........|...........|...........|...........|...........|...........|...........|...........|...........|...........|...........|...........|...........
|...........|...........|...........|...........|...........|...........|...........|...........|...........|...........|...........|...........|...........|...........|...........|...........|...........|...........|...........|...........|...........|...........|...........|...........|...........|...........|...........|...........
|...........|...........|...........|...........|...........|...........|...........|...........|...........|...........|...........|...........|...........|...........|...........|...........|...........|...........|...........|...........|...........|...........|...........|...........|...........|...........|...........|...........
|...........|...........|...........|...........|...........|...........|...........|...........|...........|...........|G-404......|C-503......|G-525......|...........|C-528......|C-519......|...........|...........|...........|...........|...........|...........|...........|...........|...........|...........|...........|...........
|...........|...........|...........|...........|...........|...........|...........|...........|...........|...........|...........|...........|...........|...........|...........|...........|...........|...........|...........|...........|...........|...........|...........|...........|...........|...........|...........|...........
|...........|...........|...........|...........|...........|...........|...........|...........|...........|...........|...........|...........|...........|...........|...........|...........|...........|...........|...........|...........|...........|...........|...........|...........|...........|...........|...........|...........
|...........|...........|...........|...........|...........|...........|...........|...........|...........|...........|...........|...........|...........|...........|...........|...........|...........|...........|...........|...........|...........|...........|...........|...........|...........|...........|...........|...........
|...........|...........|...........|...........|...........|...........|...........|...........|...........|...........|...........|...........|...........|...........|...........|...........|...........|...........|...........|...........|...........|...........|...........|...........|...........|...........|...........|...........
|...........|...........|...........|...........|...........|...........|...........|...........|...........|...........|C-403......|...........|...........|...........|...........|...........|...........|...........|...........|...........|...........|...........|...........|...........|...........|...........|...........|...........
|...........|...........|...........|...........|...........|...........|...........|...........|...........|...........|...........|...........|...........|...........|...........|...........|...........|...........|...........|...........|...........|...........|...........|...........|...........|...........|...........|...........
|...........|...........|...........|...........|...........|...........|...........|...........|...........|...........|...........|...........|...........|...........|...........|...........|...........|...........|...........|...........|...........|...........|...........|...........|...........|...........|...........|...........
Rows: 64
|...........|B-302...M33|A#405......|F#405......|C#505......|G#305......|F#305......|...........|...........|...........|...........|C-403......|...........|...........|C-527......|C-519......|...........|...........|...........|...........|...........|...........|...........|...........|...........|...........|...........|...........
|...........|...........|...........|...........|...........|...........|...........|...........|...........|...........|...........|...........|...........|...........|...........|...........|...........|...........|...........|...........|...........|...........|...........|...........|...........|...........|...........|...........
|...........|...........|...........|...........|...........|...........|...........|...........|...........|...........|...........|...........|...........|...........|...........|...........|...........|...........|...........|...........|...........|...........|...........|...........|...........|...........|...........|...........
|...........|...........|...........|...........|...........|...........|...........|...........|...........|...........|...........|...........|...........|...........|...........|...........|...........|...........|...........|...........|...........|...........|...........|...........|...........|...........|...........|...........
|...........|...........|...........|...........|...........|...........|...........|...........|...........|...........|...........|...........|...........|...........|...........|...........|...........|...........|...........|...........|...........|...........|...........|...........|...........|...........|...........|...........
|...........|...........|...........|...........|...........|...........|...........|...........|...........|...........|...........|...........|...........|...........|C-527......|...........|...........|...........|...........|...........|...........|...........|...........|...........|...........|...........|...........|...........
|...........|...........|...........|...........|...........|...........|...........|...........|...........|...........|...........|...........|...........|...........|...........|...........|...........|...........|...........|...........|...........|...........|...........|...........|...........|...........|...........|...........
|...........|...........|...........|...........|...........|...........|...........|...........|...........|...........|...........|...........|...........|...........|...........|...........|...........|...........|...........|...........|...........|...........|...........|...........|...........|...........|...........|...........
|...........|...........|...........|...........|...........|...........|...........|...........|...........|...........|C-503......|G-404......|C-526......|...........|C-528......|...........|...........|...........|...........|...........|...........|...........|...........|...........|...........|...........|...........|...........
|...........|...........|...........|...........|...........|...........|...........|...........|...........|...........|...........|...........|...........|...........|...........|...........|...........|...........|...........|...........|...........|...........|...........|...........|...........|...........|...........|...........
|...........|...........|...........|...........|...........|...........|...........|...........|...........|...........|...........|...........|...........|...........|...........|...........|...........|...........|...........|...........|...........|...........|...........|...........|...........|...........|...........|...........
|...........|...........|...........|...........|...........|...........|...........|...........|...........|...........|...........|...........|...........|...........|...........|...........|...........|...........|...........|...........|...........|...........|...........|...........|...........|...........|...........|...........
|...........|...........|...........|...........|...........|...........|...........|...........|...........|...........|...........|...........|...........|...........|...........|...........|...........|...........|...........|...........|...........|...........|...........|...........|...........|...........|...........|...........
|...........|...........|...........|...........|...........|...........|...........|...........|...........|...........|...........|C-403......|...........|...........|...........|...........|...........|...........|...........|...........|...........|...........|...........|...........|...........|...........|...........|...........
|...........|...........|...........|...........|...........|...........|...........|...........|...........|...........|...........|...........|...........|...........|...........|...........|...........|...........|...........|...........|...........|...........|...........|...........|...........|...........|...........|...........
|...........|...........|...........|...........|...........|...........|...........|...........|...........|...........|...........|...........|...........|...........|...........|...........|...........|...........|...........|...........|...........|...........|...........|...........|...........|...........|...........|...........
|...........|F#302......|...........|...........|...........|...........|...........|...........|...........|...........|C-403......|...........|...........|...........|C-527......|F-518......|...........|...........|...........|...........|...........|...........|...........|...........|...........|...........|...........|...........
|...........|...........|...........|...........|...........|...........|...........|...........|...........|...........|...........|...........|...........|...........|...........|...........|...........|...........|...........|...........|...........|...........|...........|...........|...........|...........|...........|...........
|...........|...........|...........|...........|...........|...........|...........|...........|...........|...........|...........|...........|...........|...........|...........|...........|...........|...........|...........|...........|...........|...........|...........|...........|...........|...........|...........|...........
|...........|...........|...........|...........|...........|...........|...........|...........|...........|...........|...........|...........|...........|...........|...........|...........|...........|...........|...........|...........|...........|...........|...........|...........|...........|...........|...........|...........
|...........|...........|...........|...........|...........|...........|...........|...........|...........|...........|...........|...........|...........|...........|...........|...........|...........|...........|...........|...........|...........|...........|...........|...........|...........|...........|...........|...........
|...........|...........|...........|...........|...........|...........|...........|...........|...........|...........|...........|...........|...........|...........|C-527......|...........|...........|...........|...........|...........|...........|...........|...........|...........|...........|...........|...........|...........
|...........|...........|...........|...........|...........|...........|...........|...........|...........|...........|...........|...........|...........|...........|...........|...........|...........|...........|...........|...........|...........|...........|...........|...........|...........|...........|...........|...........
|...........|...........|...........|...........|...........|...........|...........|...........|...........|...........|...........|...........|...........|...........|...........|...........|...........|...........|...........|...........|...........|...........|...........|...........|...........|...........|...........|...........
|...........|...........|...........|...........|...........|...........|...........|...........|...........|...........|G-404......|C-503......|G-525......|...........|C-528......|...........|...........|...........|...........|...........|...........|...........|...........|...........|...........|...........|...........|...........
|...........|...........|...........|...........|...........|...........|...........|...........|...........|...........|...........|...........|...........|...........|...........|...........|...........|...........|...........|...........|...........|...........|...........|...........|...........|...........|...........|...........
|...........|...........|...........|...........|...........|...........|...........|...........|...........|...........|...........|...........|...........|...........|...........|...........|...........|...........|...........|...........|...........|...........|...........|...........|...........|...........|...........|...........
|...........|...........|...........|...........|...........|...........|...........|...........|...........|...........|...........|...........|...........|...........|...........|...........|...........|...........|...........|...........|...........|...........|...........|...........|...........|...........|...........|...........
|...........|...........|...........|...........|...........|...........|...........|...........|...........|...........|...........|...........|...........|...........|...........|...........|...........|...........|...........|...........|...........|...........|...........|...........|...........|...........|...........|...........
|...........|...........|...........|...........|...........|...........|...........|...........|...........|...........|C-403......|...........|...........|...........|...........|F-518......|...........|...........|...........|...........|...........|...........|...........|...........|...........|...........|...........|...........
|...........|...........|...........|...........|...........|...........|...........|...........|...........|...........|...........|...........|...........|...........|...........|...........|...........|...........|...........|...........|...........|...........|...........|...........|...........|...........|...........|...........
|...........|...........|...........|...........|...........|...........|...........|...........|...........|...........|...........|...........|...........|...........|...........|...........|...........|...........|...........|...........|...........|...........|...........|...........|...........|...........|...........|...........
|...........|A#302......|...........|...........|...........|...........|...........|...........|...........|...........|...........|C-403......|...........|...........|C-527......|...........|...........|...........|...........|...........|...........|...........|...........|...........|...........|...........|...........|...........
|...........|...........|...........|...........|...........|...........|...........|...........|...........|...........|...........|...........|...........|...........|...........|...........|...........|...........|...........|...........|...........|...........|...........|...........|...........|...........|...........|...........
|...........|...........|...........|...........|...........|...........|...........|...........|...........|...........|...........|...........|...........|...........|...........|...........|...........|...........|...........|...........|...........|...........|...........|...........|...........|...........|...........|...........
|...........|...........|...........|...........|...........|...........|...........|...........|...........|...........|...........|...........|...........|...........|...........|...........|...........|...........|...........|...........|...........|...........|...........|...........|...........|...........|...........|...........
|...........|...........|...........|...........|...........|...........|...........|...........|...........|...........|...........|...........|...........|...........|...........|...........|...........|...........|...........|...........|...........|...........|...........|...........|...........|...........|...........|...........
|...........|...........|...........|...........|...........|...........|...........|...........|...........|...........|...........|...........|...........|...........|C-527......|...........|...........|...........|...........|...........|...........|...........|...........|...........|...........|...........|...........|...........
|...........|...........|...........|...........|...........|...........|...........|...........|...........|...........|...........|...........|...........|...........|...........|...........|...........|...........|...........|...........|...........|...........|...........|...........|...........|...........|...........|...........
|...........|...........|...........|...........|...........|...........|...........|...........|...........|...........|...........|...........|...........|...........|...........|...........|...........|...........|...........|...........|...........|...........|...........|...........|...........|...........|...........|...........
|...........|...........|C#405......|G#305......|D-305......|...........|...........|...........|...........|...........|C-503......|G-404......|C-526......|...........|C-528......|C-519......|...........|...........|...........|...........|...........|...........|...........|...........|...........|...........|...........|...........
|...........|...........|...........|...........|...........|...........|...........|...........|...........|...........|...........|...........|...........|...........|...........|...........|...........|...........|...........|...........|...........|...........|...........|...........|...........|...........|...........|...........
|...........|...........|...........|...........|...........|...........|...........|...........|...........|...........|...........|...........|...........|...........|...........|...........|...........|...........|...........|...........|...........|...........|...........|...........|...........|...........|...........|...........
|...........|...........|...........|...........|...........|...........|...........|...........|...........|...........|...........|...........|...........|...........|...........|...........|...........|...........|...........|...........|...........|...........|...........|...........|...........|...........|...........|...........
|...........|...........|...........|...........|...........|...........|...........|...........|...........|...........|...........|...........|...........|...........|...........|...........|...........|...........|...........|...........|...........|...........|...........|...........|...........|...........|...........|...........
|...........|...........|...........|...........|...........|...........|...........|...........|...........|...........|...........|C-403......|...........|...........|...........|...........|...........|...........|...........|...........|...........|...........|...........|...........|...........|...........|...........|...........
|...........|...........|...........|...........|...........|...........|...........|...........|...........|...........|...........|...........|...........|...........|...........|...........|...........|...........|...........|...........|...........|...........|...........|...........|...........|...........|...........|...........
|...........|...........|...........|...........|...........|...........|...........|...........|...........|...........|...........|...........|...........|...........|...........|...........|...........|...........|...........|...........|...........|...........|...........|...........|...........|...........|...........|...........
|...........|E-302......|...........|...........|...........|...........|...........|...........|...........|...........|C-403......|...........|...........|...........|C-527......|F-518......|...........|...........|...........|...........|...........|...........|...........|...........|...........|...........|...........|...........
|...........|...........|...........|...........|...........|...........|...........|...........|...........|...........|...........|...........|...........|...........|...........|...........|...........|...........|...........|...........|...........|...........|...........|...........|...........|...........|...........|...........
|...........|...........|...........|...........|...........|...........|...........|...........|...........|...........|...........|...........|...........|...........|...........|...........|...........|...........|...........|...........|...........|...........|...........|...........|...........|...........|...........|...........
|...........|...........|...........|...........|...........|...........|...........|...........|...........|...........|...........|...........|...........|...........|...........|...........|...........|...........|...........|...........|...........|...........|...........|...........|...........|...........|...........|...........
|...........|...........|...........|...........|...........|...........|...........|...........|...........|...........|...........|...........|...........|...........|...........|...........|...........|...........|...........|...........|...........|...........|...........|...........|...........|...........|...........|...........
|...........|...........|A#305......|F#305......|D-305......|...........|...........|...........|...........|...........|...........|...........|...........|...........|C-527......|...........|...........|...........|...........|...........|...........|...........|...........|...........|...........|...........|...........|...........
|...........|...........|...........|...........|...........|...........|...........|...........|...........|...........|...........|...........|...........|...........|...........|...........|...........|...........|...........|...........|...........|...........|...........|...........|...........|...........|...........|...........
|...........|...........|...........|...........|...........|...........|...........|...........|...........|...........|...........|...........|...........|...........|...........|...........|...........|...........|...........|...........|...........|...........|...........|...........|...........|...........|...........|...........
|...........|...........|...........|...........|...........|...........|...........|...........|...........|...........|G-404......|C-503......|G-525......|...........|C-528......|C-519......|...........|...........|...........|...........|...........|...........|...........|...........|...........|...........|...........|...........
|...........|...........|...........|...........|...........|...........|...........|...........|...........|...........|...........|...........|...........|...........|...........|...........|...........|...........|...........|...........|...........|...........|...........|...........|...........|...........|...........|...........
|...........|...........|...........|...........|...........|...........|...........|...........|...........|...........|...........|...........|...........|...........|...........|...........|...........|...........|...........|...........|...........|...........|...........|...........|...........|...........|...........|...........
|...........|...........|...........|...........|...........|...........|...........|...........|...........|...........|...........|...........|...........|...........|...........|...........|...........|...........|...........|...........|...........|...........|...........|...........|...........|...........|...........|...........
|...........|...........|...........|...........|...........|...........|...........|...........|...........|...........|...........|...........|...........|...........|...........|...........|...........|...........|...........|...........|...........|...........|...........|...........|...........|...........|...........|...........
|...........|...........|...........|...........|...........|...........|...........|...........|...........|...........|C-403......|...........|...........|...........|...........|...........|...........|...........|...........|...........|...........|...........|...........|...........|...........|...........|...........|...........
|...........|...........|...........|...........|...........|...........|...........|...........|...........|...........|...........|...........|...........|...........|...........|...........|...........|...........|...........|...........|...........|...........|...........|...........|...........|...........|...........|...........
|...........|...........|...........|...........|...........|...........|...........|...........|...........|...........|...........|...........|...........|...........|...........|...........|...........|...........|...........|...........|...........|...........|...........|...........|...........|...........|...........|...........
Rows: 64
|...........|D#302......|F-405......|C-405......|G-305......|...........|...........|...........|...........|...........|...........|C-403......|...........|...........|C-527......|C-519......|...........|...........|...........|...........|...........|...........|...........|...........|...........|...........|...........|...........
|...........|...........|...........|...........|...........|...........|...........|...........|...........|...........|...........|...........|...........|...........|...........|...........|...........|...........|...........|...........|...........|...........|...........|...........|...........|...........|...........|...........
|...........|...........|...........|...........|...........|...........|...........|...........|...........|...........|...........|...........|...........|...........|...........|...........|...........|...........|...........|...........|...........|...........|...........|...........|...........|...........|...........|...........
|...........|...........|...........|...........|...........|...........|...........|...........|...........|...........|...........|...........|...........|...........|...........|...........|...........|...........|...........|...........|...........|...........|...........|...........|...........|...........|...........|...........
|...........|...........|...........|...........|...........|...........|...........|...........|...........|...........|...........|...........|...........|...........|...........|...........|...........|...........|...........|...........|...........|...........|...........|...........|...........|...........|...........|...........
|...........|...........|...........|...........|...........|...........|...........|...........|...........|...........|...........|...........|...........|...........|C-527......|...........|...........|...........|...........|...........|...........|...........|...........|...........|...........|...........|...........|...........
|...........|...........|...........|...........|...........|...........|...........|...........|...........|...........|...........|...........|...........|...........|...........|...........|...........|...........|...........|...........|...........|...........|...........|...........|...........|...........|...........|...........
|...........|...........|...........|...........|...........|...........|...........|...........|...........|...........|...........|...........|...........|...........|...........|...........|...........|...........|...........|...........|...........|...........|...........|...........|...........|...........|...........|...........
|...........|...........|...........|...........|...........|...........|...........|...........|...........|...........|C-503......|G-404......|C-526......|...........|C-528......|...........|...........|...........|...........|...........|...........|...........|...........|...........|...........|...........|...........|...........
|...........|...........|...........|...........|...........|...........|...........|...........|...........|...........|...........|...........|...........|...........|...........|...........|...........|...........|...........|...........|...........|...........|...........|...........|...........|...........|...........|...........
|...........|...........|...........|...........|...........|...........|...........|...........|...........|...........|...........|...........|...........|...........|...........|...........|...........|...........|...........|...........|...........|...........|...........|...........|...........|...........|...........|...........
|...........|...........|...........|...........|...........|...........|...........|...........|...........|...........|...........|...........|...........|...........|...........|...........|...........|...........|...........|...........|...........|...........|...........|...........|...........|...........|...........|...........
|...........|...........|...........|...........|...........|...........|...........|...........|...........|...........|...........|...........|...........|...........|...........|...........|...........|...........|...........|...........|...........|...........|...........|...........|...........|...........|...........|...........
|...........|...........|...........|...........|...........|...........|...........|...........|...........|...........|...........|C-403......|...........|...........|...........|...........|...........|...........|...........|...........|...........|...........|...........|...........|...........|...........|...........|...........
|...........|...........|...........|...........|...........|...........|...........|...........|...........|...........|...........|...........|...........|...........|...........|...........|...........|...........|...........|...........|...........|...........|...........|...........|...........|...........|...........|...........
|...........|...........|...........|...........|...........|...........|...........|...........|...........|...........|...........|...........|...........|...........|...........|...........|...........|...........|...........|...........|...........|...........|...........|...........|...........|...........|...........|...........
|...........|A#302......|...........|...........|...........|...........|...........|...........|...........|...........|C-403......|...........|...........|...........|C-527......|F-518......|...........|...........|...........|...........|...........|...........|...........|...........|...........|...........|...........|...........
|...........|...........|...........|...........|...........|...........|...........|...........|...........|...........|...........|...........|...........|...........|...........|...........|...........|...........|...........|...........|...........|...........|...........|...........|...........|...........|...........|...........
|...........|...........|...........|...........|...........|...........|...........|...........|...........|...........|...........|...........|...........|...........|...........|...........|...........|...........|...........|...........|...........|...........|...........|...........|...........|...........|...........|...........
|...........|...........|...........|...........|...........|...........|...........|...........|...........|...........|...........|...........|...........|...........|...........|...........|...........|...........|...........|...........|...........|...........|...........|...........|...........|...........|...........|...........
|...........|...........|...........|...........|...........|...........|...........|...........|...........|...........|...........|...........|...........|...........|...........|...........|...........|...........|...........|...........|...........|...........|...........|...........|...........|...........|...........|...........
|...........|...........|...........|...........|...........|...........|...........|...........|...........|...........|...........|...........|...........|...........|C-527......|...........|...........|...........|...........|...........|...........|...........|...........|...........|...........|...........|...........|...........
|...........|...........|...........|...........|...........|...........|...........|...........|...........|...........|...........|...........|...........|...........|...........|...........|...........|...........|...........|...........|...........|...........|...........|...........|...........|...........|...........|...........
|...........|...........|...........|...........|...........|...........|...........|...........|...........|...........|...........|...........|...........|...........|...........|...........|...........|...........|...........|...........|...........|...........|...........|...........|...........|...........|...........|...........
|...........|...........|...........|...........|...........|...........|...........|...........|...........|...........|G-404......|C-503......|G-525......|...........|C-528......|...........|...........|...........|...........|...........|...........|...........|...........|...........|...........|...........|...........|...........
|...........|...........|...........|...........|...........|...........|...........|...........|...........|...........|...........|...........|...........|...........|...........|...........|...........|...........|...........|...........|...........|...........|...........|...........|...........|...........|...........|...........
|...........|...........|...........|...........|...........|...........|...........|...........|...........|...........|...........|...........|...........|...........|...........|...........|...........|...........|...........|...........|...........|...........|...........|...........|...........|...........|...........|...........
|...........|...........|...........|...........|...........|...........|...........|...........|...........|...........|...........|...........|...........|...........|...........|...........|...........|...........|...........|...........|...........|...........|...........|...........|...........|...........|...........|...........
|...........|...........|...........|...........|...........|...........|...........|...........|...........|...........|...........|...........|...........|...........|...........|...........|...........|...........|...........|...........|...........|...........|...........|...........|...........|...........|...........|...........
|...........|...........|...........|...........|...........|...........|...........|...........|...........|...........|C-403......|...........|...........|...........|...........|F-518......|...........|...........|...........|...........|...........|...........|...........|...........|...........|...........|...........|...........
|...........|...........|...........|...........|...........|...........|...........|...........|...........|...........|...........|...........|...........|...........|...........|...........|...........|...........|...........|...........|...........|...........|...........|...........|...........|...........|...........|...........
|...........|...........|...........|...........|...........|...........|...........|...........|...........|...........|...........|...........|...........|...........|...........|...........|...........|...........|...........|...........|...........|...........|...........|...........|...........|...........|...........|...........
|...........|G#302......|...........|...........|...........|...........|...........|...........|...........|...........|...........|C-403......|...........|...........|C-527......|...........|...........|...........|...........|...........|...........|...........|...........|...........|...........|...........|...........|...........
|...........|...........|...........|...........|...........|...........|...........|...........|...........|...........|...........|...........|...........|...........|...........|...........|...........|...........|...........|...........|...........|...........|...........|...........|...........|...........|...........|...........
|...........|...........|...........|...........|...........|...........|...........|...........|...........|...........|...........|...........|...........|...........|...........|...........|...........|...........|...........|...........|...........|...........|...........|...........|...........|...........|...........|...........
|...........|...........|...........|...........|...........|...........|...........|...........|...........|...........|...........|...........|...........|...........|...........|...........|...........|...........|...........|...........|...........|...........|...........|...........|...........|...........|...........|...........
|...........|...........|...........|...........|...........|...........|...........|...........|...........|...........|...........|...........|...........|...........|...........|...........|...........|...........|...........|...........|...........|...........|...........|...........|...........|...........|...........|...........
|...........|...........|...........|...........|...........|...........|...........|...........|...........|...........|...........|...........|...........|...........|C-527......|...........|...........|...........|...........|...........|...........|...........|...........|...........|...........|...........|...........|...........
|...........|...........|...........|...........|...........|...........|...........|...........|...........|...........|...........|...........|...........|...........|...........|...........|...........|...........|...........|...........|...........|...........|...........|...........|...........|...........|...........|...........
|...........|...........|...........|...........|...........|...........|...........|...........|...........|...........|...........|...........|...........|...........|...........|...........|...........|...........|...........|...........|...........|...........|...........|...........|...........|...........|...........|...........
|...........|...........|F#405......|D#405......|A#305......|B-305......|F#305......|...........|...........|...........|C-503......|G-404......|C-526......|...........|C-528......|C-519......|...........|...........|...........|...........|...........|...........|...........|...........|...........|...........|...........|...........
|...........|...........|...........|...........|...........|...........|...........|...........|...........|...........|...........|...........|...........|...........|...........|...........|...........|...........|...........|...........|...........|...........|...........|...........|...........|...........|...........|...........
|...........|...........|...........|...........|...........|...........|...........|...........|...........|...........|...........|...........|...........|...........|...........|...........|...........|...........|...........|...........|...........|...........|...........|...........|...........|...........|...........|...........
|...........|...........|...........|...........|...........|...........|...........|...........|...........|...........|...........|...........|...........|...........|...........|...........|...........|...........|...........|...........|...........|...........|...........|...........|...........|...........|...........|...........
|...........|...........|...........|...........|...........|...........|...........|...........|...........|...........|...........|...........|...........|...........|...........|...........|...........|...........|...........|...........|...........|...........|...........|...........|...........|...........|...........|...........
|...........|...........|...........|...........|...........|...........|...........|...........|...........|...........|...........|C-403......|...........|...........|...........|...........|...........|...........|...........|...........|...........|...........|...........|...........|...........|...........|...........|...........
|...........|...........|...........|...........|...........|...........|...........|...........|...........|...........|...........|...........|...........|...........|...........|...........|...........|...........|...........|...........|...........|...........|...........|...........|...........|...........|...........|...........
|...........|...........|...........|...........|...........|...........|...........|...........|...........|...........|...........|...........|...........|...........|...........|...........|...........|...........|...........|...........|...........|...........|...........|...........|...........|...........|...........|...........
|...........|C#302......|...........|...........|...........|...........|...........|...........|...........|...........|C-403......|...........|...........|...........|C-527......|F-518......|...........|...........|...........|...........|...........|...........|...........|...........|...........|...........|...........|...........
|...........|...........|...........|...........|...........|...........|...........|...........|...........|...........|...........|...........|...........|...........|...........|...........|...........|...........|...........|...........|...........|...........|...........|...........|...........|...........|...........|...........
|...........|...........|...........|...........|...........|...........|...........|...........|...........|...........|...........|...........|...........|...........|...........|...........|...........|...........|...........|...........|...........|...........|...........|...........|...........|...........|...........|...........
|...........|...........|...........|...........|...........|...........|...........|...........|...........|...........|...........|...........|...........|...........|...........|...........|...........|...........|...........|...........|...........|...........|...........|...........|...........|...........|...........|...........
|...........|...........|...........|...........|...........|...........|...........|...........|...........|...........|...........|...........|...........|...........|...........|...........|...........|...........|...........|...........|...........|...........|...........|...........|...........|...........|...........|...........
|...........|...........|D#405......|A#305......|F-305......|G#405......|B-305......|...........|...........|...........|...........|...........|...........|...........|C-527......|...........|...........|...........|...........|...........|...........|...........|...........|...........|...........|...........|...........|...........
|...........|...........|...........|...........|...........|...........|...........|...........|...........|...........|...........|...........|...........|...........|...........|...........|...........|...........|...........|...........|...........|...........|...........|...........|...........|...........|...........|...........
|...........|...........|...........|...........|...........|...........|...........|...........|...........|...........|...........|...........|...........|...........|...........|...........|...........|...........|...........|...........|...........|...........|...........|...........|...........|...........|...........|...........
|...........|...........|...........|...........|...........|...........|...........|...........|...........|...........|G-404......|C-503......|G-525......|...........|C-528......|C-519......|...........|...........|...........|...........|...........|...........|...........|...........|...........|...........|...........|...........
|...........|...........|...........|...........|...........|...........|...........|...........|...........|...........|...........|...........|...........|...........|...........|...........|...........|...........|...........|...........|...........|...........|...........|...........|...........|...........|...........|...........
|...........|...........|...........|...........|...........|...........|...........|...........|...........|...........|...........|...........|...........|...........|...........|...........|...........|...........|...........|...........|...........|...........|...........|...........|...........|...........|...........|...........
|...........|...........|...........|...........|...........|...........|...........|...........|...........|...........|...........|...........|...........|...........|...........|...........|...........|...........|...........|...........|...........|...........|...........|...........|...........|...........|...........|...........
|...........|...........|...........|...........|...........|...........|...........|...........|...........|...........|...........|...........|...........|...........|...........|...........|...........|...........|...........|...........|...........|...........|...........|...........|...........|...........|...........|...........
|...........|...........|...........|...........|...........|...........|...........|...........|...........|...........|C-403......|...........|...........|...........|...........|...........|...........|...........|...........|...........|...........|...........|...........|...........|...........|...........|...........|...........
|...........|...........|...........|...........|...........|...........|...........|...........|...........|...........|...........|...........|...........|...........|...........|...........|...........|...........|...........|...........|...........|...........|...........|...........|...........|...........|...........|...........
|...........|...........|...........|...........|...........|...........|...........|...........|...........|...........|...........|...........|...........|...........|...........|...........|...........|...........|...........|...........|...........|...........|...........|...........|...........|...........|...........|...........
Rows: 64
|...........|F#302......|A#405......|F-405......|C#405......|G#305......|D#305......|...........|...........|...........|...........|C-403......|...........|...........|C-527......|C-519......|...........|...........|...........|...........|...........|...........|...........|...........|...........|...........|...........|...........
|...........|...........|...........|...........|...........|...........|...........|...........|...........|...........|...........|...........|...........|...........|...........|...........|...........|...........|...........|...........|...........|...........|...........|...........|...........|...........|...........|...........
|...........|...........|...........|...........|...........|...........|...........|...........|...........|...........|...........|...........|...........|...........|...........|...........|...........|...........|...........|...........|...........|...........|...........|...........|...........|...........|...........|...........
|...........|...........|...........|...........|...........|...........|...........|...........|...........|...........|...........|...........|...........|...........|...........|...........|...........|...........|...........|...........|...........|...........|...........|...........|...........|...........|...........|...........
|...........|...........|...........|...........|...........|...........|...........|...........|...........|...........|...........|...........|...........|...........|...........|...........|...........|...........|...........|...........|...........|...........|...........|...........|...........|...........|...........|...........
|...........|...........|...........|...........|...........|...........|...........|...........|...........|...........|...........|...........|...........|...........|C-527......|...........|...........|...........|...........|...........|...........|...........|...........|...........|...........|...........|...........|...........
|...........|...........|...........|...........|...........|...........|...........|...........|...........|...........|...........|...........|...........|...........|...........|...........|...........|...........|...........|...........|...........|...........|...........|...........|...........|...........|...........|...........
|...........|...........|...........|...........|...........|...........|...........|...........|...........|...........|...........|...........|...........|...........|...........|...........|...........|...........|...........|...........|...........|...........|...........|...........|...........|...........|...........|...........
|...........|...........|...........|...........|...........|...........|...........|...........|...........|...........|C-503......|G-404......|C-526......|...........|C-528......|...........|...........|...........|...........|...........|...........|...........|...........|...........|...........|...........|...........|...........
|...........|...........|...........|...........|...........|...........|...........|...........|...........|...........|...........|...........|...........|...........|...........|...........|...........|...........|...........|...........|...........|...........|...........|...........|...........|...........|...........|...........
|...........|...........|...........|...........|...........|...........|...........|...........|...........|...........|...........|...........|...........|...........|...........|...........|...........|...........|...........|...........|...........|...........|...........|...........|...........|...........|...........|...........
|...........|...........|...........|...........|...........|...........|...........|...........|...........|...........|...........|...........|...........|...........|...........|...........|...........|...........|...........|...........|...........|...........|...........|...........|...........|...........|...........|...........
|...........|...........|...........|...........|...........|...........|...........|...........|...........|...........|...........|...........|...........|...........|...........|...........|...........|...........|...........|...........|...........|...........|...........|...........|...........|...........|...........|...........
|...........|...........|...........|...........|...........|...........|...........|...........|...........|...........|...........|C-403......|...........|...........|...........|...........|...........|...........|...........|...........|...........|...........|...........|...........|...........|...........|...........|...........
|...........|...........|...........|...........|...........|...........|...........|...........|...........|...........|...........|...........|...........|...........|...........|...........|...........|...........|...........|...........|...........|...........|...........|...........|...........|...........|...........|...........
|...........|...........|...........|...........|...........|...........|...........|...........|...........|...........|...........|...........|...........|...........|...........|...........|...........|...........|...........|...........|...........|...........|...........|...........|...........|...........|...........|...........
|...........|C#302......|...........|...........|...........|...........|...........|...........|...........|...........|C-403......|...........|...........|...........|C-527......|F-518......|...........|...........|...........|...........|...........|...........|...........|...........|...........|...........|...........|...........
|...........|...........|...........|...........|...........|...........|...........|...........|...........|...........|...........|...........|...........|...........|...........|...........|...........|...........|...........|...........|...........|...........|...........|...........|...........|...........|...........|...........
|...........|...........|...........|...........|...........|...........|...........|...........|...........|...........|...........|...........|...........|...........|...........|...........|...........|...........|...........|...........|...........|...........|...........|...........|...........|...........|...........|...........
|...........|...........|...........|...........|...........|...........|...........|...........|...........|...........|...........|...........|...........|...........|...........|...........|...........|...........|...........|...........|...........|...........|...........|...........|...........|...........|...........|...........
|...........|...........|...........|...........|...........|...........|...........|...........|...........|...........|...........|...........|...........|...........|...........|...........|...........|...........|...........|...........|...........|...........|...........|...........|...........|...........|...........|...........
|...........|...........|...........|...........|...........|...........|...........|...........|...........|...........|...........|...........|...........|...........|C-527......|...........|...........|...........|...........|...........|...........|...........|...........|...........|...........|...........|...........|...........
|...........|...........|...........|...........|...........|...........|...........|...........|...........|...........|...........|...........|...........|...........|...........|...........|...........|...........|...........|...........|...........|...........|...........|...........|...........|...........|...........|...........
|...........|...........|...........|...........|...........|...........|...........|...........|...........|...........|...........|...........|...........|...........|...........|...........|...........|...........|...........|...........|...........|...........|...........|...........|...........|...........|...........|...........
|...........|...........|...........|...........|...........|...........|...........|...........|...........|...........|G-404......|C-503......|G-525......|...........|C-528......|...........|...........|...........|...........|...........|...........|...........|...........|...........|...........|...........|...........|...........
|...........|...........|...........|...........|...........|...........|...........|...........|...........|...........|...........|...........|...........|...........|...........|...........|...........|...........|...........|...........|...........|...........|...........|...........|...........|...........|...........|...........
|...........|...........|...........|...........|...........|...........|...........|...........|...........|...........|...........|...........|...........|...........|...........|...........|...........|...........|...........|...........|...........|...........|...........|...........|...........|...........|...........|...........
|...........|...........|...........|...........|...........|...........|...........|...........|...........|...........|...........|...........|...........|...........|...........|...........|...........|...........|...........|...........|...........|...........|...........|...........|...........|...........|...........|...........
|...........|...........|...........|...........|...........|...........|...........|...........|...........|...........|...........|...........|...........|...........|...........|...........|...........|...........|...........|...........|...........|...........|...........|...........|...........|...........|...........|...........
|...........|...........|...........|...........|...........|...........|...........|...........|...........|...........|C-403......|...........|...........|...........|...........|F-518......|...........|...........|...........|...........|...........|...........|...........|...........|...........|...........|...........|...........
|...........|...........|...........|...........|...........|...........|...........|...........|...........|...........|...........|...........|...........|...........|...........|...........|...........|...........|...........|...........|...........|...........|...........|...........|...........|...........|...........|...........
|...........|...........|...........|...........|...........|...........|...........|...........|...........|...........|...........|...........|...........|...........|...........|...........|...........|...........|...........|...........|...........|...........|...........|...........|...........|...........|...........|...........
|...........|F-302......|...........|...........|...........|...........|...........|...........|...........|...........|...........|C-403......|...........|...........|C-527......|...........|...........|...........|...........|...........|...........|...........|...........|...........|...........|...........|...........|...........
|...........|...........|...........|...........|...........|...........|...........|...........|...........|...........|...........|...........|...........|...........|...........|...........|...........|...........|...........|...........|...........|...........|...........|...........|...........|...........|...........|...........
|...........|...........|...........|...........|...........|...........|...........|...........|...........|...........|...........|...........|...........|...........|...........|...........|...........|...........|...........|...........|...........|...........|...........|...........|...........|...........|...........|...........
|...........|...........|...........|...........|...........|...........|...........|...........|...........|...........|...........|...........|...........|...........|...........|...........|...........|...........|...........|...........|...........|...........|...........|...........|...........|...........|...........|...........
|...........|...........|...........|...........|...........|...........|...........|...........|...........|...........|...........|...........|...........|...........|...........|...........|...........|...........|...........|...........|...........|...........|...........|...........|...........|...........|...........|...........
|...........|...........|...........|...........|...........|...........|...........|...........|...........|...........|...........|...........|...........|...........|C-527......|...........|...........|...........|...........|...........|...........|...........|...........|...........|...........|...........|...........|...........
|...........|...........|...........|...........|...........|...........|...........|...........|...........|...........|...........|...........|...........|...........|...........|...........|...........|...........|...........|...........|...........|...........|...........|...........|...........|...........|...........|...........
|...........|...........|...........|...........|...........|...........|...........|...........|...........|...........|...........|...........|...........|...........|...........|...........|...........|...........|...........|...........|...........|...........|...........|...........|...........|...........|...........|...........
|...........|...........|G#405......|D#405......|C#405......|A-305......|D#305......|...........|...........|...........|C-503......|G-404......|C-526......|...........|C-528......|C-519......|...........|...........|...........|...........|...........|...........|...........|...........|...........|...........|...........|...........
|...........|...........|...........|...........|...........|...........|...........|...........|...........|...........|...........|...........|...........|...........|...........|...........|...........|...........|...........|...........|...........|...........|...........|...........|...........|...........|...........|...........
|...........|...........|...........|...........|...........|...........|...........|...........|...........|...........|...........|...........|...........|...........|...........|...........|...........|...........|...........|...........|...........|...........|...........|...........|...........|...........|...........|...........
|...........|...........|...........|...........|...........|...........|...........|...........|...........|...........|...........|...........|...........|...........|...........|...........|...........|...........|...........|...........|...........|...........|...........|...........|...........|...........|...........|...........
|...........|...........|...........|...........|...........|...........|...........|...........|...........|...........|...........|...........|...........|...........|...........|...........|...........|...........|...........|...........|...........|...........|...........|...........|...........|...........|...........|...........
|...........|...........|...........|...........|...........|...........|...........|...........|...........|...........|...........|C-403......|...........|...........|...........|...........|...........|...........|...........|...........|...........|...........|...........|...........|...........|...........|...........|...........
|...........|...........|...........|...........|...........|...........|...........|...........|...........|...........|...........|...........|...........|...........|...........|...........|...........|...........|...........|...........|...........|...........|...........|...........|...........|...........|...........|...........
|...........|...........|...........|...........|...........|...........|...........|...........|...........|...........|...........|...........|...........|...........|...........|...........|...........|...........|...........|...........|...........|...........|...........|...........|...........|...........|...........|...........
|...........|B-202......|...........|...........|...........|...........|...........|...........|...........|...........|C-403......|...........|...........|...........|C-527......|F-518......|...........|...........|...........|...........|...........|...........|...........|...........|...........|...........|...........|...........
|...........|...........|...........|...........|...........|...........|...........|...........|...........|...........|...........|...........|...........|...........|...........|...........|...........|...........|...........|...........|...........|...........|...........|...........|...........|...........|...........|...........
|...........|...........|...........|...........|...........|...........|...........|...........|...........|...........|...........|...........|...........|...........|...........|...........|...........|...........|...........|...........|...........|...........|...........|...........|...........|...........|...........|...........
|...........|...........|...........|...........|...........|...........|...........|...........|...........|...........|...........|...........|...........|...........|...........|...........|...........|...........|...........|...........|...........|...........|...........|...........|...........|...........|...........|...........
|...........|...........|...........|...........|...........|...........|...........|...........|...........|...........|...........|...........|...........|...........|...........|...........|...........|...........|...........|...........|...........|...........|...........|...........|...........|...........|...........|...........
|...........|...........|F-405......|C#405......|G#305......|D#305......|A-305......|...........|...........|...........|...........|...........|...........|...........|C-527......|...........|...........|...........|...........|...........|...........|...........|...........|...........|...........|...........|...........|...........
|...........|...........|...........|...........|...........|...........|...........|...........|...........|...........|...........|...........|...........|...........|...........|...........|...........|...........|...........|...........|...........|...........|...........|...........|...........|...........|...........|...........
|...........|...........|...........|...........|...........|...........|...........|...........|...........|...........|...........|...........|...........|...........|...........|...........|...........|...........|...........|...........|...........|...........|...........|...........|...........|...........|...........|...........
|...........|...........|...........|...........|...........|...........|...........|...........|...........|...........|G-404......|C-503......|G-525......|...........|C-528......|C-519......|...........|...........|...........|...........|...........|...........|...........|...........|...........|...........|...........|...........
|...........|...........|...........|...........|...........|...........|...........|...........|...........|...........|...........|...........|...........|...........|...........|...........|...........|...........|...........|...........|...........|...........|...........|...........|...........|...........|...........|...........
|...........|...........|...........|...........|...........|...........|...........|...........|...........|...........|...........|...........|...........|...........|...........|...........|...........|...........|...........|...........|...........|...........|...........|...........|...........|...........|...........|...........
|...........|...........|...........|...........|...........|...........|...........|...........|...........|...........|...........|...........|...........|...........|...........|...........|...........|...........|...........|...........|...........|...........|...........|...........|...........|...........|...........|...........
|...........|...........|...........|...........|...........|...........|...........|...........|...........|...........|...........|...........|...........|...........|...........|...........|...........|...........|...........|...........|...........|...........|...........|...........|...........|...........|...........|...........
|...........|...........|...........|...........|...........|...........|...........|...........|...........|...........|C-403......|...........|...........|...........|...........|...........|...........|...........|...........|...........|...........|...........|...........|...........|...........|...........|...........|...........
|...........|...........|...........|...........|...........|...........|...........|...........|...........|...........|...........|...........|...........|...........|...........|...........|...........|...........|...........|...........|...........|...........|...........|...........|...........|...........|...........|...........
|...........|...........|...........|...........|...........|...........|...........|...........|...........|...........|...........|...........|...........|...........|...........|...........|...........|...........|...........|...........|...........|...........|...........|...........|...........|...........|...........|...........
Rows: 64
|...........|A#302...M33|A-405......|F-405......|C-505......|G-305......|F-305......|...........|...........|...........|...........|C-403......|...........|...........|C-527......|C-519......|...........|...........|...........|...........|...........|...........|...........|...........|...........|...........|...........|...........
|...........|...........|...........|...........|...........|...........|...........|...........|...........|...........|...........|...........|...........|...........|...........|...........|...........|...........|...........|...........|...........|...........|...........|...........|...........|...........|...........|...........
|...........|...........|...........|...........|...........|...........|...........|...........|...........|...........|...........|...........|...........|...........|...........|...........|...........|...........|...........|...........|...........|...........|...........|...........|...........|...........|...........|...........
|...........|...........|...........|...........|...........|...........|...........|...........|...........|...........|...........|...........|...........|...........|...........|...........|...........|...........|...........|...........|...........|...........|...........|...........|...........|...........|...........|...........
|...........|...........|...........|...........|...........|...........|...........|...........|...........|...........|...........|...........|...........|...........|...........|...........|...........|...........|...........|...........|...........|...........|...........|...........|...........|...........|...........|...........
|...........|...........|...........|...........|...........|...........|...........|...........|...........|...........|...........|...........|...........|...........|C-527......|...........|...........|...........|...........|...........|...........|...........|...........|...........|...........|...........|...........|...........
|...........|...........|...........|...........|...........|...........|...........|...........|...........|...........|...........|...........|...........|...........|...........|...........|...........|...........|...........|...........|...........|...........|...........|...........|...........|...........|...........|...........
|...........|...........|...........|...........|...........|...........|...........|...........|...........|...........|...........|...........|...........|...........|...........|...........|...........|...........|...........|...........|...........|...........|...........|...........|...........|...........|...........|...........
|...........|...........|...........|...........|...........|...........|...........|...........|...........|...........|C-503......|G-404......|C-526......|...........|C-528......|...........|...........|...........|...........|...........|...........|...........|...........|...........|...........|...........|...........|...........
|...........|...........|...........|...........|...........|...........|...........|...........|...........|...........|...........|...........|...........|...........|...........|...........|...........|...........|...........|...........|...........|...........|...........|...........|...........|...........|...........|...........
|...........|...........|...........|...........|...........|...........|...........|...........|...........|...........|...........|...........|...........|...........|...........|...........|...........|...........|...........|...........|...........|...........|...........|...........|...........|...........|...........|...........
|...........|...........|...........|...........|...........|...........|...........|...........|...........|...........|...........|...........|...........|...........|...........|...........|...........|...........|...........|...........|...........|...........|...........|...........|...........|...........|...........|...........
|...........|...........|...........|...........|...........|...........|...........|...........|...........|...........|...........|...........|...........|...........|...........|...........|...........|...........|...........|...........|...........|...........|...........|...........|...........|...........|...........|...........
|...........|...........|...........|...........|...........|...........|...........|...........|...........|...........|...........|C-403......|...........|...........|...........|...........|...........|...........|...........|...........|...........|...........|...........|...........|...........|...........|...........|...........
|...........|...........|...........|...........|...........|...........|...........|...........|...........|...........|...........|...........|...........|...........|...........|...........|...........|...........|...........|...........|...........|...........|...........|...........|...........|...........|...........|...........
|...........|...........|...........|...........|...........|...........|...........|...........|...........|...........|...........|...........|...........|...........|...........|...........|...........|...........|...........|...........|...........|...........|...........|...........|...........|...........|...........|...........
|...........|F-302......|...........|...........|...........|...........|...........|...........|...........|...........|C-403......|...........|...........|...........|C-527......|F-518......|...........|...........|...........|...........|...........|...........|...........|...........|...........|...........|...........|...........
|...........|...........|...........|...........|...........|...........|...........|...........|...........|...........|...........|...........|...........|...........|...........|...........|...........|...........|...........|...........|...........|...........|...........|...........|...........|...........|...........|...........
|...........|...........|...........|...........|...........|...........|...........|...........|...........|...........|...........|...........|...........|...........|...........|...........|...........|...........|...........|...........|...........|...........|...........|...........|...........|...........|...........|...........
|...........|...........|...........|...........|...........|...........|...........|...........|...........|...........|...........|...........|...........|...........|...........|...........|...........|...........|...........|...........|...........|...........|...........|...........|...........|...........|...........|...........
|...........|...........|...........|...........|...........|...........|...........|...........|...........|...........|...........|...........|...........|...........|...........|...........|...........|...........|...........|...........|...........|...........|...........|...........|...........|...........|...........|...........
|...........|...........|...........|...........|...........|...........|...........|...........|...........|...........|...........|...........|...........|...........|C-527......|...........|...........|...........|...........|...........|...........|...........|...........|...........|...........|...........|...........|...........
|...........|...........|...........|...........|...........|...........|...........|...........|...........|...........|...........|...........|...........|...........|...........|...........|...........|...........|...........|...........|...........|...........|...........|...........|...........|...........|...........|...........
|...........|...........|...........|...........|...........|...........|...........|...........|...........|...........|...........|...........|...........|...........|...........|...........|...........|...........|...........|...........|...........|...........|...........|...........|...........|...........|...........|...........
|...........|...........|...........|...........|...........|...........|...........|...........|...........|...........|G-404......|C-503......|G-525......|...........|C-528......|...........|...........|...........|...........|...........|...........|...........|...........|...........|...........|...........|...........|...........
|...........|...........|...........|...........|...........|...........|...........|...........|...........|...........|...........|...........|...........|...........|...........|...........|...........|...........|...........|...........|...........|...........|...........|...........|...........|...........|...........|...........
|...........|...........|...........|...........|...........|...........|...........|...........|...........|...........|...........|...........|...........|...........|...........|...........|...........|...........|...........|...........|...........|...........|...........|...........|...........|...........|...........|...........
|...........|...........|...........|...........|...........|...........|...........|...........|...........|...........|...........|...........|...........|...........|...........|...........|...........|...........|...........|...........|...........|...........|...........|...........|...........|...........|...........|...........
|...........|...........|...........|...........|...........|...........|...........|...........|...........|...........|...........|...........|...........|...........|...........|...........|...........|...........|...........|...........|...........|...........|...........|...........|...........|...........|...........|...........
|...........|...........|...........|...........|...........|...........|...........|...........|...........|...........|C-403......|...........|...........|...........|...........|F-518......|...........|...........|...........|...........|...........|...........|...........|...........|...........|...........|...........|...........
|...........|...........|...........|...........|...........|...........|...........|...........|...........|...........|...........|...........|...........|...........|...........|...........|...........|...........|...........|...........|...........|...........|...........|...........|...........|...........|...........|...........
|...........|...........|...........|...........|...........|...........|...........|...........|...........|...........|...........|...........|...........|...........|...........|...........|...........|...........|...........|...........|...........|...........|...........|...........|...........|...........|...........|...........
|...........|A-302......|...........|...........|...........|...........|...........|...........|...........|...........|...........|C-403......|...........|...........|C-527......|...........|...........|...........|...........|...........|...........|...........|...........|...........|...........|...........|...........|...........
|...........|...........|...........|...........|...........|...........|...........|...........|...........|...........|...........|...........|...........|...........|...........|...........|...........|...........|...........|...........|...........|...........|...........|...........|...........|...........|...........|...........
|...........|...........|...........|...........|...........|...........|...........|...........|...........|...........|...........|...........|...........|...........|...........|...........|...........|...........|...........|...........|...........|...........|...........|...........|...........|...........|...........|...........
|...........|...........|...........|...........|...........|...........|...........|...........|...........|...........|...........|...........|...........|...........|...........|...........|...........|...........|...........|...........|...........|...........|...........|...........|...........|...........|...........|...........
|...........|...........|...........|...........|...........|...........|...........|...........|...........|...........|...........|...........|...........|...........|...........|...........|...........|...........|...........|...........|...........|...........|...........|...........|...........|...........|...........|...........
|...........|...........|...........|...........|...........|...........|...........|...........|...........|...........|...........|...........|...........|...........|C-527......|...........|...........|...........|...........|...........|...........|...........|...........|...........|...........|...........|...........|...........
|...........|...........|...........|...........|...........|...........|...........|...........|...........|...........|...........|...........|...........|...........|...........|...........|...........|...........|...........|...........|...........|...........|...........|...........|...........|...........|...........|...........
|...........|...........|...........|...........|...........|...........|...........|...........|...........|...........|...........|...........|...........|...........|...........|...........|...........|...........|...........|...........|...........|...........|...........|...........|...........|...........|...........|...........
|...........|...........|C-405......|G-305......|C#305......|...........|...........|...........|...........|...........|C-503......|G-404......|C-526......|...........|C-528......|C-519......|...........|...........|...........|...........|...........|...........|...........|...........|...........|...........|...........|...........
|...........|...........|...........|...........|...........|...........|...........|...........|...........|...........|...........|...........|...........|...........|...........|...........|...........|...........|...........|...........|...........|...........|...........|...........|...........|...........|...........|...........
|...........|...........|...........|...........|...........|...........|...........|...........|...........|...........|...........|...........|...........|...........|...........|...........|...........|...........|...........|...........|...........|...........|...........|...........|...........|...........|...........|...........
|...........|...........|...........|...........|...........|...........|...........|...........|...........|...........|...........|...........|...........|...........|...........|...........|...........|...........|...........|...........|...........|...........|...........|...........|...........|...........|...........|...........
|...........|...........|...........|...........|...........|...........|...........|...........|...........|...........|...........|...........|...........|...........|...........|...........|...........|...........|...........|...........|...........|...........|...........|...........|...........|...........|...........|...........
|...........|...........|...........|...........|...........|...........|...........|...........|...........|...........|...........|C-403......|...........|...........|...........|...........|...........|...........|...........|...........|...........|...........|...........|...........|...........|...........|...........|...........
|...........|...........|...........|...........|...........|...........|...........|...........|...........|...........|...........|...........|...........|...........|...........|...........|...........|...........|...........|...........|...........|...........|...........|...........|...........|...........|...........|...........
|...........|...........|...........|...........|...........|...........|...........|...........|...........|...........|...........|...........|...........|...........|...........|...........|...........|...........|...........|...........|...........|...........|...........|...........|...........|...........|...........|...........
|...........|D#302......|...........|...........|...........|...........|...........|...........|...........|...........|C-403......|...........|...........|...........|C-527......|F-518......|...........|...........|...........|...........|...........|...........|...........|...........|...........|...........|...........|...........
|...........|...........|...........|...........|...........|...........|...........|...........|...........|...........|...........|...........|...........|...........|...........|...........|...........|...........|...........|...........|...........|...........|...........|...........|...........|...........|...........|...........
|...........|...........|...........|...........|...........|...........|...........|...........|...........|...........|...........|...........|...........|...........|...........|...........|...........|...........|...........|...........|...........|...........|...........|...........|...........|...........|...........|...........
|...........|...........|...........|...........|...........|...........|...........|...........|...........|...........|...........|...........|...........|...........|...........|...........|...........|...........|...........|...........|...........|...........|...........|...........|...........|...........|...........|...........
|...........|...........|...........|...........|...........|...........|...........|...........|...........|...........|...........|...........|...........|...........|...........|...........|...........|...........|...........|...........|...........|...........|...........|...........|...........|...........|...........|...........
|...........|...........|A-305......|F-305......|C#305......|...........|...........|...........|...........|...........|...........|...........|...........|...........|C-527......|...........|...........|...........|...........|...........|...........|...........|...........|...........|...........|...........|...........|...........
|...........|...........|...........|...........|...........|...........|...........|...........|...........|...........|...........|...........|...........|...........|...........|...........|...........|...........|...........|...........|...........|...........|...........|...........|...........|...........|...........|...........
|...........|...........|...........|...........|...........|...........|...........|...........|...........|...........|...........|...........|...........|...........|...........|...........|...........|...........|...........|...........|...........|...........|...........|...........|...........|...........|...........|...........
|...........|...........|...........|...........|...........|...........|...........|...........|...........|...........|G-404......|C-503......|G-525......|...........|C-528......|C-519......|...........|...........|...........|...........|...........|...........|...........|...........|...........|...........|...........|...........
|...........|...........|...........|...........|...........|...........|...........|...........|...........|...........|...........|...........|...........|...........|...........|...........|...........|...........|...........|...........|...........|...........|...........|...........|...........|...........|...........|...........
|...........|...........|...........|...........|...........|...........|...........|...........|...........|...........|...........|...........|...........|...........|...........|...........|...........|...........|...........|...........|...........|...........|...........|...........|...........|...........|...........|...........
|...........|...........|...........|...........|...........|...........|...........|...........|...........|...........|...........|...........|...........|...........|...........|...........|...........|...........|...........|...........|...........|...........|...........|...........|...........|...........|...........|...........
|...........|...........|...........|...........|...........|...........|...........|...........|...........|...........|...........|...........|...........|...........|...........|...........|...........|...........|...........|...........|...........|...........|...........|...........|...........|...........|...........|...........
|...........|...........|...........|...........|...........|...........|...........|...........|...........|...........|C-403......|...........|...........|...........|...........|...........|...........|...........|...........|...........|...........|...........|...........|...........|...........|...........|...........|...........
|...........|...........|...........|...........|...........|...........|...........|...........|...........|...........|...........|...........|...........|...........|...........|...........|...........|...........|...........|...........|...........|...........|...........|...........|...........|...........|...........|...........
|...........|...........|...........|...........|...........|...........|...........|...........|...........|...........|...........|...........|...........|...........|...........|...........|...........|...........|...........|...........|...........|...........|...........|...........|...........|...........|...........|...........
Rows: 64
|...........|D-302......|E-405......|B-305......|F#305......|...........|...........|...........|...........|...........|...........|C-403......|...........|...........|C-527......|C-519......|...........|...........|...........|...........|...........|...........|...........|...........|...........|...........|...........|...........
|...........|...........|...........|...........|...........|...........|...........|...........|...........|...........|...........|...........|...........|...........|...........|...........|...........|...........|...........|...........|...........|...........|...........|...........|...........|...........|...........|...........
|...........|...........|...........|...........|...........|...........|...........|...........|...........|...........|...........|...........|...........|...........|...........|...........|...........|...........|...........|...........|...........|...........|...........|...........|...........|...........|...........|...........
|...........|...........|...........|...........|...........|...........|...........|...........|...........|...........|...........|...........|...........|...........|...........|...........|...........|...........|...........|...........|...........|...........|...........|...........|...........|...........|...........|...........
|...........|...........|...........|...........|...........|...........|...........|...........|...........|...........|...........|...........|...........|...........|...........|...........|...........|...........|...........|...........|...........|...........|...........|...........|...........|...........|...........|...........
|...........|...........|...........|...........|...........|...........|...........|...........|...........|...........|...........|...........|...........|...........|C-527......|...........|...........|...........|...........|...........|...........|...........|...........|...........|...........|...........|...........|...........
|...........|...........|...........|...........|...........|...........|...........|...........|...........|...........|...........|...........|...........|...........|...........|...........|...........|...........|...........|...........|...........|...........|...........|...........|...........|...........|...........|...........
|...........|...........|...........|...........|...........|...........|...........|...........|...........|...........|...........|...........|...........|...........|...........|...........|...........|...........|...........|...........|...........|...........|...........|...........|...........|...........|...........|...........
|...........|...........|...........|...........|...........|...........|...........|...........|...........|...........|C-503......|G-404......|C-526......|...........|C-528......|...........|...........|...........|...........|...........|...........|...........|...........|...........|...........|...........|...........|...........
|...........|...........|...........|...........|...........|...........|...........|...........|...........|...........|...........|...........|...........|...........|...........|...........|...........|...........|...........|...........|...........|...........|...........|...........|...........|...........|...........|...........
|...........|...........|...........|...........|...........|...........|...........|...........|...........|...........|...........|...........|...........|...........|...........|...........|...........|...........|...........|...........|...........|...........|...........|...........|...........|...........|...........|...........
|...........|...........|...........|...........|...........|...........|...........|...........|...........|...........|...........|...........|...........|...........|...........|...........|...........|...........|...........|...........|...........|...........|...........|...........|...........|...........|...........|...........
|...........|...........|...........|...........|...........|...........|...........|...........|...........|...........|...........|...........|...........|...........|...........|...........|...........|...........|...........|...........|...........|...........|...........|...........|...........|...........|...........|...........
|...........|...........|...........|...........|...........|...........|...........|...........|...........|...........|...........|C-403......|...........|...........|...........|...........|...........|...........|...........|...........|...........|...........|...........|...........|...........|...........|...........|...........
|...........|...........|...........|...........|...........|...........|...........|...........|...........|...........|...........|...........|...........|...........|...........|...........|...........|...........|...........|...........|...........|...........|...........|...........|...........|...........|...........|...........
|...........|...........|...........|...........|...........|...........|...........|...........|...........|...........|...........|...........|...........|...........|...........|...........|...........|...........|...........|...........|...........|...........|...........|...........|...........|...........|...........|...........
|...........|A-302......|...........|...........|...........|...........|...........|...........|...........|...........|C-403......|...........|...........|...........|C-527......|F-518......|...........|...........|...........|...........|...........|...........|...........|...........|...........|...........|...........|...........
|...........|...........|...........|...........|...........|...........|...........|...........|...........|...........|...........|...........|...........|...........|...........|...........|...........|...........|...........|...........|...........|...........|...........|...........|...........|...........|...........|...........
|...........|...........|...........|...........|...........|...........|...........|...........|...........|...........|...........|...........|...........|...........|...........|...........|...........|...........|...........|...........|...........|...........|...........|...........|...........|...........|...........|...........
|...........|...........|...........|...........|...........|...........|...........|...........|...........|...........|...........|...........|...........|...........|...........|...........|...........|...........|...........|...........|...........|...........|...........|...........|...........|...........|...........|...........
|...........|...........|...........|...........|...........|...........|...........|...........|...........|...........|...........|...........|...........|...........|...........|...........|...........|...........|...........|...........|...........|...........|...........|...........|...........|...........|...........|...........
|...........|...........|...........|...........|...........|...........|...........|...........|...........|...........|...........|...........|...........|...........|C-527......|...........|...........|...........|...........|...........|...........|...........|...........|...........|...........|...........|...........|...........
|...........|...........|...........|...........|...........|...........|...........|...........|...........|...........|...........|...........|...........|...........|...........|...........|...........|...........|...........|...........|...........|...........|...........|...........|...........|...........|...........|...........
|...........|...........|...........|...........|...........|...........|...........|...........|...........|...........|...........|...........|...........|...........|...........|...........|...........|...........|...........|...........|...........|...........|...........|...........|...........|...........|...........|...........
|...........|...........|...........|...........|...........|...........|...........|...........|...........|...........|G-404......|C-503......|G-525......|...........|C-528......|...........|...........|...........|...........|...........|...........|...........|...........|...........|...........|...........|...........|...........
|...........|...........|...........|...........|...........|...........|...........|...........|...........|...........|...........|...........|...........|...........|...........|...........|...........|...........|...........|...........|...........|...........|...........|...........|...........|...........|...........|...........
|...........|...........|...........|...........|...........|...........|...........|...........|...........|...........|...........|...........|...........|...........|...........|...........|...........|...........|...........|...........|...........|...........|...........|...........|...........|...........|...........|...........
|...........|...........|...........|...........|...........|...........|...........|...........|...........|...........|...........|...........|...........|...........|...........|...........|...........|...........|...........|...........|...........|...........|...........|...........|...........|...........|...........|...........
|...........|...........|...........|...........|...........|...........|...........|...........|...........|...........|...........|...........|...........|...........|...........|...........|...........|...........|...........|...........|...........|...........|...........|...........|...........|...........|...........|...........
|...........|...........|...........|...........|...........|...........|...........|...........|...........|...........|C-403......|...........|...........|...........|...........|F-518......|...........|...........|...........|...........|...........|...........|...........|...........|...........|...........|...........|...........
|...........|...........|...........|...........|...........|...........|...........|...........|...........|...........|...........|...........|...........|...........|...........|...........|...........|...........|...........|...........|...........|...........|...........|...........|...........|...........|...........|...........
|...........|...........|...........|...........|...........|...........|...........|...........|...........|...........|...........|...........|...........|...........|...........|...........|...........|...........|...........|...........|...........|...........|...........|...........|...........|...........|...........|...........
|...........|G-302......|...........|...........|...........|...........|...........|...........|...........|...........|...........|C-403......|...........|...........|C-527......|...........|...........|...........|...........|...........|...........|...........|...........|...........|...........|...........|...........|...........
|...........|...........|...........|...........|...........|...........|...........|...........|...........|...........|...........|...........|...........|...........|...........|...........|...........|...........|...........|...........|...........|...........|...........|...........|...........|...........|...........|...........
|...........|...........|...........|...........|...........|...........|...........|...........|...........|...........|...........|...........|...........|...........|...........|...........|...........|...........|...........|...........|...........|...........|...........|...........|...........|...........|...........|...........
|...........|...........|...........|...........|...........|...........|...........|...........|...........|...........|...........|...........|...........|...........|...........|...........|...........|...........|...........|...........|...........|...........|...........|...........|...........|...........|...........|...........
|...........|...........|...........|...........|...........|...........|...........|...........|...........|...........|...........|...........|...........|...........|...........|...........|...........|...........|...........|...........|...........|...........|...........|...........|...........|...........|...........|...........
|...........|...........|...........|...........|...........|...........|...........|...........|...........|...........|...........|...........|...........|...........|C-527......|...........|...........|...........|...........|...........|...........|...........|...........|...........|...........|...........|...........|...........
|...........|...........|...........|...........|...........|...........|...........|...........|...........|...........|...........|...........|...........|...........|...........|...........|...........|...........|...........|...........|...........|...........|...........|...........|...........|...........|...........|...........
|...........|...........|...........|...........|...........|...........|...........|...........|...........|...........|...........|...........|...........|...........|...........|...........|...........|...........|...........|...........|...........|...........|...........|...........|...........|...........|...........|...........
|...........|...........|F-405......|D-405......|A-305......|A#305......|F-305......|...........|...........|...........|C-503......|G-404......|C-526......|...........|C-528......|C-519......|...........|...........|...........|...........|...........|...........|...........|...........|...........|...........|...........|...........
|...........|...........|...........|...........|...........|...........|...........|...........|...........|...........|...........|...........|...........|...........|...........|...........|...........|...........|...........|...........|...........|...........|...........|...........|...........|...........|...........|...........
|...........|...........|...........|...........|...........|...........|...........|...........|...........|...........|...........|...........|...........|...........|...........|...........|...........|...........|...........|...........|...........|...........|...........|...........|...........|...........|...........|...........
|...........|...........|...........|...........|...........|...........|...........|...........|...........|...........|...........|...........|...........|...........|...........|...........|...........|...........|...........|...........|...........|...........|...........|...........|...........|...........|...........|...........
|...........|...........|...........|...........|...........|...........|...........|...........|...........|...........|...........|...........|...........|...........|...........|...........|...........|...........|...........|...........|...........|...........|...........|...........|...........|...........|...........|...........
|...........|...........|...........|...........|...........|...........|...........|...........|...........|...........|...........|C-403......|...........|...........|...........|...........|...........|...........|...........|...........|...........|...........|...........|...........|...........|...........|...........|...........
|...........|...........|...........|...........|...........|...........|...........|...........|...........|...........|...........|...........|...........|...........|...........|...........|...........|...........|...........|...........|...........|...........|...........|...........|...........|...........|...........|...........
|...........|...........|...........|...........|...........|...........|...........|...........|...........|...........|...........|...........|...........|...........|...........|...........|...........|...........|...........|...........|...........|...........|...........|...........|...........|...........|...........|...........
|...........|C-302......|...........|...........|...........|...........|...........|...........|...........|...........|C-403......|...........|...........|...........|C-527......|F-518......|...........|...........|...........|...........|...........|...........|...........|...........|...........|...........|...........|...........
|...........|...........|...........|...........|...........|...........|...........|...........|...........|...........|...........|...........|...........|...........|...........|...........|...........|...........|...........|...........|...........|...........|...........|...........|...........|...........|...........|...........
|...........|...........|...........|...........|...........|...........|...........|...........|...........|...........|...........|...........|...........|...........|...........|...........|...........|...........|...........|...........|...........|...........|...........|...........|...........|...........|...........|...........
|...........|...........|...........|...........|...........|...........|...........|...........|...........|...........|...........|...........|...........|...........|...........|...........|...........|...........|...........|...........|...........|...........|...........|...........|...........|...........|...........|...........
|...........|...........|...........|...........|...........|...........|...........|...........|...........|...........|...........|...........|...........|...........|...........|...........|...........|...........|...........|...........|...........|...........|...........|...........|...........|...........|...........|...........
|...........|...........|D-405......|A-305......|E-305......|G-405......|A#305......|...........|...........|...........|...........|...........|...........|...........|C-527......|...........|...........|...........|...........|...........|...........|...........|...........|...........|...........|...........|...........|...........
|...........|...........|...........|...........|...........|...........|...........|...........|...........|...........|...........|...........|...........|...........|...........|...........|...........|...........|...........|...........|...........|...........|...........|...........|...........|...........|...........|...........
|...........|...........|...........|...........|...........|...........|...........|...........|...........|...........|...........|...........|...........|...........|...........|...........|...........|...........|...........|...........|...........|...........|...........|...........|...........|...........|...........|...........
|...........|...........|...........|...........|...........|...........|...........|...........|...........|...........|G-404......|C-503......|G-525......|...........|C-528......|C-519......|...........|...........|...........|...........|...........|...........|...........|...........|...........|...........|...........|...........
|...........|...........|...........|...........|...........|...........|...........|...........|...........|...........|...........|...........|...........|...........|...........|...........|...........|...........|...........|...........|...........|...........|...........|...........|...........|...........|...........|...........
|...........|...........|...........|...........|...........|...........|...........|...........|...........|...........|...........|...........|...........|...........|...........|...........|...........|...........|...........|...........|...........|...........|...........|...........|...........|...........|...........|...........
|...........|...........|...........|...........|...........|...........|...........|...........|...........|...........|...........|...........|...........|...........|...........|...........|...........|...........|...........|...........|...........|...........|...........|...........|...........|...........|...........|...........
|...........|...........|...........|...........|...........|...........|...........|...........|...........|...........|...........|...........|...........|...........|...........|...........|...........|...........|...........|...........|...........|...........|...........|...........|...........|...........|...........|...........
|...........|...........|...........|...........|...........|...........|...........|...........|...........|...........|C-403......|...........|...........|...........|...........|...........|...........|...........|...........|...........|...........|...........|...........|...........|...........|...........|...........|...........
|...........|...........|...........|...........|...........|...........|...........|...........|...........|...........|...........|...........|...........|...........|...........|...........|...........|...........|...........|...........|...........|...........|...........|...........|...........|...........|...........|...........
|...........|...........|...........|...........|...........|...........|...........|...........|...........|...........|...........|...........|...........|...........|...........|...........|...........|...........|...........|...........|...........|...........|...........|...........|...........|...........|...........|...........
Rows: 64
|...........|F-302......|A-405......|E-405......|C-405......|G-305......|D-305......|...........|...........|...........|...........|C-403......|...........|...........|C-527......|C-519......|...........|...........|...........|...........|...........|...........|...........|...........|...........|...........|...........|...........
|...........|...........|...........|...........|...........|...........|...........|...........|...........|...........|...........|...........|...........|...........|...........|...........|...........|...........|...........|...........|...........|...........|...........|...........|...........|...........|...........|...........
|...........|...........|...........|...........|...........|...........|...........|...........|...........|...........|...........|...........|...........|...........|...........|...........|...........|...........|...........|...........|...........|...........|...........|...........|...........|...........|...........|...........
|...........|...........|...........|...........|...........|...........|...........|...........|...........|...........|...........|...........|...........|...........|...........|...........|...........|...........|...........|...........|...........|...........|...........|...........|...........|...........|...........|...........
|...........|...........|...........|...........|...........|...........|...........|...........|...........|...........|...........|...........|...........|...........|...........|...........|...........|...........|...........|...........|...........|...........|...........|...........|...........|...........|...........|...........
|...........|...........|...........|...........|...........|...........|...........|...........|...........|...........|...........|...........|...........|...........|C-527......|...........|...........|...........|...........|...........|...........|...........|...........|...........|...........|...........|...........|...........
|...........|...........|...........|...........|...........|...........|...........|...........|...........|...........|...........|...........|...........|...........|...........|...........|...........|...........|...........|...........|...........|...........|...........|...........|...........|...........|...........|...........
|...........|...........|...........|...........|...........|...........|...........|...........|...........|...........|...........|...........|...........|...........|...........|...........|...........|...........|...........|...........|...........|...........|...........|...........|...........|...........|...........|...........
|...........|...........|...........|...........|...........|...........|...........|...........|...........|...........|C-503......|G-404......|C-526......|...........|C-528......|...........|...........|...........|...........|...........|...........|...........|...........|...........|...........|...........|...........|...........
|...........|...........|...........|...........|...........|...........|...........|...........|...........|...........|...........|...........|...........|...........|...........|...........|...........|...........|...........|...........|...........|...........|...........|...........|...........|...........|...........|...........
|...........|...........|...........|...........|...........|...........|...........|...........|...........|...........|...........|...........|...........|...........|...........|...........|...........|...........|...........|...........|...........|...........|...........|...........|...........|...........|...........|...........
|...........|...........|...........|...........|...........|...........|...........|...........|...........|...........|...........|...........|...........|...........|...........|...........|...........|...........|...........|...........|...........|...........|...........|...........|...........|...........|...........|...........
|...........|...........|...........|...........|...........|...........|...........|...........|...........|...........|...........|...........|...........|...........|...........|...........|...........|...........|...........|...........|...........|...........|...........|...........|...........|...........|...........|...........
|...........|...........|...........|...........|...........|...........|...........|...........|...........|...........|...........|C-403......|...........|...........|...........|...........|...........|...........|...........|...........|...........|...........|...........|...........|...........|...........|...........|...........
|...........|...........|...........|...........|...........|...........|...........|...........|...........|...........|...........|...........|...........|...........|...........|...........|...........|...........|...........|...........|...........|...........|...........|...........|...........|...........|...........|...........
|...........|...........|...........|...........|...........|...........|...........|...........|...........|...........|...........|...........|...........|...........|...........|...........|...........|...........|...........|...........|...........|...........|...........|...........|...........|...........|...........|...........
|...........|C-302......|...........|...........|...........|...........|...........|...........|...........|...........|C-403......|...........|...........|...........|C-527......|F-518......|...........|...........|...........|...........|...........|...........|...........|...........|...........|...........|...........|...........
|...........|...........|...........|...........|...........|...........|...........|...........|...........|...........|...........|...........|...........|...........|...........|...........|...........|...........|...........|...........|...........|...........|...........|...........|...........|...........|...........|...........
|...........|...........|...........|...........|...........|...........|...........|...........|...........|...........|...........|...........|...........|...........|...........|...........|...........|...........|...........|...........|...........|...........|...........|...........|...........|...........|...........|...........
|...........|...........|...........|...........|...........|...........|...........|...........|...........|...........|...........|...........|...........|...........|...........|...........|...........|...........|...........|...........|...........|...........|...........|...........|...........|...........|...........|...........
|...........|...........|...........|...........|...........|...........|...........|...........|...........|...........|...........|...........|...........|...........|...........|...........|...........|...........|...........|...........|...........|...........|...........|...........|...........|...........|...........|...........
|...........|...........|...........|...........|...........|...........|...........|...........|...........|...........|...........|...........|...........|...........|C-527......|...........|...........|...........|...........|...........|...........|...........|...........|...........|...........|...........|...........|...........
|...........|...........|...........|...........|...........|...........|...........|...........|...........|...........|...........|...........|...........|...........|...........|...........|...........|...........|...........|...........|...........|...........|...........|...........|...........|...........|...........|...........
|...........|...........|...........|...........|...........|...........|...........|...........|...........|...........|...........|...........|...........|...........|...........|...........|...........|...........|...........|...........|...........|...........|...........|...........|...........|...........|...........|...........
|...........|...........|...........|...........|...........|...........|...........|...........|...........|...........|G-404......|C-503......|G-525......|...........|C-528......|...........|...........|...........|...........|...........|...........|...........|...........|...........|...........|...........|...........|...........
|...........|...........|...........|...........|...........|...........|...........|...........|...........|...........|...........|...........|...........|...........|...........|...........|...........|...........|...........|...........|...........|...........|...........|...........|...........|...........|...........|...........
|...........|...........|...........|...........|...........|...........|...........|...........|...........|...........|...........|...........|...........|...........|...........|...........|...........|...........|...........|...........|...........|...........|...........|...........|...........|...........|...........|...........
|...........|...........|...........|...........|...........|...........|...........|...........|...........|...........|...........|...........|...........|...........|...........|...........|...........|...........|...........|...........|...........|...........|...........|...........|...........|...........|...........|...........
|...........|...........|...........|...........|...........|...........|...........|...........|...........|...........|...........|...........|...........|...........|...........|...........|...........|...........|...........|...........|...........|...........|...........|...........|...........|...........|...........|...........
|...........|...........|...........|...........|...........|...........|...........|...........|...........|...........|C-403......|...........|...........|...........|...........|F-518......|...........|...........|...........|...........|...........|...........|...........|...........|...........|...........|...........|...........
|...........|...........|...........|...........|...........|...........|...........|...........|...........|...........|...........|...........|...........|...........|...........|...........|...........|...........|...........|...........|...........|...........|...........|...........|...........|...........|...........|...........
|...........|...........|...........|...........|...........|...........|...........|...........|...........|...........|...........|...........|...........|...........|...........|...........|...........|...........|...........|...........|...........|...........|...........|...........|...........|...........|...........|...........
|...........|E-302......|...........|...........|...........|...........|...........|...........|...........|...........|...........|C-403......|...........|...........|C-527......|...........|...........|...........|...........|...........|...........|...........|...........|...........|...........|...........|...........|...........
|...........|...........|...........|...........|...........|...........|...........|...........|...........|...........|...........|...........|...........|...........|...........|...........|...........|...........|...........|...........|...........|...........|...........|...........|...........|...........|...........|...........
|...........|...........|...........|...........|...........|...........|...........|...........|...........|...........|...........|...........|...........|...........|...........|...........|...........|...........|...........|...........|...........|...........|...........|...........|...........|...........|...........|...........
|...........|...........|...........|...........|...........|...........|...........|...........|...........|...........|...........|...........|...........|...........|...........|...........|...........|...........|...........|...........|...........|...........|...........|...........|...........|...........|...........|...........
|...........|...........|...........|...........|...........|...........|...........|...........|...........|...........|...........|...........|...........|...........|...........|...........|...........|...........|...........|...........|...........|...........|...........|...........|...........|...........|...........|...........
|...........|...........|...........|...........|...........|...........|...........|...........|...........|...........|...........|...........|...........|...........|C-527......|...........|...........|...........|...........|...........|...........|...........|...........|...........|...........|...........|...........|...........
|...........|...........|...........|...........|...........|...........|...........|...........|...........|...........|...........|...........|...........|...........|...........|...........|...........|...........|...........|...........|...........|...........|...........|...........|...........|...........|...........|...........
|...........|...........|...........|...........|...........|...........|...........|...........|...........|...........|...........|...........|...........|...........|...........|...........|...........|...........|...........|...........|...........|...........|...........|...........|...........|...........|...........|...........
|...........|...........|G-405......|D-405......|C-405......|G#305......|D-305......|...........|...........|...........|C-503......|G-404......|C-526......|...........|C-528......|C-519......|...........|...........|...........|...........|...........|...........|...........|...........|...........|...........|...........|...........
|...........|...........|...........|...........|...........|...........|...........|...........|...........|...........|...........|...........|...........|...........|...........|...........|...........|...........|...........|...........|...........|...........|...........|...........|...........|...........|...........|...........
|...........|...........|...........|...........|...........|...........|...........|...........|...........|...........|...........|...........|...........|...........|...........|...........|...........|...........|...........|...........|...........|...........|...........|...........|...........|...........|...........|...........
|...........|...........|...........|...........|...........|...........|...........|...........|...........|...........|...........|...........|...........|...........|...........|...........|...........|...........|...........|...........|...........|...........|...........|...........|...........|...........|...........|...........
|...........|...........|...........|...........|...........|...........|...........|...........|...........|...........|...........|...........|...........|...........|...........|...........|...........|...........|...........|...........|...........|...........|...........|...........|...........|...........|...........|...........
|...........|...........|...........|...........|...........|...........|...........|...........|...........|...........|...........|C-403......|...........|...........|...........|...........|...........|...........|...........|...........|...........|...........|...........|...........|...........|...........|...........|...........
|...........|...........|...........|...........|...........|...........|...........|...........|...........|...........|...........|...........|...........|...........|...........|...........|...........|...........|...........|...........|...........|...........|...........|...........|...........|...........|...........|...........
|...........|...........|...........|...........|...........|...........|...........|...........|...........|...........|...........|...........|...........|...........|...........|...........|...........|...........|...........|...........|...........|...........|...........|...........|...........|...........|...........|...........
|...........|A#202......|...........|...........|...........|...........|...........|...........|...........|...........|C-403......|...........|...........|...........|C-527......|F-518......|...........|...........|...........|...........|...........|...........|...........|...........|...........|...........|...........|...........
|...........|...........|...........|...........|...........|...........|...........|...........|...........|...........|...........|...........|...........|...........|...........|...........|...........|...........|...........|...........|...........|...........|...........|...........|...........|...........|...........|...........
|...........|...........|...........|...........|...........|...........|...........|...........|...........|...........|...........|...........|...........|...........|...........|...........|...........|...........|...........|...........|...........|...........|...........|...........|...........|...........|...........|...........
|...........|...........|...........|...........|...........|...........|...........|...........|...........|...........|...........|...........|...........|...........|...........|...........|...........|...........|...........|...........|...........|...........|...........|...........|...........|...........|...........|...........
|...........|...........|...........|...........|...........|...........|...........|...........|...........|...........|...........|...........|...........|...........|...........|...........|...........|...........|...........|...........|...........|...........|...........|...........|...........|...........|...........|...........
|...........|...........|E-405......|C-405......|G-305......|D-305......|G#305......|...........|...........|...........|...........|...........|...........|...........|C-527......|...........|...........|...........|...........|...........|...........|...........|...........|...........|...........|...........|...........|...........
|...........|...........|...........|...........|...........|...........|...........|...........|...........|...........|...........|...........|...........|...........|...........|...........|...........|...........|...........|...........|...........|...........|...........|...........|...........|...........|...........|...........
|...........|...........|...........|...........|...........|...........|...........|...........|...........|...........|...........|...........|...........|...........|...........|...........|...........|...........|...........|...........|...........|...........|...........|...........|...........|...........|...........|...........
|...........|...........|...........|...........|...........|...........|...........|...........|...........|...........|G-404......|C-503......|G-525......|...........|C-528......|C-519......|...........|...........|...........|...........|...........|...........|...........|...........|...........|...........|...........|...........
|...........|...........|...........|...........|...........|...........|...........|...........|...........|...........|...........|...........|...........|...........|...........|...........|...........|...........|...........|...........|...........|...........|...........|...........|...........|...........|...........|...........
|...........|...........|...........|...........|...........|...........|...........|...........|...........|...........|...........|...........|...........|...........|...........|...........|...........|...........|...........|...........|...........|...........|...........|...........|...........|...........|...........|...........
|...........|...........|...........|...........|...........|...........|...........|...........|...........|...........|...........|...........|...........|...........|...........|...........|...........|...........|...........|...........|...........|...........|...........|...........|...........|...........|...........|...........
|...........|...........|...........|...........|...........|...........|...........|...........|...........|...........|...........|...........|...........|...........|...........|...........|...........|...........|...........|...........|...........|...........|...........|...........|...........|...........|...........|...........
|...........|...........|...........|...........|...........|...........|...........|...........|...........|...........|C-403......|...........|...........|...........|...........|...........|...........|...........|...........|...........|...........|...........|...........|...........|...........|...........|...........|...........
|...........|...........|...........|...........|...........|...........|...........|...........|...........|...........|...........|...........|...........|...........|...........|...........|...........|...........|...........|...........|...........|...........|...........|...........|...........|...........|...........|...........
|...........|...........|...........|...........|...........|...........|...........|...........|...........|...........|...........|...........|...........|...........|...........|...........|...........|...........|...........|...........|...........|...........|...........|...........|...........|...........|...........|...........
